<?xml version="1.0" encoding="UTF-8" standalone="no"?>
<!-- Created with Inkscape (http://www.inkscape.org/) -->

<svg
   width="80.174995mm"
   height="85.466667mm"
   viewBox="0 0 80.174995 85.466667"
   version="1.1"
   id="svg1"
   inkscape:version="1.4.1 (1:1.4.1+202503302257+93de688d07)"
   sodipodi:docname="schema1.svg"
   inkscape:export-filename="schema11.pdf"
   inkscape:export-xdpi="96"
   inkscape:export-ydpi="96"
   xmlns:inkscape="http://www.inkscape.org/namespaces/inkscape"
   xmlns:sodipodi="http://sodipodi.sourceforge.net/DTD/sodipodi-0.dtd"
   xmlns="http://www.w3.org/2000/svg"
   xmlns:svg="http://www.w3.org/2000/svg">
  <sodipodi:namedview
     id="namedview1"
     pagecolor="#ffffff"
     bordercolor="#000000"
     borderopacity="0.25"
     inkscape:showpageshadow="2"
     inkscape:pageopacity="0.0"
     inkscape:pagecheckerboard="0"
     inkscape:deskcolor="#d1d1d1"
     inkscape:document-units="mm"
     showgrid="true"
     inkscape:zoom="1.0066252"
     inkscape:cx="328.82148"
     inkscape:cy="156.46339"
     inkscape:window-width="1920"
     inkscape:window-height="1008"
     inkscape:window-x="0"
     inkscape:window-y="0"
     inkscape:window-maximized="1"
     inkscape:current-layer="layer1">
    <inkscape:grid
       id="grid1"
       units="mm"
       originx="-52.516665"
       originy="-100.14167"
       spacingx="0.26458333"
       spacingy="0.26458334"
       empcolor="#0099e5"
       empopacity="0.30196078"
       color="#0099e5"
       opacity="0.14901961"
       empspacing="5"
       enabled="true"
       visible="true" />
  </sodipodi:namedview>
  <defs
     id="defs1" />
  <g
     inkscape:label="Calque 1"
     inkscape:groupmode="layer"
     id="layer1"
     transform="translate(-52.516663,-100.14167)">
    <path
       style="fill:#ff0000;fill-opacity:0.53832;stroke:#000000;stroke-width:0.8;stroke-linecap:square;stroke-linejoin:round;stroke-dasharray:none"
       d="M 52.916663,185.20834 H 132.29166"
       id="path1"
       inkscape:export-filename="path1.pdf"
       inkscape:export-xdpi="96"
       inkscape:export-ydpi="96" />
    <path
       style="fill:none;fill-opacity:0.53832;stroke:#000000;stroke-width:0.8;stroke-linecap:square;stroke-linejoin:round;stroke-dasharray:none"
       d="m 84.666663,185.20834 10e-7,-84.66667 H 111.125"
       id="path2"
       sodipodi:nodetypes="ccc" />
    <path
       style="fill:none;fill-opacity:0.53832;stroke:#000000;stroke-width:0.8;stroke-linecap:square;stroke-linejoin:round;stroke-dasharray:none"
       d="m 95.249996,101.07082 v 21.69584"
       id="path3"
       sodipodi:nodetypes="cc" />
    <g
       id="g12"
       transform="translate(0,13.758336)"
       style="stroke-width:0.8;stroke-dasharray:none">
      <path
         style="fill:none;fill-opacity:0.53832;stroke:#000000;stroke-width:0.8;stroke-linecap:round;stroke-linejoin:round;stroke-dasharray:none"
         d="m 98.39583,108.65839 -5.68936,1.13788"
         id="path4" />
      <path
         style="fill:none;fill-opacity:0.53832;stroke:#000000;stroke-width:0.8;stroke-linecap:round;stroke-linejoin:round;stroke-dasharray:none"
         d="m 98.54588,145.55001 -5.68936,1.13788"
         id="path4-3" />
      <path
         style="fill:none;fill-opacity:0.53832;stroke:#000000;stroke-width:0.8;stroke-linecap:round;stroke-linejoin:round;stroke-dasharray:none"
         d="m 92.70647,109.89219 v 36.70196"
         id="path5"
         sodipodi:nodetypes="cc" />
      <path
         style="fill:none;fill-opacity:0.53832;stroke:#000000;stroke-width:0.8;stroke-linecap:round;stroke-linejoin:round;stroke-dasharray:none"
         d="M 98.54588,145.55001 98.39583,108.65839"
         id="path6" />
    </g>
    <path
       style="fill:none;fill-opacity:0.53832;stroke:#000000;stroke-width:0.8;stroke-linecap:round;stroke-linejoin:round;stroke-dasharray:none"
       d="m 103.1875,101.07082 v 2.64583"
       id="path7" />
    <path
       style="fill:none;fill-opacity:0.53832;stroke:#000000;stroke-width:0.8;stroke-linecap:round;stroke-linejoin:round;stroke-dasharray:none"
       d="m 103.1875,141.28759 v 5.29167 h -2.64584"
       id="path8" />
    <path
       style="fill:none;fill-opacity:0.53832;stroke:#000000;stroke-width:0.8;stroke-linecap:round;stroke-linejoin:round;stroke-dasharray:none"
       d="M 105.83333,146.57926 H 103.1875"
       id="path9" />
    <path
       style="fill:none;fill-opacity:0.53832;stroke:#000000;stroke-width:0.8;stroke-linecap:round;stroke-linejoin:round;stroke-dasharray:none"
       d="m 103.1875,146.57926 v 18.52083"
       id="path10"
       sodipodi:nodetypes="cc" />
    <path
       style="fill:none;fill-opacity:0.53832;stroke:#000000;stroke-width:0.8;stroke-linecap:round;stroke-linejoin:round;stroke-dasharray:none"
       d="M 97.895829,170.39176 H 108.47916"
       id="path11" />
    <path
       style="fill:none;fill-opacity:0.53832;stroke:#000000;stroke-width:0.8;stroke-linecap:round;stroke-linejoin:round;stroke-dasharray:none"
       d="m 100.54166,165.10009 h 5.29167 v 5.29167 h -5.29167 z"
       id="path12" />
    <path
       style="fill:#000000;stroke-width:0.120755"
       d="m 100.89853,142.7941 c -0.12549,-0.17025 -0.26356,-0.41336 -0.34215,-0.60232 -0.16751,-0.40272 -0.26163,-0.88591 -0.19891,-1.02176 0.0594,-0.12892 0.23349,-0.15265 0.33789,-0.0465 0.0488,0.0499 0.0604,0.0839 0.0773,0.22636 0.0704,0.59376 0.33485,1.11243 0.77177,1.51415 0.33744,0.3103 0.69793,0.49406 1.16139,0.59212 0.63437,0.13404 1.3367,-0.006 1.87013,-0.3733 0.18363,-0.12652 0.46621,-0.40354 0.59626,-0.58482 0.79037,-1.10141 0.50963,-2.67614 -0.61231,-3.43455 -0.33109,-0.2239 -0.60421,-0.32609 -1.11233,-0.41666 -0.15607,-0.0277 -0.22171,-0.0943 -0.22075,-0.22316 9.5e-4,-0.0776 0.009,-0.10257 0.0611,-0.15196 0.0723,-0.0708 0.0817,-0.0727 0.50381,-0.10224 0.18108,-0.012 0.43004,-0.0318 0.5533,-0.0428 0.12329,-0.009 0.24553,-0.0222 0.27169,-0.0245 0.16853,-0.0136 -0.12653,-0.0471 -1.38284,-0.15709 -1.67252,-0.14651 -2.03239,-0.19373 -2.30311,-0.30366 -0.19302,-0.0787 -0.27404,-0.22002 -0.21607,-0.37797 0.0833,-0.2271 0.46777,-0.30224 2.11718,-0.41408 1.27336,-0.0862 1.74332,-0.1226 1.81289,-0.13985 0.0222,-0.006 0.0222,-0.009 0.001,-0.0136 -0.0537,-0.0119 -0.77268,-0.0832 -1.40489,-0.13711 -1.227,-0.10401 -1.76122,-0.16495 -2.08031,-0.23617 -0.15095,-0.034 -0.33138,-0.11065 -0.38339,-0.16375 -0.0487,-0.0496 -0.0787,-0.1682 -0.0607,-0.23912 0.0222,-0.084 0.118,-0.18214 0.21973,-0.22316 0.24475,-0.0981 0.81515,-0.16375 2.19808,-0.25249 0.82128,-0.0528 1.52293,-0.11043 1.52309,-0.1255 9e-5,-0.007 -0.0196,-0.0136 -0.044,-0.0154 -0.0245,-0.002 -0.25861,-0.0251 -0.52057,-0.0509 -0.26202,-0.0256 -0.72227,-0.0676 -1.02287,-0.0928 -1.57661,-0.13285 -2.06538,-0.21264 -2.24918,-0.36705 -0.12516,-0.10478 -0.13284,-0.27353 -0.0154,-0.38501 0.17007,-0.16513 0.6386,-0.2352 2.31409,-0.34583 1.06716,-0.0707 1.55417,-0.10998 1.55435,-0.12652 1.3e-4,-0.0136 -0.70849,-0.088 -1.49303,-0.153 -1.67102,-0.13934 -2.19617,-0.22637 -2.35721,-0.39068 -0.11064,-0.11338 -0.11133,-0.27439 -0.002,-0.38018 0.15675,-0.15111 0.65132,-0.22439 2.22799,-0.32988 1.12683,-0.0751 1.65089,-0.11713 1.65106,-0.13199 1.5e-4,-0.0154 -0.22293,-0.0391 -1.27396,-0.13182 -1.90338,-0.16802 -2.27564,-0.22048 -2.51552,-0.35452 -0.11662,-0.0654 -0.15692,-0.12789 -0.15555,-0.24376 9.1e-4,-0.1168 0.0565,-0.1935 0.18419,-0.25508 0.24921,-0.12021 0.64276,-0.16819 2.32039,-0.28235 1.04131,-0.071 1.44264,-0.10247 1.45559,-0.11526 0.0197,-0.0154 -0.2496,-0.0458 -1.53514,-0.15862 -1.55611,-0.13643 -1.99351,-0.19817 -2.22852,-0.31421 -0.10024,-0.0495 -0.13796,-0.0876 -0.17235,-0.17306 -0.0353,-0.0884 -0.007,-0.19572 0.0724,-0.27358 0.17394,-0.17079 0.60741,-0.2325 2.50686,-0.35714 0.50174,-0.0328 1.22538,-0.0877 1.35583,-0.1028 0.0424,-0.006 0.0434,-0.007 0.0119,-0.0136 -0.0543,-0.0136 -0.61384,-0.0705 -1.60528,-0.15675 -1.93076,-0.16802 -2.27473,-0.24329 -2.33691,-0.51102 -0.0387,-0.16648 0.0584,-0.279 0.30704,-0.35612 0.30203,-0.0934 0.70983,-0.13779 2.20886,-0.23864 0.88431,-0.0596 1.3814,-0.0997 1.4427,-0.11594 0.0267,-0.007 0.0245,-0.009 -0.0136,-0.0136 -0.46175,-0.0488 -0.96817,-0.0965 -1.60907,-0.1518 -1.63467,-0.1407 -2.07885,-0.2168 -2.24306,-0.38449 -0.10888,-0.11099 -0.10888,-0.27333 7e-5,-0.37831 0.15112,-0.14581 0.66703,-0.22269 2.17868,-0.32496 1.15253,-0.078 1.19098,-0.0808 1.41622,-0.10124 0.30683,-0.0279 0.31205,-0.0287 0.27305,-0.0396 -0.0522,-0.0136 -0.5368,-0.0633 -1.18628,-0.11919 -2.04246,-0.1761 -2.49571,-0.24778 -2.67255,-0.42275 -0.0867,-0.0858 -0.10534,-0.21016 -0.0466,-0.31002 0.12738,-0.21677 0.4858,-0.27543 2.51621,-0.41215 0.99579,-0.0669 1.4136,-0.10157 1.41375,-0.11713 1.5e-4,-0.0119 -0.6141,-0.0757 -1.47162,-0.15009 -0.34104,-0.0297 -0.72825,-0.0637 -0.86051,-0.0751 -0.9021,-0.0795 -1.41142,-0.18416 -1.54143,-0.31675 -0.0575,-0.0589 -0.088,-0.16529 -0.0688,-0.24111 0.0676,-0.26766 0.42521,-0.34302 2.19345,-0.46244 0.24427,-0.0154 0.59848,-0.0405 0.78709,-0.0529 0.32636,-0.0222 0.86363,-0.0656 0.96356,-0.0782 0.0413,-0.006 0.0428,-0.007 0.0136,-0.0136 -0.0469,-0.0119 -0.67816,-0.0743 -1.48104,-0.14429 -1.83606,-0.15966 -2.21973,-0.22369 -2.39363,-0.3992 -0.11457,-0.11561 -0.10157,-0.2842 0.0297,-0.38567 0.19838,-0.15316 0.60773,-0.21115 2.27868,-0.32274 0.64527,-0.0428 1.13312,-0.079 1.45785,-0.10744 0.0722,-0.007 0.12584,-0.0154 0.11935,-0.0222 -0.0136,-0.0136 -0.4691,-0.0597 -1.48587,-0.14856 -1.81122,-0.15828 -2.20706,-0.22294 -2.36847,-0.38737 -0.1255,-0.12807 -0.12738,-0.26193 -0.006,-0.3784 0.0777,-0.0742 0.23812,-0.13404 0.47528,-0.17733 0.22734,-0.0415 0.93162,-0.10567 1.72648,-0.15795 0.84351,-0.0555 1.66434,-0.1185 1.6752,-0.1296 0.0154,-0.0154 -0.46334,-0.0685 -1.33972,-0.14241 -1.53489,-0.1296 -2.14779,-0.2099 -2.38953,-0.31326 -0.12363,-0.0529 -0.17183,-0.0965 -0.20846,-0.18836 -0.0645,-0.16136 0.0594,-0.32058 0.30981,-0.39857 0.26588,-0.0827 0.80183,-0.13711 2.41808,-0.245 0.91222,-0.061 1.26228,-0.0922 1.21004,-0.10843 -0.0525,-0.0154 -0.72977,-0.0837 -1.4008,-0.13933 -1.47684,-0.1226 -2.09173,-0.20574 -2.3347,-0.31544 -0.27447,-0.12396 -0.27474,-0.40569 -4.7e-4,-0.53366 0.23768,-0.11065 0.66227,-0.16103 2.29133,-0.27175 0.95899,-0.0651 1.47363,-0.10533 1.48516,-0.11695 0.0154,-0.0154 -0.45157,-0.0642 -1.61166,-0.16478 -1.34958,-0.11697 -1.76166,-0.17025 -2.04893,-0.26471 -0.18361,-0.0603 -0.2729,-0.13574 -0.30036,-0.25404 -0.0154,-0.0783 0.0136,-0.18289 0.0779,-0.2433 0.15607,-0.15043 0.65188,-0.22391 2.22833,-0.32951 1.02932,-0.0688 1.65057,-0.11918 1.6507,-0.13335 1.1e-4,-0.0137 -0.40713,-0.0565 -1.51293,-0.15316 -1.65266,-0.14463 -2.07042,-0.20675 -2.29471,-0.34064 -0.20332,-0.12158 -0.19128,-0.36439 0.0245,-0.47922 0.23958,-0.12756 0.63167,-0.17661 2.35649,-0.29339 0.86317,-0.0584 1.36603,-0.0989 1.42944,-0.11526 0.0289,-0.007 0.0271,-0.009 -0.0136,-0.0136 -0.14156,-0.0197 -1.02096,-0.10257 -1.68449,-0.15965 -1.50324,-0.12841 -2.01218,-0.21558 -2.16341,-0.36977 -0.10257,-0.10468 -0.0975,-0.26741 0.0119,-0.375 0.16648,-0.16375 0.60131,-0.22905 2.26227,-0.33982 0.45492,-0.0304 0.99006,-0.0688 1.18919,-0.0861 0.19915,-0.0154 0.38202,-0.0324 0.40639,-0.0342 0.0245,-0.002 0.0406,-0.007 0.0358,-0.0119 -0.0119,-0.0119 -0.66467,-0.0777 -1.30572,-0.13148 -1.927,-0.16118 -2.41488,-0.24035 -2.58907,-0.41824 -0.0987,-0.10092 -0.0958,-0.2636 0.007,-0.36401 0.16819,-0.16512 0.58051,-0.2244 2.4557,-0.35371 1.1882,-0.082 1.44159,-0.10301 1.42622,-0.11867 -0.0136,-0.0136 -0.61424,-0.0741 -1.62156,-0.16154 -1.33443,-0.11577 -1.72064,-0.16579 -2.00319,-0.25943 -0.26789,-0.0887 -0.36907,-0.22219 -0.30354,-0.40046 0.0867,-0.23664 0.52652,-0.31744 2.35996,-0.43357 0.52208,-0.0331 1.52552,-0.10965 1.56645,-0.11953 0.0136,-0.002 0.0245,-0.009 0.0196,-0.0136 -0.0119,-0.0119 -0.68539,-0.077 -1.59391,-0.15539 -1.51216,-0.12994 -1.96089,-0.1962 -2.18873,-0.32258 -0.15674,-0.087 -0.2082,-0.21927 -0.13915,-0.357 0.11884,-0.23688 0.43775,-0.28995 2.62157,-0.43627 0.84646,-0.0566 1.27324,-0.0921 1.30741,-0.10788 0.0301,-0.0136 -0.36238,-0.0544 -1.39157,-0.14446 -1.48759,-0.12994 -1.96034,-0.18838 -2.23423,-0.27656 -0.24756,-0.0795 -0.35457,-0.20555 -0.31343,-0.36829 0.0485,-0.19153 0.28491,-0.28196 0.93082,-0.35533 0.30187,-0.0345 0.65453,-0.0625 1.54309,-0.12174 1.01373,-0.0678 1.46759,-0.10523 1.46774,-0.12005 1.4e-4,-0.0154 -0.51896,-0.0698 -1.58047,-0.16136 -1.64443,-0.14139 -2.11081,-0.22023 -2.27145,-0.38371 -0.10744,-0.10899 -0.1091,-0.27193 -0.006,-0.37461 0.0981,-0.0967 0.4046,-0.17553 0.87562,-0.22611 0.12772,-0.0136 0.23225,-0.0296 0.23225,-0.0349 4e-5,-0.006 -0.0633,-0.0493 -0.14052,-0.0974 -0.61999,-0.3854 -1.10211,-1.04903 -1.26772,-1.74486 -0.18785,-0.7894 -0.0435,-1.59828 0.40699,-2.2825 0.16033,-0.24353 0.57232,-0.64763 0.81899,-0.80331 0.99143,-0.62569 2.18912,-0.60767 3.18474,0.048 0.11043,0.0729 0.19767,0.15095 0.41042,0.36877 0.24638,0.2521 0.28072,0.29393 0.39157,0.47637 0.19646,0.32347 0.34627,0.72616 0.39987,1.07477 0.0286,0.1864 0.0289,0.28034 0.001,0.34061 -0.0594,0.12892 -0.23345,0.15265 -0.33785,0.0465 -0.0488,-0.0499 -0.0604,-0.0842 -0.0779,-0.22614 -0.0399,-0.33006 -0.11799,-0.58062 -0.27339,-0.87372 -0.55234,-1.04316 -1.80364,-1.53572 -2.92983,-1.15328 -0.31671,0.10777 -0.57813,0.26267 -0.84549,0.50162 -0.82137,0.7341 -1.042,1.96534 -0.52449,2.92713 0.23812,0.44246 0.55212,0.76279 0.9876,1.00747 0.33292,0.18713 0.73845,0.29321 1.1373,0.29773 0.21238,0.002 0.22931,0.006 0.28369,0.0614 0.0695,0.0713 0.0854,0.14513 0.049,0.23125 -0.0443,0.10534 -0.10445,0.12635 -0.42371,0.1465 -0.54464,0.0345 -1.33235,0.10091 -1.33245,0.11219 -1.5e-4,0.0136 0.49411,0.0641 1.60157,0.16119 1.62863,0.14258 1.99535,0.19913 2.21497,0.34149 0.1378,0.0892 0.17113,0.25302 0.079,0.38505 -0.12516,0.17915 -0.63728,0.26152 -2.27761,0.36632 -0.77279,0.0493 -1.56105,0.11032 -1.60975,0.12449 -0.0391,0.0119 -0.0387,0.0119 0.006,0.0154 0.15675,0.0196 0.88601,0.0905 1.41789,0.13608 1.46497,0.12534 1.98087,0.19129 2.23311,0.28584 0.206,0.0773 0.30154,0.205 0.2641,0.35317 -0.0672,0.26567 -0.43218,0.34118 -2.22909,0.46117 -1.31079,0.0874 -1.78148,0.12669 -1.72458,0.1436 0.0524,0.0136 0.61406,0.0701 1.62662,0.15828 1.90203,0.1653 2.25339,0.24252 2.31537,0.5094 0.0383,0.16511 -0.071,0.28681 -0.32725,0.36469 -0.26065,0.079 -0.94663,0.15198 -2.10567,0.22344 -0.65748,0.0405 -1.52321,0.10977 -1.5234,0.12227 -3.1e-4,0.0196 0.55628,0.0751 1.63591,0.16648 1.26876,0.10744 1.84219,0.18492 2.07663,0.2813 0.0512,0.0222 0.1226,0.0678 0.15863,0.10401 0.11883,0.11935 0.10024,0.30428 -0.0412,0.399 -0.14513,0.0975 -0.53888,0.17481 -1.179,0.23103 -0.14718,0.0119 -0.62732,0.0478 -1.0673,0.0773 -0.87155,0.0588 -1.53568,0.1091 -1.58424,0.12072 -0.0751,0.0154 0.13848,0.0414 1.377,0.15044 1.54247,0.13608 2.01323,0.19494 2.26515,0.28338 0.23226,0.0812 0.32801,0.2055 0.28323,0.3665 -0.0736,0.26429 -0.43955,0.33792 -2.28792,0.46022 -0.98271,0.0651 -1.64904,0.11764 -1.66364,0.1313 -0.0154,0.0136 0.34426,0.0528 1.4854,0.15266 2.06333,0.18104 2.39495,0.25088 2.45703,0.51833 0.034,0.14599 -0.0642,0.28237 -0.2495,0.34797 -0.26429,0.0934 -0.75643,0.14822 -2.23724,0.24941 -0.89316,0.061 -1.29616,0.0921 -1.45775,0.11269 -0.0389,0.006 -0.0418,0.007 -0.0136,0.0136 0.0548,0.0136 0.73415,0.0792 1.5976,0.15316 1.28141,0.10966 1.84914,0.18617 2.10734,0.28302 0.26282,0.0985 0.33252,0.34564 0.1395,0.49469 -0.19742,0.15249 -0.58997,0.2055 -2.46855,0.33345 -0.47436,0.0323 -0.96331,0.0676 -1.08655,0.0789 -0.12311,0.009 -0.24543,0.0222 -0.27164,0.0244 -0.16989,0.0136 0.13217,0.048 1.39651,0.1576 1.41776,0.12312 1.86808,0.17751 2.1704,0.2631 0.1313,0.0369 0.17607,0.0597 0.25092,0.12686 0.081,0.0727 0.0924,0.0912 0.10157,0.16427 0.0119,0.0978 -0.0328,0.1957 -0.11628,0.25227 -0.19078,0.12908 -0.73087,0.20502 -2.11007,0.29561 -0.98943,0.0651 -1.65466,0.11645 -1.72092,0.13285 -0.0222,0.006 -0.0222,0.009 1.1e-4,0.0136 0.0453,0.0119 0.54343,0.0598 1.32912,0.1279 1.40046,0.12173 1.79814,0.16681 2.12598,0.24033 0.35013,0.0787 0.47856,0.17551 0.47678,0.36001 -9.5e-4,0.0849 -0.009,0.10301 -0.0745,0.16751 -0.18419,0.18069 -0.5294,0.232 -2.4236,0.35961 -0.99309,0.0669 -1.44329,0.10434 -1.46045,0.12122 -0.007,0.007 0.012,0.0136 0.0443,0.0154 0.0318,0.002 0.16494,0.0136 0.29562,0.028 0.13062,0.0119 0.62485,0.0584 1.09816,0.10025 1.52986,0.13541 1.94481,0.18735 2.20456,0.27698 0.42011,0.14497 0.41684,0.47814 -0.006,0.6117 -0.2553,0.0808 -0.82645,0.14053 -2.20927,0.23176 -0.80049,0.0529 -1.38573,0.0994 -1.43927,0.11424 -0.0574,0.0137 0.24184,0.0475 1.44346,0.1518 1.48626,0.12908 1.92105,0.18443 2.19567,0.27852 0.25436,0.0869 0.36028,0.23347 0.28992,0.40023 -0.10158,0.24083 -0.46206,0.30548 -2.42373,0.43545 -0.93199,0.0616 -1.5199,0.11032 -1.52006,0.12586 -1.5e-4,0.0136 0.35453,0.0512 1.37625,0.1395 1.72058,0.14838 2.17088,0.21287 2.41234,0.34565 0.11043,0.0606 0.15744,0.13558 0.15642,0.24976 -9e-4,0.0842 -0.009,0.10036 -0.0801,0.17008 -0.18105,0.17677 -0.5614,0.23542 -2.27369,0.35038 -1.08117,0.0727 -1.60466,0.11491 -1.60484,0.1296 -1.3e-4,0.0136 0.63819,0.0787 1.4706,0.14889 1.68985,0.14309 2.18515,0.22075 2.37441,0.373 0.13404,0.10788 0.14121,0.2724 0.0154,0.39442 -0.17024,0.16734 -0.56127,0.22461 -2.36651,0.34639 -0.68066,0.0458 -1.40226,0.10113 -1.49787,0.11457 -0.0422,0.006 -0.0436,0.007 -0.0119,0.0119 0.11338,0.0196 0.68993,0.0773 1.46954,0.14496 1.78251,0.15471 2.18334,0.21777 2.37113,0.37354 0.14804,0.12294 0.15231,0.28864 0.009,0.40461 -0.194,0.15795 -0.61384,0.21803 -2.33467,0.33463 -1.1255,0.0761 -1.52706,0.10843 -1.52747,0.12225 -4.1e-4,0.0154 0.39898,0.0572 1.4784,0.1518 1.81511,0.15915 2.22147,0.22589 2.38448,0.39169 0.15334,0.15607 0.10501,0.34754 -0.1144,0.45008 -0.23397,0.10932 -0.70582,0.16597 -2.2777,0.2734 -1.31785,0.09 -1.50771,0.10633 -1.48807,0.12602 0.009,0.0119 0.52922,0.0616 1.48235,0.14514 1.45173,0.12669 1.842,0.17607 2.14103,0.26949 0.0858,0.0267 0.18254,0.0673 0.21482,0.0905 0.0809,0.0572 0.12586,0.15674 0.11134,0.24774 -0.0478,0.30495 -0.34528,0.36449 -2.56035,0.51214 -0.89285,0.0596 -1.38574,0.10036 -1.40177,0.11594 -0.0136,0.0136 0.56836,0.0729 1.93301,0.1898 1.24718,0.1071 1.73837,0.19301 1.91573,0.33552 0.18861,0.1518 0.11287,0.39746 -0.15129,0.49095 -0.27496,0.0974 -0.72223,0.14667 -2.30255,0.25403 -1.22144,0.083 -1.47936,0.10567 -1.40841,0.12311 0.0559,0.0136 0.89782,0.0944 1.67173,0.15999 0.86232,0.073 1.49828,0.14617 1.76934,0.20235 0.38572,0.0804 0.55424,0.22269 0.50312,0.42493 -0.028,0.11053 -0.10843,0.17464 -0.2936,0.23421 -0.28008,0.0899 -0.77655,0.14189 -2.36459,0.24806 -0.89413,0.0596 -1.32442,0.0974 -1.29343,0.11287 0.0282,0.0136 0.38713,0.0502 1.31817,0.13199 1.58304,0.13916 2.04644,0.19618 2.31831,0.28632 0.24877,0.0824 0.35397,0.22831 0.29006,0.40255 -0.034,0.0921 -0.11713,0.15248 -0.28355,0.20625 -0.26056,0.084 -0.7226,0.13387 -2.17896,0.23421 -1.36057,0.0937 -1.54484,0.10998 -1.46794,0.12993 0.0485,0.012 0.72402,0.0779 1.40403,0.13576 1.61069,0.13745 2.0951,0.2043 2.33466,0.32217 0.12244,0.0601 0.15043,0.088 0.18199,0.17895 0.0466,0.13473 -0.0316,0.27516 -0.19595,0.35194 -0.22415,0.10446 -0.74787,0.16597 -2.27802,0.26749 -0.92188,0.061 -1.45923,0.10533 -1.45942,0.12021 -6e-5,0.007 0.0197,0.0136 0.044,0.0154 0.0245,0.002 0.18492,0.0196 0.35669,0.0361 0.17166,0.0154 0.6261,0.0591 1.00963,0.0922 1.48242,0.12806 1.92135,0.184 2.2147,0.28104 0.25034,0.083 0.34505,0.19645 0.30296,0.36297 -0.0676,0.26733 -0.44373,0.34165 -2.37345,0.46903 -0.92238,0.0608 -1.5873,0.11288 -1.59974,0.12517 -0.0136,0.0136 0.26096,0.0439 1.37338,0.14139 1.93675,0.16954 2.34224,0.23518 2.50838,0.40476 0.11065,0.11304 0.11134,0.27437 0.002,0.38019 -0.0963,0.0928 -0.41076,0.17324 -0.87132,0.22243 -0.12773,0.0136 -0.23226,0.0295 -0.23226,0.0349 -5e-5,0.006 0.0633,0.0494 0.14053,0.0974 0.61999,0.38539 1.10209,1.04899 1.26769,1.74488 0.18786,0.78937 0.0435,1.59826 -0.40694,2.28246 -0.16051,0.24353 -0.57237,0.64764 -0.81904,0.80333 -0.98097,0.61906 -2.18717,0.60761 -3.15381,-0.0301 -0.17253,-0.11389 -0.57373,-0.49272 -0.69277,-0.65432 z"
       id="path1-9" />
    <path
       style="fill:none;fill-opacity:0.53832;stroke:#000000;stroke-width:0.799999;stroke-linecap:round;stroke-linejoin:round;stroke-dasharray:none"
       d="M 105.83367,167.681 H 100.542"
       id="path13" />
    <text
       xml:space="preserve"
       style="font-size:5.29167px;font-family:arial;-inkscape-font-specification:arial;text-align:end;writing-mode:lr-tb;direction:ltr;text-anchor:end;opacity:1;fill:#000000;fill-opacity:1;stroke:none;stroke-width:0.799999;stroke-linecap:round;stroke-linejoin:round;stroke-dasharray:none"
       x="88.893799"
       y="182.23436"
       id="text14"><tspan
         sodipodi:role="line"
         id="tspan14"
         style="font-style:normal;font-variant:normal;font-weight:normal;font-stretch:normal;font-family:'Latin Modern Math';-inkscape-font-specification:'Latin Modern Math';fill:#000000;fill-opacity:1;stroke:none;stroke-width:0.8"
         x="88.893799"
         y="182.23436">1</tspan></text>
    <text
       xml:space="preserve"
       style="font-size:5.29167px;font-family:arial;-inkscape-font-specification:arial;text-align:end;writing-mode:lr-tb;direction:ltr;text-anchor:end;fill:#000000;fill-opacity:1;stroke:none;stroke-width:0.799999;stroke-linecap:round;stroke-linejoin:round;stroke-dasharray:none"
       x="109.27447"
       y="125.40321"
       id="text14-9"><tspan
         sodipodi:role="line"
         id="tspan14-3"
         style="font-style:normal;font-variant:normal;font-weight:normal;font-stretch:normal;font-family:'Latin Modern Math';-inkscape-font-specification:'Latin Modern Math';fill:#000000;fill-opacity:1;stroke:none;stroke-width:0.8"
         x="109.27447"
         y="125.40321">2</tspan></text>
    <text
       xml:space="preserve"
       style="font-size:5.29167px;font-family:arial;-inkscape-font-specification:arial;text-align:end;writing-mode:lr-tb;direction:ltr;text-anchor:end;opacity:1;fill:#000000;fill-opacity:1;stroke:none;stroke-width:0.799999;stroke-linecap:round;stroke-linejoin:round;stroke-dasharray:none"
       x="91.513794"
       y="146.56987"
       id="text15"><tspan
         sodipodi:role="line"
         id="tspan15"
         style="font-style:normal;font-variant:normal;font-weight:normal;font-stretch:normal;font-family:'Latin Modern Math';-inkscape-font-specification:'Latin Modern Math';stroke-width:0.8"
         x="91.513794"
         y="146.56987">3</tspan></text>
    <text
       xml:space="preserve"
       style="font-size:5.29167px;font-family:arial;-inkscape-font-specification:arial;text-align:end;writing-mode:lr-tb;direction:ltr;text-anchor:end;opacity:1;fill:#000000;fill-opacity:1;stroke:none;stroke-width:0.799999;stroke-linecap:round;stroke-linejoin:round;stroke-dasharray:none"
       x="109.97778"
       y="148.16667"
       id="text16"><tspan
         sodipodi:role="line"
         id="tspan16"
         style="font-style:normal;font-variant:normal;font-weight:normal;font-stretch:normal;font-family:'Latin Modern Math';-inkscape-font-specification:'Latin Modern Math';stroke-width:0.8"
         x="109.97778"
         y="148.16667">4</tspan></text>
    <text
       xml:space="preserve"
       style="font-size:5.29167px;font-family:arial;-inkscape-font-specification:arial;text-align:end;writing-mode:lr-tb;direction:ltr;text-anchor:end;opacity:1;fill:#000000;fill-opacity:1;stroke:none;stroke-width:0.799999;stroke-linecap:round;stroke-linejoin:round;stroke-dasharray:none"
       x="107.37846"
       y="158.69833"
       id="text17"><tspan
         sodipodi:role="line"
         id="tspan17"
         style="font-style:normal;font-variant:normal;font-weight:normal;font-stretch:normal;font-family:'Latin Modern Math';-inkscape-font-specification:'Latin Modern Math';stroke-width:0.8"
         x="107.37846"
         y="158.69833">5</tspan></text>
    <text
       xml:space="preserve"
       style="font-size:5.29167px;font-family:arial;-inkscape-font-specification:arial;text-align:end;writing-mode:lr-tb;direction:ltr;text-anchor:end;opacity:1;fill:#000000;fill-opacity:1;stroke:none;stroke-width:0.799999;stroke-linecap:round;stroke-linejoin:round;stroke-dasharray:none"
       x="109.80208"
       y="169.33334"
       id="text18"><tspan
         sodipodi:role="line"
         id="tspan18"
         style="font-style:normal;font-variant:normal;font-weight:normal;font-stretch:normal;font-family:'Latin Modern Math';-inkscape-font-specification:'Latin Modern Math';stroke-width:0.8"
         x="109.80208"
         y="169.33334">6</tspan></text>
  </g>
</svg>
