<?xml version="1.0" encoding="UTF-8" standalone="no"?>
<!-- Created with Inkscape (http://www.inkscape.org/) -->

<svg
   width="434.56058"
   height="379.9147"
   id="svg2"
   version="1.1"
   inkscape:version="0.48.4 r9939"
   sodipodi:docname="Diagramme_H2.svg"
   xmlns:inkscape="http://www.inkscape.org/namespaces/inkscape"
   xmlns:sodipodi="http://sodipodi.sourceforge.net/DTD/sodipodi-0.dtd"
   xmlns="http://www.w3.org/2000/svg"
   xmlns:svg="http://www.w3.org/2000/svg"
   xmlns:rdf="http://www.w3.org/1999/02/22-rdf-syntax-ns#"
   xmlns:cc="http://creativecommons.org/ns#"
   xmlns:dc="http://purl.org/dc/elements/1.1/">
  <defs
     id="defs4">
    <marker
       inkscape:stockid="DotM"
       orient="auto"
       refY="0"
       refX="0"
       id="DotM"
       style="overflow:visible">
      <path
         id="path6476"
         d="m -2.5,-1 c 0,2.76 -2.24,5 -5,5 -2.76,0 -5,-2.24 -5,-5 0,-2.76 2.24,-5 5,-5 2.76,0 5,2.24 5,5 z"
         style="fill-rule:evenodd;stroke:#000000;stroke-width:1pt"
         transform="matrix(0.4,0,0,0.4,2.96,0.4)"
         inkscape:connector-curvature="0" />
    </marker>
    <marker
       inkscape:stockid="DotL"
       orient="auto"
       refY="0"
       refX="0"
       id="DotL"
       style="overflow:visible">
      <path
         id="path6473"
         d="m -2.5,-1 c 0,2.76 -2.24,5 -5,5 -2.76,0 -5,-2.24 -5,-5 0,-2.76 2.24,-5 5,-5 2.76,0 5,2.24 5,5 z"
         style="fill-rule:evenodd;stroke:#000000;stroke-width:1pt"
         transform="matrix(0.8,0,0,0.8,5.92,0.8)"
         inkscape:connector-curvature="0" />
    </marker>
    <linearGradient
       id="linearGradient8118">
      <stop
         style="stop-color:#00abff;stop-opacity:1;"
         offset="0"
         id="stop8120" />
      <stop
         style="stop-color:#00c4d6;stop-opacity:1"
         offset="1"
         id="stop8122" />
    </linearGradient>
    <marker
       inkscape:stockid="Arrow1Mend"
       orient="auto"
       refY="0"
       refX="0"
       id="Arrow1Mend"
       style="overflow:visible">
      <path
         id="path6421"
         d="M 0,0 5,-5 -12.5,0 5,5 0,0 z"
         style="fill-rule:evenodd;stroke:#000000;stroke-width:1pt"
         transform="matrix(-0.4,0,0,-0.4,-4,0)"
         inkscape:connector-curvature="0" />
    </marker>
    <marker
       inkscape:stockid="DotM"
       orient="auto"
       refY="0"
       refX="0"
       id="DotM-4"
       style="overflow:visible">
      <path
         inkscape:connector-curvature="0"
         id="path6476-8"
         d="m -2.5,-1 c 0,2.76 -2.24,5 -5,5 -2.76,0 -5,-2.24 -5,-5 0,-2.76 2.24,-5 5,-5 2.76,0 5,2.24 5,5 z"
         style="fill-rule:evenodd;stroke:#000000;stroke-width:1pt"
         transform="matrix(0.4,0,0,0.4,2.96,0.4)" />
    </marker>
  </defs>
  <sodipodi:namedview
     id="base"
     pagecolor="#ffffff"
     bordercolor="#666666"
     borderopacity="1.0"
     inkscape:pageopacity="0.0"
     inkscape:pageshadow="2"
     inkscape:zoom="1.979899"
     inkscape:cx="133.06836"
     inkscape:cy="246.60723"
     inkscape:document-units="px"
     inkscape:current-layer="g5223"
     showgrid="false"
     fit-margin-top="0"
     fit-margin-left="0"
     fit-margin-right="0"
     fit-margin-bottom="0"
     inkscape:window-width="1366"
     inkscape:window-height="706"
     inkscape:window-x="-8"
     inkscape:window-y="-8"
     inkscape:window-maximized="1"
     inkscape:showpageshadow="2"
     inkscape:pagecheckerboard="0"
     inkscape:deskcolor="#d1d1d1" />
  <metadata
     id="metadata7">
    <rdf:RDF>
      <cc:Work
         rdf:about="">
        <dc:format>image/svg+xml</dc:format>
        <dc:type
           rdf:resource="http://purl.org/dc/dcmitype/StillImage" />
        <dc:title />
      </cc:Work>
    </rdf:RDF>
  </metadata>
  <g
     inkscape:label="Layer 1"
     inkscape:groupmode="layer"
     id="layer1"
     transform="translate(265.21508,-319.96378)">
    <g
       id="g5223"
       transform="translate(-309.99471,100.25103)">
      <!--
    <path 	
	style="fill:none;stroke:none;" d=" " /> 
-->
      <!--
    <path 	
	style="fill:none;stroke:none;" d=" " /> 
-->
      <!--
    <path 	
	style="fill:none;stroke:#e5e5e5;stroke-width:1.406558px;stroke-linecap:butt;stroke-linejoin:miter;stroke-miterlimit:4;stroke-dasharray:none;stroke-opacity:1;" d="
	" " /> 
-->
      <path
         style="opacity:0.98999999;color:#000000;fill:none;stroke:#000000;stroke-width:4;stroke-miterlimit:4;stroke-opacity:1;stroke-dasharray:none;marker:none;marker-end:url(#Arrow1Mend);visibility:visible;display:inline;overflow:visible;enable-background:accumulate"
         d="m 53.779628,557.20106 0,-297.995"
         id="path8144"
         inkscape:connector-curvature="0" />
      <g
         transform="translate(286.11471,359.4318)"
         style="font-size:20px;font-style:normal;font-weight:normal;text-align:center;line-height:80.00000119%;letter-spacing:0px;word-spacing:0px;text-anchor:middle;fill:#000000;fill-opacity:1;stroke:none;font-family:Times New Roman;-inkscape-font-specification:Times New Roman"
         id="text8510" />
      <g
         transform="translate(286.11471,359.4318)"
         style="font-size:28px;font-style:normal;font-weight:normal;text-align:center;line-height:80.00000119%;letter-spacing:0px;word-spacing:0px;text-anchor:middle;fill:#000000;fill-opacity:1;stroke:none;font-family:Times New Roman;-inkscape-font-specification:Times New Roman"
         id="text8514" />
      <g
         transform="translate(286.11471,359.4318)"
         style="font-size:36px;font-style:normal;font-weight:normal;text-align:start;line-height:80.00000119%;letter-spacing:0px;word-spacing:0px;text-anchor:start;fill:#000000;fill-opacity:1;stroke:none;font-family:Times New Roman;-inkscape-font-specification:Times New Roman"
         id="text8518">
        <path
           d="m -232.89287,-138.41827 0,9.42188 5.23828,0 c 1.35936,1e-5 2.26757,-0.20507 2.72461,-0.61524 0.60936,-0.53904 0.9492,-1.48826 1.01953,-2.84765 l 0.65039,0 0,8.29687 -0.65039,0 c -0.16408,-1.16014 -0.32814,-1.90428 -0.49218,-2.23242 -0.21096,-0.41014 -0.55666,-0.73241 -1.03711,-0.9668 -0.48049,-0.23436 -1.21877,-0.35155 -2.21485,-0.35156 l -5.23828,0 0,7.85742 c -1e-5,1.05469 0.0469,1.6963 0.14063,1.92481 0.0937,0.22852 0.2578,0.41016 0.49218,0.54492 0.23437,0.13477 0.67968,0.20215 1.33594,0.20215 l 4.04297,0 c 1.34764,0 2.32616,-0.0937 2.93555,-0.28125 0.60936,-0.1875 1.19529,-0.55664 1.75781,-1.10742 0.72654,-0.72656 1.47068,-1.82226 2.23242,-3.28711 l 0.70313,0 -2.05664,5.97656 -18.36914,0 0,-0.65039 0.84375,0 c 0.56249,0 1.0957,-0.13477 1.59961,-0.4043 0.37499,-0.1875 0.62987,-0.46875 0.76464,-0.84375 0.13477,-0.375 0.20215,-1.14257 0.20215,-2.30273 l 0,-15.48633 c 0,-1.5117 -0.15235,-2.44334 -0.45703,-2.79492 -0.42188,-0.46873 -1.125,-0.7031 -2.10937,-0.70313 l -0.84375,0 0,-0.65039 18.36914,0 0.26367,5.22071 -0.68555,0 c -0.24611,-1.25389 -0.51857,-2.11522 -0.81738,-2.58399 -0.29885,-0.46873 -0.74123,-0.82615 -1.32715,-1.07226 -0.46877,-0.17576 -1.29494,-0.26365 -2.47852,-0.26368 z"
           style=""
           id="path3062" />
      </g>
      <g
         transform="translate(286.11471,359.4318)"
         style="font-size:36px;font-style:normal;font-weight:normal;text-align:start;line-height:80.00000119%;letter-spacing:0px;word-spacing:0px;text-anchor:start;fill:#000000;fill-opacity:1;stroke:none;font-family:Times New Roman;-inkscape-font-specification:Times New Roman"
         id="text8522" />
      <g
         transform="translate(286.11471,359.4318)"
         style="font-size:20px;font-style:normal;font-weight:normal;text-align:start;line-height:80.00000119%;letter-spacing:0px;word-spacing:0px;text-anchor:start;fill:#000000;fill-opacity:1;stroke:none;font-family:Times New Roman;-inkscape-font-specification:Times New Roman"
         id="text8526" />
      <g
         transform="translate(286.11471,359.4318)"
         style="font-size:28px;font-style:normal;font-weight:normal;text-align:start;line-height:80.00000119%;letter-spacing:0px;word-spacing:0px;text-anchor:start;fill:#000000;fill-opacity:1;stroke:none;font-family:Times New Roman;-inkscape-font-specification:Times New Roman"
         id="text8530">
        <path
           d="m -207.33556,71.446999 4.51172,-2.201172 0.45117,0 0,15.654297 c 0,1.039064 0.0433,1.686199 0.12989,1.941406 0.0866,0.255209 0.26659,0.451173 0.54004,0.58789 0.27342,0.13672 0.82941,0.214194 1.66797,0.232422 l 0,0.50586 -6.97266,0 0,-0.50586 c 0.87499,-0.01823 1.4401,-0.09342 1.69531,-0.225586 0.2552,-0.13216 0.43294,-0.309894 0.5332,-0.533203 0.10026,-0.223306 0.15039,-0.890948 0.1504,-2.002929 l 0,-10.007813 c -1e-5,-1.348944 -0.0456,-2.214828 -0.13672,-2.597656 -0.0638,-0.291651 -0.18002,-0.505843 -0.34864,-0.642578 -0.16862,-0.136702 -0.37142,-0.205062 -0.60839,-0.205078 -0.33725,1.6e-5 -0.80665,0.141292 -1.40821,0.423828 z"
           style=""
           id="path3067" />
        <path
           d="m -187.64806,75.275124 0,4.265625 -0.45117,0 c -0.34636,-1.339834 -0.7907,-2.251292 -1.33301,-2.734375 -0.54232,-0.483061 -1.23275,-0.724598 -2.07128,-0.72461 -0.63803,1.2e-5 -1.153,0.168632 -1.54493,0.50586 -0.39193,0.33725 -0.58789,0.710948 -0.58789,1.121093 0,0.510427 0.14583,0.947927 0.4375,1.3125 0.28255,0.373707 0.85677,0.770191 1.72266,1.189453 l 1.99609,0.970704 c 1.85025,0.902349 2.77538,2.091801 2.77539,3.568359 -1e-5,1.139325 -0.43067,2.057619 -1.29199,2.754883 -0.86133,0.697265 -1.8252,1.045898 -2.8916,1.045898 -0.76563,0 -1.64063,-0.136719 -2.625,-0.410156 -0.30078,-0.09115 -0.54688,-0.136719 -0.73828,-0.136719 -0.20964,0 -0.3737,0.11849 -0.49219,0.355469 l -0.45117,0 0,-4.470703 0.45117,0 c 0.25521,1.276045 0.74284,2.237632 1.46289,2.884765 0.72005,0.647137 1.52669,0.970704 2.41992,0.970704 0.6289,0 1.1416,-0.18457 1.53809,-0.553711 0.39648,-0.36914 0.59472,-0.813475 0.59473,-1.333008 -1e-5,-0.628903 -0.22104,-1.157549 -0.66309,-1.585938 -0.44206,-0.428381 -1.3239,-0.970698 -2.64551,-1.626953 -1.32162,-0.656244 -2.1875,-1.248691 -2.59765,-1.777344 -0.41016,-0.519523 -0.61524,-1.175772 -0.61524,-1.96875 0,-1.029937 0.35319,-1.891264 1.05957,-2.583984 0.70638,-0.692696 1.62011,-1.03905 2.74121,-1.039062 0.49218,1.2e-5 1.08919,0.10483 1.79102,0.314453 0.46483,0.136731 0.77473,0.20509 0.92969,0.205078 0.14582,1.2e-5 0.25975,-0.03189 0.34179,-0.0957 0.082,-0.06379 0.17773,-0.205066 0.28711,-0.423828 z"
           style=""
           id="path3069" />
      </g>
      <g
         style="font-size:28px;font-style:normal;font-weight:normal;text-align:start;line-height:80.00000119%;letter-spacing:0px;word-spacing:0px;text-anchor:start;fill:#000000;fill-opacity:1;stroke:none;font-family:Times New Roman;-inkscape-font-specification:Times New Roman"
         id="text8534">
        <path
           d="m 213.69543,485.44736 4.51172,-2.20117 0.45118,0 0,15.65429 c -1e-5,1.03907 0.0433,1.6862 0.12988,1.94141 0.0866,0.25521 0.26659,0.45117 0.54004,0.58789 0.27343,0.13672 0.82941,0.21419 1.66797,0.23242 l 0,0.50586 -6.97266,0 0,-0.50586 c 0.875,-0.0182 1.4401,-0.0934 1.69531,-0.22559 0.2552,-0.13216 0.43294,-0.30989 0.53321,-0.5332 0.10025,-0.2233 0.15038,-0.89095 0.15039,-2.00293 l 0,-10.00781 c -1e-5,-1.34894 -0.0456,-2.21483 -0.13672,-2.59766 -0.0638,-0.29165 -0.18002,-0.50584 -0.34864,-0.64257 -0.16862,-0.13671 -0.37142,-0.20507 -0.60839,-0.20508 -0.33725,10e-6 -0.80665,0.14129 -1.40821,0.42383 z"
           style=""
           id="path3072" />
        <path
           d="m 238.94739,489.64462 0,1.9961 -5.33203,0 c 1.16665,0.66537 2.11913,1.50619 2.85742,2.52246 0.73827,1.01628 1.10741,2.09408 1.10742,3.2334 -1e-5,1.48568 -0.58562,2.71614 -1.75684,3.6914 -1.17123,0.97526 -2.49968,1.46289 -3.98535,1.46289 -1.75912,0 -3.27669,-0.69043 -4.55273,-2.07129 -1.27604,-1.38085 -1.91407,-2.9873 -1.91406,-4.81933 -1e-5,-1.29427 0.33496,-2.43814 1.00488,-3.43164 0.66992,-0.99348 1.44921,-1.67252 2.33789,-2.03711 0.88867,-0.36457 2.08951,-0.54686 3.60254,-0.54688 z m -6.24805,1.9961 -0.47851,0 c -1.3672,1e-5 -2.45867,0.33952 -3.27442,1.01855 -0.81576,0.67905 -1.22363,1.74317 -1.22363,3.19238 0,1.54037 0.42838,2.90072 1.28515,4.08106 0.85677,1.18034 1.85937,1.77051 3.00782,1.77051 0.92056,0 1.68163,-0.44434 2.2832,-1.33301 0.60155,-0.88867 0.90233,-1.96191 0.90234,-3.21973 -1e-5,-1.99608 -0.83399,-3.83267 -2.50195,-5.50976 z"
           style=""
           id="path3074" />
      </g>
      <g
         transform="translate(286.11471,359.4318)"
         style="font-size:28px;font-style:normal;font-weight:normal;text-align:start;line-height:80.00000119%;letter-spacing:0px;word-spacing:0px;text-anchor:start;fill:#000000;fill-opacity:1;stroke:none;font-family:Times New Roman;-inkscape-font-specification:Times New Roman"
         id="text8540">
        <path
           d="m -83.591866,-104.82462 4.511719,-2.20117 0.451172,0 0,15.6543 c -8e-6,1.039064 0.04329,1.686199 0.129883,1.941406 0.08658,0.255209 0.266593,0.451173 0.540039,0.58789 0.273428,0.13672 0.829417,0.214194 1.667969,0.232422 l 0,0.50586 -6.972657,0 0,-0.50586 c 0.874996,-0.01823 1.4401,-0.09342 1.695313,-0.225586 0.255203,-0.13216 0.432937,-0.309894 0.533203,-0.533203 0.100255,-0.223306 0.150385,-0.890948 0.150391,-2.002929 l 0,-10.00781 c -6e-6,-1.34895 -0.04558,-2.21483 -0.136719,-2.59766 -0.06381,-0.29165 -0.180019,-0.50584 -0.348633,-0.64258 -0.168625,-0.1367 -0.371424,-0.20506 -0.608398,-0.20508 -0.337244,2e-5 -0.806645,0.1413 -1.408203,0.42383 z"
           style=""
           id="path3079" />
        <path
           d="m -58.339912,-100.62735 0,1.996094 -5.332032,0 c 1.166657,0.665374 2.11913,1.506194 2.857422,2.522461 0.738269,1.016283 1.107409,2.094081 1.107422,3.233398 -1.3e-5,1.485681 -0.585624,2.716148 -1.756836,3.691407 -1.171234,0.97526 -2.499683,1.46289 -3.985351,1.46289 -1.759121,0 -3.276697,-0.690429 -4.552735,-2.071289 -1.276043,-1.380856 -1.914063,-2.9873 -1.914062,-4.819336 -10e-7,-1.294263 0.334959,-2.438142 1.004883,-3.43164 0.669919,-0.993479 1.449215,-1.672515 2.33789,-2.037105 0.888667,-0.36458 2.089512,-0.54687 3.602539,-0.54688 z m -6.248047,1.996094 -0.478516,0 c -1.367194,10e-6 -2.458664,0.339528 -3.274414,1.018555 -0.815759,0.679045 -1.223636,1.743171 -1.223633,3.192382 -3e-6,1.54037 0.428382,2.90072 1.285156,4.081055 0.856766,1.18034 1.859369,1.770508 3.007813,1.770508 0.920564,0 1.681631,-0.444335 2.283203,-1.333008 0.601552,-0.888669 0.902333,-1.96191 0.902344,-3.219726 -1.1e-5,-1.996087 -0.833994,-3.832674 -2.501953,-5.509766 z"
           style=""
           id="path3081" />
        <path
           d="m -51.025459,-102.37735 c -0.03646,-0.62889 -0.164069,-1.25324 -0.382813,-1.87305 -0.309902,-0.89321 -0.464849,-1.50844 -0.464844,-1.8457 -5e-6,-0.47394 0.111648,-0.83397 0.334961,-1.08008 0.223301,-0.24607 0.499017,-0.36912 0.827149,-0.36914 0.282545,2e-5 0.528638,0.12307 0.738281,0.36914 0.209627,0.24611 0.314445,0.59703 0.314453,1.05274 -8e-6,0.41017 -0.120776,0.98211 -0.362304,1.71582 -0.241544,0.73374 -0.389656,1.41049 -0.444336,2.03027 0.501294,-0.319 0.952465,-0.70637 1.353515,-1.16211 0.619783,-0.72004 1.080069,-1.16665 1.38086,-1.33984 0.30077,-0.17316 0.606109,-0.25975 0.916015,-0.25977 0.30077,2e-5 0.5537,0.10256 0.758789,0.30762 0.205066,0.20509 0.307605,0.44891 0.307617,0.73144 -1.2e-5,0.33726 -0.150402,0.63804 -0.451171,0.90235 -0.300793,0.26434 -1.052745,0.52866 -2.25586,0.79297 -0.701831,0.15496 -1.285164,0.33269 -1.75,0.5332 0.47395,0.24611 1.052726,0.43296 1.736328,0.56055 1.102855,0.20053 1.825185,0.45118 2.166993,0.75195 0.341785,0.30079 0.512683,0.628918 0.512695,0.984375 -1.2e-5,0.273448 -0.102551,0.510427 -0.307617,0.710937 -0.20509,0.200531 -0.444348,0.300792 -0.717774,0.300781 -0.273448,1.1e-5 -0.576508,-0.09569 -0.909179,-0.287109 -0.332692,-0.191395 -0.781585,-0.61978 -1.34668,-1.285154 -0.373706,-0.4466 -0.83855,-0.86587 -1.394531,-1.25781 0.01822,0.51954 0.123039,1.08464 0.314453,1.695308 0.328117,1.075531 0.492179,1.809254 0.492187,2.201172 -8e-6,0.364592 -0.109383,0.672209 -0.328125,0.922851 -0.218757,0.250659 -0.451179,0.375985 -0.697265,0.375977 -0.337247,8e-6 -0.642585,-0.132154 -0.916016,-0.396485 -0.191412,-0.191397 -0.287115,-0.496736 -0.287109,-0.916015 -6e-6,-0.437491 0.104811,-0.963857 0.314453,-1.579102 0.209629,-0.615223 0.34179,-1.039046 0.396484,-1.271486 0.05468,-0.23241 0.104811,-0.57648 0.150391,-1.03222 -0.537767,0.35548 -1.007167,0.75196 -1.408203,1.18945 -0.66537,0.747405 -1.166671,1.221363 -1.503907,1.421873 -0.236982,0.145844 -0.483076,0.218761 -0.738281,0.21875 -0.309899,1.1e-5 -0.574221,-0.104807 -0.792969,-0.314453 -0.218752,-0.209624 -0.328127,-0.442046 -0.328125,-0.697265 -2e-6,-0.227853 0.09342,-0.467115 0.280274,-0.717775 0.186846,-0.25064 0.467119,-0.45799 0.84082,-0.62207 0.24609,-0.10936 0.806637,-0.25519 1.681641,-0.4375 0.565099,-0.11848 1.11653,-0.29165 1.654297,-0.51953 -0.492194,-0.24608 -1.080084,-0.43749 -1.763672,-0.57422 -1.121098,-0.23696 -1.813805,-0.45116 -2.078125,-0.64258 -0.410159,-0.30076 -0.615237,-0.66535 -0.615235,-1.09375 -2e-6,-0.24607 0.102537,-0.47166 0.307618,-0.67676 0.205075,-0.20506 0.444333,-0.3076 0.717773,-0.30761 0.300778,1e-5 0.619788,0.0957 0.957031,0.28711 0.337235,0.19142 0.756506,0.57651 1.257813,1.15527 0.501296,0.57879 1.011712,1.02768 1.53125,1.34668 z"
           style=""
           id="path3083" />
        <path
           d="m -36.074472,-90.644261 0,4.932198 c -8e-6,0.942008 0.02221,1.518171 0.06665,1.728491 0.04443,0.210323 0.115522,0.356956 0.213285,0.439899 0.09775,0.08294 0.211795,0.124417 0.342143,0.124416 0.183653,10e-7 0.391013,-0.05036 0.622079,-0.151077 l 0.124416,0.31104 -2.434995,1.004213 -0.399908,0 0,-1.724048 c -0.699104,0.758345 -1.232314,1.235272 -1.599632,1.430782 -0.367327,0.195511 -0.755386,0.293266 -1.164177,0.293266 -0.456194,0 -0.851658,-0.131821 -1.186393,-0.395464 -0.33474,-0.263643 -0.567279,-0.602824 -0.697617,-1.017544 -0.130342,-0.414718 -0.195512,-1.001249 -0.195511,-1.759595 l 0,-3.634719 c -1e-6,-0.38509 -0.04147,-0.651695 -0.124416,-0.799816 -0.08295,-0.148107 -0.205879,-0.262154 -0.368804,-0.342144 -0.162926,-0.07997 -0.457673,-0.117002 -0.884241,-0.111085 l 0,-0.328813 2.852677,0 0,5.447635 c -3e-6,0.758346 0.131819,1.256009 0.395465,1.49299 0.263639,0.236983 0.582084,0.355474 0.955335,0.355473 0.254752,10e-7 0.543574,-0.07998 0.866468,-0.239944 0.322883,-0.159962 0.706498,-0.465077 1.150846,-0.915345 l 0,-4.612272 c -6e-6,-0.462109 -0.08443,-0.77463 -0.253275,-0.937562 -0.168856,-0.162918 -0.519886,-0.250305 -1.053091,-0.262162 l 0,-0.328813 z"
           style="font-size:65.00091553%;baseline-shift:sub"
           id="path3085" />
      </g>
      <g
         transform="translate(286.11471,359.4318)"
         style="font-size:28px;font-style:normal;font-weight:normal;text-align:start;line-height:80.00000119%;letter-spacing:0px;word-spacing:0px;text-anchor:start;fill:#000000;fill-opacity:1;stroke:none;font-family:Times New Roman;-inkscape-font-specification:Times New Roman"
         id="text8546">
        <path
           d="m 164.90565,74.477455 4.51172,-2.201172 0.45118,0 0,15.654297 c -1e-5,1.039065 0.0433,1.6862 0.12988,1.941406 0.0866,0.25521 0.26659,0.451173 0.54004,0.587891 0.27343,0.136719 0.82941,0.214193 1.66797,0.232422 l 0,0.505859 -6.97266,0 0,-0.505859 c 0.875,-0.01823 1.4401,-0.09342 1.69531,-0.225586 0.25521,-0.132161 0.43294,-0.309895 0.53321,-0.533203 0.10025,-0.223306 0.15038,-0.890949 0.15039,-2.00293 l 0,-10.007812 c -10e-6,-1.348944 -0.0456,-2.214829 -0.13672,-2.597657 -0.0638,-0.29165 -0.18002,-0.505843 -0.34864,-0.642578 -0.16862,-0.136702 -0.37142,-0.205061 -0.60839,-0.205078 -0.33725,1.7e-5 -0.80665,0.141293 -1.40821,0.423828 z"
           style=""
           id="path3088" />
        <path
           d="m 184.59315,78.30558 0,4.265625 -0.45117,0 c -0.34636,-1.339834 -0.79069,-2.251291 -1.333,-2.734375 -0.54233,-0.483061 -1.23276,-0.724597 -2.07129,-0.724609 -0.63803,1.2e-5 -1.153,0.168631 -1.54493,0.505859 -0.39193,0.337251 -0.58789,0.710949 -0.58789,1.121094 0,0.510427 0.14583,0.947926 0.4375,1.3125 0.28255,0.373707 0.85677,0.770191 1.72266,1.189453 l 1.99609,0.970703 c 1.85026,0.90235 2.77538,2.091802 2.77539,3.56836 -1e-5,1.139325 -0.43067,2.057618 -1.29199,2.754882 -0.86133,0.697266 -1.8252,1.045898 -2.8916,1.045899 -0.76563,-1e-6 -1.64063,-0.136719 -2.625,-0.410156 -0.30078,-0.09115 -0.54688,-0.136719 -0.73828,-0.136719 -0.20964,0 -0.3737,0.118489 -0.49219,0.355469 l -0.45117,0 0,-4.470704 0.45117,0 c 0.25521,1.276045 0.74284,2.237633 1.46289,2.884766 0.72005,0.647136 1.52669,0.970704 2.41992,0.970703 0.6289,10e-7 1.1416,-0.18457 1.53809,-0.553711 0.39648,-0.369139 0.59472,-0.813475 0.59473,-1.333008 -1e-5,-0.628903 -0.22104,-1.157548 -0.66309,-1.585937 -0.44206,-0.428381 -1.3239,-0.970698 -2.64551,-1.626953 -1.32161,-0.656244 -2.1875,-1.248691 -2.59765,-1.777344 -0.41016,-0.519523 -0.61524,-1.175773 -0.61524,-1.96875 0,-1.029938 0.35319,-1.891265 1.05957,-2.583984 0.70638,-0.692696 1.62012,-1.03905 2.74121,-1.039063 0.49219,1.3e-5 1.08919,0.104831 1.79102,0.314453 0.46484,0.136731 0.77473,0.205091 0.92969,0.205078 0.14582,1.3e-5 0.25975,-0.03189 0.34179,-0.0957 0.082,-0.06379 0.17773,-0.205065 0.28711,-0.423828 z"
           style=""
           id="path3090" />
      </g>
      <g
         transform="translate(286.11471,359.4318)"
         style="font-size:28px;font-style:normal;font-weight:normal;text-align:start;line-height:80.00000119%;letter-spacing:0px;word-spacing:0px;text-anchor:start;fill:#000000;fill-opacity:1;stroke:none;font-family:Times New Roman;-inkscape-font-specification:Times New Roman"
         id="text8550" />
      <g
         transform="translate(286.11471,359.4318)"
         style="font-size:36px;font-style:normal;font-weight:normal;text-align:start;line-height:80.00000119%;letter-spacing:0px;word-spacing:0px;text-anchor:start;fill:#000000;fill-opacity:1;stroke:none;font-family:Times New Roman;-inkscape-font-specification:Times New Roman"
         id="text8554">
        <path
           d="m -161.29509,227.41637 11.07422,0 0,-6.82032 c -2e-5,-1.21873 -0.0762,-2.02146 -0.22852,-2.4082 -0.1172,-0.29295 -0.3633,-0.5449 -0.73828,-0.75586 -0.50392,-0.28123 -1.03712,-0.42185 -1.59961,-0.42187 l -0.84375,0 0,-0.65039 10.19532,0 0,0.65039 -0.84375,0 c -0.56253,2e-5 -1.09573,0.13479 -1.59961,0.40429 -0.37503,0.18753 -0.62991,0.47171 -0.76465,0.85254 -0.13479,0.38088 -0.20217,1.15725 -0.20215,2.3291 l 0,15.38086 c -2e-5,1.20704 0.0761,2.00391 0.22851,2.39063 0.11717,0.29297 0.3574,0.54492 0.72071,0.75586 0.5156,0.28125 1.05466,0.42187 1.61719,0.42187 l 0.84375,0 0,0.65039 -10.19532,0 0,-0.65039 0.84375,0 c 0.97264,0 1.68163,-0.28711 2.12696,-0.86133 0.29295,-0.37499 0.43943,-1.27734 0.43945,-2.70703 l 0,-7.25976 -11.07422,0 0,7.25976 c -1e-5,1.20704 0.0762,2.00391 0.22852,2.39063 0.11718,0.29297 0.36327,0.54492 0.73828,0.75586 0.50389,0.28125 1.0371,0.42187 1.59961,0.42187 l 0.86132,0 0,0.65039 -10.21289,0 0,-0.65039 0.84375,0 c 0.98438,0 1.69922,-0.28711 2.14454,-0.86133 0.28124,-0.37499 0.42187,-1.27734 0.42187,-2.70703 l 0,-15.38086 c 0,-1.21873 -0.0762,-2.02146 -0.22852,-2.4082 -0.11719,-0.29295 -0.35742,-0.5449 -0.7207,-0.75586 -0.51563,-0.28123 -1.05469,-0.42185 -1.61719,-0.42187 l -0.84375,0 0,-0.65039 10.21289,0 0,0.65039 -0.86132,0 c -0.56251,2e-5 -1.09572,0.13479 -1.59961,0.40429 -0.36329,0.18753 -0.61524,0.47171 -0.75586,0.85254 -0.14063,0.38088 -0.21095,1.15725 -0.21094,2.3291 z"
           style=""
           id="path3042" />
        <path
           d="m -45.279465,227.41637 11.074219,0 0,-6.82032 c -1.8e-5,-1.21873 -0.07619,-2.02146 -0.228516,-2.4082 -0.117205,-0.29295 -0.363299,-0.5449 -0.738281,-0.75586 -0.503923,-0.28123 -1.037126,-0.42185 -1.599609,-0.42187 l -0.84375,0 0,-0.65039 10.195312,0 0,0.65039 -0.84375,0 c -0.562524,2e-5 -1.095726,0.13479 -1.599609,0.40429 -0.375023,0.18753 -0.629905,0.47171 -0.764649,0.85254 -0.134787,0.38088 -0.20217,1.15725 -0.202148,2.3291 l 0,15.38086 c -2.2e-5,1.20704 0.07615,2.00391 0.228516,2.39063 0.117165,0.29297 0.357399,0.54492 0.720703,0.75586 0.515601,0.28125 1.054663,0.42187 1.617187,0.42187 l 0.84375,0 0,0.65039 -10.195312,0 0,-0.65039 0.84375,0 c 0.972639,0 1.681623,-0.28711 2.126953,-0.86133 0.29295,-0.37499 0.439435,-1.27734 0.439453,-2.70703 l 0,-7.25976 -11.074219,0 0,7.25976 c -7e-6,1.20704 0.07617,2.00391 0.228516,2.39063 0.11718,0.29297 0.363273,0.54492 0.738281,0.75586 0.503898,0.28125 1.0371,0.42187 1.59961,0.42187 l 0.861328,0 0,0.65039 -10.212891,0 0,-0.65039 0.84375,0 c 0.984373,0 1.699216,-0.28711 2.144531,-0.86133 0.281246,-0.37499 0.421871,-1.27734 0.421875,-2.70703 l 0,-15.38086 c -4e-6,-1.21873 -0.07618,-2.02146 -0.228515,-2.4082 -0.117192,-0.29295 -0.357426,-0.5449 -0.720703,-0.75586 -0.515628,-0.28123 -1.05469,-0.42185 -1.617188,-0.42187 l -0.84375,0 0,-0.65039 10.212891,0 0,0.65039 -0.861328,0 c -0.56251,2e-5 -1.095712,0.13479 -1.59961,0.40429 -0.363289,0.18753 -0.615242,0.47171 -0.755859,0.85254 -0.140633,0.38088 -0.210945,1.15725 -0.210938,2.3291 z"
           style=""
           id="path3044" />
        <path
           d="m -16.205246,230.79137 9.0878907,0 0,2.65429 -9.0878907,0 z"
           style=""
           id="path3046" />
        <path
           d="m 10.759598,227.41637 11.074219,0 0,-6.82032 c -1.9e-5,-1.21873 -0.07619,-2.02146 -0.228516,-2.4082 -0.117206,-0.29295 -0.363299,-0.5449 -0.738281,-0.75586 -0.503924,-0.28123 -1.037126,-0.42185 -1.59961,-0.42187 l -0.84375,0 0,-0.65039 10.195313,0 0,0.65039 -0.84375,0 c -0.562524,2e-5 -1.095727,0.13479 -1.59961,0.40429 -0.375022,0.18753 -0.629905,0.47171 -0.764648,0.85254 -0.134788,0.38088 -0.20217,1.15725 -0.202148,2.3291 l 0,15.38086 c -2.2e-5,1.20704 0.07615,2.00391 0.228515,2.39063 0.117165,0.29297 0.3574,0.54492 0.720703,0.75586 0.515602,0.28125 1.054664,0.42187 1.617188,0.42187 l 0.84375,0 0,0.65039 -10.195313,0 0,-0.65039 0.84375,0 c 0.97264,0 1.681623,-0.28711 2.126953,-0.86133 0.292951,-0.37499 0.439435,-1.27734 0.439454,-2.70703 l 0,-7.25976 -11.074219,0 0,7.25976 c -8e-6,1.20704 0.07616,2.00391 0.228515,2.39063 0.11718,0.29297 0.363274,0.54492 0.738282,0.75586 0.503897,0.28125 1.0371,0.42187 1.599609,0.42187 l 0.861328,0 0,0.65039 -10.2128905,0 0,-0.65039 0.84375,0 c 0.9843726,0 1.6992156,-0.28711 2.1445313,-0.86133 0.2812461,-0.37499 0.421871,-1.27734 0.421875,-2.70703 l 0,-15.38086 c -4e-6,-1.21873 -0.076176,-2.02146 -0.2285156,-2.4082 -0.1171912,-0.29295 -0.3574254,-0.5449 -0.7207032,-0.75586 -0.5156275,-0.28123 -1.0546895,-0.42185 -1.6171875,-0.42187 l -0.84375,0 0,-0.65039 10.2128905,0 0,0.65039 -0.861328,0 c -0.562509,2e-5 -1.095712,0.13479 -1.599609,0.40429 -0.36329,0.18753 -0.615242,0.47171 -0.75586,0.85254 -0.140632,0.38088 -0.210945,1.15725 -0.210937,2.3291 z"
           style=""
           id="path3048" />
        <path
           d="m 126.77522,227.41637 11.07422,0 0,-6.82032 c -2e-5,-1.21873 -0.0762,-2.02146 -0.22851,-2.4082 -0.11721,-0.29295 -0.3633,-0.5449 -0.73829,-0.75586 -0.50392,-0.28123 -1.03712,-0.42185 -1.5996,-0.42187 l -0.84375,0 0,-0.65039 10.19531,0 0,0.65039 -0.84375,0 c -0.56253,2e-5 -1.09573,0.13479 -1.59961,0.40429 -0.37502,0.18753 -0.62991,0.47171 -0.76465,0.85254 -0.13479,0.38088 -0.20217,1.15725 -0.20215,2.3291 l 0,15.38086 c -2e-5,1.20704 0.0762,2.00391 0.22852,2.39063 0.11716,0.29297 0.3574,0.54492 0.7207,0.75586 0.5156,0.28125 1.05466,0.42187 1.61719,0.42187 l 0.84375,0 0,0.65039 -10.19531,0 0,-0.65039 0.84375,0 c 0.97263,0 1.68162,-0.28711 2.12695,-0.86133 0.29295,-0.37499 0.43943,-1.27734 0.43945,-2.70703 l 0,-7.25976 -11.07422,0 0,7.25976 c 0,1.20704 0.0762,2.00391 0.22852,2.39063 0.11718,0.29297 0.36327,0.54492 0.73828,0.75586 0.5039,0.28125 1.0371,0.42187 1.59961,0.42187 l 0.86133,0 0,0.65039 -10.21289,0 0,-0.65039 0.84375,0 c 0.98437,0 1.69921,-0.28711 2.14453,-0.86133 0.28124,-0.37499 0.42187,-1.27734 0.42187,-2.70703 l 0,-15.38086 c 0,-1.21873 -0.0762,-2.02146 -0.22851,-2.4082 -0.11719,-0.29295 -0.35743,-0.5449 -0.72071,-0.75586 -0.51562,-0.28123 -1.05469,-0.42185 -1.61718,-0.42187 l -0.84375,0 0,-0.65039 10.21289,0 0,0.65039 -0.86133,0 c -0.56251,2e-5 -1.09571,0.13479 -1.59961,0.40429 -0.36329,0.18753 -0.61524,0.47171 -0.75586,0.85254 -0.14063,0.38088 -0.21094,1.15725 -0.21094,2.3291 z"
           style=""
           id="path3050" />
      </g>
      <g
         transform="translate(286.11471,359.4318)"
         style="font-size:36px;font-style:normal;font-weight:normal;text-align:start;line-height:80.00000119%;letter-spacing:0px;word-spacing:0px;text-anchor:start;fill:#000000;fill-opacity:1;stroke:none;font-family:Times New Roman;-inkscape-font-specification:Times New Roman"
         id="text8558" />
      <path
         style="color:#000000;display:inline;overflow:visible;visibility:visible;opacity:0.99;fill:none;stroke:#000000;stroke-width:1.5;stroke-linecap:round;stroke-linejoin:miter;stroke-miterlimit:4;stroke-dasharray:none;stroke-dashoffset:0;stroke-opacity:1;marker:none;enable-background:accumulate"
         d="m 306.32199,248.68597 c -0.39721,7.25844 -1.13123,6.6122 -1.68915,8.92941 -3.49153,7.88653 -7.02248,9.81352 -10.54159,12.19646 -8.69642,4.60164 -17.40472,4.48576 -26.09908,-1.18191 -3.03738,-2.49641 -6.08832,-4.37229 -9.09514,-12.13346 -0.36079,-1.90642 -1.45547,-2.29165 -1.15378,-10.30032 0.97489,-6.65785 2.06192,-7.29187 3.10066,-9.63158 5.09383,-8.12262 10.21729,-9.95816 15.33233,-11.53736 7.80823,-1.56956 15.6249,-0.75666 23.42134,6.85729 2.03967,2.53434 4.09969,4.07674 6.10083,11.30191 0.20896,1.2867 0.53058,1.7081 0.62358,5.49956 z"
         id="path8562"
         inkscape:connector-curvature="0" />
      <path
         style="color:#000000;display:inline;overflow:visible;visibility:visible;opacity:0.99;fill:#1a1a1a;stroke:#000000;stroke-width:1.5;stroke-linecap:round;stroke-linejoin:miter;stroke-miterlimit:4;stroke-dasharray:none;stroke-dashoffset:0;stroke-opacity:1;marker:none;enable-background:accumulate"
         d="m 356.32199,248.68597 c -0.39721,7.25844 -1.13123,6.6122 -1.68915,8.92941 -3.49153,7.88653 -7.02248,9.81352 -10.54159,12.19646 -8.69642,4.60164 -17.40472,4.48576 -26.09908,-1.18191 -3.03738,-2.49641 -6.08832,-4.37229 -9.09514,-12.13346 -0.36079,-1.90642 -1.45547,-2.29165 -1.15378,-10.30032 0.97489,-6.65785 2.06192,-7.29187 3.10066,-9.63158 5.09383,-8.12262 10.21729,-9.95816 15.33233,-11.53736 7.80823,-1.56956 15.6249,-0.75666 23.42134,6.85729 2.03967,2.53434 4.09969,4.07674 6.10083,11.30191 0.20896,1.2867 0.53058,1.7081 0.62358,5.49956 z"
         id="path8562-0"
         inkscape:connector-curvature="0" />
      <path
         style="opacity:0.98999999;color:#000000;fill:none;stroke:#000000;stroke-width:1.5;stroke-linecap:round;stroke-linejoin:miter;stroke-miterlimit:4;stroke-opacity:1;stroke-dasharray:none;stroke-dashoffset:0;marker:none;visibility:visible;display:inline;overflow:visible;enable-background:accumulate"
         d="m 113.06335,368.30247 c -0.39722,7.25844 -1.13124,6.6122 -1.68916,8.92941 -3.49153,7.88653 -7.02248,9.81352 -10.54159,12.19646 -8.696414,4.60164 -17.40472,4.48576 -26.099078,-1.18191 -3.037378,-2.49641 -6.08832,-4.37229 -9.095136,-12.13346 -0.360791,-1.90642 -1.455474,-2.29165 -1.153787,-10.30032 0.974896,-6.65785 2.061926,-7.29187 3.100665,-9.63158 5.093833,-8.12262 10.217289,-9.95816 15.332329,-11.53736 7.808228,-1.56956 15.624894,-0.75666 23.421337,6.85729 2.03967,2.53434 4.09969,4.07674 6.10083,11.30191 0.20896,1.2867 0.53058,1.7081 0.62359,5.49956 z"
         id="path8562-9"
         inkscape:connector-curvature="0" />
      <path
         style="opacity:0.98999999;color:#000000;fill:#1a1a1a;fill-opacity:1;fill-rule:nonzero;stroke:#000000;stroke-width:1.5;stroke-linecap:round;stroke-linejoin:miter;stroke-miterlimit:4;stroke-opacity:1;stroke-dasharray:none;stroke-dashoffset:0;marker:none;marker-end:url(#DotM);visibility:visible;display:inline;overflow:visible;enable-background:accumulate"
         d="m -172.73609,8.1131151 22.22336,0"
         id="path8600"
         inkscape:connector-curvature="0"
         transform="translate(286.11471,359.4318)"
         sodipodi:nodetypes="cc" />
      <path
         style="opacity:0.98999999;color:#000000;fill:none;stroke:#000000;stroke-width:1.5;stroke-linecap:round;stroke-linejoin:miter;stroke-miterlimit:4;stroke-opacity:1;stroke-dasharray:none;stroke-dashoffset:0;marker:none;visibility:visible;display:inline;overflow:visible;enable-background:accumulate"
         d="m 429.88573,367.59257 c 0.39721,7.25844 1.13123,6.6122 1.68915,8.92941 3.49153,7.88653 7.02248,9.81352 10.54159,12.19646 8.69642,4.60164 17.40472,4.48576 26.09908,-1.18191 3.03738,-2.49641 6.08832,-4.37229 9.09514,-12.13346 0.36079,-1.90642 1.45547,-2.29165 1.15378,-10.30032 -0.97489,-6.65785 -2.06192,-7.29187 -3.10066,-9.63158 -5.09383,-8.12262 -10.21729,-9.95816 -15.33233,-11.53736 -7.80823,-1.56956 -15.6249,-0.75666 -23.42134,6.85729 -2.03967,2.53434 -4.09969,4.07674 -6.10083,11.30191 -0.20896,1.2867 -0.53058,1.7081 -0.62358,5.49956 z"
         id="path8562-9-8"
         inkscape:connector-curvature="0" />
      <path
         style="opacity:0.98999999;color:#000000;fill:#1a1a1a;fill-opacity:1;fill-rule:nonzero;stroke:#000000;stroke-width:1.5;stroke-linecap:round;stroke-linejoin:miter;stroke-miterlimit:4;stroke-opacity:1;stroke-dasharray:none;stroke-dashoffset:0;marker:none;marker-end:url(#DotM);visibility:visible;display:inline;overflow:visible;enable-background:accumulate"
         d="m 429.57044,366.83503 -22.22336,0"
         id="path8600-2"
         inkscape:connector-curvature="0"
         sodipodi:nodetypes="cc" />
      <path
         style="opacity:0.98999999;color:#000000;fill:none;stroke:#000000;stroke-width:1.5;stroke-linecap:round;stroke-linejoin:miter;stroke-miterlimit:4;stroke-opacity:1;stroke-dasharray:none;stroke-dashoffset:0;marker:none;visibility:visible;display:inline;overflow:visible;enable-background:accumulate"
         d="m 348.32199,508.68597 c -0.39721,7.25844 -1.13123,6.6122 -1.68915,8.92941 -3.49153,7.88653 -7.02248,9.81352 -10.54159,12.19646 -8.69642,4.60164 -17.40472,4.48576 -26.09908,-1.18191 -3.03738,-2.49641 -6.08832,-4.37229 -9.09514,-12.13346 -0.36079,-1.90642 -1.45547,-2.29165 -1.15378,-10.30032 0.97489,-6.65785 2.06192,-7.29187 3.10066,-9.63158 5.09383,-8.12262 10.21729,-9.95816 15.33233,-11.53736 7.80823,-1.56956 15.6249,-0.75666 23.42134,6.85729 2.03967,2.53434 4.09969,4.07674 6.10083,11.30191 0.20896,1.2867 0.53058,1.7081 0.62358,5.49956 z"
         id="path8562-4"
         inkscape:connector-curvature="0" />
      <path
         style="opacity:0.98999999;color:#000000;fill:none;stroke:#000000;stroke-width:1.5;stroke-linecap:round;stroke-linejoin:miter;stroke-miterlimit:4;stroke-opacity:1;stroke-dasharray:none;stroke-dashoffset:0;marker:none;visibility:visible;display:inline;overflow:visible;enable-background:accumulate"
         d="m 398.32199,508.68597 c -0.39721,7.25844 -1.13123,6.6122 -1.68915,8.92941 -3.49153,7.88653 -7.02248,9.81352 -10.54159,12.19646 -8.69642,4.60164 -17.40472,4.48576 -26.09908,-1.18191 -3.03738,-2.49641 -6.08832,-4.37229 -9.09514,-12.13346 -0.36079,-1.90642 -1.45547,-2.29165 -1.15378,-10.30032 0.97489,-6.65785 2.06192,-7.29187 3.10066,-9.63158 5.09383,-8.12262 10.21729,-9.95816 15.33233,-11.53736 7.80823,-1.56956 15.6249,-0.75666 23.42134,6.85729 2.03967,2.53434 4.09969,4.07674 6.10083,11.30191 0.20896,1.2867 0.53058,1.7081 0.62358,5.49956 z"
         id="path8562-0-5"
         inkscape:connector-curvature="0" />
      <g
         style="font-size:40px;font-style:normal;font-weight:normal;text-align:start;line-height:80.00000119%;letter-spacing:0px;word-spacing:0px;text-anchor:start;fill:#000000;fill-opacity:1;stroke:none;font-family:Times New Roman;-inkscape-font-specification:Times New Roman"
         id="text9036">
        <path
           d="m 255.53157,465.07812 c 1.88802,-1.73175 3.32356,-3.22914 4.30664,-4.49218 0.98307,-1.263 1.71549,-2.4544 2.19727,-3.57422 l 0.89843,0 c 0.61197,1.28909 1.40299,2.53908 2.37305,3.75 0.97004,1.21096 2.39256,2.65627 4.26758,4.33594 l 0,1.5039 c -2.6172,-1.22394 -4.62892,-2.50649 -6.03516,-3.84765 l 0,28.78906 -1.97265,0 0,-28.78906 c -1.25001,0.9896 -2.18425,1.6797 -2.80274,2.07031 -0.61849,0.39064 -1.69597,0.97007 -3.23242,1.73828 z"
           id="path3095"
           style="" />
        <path
           d="m 275.53157,483.47656 0,-1.48437 c 1.54948,0.76823 2.6302,1.34765 3.24219,1.73828 0.61197,0.39062 1.54296,1.08073 2.79297,2.07031 l 0,-28.78906 1.97265,0 0,28.78906 c 1.40624,-1.34115 3.41796,-2.6237 6.03516,-3.84766 l 0,1.50391 c -1.87502,1.67969 -3.29754,3.125 -4.26758,4.33594 -0.97006,1.21093 -1.76108,2.46093 -2.37305,3.75 l -0.89843,0 c -0.48178,-1.1198 -1.2142,-2.31121 -2.19727,-3.57422 -0.98308,-1.26302 -2.41862,-2.76042 -4.30664,-4.49219 z"
           id="path3097"
           style="" />
      </g>
      <g
         style="font-size:36px;font-style:normal;font-weight:normal;text-align:start;line-height:80.00000119%;letter-spacing:0px;word-spacing:0px;text-anchor:start;fill:#000000;fill-opacity:1;stroke:none;font-family:Times New Roman;-inkscape-font-specification:Times New Roman"
         id="text9040">
        <path
           d="m 124.37558,402.60098 c 1.69921,-1.55857 2.99121,-2.90623 3.87598,-4.04297 0.88475,-1.13669 1.54393,-2.20896 1.97754,-3.21679 l 0.80859,0 c 0.55077,1.16018 1.26268,2.28517 2.13574,3.375 0.87304,1.08986 2.15331,2.39064 3.84082,3.90234 l 0,1.35352 c -2.35548,-1.10155 -4.16603,-2.25585 -5.43164,-3.46289 l 0,25.91015 -1.77539,0 0,-25.91015 c -1.12501,0.89064 -1.96583,1.51173 -2.52246,1.86328 -0.55665,0.35158 -1.52637,0.87306 -2.90918,1.56445 z"
           style=""
           id="path3100" />
      </g>
      <g
         style="font-size:36px;font-style:normal;font-weight:normal;text-align:start;line-height:80.00000119%;letter-spacing:0px;word-spacing:0px;text-anchor:start;fill:#000000;fill-opacity:1;stroke:none;font-family:Times New Roman;-inkscape-font-specification:Times New Roman"
         id="text9040-5">
        <path
           d="m 406.37558,402.60098 c 1.69921,-1.55857 2.99121,-2.90623 3.87598,-4.04297 0.88475,-1.13669 1.54393,-2.20896 1.97754,-3.21679 l 0.80859,0 c 0.55077,1.16018 1.26268,2.28517 2.13574,3.375 0.87304,1.08986 2.15331,2.39064 3.84082,3.90234 l 0,1.35352 c -2.35548,-1.10155 -4.16603,-2.25585 -5.43164,-3.46289 l 0,25.91015 -1.77539,0 0,-25.91015 c -1.12501,0.89064 -1.96583,1.51173 -2.52246,1.86328 -0.55665,0.35158 -1.52637,0.87306 -2.90918,1.56445 z"
           style=""
           id="path3103" />
      </g>
      <path
         style="opacity:0.98999999;color:#000000;fill:none;stroke:#000000;stroke-width:3;stroke-linecap:round;stroke-linejoin:miter;stroke-miterlimit:4;stroke-opacity:1;stroke-dasharray:none;stroke-dashoffset:0;marker:none;visibility:visible;display:inline;overflow:visible;enable-background:accumulate"
         d="m -195,56.589396 81.42857,0"
         id="path9065"
         inkscape:connector-curvature="0"
         transform="translate(286.11471,359.4318)" />
      <path
         style="opacity:0.98999999;color:#000000;fill:none;stroke:#000000;stroke-width:3;stroke-linecap:round;stroke-linejoin:miter;stroke-miterlimit:4;stroke-opacity:1;stroke-dasharray:none;stroke-dashoffset:0;marker:none;visibility:visible;display:inline;overflow:visible;enable-background:accumulate"
         d="m 87.142857,55.160824 81.428573,0"
         id="path9067"
         inkscape:connector-curvature="0"
         transform="translate(286.11471,359.4318)" />
      <path
         style="opacity:0.98999999;color:#000000;fill:none;stroke:#000000;stroke-width:3;stroke-linecap:round;stroke-linejoin:miter;stroke-miterlimit:4;stroke-opacity:1;stroke-dasharray:none;stroke-dashoffset:0;marker:none;visibility:visible;display:inline;overflow:visible;enable-background:accumulate"
         d="m -53.571429,113.01797 80,0"
         id="path9069"
         inkscape:connector-curvature="0"
         transform="translate(286.11471,359.4318)" />
      <path
         style="opacity:0.98999999;color:#000000;fill:none;stroke:#000000;stroke-width:3;stroke-linecap:round;stroke-linejoin:miter;stroke-miterlimit:4;stroke-opacity:1;stroke-dasharray:none;stroke-dashoffset:0;marker:none;visibility:visible;display:inline;overflow:visible;enable-background:accumulate"
         d="m -56.428571,-74.12489 82.857142,0"
         id="path9071"
         inkscape:connector-curvature="0"
         transform="translate(286.11471,359.4318)" />
      <path
         style="opacity:0.98999999;color:#000000;fill:none;stroke:#000000;stroke-width:3;stroke-linecap:round;stroke-linejoin:miter;stroke-miterlimit:4;stroke-opacity:1;stroke-dasharray:3, 6;stroke-dashoffset:0;marker:none;visibility:visible;display:inline;overflow:visible;enable-background:accumulate"
         d="M -54.199057,112.84465 -115,55.87511 -56.306019,-73.323947"
         id="path9073"
         inkscape:connector-curvature="0"
         transform="translate(286.11471,359.4318)"
         sodipodi:nodetypes="ccc" />
      <path
         style="opacity:0.98999999;color:#000000;fill:none;stroke:#000000;stroke-width:3;stroke-linecap:round;stroke-linejoin:miter;stroke-miterlimit:4;stroke-opacity:1;stroke-dasharray:3, 6;stroke-dashoffset:0;marker:none;visibility:visible;display:inline;overflow:visible;enable-background:accumulate"
         d="M 27.142857,-74.12489 85.714286,55.160824 28.571429,112.30368"
         id="path9075"
         inkscape:connector-curvature="0"
         transform="translate(286.11471,359.4318)" />
    </g>
  </g>
</svg>
