<?xml version="1.0" encoding="UTF-8" standalone="no"?>
<!-- Created with Inkscape (http://www.inkscape.org/) -->

<svg
   version="1.1"
   id="svg1"
   width="1191.8427"
   height="513.49609"
   viewBox="0 0 1191.8427 513.49609"
   sodipodi:docname="Gemini_Generated_Image_4k2lyb4k2lyb4k2l.png"
   xmlns:inkscape="http://www.inkscape.org/namespaces/inkscape"
   xmlns:sodipodi="http://sodipodi.sourceforge.net/DTD/sodipodi-0.dtd"
   xmlns="http://www.w3.org/2000/svg"
   xmlns:svg="http://www.w3.org/2000/svg">
  <defs
     id="defs1" />
  <sodipodi:namedview
     id="namedview1"
     pagecolor="#ffffff"
     bordercolor="#000000"
     borderopacity="0.25"
     inkscape:showpageshadow="2"
     inkscape:pageopacity="0.0"
     inkscape:pagecheckerboard="0"
     inkscape:deskcolor="#d1d1d1">
    <inkscape:page
       x="0"
       y="0"
       width="1191.8427"
       height="513.49609"
       id="page2"
       margin="0"
       bleed="0" />
  </sodipodi:namedview>
  <g
     inkscape:groupmode="layer"
     inkscape:label="Image"
     id="g1"
     transform="translate(-885.10506,1092.5511)">
    <rect
       style="fill:#8bc34a;stroke:none;stroke-width:4.97764;stroke-linecap:round;stroke-linejoin:round"
       id="rect2"
       width="38.996185"
       height="55.818069"
       x="1024.6057"
       y="-1067.425"
       ry="3.0000179"
       inkscape:export-filename="gonio.pdf"
       inkscape:export-xdpi="96"
       inkscape:export-ydpi="96" />
    <path
       style="fill:#ffa500;stroke:none;stroke-width:4.97764;stroke-linecap:round;stroke-linejoin:round"
       d="m 1835.0538,-1068.3755 31.8999,6.4881 -0.5407,41.0914 -31.8999,8.6508 z"
       id="path2" />
    <rect
       style="fill:#d32f2f;stroke:none;stroke-width:4.97764;stroke-linecap:round;stroke-linejoin:round"
       id="rect1"
       width="17.586515"
       height="44.730919"
       x="1997.2164"
       y="-1063.6019"
       ry="3.0000179" />
    <path
       style="fill:#000000"
       d="m 1003.0124,-579.55069 h -58.95362 c -51.73658,0 -58.95365,-0.18363 -58.95365,-1.5 0,-0.825 0.1125,-1.50699 0.25,-1.51553 0.1375,-0.009 25.22315,-0.68636 55.75,-0.63383 57.39179,0.0988 114.74867,-0.35304 172.16827,-0.35564 60.6825,-0.003 115.4617,-0.30011 121.7316,-0.66136 l 11.3999,-0.65682 -7.3298,-6.83864 -7.3299,-6.83818 h -12.8576 -12.8575 l 0.2875,-9.25 0.2875,-9.25 11.75,-0.28174 11.75,-0.28173 v -9.81122 -9.81123 l -16.6597,-0.65704 c -9.1628,-0.36137 -30.6527,-0.65704 -47.7553,-0.65704 h -31.0955 l -35.1402,-35.25 -35.1402,-35.25 -0.3546,-120 -0.3545,-120 7.1248,-27 c 3.9186,-14.85 7.3867,-28.12501 7.7069,-29.50001 l 0.5821,-2.5 h -27.7069 -27.7069 l -0.2889,-8.75 -0.2889,-8.75 h -12.4611 -12.46107 v 11.4433 c 0,14.0655 -0.40602,14.55671 -12.03138,14.55671 -12.34239,0 -11.42022,2.90493 -11.75687,-37.03561 -0.35016,-41.5445 -1.10351,-38.9644 11.37704,-38.9644 12.45347,0 12.41121,-0.043 12.41121,12.5352 v 10.4648 h 12.49997 12.5 v -8 -8 l 17.75,-0.2416 c 9.7625,-0.1329 22.025,-0.2577 27.25,-0.2773 l 9.5,-0.036 10.4225,-0.4455 h 6.9224 l 1.0213,-3.25 c 0.5617,-1.7875 1.4966,-5.1625 2.0776,-7.5 0.5809,-2.3375 1.5236,-6.05 2.0948,-8.25 l 1.0385,-4 h 44.4229 44.4229 l 1.0927,4.25 c 1.1413,4.4395 3.7316,13.9955 4.6063,16.9932 0.4764,1.6329 4.9193,1.7595 70.1934,2 l 69.6847,0.2568 v 30 30 l -61.854,0.2577 c -48.7734,0.2032 -61.7568,0.5204 -61.3943,1.5 0.2529,0.6833 1.5123,5.2534 2.7987,10.15576 l 2.3389,8.91345 -4.4446,3.94854 c -2.4446,2.1717 -13.5572,11.59024 -24.6947,20.93009 -11.1375,9.33986 -20.25,17.55664 -20.25,18.25952 0,1.24793 13.5225,38.11408 37.9765,103.53495 6.6815,17.875 15.3827,41.17993 19.3359,51.78874 l 7.1876,19.28874 0.2672,-25.03874 0.2672,-25.03874 h 10.9828 10.9828 v -30 -30 l 56.75,-0.13695 c 31.2125,-0.0753 57.875,-0.23793 59.25,-0.36134 1.375,-0.12341 11.95,-0.28763 23.5,-0.36494 l 21,-0.14055 -0.078,-7.24811 c -0.043,-3.98646 -0.1552,-10.94946 -0.25,-15.47334 l -0.1724,-8.22523 -16.25,-0.27477 -16.25,-0.27477 -0.2767,-14.75 -0.2767,-14.75 h 7.5267 7.5267 v -26 -26 l 10.25,-0.14107 c 11.4792,-0.15799 17.6355,-0.33382 22.646,-0.6468 l 3.3961,-0.21213 2.9163,-0.0141 66.6458,0.25706 66.6458,0.25705 0.2668,25.70653 0.2668,25.70653 7.2332,0.29347 7.2332,0.29347 0.2768,14.75 0.2767,14.75 h -18.4677 c -11.0201,0 -18.7127,0.39642 -19.0753,0.98299 -0.3341,0.54064 -0.3079,2.57989 0.058,4.53165 l 0.6658,3.54867 11.1327,-0.28166 11.1328,-0.28165 0.3215,-2.80191 c 0.3788,-3.30214 3.2279,-4.69809 9.5886,-4.69809 7.1085,0 8.0899,1.93555 8.0899,15.95477 0,8.37733 -0.386,12.20524 -1.3478,13.36311 -1.2301,1.48112 -0.1831,1.64711 12,1.90241 l 13.3478,0.27971 0.2651,29.25 0.2651,29.25 h 2.9849 2.9849 v -29.5 -29.5 h 31.8392 c 17.5116,0 40.717,-0.29732 51.5675,-0.66072 l 19.7283,-0.66072 22.6223,-29.58928 c 31.6581,-41.40772 33.0351,-43.08928 35.2853,-43.08928 1.8839,0 1.9574,-0.82624 1.9574,-22 v -22 l -61.75,-0.003 -61.75,-0.003 -2.5,-4.74712 -2.5,-4.7471 -17.25,-0.2736 c -9.4875,-0.1505 -17.2733,-0.6005 -17.3018,-1 -0.3055,-4.2762 -0.4229,-59.044 -0.1287,-59.9764 0.3096,-0.9811 12.8635,-1.25 58.354,-1.25 h 57.9596 l 2.8971,2e-4 h 48.4322 48.4322 l 16.2287,4 c 14.2823,3.5203 17.6394,4 27.9922,4 h 11.7637 l 0.3103,-3.75 0.3104,-3.75 h 30 30 l 0.2889,8.75 0.289,8.75 12.211,-0.01 12.2111,-0.01 9.7204,-5.805 9.7204,-5.8051 9.6646,-0.2576 9.6646,-0.2577 3.865,3.7741 3.865,3.7741 v 17.6009 17.6009 l -3.2976,3.1961 c -3.2776,3.1759 -3.3604,3.1953 -13.6523,3.1953 h -10.3546 l -9.3555,-6 -9.3554,-6 h -12.4534 -12.4533 l -0.289,8.75 -0.2889,8.75 -11.75,0.2818 c -6.4625,0.1549 -11.75,0.7027 -11.75,1.2172 0,0.5145 5.0625,1.0628 11.25,1.2183 l 11.25,0.2827 0.3104,3.75 0.3103,3.75 h -11.5603 c -11.7415,0 -13.8864,0.78007 -8.8104,3.20421 2.4824,1.18553 2.7798,1.89361 3.0565,7.27665 0.2447,4.75907 -0.046,6.22139 -1.4411,7.24124 -2.1043,1.53871 -17.0142,1.74215 -20.8482,0.28446 -2.4824,-0.94381 -2.5981,-1.30564 -2.3151,-7.24085 0.2723,-5.70947 0.5364,-6.36132 3.0674,-7.57046 1.5232,-0.72769 2.5092,-1.7443 2.191,-2.25915 -0.6198,-1.0028 -73.404,-1.3266 -77.0687,-0.34285 -2.0665,0.55468 -2.1062,0.99602 -2,22.23634 l 0.1082,21.67043 3,0.5 c 2.7498,0.45829 3.1114,1.00052 4.3351,6.5 0.7342,3.3 1.5076,6.5625 1.7186,7.25 0.4926,1.60521 12.0724,1.56956 57.4463,-0.1769 18.975,-0.73035 34.8375,-1.13152 35.25,-0.89149 0.4125,0.24003 0.75,1.35865 0.75,2.48582 0,1.61866 0.4729,1.93587 2.25,1.50925 1.2375,-0.29707 3.911,-0.84095 5.941,-1.20863 l 3.691,-0.6685 -0.5782,-4.88201 c -0.3665,-3.09497 -0.1463,-5.40243 0.6018,-6.30374 0.6489,-0.78195 5.2433,-2.16848 10.2096,-3.08117 l 9.0298,-1.65944 3.4959,2.66647 c 4.4386,3.38551 4.6876,4.06289 7.8227,21.28465 l 2.6077,14.32432 -2.1488,3.47675 c -2.9722,4.80912 -5.2476,6.01539 -14.0998,7.47462 -9.0172,1.48646 -10.243,0.92672 -11.2097,-5.11888 -0.7115,-4.44901 -0.5752,-4.39704 -7.5878,-2.8931 -4.574,0.98094 -5.0463,1.33321 -4.7993,3.57936 0.2998,2.7246 3.5119,1.34975 -57.2259,24.49384 l -27.3398,10.40419 0.064,16.51255 -3.0112,1.68064 c -0.2724,0.15201 -4.9088,1.95905 -13.8876,5.5043 -8.9788,3.54525 -31.7377,12.45082 -50.5752,19.79014 l -34.25,13.34423 v 13.30136 13.30137 h 4.5 c 4.4243,0 4.5,-0.0556 4.5,-3.3 0,-4.83046 1.4662,-5.7 9.6111,-5.7 6.8247,0 7.3499,0.16488 9.8,3.07673 2.4912,2.96059 2.5889,3.56161 2.5889,15.92327 0,12.36166 -0.098,12.96268 -2.5889,15.92327 -2.4501,2.91185 -2.9753,3.07673 -9.8,3.07673 -7.9531,0 -9.6111,-0.89701 -9.6111,-5.2 0,-2.65185 -0.2381,-2.8 -4.5,-2.8 -4.42,0 -4.4991,0.0578 -4.4524,3.25 0.026,1.7875 5.8291,17.65 12.8953,35.25 76.6352,190.87818 -109.5242,-273.23002 19.1559,47.50526 l 4.1338,10.30355 -18.9191,18.84559 -18.9191,18.8456 h -9.2334 -9.2334 l 0.2862,9.75 0.2862,9.75 11.75,0.28174 11.75,0.28173 v 8.96827 8.96826 h -12.775 -12.775 l -7.475,7.61038 -7.475,7.61038 178.3391,-0.69228 c 161.5712,-0.6272 178.3072,-0.54505 178,0.87369 -0.2854,1.31794 -2.8732,1.63886 -16.3391,2.02619 -8.8,0.25312 -162.475,0.7639 -341.5,1.13507 -179.025,0.37116 -325.7902,0.84357 -326.1449,1.04979 -0.3547,0.20622 -73.0297,0.48285 -161.5,0.61473 -88.4703,0.13188 -174.5314,0.47204 -191.247,0.75592 l -30.392,0.51613 z m 625.4883,-5.66516 82.7263,-0.66515 -7.3109,-7.37538 -7.311,-7.37538 -11.5,0.0958 c -6.325,0.0527 -12.0625,0.0709 -12.75,0.0405 -0.9033,-0.0399 -1.25,-2.55135 -1.25,-9.05523 v -9 h 12 12 v -10.16559 -10.16559 l -153.75,0.66523 c -84.5625,0.36588 -179.7375,0.66539 -211.5,0.66559 l -57.75,3.6e-4 v 9.96826 9.96827 l 11.75,0.28173 11.75,0.28174 v 9 9 l -13.0542,0.27766 -13.0543,0.27766 -6.9189,6.97234 -6.9189,6.97234 h 145.0578 c 79.7819,0 182.2847,-0.29932 227.7841,-0.66516 z m -370.3229,-6.83484 6.7329,-6.5 -14.1528,0.0394 -14.1528,0.0394 7,6.43376 c 3.85,3.53857 7.189,6.44585 7.42,6.46062 0.2309,0.0148 3.4497,-2.89814 7.1527,-6.47314 z m 470.9273,-7.72453 c 0,-0.43027 -5.8454,-0.66827 -12.9899,-0.52889 -7.1445,0.13938 -12.9945,0.55105 -13,0.91483 -0.01,0.36377 2.9984,3.41809 6.6753,6.78736 l 6.6854,6.12595 6.3146,-6.25847 c 3.4731,-3.44216 6.3146,-6.61051 6.3146,-7.04078 z m -437,-8.27547 v -5.5 h -41.5 -41.5 v 5.5 5.5 h 41.5 41.5 z m 466,-1.51097 v -6.01097 l -41.75,0.26097 -41.75,0.26097 -0.3131,4.3644 c -0.5517,7.69193 -3.8483,7.1356 42.2818,7.1356 h 41.5313 z m -489.5448,-17.10489 c 0.407,-5.20307 0.3229,-9.50608 -0.196,-10.02498 -0.5,-0.50001 -8.5254,-0.78537 -17.8341,-0.63413 l -16.9251,0.27497 -0.2862,9.75 -0.2862,9.75 h 17.4072 17.4073 z m 454.7948,7.12297 10.75,-0.007 v -9.5 -9.5 h -17.5 -17.5 v 10.1446 10.14461 l 6.75,-0.6375 c 3.7125,-0.35062 11.5875,-0.64069 17.5,-0.6446 z m -116.3298,-22.41552 147.4201,-0.43955 16.0799,-16.18808 16.0798,-16.18807 -232.0105,0.59179 -232.0105,0.59179 -42.4895,13.60573 c -23.3692,7.48315 -46.3145,14.83529 -50.9895,16.33808 l -8.5,2.73236 119.5,-0.30226 c 65.725,-0.16623 185.8391,-0.50004 266.9202,-0.74179 z m -398.9202,-62.59159 v -63 h 10.3334 c 5.6833,0 10.5643,-0.23099 10.8466,-0.51331 0.2823,-0.28233 -3.413,-10.96983 -8.2119,-23.75 -9.0526,-24.10835 -23.2746,-62.26996 -44.6069,-119.69212 -6.8358,-18.40048 -12.301,-34.10039 -12.1449,-34.88867 0.156,-0.78828 11.0837,-10.48887 24.2837,-21.55686 18.5094,-15.51984 24.0475,-20.69274 24.2076,-22.61133 0.1142,-1.36824 -5.5219,-24.08772 -12.5246,-50.48772 l -12.7322,-48 h -41.9117 -41.9116 l -1.6827,6.5 c -0.9255,3.575 -9.1738,35.3583 -18.3298,70.6295 l -16.647,64.12947 0.017,118.87052 0.017,118.87052 34.2784,34.25 34.2785,34.25 h 36.2202 36.2201 z m 55.5,45.72744 c 25.85,-8.26272 48.6935,-15.50116 50.7633,-16.08542 2.0698,-0.58426 3.6448,-1.3723 3.5,-1.75119 -0.4036,-1.05606 -101.1197,-82.26448 -104.5133,-84.2701 -0.9942,-0.58763 -1.25,11.45918 -1.25,58.88764 v 59.62641 l 2.25,-0.69211 c 1.2375,-0.38066 23.4,-7.45252 49.25,-15.71523 z m 524.3878,-20.29158 c 0.2133,-0.20796 -1.4317,-4.7786 -3.6555,-10.15698 -58.7147,-143.86913 -5.0538,-10.66474 -29.061,-72.11156 l -1.664,-4.33268 -268.5036,0.71183 c -147.677,0.39151 -268.6398,0.82733 -268.8061,0.96849 -0.1664,0.14115 6.3547,5.59554 14.4913,12.12084 8.1365,6.52531 32.3477,25.99086 53.8024,43.25679 l 39.0087,31.39258 232,-0.7356 c 127.6,-0.40458 232.1745,-0.90575 232.3878,-1.11371 z m -332.3878,-89.68638 c 90.2,-0.13432 194.0375,-0.36421 230.75,-0.51087 l 66.75,-0.26666 10e-5,-13.23598 10e-5,-13.23597 -101.2501,0.19538 c -55.6875,0.10746 -172.0126,0.50032 -258.5001,0.87302 l -157.25,0.67764 v 12.71031 c 0,6.99068 0.3375,13.06866 0.75,13.50663 0.4125,0.43797 12.9,0.51155 27.75,0.16352 14.85,-0.34804 100.8,-0.7427 191,-0.87702 z m 326.75,-0.14153 c 1.5065,-1.14357 1.75,-3.11122 1.75,-14.13945 0,-15.67018 -0.4438,-16.4685 -9.155,-16.4685 h -5.845 v 15.33333 c 0,8.43334 0.3,15.63334 0.6667,16 1.1925,1.1925 10.7853,0.63951 12.5833,-0.72538 z m -17.25,-14.10795 v -6.5 h -4 -4 v 6.5 6.5 h 4 4 z m -103.75,-16.25561 91.75,-0.26516 v -9.48962 -9.48961 h -102.334 c -56.2837,0 -172.6087,0.29952 -258.5,0.6656 l -156.166,0.66561 v 9.34015 9.34015 l 166.75,-0.25098 c 91.7125,-0.13804 208.0375,-0.3703 258.5,-0.51614 z m -223.9084,-22.31201 c 91.3871,-0.0435 167.5602,-0.31329 169.2735,-0.59946 l 3.1151,-0.52032 -0.4918,-27.6563 c -0.2705,-15.21097 -0.5927,-27.77672 -0.716,-27.92389 -0.1233,-0.14718 -78.9119,0.0778 -175.0858,0.5 l -174.8615,0.76759 0.015,4 c 0.01,2.2 0.1041,14.97661 0.2125,28.39246 l 0.1969,24.39245 6.0916,-0.63669 c 3.3504,-0.35018 80.8629,-0.67231 172.25,-0.71584 z m 330.4228,-6.3213 c 7.5546,-2.96391 23.8606,-9.32332 36.2356,-14.13204 41.1332,-15.98363 50.4926,-19.72175 51.3584,-20.51214 0.4721,-0.43101 -0.3335,-6.78739 -1.7902,-14.12528 -1.4568,-7.33789 -5.1311,-26.16662 -8.1652,-41.84162 -3.0342,-15.675 -5.7665,-29.51902 -6.0719,-30.7645 l -0.5552,-2.26449 -30.0831,0.26449 -30.083,0.2645 -21.3952,28 c -11.7673,15.4 -24.2829,31.7125 -27.8124,36.25 l -6.4173,8.25 h -50.4925 -50.4924 v 28 28 h 66.0144 66.0144 z m -20.5553,1.41426 c -13.1896,-3.16414 -13.5812,-22.77717 -0.5407,-27.08092 8.7543,-2.88915 18.3316,4.19299 18.3316,13.55558 0,9.23845 -8.5537,15.74131 -17.7909,13.52534 z m 9.5025,-4.99099 c 2.0238,-1.23398 3.5349,-3.17422 4.0858,-5.24626 2.8701,-10.79352 -8.7891,-18.2348 -17.0316,-10.87012 -2.8038,2.50521 -3.2658,3.57773 -3.2658,7.58203 0,4.0043 0.462,5.07682 3.2658,7.58203 3.9009,3.48547 8.2648,3.80648 12.9458,0.95232 z m -10.7116,-3.03435 c -4.2601,-4.26009 -1.3254,-13 4.3652,-13 3.922,0 7.6348,3.64726 7.6348,7.5 0,6.20791 -7.7431,9.75685 -12,5.5 z m 7.9893,-2.48701 c 1.5308,-1.84454 0.577,-6.08173 -1.5531,-6.8991 -2.3902,-0.91723 -5.4362,1.16785 -5.4362,3.72129 0,4.23674 4.4364,6.25382 6.9893,3.17781 z m -76.8679,0.31806 c -15.6419,-7.74249 -12.5031,-31.81429 4.6509,-35.66854 15.1098,-3.39496 28.2928,13.07021 21.3193,26.62733 -5.3209,10.34444 -15.8981,14.02675 -25.9702,9.04121 z m 13.0925,-1.87365 c 2.0426,-0.5673 4.0076,-1.50677 4.3667,-2.0877 0.6256,-1.01224 -7.2124,-9.8697 -8.7338,-9.8697 -0.4052,0 -2.7726,2.1375 -5.2608,4.75 l -4.524,4.75 3.719,1.72378 c 4.3734,2.02708 5.4923,2.10576 10.4329,0.73362 z m -11.2169,-10.56993 4.2517,-4.61252 -4.6131,-4.61304 c -4.214,-4.21407 -4.7503,-4.4757 -6.201,-3.02506 -3.3274,3.32744 -2.5122,16.86315 1.0156,16.86315 0.7123,0 3.2084,-2.07564 5.5468,-4.61253 z m 20.9679,2.67827 c 2.023,-3.78013 1.0501,-13.97251 -1.6234,-17.00545 -0.2131,-0.24184 -2.6279,1.76696 -5.3661,4.464 l -4.9786,4.90372 4.714,4.78599 c 2.5927,2.6323 5.0526,4.786 5.4665,4.786 0.4138,0 1.2182,-0.87042 1.7876,-1.93426 z m -9.4912,-15.03902 4.8985,-4.97327 -3.654,-1.52673 c -4.7166,-1.97075 -7.8085,-1.92814 -12.2046,0.16822 l -3.5544,1.69494 4.7328,4.80506 c 2.6031,2.64278 4.7667,4.80506 4.808,4.80506 0.041,0 2.2795,-2.23797 4.9737,-4.97328 z m 170.2111,-20.06668 7.6099,-2.96004 c 0.4685,-0.18224 6.6045,-2.21769 13.5596,-4.92821 6.9552,-2.71051 22.7024,-8.75473 34.994,-13.43159 12.2915,-4.67687 22.5035,-8.65871 22.6934,-8.84853 0.1898,-0.18982 -0.8479,-6.5206 -2.3059,-14.0684 l -2.651,-13.72327 -6.0424,0.0258 c -12.4754,0.0533 -81.7959,2.89435 -82.2734,3.37187 -0.6546,0.65458 10.0488,55.6023 10.8309,55.6023 0.3309,0 1.9441,-0.46798 3.5849,-1.03996 z m -429.6848,-15.46004 v -15.5 h -6 -6 v 15.5 15.5 h 6 6 z m 98,-0.65972 v -16.15971 l -23.25,0.65741 c -12.7875,0.36158 -34.1625,0.65845 -47.5,0.65972 l -24.25,0.002 v 15.5 15.5 h 47.5 47.5 z m 15,0.65972 v -15.5 h -5.8748 -5.8748 l 0.3095,15.25 c 0.1703,8.3875 0.3389,15.3625 0.3748,15.5 0.036,0.1375 2.5403,0.25 5.5653,0.25 h 5.5 z m 27.607,13.91821 c -0.3338,-0.86998 -0.607,-2.44498 -0.607,-3.5 0,-1.77864 -0.8285,-1.91821 -11.3865,-1.91821 h -11.3865 l -0.4411,3.00569 c -0.2426,1.65313 -0.2187,3.22813 0.053,3.5 0.2719,0.27187 5.8675,0.49431 12.4346,0.49431 10.4772,0 11.866,-0.19383 11.3334,-1.58179 z m 11.393,-13.41821 v -12 h -4.5 -4.5 v 12 12 h 4.5 4.5 z m -12,-0.5 v -4.5 h -11.5 -11.5 v 4.5 4.5 h 11.5 11.5 z m 397.5,-13.91861 c 5.4355,-1.1688 5.9758,-1.51558 5.7425,-3.68579 -0.3165,-2.94476 -6.2407,-35.95652 -6.7351,-37.53078 -0.2594,-0.82587 -2.3526,-0.7281 -7.682,0.35879 -4.029,0.82168 -7.4683,1.62542 -7.643,1.78608 -0.1746,0.16066 1.0512,7.4242 2.724,16.14121 1.6728,8.717 3.3357,17.7616 3.6954,20.0991 0.7371,4.79141 0.7569,4.79707 9.8982,2.83139 z m -524.1104,-5.58636 49.1104,-0.005 -2.6558,-2.24504 c -1.4607,-1.23477 -3.1482,-3.22795 -3.75,-4.42929 -2.4884,-4.96742 -0.234,-12.09031 4.6684,-14.75035 2.4501,-1.32939 -3.0101,-1.48952 -52.0126,-1.52535 l -54.75,-0.04 v 11.33333 c 0,6.23334 0.3375,11.6763 0.75,12.09548 0.4125,0.41917 2.7253,0.49417 5.1396,0.16666 2.4143,-0.32751 26.4893,-0.59771 53.5,-0.60044 z m 92.9157,-3.00079 c -5.3656,-5.24592 -5.222,-12.10413 0.356,-17.00171 l 3.4083,-2.99253 -19.7848,0.007 -19.7848,0.007 2.9326,1.93316 c 3.5565,2.34447 5.4845,5.60433 5.532,9.35332 0.045,3.54025 -2.2941,8.1173 -5.1814,10.13964 -2.0527,1.4378 -0.7389,1.5607 16.6842,1.5607 h 18.9123 z m 44.4775,-8.74424 0.2827,-11.25 -16.7827,0.004 -16.7828,0.004 3.1862,1.94275 c 4.0497,2.46877 5.3138,4.86765 5.3138,10.08351 0,3.41014 -0.6212,4.78698 -3.425,7.59075 l -3.425,3.42501 15.675,-0.27501 15.675,-0.27501 z m 397.2077,8.44098 c -0.018,-4.04923 -5.0007,-29.10117 -5.9842,-30.08467 -1.8397,-1.83972 -1.8441,-0.0769 -0.022,8.89801 1.0045,4.94762 2.379,12.47263 3.0544,16.72224 0.6754,4.24961 1.618,7.48555 2.0946,7.19098 0.4766,-0.29456 0.8623,-1.52152 0.8571,-2.72656 z m -29.1897,0.31631 c 3.2957,-0.85191 4.1928,-1.50854 3.8385,-2.80952 -0.2543,-0.93377 -1.0097,-4.76964 -1.6785,-8.52414 -1.1032,-6.19258 -1.4131,-6.7792 -3.3384,-6.31828 -1.1673,0.27946 -3.8235,0.81646 -5.9027,1.19334 -2.8469,0.51606 -3.668,1.08844 -3.3257,2.31828 0.25,0.89817 1.012,4.90258 1.6932,8.8987 0.9938,5.82917 1.5525,7.17548 2.8258,6.80952 0.8728,-0.25088 3.5224,-0.95644 5.8878,-1.5679 z m -446.4356,-2.07987 c 1.9084,-1.50119 2.6348,-2.99494 2.6348,-5.41821 0,-4.75641 -0.8361,-6.37311 -4.1941,-8.10962 -6.0666,-3.13716 -11.8059,0.63055 -11.8059,7.75034 0,4.34789 3.5691,7.85007 8,7.85007 1.5017,0 3.916,-0.93266 5.3652,-2.07258 z m 47.7118,-0.8505 c 1.7621,-1.76217 2.923,-3.97705 2.923,-5.57692 0,-3.22422 -4.9485,-8.5 -7.9727,-8.5 -2.8978,0 -7.6475,2.56794 -8.4061,4.5448 -1.392,3.62746 -0.5924,7.57734 2.0249,10.00295 3.6385,3.3721 7.7576,3.20244 11.4309,-0.47083 z m -2.8092,-21.07277 18.7678,-0.004 -0.2678,-24.25 -0.2678,-24.25 -11,0.23986 c -6.05,0.13193 -35.1875,0.24443 -64.75,0.25 l -53.75,0.0101 h -4.0778 -16.4611 -16.4611 v 24.66195 24.66194 l 64.75,-0.65779 c 35.6125,-0.36179 73.1955,-0.65966 83.5178,-0.66195 z m 283.7322,-34.00415 v -22 h -23.5523 -23.5524 l 0.4811,7.25 c 0.2646,3.9875 0.5131,13.8875 0.5523,22 l 0.071,14.75 h 23 23 z m 98.8075,-12.25 -0.3075,-4.25 h -9 -9 l -0.3075,4.25 -0.3075,4.25 h 9.615 9.615 z m -5.8075,-9.25 c 0,-1.60971 -1.1816,-1.82601 -4.75,-0.86971 -3.4408,0.92209 -2.6772,2.36971 1.25,2.36971 2.4444,0 3.5,-0.45238 3.5,-1.5 z m -59.5833,-4.48531 c 45.6041,-0.01 82.6753,-0.2561 82.3803,-0.5511 -0.2951,-0.295 -43.0076,-0.5155 -94.9167,-0.49 -59.894,0.029 -97.4861,-0.3358 -102.8803,-0.9996 -10.5319,-1.296 -21.6235,-4.2428 -27.8544,-7.4002 -9.6541,-4.8921 -19.3235,-15.9383 -26.5441,-30.3238 l -2.6352,-5.25 h -9.4558 -9.4558 l -10.183,11.4997 c -14.9769,16.9136 -14.0974,14.2351 -8.3072,25.2997 l 4.9355,9.4314 61,-0.6007 c 33.55,-0.3304 98.3125,-0.6074 143.9167,-0.6154 z m -187.9167,-28.2225 c -2.9776,-1.7077 -4.4326,-3.9742 -4.4682,-6.9604 -0.048,-4.0004 0.9124,-5.7515 4.0398,-7.3688 3.9775,-2.0568 6.3927,-1.8279 9.5727,0.9074 7.3005,6.2797 -0.8185,18.1966 -9.1443,13.4218 z m 8.3104,-7.093 c 0.2247,-1.863 -0.3968,-3.0373 -2.25,-4.2516 -2.3964,-1.5701 -2.7244,-1.5701 -5.1207,0 -3.3178,2.1739 -3.0309,6.4648 0.551,8.2414 3.1977,1.5861 6.3712,-0.2706 6.8197,-3.9898 z m -691.04724,1.0508 -0.26313,-34.25 -7.91317,-0.295 c -5.65526,-0.2108 -8.14758,0.075 -8.73469,1 -0.96238,1.5171 -1.15008,56.3422 -0.21622,63.1554 l 0.63593,4.6396 h 8.3772 8.37721 z m 872.39954,29.25 c 30.1796,0 47.8373,-0.3574 47.8373,-0.9682 0,-0.5535 -5.0341,-1.089 -11.75,-1.25 l -11.75,-0.2818 -0.3075,-4.25 -0.3075,-4.25 h -11.4994 c -10.4607,0 -13.0249,0.4065 -28.3856,4.5 l -16.8861,4.5 h -43.7236 c -24.048,0 -43.3876,0.3375 -42.9769,0.75 1.5166,1.5234 15.821,2.0712 43.4993,1.666 15.627,-0.2288 49.9395,-0.416 76.25,-0.416 z m 57.8373,-1 c 0,-0.55 -1.575,-1 -3.5,-1 -1.925,0 -3.5,0.45 -3.5,1 0,0.55 1.575,1 3.5,1 1.925,0 3.5,-0.45 3.5,-1 z m -861,-29 v -27 h -19 -19 v 27 27 h 19 19 z m 16.6142,24.25 c 0.9442,-3.9808 12.3345,-47.4253 12.9779,-49.5 0.4805,-1.5495 -0.2445,-1.75 -6.3295,-1.75 0,0 -8.189,0.012 -15.2616,0 h -5 v 27 27 h 6.481 c 6.2453,0 6.5046,-0.1 7.1332,-2.75 z m 251.6965,-4.25 c -0.1042,-3.575 -0.2167,-15.8691 -0.25,-27.3202 l -0.061,-20.8202 -67.5477,0.2246 c -48.44,0.161 -67.4396,0.5345 -67.1655,1.3202 0.2102,0.6026 3.4523,12.9116 7.2046,27.3533 l 6.8224,26.2577 60.5931,-0.2577 60.5931,-0.2577 z m 316.5123,0.5726 -2.1509,-4.4274 12.4139,-14.5045 12.414,-14.5045 11.7332,-0.068 11.7331,-0.068 2.6599,5.25 c 7.5899,14.9809 17.3859,26.1852 26.7371,30.5808 4.4144,2.075 5.9192,2.1692 34.6258,2.1692 h 30.0109 v -27.5 -27.5 h -25.5 -25.5 l -3,-0.3073 -12.157,0.6536 c -6.6863,0.3596 -32.1113,0.6537 -56.5,0.6537 h -44.343 v 27 27 h 14.487 14.487 z m 183.177,-19.9476 c 0,-13.4062 -0.2831,-25.7907 -0.6292,-27.5211 l -0.6292,-3.1462 -18.8724,0.2712 c -10.3798,0.1491 -18.8716,0.6086 -18.8708,1.0211 9e-4,0.4125 0,12.675 0,27.25 v 26.5 h 19.5 19.5 z m 116.7892,-3.375 0.2891,-27.25 h -27.0391 -27.0392 v 27.5163 27.5164 l 26.75,-0.2664 26.75,-0.2663 z m -31.431,18.7935 c -8.9167,-2.1189 -14.7912,-9.6747 -14.8124,-19.0516 -0.015,-6.802 2.4088,-11.3106 8.3123,-15.4598 3.6231,-2.5464 5.2006,-2.9983 10.5211,-3.0138 7.7561,-0.023 13.458,3.2821 16.7307,9.697 2.412,4.728 2.8323,13.0993 0.8508,16.9455 -4.2422,8.2345 -13.3784,12.837 -21.6025,10.8827 z m 12.1317,-5.0351 c 1.4408,-1.1958 1.1075,-1.8484 -3.1534,-6.1744 l -4.7645,-4.8372 -4.7411,4.6698 c -2.6076,2.5683 -4.4902,5.0756 -4.1837,5.5717 1.7821,2.8833 13.6429,3.4257 16.8427,0.7701 z m -15.2016,-18.2233 c -4.1191,-4.182 -4.8983,-4.6037 -6.1652,-3.3368 -2.3006,2.3006 -2.7149,11.9996 -0.6473,15.1551 l 1.7214,2.6272 4.903,-4.8293 4.903,-4.8293 z m 22.367,7.9515 c 0.6367,-3.9236 -0.1167,-9.3386 -1.6329,-11.7355 -0.7769,-1.2282 -1.8584,-0.6025 -5.9869,3.464 l -5.0387,4.9629 4.7149,4.787 c 5.3137,5.3948 6.8754,5.1042 7.9436,-1.4784 z m -5.6553,-15.8277 c 0,-0.3664 -1.2375,-1.1561 -2.75,-1.7548 -5.1052,-2.0207 -11.751,-1.8459 -14.7035,0.3868 -1.8827,1.4237 -1.7753,1.6582 2.964,6.4698 l 4.9175,4.9926 4.786,-4.7141 c 2.6323,-2.5927 4.786,-5.0138 4.786,-5.3803 z m -80.5,35.2072 14,-3.7987 v -19.3268 -19.3269 l -13.5,-3.2856 c -7.425,-1.807 -14.0625,-3.3063 -14.75,-3.3318 -0.9697,-0.036 -1.25,5.8957 -1.25,26.4537 0,14.575 0.3375,26.4808 0.75,26.4574 0.4125,-0.023 7.05,-1.752 14.75,-3.8413 z m 163.5,-22.1161 v -21 h -8 -8 v 21 21 h 8 8 z m -19,-0.595 v -19.595 l -4.75,2.7624 c -2.6125,1.5193 -6.4375,3.8177 -8.5,5.1076 l -3.75,2.3451 v 9.3512 9.3512 l 7.75,5.1289 c 4.2625,2.8209 8.0875,5.1322 8.5,5.1362 0.4125,0 0.75,-8.8103 0.75,-19.5876 z m -104,-0.405 v -19 h -11.5 -11.5 v 18.3333 c 0,10.0834 0.3,18.6334 0.6667,19 0.3666,0.3667 5.5416,0.6667 11.5,0.6667 h 10.8333 z m 129,1.0634 c 0,-13.5233 -0.241,-16.0176 -1.6606,-17.1909 -1.5402,-1.2729 -1.6136,-0.1757 -1.0113,15.1275 0.3571,9.075 0.6544,17.0891 0.6606,17.809 0.01,0.72 0.4613,1.0309 1.0113,0.691 0.5985,-0.3699 1,-6.9696 1,-16.4366 z m -997,1.4366 v -10.5 h -12.5 -12.49997 v 9.8333 c 0,5.4084 0.3,10.1334 0.66667,10.5 0.36666,0.3667 5.9917,0.6667 12.5,0.6667 h 11.8333 z m 952,-2.5 v -9 h -11.5 -11.5 v 9 9 h 11.5 11.5 z"
       id="path1"
       sodipodi:nodetypes="csscscscccccccccccsscccccsscccccccssssscccccsccccssscccssscccssscssssscccccccssscsscccccccccssccccccccccssccccssssscccccccsscssscccccscssccccssccccccccccccccccccscccccccssscccsssssssssscsssssssscssscsscssssssccssscccsssssssssssscccccccccccccccsssssssccscccssscccccsscccccccccccssccccssscsscscsscccccccccccccssccssscccccsccccccccsscscccccsscssccsssssssscccssccccccccssssscssssscsssscsssscccsscssssssscssscccccccccscccsscccsssscsssccscssssssssscccsscccccccssssssssssssssssssssssssssscssscssssssscsssscsscssscssssscssssccccccccccccssccccccccccsssccssscsssssccccccccccccccccccssssssssscsssscsssscscccssssccccccsssccccssssssssssssssssssssssssssssccccssccccccsscccccsscccccccccccccsssscscssscccsscscssssssssssccscsccccssscccsscsssssssssccccccccccssscccscccccsssccccccccccsssccccccsscccccccscssscccccccccccccssssssssscscsssscccsssscsssssscssscccssssscccccccccscsscccscsccccsssccssscssccccsssccccccccccc" />
  </g>
</svg>
