<?xml version="1.0" encoding="UTF-8" standalone="no"?>
<!-- Created with Inkscape (http://www.inkscape.org/) -->

<svg
   width="109.14574mm"
   height="52.042362mm"
   viewBox="0 0 109.14574 52.042362"
   version="1.1"
   id="svg1"
   inkscape:version="1.4.3 (1:1.4.3+202512261035+0d15f75042)"
   sodipodi:docname="c2-1.svg"
   xmlns:inkscape="http://www.inkscape.org/namespaces/inkscape"
   xmlns:sodipodi="http://sodipodi.sourceforge.net/DTD/sodipodi-0.dtd"
   xmlns:xlink="http://www.w3.org/1999/xlink"
   xmlns="http://www.w3.org/2000/svg"
   xmlns:svg="http://www.w3.org/2000/svg">
  <sodipodi:namedview
     id="namedview1"
     pagecolor="#ffffff"
     bordercolor="#000000"
     borderopacity="0.25"
     inkscape:showpageshadow="2"
     inkscape:pageopacity="0.0"
     inkscape:pagecheckerboard="0"
     inkscape:deskcolor="#d1d1d1"
     inkscape:document-units="mm"
     inkscape:zoom="1.4235831"
     inkscape:cx="198.09171"
     inkscape:cy="76.216136"
     inkscape:window-width="1920"
     inkscape:window-height="1008"
     inkscape:window-x="0"
     inkscape:window-y="0"
     inkscape:window-maximized="1"
     inkscape:current-layer="layer1" />
  <defs
     id="defs1">
    <pattern
       inkscape:collect="always"
       xlink:href="#Strips1_1"
       preserveAspectRatio="xMidYMid"
       id="pattern2"
       patternTransform="matrix(0.25980762,0.15,-0.15,0.25980762,0,0)"
       x="0"
       y="0" />
    <pattern
       inkscape:collect="always"
       patternUnits="userSpaceOnUse"
       width="2"
       height="10"
       patternTransform="translate(0,0) scale(2,2)"
       preserveAspectRatio="xMidYMid"
       id="Strips1_1"
       style="fill:#000000"
       inkscape:stockid="Stripes 01 (1:1)"
       inkscape:isstock="true"
       inkscape:label="Stripes 01 (1:1)">
      <rect
         style="stroke:none"
         x="0"
         y="-0.5"
         width="1"
         height="11"
         id="rect134" />
    </pattern>
  </defs>
  <g
     inkscape:label="Layer 1"
     inkscape:groupmode="layer"
     id="layer1"
     transform="translate(-26.107785,-29.029576)">
    <path
       id="path212"
       d="M 26.107785,70.391935 H 75.405483"
       style="fill:none;stroke:#000000;stroke-width:0.140582;stroke-linecap:butt;stroke-linejoin:miter;stroke-miterlimit:10;stroke-dasharray:none;stroke-opacity:1"
       inkscape:export-filename="c2-1.pdf"
       inkscape:export-xdpi="96"
       inkscape:export-ydpi="96" />
    <path
       id="path213"
       d="m 76.108403,70.391935 -1.12467,-0.56233 0.42175,0.56233 -0.42175,0.56233"
       style="fill:#000000;fill-opacity:1;fill-rule:nonzero;stroke:none;stroke-width:0.352778" />
    <path
       id="path214"
       d="m 78.401903,69.994525 h 0.38861 c 0.0785,0 0.11988,0 0.11988,-0.0744 0,-0.0496 -0.0248,-0.0496 -0.10748,-0.0496 h -0.37207 l 0.15709,-0.61598 c 0.0165,-0.0579 0.0165,-0.0661 0.0165,-0.0951 0,-0.0662 -0.0537,-0.10749 -0.11162,-0.10749 -0.0331,0 -0.12816,0.0165 -0.16123,0.14883 l -0.16537,0.66972 h -0.39687 c -0.0827,0 -0.12402,0 -0.12402,0.0827 0,0.0413 0.0331,0.0413 0.11162,0.0413 h 0.3762 l -0.28112,1.11208 c -0.0331,0.14882 -0.0455,0.19016 -0.0455,0.24391 0,0.19844 0.14056,0.38034 0.3762,0.38034 0.42581,0 0.65319,-0.61599 0.65319,-0.64493 0,-0.0248 -0.0165,-0.0372 -0.0413,-0.0372 -0.008,0 -0.0248,0 -0.0331,0.0165 -0.004,0.004 -0.008,0.008 -0.0372,0.0744 -0.0909,0.21084 -0.28525,0.50849 -0.52917,0.50849 -0.12815,0 -0.13642,-0.10748 -0.13642,-0.19843 0,-0.004 0,-0.0868 0.0124,-0.13643 z m 0,0"
       style="fill:#000000;fill-opacity:1;fill-rule:nonzero;stroke:none;stroke-width:0.352778"
       aria-label="t" />
    <path
       id="path215"
       d="M 36.107906,80.392055 V 31.094359"
       style="fill:none;stroke:#000000;stroke-width:0.140582;stroke-linecap:butt;stroke-linejoin:miter;stroke-miterlimit:10;stroke-dasharray:none;stroke-opacity:1" />
    <path
       id="path216"
       d="m 36.107906,30.391444 -0.562331,1.124666 0.562331,-0.421749 0.562331,0.421749"
       style="fill:#000000;fill-opacity:1;fill-rule:nonzero;stroke:none;stroke-width:0.352778" />
    <path
       id="path217"
       d="m 34.538949,29.070921 c 0,-0.02067 -0.01654,-0.03721 -0.03721,-0.03721 -0.03721,0 -0.198438,0.152962 -0.28112,0.30179 -0.07441,-0.190169 -0.206706,-0.305925 -0.388607,-0.305925 -0.475423,0 -0.988053,0.615983 -0.988053,1.240235 0,0.417545 0.243913,0.661458 0.529167,0.661458 0.223242,0 0.409277,-0.169499 0.500227,-0.264583 l 0.0041,0.0041 -0.161231,0.632519 -0.03721,0.152963 c -0.03721,0.124023 -0.103353,0.124023 -0.30179,0.128157 -0.04548,0 -0.08682,0 -0.08682,0.08268 0,0.02894 0.02481,0.04134 0.05374,0.04134 0.05788,0 0.136426,-0.0083 0.194303,-0.0083 h 0.429948 c 0.06201,0 0.136426,0.0083 0.198437,0.0083 0.02481,0 0.07442,0 0.07442,-0.07855 0,-0.04547 -0.03307,-0.04547 -0.09508,-0.04547 -0.198438,0 -0.21084,-0.02894 -0.21084,-0.06201 0,-0.02067 0.0041,-0.0248 0.01654,-0.07855 z m -0.595313,1.318782 c -0.02067,0.07028 -0.02067,0.07855 -0.07855,0.157096 -0.09508,0.11989 -0.28112,0.301791 -0.479557,0.301791 -0.169499,0 -0.268718,-0.157097 -0.268718,-0.405143 0,-0.231511 0.132292,-0.7028 0.21084,-0.880567 0.144694,-0.297656 0.343132,-0.446484 0.504362,-0.446484 0.28112,0 0.334863,0.343131 0.334863,0.376204 0,0.0041 -0.0124,0.06201 -0.01654,0.07028 z m 0,0"
       style="fill:#000000;fill-opacity:1;fill-rule:nonzero;stroke:none;stroke-width:0.352778"
       aria-label="q" />
    <path
       id="path218"
       d="M 46.108027,35.391506 V 72.891965"
       style="fill:none;stroke:#000000;stroke-width:0.140582;stroke-linecap:butt;stroke-linejoin:miter;stroke-miterlimit:10;stroke-dasharray:1.05439, 1.05439;stroke-dashoffset:0;stroke-opacity:1" />
    <path
       id="path219"
       d="m 45.613206,75.237615 h 0.388607 c 0.07855,0 0.119889,0 0.119889,-0.0744 0,-0.0496 -0.0248,-0.0496 -0.107487,-0.0496 h -0.37207 l 0.157096,-0.61599 c 0.01654,-0.0579 0.01654,-0.0661 0.01654,-0.0951 0,-0.0661 -0.05374,-0.10749 -0.111621,-0.10749 -0.03307,0 -0.128158,0.0165 -0.161231,0.14883 l -0.165364,0.66973 H 44.98069 c -0.08268,0 -0.124024,0 -0.124024,0.0827 0,0.0413 0.03307,0.0413 0.111621,0.0413 h 0.376205 l -0.28112,1.11208 c -0.03307,0.14883 -0.04548,0.19017 -0.04548,0.24391 0,0.19844 0.140559,0.38034 0.376204,0.38034 0.425814,0 0.65319,-0.61598 0.65319,-0.64492 0,-0.0248 -0.01654,-0.0372 -0.04134,-0.0372 -0.0083,0 -0.02481,0 -0.03307,0.0165 -0.0041,0.004 -0.0083,0.008 -0.03721,0.0744 -0.09095,0.21084 -0.285254,0.5085 -0.529167,0.5085 -0.128157,0 -0.136425,-0.10749 -0.136425,-0.19844 0,-0.004 0,-0.0868 0.0124,-0.13643 z m 0,0"
       style="fill:#000000;fill-opacity:1;fill-rule:nonzero;stroke:none;stroke-width:0.352778"
       aria-label="t" />
    <path
       id="path220"
       d="m 47.09632,75.812255 c 0,-0.062 -0.04547,-0.10749 -0.111621,-0.10749 -0.07441,0 -0.152962,0.0662 -0.152962,0.15297 0,0.062 0.04547,0.10335 0.107487,0.10335 0.07441,0 0.157096,-0.0661 0.157096,-0.14883 z m -0.413411,1.0294 -0.148829,0.3886 c -0.01654,0.0413 -0.02894,0.0744 -0.02894,0.12403 0,0.13642 0.107487,0.23977 0.256315,0.23977 0.272851,0 0.388606,-0.39274 0.388606,-0.42994 0,-0.0289 -0.0248,-0.0372 -0.04547,-0.0372 -0.03307,0 -0.03721,0.0207 -0.04548,0.0455 -0.06615,0.22737 -0.181901,0.34313 -0.293522,0.34313 -0.03307,0 -0.06615,-0.0165 -0.06615,-0.091 0,-0.0661 0.02067,-0.11989 0.05374,-0.20671 0.02894,-0.0744 0.05788,-0.14883 0.08682,-0.22738 l 0.09095,-0.22737 c 0.02481,-0.062 0.05788,-0.15296 0.05788,-0.19844 0,-0.14056 -0.111621,-0.23978 -0.256315,-0.23978 -0.272852,0 -0.392741,0.39274 -0.392741,0.42995 0,0.0248 0.02067,0.0372 0.04548,0.0372 0.03307,0 0.03721,-0.0165 0.04548,-0.0455 0.07855,-0.26458 0.206705,-0.34313 0.293522,-0.34313 0.03721,0 0.06615,0.0165 0.06615,0.0951 0,0.0248 0,0.0661 -0.02894,0.14883 z m 0,0"
       style="fill:#000000;fill-opacity:1;fill-rule:nonzero;stroke:none;stroke-width:0.352778"
       aria-label="i" />
    <path
       id="path221"
       d="M 66.108273,35.391506 V 72.891965"
       style="fill:none;stroke:#000000;stroke-width:0.140582;stroke-linecap:butt;stroke-linejoin:miter;stroke-miterlimit:10;stroke-dasharray:1.05439, 1.05439;stroke-dashoffset:0;stroke-opacity:1" />
    <path
       id="path222"
       d="m 65.249223,75.237615 h 0.3886 c 0.0786,0 0.11989,0 0.11989,-0.0744 0,-0.0496 -0.0248,-0.0496 -0.10748,-0.0496 h -0.37207 l 0.15709,-0.61599 c 0.0165,-0.0579 0.0165,-0.0661 0.0165,-0.0951 0,-0.0661 -0.0537,-0.10749 -0.11162,-0.10749 -0.0331,0 -0.12816,0.0165 -0.16123,0.14883 l -0.16537,0.66973 h -0.39687 c -0.0827,0 -0.12403,0 -0.12403,0.0827 0,0.0413 0.0331,0.0413 0.11163,0.0413 h 0.3762 l -0.28112,1.11208 c -0.0331,0.14883 -0.0455,0.19017 -0.0455,0.24391 0,0.19844 0.14056,0.38034 0.37621,0.38034 0.42581,0 0.65319,-0.61598 0.65319,-0.64492 0,-0.0248 -0.0165,-0.0372 -0.0413,-0.0372 -0.008,0 -0.0248,0 -0.0331,0.0165 -0.004,0.004 -0.008,0.008 -0.0372,0.0744 -0.091,0.21084 -0.28526,0.5085 -0.52917,0.5085 -0.12816,0 -0.13642,-0.10749 -0.13642,-0.19844 0,-0.004 0,-0.0868 0.0124,-0.13643 z m 0,0"
       style="fill:#000000;fill-opacity:1;fill-rule:nonzero;stroke:none;stroke-width:0.352778"
       aria-label="t" />
    <path
       id="path223"
       d="m 66.967973,76.444775 h 0.26459 c 0.0537,0 0.0868,0 0.0868,-0.0537 0,-0.0372 -0.0331,-0.0372 -0.0827,-0.0372 h -0.24805 c 0.0413,-0.25218 0.0703,-0.41341 0.0992,-0.54157 0.0124,-0.0455 0.0207,-0.0786 0.062,-0.11162 0.0372,-0.0289 0.0579,-0.0372 0.091,-0.0372 0.0413,0 0.0868,0.008 0.12403,0.0331 -0.0165,0.004 -0.0331,0.0124 -0.0455,0.0207 -0.0496,0.0248 -0.0827,0.0786 -0.0827,0.13229 0,0.0661 0.0496,0.10335 0.11162,0.10335 0.0827,0 0.1571,-0.0703 0.1571,-0.16536 0,-0.13229 -0.13229,-0.20257 -0.26872,-0.20257 -0.0951,0 -0.27285,0.0455 -0.3638,0.30592 -0.0248,0.062 -0.0248,0.0703 -0.0992,0.46302 h -0.21084 c -0.0579,0 -0.0909,0 -0.0909,0.0537 0,0.0372 0.0372,0.0372 0.0827,0.0372 h 0.20257 l -0.20257,1.09141 c -0.0537,0.28525 -0.0951,0.52503 -0.24391,0.52503 -0.008,0 -0.0703,0 -0.12402,-0.0331 0.13229,-0.0331 0.13229,-0.15297 0.13229,-0.15297 0,-0.0661 -0.0537,-0.10335 -0.11576,-0.10335 -0.0744,0 -0.15709,0.062 -0.15709,0.1695 0,0.11989 0.12402,0.19844 0.26458,0.19844 0.1695,0 0.28939,-0.1819 0.32659,-0.25218 0.0992,-0.18604 0.16537,-0.53744 0.1695,-0.56224 z m 0,0"
       style="fill:#000000;fill-opacity:1;fill-rule:nonzero;stroke:none;stroke-width:0.352778"
       aria-label="f" />
    <path
       id="path224"
       d="M 71.108333,60.391815 H 33.607879"
       style="fill:none;stroke:#000000;stroke-width:0.140582;stroke-linecap:butt;stroke-linejoin:miter;stroke-miterlimit:10;stroke-dasharray:1.05439, 1.05439;stroke-dashoffset:0;stroke-opacity:1" />
    <path
       id="path225"
       d="m 33.956038,61.835845 c 0,-0.0207 -0.01654,-0.0372 -0.03721,-0.0372 -0.03721,0 -0.198437,0.15296 -0.281119,0.30179 -0.07441,-0.19017 -0.206706,-0.30592 -0.388607,-0.30592 -0.475423,0 -0.988053,0.61598 -0.988053,1.24023 0,0.41755 0.243912,0.66146 0.529166,0.66146 0.223242,0 0.409278,-0.1695 0.500228,-0.26458 l 0.0041,0.004 -0.16123,0.63252 -0.03721,0.15296 c -0.03721,0.12402 -0.103353,0.12402 -0.301791,0.12816 -0.04547,0 -0.08682,0 -0.08682,0.0827 0,0.0289 0.0248,0.0413 0.05374,0.0413 0.05788,0 0.136426,-0.008 0.194304,-0.008 h 0.429948 c 0.06201,0 0.136426,0.008 0.198437,0.008 0.02481,0 0.07441,0 0.07441,-0.0785 0,-0.0455 -0.03307,-0.0455 -0.09508,-0.0455 -0.198438,0 -0.21084,-0.0289 -0.21084,-0.062 0,-0.0207 0.0041,-0.0248 0.01654,-0.0785 z m -0.595313,1.31878 c -0.02067,0.0703 -0.02067,0.0786 -0.07855,0.1571 -0.09508,0.11989 -0.28112,0.30179 -0.479557,0.30179 -0.169499,0 -0.268718,-0.1571 -0.268718,-0.40515 0,-0.23151 0.132292,-0.7028 0.21084,-0.88056 0.144694,-0.29766 0.343131,-0.44649 0.504362,-0.44649 0.28112,0 0.334863,0.34313 0.334863,0.37621 0,0.004 -0.0124,0.062 -0.01654,0.0703 z m 0,0"
       style="fill:#000000;fill-opacity:1;fill-rule:nonzero;stroke:none;stroke-width:0.352778"
       aria-label="q" />
    <path
       id="path226"
       d="m 34.766324,62.534515 c 0,-0.062 -0.04547,-0.10749 -0.111621,-0.10749 -0.07441,0 -0.152962,0.0662 -0.152962,0.15297 0,0.062 0.04547,0.10335 0.107487,0.10335 0.07441,0 0.157096,-0.0662 0.157096,-0.14883 z m -0.413411,1.0294 -0.148828,0.3886 c -0.01654,0.0413 -0.02894,0.0744 -0.02894,0.12403 0,0.13642 0.107487,0.23978 0.256315,0.23978 0.272852,0 0.388607,-0.39275 0.388607,-0.42995 0,-0.0289 -0.02481,-0.0372 -0.04547,-0.0372 -0.03307,0 -0.03721,0.0207 -0.04548,0.0455 -0.06615,0.22737 -0.181901,0.34313 -0.293522,0.34313 -0.03307,0 -0.06615,-0.0165 -0.06615,-0.0909 0,-0.0662 0.02067,-0.11989 0.05374,-0.20671 0.02894,-0.0744 0.05788,-0.14883 0.08682,-0.22738 l 0.09095,-0.22737 c 0.0248,-0.062 0.05788,-0.15296 0.05788,-0.19844 0,-0.14056 -0.111621,-0.23978 -0.256315,-0.23978 -0.272851,0 -0.392741,0.39274 -0.392741,0.42995 0,0.0248 0.02067,0.0372 0.04548,0.0372 0.03307,0 0.03721,-0.0165 0.04548,-0.0455 0.07855,-0.26458 0.206706,-0.34313 0.293522,-0.34313 0.03721,0 0.06615,0.0165 0.06615,0.0951 0,0.0248 0,0.0661 -0.02894,0.14883 z m 0,0"
       style="fill:#000000;fill-opacity:1;fill-rule:nonzero;stroke:none;stroke-width:0.352778"
       aria-label="i" />
    <path
       id="path227"
       d="M 71.108333,40.391566 H 33.607879"
       style="fill:none;stroke:#000000;stroke-width:0.140582;stroke-linecap:butt;stroke-linejoin:miter;stroke-miterlimit:10;stroke-dasharray:1.05439, 1.05439;stroke-dashoffset:0;stroke-opacity:1" />
    <path
       id="path228"
       d="m 33.592236,41.836035 c 0,-0.02067 -0.01654,-0.03721 -0.03721,-0.03721 -0.03721,0 -0.198437,0.152962 -0.28112,0.30179 -0.07441,-0.190169 -0.206705,-0.305924 -0.388606,-0.305924 -0.475424,0 -0.988054,0.615983 -0.988054,1.240234 0,0.417545 0.243913,0.661458 0.529167,0.661458 0.223242,0 0.409277,-0.169498 0.500228,-0.264583 l 0.0041,0.0041 -0.161231,0.63252 -0.03721,0.152962 c -0.03721,0.124023 -0.103353,0.124023 -0.30179,0.128157 -0.04547,0 -0.08682,0 -0.08682,0.08268 0,0.02894 0.0248,0.04134 0.05374,0.04134 0.05788,0 0.136426,-0.0083 0.194303,-0.0083 h 0.429948 c 0.06201,0 0.136426,0.0083 0.198438,0.0083 0.0248,0 0.07441,0 0.07441,-0.07855 0,-0.04548 -0.03307,-0.04548 -0.09509,-0.04548 -0.198437,0 -0.21084,-0.02894 -0.21084,-0.06201 0,-0.02067 0.0041,-0.02481 0.01654,-0.07855 z m -0.595312,1.318782 c -0.02067,0.07028 -0.02067,0.07855 -0.07855,0.157097 -0.09508,0.119889 -0.281119,0.30179 -0.479557,0.30179 -0.169499,0 -0.268717,-0.157096 -0.268717,-0.405143 0,-0.231511 0.132291,-0.7028 0.21084,-0.880567 0.144694,-0.297656 0.343131,-0.446484 0.504362,-0.446484 0.281119,0 0.334863,0.343131 0.334863,0.376204 0,0.0041 -0.0124,0.06201 -0.01654,0.07028 z m 0,0"
       style="fill:#000000;fill-opacity:1;fill-rule:nonzero;stroke:none;stroke-width:0.352778"
       aria-label="q" />
    <path
       id="path229"
       d="m 34.638166,43.167218 h 0.264584 c 0.05374,0 0.08682,0 0.08682,-0.05374 0,-0.03721 -0.03307,-0.03721 -0.08268,-0.03721 h -0.248047 c 0.04134,-0.252181 0.07028,-0.413412 0.09922,-0.541569 0.0124,-0.04548 0.02067,-0.07855 0.06201,-0.111622 0.03721,-0.02894 0.05788,-0.03721 0.09095,-0.03721 0.04134,0 0.08682,0.0083 0.124023,0.03307 -0.01654,0.0041 -0.03307,0.0124 -0.04548,0.02067 -0.04961,0.0248 -0.08268,0.07855 -0.08268,0.132292 0,0.06615 0.04961,0.103352 0.111621,0.103352 0.08268,0 0.157096,-0.07028 0.157096,-0.165364 0,-0.132292 -0.132291,-0.202572 -0.268717,-0.202572 -0.09508,0 -0.272852,0.04548 -0.363802,0.305925 -0.02481,0.06201 -0.02481,0.07028 -0.09922,0.463021 h -0.21084 c -0.05788,0 -0.09095,0 -0.09095,0.05374 0,0.03721 0.03721,0.03721 0.08268,0.03721 h 0.202572 l -0.202572,1.091406 c -0.05374,0.285254 -0.09508,0.525033 -0.243913,0.525033 -0.0083,0 -0.07028,0 -0.124023,-0.03307 0.132291,-0.03307 0.132291,-0.152962 0.132291,-0.152962 0,-0.06615 -0.05374,-0.103353 -0.115755,-0.103353 -0.07441,0 -0.157096,0.06201 -0.157096,0.169498 0,0.11989 0.124023,0.198438 0.264583,0.198438 0.169499,0 0.289388,-0.181901 0.326595,-0.252181 0.09922,-0.186035 0.165365,-0.537435 0.169499,-0.56224 z m 0,0"
       style="fill:#000000;fill-opacity:1;fill-rule:nonzero;stroke:none;stroke-width:0.352778"
       aria-label="f" />
    <path
       id="path230"
       d="m 46.925789,60.275215 c 0,-0.45062 -0.376205,-0.81855 -0.818555,-0.81855 -0.454753,0 -0.822689,0.3762 -0.822689,0.81855 0,0.44648 0.367936,0.81855 0.822689,0.81855 0.44235,0 0.818555,-0.36793 0.818555,-0.81855 z m 0,0"
       style="fill:#000000;fill-opacity:1;fill-rule:nonzero;stroke:none;stroke-width:0.352778"
       aria-label="•" />
    <path
       id="path231"
       d="m 66.925603,40.274371 c 0,-0.450618 -0.3762,-0.818555 -0.81855,-0.818555 -0.45476,0 -0.82269,0.376205 -0.82269,0.818555 0,0.446484 0.36793,0.818555 0.82269,0.818555 0.44235,0 0.81855,-0.367937 0.81855,-0.818555 z m 0,0"
       style="fill:#000000;fill-opacity:1;fill-rule:nonzero;stroke:none;stroke-width:0.352778"
       aria-label="•" />
    <path
       id="path232"
       d="m 46.108027,60.391815 c 5.00006,-25.000309 12.500157,5.00006 20.000246,-20.000249"
       style="fill:none;stroke:#000000;stroke-width:0.140582;stroke-linecap:butt;stroke-linejoin:miter;stroke-miterlimit:10;stroke-dasharray:none;stroke-opacity:1" />
    <path
       id="path233"
       d="m 68.704303,37.516919 c 0,-0.0041 -0.008,-0.02894 -0.0331,-0.02894 -0.0248,0 -0.11576,0.07855 -0.15297,0.14056 -0.0289,-0.04547 -0.10335,-0.14056 -0.24391,-0.14056 -0.27285,0 -0.56224,0.285254 -0.56224,0.591178 0,0.231511 0.16123,0.359668 0.339,0.359668 0.10335,0 0.19844,-0.04961 0.28112,-0.115755 -0.004,0.0083 -0.0703,0.268718 -0.0785,0.310059 -0.0248,0.107487 -0.0248,0.107487 -0.16123,0.111621 -0.0331,0 -0.062,0 -0.062,0.04961 0,0.02067 0.0124,0.03307 0.0331,0.03307 0.0496,0 0.17777,-0.0083 0.22738,-0.0083 0.0372,0 0.0744,0 0.11575,0 0.0372,0 0.0827,0.0083 0.11989,0.0083 0.0124,0 0.0455,0 0.0455,-0.05374 0,-0.02894 -0.0248,-0.02894 -0.0579,-0.02894 -0.0537,0 -0.10749,0 -0.10749,-0.02894 0,-0.0041 0,-0.0083 0.0124,-0.04547 z m -0.33073,0.624251 c -0.008,0.03721 -0.008,0.04134 -0.0455,0.08268 -0.0827,0.09508 -0.18603,0.144694 -0.26871,0.144694 -0.10336,0 -0.1695,-0.07855 -0.1695,-0.206705 0,-0.09095 0.0496,-0.305925 0.11162,-0.413412 0.0786,-0.132291 0.19017,-0.190169 0.27285,-0.190169 0.16123,0 0.19844,0.165365 0.19844,0.181901 l -0.004,0.02894 z m 0,0"
       style="fill:#000000;fill-opacity:1;fill-rule:nonzero;stroke:none;stroke-width:0.352778"
       aria-label="q" />
    <path
       id="path234"
       d="m 69.672723,38.893579 c -0.23151,-0.177767 -0.42168,-0.508496 -0.42168,-1.000456 0,-0.487825 0.18604,-0.826823 0.42168,-1.00459 0,-0.0041 0.008,-0.0124 0.008,-0.02067 0,-0.0124 -0.0124,-0.02894 -0.0372,-0.02894 -0.0372,0 -0.5457,0.330729 -0.5457,1.054199 0,0.719336 0.5085,1.050065 0.5457,1.050065 0.0248,0 0.0372,-0.01654 0.0372,-0.02894 0,-0.0083 -0.008,-0.01654 -0.008,-0.02067 z m 0,0"
       style="fill:#000000;fill-opacity:1;fill-rule:nonzero;stroke:none;stroke-width:0.352778"
       aria-label="(" />
    <path
       id="path235"
       d="m 70.415823,37.595467 h 0.23152 c 0.0413,0 0.0703,0 0.0703,-0.05374 0,-0.03307 -0.0289,-0.03307 -0.0661,-0.03307 h -0.21497 l 0.0744,-0.289388 c 0.008,-0.03307 0.008,-0.04548 0.008,-0.04548 0,-0.05374 -0.0413,-0.07441 -0.0744,-0.07441 -0.0248,0 -0.0785,0.01654 -0.0992,0.08268 l -0.0827,0.326595 h -0.22737 c -0.0413,0 -0.0455,0.0041 -0.0537,0.0083 -0.008,0.0083 -0.0165,0.03721 -0.0165,0.04547 0.004,0.03307 0.0248,0.03307 0.0661,0.03307 h 0.21084 l -0.12402,0.496094 c -0.0124,0.04961 -0.0289,0.119889 -0.0289,0.144694 0,0.124023 0.11162,0.202571 0.23978,0.202571 0.23978,0 0.38447,-0.289388 0.38447,-0.322461 0,-0.0083 -0.004,-0.03307 -0.0413,-0.03307 -0.0248,0 -0.0289,0.0124 -0.0413,0.03721 -0.0703,0.157097 -0.19017,0.248047 -0.29352,0.248047 -0.0785,0 -0.0827,-0.07855 -0.0827,-0.103353 0,-0.02894 0,-0.03307 0.0124,-0.07441 z m 0,0"
       style="fill:#000000;fill-opacity:1;fill-rule:nonzero;stroke:none;stroke-width:0.352778"
       aria-label="t" />
    <path
       id="path236"
       d="m 71.602323,37.893123 c 0,-0.72347 -0.5085,-1.054199 -0.54984,-1.054199 -0.0248,0 -0.0289,0.01654 -0.0289,0.02894 0,0.0124 0,0.0124 0.0372,0.04547 0.19017,0.165365 0.38861,0.475423 0.38861,0.979785 0,0.446484 -0.1571,0.781348 -0.39688,0.979785 -0.0289,0.02894 -0.0289,0.02894 -0.0289,0.04134 0,0.0124 0.004,0.02894 0.0289,0.02894 0.0413,0 0.54984,-0.330729 0.54984,-1.050065 z m 0,0"
       style="fill:#000000;fill-opacity:1;fill-rule:nonzero;stroke:none;stroke-width:0.352778"
       aria-label=")" />
    <path
       id="path237"
       d="M 82.451046,71.071818 H 131.74871"
       style="fill:none;stroke:#000000;stroke-width:0.140582;stroke-linecap:butt;stroke-linejoin:miter;stroke-miterlimit:10;stroke-dasharray:none;stroke-opacity:1" />
    <path
       id="path238"
       d="m 132.45163,71.071818 -1.12467,-0.562331 0.42175,0.562331 -0.42175,0.562331"
       style="fill:#000000;fill-opacity:1;fill-rule:nonzero;stroke:none;stroke-width:0.352778" />
    <path
       id="path239"
       d="m 134.74503,70.673516 h 0.3886 c 0.0786,0 0.11989,0 0.11989,-0.07441 0,-0.04961 -0.0248,-0.04961 -0.10748,-0.04961 h -0.37207 l 0.15709,-0.615983 c 0.0165,-0.05788 0.0165,-0.06615 0.0165,-0.09508 0,-0.06615 -0.0538,-0.107487 -0.11162,-0.107487 -0.0331,0 -0.12816,0.01654 -0.16123,0.148828 l -0.16537,0.669727 h -0.39687 c -0.0827,0 -0.12403,0 -0.12403,0.08268 0,0.04134 0.0331,0.04134 0.11162,0.04134 h 0.37621 l -0.28112,1.112077 c -0.0331,0.148828 -0.0455,0.190169 -0.0455,0.243913 0,0.198437 0.14056,0.380338 0.37621,0.380338 0.42581,0 0.65319,-0.615983 0.65319,-0.644922 0,-0.0248 -0.0165,-0.03721 -0.0413,-0.03721 -0.008,0 -0.0248,0 -0.0331,0.01654 -0.004,0.0041 -0.008,0.0083 -0.0372,0.07441 -0.0909,0.21084 -0.28526,0.508496 -0.52917,0.508496 -0.12816,0 -0.13642,-0.107487 -0.13642,-0.198437 0,-0.0041 0,-0.08682 0.0124,-0.136426 z m 0,0"
       style="fill:#000000;fill-opacity:1;fill-rule:nonzero;stroke:none;stroke-width:0.352778"
       aria-label="t" />
    <path
       id="path240"
       d="M 92.451166,81.071939 V 31.774242"
       style="fill:none;stroke:#000000;stroke-width:0.140582;stroke-linecap:butt;stroke-linejoin:miter;stroke-miterlimit:10;stroke-dasharray:none;stroke-opacity:1" />
    <path
       id="path241"
       d="m 92.451166,31.071323 -0.56233,1.124666 0.56233,-0.421749 0.56233,0.421749"
       style="fill:#000000;fill-opacity:1;fill-rule:nonzero;stroke:none;stroke-width:0.352778" />
    <path
       id="path242"
       d="m 90.882106,29.750951 c 0,-0.02067 -0.0165,-0.03721 -0.0372,-0.03721 -0.0372,0 -0.19844,0.152963 -0.28112,0.301791 -0.0744,-0.19017 -0.20671,-0.305925 -0.38861,-0.305925 -0.47542,0 -0.98805,0.615983 -0.98805,1.240235 0,0.417545 0.24391,0.661458 0.52916,0.661458 0.22325,0 0.40928,-0.169499 0.50023,-0.264583 l 0.004,0.0041 -0.16124,0.632519 -0.0372,0.152962 c -0.0372,0.124024 -0.10336,0.124024 -0.30179,0.128158 -0.0455,0 -0.0868,0 -0.0868,0.08268 0,0.02894 0.0248,0.04134 0.0537,0.04134 0.0579,0 0.13643,-0.0083 0.19431,-0.0083 h 0.42995 c 0.062,0 0.13642,0.0083 0.19843,0.0083 0.0248,0 0.0744,0 0.0744,-0.07855 0,-0.04547 -0.0331,-0.04547 -0.0951,-0.04547 -0.19843,0 -0.21084,-0.02894 -0.21084,-0.06201 0,-0.02067 0.004,-0.0248 0.0165,-0.07855 z m -0.59531,1.318783 c -0.0207,0.07028 -0.0207,0.07855 -0.0785,0.157096 -0.0951,0.11989 -0.28112,0.301791 -0.47955,0.301791 -0.1695,0 -0.26872,-0.157097 -0.26872,-0.405144 0,-0.23151 0.13229,-0.702799 0.21084,-0.880566 0.14469,-0.297656 0.34313,-0.446484 0.50436,-0.446484 0.28112,0 0.33486,0.343131 0.33486,0.376204 0,0.0041 -0.0124,0.06201 -0.0165,0.07028 z m 0,0"
       style="fill:#000000;fill-opacity:1;fill-rule:nonzero;stroke:none;stroke-width:0.352778"
       aria-label="q" />
    <path
       id="path243"
       d="m 102.45125,61.071697 c 5.00006,-25.000308 12.50016,5.000061 20.00025,-20.000248"
       style="fill:none;stroke:#ff0000;stroke-width:0.140582;stroke-linecap:butt;stroke-linejoin:miter;stroke-miterlimit:10;stroke-dasharray:none;stroke-opacity:1" />
    <path
       id="path244"
       d="m 113.9432,53.197581 c 0,-0.0041 -0.008,-0.02894 -0.0331,-0.02894 -0.0248,0 -0.11576,0.07855 -0.15296,0.14056 -0.0289,-0.04548 -0.10336,-0.14056 -0.24392,-0.14056 -0.27285,0 -0.56224,0.285254 -0.56224,0.591178 0,0.231511 0.16123,0.359668 0.339,0.359668 0.10335,0 0.19844,-0.04961 0.28112,-0.115755 -0.004,0.0083 -0.0703,0.268717 -0.0785,0.310059 -0.0248,0.107487 -0.0248,0.107487 -0.16123,0.111621 -0.0331,0 -0.062,0 -0.062,0.04961 0,0.02067 0.0124,0.03307 0.0331,0.03307 0.0496,0 0.17777,-0.0083 0.22738,-0.0083 0.0372,0 0.0744,0 0.11575,0 0.0372,0 0.0827,0.0083 0.11989,0.0083 0.0124,0 0.0455,0 0.0455,-0.05374 0,-0.02894 -0.0248,-0.02894 -0.0579,-0.02894 -0.0537,0 -0.10749,0 -0.10749,-0.02894 0,-0.0041 0,-0.0083 0.0124,-0.04548 z m -0.33073,0.624251 c -0.008,0.03721 -0.008,0.04134 -0.0455,0.08268 -0.0827,0.09508 -0.18604,0.144694 -0.26872,0.144694 -0.10335,0 -0.1695,-0.07855 -0.1695,-0.206705 0,-0.09095 0.0496,-0.305925 0.11162,-0.413412 0.0786,-0.132292 0.19017,-0.190169 0.27285,-0.190169 0.16123,0 0.19844,0.165364 0.19844,0.181901 l -0.004,0.02894 z m 0,0"
       style="fill:#ff0000;fill-opacity:1;fill-rule:nonzero;stroke:none;stroke-width:0.352778"
       aria-label="q" />
    <path
       id="path245"
       d="m 114.91161,54.574241 c -0.23151,-0.177767 -0.42168,-0.508496 -0.42168,-1.000456 0,-0.487825 0.18604,-0.826823 0.42168,-1.00459 0,-0.0041 0.008,-0.0124 0.008,-0.02067 0,-0.0124 -0.0124,-0.02894 -0.0372,-0.02894 -0.0372,0 -0.54571,0.330729 -0.54571,1.054199 0,0.719336 0.5085,1.050065 0.54571,1.050065 0.0248,0 0.0372,-0.01654 0.0372,-0.02894 0,-0.0083 -0.008,-0.01654 -0.008,-0.02067 z m 0,0"
       style="fill:#ff0000;fill-opacity:1;fill-rule:nonzero;stroke:none;stroke-width:0.352778"
       aria-label="(" />
    <path
       id="path246"
       d="m 115.65472,53.276129 h 0.23151 c 0.0413,0 0.0703,0 0.0703,-0.05374 0,-0.03307 -0.0289,-0.03307 -0.0662,-0.03307 h -0.21497 l 0.0744,-0.289388 c 0.008,-0.03307 0.008,-0.04548 0.008,-0.04548 0,-0.05374 -0.0413,-0.07441 -0.0744,-0.07441 -0.0248,0 -0.0786,0.01654 -0.0992,0.08268 l -0.0827,0.326595 h -0.22737 c -0.0413,0 -0.0455,0.0041 -0.0537,0.0083 -0.008,0.0083 -0.0165,0.03721 -0.0165,0.04547 0.004,0.03307 0.0248,0.03307 0.0661,0.03307 h 0.21084 l -0.12402,0.496093 c -0.0124,0.04961 -0.0289,0.11989 -0.0289,0.144694 0,0.124024 0.11162,0.202572 0.23978,0.202572 0.23978,0 0.38447,-0.289388 0.38447,-0.322461 0,-0.0083 -0.004,-0.03307 -0.0413,-0.03307 -0.0248,0 -0.0289,0.0124 -0.0413,0.03721 -0.0703,0.157097 -0.19017,0.248047 -0.29352,0.248047 -0.0786,0 -0.0827,-0.07855 -0.0827,-0.103353 0,-0.02894 0,-0.03307 0.0124,-0.07441 z m 0,0"
       style="fill:#ff0000;fill-opacity:1;fill-rule:nonzero;stroke:none;stroke-width:0.352778"
       aria-label="t" />
    <path
       id="path247"
       d="m 116.84225,53.573785 c 0,-0.72347 -0.5085,-1.054199 -0.54984,-1.054199 -0.0248,0 -0.0289,0.01654 -0.0289,0.02894 0,0.0124 0,0.0124 0.0372,0.04548 0.19017,0.165365 0.3886,0.475423 0.3886,0.979785 0,0.446484 -0.15709,0.781348 -0.39687,0.979785 -0.0289,0.02894 -0.0289,0.02894 -0.0289,0.04134 0,0.0124 0.004,0.02894 0.0289,0.02894 0.0413,0 0.54984,-0.330729 0.54984,-1.050065 z m 0,0"
       style="fill:#ff0000;fill-opacity:1;fill-rule:nonzero;stroke:none;stroke-width:0.352778"
       aria-label=")" />
    <path
       id="path248"
       d="m 102.45125,61.071697 c 10.00013,-25.000308 17.50023,0 20.00025,-20.000248"
       style="fill:none;stroke:#0000ff;stroke-width:0.140582;stroke-linecap:butt;stroke-linejoin:miter;stroke-miterlimit:10;stroke-dasharray:none;stroke-opacity:1" />
    <path
       id="path243-3"
       d="m 102.521,61.097802 c 10.00013,-25.000308 17.50023,0 20.00025,-20.000248 -7.50009,25.000309 -15.00019,-5.00006 -20.00025,20.000248 z"
       style="fill:url(#pattern2);stroke:none;stroke-width:0.140582;stroke-linecap:butt;stroke-linejoin:miter;stroke-miterlimit:10;stroke-dasharray:none;stroke-opacity:1"
       sodipodi:nodetypes="ccc" />
    <path
       id="path249"
       d="m 107.06714,45.697265 c 0,-0.0041 -0.008,-0.02894 -0.0331,-0.02894 -0.0248,0 -0.11575,0.07855 -0.15296,0.14056 -0.0289,-0.04548 -0.10335,-0.14056 -0.24391,-0.14056 -0.27285,0 -0.56224,0.285254 -0.56224,0.591179 0,0.23151 0.16123,0.359667 0.339,0.359667 0.10335,0 0.19843,-0.04961 0.28112,-0.115755 -0.004,0.0083 -0.0703,0.268718 -0.0785,0.310059 -0.0248,0.107487 -0.0248,0.107487 -0.16123,0.111621 -0.0331,0 -0.062,0 -0.062,0.04961 0,0.02067 0.0124,0.03307 0.0331,0.03307 0.0496,0 0.17777,-0.0083 0.22737,-0.0083 0.0372,0 0.0744,0 0.11576,0 0.0372,0 0.0827,0.0083 0.11989,0.0083 0.0124,0 0.0455,0 0.0455,-0.05374 0,-0.02894 -0.0248,-0.02894 -0.0579,-0.02894 -0.0538,0 -0.10749,0 -0.10749,-0.02894 0,-0.0041 0,-0.0083 0.0124,-0.04548 z m -0.33073,0.624251 c -0.008,0.03721 -0.008,0.04134 -0.0455,0.08268 -0.0827,0.09508 -0.18603,0.144694 -0.26872,0.144694 -0.10335,0 -0.16949,-0.07855 -0.16949,-0.206705 0,-0.09095 0.0496,-0.305925 0.11162,-0.413412 0.0785,-0.132291 0.19017,-0.190169 0.27285,-0.190169 0.16123,0 0.19844,0.165365 0.19844,0.181901 l -0.004,0.02894 z m 0,0"
       style="fill:#0000ff;fill-opacity:1;fill-rule:nonzero;stroke:none;stroke-width:0.352778"
       aria-label="q" />
    <path
       id="path250"
       d="m 108.03658,47.073925 c -0.23151,-0.177767 -0.42168,-0.508496 -0.42168,-1.000456 0,-0.487825 0.18604,-0.826823 0.42168,-1.004589 0,-0.0041 0.008,-0.0124 0.008,-0.02067 0,-0.0124 -0.0124,-0.02894 -0.0372,-0.02894 -0.0372,0 -0.5457,0.330729 -0.5457,1.054199 0,0.719336 0.5085,1.050065 0.5457,1.050065 0.0248,0 0.0372,-0.01654 0.0372,-0.02894 0,-0.0083 -0.008,-0.01654 -0.008,-0.02067 z m 0,0"
       style="fill:#0000ff;fill-opacity:1;fill-rule:nonzero;stroke:none;stroke-width:0.352778"
       aria-label="(" />
    <path
       id="path251"
       d="m 108.77865,45.775813 h 0.23151 c 0.0413,0 0.0703,0 0.0703,-0.05374 0,-0.03307 -0.0289,-0.03307 -0.0661,-0.03307 h -0.21498 l 0.0744,-0.289388 c 0.008,-0.03307 0.008,-0.04548 0.008,-0.04548 0,-0.05374 -0.0414,-0.07441 -0.0744,-0.07441 -0.0248,0 -0.0786,0.01654 -0.0992,0.08268 l -0.0827,0.326595 h -0.22738 c -0.0413,0 -0.0455,0.0041 -0.0537,0.0083 -0.008,0.0083 -0.0165,0.03721 -0.0165,0.04548 0.004,0.03307 0.0248,0.03307 0.0662,0.03307 h 0.21084 l -0.12402,0.496094 c -0.0124,0.04961 -0.0289,0.119889 -0.0289,0.144694 0,0.124023 0.11162,0.202571 0.23978,0.202571 0.23978,0 0.38447,-0.289388 0.38447,-0.322461 0,-0.0083 -0.004,-0.03307 -0.0413,-0.03307 -0.0248,0 -0.0289,0.0124 -0.0413,0.03721 -0.0703,0.157096 -0.19017,0.248046 -0.29353,0.248046 -0.0785,0 -0.0827,-0.07855 -0.0827,-0.103352 0,-0.02894 0,-0.03307 0.0124,-0.07441 z m 0,0"
       style="fill:#0000ff;fill-opacity:1;fill-rule:nonzero;stroke:none;stroke-width:0.352778"
       aria-label="t" />
    <path
       id="path252"
       d="m 109.96618,46.073469 c 0,-0.72347 -0.5085,-1.054199 -0.54984,-1.054199 -0.0248,0 -0.0289,0.01654 -0.0289,0.02894 0,0.0124 0,0.0124 0.0372,0.04547 0.19017,0.165365 0.38861,0.475423 0.38861,0.979785 0,0.446485 -0.1571,0.781348 -0.39688,0.979785 -0.0289,0.02894 -0.0289,0.02894 -0.0289,0.04134 0,0.0124 0.004,0.02894 0.0289,0.02894 0.0413,0 0.54984,-0.330729 0.54984,-1.050065 z m 1.90169,0.05374 H 112.55 c 0.0289,0 0.0827,0 0.0827,-0.05374 0,-0.05788 -0.0537,-0.05788 -0.0827,-0.05788 h -0.68213 V 45.33346 c 0,-0.02894 0,-0.08268 -0.0537,-0.08268 -0.0537,0 -0.0537,0.05374 -0.0537,0.08268 v 0.682129 h -0.68213 c -0.0289,0 -0.0827,0 -0.0827,0.05788 0,0.05374 0.0537,0.05374 0.0827,0.05374 h 0.68213 v 0.682129 c 0,0.02894 0,0.08268 0.0537,0.08268 0.0537,0 0.0537,-0.05374 0.0537,-0.08268 z m 0,0"
       style="fill:#0000ff;fill-opacity:1;fill-rule:nonzero;stroke:none;stroke-width:0.352778"
       aria-label=")+" />
    <path
       id="path253"
       d="m 114.06825,45.680728 c -0.33899,0.08682 -0.50849,0.363803 -0.50849,0.566374 0,0.206706 0.15709,0.376205 0.40927,0.376205 0.23978,0 0.45889,-0.272852 0.45889,-0.591179 0,-0.219108 -0.12402,-0.343131 -0.19017,-0.413411 -0.0331,-0.02894 -0.24391,-0.248047 -0.24391,-0.3514 0,-0.03721 0.0331,-0.09095 0.11162,-0.09095 0.0786,0 0.14883,0.03721 0.20257,0.07028 0.0289,0.01654 0.0868,0.04548 0.12403,0.04548 0.0496,0 0.0909,-0.04548 0.0909,-0.09095 0,-0.05374 -0.0289,-0.05788 -0.14056,-0.08268 -0.12816,-0.02481 -0.17364,-0.02894 -0.21498,-0.02894 -0.24805,0 -0.25631,0.194304 -0.25631,0.219108 0,0.124024 0.0909,0.276986 0.15709,0.37207 z m 0.0413,0.06615 c 0.11989,0.177767 0.1447,0.276986 0.1447,0.372071 0,0.173632 -0.10335,0.434082 -0.28939,0.434082 -0.10335,0 -0.23978,-0.05374 -0.23978,-0.252181 0,-0.177767 0.10749,-0.496094 0.38447,-0.553972 z m 1.70843,-0.04961 c 0,-0.0041 -0.008,-0.02894 -0.0331,-0.02894 -0.0248,0 -0.11575,0.07855 -0.15296,0.14056 -0.0289,-0.04548 -0.10335,-0.14056 -0.24391,-0.14056 -0.27285,0 -0.56224,0.285254 -0.56224,0.591179 0,0.23151 0.16123,0.359667 0.339,0.359667 0.10335,0 0.19843,-0.04961 0.28112,-0.115755 -0.004,0.0083 -0.0703,0.268718 -0.0785,0.310059 -0.0248,0.107487 -0.0248,0.107487 -0.16123,0.111621 -0.0331,0 -0.062,0 -0.062,0.04961 0,0.02067 0.0124,0.03307 0.0331,0.03307 0.0496,0 0.17777,-0.0083 0.22738,-0.0083 0.0372,0 0.0744,0 0.11575,0 0.0372,0 0.0827,0.0083 0.11989,0.0083 0.0124,0 0.0455,0 0.0455,-0.05374 0,-0.02894 -0.0248,-0.02894 -0.0579,-0.02894 -0.0538,0 -0.10749,0 -0.10749,-0.02894 0,-0.0041 0,-0.0083 0.0124,-0.04548 z m -0.33073,0.624251 c -0.008,0.03721 -0.008,0.04134 -0.0455,0.08268 -0.0827,0.09508 -0.18603,0.144694 -0.26871,0.144694 -0.10336,0 -0.1695,-0.07855 -0.1695,-0.206705 0,-0.09095 0.0496,-0.305925 0.11162,-0.413412 0.0786,-0.132291 0.19017,-0.190169 0.27285,-0.190169 0.16123,0 0.19844,0.165365 0.19844,0.181901 l -0.004,0.02894 z m 0,0"
       style="fill:#0000ff;fill-opacity:1;fill-rule:nonzero;stroke:none;stroke-width:0.352778"
       aria-label="δq" />
    <path
       id="path254"
       d="m 116.78747,47.073925 c -0.23151,-0.177767 -0.42168,-0.508496 -0.42168,-1.000456 0,-0.487825 0.18604,-0.826823 0.42168,-1.004589 0,-0.0041 0.008,-0.0124 0.008,-0.02067 0,-0.0124 -0.0124,-0.02894 -0.0372,-0.02894 -0.0372,0 -0.5457,0.330729 -0.5457,1.054199 0,0.719336 0.50849,1.050065 0.5457,1.050065 0.0248,0 0.0372,-0.01654 0.0372,-0.02894 0,-0.0083 -0.008,-0.01654 -0.008,-0.02067 z m 0,0"
       style="fill:#0000ff;fill-opacity:1;fill-rule:nonzero;stroke:none;stroke-width:0.352778"
       aria-label="(" />
    <path
       id="path255"
       d="m 117.53057,45.775813 h 0.23151 c 0.0413,0 0.0703,0 0.0703,-0.05374 0,-0.03307 -0.0289,-0.03307 -0.0661,-0.03307 h -0.21498 l 0.0744,-0.289388 c 0.008,-0.03307 0.008,-0.04548 0.008,-0.04548 0,-0.05374 -0.0413,-0.07441 -0.0744,-0.07441 -0.0248,0 -0.0786,0.01654 -0.0992,0.08268 L 117.3774,45.689 h -0.22738 c -0.0413,0 -0.0455,0.0041 -0.0537,0.0083 -0.008,0.0083 -0.0165,0.03721 -0.0165,0.04548 0.004,0.03307 0.0248,0.03307 0.0661,0.03307 h 0.21084 l -0.12402,0.496094 c -0.0124,0.04961 -0.0289,0.119889 -0.0289,0.144694 0,0.124023 0.11162,0.202571 0.23978,0.202571 0.23977,0 0.38447,-0.289388 0.38447,-0.322461 0,-0.0083 -0.004,-0.03307 -0.0413,-0.03307 -0.0248,0 -0.0289,0.0124 -0.0413,0.03721 -0.0703,0.157096 -0.19017,0.248046 -0.29353,0.248046 -0.0785,0 -0.0827,-0.07855 -0.0827,-0.103352 0,-0.02894 0,-0.03307 0.0124,-0.07441 z m 0,0"
       style="fill:#0000ff;fill-opacity:1;fill-rule:nonzero;stroke:none;stroke-width:0.352778"
       aria-label="t" />
    <path
       id="path256"
       d="m 118.7181,46.073469 c 0,-0.72347 -0.5085,-1.054199 -0.54984,-1.054199 -0.0248,0 -0.0289,0.01654 -0.0289,0.02894 0,0.0124 0,0.0124 0.0372,0.04547 0.19017,0.165365 0.38861,0.475423 0.38861,0.979785 0,0.446485 -0.1571,0.781348 -0.39688,0.979785 -0.0289,0.02894 -0.0289,0.02894 -0.0289,0.04134 0,0.0124 0.004,0.02894 0.0289,0.02894 0.0413,0 0.54984,-0.330729 0.54984,-1.050065 z m 0,0"
       style="fill:#0000ff;fill-opacity:1;fill-rule:nonzero;stroke:none;stroke-width:0.352778"
       aria-label=")" />
    <path
       id="path257"
       d="M 102.45125,36.071389 V 73.571845"
       style="fill:none;stroke:#000000;stroke-width:0.140582;stroke-linecap:butt;stroke-linejoin:miter;stroke-miterlimit:10;stroke-dasharray:1.05439, 1.05439;stroke-dashoffset:0;stroke-opacity:1" />
    <path
       id="path258"
       d="m 101.95634,75.917642 h 0.3886 c 0.0785,0 0.11989,0 0.11989,-0.07441 0,-0.04961 -0.0248,-0.04961 -0.10748,-0.04961 h -0.37207 l 0.15709,-0.615983 c 0.0165,-0.05788 0.0165,-0.06615 0.0165,-0.09508 0,-0.06615 -0.0537,-0.107487 -0.11162,-0.107487 -0.0331,0 -0.12816,0.01654 -0.16123,0.148828 l -0.16537,0.669726 h -0.39687 c -0.0827,0 -0.12402,0 -0.12402,0.08268 0,0.04134 0.0331,0.04134 0.11162,0.04134 h 0.3762 l -0.28112,1.112077 c -0.0331,0.148828 -0.0455,0.190169 -0.0455,0.243912 0,0.198438 0.14056,0.380339 0.3762,0.380339 0.42581,0 0.65319,-0.615983 0.65319,-0.644922 0,-0.02481 -0.0165,-0.03721 -0.0413,-0.03721 -0.008,0 -0.0248,0 -0.0331,0.01654 -0.004,0.0041 -0.008,0.0083 -0.0372,0.07441 -0.0909,0.21084 -0.28525,0.508497 -0.52917,0.508497 -0.12816,0 -0.13642,-0.107487 -0.13642,-0.198438 0,-0.0041 0,-0.08682 0.0124,-0.136426 z m 0,0"
       style="fill:#000000;fill-opacity:1;fill-rule:nonzero;stroke:none;stroke-width:0.352778"
       aria-label="t" />
    <path
       id="path259"
       d="m 103.43945,76.492284 c 0,-0.06201 -0.0455,-0.107487 -0.11162,-0.107487 -0.0744,0 -0.15296,0.06615 -0.15296,0.152962 0,0.06201 0.0455,0.103353 0.10748,0.103353 0.0744,0 0.1571,-0.06615 0.1571,-0.148828 z m -0.41341,1.029395 -0.14883,0.388606 c -0.0165,0.04134 -0.0289,0.07441 -0.0289,0.124024 0,0.136426 0.10749,0.239778 0.25632,0.239778 0.27285,0 0.3886,-0.39274 0.3886,-0.429947 0,-0.02894 -0.0248,-0.03721 -0.0455,-0.03721 -0.0331,0 -0.0372,0.02067 -0.0455,0.04548 -0.0661,0.227376 -0.1819,0.343131 -0.29352,0.343131 -0.0331,0 -0.0662,-0.01654 -0.0662,-0.09095 0,-0.06615 0.0207,-0.11989 0.0538,-0.206706 0.0289,-0.07441 0.0579,-0.148828 0.0868,-0.227376 l 0.091,-0.227377 c 0.0248,-0.06201 0.0579,-0.152962 0.0579,-0.198437 0,-0.14056 -0.11162,-0.239779 -0.25631,-0.239779 -0.27285,0 -0.39274,0.392741 -0.39274,0.429948 0,0.02481 0.0207,0.03721 0.0455,0.03721 0.0331,0 0.0372,-0.01654 0.0455,-0.04547 0.0786,-0.264583 0.2067,-0.343132 0.29352,-0.343132 0.0372,0 0.0662,0.01654 0.0662,0.09508 0,0.02481 0,0.06615 -0.0289,0.148828 z m 0,0"
       style="fill:#000000;fill-opacity:1;fill-rule:nonzero;stroke:none;stroke-width:0.352778"
       aria-label="i" />
    <path
       id="path260"
       d="M 122.4515,36.071389 V 73.571845"
       style="fill:none;stroke:#000000;stroke-width:0.140582;stroke-linecap:butt;stroke-linejoin:miter;stroke-miterlimit:10;stroke-dasharray:1.05439, 1.05439;stroke-dashoffset:0;stroke-opacity:1" />
    <path
       id="path261"
       d="m 121.59234,75.917642 h 0.38861 c 0.0785,0 0.11989,0 0.11989,-0.07441 0,-0.04961 -0.0248,-0.04961 -0.10749,-0.04961 h -0.37207 l 0.1571,-0.615983 c 0.0165,-0.05788 0.0165,-0.06615 0.0165,-0.09508 0,-0.06615 -0.0538,-0.107487 -0.11162,-0.107487 -0.0331,0 -0.12816,0.01654 -0.16124,0.148828 l -0.16536,0.669726 h -0.39687 c -0.0827,0 -0.12403,0 -0.12403,0.08268 0,0.04134 0.0331,0.04134 0.11162,0.04134 h 0.37621 l -0.28112,1.112077 c -0.0331,0.148828 -0.0455,0.190169 -0.0455,0.243912 0,0.198438 0.14056,0.380339 0.37621,0.380339 0.42581,0 0.65319,-0.615983 0.65319,-0.644922 0,-0.02481 -0.0165,-0.03721 -0.0413,-0.03721 -0.008,0 -0.0248,0 -0.0331,0.01654 -0.004,0.0041 -0.008,0.0083 -0.0372,0.07441 -0.0909,0.21084 -0.28526,0.508497 -0.52917,0.508497 -0.12816,0 -0.13643,-0.107487 -0.13643,-0.198438 0,-0.0041 0,-0.08682 0.0124,-0.136426 z m 0,0"
       style="fill:#000000;fill-opacity:1;fill-rule:nonzero;stroke:none;stroke-width:0.352778"
       aria-label="t" />
    <path
       id="path262"
       d="m 123.3111,77.124804 h 0.26458 c 0.0537,0 0.0868,0 0.0868,-0.05374 0,-0.03721 -0.0331,-0.03721 -0.0827,-0.03721 h -0.24805 c 0.0413,-0.252181 0.0703,-0.413411 0.0992,-0.541569 0.0124,-0.04547 0.0207,-0.07855 0.062,-0.111621 0.0372,-0.02894 0.0579,-0.03721 0.0909,-0.03721 0.0413,0 0.0868,0.0083 0.12403,0.03307 -0.0165,0.0041 -0.0331,0.0124 -0.0455,0.02067 -0.0496,0.0248 -0.0827,0.07855 -0.0827,0.132291 0,0.06615 0.0496,0.103353 0.11162,0.103353 0.0827,0 0.1571,-0.07028 0.1571,-0.165364 0,-0.132292 -0.1323,-0.202572 -0.26872,-0.202572 -0.0951,0 -0.27285,0.04547 -0.3638,0.305924 -0.0248,0.06201 -0.0248,0.07028 -0.0992,0.463021 h -0.21084 c -0.0579,0 -0.0909,0 -0.0909,0.05374 0,0.03721 0.0372,0.03721 0.0827,0.03721 h 0.20257 l -0.20257,1.091406 c -0.0537,0.285254 -0.0951,0.525032 -0.24391,0.525032 -0.008,0 -0.0703,0 -0.12403,-0.03307 0.1323,-0.03307 0.1323,-0.152962 0.1323,-0.152962 0,-0.06615 -0.0538,-0.103353 -0.11576,-0.103353 -0.0744,0 -0.1571,0.06201 -0.1571,0.169499 0,0.119889 0.12403,0.198438 0.26459,0.198438 0.1695,0 0.28939,-0.181902 0.32659,-0.252181 0.0992,-0.186036 0.16537,-0.537435 0.1695,-0.56224 z m 0,0"
       style="fill:#000000;fill-opacity:1;fill-rule:nonzero;stroke:none;stroke-width:0.352778"
       aria-label="f" />
    <path
       id="path263"
       d="M 127.45156,61.071697 H 89.951136"
       style="fill:none;stroke:#000000;stroke-width:0.140582;stroke-linecap:butt;stroke-linejoin:miter;stroke-miterlimit:10;stroke-dasharray:1.05439, 1.05439;stroke-dashoffset:0;stroke-opacity:1" />
    <path
       id="path264"
       d="m 90.300236,62.515877 c 0,-0.02067 -0.0165,-0.03721 -0.0372,-0.03721 -0.0372,0 -0.19844,0.152962 -0.28112,0.30179 -0.0744,-0.190169 -0.20671,-0.305925 -0.38861,-0.305925 -0.47542,0 -0.98805,0.615984 -0.98805,1.240235 0,0.417545 0.24391,0.661458 0.52917,0.661458 0.22324,0 0.40927,-0.169499 0.50022,-0.264583 l 0.004,0.0041 -0.16123,0.632519 -0.0372,0.152963 c -0.0372,0.124023 -0.10335,0.124023 -0.30179,0.128157 -0.0455,0 -0.0868,0 -0.0868,0.08268 0,0.02894 0.0248,0.04134 0.0537,0.04134 0.0579,0 0.13642,-0.0083 0.1943,-0.0083 h 0.42995 c 0.062,0 0.13642,0.0083 0.19844,0.0083 0.0248,0 0.0744,0 0.0744,-0.07855 0,-0.04547 -0.0331,-0.04547 -0.0951,-0.04547 -0.19843,0 -0.21083,-0.02894 -0.21083,-0.06201 0,-0.02067 0.004,-0.0248 0.0165,-0.07855 z m -0.59532,1.318782 c -0.0207,0.07028 -0.0207,0.07855 -0.0785,0.157096 -0.0951,0.11989 -0.28112,0.301791 -0.47956,0.301791 -0.1695,0 -0.26872,-0.157097 -0.26872,-0.405143 0,-0.231511 0.13229,-0.7028 0.21084,-0.880567 0.14469,-0.297656 0.34313,-0.446484 0.50436,-0.446484 0.28112,0 0.33487,0.343131 0.33487,0.376204 0,0.0041 -0.0124,0.06201 -0.0165,0.07028 z m 0,0"
       style="fill:#000000;fill-opacity:1;fill-rule:nonzero;stroke:none;stroke-width:0.352778"
       aria-label="q" />
    <path
       id="path265"
       d="m 91.109486,63.21454 c 0,-0.06201 -0.0455,-0.107487 -0.11162,-0.107487 -0.0744,0 -0.15296,0.06615 -0.15296,0.152963 0,0.06201 0.0455,0.103353 0.10749,0.103353 0.0744,0 0.15709,-0.06615 0.15709,-0.148829 z m -0.41341,1.029395 -0.14883,0.388607 c -0.0165,0.04134 -0.0289,0.07441 -0.0289,0.124023 0,0.136426 0.10749,0.239779 0.25632,0.239779 0.27285,0 0.38861,-0.392741 0.38861,-0.429948 0,-0.02894 -0.0248,-0.03721 -0.0455,-0.03721 -0.0331,0 -0.0372,0.02067 -0.0455,0.04548 -0.0661,0.227376 -0.18191,0.343132 -0.29353,0.343132 -0.0331,0 -0.0661,-0.01654 -0.0661,-0.09095 0,-0.06615 0.0207,-0.119889 0.0537,-0.206706 0.0289,-0.07441 0.0579,-0.148828 0.0868,-0.227376 l 0.0909,-0.227376 c 0.0248,-0.06201 0.0579,-0.152963 0.0579,-0.198438 0,-0.14056 -0.11163,-0.239778 -0.25632,-0.239778 -0.27285,0 -0.39274,0.39274 -0.39274,0.429947 0,0.02481 0.0207,0.03721 0.0455,0.03721 0.0331,0 0.0372,-0.01654 0.0455,-0.04548 0.0786,-0.264583 0.20671,-0.343131 0.29352,-0.343131 0.0372,0 0.0661,0.01654 0.0661,0.09508 0,0.02481 0,0.06615 -0.0289,0.148828 z m 0,0"
       style="fill:#000000;fill-opacity:1;fill-rule:nonzero;stroke:none;stroke-width:0.352778"
       aria-label="i" />
    <path
       id="path266"
       d="M 127.45156,41.071449 H 89.951136"
       style="fill:none;stroke:#000000;stroke-width:0.140582;stroke-linecap:butt;stroke-linejoin:miter;stroke-miterlimit:10;stroke-dasharray:1.05439, 1.05439;stroke-dashoffset:0;stroke-opacity:1" />
    <path
       id="path267"
       d="m 89.935396,42.51503 c 0,-0.02067 -0.0165,-0.03721 -0.0372,-0.03721 -0.0372,0 -0.19844,0.152962 -0.28112,0.30179 -0.0744,-0.190169 -0.20671,-0.305924 -0.38861,-0.305924 -0.47542,0 -0.98805,0.615983 -0.98805,1.240234 0,0.417546 0.24391,0.661458 0.52917,0.661458 0.22324,0 0.40927,-0.169498 0.50022,-0.264583 l 0.004,0.0041 -0.16123,0.63252 -0.0372,0.152962 c -0.0372,0.124023 -0.10335,0.124023 -0.30179,0.128157 -0.0455,0 -0.0868,0 -0.0868,0.08268 0,0.02894 0.0248,0.04134 0.0538,0.04134 0.0579,0 0.13642,-0.0083 0.1943,-0.0083 h 0.42995 c 0.062,0 0.13642,0.0083 0.19844,0.0083 0.0248,0 0.0744,0 0.0744,-0.07855 0,-0.04548 -0.0331,-0.04548 -0.0951,-0.04548 -0.19844,0 -0.21084,-0.02894 -0.21084,-0.06201 0,-0.02067 0.004,-0.02481 0.0165,-0.07855 z m -0.59532,1.318782 c -0.0207,0.07028 -0.0207,0.07855 -0.0785,0.157097 -0.0951,0.119889 -0.28112,0.30179 -0.47956,0.30179 -0.1695,0 -0.26872,-0.157096 -0.26872,-0.405143 0,-0.231511 0.13229,-0.7028 0.21084,-0.880567 0.1447,-0.297656 0.34313,-0.446484 0.50436,-0.446484 0.28112,0 0.33487,0.343132 0.33487,0.376204 0,0.0041 -0.0124,0.06201 -0.0165,0.07028 z m 0,0"
       style="fill:#000000;fill-opacity:1;fill-rule:nonzero;stroke:none;stroke-width:0.352778"
       aria-label="q" />
    <path
       id="path268"
       d="m 90.981326,43.846215 h 0.26458 c 0.0538,0 0.0868,0 0.0868,-0.05374 0,-0.03721 -0.0331,-0.03721 -0.0827,-0.03721 h -0.24805 c 0.0413,-0.252181 0.0703,-0.413412 0.0992,-0.541569 0.0124,-0.04548 0.0207,-0.07855 0.062,-0.111621 0.0372,-0.02894 0.0579,-0.03721 0.091,-0.03721 0.0413,0 0.0868,0.0083 0.12403,0.03307 -0.0165,0.0041 -0.0331,0.0124 -0.0455,0.02067 -0.0496,0.02481 -0.0827,0.07855 -0.0827,0.132292 0,0.06615 0.0496,0.103353 0.11162,0.103353 0.0827,0 0.1571,-0.07028 0.1571,-0.165365 0,-0.132292 -0.1323,-0.202572 -0.26872,-0.202572 -0.0951,0 -0.27285,0.04548 -0.3638,0.305925 -0.0248,0.06201 -0.0248,0.07028 -0.0992,0.463021 h -0.21084 c -0.0579,0 -0.0909,0 -0.0909,0.05374 0,0.03721 0.0372,0.03721 0.0827,0.03721 h 0.20257 l -0.20257,1.091406 c -0.0537,0.285254 -0.0951,0.525033 -0.24391,0.525033 -0.008,0 -0.0703,0 -0.12403,-0.03307 0.1323,-0.03307 0.1323,-0.152962 0.1323,-0.152962 0,-0.06615 -0.0537,-0.103353 -0.11576,-0.103353 -0.0744,0 -0.1571,0.06201 -0.1571,0.169499 0,0.119889 0.12403,0.198437 0.26459,0.198437 0.1695,0 0.28939,-0.181901 0.32659,-0.252181 0.0992,-0.186035 0.16537,-0.537435 0.1695,-0.56224 z m 0,0"
       style="fill:#000000;fill-opacity:1;fill-rule:nonzero;stroke:none;stroke-width:0.352778"
       aria-label="f" />
    <path
       id="path269"
       d="m 103.26995,60.955246 c 0,-0.450618 -0.37621,-0.818554 -0.81856,-0.818554 -0.45475,0 -0.82268,0.376204 -0.82268,0.818554 0,0.446485 0.36793,0.818555 0.82268,0.818555 0.44235,0 0.81856,-0.367936 0.81856,-0.818555 z m 0,0"
       style="fill:#000000;fill-opacity:1;fill-rule:nonzero;stroke:none;stroke-width:0.352778"
       aria-label="•" />
    <path
       id="path270"
       d="m 123.26976,40.955434 c 0,-0.450618 -0.3762,-0.818554 -0.81855,-0.818554 -0.45476,0 -0.82269,0.376204 -0.82269,0.818554 0,0.446485 0.36793,0.818555 0.82269,0.818555 0.44235,0 0.81855,-0.367936 0.81855,-0.818555 z m 0,0"
       style="fill:#000000;fill-opacity:1;fill-rule:nonzero;stroke:none;stroke-width:0.352778"
       aria-label="•" />
  </g>
</svg>
