<?xml version="1.0" encoding="UTF-8" standalone="no"?>
<!-- Created with Inkscape (http://www.inkscape.org/) -->

<svg
   width="101.78856mm"
   height="144.66077mm"
   viewBox="0 0 101.78856 144.66077"
   version="1.1"
   id="svg1"
   inkscape:version="1.4.3 (1:1.4.3+202512261035+0d15f75042)"
   sodipodi:docname="roue.svg"
   xmlns:inkscape="http://www.inkscape.org/namespaces/inkscape"
   xmlns:sodipodi="http://sodipodi.sourceforge.net/DTD/sodipodi-0.dtd"
   xmlns="http://www.w3.org/2000/svg"
   xmlns:svg="http://www.w3.org/2000/svg">
  <sodipodi:namedview
     id="namedview1"
     pagecolor="#ffffff"
     bordercolor="#000000"
     borderopacity="0.25"
     inkscape:showpageshadow="2"
     inkscape:pageopacity="0.0"
     inkscape:pagecheckerboard="0"
     inkscape:deskcolor="#d1d1d1"
     inkscape:document-units="mm"
     inkscape:zoom="1.0066252"
     inkscape:cx="240.40725"
     inkscape:cy="222.02901"
     inkscape:window-width="1920"
     inkscape:window-height="1008"
     inkscape:window-x="0"
     inkscape:window-y="0"
     inkscape:window-maximized="1"
     inkscape:current-layer="layer1" />
  <defs
     id="defs1" />
  <g
     inkscape:label="Layer 1"
     inkscape:groupmode="layer"
     id="layer1"
     transform="translate(-56.922481,-43.767448)">
    <path
       id="path270"
       d="M 57.135908,188.21479 H 148.22682 L 57.135908,127.4875 Z"
       style="fill:none;stroke:#000000;stroke-width:0.426853;stroke-linecap:butt;stroke-linejoin:miter;stroke-miterlimit:10;stroke-dasharray:none;stroke-opacity:1"
       inkscape:export-filename="roue.pdf"
       inkscape:export-xdpi="96"
       inkscape:export-ydpi="96" />
    <path
       id="path276"
       d="m 95.090431,123.69206 c 0,-8.38478 -6.79701,-15.18181 -15.1818,-15.18181 -8.384789,0 -15.181815,6.79703 -15.181815,15.18181 0,8.38482 6.797026,15.18182 15.181815,15.18182 8.38479,0 15.1818,-6.797 15.1818,-15.18182 z"
       style="fill:none;stroke:#000000;stroke-width:0.426853;stroke-linecap:butt;stroke-linejoin:miter;stroke-miterlimit:10;stroke-dasharray:none;stroke-opacity:1" />
    <path
       id="path277"
       d="m 117.86319,188.21479 c 0,-6.04946 1.80832,-11.9641 5.19096,-16.97899"
       style="fill:none;stroke:#000000;stroke-width:0.426853;stroke-linecap:butt;stroke-linejoin:miter;stroke-miterlimit:10;stroke-dasharray:none;stroke-opacity:1" />
    <path
       id="path278"
       d="m 112.66524,178.85474 c 0,-1.24272 -0.70293,-2.41009 -2.05864,-2.41009 -1.68203,0 -3.35148,1.83267 -3.35148,3.65276 0,1.11718 0.69036,2.12139 1.99583,2.12139 0.79082,0 1.7448,-0.3012 2.64859,-1.06696 0.1758,0.71547 0.57741,1.06696 1.12973,1.06696 0.69036,0 1.02931,-0.71549 1.02931,-0.87869 0,-0.11295 -0.0877,-0.11295 -0.12537,-0.11295 -0.10054,0 -0.11295,0.0377 -0.15061,0.13815 -0.11295,0.3138 -0.41424,0.60252 -0.71551,0.60252 -0.40167,0 -0.40167,-0.81592 -0.40167,-1.60673 1.30547,-1.55651 1.61927,-3.17578 1.61927,-3.18833 0,-0.11295 -0.10055,-0.11295 -0.13816,-0.11295 -0.12537,0 -0.13815,0.0376 -0.18824,0.27629 -0.16305,0.55232 -0.48955,1.55651 -1.2929,2.61091 z m -0.80335,1.98329 c -1.12972,1.01675 -2.13393,1.12973 -2.58583,1.12973 -0.90379,0 -1.16737,-0.80338 -1.16737,-1.40589 0,-0.5523 0.28875,-1.85777 0.67782,-2.56071 0.5272,-0.90379 1.24268,-1.29293 1.82009,-1.29293 1.24272,0 1.24272,1.61928 1.24272,2.69881 0,0.31381 -0.0124,0.65272 -0.0124,0.96653 0,0.26355 0.0124,0.32637 0.0243,0.46446 z m 0,0"
       style="fill:#000000;fill-opacity:1;fill-rule:nonzero;stroke:none;stroke-width:1.07115"
       aria-label="α" />
    <path
       id="path279"
       d="m 60.961376,111.06064 92.960584,61.97324"
       style="fill:none;stroke:#000000;stroke-width:0.426853;stroke-linecap:butt;stroke-linejoin:miter;stroke-miterlimit:10;stroke-dasharray:none;stroke-opacity:1" />
    <path
       id="path280"
       d="m 155.69772,174.21765 -1.89418,-3.31469 0.11847,2.1309 -2.0125,0.71031"
       style="fill:#000000;fill-opacity:1;fill-rule:nonzero;stroke:none;stroke-width:1.0711" />
    <path
       id="path281"
       d="m 158.19638,164.60449 c -0.40168,0.0753 -0.55231,0.37656 -0.55231,0.62765 0,0.3012 0.23835,0.40166 0.41421,0.40166 0.38914,0 0.65276,-0.32637 0.65276,-0.67782 0,-0.52723 -0.61511,-0.77827 -1.15484,-0.77827 -0.77827,0 -1.20505,0.76571 -1.33057,1.01675 -0.28877,-0.96653 -1.07952,-1.01675 -1.31801,-1.01675 -1.30547,0 -1.99587,1.68203 -1.99587,1.95819 0,0.0501 0.0501,0.11296 0.13815,0.11296 0.11296,0 0.13816,-0.0753 0.16305,-0.12537 0.42678,-1.41846 1.29292,-1.68203 1.65695,-1.68203 0.57742,0 0.69037,0.5272 0.69037,0.84099 0,0.27601 -0.0753,0.57742 -0.2259,1.19249 l -0.43936,1.74483 c -0.18824,0.77824 -0.56485,1.48118 -1.24267,1.48118 -0.0629,0 -0.37661,0 -0.65275,-0.16305 0.46446,-0.10055 0.56488,-0.47701 0.56488,-0.62764 0,-0.26355 -0.18826,-0.41421 -0.42679,-0.41421 -0.3138,0 -0.64017,0.26355 -0.64017,0.67782 0,0.53974 0.60251,0.77824 1.14225,0.77824 0.61507,0 1.05443,-0.48955 1.31805,-1.0042 0.21344,0.75316 0.85353,1.0042 1.31801,1.0042 1.318,0 2.0084,-1.66945 2.0084,-1.95819 0,-0.0629 -0.0501,-0.11296 -0.13815,-0.11296 -0.11296,0 -0.12537,0.0629 -0.16305,0.16336 -0.33891,1.12971 -1.09208,1.65691 -1.65696,1.65691 -0.45187,0 -0.70294,-0.33891 -0.70294,-0.86611 0,-0.276 0.0629,-0.47701 0.26355,-1.33057 l 0.4519,-1.73226 c 0.18826,-0.77824 0.62762,-1.33055 1.20504,-1.33055 0.0376,0 0.38912,0 0.65274,0.16305 z m 0,0"
       style="fill:#000000;fill-opacity:1;fill-rule:nonzero;stroke:none;stroke-width:1.07115"
       aria-label="x" />
    <path
       id="path282"
       d="M 67.277232,142.63928 129.25045,49.678696"
       style="fill:none;stroke:#000000;stroke-width:0.426853;stroke-linecap:butt;stroke-linejoin:miter;stroke-miterlimit:10;stroke-dasharray:none;stroke-opacity:1" />
    <path
       id="path283"
       d="m 130.43425,47.902918 -3.31469,1.894182 2.13089,-0.118473 0.71032,2.012504"
       style="fill:#000000;fill-opacity:1;fill-rule:nonzero;stroke:none;stroke-width:1.0711" />
    <path
       id="path284"
       d="m 122.82962,50.84728 c -0.33891,0.489547 -0.84101,0.928878 -1.46865,0.928878 -0.15059,0 -0.7657,-0.02427 -0.96656,-0.615068 0.0501,0.01241 0.11296,0.01241 0.13816,0.01241 0.37656,0 0.64018,-0.338911 0.64018,-0.627633 0,-0.301204 -0.25111,-0.401679 -0.43933,-0.401679 -0.2007,0 -0.65275,0.150609 -0.65275,0.778242 0,0.652749 0.55232,1.104645 1.28036,1.104645 1.28037,0 2.57326,-1.179949 2.93728,-2.598403 l 1.25529,-4.995869 c 0.0124,-0.06289 0.0376,-0.138155 0.0376,-0.213459 0,-0.188248 -0.16335,-0.326375 -0.35149,-0.326375 -0.11296,0 -0.3891,0.05006 -0.48955,0.439331 l -0.94144,3.765773 c -0.0629,0.2259 -0.0629,0.251098 -0.16305,0.401665 -0.26355,0.35149 -0.6904,0.790821 -1.29289,0.790821 -0.72806,0 -0.79082,-0.702938 -0.79082,-1.054428 0,-0.728025 0.35146,-1.719685 0.69037,-2.636013 0.15059,-0.376564 0.2259,-0.552315 0.2259,-0.803358 0,-0.539764 -0.38913,-1.029312 -1.01678,-1.029312 -1.1799,0 -1.64435,1.857771 -1.64435,1.958191 0,0.05006 0.0501,0.112957 0.13815,0.112957 0.11296,0 0.12537,-0.05006 0.17581,-0.2259 0.31381,-1.079501 0.79081,-1.581586 1.29289,-1.581586 0.11296,0 0.33893,0 0.33893,0.414216 0,0.338911 -0.15061,0.702938 -0.33893,1.192485 -0.6276,1.682034 -0.6276,2.096277 -0.6276,2.410087 0,1.217587 0.86611,1.493744 1.50629,1.493744 0.37657,0 0.84103,-0.112956 1.28036,-0.589953 l 0.0124,0.01241 c -0.18826,0.753168 -0.31381,1.255253 -0.76571,1.882886 z m 0,0"
       style="fill:#000000;fill-opacity:1;fill-rule:nonzero;stroke:none;stroke-width:1.07115"
       aria-label="y" />
  </g>
</svg>
