<?xml version="1.0" encoding="UTF-8" standalone="no"?>
<!-- Created with Inkscape (http://www.inkscape.org/) -->

<svg
   width="50.973671mm"
   height="34.74509mm"
   viewBox="0 0 50.973669 34.745091"
   version="1.1"
   id="svg1"
   xmlns="http://www.w3.org/2000/svg"
   xmlns:svg="http://www.w3.org/2000/svg">
  <defs
     id="defs1">
    <marker
       style="overflow:visible"
       id="Triangle"
       refX="0"
       refY="0"
       orient="auto-start-reverse"
       markerWidth="1"
       markerHeight="1"
       viewBox="0 0 1 1"
       preserveAspectRatio="xMidYMid">
      <path
         transform="scale(0.5)"
         style="fill:context-stroke;fill-rule:evenodd;stroke:context-stroke;stroke-width:1pt"
         d="M 5.77,0 -2.88,5 V -5 Z"
         id="path135" />
    </marker>
    <clipPath
       clipPathUnits="userSpaceOnUse"
       id="clipPath107">
      <path
         d="M 362.673,539.114 H 221.115 V 431.43 h 141.558 z"
         transform="translate(-300.62802,-472.41301)"
         id="path107" />
    </clipPath>
    <clipPath
       clipPathUnits="userSpaceOnUse"
       id="clipPath111">
      <path
         d="M 362.673,539.114 H 221.115 V 431.43 h 141.558 z"
         transform="translate(-243.958,-476.21101)"
         id="path111" />
    </clipPath>
    <marker
       style="overflow:visible"
       id="Triangle-7-7-9"
       refX="0"
       refY="0"
       orient="auto-start-reverse"
       markerWidth="1"
       markerHeight="1"
       viewBox="0 0 1 1"
       preserveAspectRatio="xMidYMid">
      <path
         transform="scale(0.5)"
         style="fill:context-stroke;fill-rule:evenodd;stroke:context-stroke;stroke-width:1pt"
         d="M 5.77,0 -2.88,5 V -5 Z"
         id="path135-9-5-7" />
    </marker>
  </defs>
  <g
     id="layer1"
     transform="translate(-115.35633,-86.520602)">
    <path
       id="path106"
       d="m 0,0 c 0,-8.197 -6.652,-14.848 -14.847,-14.848 -8.197,0 -14.849,6.651 -14.849,14.848 0,8.196 6.652,14.848 14.849,14.848 C -6.652,14.848 0,8.196 0,0 Z m -79.513,-0.009 h 49.493"
       style="fill:none;stroke:#000000;stroke-width:0.4;stroke-linecap:butt;stroke-linejoin:miter;stroke-miterlimit:10;stroke-dasharray:none;stroke-opacity:1"
       transform="matrix(0.35277776,0,0,-0.35277776,144.68639,108.45154)"
       clip-path="url(#clipPath107)" />
    <path
       id="path110"
       d="M 0,0 7.614,-3.807 0,-7.614 m 57.107,3.807 h 60.915 M 41.879,11.421 V -19.036 M 11.422,-3.807 v 47.589 h 24.746 m 0,3.807 H 55.204 V 39.975 H 36.168 Z M 55.204,43.782 H 83.757 V -3.807"
       style="fill:none;stroke:#000000;stroke-width:0.4;stroke-linecap:butt;stroke-linejoin:miter;stroke-miterlimit:10;stroke-dasharray:none;stroke-opacity:1"
       transform="matrix(0.35277776,0,0,-0.35277776,124.69447,107.11169)"
       clip-path="url(#clipPath111)" />
    <path
       id="path113"
       d="m 140.08588,96.552022 c 0.0372,-0.19017 0.1323,-0.26872 0.339,-0.26872 h 0.0331 l 0.0165,-0.0744 h -0.96738 l -0.0165,0.0744 h 0.0496 c 0.20257,0 0.27285,0.0992 0.23151,0.28112 l -0.339,1.67432 c -0.0372,0.19844 -0.10335,0.29352 -0.3762,0.30179 l -0.0124,0.0744 h 0.99632 l 0.0165,-0.0744 h -0.0579 c -0.21497,0 -0.30179,-0.0827 -0.25218,-0.32659 z m 0,0"
       style="fill:#000000;fill-opacity:1;fill-rule:nonzero;stroke:none;stroke-width:0.352777"
       aria-label="I" />
    <path
       id="path114"
       d="m 141.3809,98.353462 c 0,-0.47128 -0.24805,-0.88056 -0.56638,-0.88056 -0.29765,0 -0.56224,0.37207 -0.56224,0.88056 0,0.5333 0.28112,0.88057 0.56224,0.88057 0.30593,0 0.56638,-0.38034 0.56638,-0.88057 z m -0.20258,0 c 0,0.50437 -0.0703,0.83096 -0.3638,0.83096 -0.27285,0 -0.35967,-0.30179 -0.35967,-0.83096 0,-0.49196 0.0786,-0.83095 0.35967,-0.83095 0.30179,0 0.3638,0.3514 0.3638,0.83095 z m 0,0"
       style="fill:#000000;fill-opacity:1;fill-rule:nonzero;stroke:none;stroke-width:0.352777"
       aria-label="0" />
    <path
       id="path115"
       d="m 140.27192,119.72787 c 0.0124,-0.0703 0.004,-0.0827 -0.0579,-0.0827 h -0.0868 c -0.0579,0 -0.0868,0.0165 -0.0951,0.0703 l -0.062,0.31832 c -0.0413,0.20258 -0.34726,0.59118 -0.56637,0.81029 -0.10749,0.10749 -0.19844,0.18604 -0.23978,0.18604 -0.0331,0 -0.0455,-0.0289 -0.0455,-0.0827 0,-0.0289 0.004,-0.0579 0.0124,-0.0951 l 0.19017,-0.93431 c 0.0331,-0.17364 0.0331,-0.27285 -0.0579,-0.27285 -0.0992,0 -0.30592,0.19843 -0.46302,0.42994 l 0.0496,0.0289 c 0.10336,-0.13229 0.16537,-0.1943 0.19844,-0.1943 0.0248,0 0.0289,0.0248 0.008,0.12402 l -0.1571,0.78135 c -0.0207,0.0992 -0.0331,0.1695 -0.0331,0.23978 0,0.13642 0.0413,0.21084 0.10748,0.21084 0.0868,0 0.27699,-0.1819 0.46302,-0.36794 0.0703,-0.0703 0.24392,-0.24391 0.44236,-0.52503 h 0.0124 l -0.0951,0.49196 c -0.0207,0.10335 -0.0372,0.20671 -0.0372,0.26045 0,0.0992 0.0248,0.14056 0.0744,0.14056 0.0827,0 0.32246,-0.22324 0.50023,-0.44649 l -0.0496,-0.0455 c -0.11989,0.15296 -0.19844,0.23151 -0.23978,0.23151 -0.0248,0 -0.0331,-0.0165 -0.0248,-0.0496 z m -18.10122,-16.00316 0.13643,-0.14056 c 0.0331,-0.0372 0.062,-0.0496 0.0827,-0.0496 0.0207,0 0.0248,0.0124 0.0165,0.0538 l -0.21911,1.05833 c -0.004,0.0413 -0.0124,0.10749 -0.0124,0.14469 0,0.0868 0.0372,0.13643 0.10335,0.13643 0.11162,0 0.3142,-0.1943 0.47956,-0.39274 l -0.0496,-0.0413 c -0.10749,0.11989 -0.20671,0.23564 -0.24391,0.23564 -0.0455,0 -0.0413,-0.0496 -0.0248,-0.12816 l 0.2191,-1.05833 c 0.0372,-0.1943 0,-0.23564 -0.062,-0.23564 -0.10335,0 -0.31006,0.19017 -0.46715,0.37207 z m 0.41341,-0.95498 c 0,0.0785 0.0372,0.11989 0.0951,0.11989 0.12402,0 0.18603,-0.16536 0.18603,-0.28939 0,-0.0703 -0.0413,-0.12402 -0.0992,-0.12402 -0.0951,0 -0.1819,0.14469 -0.1819,0.29352 z m 17.31781,-16.249128 -0.0124,0.0744 h 0.062 c 0.19017,0 0.27699,0.0827 0.23151,0.30593 l -0.34313,1.66191 c -0.0413,0.21084 -0.13229,0.28939 -0.36793,0.28939 h -0.0455 l -0.0124,0.0744 h 1.05833 l 0.008,-0.0744 h -0.0703 c -0.21498,0 -0.29766,-0.0992 -0.26045,-0.28939 l 0.14469,-0.6904 c 0.0579,0.004 0.24805,0.008 0.31833,0 0.44235,0.55397 0.53744,1.09141 1.25677,1.09141 0.0951,0 0.13229,-0.004 0.1943,-0.0248 l 0.0124,-0.062 c -0.29352,-0.0165 -0.3762,-0.0413 -0.58291,-0.25218 -0.25218,-0.25218 -0.38861,-0.56637 -0.57051,-0.79375 0.47543,-0.0868 0.76482,-0.35966 0.76482,-0.71933 0,-0.34313 -0.25632,-0.59118 -0.69454,-0.59118 z m 0.64492,0.0992 h 0.28525 c 0.34727,0 0.52504,0.15296 0.52504,0.41754 0,0.30592 -0.12816,0.73174 -0.92191,0.73174 h -0.12402 z m 0,0"
       style="fill:#000000;fill-opacity:1;fill-rule:nonzero;stroke:none;stroke-width:0.352777"
       aria-label="u&#10;i&#10;R" />
    <path
       style="fill:#ff0000;stroke:#ff0000;stroke-width:0.584999;stroke-linecap:square;stroke-linejoin:round"
       id="path1-6"
       d="m 72.938637,77.144112 -0.985657,0.569069 -0.985657,0.56907 0,-1.138139 0,-1.138139 0.985657,0.569069 z"
       transform="translate(53.991582,31.27786)" />
    <path
       style="fill:#ff0000;stroke:#000000;stroke-width:0.584999;stroke-linecap:square;stroke-linejoin:round;marker-end:url(#Triangle)"
       d="m 115.65046,116.83325 47.18013,0.26284"
       id="path2" />
    <path
       style="fill:#ff0000;stroke:#000000;stroke-width:0.585;stroke-linecap:square;stroke-linejoin:round;stroke-dasharray:none;marker-end:url(#Triangle-7-7-9)"
       d="m 135.24437,100.71786 9.29727,0.0518"
       id="path2-0-2-6" />
  </g>
</svg>
