<?xml version="1.0" encoding="UTF-8" standalone="no"?>
<!-- Created with Inkscape (http://www.inkscape.org/) -->

<svg
   width="50.197838mm"
   height="22.674509mm"
   viewBox="0 0 50.197836 22.674509"
   version="1.1"
   id="svg1"
   xmlns="http://www.w3.org/2000/svg"
   xmlns:svg="http://www.w3.org/2000/svg">
  <defs
     id="defs1">
    <clipPath
       clipPathUnits="userSpaceOnUse"
       id="clipPath12">
      <path
         d="M 373.902,614.474 H 232.455 V 545.43 h 141.447 z"
         transform="translate(-337.87301,-585.21701)"
         id="path12" />
    </clipPath>
    <marker
       style="overflow:visible"
       id="Triangle-7"
       refX="0"
       refY="0"
       orient="auto-start-reverse"
       markerWidth="1"
       markerHeight="1"
       viewBox="0 0 1 1"
       preserveAspectRatio="xMidYMid">
      <path
         transform="scale(0.5)"
         style="fill:context-stroke;fill-rule:evenodd;stroke:context-stroke;stroke-width:1pt"
         d="M 5.77,0 -2.88,5 V -5 Z"
         id="path135-9" />
    </marker>
    <marker
       style="overflow:visible"
       id="Triangle-7-7"
       refX="0"
       refY="0"
       orient="auto-start-reverse"
       markerWidth="1"
       markerHeight="1"
       viewBox="0 0 1 1"
       preserveAspectRatio="xMidYMid">
      <path
         transform="scale(0.5)"
         style="fill:context-stroke;fill-rule:evenodd;stroke:context-stroke;stroke-width:1pt"
         d="M 5.77,0 -2.88,5 V -5 Z"
         id="path135-9-5" />
    </marker>
  </defs>
  <g
     id="layer1"
     transform="translate(-46.003593,-95.25)">
    <path
       id="path11"
       d="M 0,0 H 36.029 M -17.347,4.003 H 0.001 V -4.003 H -17.347 Z M -49.373,0 h 32.026 M -89.405,2.669 -84.067,0 -89.405,-2.669 M -105.418,0 h 34.694 m 21.126,0.022 c 0,-5.746 -4.663,-10.409 -10.408,-10.409 -5.746,0 -10.409,4.663 -10.409,10.409 0,5.745 4.663,10.408 10.409,10.408 5.745,0 10.408,-4.663 10.408,-10.408 z"
       style="fill:none;stroke:#000000;stroke-width:0.4;stroke-linecap:butt;stroke-linejoin:miter;stroke-miterlimit:10;stroke-dasharray:none;stroke-opacity:1"
       transform="matrix(0.35277776,0,0,-0.35277776,83.491208,104.79848)"
       clip-path="url(#clipPath12)" />
    <path
       id="path14"
       d="M 56.187622,104.79848 H 77.371574"
       style="fill:none;stroke:#000000;stroke-width:0.141111;stroke-linecap:butt;stroke-linejoin:miter;stroke-miterlimit:10;stroke-dasharray:none;stroke-opacity:1" />
    <path
       id="path15"
       d="m 63.059158,96.1347 h -0.07028 c -0.08682,0.20257 -0.186037,0.256315 -0.396875,0.256315 H 61.83546 l 0.214974,-1.041797 h 0.719336 c 0.297656,0 0.446484,0.107487 0.413411,0.434081 h 0.06201 L 63.356814,95.25 h -1.984375 l -0.01654,0.07441 h 0.09922 c 0.223242,0 0.264583,0.115755 0.231511,0.29352 l -0.338998,1.661914 c -0.04134,0.206706 -0.132292,0.301792 -0.388607,0.301792 l -0.01654,0.07441 h 2.050521 l 0.165364,-0.516765 h -0.06615 c -0.140559,0.239778 -0.450617,0.421679 -0.79375,0.421679 h -0.338997 c -0.293521,0 -0.34313,-0.09095 -0.301789,-0.297656 l 0.157096,-0.773078 h 0.65319 c 0.297657,0 0.409276,0.04961 0.384472,0.322461 h 0.06615 z m 6.63422,20.25199 c 0.01241,-0.0703 0.0041,-0.0827 -0.05788,-0.0827 h -0.08682 c -0.05788,0 -0.08682,0.0165 -0.09509,0.0703 l -0.06201,0.31833 c -0.04134,0.20257 -0.347266,0.59118 -0.566375,0.81028 -0.107487,0.10749 -0.198437,0.18604 -0.239779,0.18604 -0.03307,0 -0.04547,-0.0289 -0.04547,-0.0827 0,-0.0289 0.0041,-0.0579 0.01241,-0.0951 l 0.19017,-0.93431 c 0.03307,-0.17363 0.03307,-0.27285 -0.05788,-0.27285 -0.09922,0 -0.305924,0.19844 -0.463021,0.42995 l 0.04961,0.0289 c 0.103351,-0.13229 0.165364,-0.19431 0.198437,-0.19431 0.02479,0 0.02894,0.0248 0.0083,0.12403 l -0.157096,0.78134 c -0.02066,0.0992 -0.03307,0.1695 -0.03307,0.23978 0,0.13643 0.04134,0.21084 0.107487,0.21084 0.08682,0 0.276987,-0.1819 0.463021,-0.36793 0.07028,-0.0703 0.243914,-0.24392 0.442351,-0.52504 h 0.01241 l -0.09509,0.49196 c -0.02066,0.10336 -0.03721,0.20671 -0.03721,0.26045 0,0.0992 0.02479,0.14056 0.07441,0.14056 0.08268,0 0.322461,-0.22324 0.500226,-0.44648 l -0.04961,-0.0455 c -0.11989,0.15296 -0.198437,0.23151 -0.239778,0.23151 -0.02479,0 -0.03307,-0.0165 -0.02479,-0.0496 z m -17.89658,-14.2906 0.136424,-0.14056 c 0.03307,-0.0372 0.06201,-0.0496 0.08268,-0.0496 0.02066,0 0.02479,0.0124 0.01654,0.0538 l -0.21911,1.05833 c -0.0041,0.0413 -0.01241,0.10749 -0.01241,0.14469 0,0.0868 0.03721,0.13643 0.103354,0.13643 0.111619,0 0.314192,-0.1943 0.479557,-0.39274 l -0.04961,-0.0413 c -0.107487,0.11989 -0.206706,0.23564 -0.243914,0.23564 -0.04547,0 -0.04134,-0.0496 -0.02479,-0.12815 l 0.219107,-1.05834 c 0.03721,-0.1943 0,-0.23564 -0.06201,-0.23564 -0.103354,0 -0.310059,0.19017 -0.467156,0.37207 z m 0.413411,-0.95498 c 0,0.0786 0.03721,0.11989 0.09508,0.11989 0.124024,0 0.186037,-0.16536 0.186037,-0.28939 0,-0.0703 -0.04134,-0.12402 -0.09922,-0.12402 -0.09509,0 -0.181901,0.14469 -0.181901,0.29352 z m 27.581778,-1.206125 -0.01241,0.07442 h 0.06201 c 0.190169,0 0.276984,0.0827 0.23151,0.30592 l -0.343133,1.66192 c -0.04134,0.21084 -0.132291,0.28939 -0.367934,0.28939 h -0.04548 l -0.01241,0.0744 h 1.058333 l 0.0083,-0.0744 h -0.07028 c -0.214974,0 -0.297657,-0.0992 -0.260451,-0.28939 l 0.144695,-0.6904 c 0.05788,0.004 0.248047,0.008 0.318329,0 0.442349,0.55397 0.537435,1.0914 1.25677,1.0914 0.09508,0 0.132292,-0.004 0.194303,-0.0248 l 0.01241,-0.062 c -0.29352,-0.0165 -0.376203,-0.0413 -0.582908,-0.25218 -0.25218,-0.25218 -0.388607,-0.56637 -0.570508,-0.79375 0.475422,-0.0868 0.764812,-0.35967 0.764812,-0.71934 0,-0.34313 -0.256317,-0.59114 -0.694531,-0.59114 z m 0.644922,0.09922 h 0.285252 c 0.347266,0 0.525034,0.15296 0.525034,0.41755 0,0.30592 -0.128159,0.73174 -0.921909,0.73174 h -0.124023 z m 0,0"
       style="fill:#000000;fill-opacity:1;fill-rule:nonzero;stroke:none;stroke-width:0.352777"
       aria-label="E&#10;u&#10;i&#10;R" />
    <path
       style="fill:#ff0000;stroke:#ff0000;stroke-width:0.584999;stroke-linecap:square;stroke-linejoin:round"
       id="path1"
       d="m 72.938637,77.144112 -0.985657,0.569069 -0.985657,0.56907 0,-1.138139 0,-1.138139 0.985657,0.569069 z"
       transform="translate(-19.016211,27.457797)" />
    <path
       style="fill:#ff0000;stroke:#000000;stroke-width:0.584999;stroke-linecap:square;stroke-linejoin:round;marker-end:url(#Triangle-7)"
       d="m 46.297717,113.85463 47.180133,0.26284"
       id="path2-0" />
    <path
       style="fill:#ff0000;stroke:#000000;stroke-width:0.585;stroke-linecap:square;stroke-linejoin:round;stroke-dasharray:none;marker-end:url(#Triangle-7-7)"
       d="m 56.656154,98.855333 9.29727,0.0518"
       id="path2-0-2" />
  </g>
</svg>
