<?xml version="1.0" encoding="UTF-8" standalone="no"?>
<!-- Created with Inkscape (http://www.inkscape.org/) -->

<svg
   width="210mm"
   height="297mm"
   viewBox="0 0 210 297"
   version="1.1"
   id="svg1"
   inkscape:version="1.4 (1:1.4+202410161351+e7c3feb100)"
   sodipodi:docname="cm2-schema2.svg"
   xmlns:inkscape="http://www.inkscape.org/namespaces/inkscape"
   xmlns:sodipodi="http://sodipodi.sourceforge.net/DTD/sodipodi-0.dtd"
   xmlns="http://www.w3.org/2000/svg"
   xmlns:svg="http://www.w3.org/2000/svg">
  <sodipodi:namedview
     id="namedview1"
     pagecolor="#ffffff"
     bordercolor="#000000"
     borderopacity="0.25"
     inkscape:showpageshadow="2"
     inkscape:pageopacity="0.0"
     inkscape:pagecheckerboard="0"
     inkscape:deskcolor="#d1d1d1"
     inkscape:document-units="mm"
     showgrid="true"
     inkscape:zoom="0.64"
     inkscape:cx="692.1875"
     inkscape:cy="564.84375"
     inkscape:window-width="1920"
     inkscape:window-height="1008"
     inkscape:window-x="0"
     inkscape:window-y="0"
     inkscape:window-maximized="1"
     inkscape:current-layer="layer1">
    <inkscape:grid
       id="grid1"
       units="mm"
       originx="0"
       originy="0"
       spacingx="0.26458333"
       spacingy="0.26458334"
       empcolor="#0099e5"
       empopacity="0.30196078"
       color="#0099e5"
       opacity="0.14901961"
       empspacing="5"
       enabled="true"
       visible="true" />
  </sodipodi:namedview>
  <defs
     id="defs1">
    <marker
       style="overflow:visible"
       id="ArrowWide"
       refX="0"
       refY="0"
       orient="auto-start-reverse"
       inkscape:stockid="Wide arrow"
       markerWidth="1"
       markerHeight="1"
       viewBox="0 0 1 1"
       inkscape:isstock="true"
       inkscape:collect="always"
       preserveAspectRatio="xMidYMid">
      <path
         style="fill:none;stroke:context-stroke;stroke-width:1;stroke-linecap:butt"
         d="M 3,-3 0,0 3,3"
         transform="rotate(180,0.125,0)"
         sodipodi:nodetypes="ccc"
         id="path3" />
    </marker>
    <clipPath
       clipPathUnits="userSpaceOnUse"
       id="clipPath42">
      <path
         d="m 382.705,476.575 h -155.8 V 355.14 h 155.8 z"
         transform="translate(-226.90501,-452.47601)"
         id="path42" />
    </clipPath>
    <clipPath
       clipPathUnits="userSpaceOnUse"
       id="clipPath9">
      <path
         d="M 470.258,666.122 H 328.935 V 536.67 h 141.323 z"
         transform="translate(-342.323,-626.12401)"
         id="path9" />
    </clipPath>
    <marker
       style="overflow:visible"
       id="ArrowWide-0"
       refX="0"
       refY="0"
       orient="auto-start-reverse"
       inkscape:stockid="Wide arrow"
       markerWidth="1"
       markerHeight="1"
       viewBox="0 0 1 1"
       inkscape:isstock="true"
       inkscape:collect="always"
       preserveAspectRatio="xMidYMid">
      <path
         style="fill:none;stroke:context-stroke;stroke-width:1;stroke-linecap:butt"
         d="M 3,-3 0,0 3,3"
         transform="rotate(180,0.125,0)"
         sodipodi:nodetypes="ccc"
         id="path3-6" />
    </marker>
    <marker
       style="overflow:visible"
       id="ArrowWide-0-7"
       refX="0"
       refY="0"
       orient="auto-start-reverse"
       inkscape:stockid="Wide arrow"
       markerWidth="1"
       markerHeight="1"
       viewBox="0 0 1 1"
       inkscape:isstock="true"
       inkscape:collect="always"
       preserveAspectRatio="xMidYMid">
      <path
         style="fill:none;stroke:context-stroke;stroke-width:1;stroke-linecap:butt"
         d="M 3,-3 0,0 3,3"
         transform="rotate(180,0.125,0)"
         sodipodi:nodetypes="ccc"
         id="path3-6-9" />
    </marker>
    <marker
       style="overflow:visible"
       id="ArrowWide-0-75"
       refX="0"
       refY="0"
       orient="auto-start-reverse"
       inkscape:stockid="Wide arrow"
       markerWidth="1"
       markerHeight="1"
       viewBox="0 0 1 1"
       inkscape:isstock="true"
       inkscape:collect="always"
       preserveAspectRatio="xMidYMid">
      <path
         style="fill:none;stroke:context-stroke;stroke-width:1;stroke-linecap:butt"
         d="M 3,-3 0,0 3,3"
         transform="rotate(180,0.125,0)"
         sodipodi:nodetypes="ccc"
         id="path3-6-92" />
    </marker>
  </defs>
  <g
     inkscape:label="Calque 1"
     inkscape:groupmode="layer"
     id="layer1">
    <path
       id="path41"
       d="m 0,0 h 60.702 v -36.421 m 0,36.421 h 60.701 V -36.421 M 60.702,-97.122 h 60.701 v 36.421 M 0,-97.122 h 60.702 v 36.421 m -4.857,24.28 h 9.712 v -24.281 h -9.712 z m 60.701,0 h 9.713 v -24.281 h -9.713 z"
       style="fill:none;stroke:#000000;stroke-width:0.428;stroke-linecap:butt;stroke-linejoin:miter;stroke-miterlimit:10;stroke-dasharray:none;stroke-opacity:1"
       transform="matrix(0.8892131,0,0,-0.8892131,63.660935,98.059206)"
       clip-path="url(#clipPath42)" />
    <path
       id="path45"
       d="m 91.462368,85.534724 0.343886,-0.354296 c 0.08343,-0.09377 0.156278,-0.125022 0.208454,-0.125022 0.05218,0 0.06251,0.03126 0.04159,0.135357 l -0.552289,2.667656 c -0.01008,0.104101 -0.03126,0.270914 -0.03126,0.364706 0,0.218788 0.09377,0.343886 0.260505,0.343886 0.281375,0 0.791974,-0.489753 1.208781,-0.989942 l -0.125022,-0.104101 c -0.27094,0.302195 -0.521009,0.59398 -0.614801,0.59398 -0.114687,0 -0.104101,-0.125022 -0.06251,-0.32304 l 0.552265,-2.667631 c 0.09377,-0.489754 0,-0.593981 -0.156278,-0.593981 -0.260504,0 -0.781538,0.479344 -1.1775,0.937842 z m 1.042069,-2.407126 c 0,0.198119 0.09377,0.302195 0.239709,0.302195 0.312605,0 0.468933,-0.416807 0.468933,-0.729438 0,-0.177198 -0.104101,-0.312605 -0.250044,-0.312605 -0.239709,0 -0.458498,0.364706 -0.458498,0.739848 z m 11.626643,81.620922 0.34386,-0.3543 c 0.0834,-0.0938 0.15627,-0.12502 0.20845,-0.12502 0.0522,0 0.0625,0.0312 0.0416,0.13535 l -0.55229,2.66764 c -0.0101,0.1041 -0.0312,0.27093 -0.0312,0.36473 0,0.21878 0.0938,0.34386 0.2605,0.34386 0.28138,0 0.79197,-0.48976 1.20878,-0.98994 l -0.12502,-0.10411 c -0.27094,0.3022 -0.52103,0.59396 -0.61483,0.59396 -0.11468,0 -0.1041,-0.12502 -0.0625,-0.32302 l 0.55229,-2.66765 c 0.0938,-0.48976 0,-0.59396 -0.15628,-0.59396 -0.2605,0 -0.78153,0.47935 -1.17752,0.93784 z m 1.04204,-2.40716 c 0,0.19812 0.0938,0.3022 0.23971,0.3022 0.3126,0 0.46893,-0.41681 0.46893,-0.72941 0,-0.1772 -0.1041,-0.31263 -0.25004,-0.31263 -0.23971,0 -0.4585,0.36473 -0.4585,0.73984 z m 0,0"
       style="fill:#000000;fill-opacity:1;fill-rule:nonzero;stroke:none;stroke-width:0.889211"
       aria-label="i&#10;i" />
    <path
       id="path46"
       d="m 107.56459,164.79018 c -0.15627,0.22912 -0.72941,0.73985 -1.1254,1.01079 l 0.0625,0.0938 c 0.25005,-0.11469 0.62524,-0.36474 0.84408,-0.5627 v 3.40747 c 0,0.20846 -0.0416,0.27094 -0.25004,0.27094 h -0.37515 v 0.12503 h 1.71938 v -0.12503 h -0.37514 c -0.21879,0 -0.2605,-0.0625 -0.2605,-0.2605 v -3.95979 z m 0,0"
       style="fill:#000000;fill-opacity:1;fill-rule:nonzero;stroke:none;stroke-width:0.889211"
       aria-label="1" />
    <path
       id="path47"
       d="m 156.67885,164.75111 0.34389,-0.35429 c 0.0834,-0.0938 0.15628,-0.12503 0.20845,-0.12503 0.0522,0 0.0625,0.0313 0.0416,0.13536 l -0.55226,2.66766 c -0.0101,0.1041 -0.0313,0.27091 -0.0313,0.3647 0,0.21879 0.0938,0.34389 0.26051,0.34389 0.28135,0 0.79195,-0.48978 1.20878,-0.98997 l -0.12502,-0.1041 c -0.27094,0.3022 -0.52104,0.59398 -0.61483,0.59398 -0.11469,0 -0.1041,-0.12502 -0.0625,-0.32304 l 0.55229,-2.66763 c 0.0938,-0.48978 0,-0.59398 -0.15628,-0.59398 -0.2605,0 -0.78154,0.47934 -1.17752,0.93784 z m 1.04205,-2.40712 c 0,0.19786 0.0938,0.30219 0.23971,0.30219 0.3126,0 0.4689,-0.41683 0.4689,-0.72944 0,-0.1772 -0.1041,-0.31263 -0.25004,-0.31263 -0.23971,0 -0.4585,0.36473 -0.4585,0.73988 z m 0,0"
       style="fill:#000000;fill-opacity:1;fill-rule:nonzero;stroke:none;stroke-width:0.889211"
       aria-label="i" />
    <path
       id="path48"
       d="m 158.58841,169.13553 h 2.73015 l 0.12502,-0.95869 h -0.1041 c -0.1041,0.43765 -0.15628,0.53144 -0.52101,0.53144 h -1.79233 c 0.98994,-1.01078 1.59433,-1.42762 1.79233,-1.61517 0.32301,-0.33345 0.48975,-0.69816 0.48975,-1.09415 0,-0.68774 -0.54185,-1.20878 -1.26088,-1.20878 -0.72944,0 -1.29214,0.53145 -1.37549,1.31298 h 0.11468 c 0.15628,-0.5627 0.58357,-0.92743 1.06289,-0.92743 0.52104,0 0.90659,0.4064 0.90659,0.917 0,1.07332 -1.36509,1.89653 -2.16745,2.93857 z m 0,0"
       style="fill:#000000;fill-opacity:1;fill-rule:nonzero;stroke:none;stroke-width:0.889211"
       aria-label="2" />
    <path
       id="path49"
       d="m 195.82593,144.80633 h 0.32304 l 4.35575,-5.1373 c 0.4064,-0.4689 0.73985,-0.75025 1.14627,-0.89615 l 0.0313,-0.18753 h -1.85484 l -0.0416,0.18753 c 0.7086,0 0.8128,0.4064 0.3543,0.94828 l -3.53255,4.18902 -0.0202,-0.0202 0.14595,-4.25155 c 0.0202,-0.46893 0.22937,-0.86492 0.77112,-0.86492 h 0.12503 l 0.0416,-0.18753 h -2.355 l -0.0416,0.18753 c 0.5627,0 0.72943,0.28137 0.719,0.62523 z m -96.061044,-6.86446 -0.03126,0.18753 h 0.156278 c 0.479326,0 0.698156,0.20845 0.583546,0.7711 l -0.864921,4.18904 c -0.104101,0.53145 -0.333451,0.72944 -0.927406,0.72944 h -0.114688 l -0.03126,0.18753 h 2.667655 l 0.0202,-0.18753 h -0.17719 c -0.54186,0 -0.75029,-0.25004 -0.6565,-0.72944 l 0.36474,-1.74022 c 0.14594,0.0101 0.62521,0.0202 0.80235,0 1.11502,1.39634 1.35468,2.75101 3.16782,2.75101 0.23971,0 0.33348,-0.0101 0.48978,-0.0625 l 0.0313,-0.15628 c -0.73987,-0.0416 -0.94828,-0.1041 -1.46931,-0.63564 -0.63565,-0.63565 -0.97951,-1.4276 -1.43801,-2.00073 1.19835,-0.21879 1.92779,-0.90656 1.92779,-1.81315 0,-0.86489 -0.64608,-1.49013 -1.75064,-1.49013 z m 1.625584,0.25004 h 0.71901 c 0.87533,0 1.32341,0.38555 1.32341,1.05245 0,0.77111 -0.32304,1.84443 -2.32377,1.84443 h -0.3126 z m 0,0"
       style="fill:#000000;fill-opacity:1;fill-rule:nonzero;stroke:none;stroke-width:0.889211"
       aria-label="V&#10;R" />
    <path
       id="path50"
       d="m 106.83778,141.13053 c -0.15628,0.22938 -0.72944,0.73985 -1.1254,1.01076 l 0.0625,0.0938 c 0.25004,-0.11469 0.62521,-0.36471 0.84405,-0.5627 v 3.40748 c 0,0.20845 -0.0416,0.27094 -0.25005,0.27094 h -0.37511 v 0.12502 h 1.71935 v -0.12502 h -0.37514 c -0.21879,0 -0.2605,-0.0625 -0.2605,-0.26051 v -3.95976 z m 0,0"
       style="fill:#000000;fill-opacity:1;fill-rule:nonzero;stroke:none;stroke-width:0.889211"
       aria-label="1" />
    <path
       id="path51"
       d="m 152.31008,137.9184 -0.0313,0.18753 h 0.15628 c 0.47935,0 0.69816,0.20846 0.58355,0.7711 l -0.8649,4.18905 c -0.1041,0.53144 -0.33347,0.72941 -0.92743,0.72941 h -0.11469 l -0.0312,0.18753 h 2.66763 l 0.0202,-0.18753 h -0.17719 c -0.54186,0 -0.75026,-0.25004 -0.6565,-0.72941 l 0.36474,-1.74023 c 0.14594,0.0101 0.62521,0.0202 0.80238,0 1.11496,1.39634 1.35464,2.75099 3.16781,2.75099 0.23971,0 0.33345,-0.0101 0.48975,-0.0625 l 0.0313,-0.15628 c -0.73988,-0.0416 -0.94828,-0.1041 -1.46929,-0.63564 -0.63565,-0.63565 -0.97953,-1.4276 -1.43802,-2.00073 1.19834,-0.21879 1.92777,-0.90659 1.92777,-1.81315 0,-0.86492 -0.64605,-1.49013 -1.75062,-1.49013 z m 1.62561,0.25004 h 0.71901 c 0.87529,0 1.32338,0.38558 1.32338,1.05248 0,0.7711 -0.32304,1.84443 -2.32376,1.84443 h -0.31261 z m 0,0"
       style="fill:#000000;fill-opacity:1;fill-rule:nonzero;stroke:none;stroke-width:0.889211"
       aria-label="R" />
    <path
       id="path52"
       d="m 157.86157,145.44981 h 2.73017 l 0.12502,-0.95868 h -0.1041 c -0.1041,0.43765 -0.15628,0.53144 -0.52103,0.53144 h -1.7923 c 0.98994,-1.01079 1.59433,-1.42762 1.7923,-1.61518 0.32304,-0.33345 0.48977,-0.69818 0.48977,-1.09414 0,-0.68777 -0.54187,-1.20878 -1.26088,-1.20878 -0.72943,0 -1.29213,0.53144 -1.37549,1.31298 h 0.11469 c 0.15627,-0.56272 0.58354,-0.92743 1.06289,-0.92743 0.52103,0 0.90658,0.4064 0.90658,0.91699 0,1.07333 -1.36508,1.89653 -2.16747,2.93858 z m 0,0"
       style="fill:#000000;fill-opacity:1;fill-rule:nonzero;stroke:none;stroke-width:0.889211"
       aria-label="2" />
    <path
       sodipodi:type="star"
       style="fill:#ff0000;stroke:none;stroke-width:0.4;stroke-linejoin:round"
       id="path1"
       inkscape:flatsided="false"
       sodipodi:sides="3"
       sodipodi:cx="49.809761"
       sodipodi:cy="75.086357"
       sodipodi:r1="4.088861"
       sodipodi:r2="2.0444305"
       sodipodi:arg1="0"
       sodipodi:arg2="1.0471976"
       inkscape:rounded="0"
       inkscape:randomized="0"
       d="m 53.898622,75.086357 -3.066646,1.770529 -3.066645,1.770529 V 75.086357 71.5453 l 3.066645,1.770528 z"
       inkscape:transform-center-x="-1.0222153"
       transform="translate(40.400811,22.972849)" />
    <path
       sodipodi:type="star"
       style="fill:#ff0000;stroke:none;stroke-width:0.4;stroke-linejoin:round"
       id="path1-6"
       inkscape:flatsided="false"
       sodipodi:sides="3"
       sodipodi:cx="49.809761"
       sodipodi:cy="75.086357"
       sodipodi:r1="4.088861"
       sodipodi:r2="2.0444305"
       sodipodi:arg1="0"
       sodipodi:arg2="1.0471976"
       inkscape:rounded="0"
       inkscape:randomized="0"
       d="m 53.898622,75.086357 -3.066646,1.770529 -3.066645,1.770529 V 75.086357 71.5453 l 3.066645,1.770528 z"
       inkscape:transform-center-x="4.1112167e-06"
       transform="rotate(90,37.572453,154.96881)"
       inkscape:transform-center-y="1.0222112" />
    <path
       sodipodi:type="star"
       style="fill:#ff0000;stroke:none;stroke-width:0.4;stroke-linejoin:round"
       id="path1-6-2"
       inkscape:flatsided="false"
       sodipodi:sides="3"
       sodipodi:cx="49.809761"
       sodipodi:cy="75.086357"
       sodipodi:r1="4.088861"
       sodipodi:r2="2.0444305"
       sodipodi:arg1="0"
       sodipodi:arg2="1.0471976"
       inkscape:rounded="0"
       inkscape:randomized="0"
       d="m 53.898622,75.086357 -3.066646,1.770529 -3.066645,1.770529 V 75.086357 71.5453 l 3.066645,1.770528 z"
       inkscape:transform-center-x="4.1112167e-06"
       transform="rotate(90,64.651583,181.72164)"
       inkscape:transform-center-y="1.0222112" />
    <path
       style="fill:#ff0000;stroke:#000000;stroke-width:0.4;stroke-linejoin:round;marker-end:url(#ArrowWide)"
       d="M 182.56249,182.5625 V 100.54167"
       id="path2" />
    <path
       style="fill:#ff0000;stroke:#000000;stroke-width:0.425348;stroke-linejoin:round;stroke-dasharray:none;marker-end:url(#ArrowWide-0)"
       d="M 221.10377,180.69624 V 118.79921"
       id="path2-6" />
    <path
       style="fill:#ff0000;stroke:#000000;stroke-width:0.425348;stroke-linejoin:round;stroke-dasharray:none;marker-end:url(#ArrowWide-0-7)"
       d="M 316.7628,171.69308 V 126.67706"
       id="path2-6-0" />
    <path
       style="fill:#ff0000;stroke:#000000;stroke-width:0.425348;stroke-linejoin:round;stroke-dasharray:none;marker-end:url(#ArrowWide-0-75)"
       d="M 284.68897,96.291204 H 242.37795"
       id="path2-6-8" />
    <path
       id="path8"
       d="m 0,0 h 33.472 m 0,4.463 H 55.786 V -4.463 H 33.472 Z M 55.786,0 h 33.471 v -33.471 m -4.463,0 h 8.926 v -22.315 h -8.926 z m 4.463,-22.314 V -89.257 H 0"
       style="fill:none;stroke:#000000;stroke-width:0.4;stroke-linecap:butt;stroke-linejoin:miter;stroke-miterlimit:10;stroke-dasharray:none;stroke-opacity:1"
       transform="matrix(0.86028895,0,0,-0.86028895,222.68276,108.8292)"
       clip-path="url(#clipPath9)" />
    <path
       id="path12"
       d="m 235.84128,118.84316 0.3327,-0.34278 c 0.0807,-0.0907 0.15119,-0.12096 0.20168,-0.12096 0.0505,0 0.0605,0.0302 0.0403,0.1312 l -0.53433,2.58087 c -0.0106,0.1007 -0.0302,0.26212 -0.0302,0.35285 0,0.21169 0.0907,0.33269 0.25206,0.33269 0.27219,0 0.76619,-0.47383 1.16943,-0.95773 l -0.12096,-0.10071 c -0.2621,0.29237 -0.50406,0.57464 -0.5948,0.57464 -0.11102,0 -0.1007,-0.12096 -0.0605,-0.31251 l 0.53432,-2.58088 c 0.0907,-0.47383 0,-0.57464 -0.1512,-0.57464 -0.25202,0 -0.75608,0.46375 -1.13919,0.90735 z m 1.00817,-2.32883 c 0,0.19168 0.0907,0.29236 0.23192,0.29236 0.30244,0 0.45368,-0.40325 0.45368,-0.70571 0,-0.17143 -0.10102,-0.30244 -0.24192,-0.30244 -0.23191,0 -0.44357,0.35285 -0.44357,0.71579 z m -24.64932,33.33956 h 0.31254 l 4.21407,-4.97018 c 0.39317,-0.45367 0.71579,-0.72589 1.10898,-0.86701 l 0.0303,-0.18143 h -1.7945 l -0.0403,0.18143 c 0.68554,0 0.78635,0.39319 0.34277,0.91741 l -3.41764,4.05278 -0.0195,-0.0195 0.14118,-4.11322 c 0.0195,-0.45369 0.22192,-0.83677 0.74605,-0.83677 h 0.12096 l 0.0403,-0.18143 h -2.27842 l -0.0403,0.18143 c 0.54439,0 0.70571,0.27221 0.6956,0.60488 z m 0,0"
       style="fill:#000000;fill-opacity:1;fill-rule:nonzero;stroke:none;stroke-width:0.860287"
       aria-label="i&#10;V" />
    <path
       id="path13"
       d="m 218.68255,150.61252 c -0.3226,0.23191 -0.57464,0.35287 -0.76619,0.35287 -0.44358,0 -0.5948,-0.48393 -0.44358,-1.03841 0.76619,-0.22167 1.50214,-0.56456 1.50214,-1.06863 0,-0.2722 -0.19169,-0.42344 -0.53432,-0.42344 -0.8166,0 -1.45173,1.03841 -1.45173,1.87518 0,0.50406 0.28228,0.89726 0.6553,0.89726 0.27219,0 0.69562,-0.19143 1.09889,-0.50409 z m -0.0907,-1.75417 c 0,0.18143 -0.0605,0.38308 -0.23191,0.55448 -0.1007,0.1007 -0.40324,0.27219 -0.85693,0.3831 0.18143,-0.78636 0.45369,-1.21987 0.84686,-1.21987 0.16118,0 0.2419,0.0908 0.2419,0.28229 z m 0,0"
       style="fill:#000000;fill-opacity:1;fill-rule:nonzero;stroke:none;stroke-width:0.860287"
       aria-label="e" />
    <path
       id="path14"
       d="m 259.62609,84.838213 h 0.31253 l 4.21407,-4.970168 c 0.39318,-0.453677 0.71578,-0.725874 1.10899,-0.867019 l 0.0303,-0.181434 h -1.79451 l -0.0403,0.181434 c 0.68551,0 0.78635,0.393173 0.34276,0.917434 l -3.41765,4.052757 -0.0195,-0.01946 0.1412,-4.113252 c 0.0195,-0.453689 0.22167,-0.836771 0.74605,-0.836771 h 0.12096 l 0.0403,-0.181424 h -2.27841 l -0.0403,0.181424 c 0.54439,0 0.7057,0.272197 0.6956,0.604877 z m 0,0"
       style="fill:#000000;fill-opacity:1;fill-rule:nonzero;stroke:none;stroke-width:0.860287"
       aria-label="V" />
    <path
       id="path15"
       d="m 265.76575,81.904513 c -0.15121,0.221671 -0.70573,0.715786 -1.08881,0.977905 l 0.0605,0.09066 c 0.24191,-0.110909 0.60488,-0.352836 0.8166,-0.544395 v 3.29667 c 0,0.201672 -0.0403,0.262097 -0.24191,0.262097 h -0.36294 v 0.120953 h 1.66346 v -0.120955 h -0.36292 c -0.21168,0 -0.25206,-0.06052 -0.25206,-0.252029 v -3.830965 z m 0,0"
       style="fill:#000000;fill-opacity:1;fill-rule:nonzero;stroke:none;stroke-width:0.860287"
       aria-label="1" />
    <path
       id="path16"
       d="m 321.70552,150.10846 h 0.31254 l 4.21408,-4.97019 c 0.39315,-0.45368 0.71577,-0.72588 1.10896,-0.86702 l 0.0303,-0.18143 h -1.79454 l -0.0403,0.18143 c 0.68556,0 0.78636,0.39317 0.34278,0.91742 l -3.41765,4.05276 -0.0195,-0.0195 0.1412,-4.11326 c 0.0195,-0.45368 0.22191,-0.83676 0.74602,-0.83676 h 0.12095 l 0.0403,-0.18143 h -2.27842 l -0.0403,0.18143 c 0.5444,0 0.7057,0.27219 0.69562,0.60488 z m 0,0"
       style="fill:#000000;fill-opacity:1;fill-rule:nonzero;stroke:none;stroke-width:0.860287"
       aria-label="V" />
    <path
       id="path17"
       d="m 326.37074,151.3762 h 2.64137 l 0.12095,-0.9275 h -0.10091 c -0.10071,0.42341 -0.1512,0.51416 -0.50407,0.51416 h -1.73403 c 0.95775,-0.97792 1.54247,-1.38117 1.73403,-1.56265 0.31252,-0.3226 0.47381,-0.67545 0.47381,-1.05855 0,-0.66537 -0.52422,-1.16946 -1.21986,-1.16946 -0.70569,0 -1.25011,0.51416 -1.33075,1.27028 h 0.1109 c 0.1512,-0.5444 0.56457,-0.89724 1.0283,-0.89724 0.50408,0 0.8771,0.39317 0.8771,0.88716 0,1.03838 -1.32068,1.83484 -2.09694,2.84298 z m 0,0"
       style="fill:#000000;fill-opacity:1;fill-rule:nonzero;stroke:none;stroke-width:0.860287"
       aria-label="2" />
    <path
       id="path18"
       d="m 258.32056,119.02209 -0.0303,0.18144 h 0.1512 c 0.46375,0 0.67546,0.20167 0.56457,0.74602 l -0.83676,4.05279 c -0.1007,0.51415 -0.32261,0.70569 -0.89727,0.70569 h -0.11091 l -0.0303,0.18142 h 2.58087 l 0.0195,-0.18142 h -0.17144 c -0.52425,0 -0.72588,-0.24192 -0.63513,-0.70569 l 0.35283,-1.68362 c 0.1412,0.0106 0.60491,0.0195 0.77629,0 1.07872,1.35092 1.31058,2.66152 3.06478,2.66152 0.23191,0 0.3226,-0.0106 0.47382,-0.0605 l 0.0303,-0.15118 c -0.71577,-0.0403 -0.9174,-0.1007 -1.42149,-0.61498 -0.61497,-0.61497 -0.94764,-1.38116 -1.39126,-1.93565 1.15939,-0.21168 1.86508,-0.8771 1.86508,-1.75416 0,-0.8368 -0.62503,-1.44167 -1.69368,-1.44167 z m 1.5727,0.24192 h 0.69562 c 0.84685,0 1.28034,0.37304 1.28034,1.01824 0,0.74602 -0.31251,1.78443 -2.24816,1.78443 h -0.30245 z m 0,0"
       style="fill:#000000;fill-opacity:1;fill-rule:nonzero;stroke:none;stroke-width:0.860287"
       aria-label="R" />
    <path
       id="path19"
       d="m 265.16337,122.10453 c -0.15118,0.22167 -0.70571,0.71578 -1.08881,0.97792 l 0.0605,0.0907 c 0.24191,-0.11091 0.6049,-0.35287 0.81662,-0.54442 v 3.29666 c 0,0.20168 -0.0403,0.26212 -0.24191,0.26212 h -0.36294 v 0.12097 h 1.66345 v -0.12097 h -0.36294 c -0.21166,0 -0.25203,-0.0605 -0.25203,-0.25205 v -3.83096 z m 0,0"
       style="fill:#000000;fill-opacity:1;fill-rule:nonzero;stroke:none;stroke-width:0.860287"
       aria-label="1" />
    <path
       id="path20"
       d="m 282.00706,143.97637 -0.0303,0.18143 h 0.15119 c 0.46376,0 0.67544,0.20168 0.56457,0.74605 l -0.83677,4.05275 c -0.1007,0.51416 -0.32259,0.70572 -0.89726,0.70572 h -0.11091 l -0.0302,0.18143 h 2.58085 l 0.0195,-0.18143 h -0.17143 c -0.52423,0 -0.72586,-0.24191 -0.63512,-0.70572 l 0.35283,-1.68358 c 0.14121,0.0106 0.6049,0.0195 0.7763,0 1.07872,1.35091 1.31058,2.66149 3.06477,2.66149 0.23192,0 0.3226,-0.0106 0.47383,-0.0605 l 0.0303,-0.15119 c -0.7158,-0.0403 -0.91742,-0.1007 -1.42148,-0.61497 -0.61497,-0.61497 -0.94768,-1.38118 -1.39126,-1.93565 1.15937,-0.21168 1.86508,-0.8771 1.86508,-1.7542 0,-0.83676 -0.62504,-1.44166 -1.69369,-1.44166 z m 1.5727,0.24191 h 0.69563 c 0.84685,0 1.28036,0.37301 1.28036,1.01824 0,0.74602 -0.31253,1.78441 -2.24818,1.78441 h -0.30246 z m 0,0"
       style="fill:#000000;fill-opacity:1;fill-rule:nonzero;stroke:none;stroke-width:0.860287"
       aria-label="R" />
    <path
       id="path21"
       d="m 287.37798,151.26531 h 2.64136 l 0.12096,-0.9275 h -0.1007 c -0.1007,0.42342 -0.15118,0.51416 -0.50406,0.51416 h -1.73402 c 0.95775,-0.97791 1.54246,-1.38119 1.73402,-1.56264 0.31251,-0.32261 0.47383,-0.67548 0.47383,-1.05856 0,-0.66539 -0.52423,-1.16946 -1.21987,-1.16946 -0.70568,0 -1.25011,0.51416 -1.33075,1.27028 h 0.11091 c 0.1512,-0.54439 0.56458,-0.89726 1.02832,-0.89726 0.50408,0 0.8771,0.39317 0.8771,0.88716 0,1.03841 -1.32069,1.83484 -2.09695,2.84298 z m 0,0"
       style="fill:#000000;fill-opacity:1;fill-rule:nonzero;stroke:none;stroke-width:0.860287"
       aria-label="2" />
    <path
       sodipodi:type="star"
       style="fill:#ff0000;stroke:none;stroke-width:0.4;stroke-linejoin:round"
       id="path1-61"
       inkscape:flatsided="false"
       sodipodi:sides="3"
       sodipodi:cx="49.809761"
       sodipodi:cy="75.086357"
       sodipodi:r1="4.088861"
       sodipodi:r2="2.0444305"
       sodipodi:arg1="0"
       sodipodi:arg2="1.0471976"
       inkscape:rounded="0"
       inkscape:randomized="0"
       d="m 53.898622,75.086357 -3.066646,1.770529 -3.066645,1.770529 V 75.086357 71.5453 l 3.066645,1.770528 z"
       inkscape:transform-center-x="-1.086994"
       transform="matrix(1.0633704,0,0,1.0633704,182.30107,28.641964)"
       inkscape:transform-center-y="1.7798062e-06" />
  </g>
</svg>
