<?xml version="1.0" encoding="UTF-8" standalone="no"?>
<!-- Created with Inkscape (http://www.inkscape.org/) -->

<svg
   width="135.25323mm"
   height="52.558064mm"
   viewBox="0 0 135.25323 52.558064"
   version="1.1"
   id="svg1"
   inkscape:version="1.4 (1:1.4+202410161351+e7c3feb100)"
   sodipodi:docname="FIG-CONVENTIONS.svg"
   xmlns:inkscape="http://www.inkscape.org/namespaces/inkscape"
   xmlns:sodipodi="http://sodipodi.sourceforge.net/DTD/sodipodi-0.dtd"
   xmlns="http://www.w3.org/2000/svg"
   xmlns:svg="http://www.w3.org/2000/svg">
  <sodipodi:namedview
     id="namedview1"
     pagecolor="#ffffff"
     bordercolor="#000000"
     borderopacity="0.25"
     inkscape:showpageshadow="2"
     inkscape:pageopacity="0.0"
     inkscape:pagecheckerboard="0"
     inkscape:deskcolor="#d1d1d1"
     inkscape:document-units="mm"
     inkscape:zoom="1.0066252"
     inkscape:cx="269.21638"
     inkscape:cy="72.022832"
     inkscape:window-width="1920"
     inkscape:window-height="1008"
     inkscape:window-x="0"
     inkscape:window-y="0"
     inkscape:window-maximized="1"
     inkscape:current-layer="layer1" />
  <defs
     id="defs1">
    <clipPath
       clipPathUnits="userSpaceOnUse"
       id="clipPath71">
      <path
         d="M 121.448,129.229 H 504.961 V 258.984 H 121.448 Z"
         id="path71" />
    </clipPath>
    <clipPath
       clipPathUnits="userSpaceOnUse"
       id="clipPath74">
      <path
         d="M 121.448,129.229 H 504.961 V 258.984 H 121.448 Z"
         transform="matrix(1,0,0,-1.003375,-365.78311,253.19595)"
         id="path74" />
    </clipPath>
    <clipPath
       clipPathUnits="userSpaceOnUse"
       id="clipPath76">
      <path
         d="M 121.448,129.229 H 504.961 V 258.984 H 121.448 Z"
         transform="matrix(1,0,0,-1.003375,-122.01115,227.48548)"
         id="path76" />
    </clipPath>
    <clipPath
       clipPathUnits="userSpaceOnUse"
       id="clipPath78">
      <path
         d="M 121.448,129.229 H 504.961 V 258.984 H 121.448 Z"
         transform="matrix(1,0,0,-1.003375,-285.38468,226.67475)"
         id="path78" />
    </clipPath>
    <clipPath
       clipPathUnits="userSpaceOnUse"
       id="clipPath84">
      <path
         d="M 121.448,129.229 H 504.961 V 258.984 H 121.448 Z"
         id="path84" />
    </clipPath>
    <clipPath
       clipPathUnits="userSpaceOnUse"
       id="clipPath88">
      <path
         d="M 121.448,129.229 H 504.961 V 258.984 H 121.448 Z"
         transform="matrix(1,0,0,-1.003375,-121.44811,152.48079)"
         id="path88" />
    </clipPath>
    <clipPath
       clipPathUnits="userSpaceOnUse"
       id="clipPath90">
      <path
         d="M 121.448,129.229 H 504.961 V 258.984 H 121.448 Z"
         transform="matrix(1,0,0,-1.003375,-284.82164,151.67006)"
         id="path90" />
    </clipPath>
    <clipPath
       clipPathUnits="userSpaceOnUse"
       id="clipPath94">
      <path
         d="M 121.448,129.229 H 504.961 V 258.984 H 121.448 Z"
         transform="matrix(1,0,0,-1.003375,-209.1947,131.47112)"
         id="path94" />
    </clipPath>
    <clipPath
       clipPathUnits="userSpaceOnUse"
       id="clipPath96">
      <path
         d="M 121.448,129.229 H 504.961 V 258.984 H 121.448 Z"
         transform="matrix(1,0,0,-1.003375,-419.06063,131.47112)"
         id="path96" />
    </clipPath>
    <clipPath
       clipPathUnits="userSpaceOnUse"
       id="clipPath98">
      <path
         d="M 121.448,129.229 H 504.961 V 258.984 H 121.448 Z"
         transform="translate(-141.00331,-244.6538)"
         id="path98" />
    </clipPath>
    <clipPath
       clipPathUnits="userSpaceOnUse"
       id="clipPath100">
      <path
         d="M 121.448,129.229 H 504.961 V 258.984 H 121.448 Z"
         transform="translate(-163.33681,-244.6538)"
         id="path100" />
    </clipPath>
    <clipPath
       clipPathUnits="userSpaceOnUse"
       id="clipPath102">
      <path
         d="M 121.448,129.229 H 504.961 V 258.984 H 121.448 Z"
         transform="translate(-374.00421,-244.6538)"
         id="path102" />
    </clipPath>
    <clipPath
       clipPathUnits="userSpaceOnUse"
       id="clipPath104">
      <path
         d="M 121.448,129.229 H 504.961 V 258.984 H 121.448 Z"
         transform="translate(-351.67111,-244.6538)"
         id="path104" />
    </clipPath>
    <clipPath
       clipPathUnits="userSpaceOnUse"
       id="clipPath106">
      <path
         d="M 121.448,129.229 H 504.961 V 258.984 H 121.448 Z"
         transform="translate(-141.6283,-169.94581)"
         id="path106" />
    </clipPath>
    <clipPath
       clipPathUnits="userSpaceOnUse"
       id="clipPath108">
      <path
         d="M 121.448,129.229 H 504.961 V 258.984 H 121.448 Z"
         transform="translate(-163.9618,-169.94581)"
         id="path108" />
    </clipPath>
    <clipPath
       clipPathUnits="userSpaceOnUse"
       id="clipPath110">
      <path
         d="M 121.448,129.229 H 504.961 V 258.984 H 121.448 Z"
         transform="translate(-374.62911,-169.94581)"
         id="path110" />
    </clipPath>
    <clipPath
       clipPathUnits="userSpaceOnUse"
       id="clipPath112">
      <path
         d="M 121.448,129.229 H 504.961 V 258.984 H 121.448 Z"
         transform="translate(-352.29611,-169.94581)"
         id="path112" />
    </clipPath>
    <clipPath
       clipPathUnits="userSpaceOnUse"
       id="clipPath114">
      <path
         d="M 121.448,129.229 H 504.961 V 258.984 H 121.448 Z"
         transform="translate(-291.96211,-214.6118)"
         id="path114" />
    </clipPath>
    <clipPath
       clipPathUnits="userSpaceOnUse"
       id="clipPath116">
      <path
         d="M 121.448,129.229 H 504.961 V 258.984 H 121.448 Z"
         transform="translate(-125.62831,-214.6118)"
         id="path116" />
    </clipPath>
    <clipPath
       clipPathUnits="userSpaceOnUse"
       id="clipPath118">
      <path
         d="M 121.448,129.229 H 504.961 V 258.984 H 121.448 Z"
         transform="translate(-504.96111,-214.6118)"
         id="path118" />
    </clipPath>
    <clipPath
       clipPathUnits="userSpaceOnUse"
       id="clipPath120">
      <path
         d="M 121.448,129.229 H 504.961 V 258.984 H 121.448 Z"
         transform="translate(-338.62811,-214.6118)"
         id="path120" />
    </clipPath>
    <clipPath
       clipPathUnits="userSpaceOnUse"
       id="clipPath122">
      <path
         d="M 121.448,129.229 H 504.961 V 258.984 H 121.448 Z"
         transform="translate(-338.62811,-140.2789)"
         id="path122" />
    </clipPath>
    <clipPath
       clipPathUnits="userSpaceOnUse"
       id="clipPath124">
      <path
         d="M 121.448,129.229 H 504.961 V 258.984 H 121.448 Z"
         transform="translate(-504.96111,-140.2789)"
         id="path124" />
    </clipPath>
    <clipPath
       clipPathUnits="userSpaceOnUse"
       id="clipPath126">
      <path
         d="M 121.448,129.229 H 504.961 V 258.984 H 121.448 Z"
         transform="translate(-125.62831,-140.2789)"
         id="path126" />
    </clipPath>
    <clipPath
       clipPathUnits="userSpaceOnUse"
       id="clipPath128">
      <path
         d="M 121.448,129.229 H 504.961 V 258.984 H 121.448 Z"
         transform="translate(-291.9611,-140.2789)"
         id="path128" />
    </clipPath>
  </defs>
  <g
     inkscape:label="Calque 1"
     inkscape:groupmode="layer"
     id="layer1"
     transform="translate(-38.940874,-74.711538)">
    <path
       id="path70"
       d="m 167.856,234.202 h 95.976 v 21.058 h -95.976 z m 95.976,10.528 h 29.659 m -167.147,0 h 41.512 m 216.751,-10.528 h 86.661 v 21.058 h -86.661 z m 86.661,10.528 h 26.727 m -158.841,0 h 45.453"
       style="fill:none;stroke:#131413;stroke-width:0.5;stroke-linecap:butt;stroke-linejoin:round;stroke-miterlimit:10;stroke-dasharray:none;stroke-opacity:1"
       transform="matrix(0.35277776,0,0,-0.35277776,-3.9448973,165.75839)"
       clip-path="url(#clipPath71)"
       inkscape:export-filename="fig-conventions.pdf"
       inkscape:export-xdpi="96"
       inkscape:export-ydpi="96" />
    <path
       id="path72"
       d="m 47.723799,75.437074 h -0.276986 v 2.025716 h 0.276986 z m 0,0"
       style="fill:#131413;fill-opacity:1;fill-rule:nonzero;stroke:none;stroke-width:0.352184"
       aria-label="I" />
    <path
       id="path73"
       d="M 1.5104031,-5.7606393 H 0.72524688 V 9.2812188e-4 H 1.5104031 Z m 0,0"
       style="fill:#131413;fill-opacity:1;fill-rule:nonzero;stroke:none"
       aria-label="I"
       transform="matrix(0.35277776,0,0,0.35159116,125.09525,76.736928)"
       clip-path="url(#clipPath74)" />
    <path
       id="path75"
       d="m 3.8321678,-1.6814652 0.5625,1.681436980078 H 5.2501366 L 3.1641991,-5.7615956 H 2.2852928 L 0.11732406,-2.8219922e-5 h 0.796875 L 1.5118553,-1.6814652 Z M 1.7579491,-2.3634467 2.6837303,-4.9032396 h 0.011719 l 0.8554687,2.5397929 z m 214.3066409,0.6819815 0.5625,1.681436980078 h 0.85547 L 215.39662,-5.7615956 h -0.87891 l -2.16796,5.761567380078 h 0.79687 L 213.74428,-1.6814652 Z m -2.07422,-0.6819815 0.92578,-2.5397929 h 0.0117 l 0.85547,2.5397929 z m 0,0"
       style="fill:#131413;fill-opacity:1;fill-rule:nonzero;stroke:none"
       aria-label="AA"
       transform="matrix(0.35277776,0,0,0.35159116,39.097922,85.776506)"
       clip-path="url(#clipPath76)" />
    <path
       id="path77"
       d="m 1.3717238,-5.102535 h 1.4179687 c 0.8671875,0 1.1953125,0.3057158 1.1953125,0.8465977 0,0.705498 -0.4570312,0.9289057 -1.2070312,0.9289057 h -1.40625 z M 0.59828625,5.6753398e-4 H 3.0709425 c 1.2773438,0 1.9570313,-0.77604785398 1.9570313,-1.70495363398 0,-0.9876972 -0.65625,-1.2463799 -1.0429688,-1.3992378 0.6445313,-0.3057158 0.7734375,-0.8348393 0.7734375,-1.211105 0,-0.7878061 -0.5507812,-1.4462709 -1.6289062,-1.4462709 H 0.59828625 Z M 1.3717238,-2.6920833 H 2.90688 c 0.6328125,0 1.3476563,0.1646162 1.3476563,0.9759389 0,0.6349483 -0.4101563,1.04648879 -1.21875,1.04648879 H 1.3717238 Z M 203.55532,-5.102535 h 1.41797 c 0.86718,0 1.19531,0.3057158 1.19531,0.8465977 0,0.705498 -0.45703,0.9289057 -1.20703,0.9289057 h -1.40625 z m -0.77344,5.10310253398 h 2.47266 c 1.27734,0 1.95703,-0.77604785398 1.95703,-1.70495363398 0,-0.9876972 -0.65625,-1.2463799 -1.04297,-1.3992378 0.64453,-0.3057158 0.77344,-0.8348393 0.77344,-1.211105 0,-0.7878061 -0.55079,-1.4462709 -1.62891,-1.4462709 h -2.53125 z M 203.55532,-2.6920833 h 1.53515 c 0.63282,0 1.34766,0.1646162 1.34766,0.9759389 0,0.6349483 -0.41016,1.04648879 -1.21875,1.04648879 h -1.66406 z m 0,0"
       style="fill:#131413;fill-opacity:1;fill-rule:nonzero;stroke:none"
       aria-label="BB"
       transform="matrix(0.35277776,0,0,0.35159116,96.732471,86.061546)"
       clip-path="url(#clipPath78)" />
    <path
       id="path79"
       d="m 71.439141,87.657516 v -1.47588 h -0.24804 v 0.81029 c 0,0.21497 -0.0951,0.49196 -0.40928,0.49196 -0.16123,0 -0.28525,-0.0785 -0.28525,-0.32247 v -0.97978 h -0.24805 v 1.06247 c 0,0.3514 0.26045,0.45475 0.47956,0.45475 0.23978,0 0.3638,-0.091 0.47129,-0.26045 l 0.004,0.004 v 0.21498 z m 0,0"
       style="fill:#131413;fill-opacity:1;fill-rule:nonzero;stroke:none;stroke-width:0.352184"
       aria-label="u" />
    <path
       id="path80"
       d="m 145.47494,88.230086 v -1.47588 h -0.24805 v 0.81029 c 0,0.21497 -0.0951,0.49196 -0.40928,0.49196 -0.16123,0 -0.28525,-0.0786 -0.28525,-0.32246 v -0.97979 h -0.24805 v 1.06247 c 0,0.3514 0.26045,0.45475 0.47956,0.45475 0.23978,0 0.3638,-0.091 0.47129,-0.26045 l 0.004,0.004 v 0.21497 z m 0,0"
       style="fill:#131413;fill-opacity:1;fill-rule:nonzero;stroke:none;stroke-width:0.352184"
       aria-label="u" />
    <path
       id="path81"
       d="m 70.723941,91.213886 c -0.30592,0.43822 -0.47542,0.83922 -0.47542,1.33532 0,0.52503 0.19017,0.88056 0.48369,1.31878 h 0.1695 c -0.22738,-0.44235 -0.38861,-0.78548 -0.38861,-1.25264 0,-0.67799 0.1447,-0.94671 0.38448,-1.40146 z m 0.678,1.0418 c 0.0165,-0.11162 0.0579,-0.28526 0.33899,-0.28526 0.23565,0 0.34727,0.0868 0.34727,0.23978 0,0.14883 -0.0703,0.1695 -0.12816,0.17777 l -0.40927,0.0496 c -0.41342,0.0496 -0.45062,0.33899 -0.45062,0.46302 0,0.25631 0.19017,0.42581 0.46302,0.42581 0.28939,0 0.43821,-0.13642 0.5333,-0.23978 0.0124,0.11576 0.0455,0.22738 0.26458,0.22738 0.0579,0 0.0951,-0.0165 0.13643,-0.0289 v -0.1819 c -0.0289,0.008 -0.0579,0.0124 -0.0827,0.0124 -0.0496,0 -0.0827,-0.0248 -0.0827,-0.0868 v -0.85163 c 0,-0.37621 -0.42994,-0.40928 -0.54983,-0.40928 -0.36381,0 -0.59945,0.13643 -0.61185,0.48783 z m 0.68213,0.51676 c 0,0.19844 -0.22738,0.34727 -0.45889,0.34727 -0.18604,0 -0.26872,-0.0951 -0.26872,-0.25632 0,-0.18603 0.19431,-0.22324 0.31833,-0.23978 0.30592,-0.0372 0.36793,-0.062 0.40928,-0.0909 z m 0.76067,1.09554 c 0.30593,-0.43408 0.47956,-0.83509 0.47956,-1.33118 0,-0.52917 -0.1943,-0.88057 -0.48783,-1.32292 h -0.16949 c 0.22737,0.44648 0.3886,0.78962 0.3886,1.25677 0,0.678 -0.14469,0.94671 -0.38447,1.39733 z m 0,0"
       style="fill:#131413;fill-opacity:1;fill-rule:nonzero;stroke:none;stroke-width:0.352184"
       aria-label="(a)" />
    <path
       id="path82"
       d="m 144.75973,91.213886 c -0.30592,0.43822 -0.47542,0.83922 -0.47542,1.33532 0,0.52503 0.19017,0.88056 0.48369,1.31878 h 0.1695 c -0.22738,-0.44235 -0.38861,-0.78548 -0.38861,-1.25264 0,-0.67799 0.1447,-0.94671 0.38448,-1.40146 z m 0.6749,2.07119 v -0.1819 h 0.004 c 0.0496,0.0786 0.1571,0.22324 0.40928,0.22324 0.50436,0 0.64906,-0.47129 0.64906,-0.82269 0,-0.41754 -0.22325,-0.73587 -0.61599,-0.73587 -0.17363,0 -0.32246,0.0703 -0.42995,0.22738 h -0.004 v -0.73588 h -0.24805 v 2.02572 z m 0.80615,-0.74414 c 0,0.3266 -0.12816,0.57051 -0.40101,0.57051 -0.15709,0 -0.40514,-0.10335 -0.40514,-0.4961 0,-0.23977 0.0413,-0.62425 0.40101,-0.62425 0.38447,0 0.40514,0.36381 0.40514,0.54984 z m 0.63975,1.32705 c 0.30593,-0.43408 0.47956,-0.83509 0.47956,-1.33118 0,-0.52917 -0.1943,-0.88057 -0.48782,-1.32292 h -0.1695 c 0.22737,0.44648 0.3886,0.78962 0.3886,1.25677 0,0.678 -0.14469,0.94671 -0.38447,1.39733 z m 0,0"
       style="fill:#131413;fill-opacity:1;fill-rule:nonzero;stroke:none;stroke-width:0.352184"
       aria-label="(b)" />
    <path
       id="path83"
       d="m 167.249,159.476 h 95.975 v 21.058 h -95.975 z m 95.975,10.537 29.66,-0.008 m -167.147,0.008 41.512,-0.008 m 216.75,-10.529 h 86.661 v 21.058 h -86.661 z m 86.661,10.537 26.728,-0.008 m -158.842,0.008 45.453,-0.008"
       style="fill:none;stroke:#131413;stroke-width:0.5;stroke-linecap:butt;stroke-linejoin:round;stroke-miterlimit:10;stroke-dasharray:none;stroke-opacity:1"
       transform="matrix(0.35277776,0,0,-0.35277776,-3.9448973,165.75839)"
       clip-path="url(#clipPath84)" />
    <path
       id="path85"
       d="m 47.518127,101.81273 h -0.276985 v 2.02571 h 0.276985 z m 0,0"
       style="fill:#131413;fill-opacity:1;fill-rule:nonzero;stroke:none;stroke-width:0.352184"
       aria-label="I" />
    <path
       id="path86"
       d="m 125.42862,101.08203 h -0.27699 v 2.02571 h 0.27699 z m 0,0"
       style="fill:#131413;fill-opacity:1;fill-rule:nonzero;stroke:none;stroke-width:0.352184"
       aria-label="I" />
    <path
       id="path87"
       d="m 3.8327078,-1.6828935 0.5625,1.68143704 H 5.2506766 L 3.1647391,-5.7630238 H 2.2858328 l -2.16796874,5.76156734 h 0.796875 L 1.5123953,-1.6828935 Z m -2.0742187,-0.6819814 0.9257812,-2.539793 h 0.011719 l 0.8554687,2.539793 z m 214.2919909,0.6819814 0.5625,1.68143704 h 0.85547 l -2.08594,-5.76156734 h -0.8789 l -2.16797,5.76156734 h 0.79687 l 0.59766,-1.68143704 z m -2.07422,-0.6819814 0.92578,-2.539793 h 0.0117 l 0.85547,2.539793 z m 0,0"
       style="fill:#131413;fill-opacity:1;fill-rule:nonzero;stroke:none"
       aria-label="AA"
       transform="matrix(0.35277776,0,0,0.35159116,38.899294,112.1475)"
       clip-path="url(#clipPath88)" />
    <path
       id="path89"
       d="m 1.3722638,-5.1039632 h 1.4179687 c 0.8671875,0 1.1953125,0.3057158 1.1953125,0.8465976 0,0.7054981 -0.4570312,0.9289058 -1.2070312,0.9289058 h -1.40625 z M 0.59882625,-8.6070762e-4 H 3.0714825 c 1.2773438,0 1.9570313,-0.77604785238 1.9570313,-1.70495359238 0,-0.9876973 -0.65625,-1.2463799 -1.0429688,-1.3992378 0.6445313,-0.3057158 0.7734375,-0.8348394 0.7734375,-1.211105 0,-0.7878061 -0.5507812,-1.446271 -1.6289062,-1.446271 H 0.59882625 Z M 1.3722638,-2.6935116 H 2.90742 c 0.6328125,0 1.3476563,0.1646162 1.3476563,0.975939 0,0.6349482 -0.4101563,1.04648875 -1.21875,1.04648875 H 1.3722638 Z M 203.55586,-5.1039632 h 1.41797 c 0.86718,0 1.19531,0.3057158 1.19531,0.8465976 0,0.7054981 -0.45703,0.9289058 -1.20703,0.9289058 h -1.40625 z m -0.77344,5.10310249238 h 2.47266 c 1.27734,0 1.95703,-0.77604785238 1.95703,-1.70495359238 0,-0.9876973 -0.65625,-1.2463799 -1.04297,-1.3992378 0.64453,-0.3057158 0.77344,-0.8348394 0.77344,-1.211105 0,-0.7878061 -0.55079,-1.446271 -1.62891,-1.446271 h -2.53125 z M 203.55586,-2.6935116 h 1.53515 c 0.63282,0 1.34766,0.1646162 1.34766,0.975939 0,0.6349482 -0.41016,1.04648875 -1.21875,1.04648875 h -1.66406 z m 0,0"
       style="fill:#131413;fill-opacity:1;fill-rule:nonzero;stroke:none"
       aria-label="BB"
       transform="matrix(0.35277776,0,0,0.35159116,96.533841,112.43254)"
       clip-path="url(#clipPath90)" />
    <path
       id="path91"
       d="m 71.239671,114.02697 v -1.47588 h -0.24804 v 0.81029 c 0,0.21498 -0.0951,0.49196 -0.40928,0.49196 -0.16123,0 -0.28526,-0.0786 -0.28526,-0.32246 v -0.97979 h -0.24804 v 1.06247 c 0,0.3514 0.26045,0.45475 0.47956,0.45475 0.23977,0 0.3638,-0.0909 0.47128,-0.26044 l 0.004,0.004 v 0.21497 z m 0,0"
       style="fill:#131413;fill-opacity:1;fill-rule:nonzero;stroke:none;stroke-width:0.352184"
       aria-label="u" />
    <path
       id="path92"
       d="m 145.27546,114.60058 v -1.47588 h -0.24805 v 0.81029 c 0,0.21497 -0.0951,0.49196 -0.40927,0.49196 -0.16123,0 -0.28526,-0.0786 -0.28526,-0.32246 v -0.97979 h -0.24804 v 1.06247 c 0,0.3514 0.26045,0.45475 0.47955,0.45475 0.23978,0 0.36381,-0.0909 0.47129,-0.26045 l 0.004,0.004 v 0.21497 z m 0,0"
       style="fill:#131413;fill-opacity:1;fill-rule:nonzero;stroke:none;stroke-width:0.352184"
       aria-label="u" />
    <path
       id="path93"
       d="m 1.8995844,-5.8899508 c -0.8671875,1.2463799 -1.34765627,2.3869351 -1.34765627,3.7979312 0,1.49330417 0.53906247,2.50451804 1.37109377,3.7508979 H 2.4034906 C 1.7589594,0.40074014 1.3019281,-0.57519883 1.3019281,-1.9038868 c 0,-1.9283613 0.4101563,-2.6926509 1.0898438,-3.986064 z m 4.6054687,3.1041914 C 6.4464594,-3.514774 6.0245844,-4.3143385 4.9230219,-4.3143385 c -1.3828125,0 -2.0039063,1.0347305 -2.0039063,2.3281436 0,1.21110496 0.6914063,2.10473582 1.875,2.10473582 1.2304688,0 1.640625,-0.94066407 1.7109375,-1.59912892 H 5.8253656 c -0.1289062,0.63494825 -0.5390625,0.98769728 -1.0078125,0.98769728 -0.9726562,0 -1.1484375,-0.88187258 -1.1484375,-1.61088718 0,-0.740773 0.28125,-1.5756123 1.1601563,-1.5756123 0.5859375,0 0.9023437,0.3292324 0.9960937,0.8936308 z m 0.9550782,4.4446377 c 0.8671875,-1.23462156 1.359375,-2.37517674 1.359375,-3.7861728 0,-1.5050625 -0.5507813,-2.5045181 -1.3828125,-3.7626563 H 6.956225 c 0.6445313,1.2698965 1.1015625,2.2458355 1.1015625,3.5745235 0,1.92836128 -0.4101562,2.69265083 -1.0898437,3.9743056 z m 0,0"
       style="fill:#131413;fill-opacity:1;fill-rule:nonzero;stroke:none"
       aria-label="(c)"
       transform="matrix(0.35277776,0,0,0.35159116,69.854341,119.53431)"
       clip-path="url(#clipPath94)" />
    <path
       id="path95"
       d="m 1.8988988,-5.8899508 c -0.8671875,1.2463799 -1.3476563,2.3869351 -1.3476563,3.7979312 0,1.49330417 0.5390625,2.50451804 1.3710938,3.7508979 H 2.402805 C 1.7582738,0.40074014 1.3012425,-0.57519883 1.3012425,-1.9038868 c 0,-1.9283613 0.4101563,-2.6926509 1.0898438,-3.986064 z m 4.78125,0.1293413 h -0.703125 v 2.1047359 l -0.023437,0.047033 C 5.7895238,-3.8440064 5.4613988,-4.3143385 4.69968,-4.3143385 c -1.1132812,0 -1.7460937,0.9053892 -1.7460937,2.0929776 0,0.9994555 0.421875,2.33990182 1.8515625,2.33990182 0.3984375,0 0.890625,-0.12934131 1.1953125,-0.69373975 H 6.01218 V 9.5790957e-4 h 0.6679688 z m -3,3.6450733 c 0,-0.5291236 0.058594,-1.563854 1.1484375,-1.563854 1.0195312,0 1.1367187,1.0935219 1.1367187,1.7755034 0,1.11703856 -0.703125,1.41099608 -1.1484375,1.41099608 -0.7734375,0 -1.1367187,-0.69373978 -1.1367187,-1.62264548 z m 4.2304687,3.7744145 c 0.8671875,-1.23462156 1.359375,-2.37517674 1.359375,-3.7861728 0,-1.5050625 -0.5507812,-2.5045181 -1.3828125,-3.7626563 H 7.4067113 c 0.6445312,1.2698965 1.1015625,2.2458355 1.1015625,3.5745235 0,1.92836128 -0.4101563,2.69265083 -1.0898438,3.9743056 z m 0,0"
       style="fill:#131413;fill-opacity:1;fill-rule:nonzero;stroke:none"
       aria-label="(d)"
       transform="matrix(0.35277776,0,0,0.35159116,143.89037,119.53431)"
       clip-path="url(#clipPath96)" />
    <path
       id="path97"
       d="M 0,0 H 18.803"
       style="fill:none;stroke:#131413;stroke-width:2;stroke-linecap:butt;stroke-linejoin:miter;stroke-miterlimit:10;stroke-dasharray:none;stroke-opacity:1"
       transform="matrix(0.35277776,0,0,-0.35277776,45.797934,79.449966)"
       clip-path="url(#clipPath98)" />
    <path
       id="path99"
       d="M 0,0 -4.975,-2.033 -3.794,0 -4.975,2.032 Z"
       style="fill:#131413;fill-opacity:1;fill-rule:nonzero;stroke:none"
       transform="matrix(0.35277776,0,0,-0.35277776,53.676696,79.449966)"
       clip-path="url(#clipPath100)" />
    <path
       id="path101"
       d="M 0,0 H -18.803"
       style="fill:none;stroke:#131413;stroke-width:2;stroke-linecap:butt;stroke-linejoin:miter;stroke-miterlimit:10;stroke-dasharray:none;stroke-opacity:1"
       transform="matrix(0.35277776,0,0,-0.35277776,127.99547,79.449966)"
       clip-path="url(#clipPath102)" />
    <path
       id="path103"
       d="M 0,0 4.975,2.033 3.794,0 4.975,-2.032 Z"
       style="fill:#131413;fill-opacity:1;fill-rule:nonzero;stroke:none"
       transform="matrix(0.35277776,0,0,-0.35277776,120.11685,79.449966)"
       clip-path="url(#clipPath104)" />
    <path
       id="path105"
       d="M 0,0 H 18.803"
       style="fill:none;stroke:#131413;stroke-width:2;stroke-linecap:butt;stroke-linejoin:miter;stroke-miterlimit:10;stroke-dasharray:none;stroke-opacity:1"
       transform="matrix(0.35277776,0,0,-0.35277776,46.018419,105.80529)"
       clip-path="url(#clipPath106)" />
    <path
       id="path107"
       d="M 0,0 -4.975,-2.033 -3.794,0 -4.975,2.032 Z"
       style="fill:#131413;fill-opacity:1;fill-rule:nonzero;stroke:none"
       transform="matrix(0.35277776,0,0,-0.35277776,53.897181,105.80529)"
       clip-path="url(#clipPath108)" />
    <path
       id="path109"
       d="M 0,0 H -18.803"
       style="fill:none;stroke:#131413;stroke-width:2;stroke-linecap:butt;stroke-linejoin:miter;stroke-miterlimit:10;stroke-dasharray:none;stroke-opacity:1"
       transform="matrix(0.35277776,0,0,-0.35277776,128.21592,105.80529)"
       clip-path="url(#clipPath110)" />
    <path
       id="path111"
       d="M 0,0 4.975,2.033 3.794,0 4.975,-2.032 Z"
       style="fill:#131413;fill-opacity:1;fill-rule:nonzero;stroke:none"
       transform="matrix(0.35277776,0,0,-0.35277776,120.33734,105.80529)"
       clip-path="url(#clipPath112)" />
    <path
       id="path113"
       d="M 0,0 H -162.804"
       style="fill:none;stroke:#0078ba;stroke-width:2;stroke-linecap:butt;stroke-linejoin:miter;stroke-miterlimit:4;stroke-dasharray:none;stroke-opacity:1"
       transform="matrix(0.35277776,0,0,-0.35277776,99.052841,90.048116)"
       clip-path="url(#clipPath114)" />
    <path
       id="path115"
       d="M 0,0 4.975,2.032 3.794,0 4.975,-2.032 Z"
       style="fill:#0078ba;fill-opacity:1;fill-rule:nonzero;stroke:none"
       transform="matrix(0.35277776,0,0,-0.35277776,40.373976,90.048116)"
       clip-path="url(#clipPath116)" />
    <path
       id="path117"
       d="M 0,0 H -162.804"
       style="fill:none;stroke:#0078ba;stroke-width:2;stroke-linecap:butt;stroke-linejoin:miter;stroke-miterlimit:4;stroke-dasharray:none;stroke-opacity:1"
       transform="matrix(0.35277776,0,0,-0.35277776,174.19415,90.048116)"
       clip-path="url(#clipPath118)" />
    <path
       id="path119"
       d="M 0,0 4.975,2.032 3.793,0 4.975,-2.032 Z"
       style="fill:#0078ba;fill-opacity:1;fill-rule:nonzero;stroke:none"
       transform="matrix(0.35277776,0,0,-0.35277776,115.51557,90.048116)"
       clip-path="url(#clipPath120)" />
    <path
       id="path121"
       d="M 0,0 H 162.803"
       style="fill:none;stroke:#0078ba;stroke-width:2;stroke-linecap:butt;stroke-linejoin:miter;stroke-miterlimit:4;stroke-dasharray:none;stroke-opacity:1"
       transform="matrix(0.35277776,0,0,-0.35277776,115.51557,116.27111)"
       clip-path="url(#clipPath122)" />
    <path
       id="path123"
       d="M 0,0 -4.974,-2.033 -3.794,0 -4.974,2.032 Z"
       style="fill:#0078ba;fill-opacity:1;fill-rule:nonzero;stroke:none"
       transform="matrix(0.35277776,0,0,-0.35277776,174.19415,116.27111)"
       clip-path="url(#clipPath124)" />
    <path
       id="path125"
       d="M 0,0 H 162.803"
       style="fill:none;stroke:#0078ba;stroke-width:2;stroke-linecap:butt;stroke-linejoin:miter;stroke-miterlimit:4;stroke-dasharray:none;stroke-opacity:1"
       transform="matrix(0.35277776,0,0,-0.35277776,40.373976,116.27111)"
       clip-path="url(#clipPath126)" />
    <path
       id="path127"
       d="M 0,0 -4.974,-2.033 -3.794,0 -4.974,2.032 Z"
       style="fill:#0078ba;fill-opacity:1;fill-rule:nonzero;stroke:none"
       transform="matrix(0.35277776,0,0,-0.35277776,99.052491,116.27111)"
       clip-path="url(#clipPath128)" />
    <path
       id="path130"
       d="m 73.493834,123.57782 c -0.293522,-0.29353 -0.37207,-0.70694 -0.37207,-1.10795 0,-0.40101 0.07855,-0.81028 0.37207,-1.1038 v -0.19017 c -0.409277,0.26045 -0.644922,0.82682 -0.644922,1.29397 0,0.47129 0.235645,1.0418 0.644922,1.29398 z m 1.091406,-0.56224 c -0.09508,0.0827 -0.219108,0.15296 -0.347265,0.15296 -0.132292,0 -0.243913,-0.0951 -0.243913,-0.23151 0,-0.23565 0.30179,-0.31006 0.463021,-0.31006 h 0.128157 z m 0.467155,0.17776 h -0.05374 c -0.148828,0.004 -0.14056,-0.14882 -0.14056,-0.26045 v -0.66559 c 0,-0.29765 -0.169499,-0.44235 -0.483691,-0.44235 -0.181901,0 -0.355534,0.0413 -0.525033,0.11162 v 0.22325 c 0.136426,-0.0703 0.305925,-0.1323 0.458887,-0.1323 0.248047,0 0.276985,0.12403 0.276985,0.339 v 0.10335 h -0.107487 c -0.520898,0 -0.756542,0.23565 -0.756542,0.50437 0,0.25218 0.190169,0.41341 0.438216,0.41341 0.177767,0 0.343131,-0.10336 0.458886,-0.22324 0.02481,0.13229 0.115756,0.22324 0.252181,0.22324 0.06201,0 0.144694,-0.0124 0.202572,-0.0413 z m 0.205673,-1.83141 c 0.293522,0.29766 0.37207,0.70693 0.37207,1.10794 0,0.40101 -0.07855,0.81442 -0.37207,1.10381 v 0.19017 c 0.409277,-0.25631 0.644921,-0.82269 0.644921,-1.29398 0,-0.47128 -0.235644,-1.03766 -0.644921,-1.29397 z m 2.9993,0.5085 c -0.14056,-0.0248 -0.28112,-0.0455 -0.425814,-0.0455 -0.56224,0 -0.715202,0.44649 -0.715202,0.78135 0,0.24391 0.09922,0.78135 0.715202,0.78135 0.148828,0 0.297656,-0.0372 0.44235,-0.0785 v -0.21911 c -0.119889,0.0661 -0.256315,0.0951 -0.388607,0.0951 -0.338997,0 -0.479557,-0.27286 -0.479557,-0.57465 0,-0.28938 0.132292,-0.58291 0.454753,-0.58291 0.136426,0 0.268717,0.0331 0.396875,0.0744 z m 1.036629,1.51722 c 0.611849,0 0.711067,-0.53744 0.711067,-0.78135 0,-0.33486 -0.148828,-0.78135 -0.711067,-0.78135 -0.56224,0 -0.715202,0.44649 -0.715202,0.78135 0,0.24391 0.09922,0.78135 0.715202,0.78135 z m 0,-0.20257 c -0.33073,0 -0.425814,-0.29766 -0.425814,-0.57878 0,-0.28112 0.09508,-0.57878 0.425814,-0.57878 0.330729,0 0.425814,0.29766 0.425814,0.57878 0,0.28112 -0.09508,0.57878 -0.425814,0.57878 z m 1.39733,-1.32705 H 80.42261 v 1.49654 h 0.268717 v -0.96738 c 0.103353,-0.1695 0.264584,-0.32659 0.475424,-0.32659 0.124023,0 0.206705,0.0868 0.206705,0.23151 v 1.06246 h 0.272852 v -1.09967 c 0,-0.22324 -0.152963,-0.42995 -0.417546,-0.42995 -0.227376,0 -0.413411,0.13229 -0.537435,0.31419 h -0.01653 z m 1.873788,1.49654 h 0.272851 l 0.644922,-1.49654 h -0.227376 l -0.525033,1.22369 -0.508496,-1.22369 h -0.276985 z m 2.325439,-0.70693 c 0.01654,-0.38447 -0.09922,-0.82269 -0.570508,-0.82269 -0.429947,0 -0.644921,0.39274 -0.644921,0.78135 0,0.24391 0.09922,0.78135 0.715201,0.78135 0.19017,0 0.3514,-0.0372 0.500228,-0.0827 v -0.21911 c -0.136426,0.0661 -0.272851,0.0992 -0.425814,0.0992 -0.326595,0 -0.491959,-0.22325 -0.500228,-0.53744 z m -0.917773,-0.18603 c 0.0083,-0.19844 0.09922,-0.43409 0.330729,-0.43409 0.243913,0 0.305924,0.23151 0.30179,0.43409 z m 1.654679,-0.60358 h -0.268717 v 1.49654 h 0.268717 v -0.96738 c 0.103353,-0.1695 0.264583,-0.32659 0.475423,-0.32659 0.124024,0 0.206706,0.0868 0.206706,0.23151 v 1.06246 h 0.272852 v -1.09967 c 0,-0.22324 -0.152963,-0.42995 -0.417546,-0.42995 -0.227376,0 -0.413412,0.13229 -0.537435,0.31419 h -0.01654 z m 1.770434,0 v -0.3018 l -0.272851,0.0289 v 0.27286 h -0.186035 v 0.20257 h 0.186035 v 0.90123 c 0,0.14883 0.08682,0.42582 0.446484,0.42582 0.07028,0 0.14056,-0.0124 0.21084,-0.0331 v -0.18603 c -0.04134,0.0124 -0.08682,0.0165 -0.132292,0.0165 -0.223242,0 -0.252181,-0.13643 -0.252181,-0.3266 v -0.79788 h 0.359668 v -0.20257 z m 0.775147,1.49654 h 0.268717 v -1.49654 h -0.268717 z m 0,-1.7694 h 0.268717 v -0.27285 h -0.268717 z m 1.410766,1.80248 c 0.611849,0 0.711068,-0.53744 0.711068,-0.78135 0,-0.33486 -0.148828,-0.78135 -0.711068,-0.78135 -0.562239,0 -0.715201,0.44649 -0.715201,0.78135 0,0.24391 0.09922,0.78135 0.715201,0.78135 z m 0,-0.20257 c -0.330729,0 -0.425813,-0.29766 -0.425813,-0.57878 0,-0.28112 0.09508,-0.57878 0.425813,-0.57878 0.33073,0 0.425814,0.29766 0.425814,0.57878 0,0.28112 -0.09508,0.57878 -0.425814,0.57878 z m 1.397331,-1.32705 h -0.268717 v 1.49654 h 0.268717 v -0.96738 c 0.103353,-0.1695 0.264584,-0.32659 0.475423,-0.32659 0.124024,0 0.206706,0.0868 0.206706,0.23151 v 1.06246 h 0.272852 v -1.09967 c 0,-0.22324 -0.152963,-0.42995 -0.417546,-0.42995 -0.227376,0 -0.413412,0.13229 -0.537435,0.31419 h -0.01653 z m 2.649967,0 h -0.268717 v 1.49654 h 0.268717 v -0.98391 c 0.08682,-0.1695 0.239779,-0.31006 0.434082,-0.31006 0.04548,0 0.08268,0.008 0.124024,0.0248 v -0.26045 h -0.08268 c -0.21084,0 -0.380339,0.12816 -0.475424,0.31419 h -0.01653 z m 1.981275,0.78961 c 0.01653,-0.38447 -0.09922,-0.82269 -0.570508,-0.82269 -0.429948,0 -0.644922,0.39274 -0.644922,0.78135 0,0.24391 0.09922,0.78135 0.715202,0.78135 0.190169,0 0.351399,-0.0372 0.500228,-0.0827 v -0.21911 c -0.136426,0.0661 -0.272852,0.0992 -0.425814,0.0992 -0.326595,0 -0.49196,-0.22325 -0.500228,-0.53744 z m -0.917774,-0.18603 c 0.0083,-0.19844 0.09922,-0.43409 0.33073,-0.43409 0.243912,0 0.305924,0.23151 0.30179,0.43409 z m 0.09922,-0.87644 h 0.235645 l 0.376203,-0.40927 h -0.310058 z m 2.316138,0.28526 c -0.14056,-0.0248 -0.28112,-0.0455 -0.425814,-0.0455 -0.56224,0 -0.715202,0.44649 -0.715202,0.78135 0,0.24391 0.09922,0.78135 0.715202,0.78135 0.148828,0 0.297656,-0.0372 0.44235,-0.0785 v -0.21911 c -0.119889,0.0661 -0.256315,0.0951 -0.388607,0.0951 -0.338997,0 -0.479557,-0.27286 -0.479557,-0.57465 0,-0.28938 0.132292,-0.58291 0.454753,-0.58291 0.136425,0 0.268717,0.0331 0.396875,0.0744 z m 1.536857,0.77721 c 0.01653,-0.38447 -0.09922,-0.82269 -0.570508,-0.82269 -0.429948,0 -0.644922,0.39274 -0.644922,0.78135 0,0.24391 0.09922,0.78135 0.715202,0.78135 0.190169,0 0.3514,-0.0372 0.500228,-0.0827 v -0.21911 c -0.136426,0.0661 -0.272852,0.0992 -0.425814,0.0992 -0.326595,0 -0.49196,-0.22325 -0.500228,-0.53744 z m -0.917775,-0.18603 c 0.0083,-0.19844 0.09922,-0.43409 0.330729,-0.43409 0.243913,0 0.305925,0.23151 0.301791,0.43409 z m 1.662948,-0.15297 c 0.111621,-0.13229 0.272851,-0.24804 0.450618,-0.24804 0.289388,0 0.343128,0.30592 0.343128,0.5333 0,0.25218 -0.0785,0.59118 -0.388603,0.59118 -0.177767,0 -0.272851,-0.0744 -0.405143,-0.19017 z m 0,-0.45061 h -0.268718 v 2.04225 h 0.268718 v -0.51263 l -0.01654,-0.20257 h 0.01654 c 0.124023,0.14882 0.264583,0.20257 0.450618,0.20257 0.446488,0 0.632518,-0.43822 0.632518,-0.82269 0,-0.37207 -0.15296,-0.74001 -0.582908,-0.74001 -0.223242,0 -0.401009,0.11576 -0.500228,0.31419 h -0.01654 z m 1.790076,0 v -0.3018 l -0.27286,0.0289 v 0.27286 h -0.18603 v 0.20257 h 0.18603 v 0.90123 c 0,0.14883 0.0868,0.42582 0.44649,0.42582 0.0703,0 0.14056,-0.0124 0.21084,-0.0331 v -0.18603 c -0.0413,0.0124 -0.0868,0.0165 -0.13229,0.0165 -0.22325,0 -0.25218,-0.13643 -0.25218,-0.3266 v -0.79788 h 0.35966 v -0.20257 z m 1.86965,0.78961 c 0.0165,-0.38447 -0.0992,-0.82269 -0.57051,-0.82269 -0.42995,0 -0.64492,0.39274 -0.64492,0.78135 0,0.24391 0.0992,0.78135 0.7152,0.78135 0.19017,0 0.3514,-0.0372 0.50023,-0.0827 v -0.21911 c -0.13643,0.0661 -0.27285,0.0992 -0.42581,0.0992 -0.3266,0 -0.49196,-0.22325 -0.50023,-0.53744 z m -0.91777,-0.18603 c 0.008,-0.19844 0.0992,-0.43409 0.33072,-0.43409 0.24392,0 0.30593,0.23151 0.3018,0.43409 z m 2.60966,0.89296 v -1.49654 h -0.27285 v 0.96738 c -0.10336,0.1695 -0.26459,0.32659 -0.4713,0.32659 -0.12402,0 -0.21084,-0.0868 -0.21084,-0.22737 v -1.0666 h -0.26871 v 1.09967 c 0,0.22324 0.14883,0.42995 0.41754,0.42995 0.22325,0 0.40928,-0.13229 0.53331,-0.3142 h 0.0165 l -0.0165,0.28112 z m 0.80305,-1.49654 h -0.26872 v 1.49654 h 0.26872 v -0.98391 c 0.0868,-0.1695 0.23978,-0.31006 0.43408,-0.31006 0.0455,0 0.0827,0.008 0.12403,0.0248 v -0.26045 h -0.0827 c -0.21084,0 -0.38033,0.12816 -0.47542,0.31419 h -0.0165 z m 1.02629,1.49654 c 0,0.0579 -0.004,0.12816 -0.0248,0.18604 -0.0207,0.0579 -0.0537,0.10335 -0.11575,0.11989 v 0.10335 c 0.28525,-0.0248 0.34313,-0.24391 0.34313,-0.48782 v -0.26045 h -0.34314 v 0.33899 z m 2.18488,0.22325 c -0.29352,-0.29353 -0.37207,-0.70694 -0.37207,-1.10795 0,-0.40101 0.0786,-0.81028 0.37207,-1.1038 v -0.19017 c -0.40927,0.26045 -0.64492,0.82682 -0.64492,1.29397 0,0.47129 0.23565,1.0418 0.64492,1.29398 z m 0.61495,-1.26918 c 0.11576,-0.13229 0.27285,-0.24804 0.45062,-0.24804 0.28939,0 0.34313,0.30592 0.34313,0.5333 0,0.25218 -0.0785,0.59118 -0.38447,0.59118 -0.17777,0 -0.27699,-0.0744 -0.40928,-0.19017 z m -0.26871,1.06247 h 0.2191 l 0.0331,-0.18603 h 0.0165 c 0.12403,0.14882 0.26872,0.20257 0.45476,0.20257 0.44235,0 0.62839,-0.43822 0.62839,-0.82269 0,-0.37207 -0.15297,-0.74001 -0.58292,-0.74001 -0.22324,0 -0.40101,0.11576 -0.50023,0.31419 h -0.0165 l 0.0165,-0.28111 v -0.68213 h -0.26871 z m 1.63814,-2.00918 c 0.29352,0.29766 0.37207,0.70693 0.37207,1.10794 0,0.40101 -0.0785,0.81442 -0.37207,1.10381 v 0.19017 c 0.40928,-0.25631 0.64492,-0.82269 0.64492,-1.29398 0,-0.47128 -0.23564,-1.03766 -0.64492,-1.29397 z m 2.9993,0.5085 c -0.14056,-0.0248 -0.28112,-0.0455 -0.42582,-0.0455 -0.56224,0 -0.7152,0.44649 -0.7152,0.78135 0,0.24391 0.0992,0.78135 0.7152,0.78135 0.14883,0 0.29766,-0.0372 0.44236,-0.0785 v -0.21911 c -0.11989,0.0661 -0.25632,0.0951 -0.38861,0.0951 -0.339,0 -0.47956,-0.27286 -0.47956,-0.57465 0,-0.28938 0.13229,-0.58291 0.45475,-0.58291 0.13643,0 0.26872,0.0331 0.39688,0.0744 z m 1.03559,1.51722 c 0.61185,0 0.71107,-0.53744 0.71107,-0.78135 0,-0.33486 -0.14883,-0.78135 -0.71107,-0.78135 -0.56224,0 -0.7152,0.44649 -0.7152,0.78135 0,0.24391 0.0992,0.78135 0.7152,0.78135 z m 0,-0.20257 c -0.33072,0 -0.42581,-0.29766 -0.42581,-0.57878 0,-0.28112 0.0951,-0.57878 0.42581,-0.57878 0.33073,0 0.42582,0.29766 0.42582,0.57878 0,0.28112 -0.0951,0.57878 -0.42582,0.57878 z m 1.39837,-1.32705 h -0.26872 v 1.49654 h 0.26872 v -0.96738 c 0.10335,-0.1695 0.26458,-0.32659 0.47542,-0.32659 0.12403,0 0.20671,0.0868 0.20671,0.23151 v 1.06246 h 0.27285 v -1.09967 c 0,-0.22324 -0.15296,-0.42995 -0.41754,-0.42995 -0.22738,0 -0.41342,0.13229 -0.53744,0.31419 h -0.0165 z m 1.87379,1.49654 h 0.27285 l 0.64492,-1.49654 h -0.22738 l -0.52503,1.22369 -0.50849,-1.22369 h -0.27699 z m 2.32544,-0.70693 c 0.0165,-0.38447 -0.0992,-0.82269 -0.57051,-0.82269 -0.42995,0 -0.64492,0.39274 -0.64492,0.78135 0,0.24391 0.0992,0.78135 0.7152,0.78135 0.19017,0 0.3514,-0.0372 0.50023,-0.0827 v -0.21911 c -0.13643,0.0661 -0.27286,0.0992 -0.42582,0.0992 -0.32659,0 -0.49196,-0.22325 -0.50023,-0.53744 z m -0.91778,-0.18603 c 0.008,-0.19844 0.0992,-0.43409 0.33073,-0.43409 0.24391,0 0.30592,0.23151 0.30179,0.43409 z m 1.65468,-0.60358 h -0.26872 v 1.49654 h 0.26872 v -0.96738 c 0.10335,-0.1695 0.26459,-0.32659 0.47542,-0.32659 0.12403,0 0.20671,0.0868 0.20671,0.23151 v 1.06246 h 0.27285 v -1.09967 c 0,-0.22324 -0.15296,-0.42995 -0.41754,-0.42995 -0.22738,0 -0.41341,0.13229 -0.53744,0.31419 h -0.0165 z m 1.77044,0 v -0.3018 l -0.27286,0.0289 v 0.27286 h -0.18603 v 0.20257 h 0.18603 v 0.90123 c 0,0.14883 0.0868,0.42582 0.44649,0.42582 0.0703,0 0.14056,-0.0124 0.21084,-0.0331 v -0.18603 c -0.0413,0.0124 -0.0868,0.0165 -0.13229,0.0165 -0.22325,0 -0.25218,-0.13643 -0.25218,-0.3266 v -0.79788 h 0.35966 v -0.20257 z m 0.77411,1.49654 h 0.26871 v -1.49654 h -0.26871 z m 0,-1.7694 h 0.26871 v -0.27285 h -0.26871 z m 1.41077,1.80248 c 0.61184,0 0.71106,-0.53744 0.71106,-0.78135 0,-0.33486 -0.14883,-0.78135 -0.71106,-0.78135 -0.56224,0 -0.71521,0.44649 -0.71521,0.78135 0,0.24391 0.0992,0.78135 0.71521,0.78135 z m 0,-0.20257 c -0.33073,0 -0.42582,-0.29766 -0.42582,-0.57878 0,-0.28112 0.0951,-0.57878 0.42582,-0.57878 0.33072,0 0.42581,0.29766 0.42581,0.57878 0,0.28112 -0.0951,0.57878 -0.42581,0.57878 z m 1.39836,-1.32705 h -0.26872 v 1.49654 h 0.26872 v -0.96738 c 0.10335,-0.1695 0.26458,-0.32659 0.47542,-0.32659 0.12403,0 0.20671,0.0868 0.20671,0.23151 v 1.06246 h 0.27285 v -1.09967 c 0,-0.22324 -0.15296,-0.42995 -0.41755,-0.42995 -0.22737,0 -0.41341,0.13229 -0.53743,0.31419 h -0.0165 z m 3.34036,1.01285 c -0.10748,0.13229 -0.26458,0.24805 -0.44235,0.24805 -0.28111,0 -0.34726,-0.26045 -0.34726,-0.49609 0,-0.31833 0.0951,-0.59532 0.39687,-0.59532 0.15297,0 0.29766,0.0744 0.39274,0.18604 z m 0.27285,-1.01285 h -0.25218 v 0.16949 h -0.0207 c -0.11576,-0.13642 -0.25218,-0.20257 -0.43408,-0.20257 -0.43822,0 -0.64492,0.38861 -0.64492,0.78135 0,0.38447 0.15709,0.74827 0.59117,0.74827 0.21084,0 0.40101,-0.12815 0.48783,-0.31419 h 0.0207 l -0.0207,0.16537 c 0,0.28938 -0.0703,0.52503 -0.46302,0.52503 -0.1571,0 -0.31833,-0.0413 -0.46302,-0.11162 l -0.0289,0.23151 c 0.15296,0.0579 0.31419,0.0827 0.47542,0.0827 0.56224,0 0.75241,-0.28525 0.75241,-0.74001 z m 1.62161,0.78961 c 0.0166,-0.38447 -0.0992,-0.82269 -0.5705,-0.82269 -0.42995,0 -0.64493,0.39274 -0.64493,0.78135 0,0.24391 0.0992,0.78135 0.7152,0.78135 0.19017,0 0.3514,-0.0372 0.50023,-0.0827 v -0.21911 c -0.13643,0.0661 -0.27285,0.0992 -0.42581,0.0992 -0.3266,0 -0.49196,-0.22325 -0.50023,-0.53744 z m -0.91777,-0.18603 c 0.008,-0.19844 0.0992,-0.43409 0.33073,-0.43409 0.24391,0 0.30592,0.23151 0.30179,0.43409 z m 0.0992,-0.87644 h 0.23564 l 0.37621,-0.40927 h -0.31006 z m 1.55546,0.27286 h -0.26872 v 1.49654 h 0.26872 v -0.96738 c 0.10335,-0.1695 0.26458,-0.32659 0.47542,-0.32659 0.12402,0 0.2067,0.0868 0.2067,0.23151 v 1.06246 h 0.27286 v -1.09967 c 0,-0.22324 -0.15296,-0.42995 -0.41755,-0.42995 -0.22737,0 -0.41341,0.13229 -0.53743,0.31419 h -0.0165 z m 2.58485,0.78961 c 0.0165,-0.38447 -0.0992,-0.82269 -0.57051,-0.82269 -0.42994,0 -0.64492,0.39274 -0.64492,0.78135 0,0.24391 0.0992,0.78135 0.7152,0.78135 0.19017,0 0.3514,-0.0372 0.50023,-0.0827 v -0.21911 c -0.13642,0.0661 -0.27285,0.0992 -0.42581,0.0992 -0.3266,0 -0.49196,-0.22325 -0.50023,-0.53744 z m -0.91777,-0.18603 c 0.008,-0.19844 0.0992,-0.43409 0.33073,-0.43409 0.24391,0 0.30592,0.23151 0.30179,0.43409 z m 0.0992,-0.87644 h 0.23564 l 0.37621,-0.40927 h -0.31006 z m 1.56373,0.27286 h -0.26872 v 1.49654 h 0.26872 v -0.98391 c 0.0868,-0.1695 0.23977,-0.31006 0.43408,-0.31006 0.0455,0 0.0827,0.008 0.12402,0.0248 v -0.26045 h -0.0827 c -0.21084,0 -0.38034,0.12816 -0.47542,0.31419 h -0.0165 z m 1.60093,1.15755 c -0.0951,0.0827 -0.2191,0.15296 -0.34726,0.15296 -0.1323,0 -0.24392,-0.0951 -0.24392,-0.23151 0,-0.23565 0.3018,-0.31006 0.46303,-0.31006 h 0.12815 z m 0.46716,0.17776 h -0.0538 c -0.14882,0.004 -0.14056,-0.14882 -0.14056,-0.26045 v -0.66559 c 0,-0.29765 -0.16949,-0.44235 -0.48369,-0.44235 -0.1819,0 -0.35553,0.0413 -0.52503,0.11162 v 0.22325 c 0.13643,-0.0703 0.30592,-0.1323 0.45889,-0.1323 0.24804,0 0.27698,0.12403 0.27698,0.339 v 0.10335 h -0.10749 c -0.52089,0 -0.75654,0.23565 -0.75654,0.50437 0,0.25218 0.19017,0.41341 0.43822,0.41341 0.17776,0 0.34313,-0.10336 0.45889,-0.22324 0.0248,0.13229 0.11575,0.22324 0.25218,0.22324 0.062,0 0.14469,-0.0124 0.20257,-0.0413 z m 0.65629,-1.33531 v -0.3018 l -0.27285,0.0289 v 0.27286 h -0.18604 v 0.20257 h 0.18604 v 0.90123 c 0,0.14883 0.0868,0.42582 0.44648,0.42582 0.0703,0 0.14056,-0.0124 0.21084,-0.0331 v -0.18603 c -0.0413,0.0124 -0.0868,0.0165 -0.13229,0.0165 -0.22324,0 -0.25218,-0.13643 -0.25218,-0.3266 v -0.79788 h 0.35967 v -0.20257 z m 1.87068,0.78961 c 0.0166,-0.38447 -0.0992,-0.82269 -0.5705,-0.82269 -0.42995,0 -0.64493,0.39274 -0.64493,0.78135 0,0.24391 0.0992,0.78135 0.71521,0.78135 0.19017,0 0.3514,-0.0372 0.50022,-0.0827 v -0.21911 c -0.13642,0.0661 -0.27285,0.0992 -0.42581,0.0992 -0.32659,0 -0.49196,-0.22325 -0.50023,-0.53744 z m -0.91777,-0.18603 c 0.008,-0.19844 0.0992,-0.43409 0.33073,-0.43409 0.24391,0 0.30593,0.23151 0.30179,0.43409 z m 2.60966,0.89296 v -1.49654 h -0.27285 v 0.96738 c -0.10335,0.1695 -0.26458,0.32659 -0.47129,0.32659 -0.12402,0 -0.21084,-0.0868 -0.21084,-0.22737 v -1.0666 h -0.26872 v 1.09967 c 0,0.22324 0.14883,0.42995 0.41755,0.42995 0.22324,0 0.40927,-0.13229 0.5333,-0.3142 h 0.0165 l -0.0165,0.28112 z m 0.80305,-1.49654 h -0.26872 v 1.49654 h 0.26872 v -0.98391 c 0.0868,-0.1695 0.23978,-0.31006 0.43409,-0.31006 0.0455,0 0.0827,0.008 0.12402,0.0248 v -0.26045 h -0.0827 c -0.21084,0 -0.38034,0.12816 -0.47543,0.31419 h -0.0165 z m 1.02526,1.49654 c 0,0.0579 -0.004,0.12816 -0.0248,0.18604 -0.0207,0.0579 -0.0537,0.10335 -0.11575,0.11989 v 0.10335 c 0.28525,-0.0248 0.34313,-0.24391 0.34313,-0.48782 v -0.26045 h -0.34313 v 0.33899 z m 0,0"
       style="fill:#131413;fill-opacity:1;fill-rule:nonzero;stroke:none;stroke-width:0.352778"
       aria-label="(a) convention récepteur, (b) convention générateur, " />
    <path
       id="path131"
       d="m 73.541376,126.91405 c -0.293522,-0.29352 -0.37207,-0.70693 -0.37207,-1.10794 0,-0.40101 0.07855,-0.81029 0.37207,-1.10381 v -0.19017 c -0.409277,0.26045 -0.644922,0.82682 -0.644922,1.29398 0,0.47129 0.235645,1.04179 0.644922,1.29398 z m 1.39733,-1.70739 c -0.140559,-0.0248 -0.281119,-0.0455 -0.425813,-0.0455 -0.56224,0 -0.715202,0.44648 -0.715202,0.78134 0,0.24392 0.09922,0.78135 0.715202,0.78135 0.148828,0 0.297656,-0.0372 0.44235,-0.0785 v -0.2191 c -0.119889,0.0661 -0.256315,0.0951 -0.388607,0.0951 -0.338997,0 -0.479557,-0.27285 -0.479557,-0.57464 0,-0.28939 0.132292,-0.58291 0.454753,-0.58291 0.136425,0 0.268717,0.0331 0.396874,0.0744 z m 0.270785,-0.50849 c 0.293522,0.29765 0.37207,0.70693 0.37207,1.10794 0,0.40101 -0.07855,0.81442 -0.37207,1.10381 v 0.19017 c 0.409277,-0.25632 0.644922,-0.82269 0.644922,-1.29398 0,-0.47129 -0.235645,-1.03766 -0.644922,-1.29398 z m 3.000333,0.50849 c -0.140559,-0.0248 -0.281119,-0.0455 -0.425813,-0.0455 -0.56224,0 -0.715202,0.44648 -0.715202,0.78134 0,0.24392 0.09922,0.78135 0.715202,0.78135 0.148828,0 0.297656,-0.0372 0.44235,-0.0785 v -0.2191 c -0.11989,0.0661 -0.256315,0.0951 -0.388607,0.0951 -0.338997,0 -0.479557,-0.27285 -0.479557,-0.57464 0,-0.28939 0.132292,-0.58291 0.454752,-0.58291 0.136426,0 0.268718,0.0331 0.396875,0.0744 z m 1.035596,1.51722 c 0.611849,0 0.711068,-0.53743 0.711068,-0.78135 0,-0.33486 -0.148828,-0.78134 -0.711068,-0.78134 -0.562239,0 -0.715202,0.44648 -0.715202,0.78134 0,0.24392 0.09922,0.78135 0.715202,0.78135 z m 0,-0.20257 c -0.330729,0 -0.425814,-0.29766 -0.425814,-0.57878 0,-0.28112 0.09508,-0.57877 0.425814,-0.57877 0.330729,0 0.425814,0.29765 0.425814,0.57877 0,0.28112 -0.09509,0.57878 -0.425814,0.57878 z m 1.398364,-1.32705 h -0.268717 v 1.49655 h 0.268717 v -0.96738 c 0.103353,-0.1695 0.264584,-0.3266 0.475424,-0.3266 0.124023,0 0.206705,0.0868 0.206705,0.23151 v 1.06247 h 0.272852 v -1.09968 c 0,-0.22324 -0.152962,-0.42994 -0.417546,-0.42994 -0.227376,0 -0.413411,0.13229 -0.537435,0.31419 h -0.01653 z m 1.873788,1.49655 h 0.272851 l 0.644922,-1.49655 h -0.227376 l -0.525033,1.2237 -0.508496,-1.2237 h -0.276986 z m 2.325439,-0.70694 c 0.01654,-0.38447 -0.09922,-0.82268 -0.570508,-0.82268 -0.429948,0 -0.644922,0.39274 -0.644922,0.78134 0,0.24392 0.09922,0.78135 0.715202,0.78135 0.190169,0 0.3514,-0.0372 0.500228,-0.0827 v -0.21911 c -0.136426,0.0661 -0.272852,0.0992 -0.425814,0.0992 -0.326595,0 -0.491959,-0.22324 -0.500227,-0.53744 z m -0.917773,-0.18603 c 0.0083,-0.19844 0.09922,-0.43408 0.330729,-0.43408 0.243912,0 0.305924,0.23151 0.30179,0.43408 z m 1.654679,-0.60358 h -0.268718 v 1.49655 h 0.268718 v -0.96738 c 0.103353,-0.1695 0.264583,-0.3266 0.475423,-0.3266 0.124024,0 0.206706,0.0868 0.206706,0.23151 v 1.06247 h 0.272851 v -1.09968 c 0,-0.22324 -0.152962,-0.42994 -0.417545,-0.42994 -0.227377,0 -0.413412,0.13229 -0.537435,0.31419 h -0.01654 z m 1.770434,0 v -0.30179 l -0.272851,0.0289 v 0.27285 h -0.186035 v 0.20257 H 87.0775 v 0.90124 c 0,0.14883 0.08682,0.42581 0.446484,0.42581 0.07028,0 0.14056,-0.0124 0.21084,-0.0331 v -0.18604 c -0.04134,0.0124 -0.08682,0.0165 -0.132292,0.0165 -0.223242,0 -0.252181,-0.13643 -0.252181,-0.3266 v -0.79788 h 0.359668 v -0.20257 z m 0.774113,1.49655 h 0.268718 v -1.49655 h -0.268718 z m 0,-1.7694 h 0.268718 v -0.27285 h -0.268718 z m 1.410767,1.80247 c 0.611849,0 0.711068,-0.53743 0.711068,-0.78135 0,-0.33486 -0.148829,-0.78134 -0.711068,-0.78134 -0.56224,0 -0.715202,0.44648 -0.715202,0.78134 0,0.24392 0.09922,0.78135 0.715202,0.78135 z m 0,-0.20257 c -0.330729,0 -0.425814,-0.29766 -0.425814,-0.57878 0,-0.28112 0.09508,-0.57877 0.425814,-0.57877 0.330729,0 0.425814,0.29765 0.425814,0.57877 0,0.28112 -0.09509,0.57878 -0.425814,0.57878 z m 1.398364,-1.32705 h -0.268718 v 1.49655 h 0.268718 v -0.96738 c 0.103353,-0.1695 0.264583,-0.3266 0.475423,-0.3266 0.124024,0 0.206706,0.0868 0.206706,0.23151 v 1.06247 h 0.272851 v -1.09968 c 0,-0.22324 -0.152962,-0.42994 -0.417545,-0.42994 -0.227377,0 -0.413411,0.13229 -0.537435,0.31419 h -0.01654 z m 3.340364,1.01286 c -0.107486,0.13229 -0.264583,0.24804 -0.44235,0.24804 -0.28112,0 -0.347265,-0.26045 -0.347265,-0.49609 0,-0.31833 0.09508,-0.59531 0.396875,-0.59531 0.152962,0 0.297656,0.0744 0.39274,0.18603 z m 0.272852,-1.01286 H 94.29463 v 0.1695 h -0.02067 c -0.115755,-0.13643 -0.252181,-0.20257 -0.434082,-0.20257 -0.438216,0 -0.644922,0.3886 -0.644922,0.78134 0,0.38448 0.157097,0.74828 0.591179,0.74828 0.21084,0 0.401009,-0.12816 0.487825,-0.31419 h 0.02067 l -0.02067,0.16536 c 0,0.28939 -0.07028,0.52503 -0.46302,0.52503 -0.157097,0 -0.318327,-0.0413 -0.463021,-0.11162 l -0.02894,0.23151 c 0.152963,0.0579 0.314193,0.0827 0.475423,0.0827 0.56224,0 0.752409,-0.28525 0.752409,-0.74 z m 1.621606,0.78961 c 0.01654,-0.38447 -0.09922,-0.82268 -0.570507,-0.82268 -0.429948,0 -0.644922,0.39274 -0.644922,0.78134 0,0.24392 0.09922,0.78135 0.715201,0.78135 0.19017,0 0.3514,-0.0372 0.500228,-0.0827 v -0.21911 c -0.136426,0.0661 -0.272851,0.0992 -0.425813,0.0992 -0.326595,0 -0.49196,-0.22324 -0.500228,-0.53744 z m -0.917773,-0.18603 c 0.0083,-0.19844 0.09922,-0.43408 0.330729,-0.43408 0.243913,0 0.305924,0.23151 0.30179,0.43408 z m 0.09922,-0.87643 h 0.235644 l 0.376205,-0.40928 h -0.310059 z m 1.55546,0.27285 h -0.268718 v 1.49655 h 0.268717 v -0.96738 c 0.103353,-0.1695 0.264583,-0.3266 0.475423,-0.3266 0.124024,0 0.206706,0.0868 0.206706,0.23151 v 1.06247 h 0.272852 v -1.09968 c 0,-0.22324 -0.152963,-0.42994 -0.417546,-0.42994 -0.227376,0 -0.413411,0.13229 -0.537435,0.31419 h -0.01654 z m 2.584855,0.78961 c 0.01654,-0.38447 -0.09922,-0.82268 -0.570508,-0.82268 -0.429948,0 -0.644922,0.39274 -0.644922,0.78134 0,0.24392 0.09922,0.78135 0.715202,0.78135 0.19017,0 0.3514,-0.0372 0.500228,-0.0827 v -0.21911 c -0.136426,0.0661 -0.272851,0.0992 -0.425813,0.0992 -0.326596,0 -0.49196,-0.22324 -0.500228,-0.53744 z m -0.917773,-0.18603 c 0.0083,-0.19844 0.09922,-0.43408 0.330729,-0.43408 0.243913,0 0.305925,0.23151 0.30179,0.43408 z m 0.09922,-0.87643 h 0.235645 l 0.376204,-0.40928 h -0.310058 z m 1.563734,0.27285 h -0.268722 v 1.49655 h 0.268722 v -0.98392 c 0.0868,-0.1695 0.23977,-0.31006 0.43408,-0.31006 0.0455,0 0.0827,0.008 0.12402,0.0248 v -0.26045 h -0.0827 c -0.21084,0 -0.38034,0.12815 -0.47542,0.31419 h -0.0165 z m 1.60093,1.15755 c -0.0951,0.0827 -0.21911,0.15296 -0.34726,0.15296 -0.1323,0 -0.24392,-0.0951 -0.24392,-0.23151 0,-0.23564 0.30179,-0.31006 0.46302,-0.31006 h 0.12816 z m 0.46716,0.17777 h -0.0537 c -0.14883,0.004 -0.14056,-0.14883 -0.14056,-0.26045 v -0.66559 c 0,-0.29766 -0.1695,-0.44235 -0.48369,-0.44235 -0.18191,0 -0.35554,0.0413 -0.52504,0.11162 v 0.22324 c 0.13643,-0.0703 0.30593,-0.13229 0.45889,-0.13229 0.24805,0 0.27699,0.12402 0.27699,0.339 v 0.10335 h -0.10749 c -0.5209,0 -0.75654,0.23564 -0.75654,0.50436 0,0.25218 0.19016,0.41341 0.43821,0.41341 0.17777,0 0.34313,-0.10335 0.45889,-0.22324 0.0248,0.13229 0.11575,0.22324 0.25218,0.22324 0.062,0 0.14469,-0.0124 0.20257,-0.0413 z m 0.65629,-1.33532 v -0.30179 l -0.27285,0.0289 v 0.27285 h -0.18604 v 0.20257 h 0.18604 v 0.90124 c 0,0.14883 0.0868,0.42581 0.44648,0.42581 0.0703,0 0.14056,-0.0124 0.21084,-0.0331 v -0.18604 c -0.0413,0.0124 -0.0868,0.0165 -0.13229,0.0165 -0.22324,0 -0.25218,-0.13643 -0.25218,-0.3266 v -0.79788 h 0.35967 v -0.20257 z m 1.86965,0.78961 c 0.0165,-0.38447 -0.0992,-0.82268 -0.57051,-0.82268 -0.42995,0 -0.64492,0.39274 -0.64492,0.78134 0,0.24392 0.0992,0.78135 0.7152,0.78135 0.19017,0 0.3514,-0.0372 0.50023,-0.0827 v -0.21911 c -0.13642,0.0661 -0.27285,0.0992 -0.42581,0.0992 -0.3266,0 -0.49196,-0.22324 -0.50023,-0.53744 z m -0.91777,-0.18603 c 0.008,-0.19844 0.0992,-0.43408 0.33073,-0.43408 0.24391,0 0.30592,0.23151 0.30179,0.43408 z m 2.60966,0.89297 v -1.49655 h -0.27285 v 0.96738 c -0.10336,0.1695 -0.26459,0.3266 -0.47129,0.3266 -0.12403,0 -0.21084,-0.0868 -0.21084,-0.22738 v -1.0666 h -0.26872 v 1.09967 c 0,0.22325 0.14883,0.42995 0.41755,0.42995 0.22324,0 0.40927,-0.13229 0.5333,-0.31419 h 0.0165 l -0.0165,0.28112 z m 0.80305,-1.49655 h -0.26872 v 1.49655 h 0.26872 v -0.98392 c 0.0868,-0.1695 0.23978,-0.31006 0.43408,-0.31006 0.0455,0 0.0827,0.008 0.12402,0.0248 v -0.26045 h -0.0827 c -0.21084,0 -0.38034,0.12815 -0.47542,0.31419 h -0.0165 z m 1.02629,1.49655 c 0,0.0579 -0.004,0.12816 -0.0248,0.18603 -0.0207,0.0579 -0.0537,0.10336 -0.11575,0.11989 v 0.10336 c 0.28525,-0.0248 0.34313,-0.24392 0.34313,-0.48783 v -0.26045 h -0.34313 v 0.339 z m 2.18488,0.22324 c -0.29352,-0.29352 -0.37207,-0.70693 -0.37207,-1.10794 0,-0.40101 0.0786,-0.81029 0.37207,-1.10381 v -0.19017 c -0.40927,0.26045 -0.64492,0.82682 -0.64492,1.29398 0,0.47129 0.23565,1.04179 0.64492,1.29398 z m 1.33532,-0.67386 c -0.11162,0.13229 -0.26872,0.24805 -0.44648,0.24805 -0.28939,0 -0.34313,-0.30593 -0.34313,-0.5333 0,-0.25218 0.0785,-0.59118 0.38447,-0.59118 0.17777,0 0.27698,0.0744 0.40514,0.19017 z m 0,0.45062 h 0.27285 v -2.17868 h -0.27285 v 0.64906 l 0.0207,0.20257 h -0.0207 c -0.11576,-0.14883 -0.26458,-0.20257 -0.45062,-0.20257 -0.44235,0 -0.62838,0.43821 -0.62838,0.82268 0,0.37208 0.15296,0.74001 0.58291,0.74001 0.22324,0 0.40101,-0.11575 0.49609,-0.31419 h 0.0207 z m 0.64906,-1.99264 c 0.29352,0.29765 0.37207,0.70693 0.37207,1.10794 0,0.40101 -0.0785,0.81442 -0.37207,1.10381 v 0.19017 c 0.40927,-0.25632 0.64492,-0.82269 0.64492,-1.29398 0,-0.47129 -0.23565,-1.03766 -0.64492,-1.29398 z m 2.9993,0.50849 c -0.14056,-0.0248 -0.28112,-0.0455 -0.42581,-0.0455 -0.56224,0 -0.71521,0.44648 -0.71521,0.78134 0,0.24392 0.0992,0.78135 0.71521,0.78135 0.14882,0 0.29765,-0.0372 0.44234,-0.0785 v -0.2191 c -0.11988,0.0661 -0.25631,0.0951 -0.3886,0.0951 -0.339,0 -0.47956,-0.27285 -0.47956,-0.57464 0,-0.28939 0.13229,-0.58291 0.45475,-0.58291 0.13643,0 0.26872,0.0331 0.39688,0.0744 z m 1.03663,1.51722 c 0.61185,0 0.71106,-0.53743 0.71106,-0.78135 0,-0.33486 -0.14883,-0.78134 -0.71106,-0.78134 -0.56224,0 -0.71521,0.44648 -0.71521,0.78134 0,0.24392 0.0992,0.78135 0.71521,0.78135 z m 0,-0.20257 c -0.33073,0 -0.42582,-0.29766 -0.42582,-0.57878 0,-0.28112 0.0951,-0.57877 0.42582,-0.57877 0.33072,0 0.42581,0.29765 0.42581,0.57877 0,0.28112 -0.0951,0.57878 -0.42581,0.57878 z m 1.39733,-1.32705 h -0.26872 v 1.49655 h 0.26872 v -0.96738 c 0.10335,-0.1695 0.26458,-0.3266 0.47542,-0.3266 0.12402,0 0.2067,0.0868 0.2067,0.23151 v 1.06247 h 0.27286 v -1.09968 c 0,-0.22324 -0.15296,-0.42994 -0.41755,-0.42994 -0.22737,0 -0.41341,0.13229 -0.53743,0.31419 h -0.0165 z m 1.87378,1.49655 h 0.27286 l 0.64492,-1.49655 h -0.22738 l -0.52503,1.2237 -0.5085,-1.2237 h -0.27698 z m 2.32544,-0.70694 c 0.0165,-0.38447 -0.0992,-0.82268 -0.57051,-0.82268 -0.42994,0 -0.64492,0.39274 -0.64492,0.78134 0,0.24392 0.0992,0.78135 0.71521,0.78135 0.19016,0 0.3514,-0.0372 0.50022,-0.0827 v -0.21911 c -0.13642,0.0661 -0.27285,0.0992 -0.42581,0.0992 -0.32659,0 -0.49196,-0.22324 -0.50023,-0.53744 z m -0.91777,-0.18603 c 0.008,-0.19844 0.0992,-0.43408 0.33073,-0.43408 0.24391,0 0.30593,0.23151 0.30179,0.43408 z m 1.65468,-0.60358 h -0.26872 v 1.49655 h 0.26872 v -0.96738 c 0.10335,-0.1695 0.26458,-0.3266 0.47542,-0.3266 0.12403,0 0.20671,0.0868 0.20671,0.23151 v 1.06247 h 0.27285 v -1.09968 c 0,-0.22324 -0.15296,-0.42994 -0.41754,-0.42994 -0.22738,0 -0.41342,0.13229 -0.53744,0.31419 h -0.0165 z m 1.77043,0 v -0.30179 l -0.27285,0.0289 v 0.27285 h -0.18603 v 0.20257 h 0.18603 v 0.90124 c 0,0.14883 0.0868,0.42581 0.44649,0.42581 0.0703,0 0.14056,-0.0124 0.21084,-0.0331 v -0.18604 c -0.0413,0.0124 -0.0868,0.0165 -0.13229,0.0165 -0.22325,0 -0.25219,-0.13643 -0.25219,-0.3266 v -0.79788 h 0.35967 v -0.20257 z m 0.77515,1.49655 h 0.26872 v -1.49655 h -0.26872 z m 0,-1.7694 h 0.26872 v -0.27285 h -0.26872 z m 1.41077,1.80247 c 0.61185,0 0.71107,-0.53743 0.71107,-0.78135 0,-0.33486 -0.14883,-0.78134 -0.71107,-0.78134 -0.56224,0 -0.7152,0.44648 -0.7152,0.78134 0,0.24392 0.0992,0.78135 0.7152,0.78135 z m 0,-0.20257 c -0.33073,0 -0.42582,-0.29766 -0.42582,-0.57878 0,-0.28112 0.0951,-0.57877 0.42582,-0.57877 0.33073,0 0.42581,0.29765 0.42581,0.57877 0,0.28112 -0.0951,0.57878 -0.42581,0.57878 z m 1.39733,-1.32705 h -0.26872 v 1.49655 h 0.26872 v -0.96738 c 0.10335,-0.1695 0.26458,-0.3266 0.47542,-0.3266 0.12403,0 0.20671,0.0868 0.20671,0.23151 v 1.06247 h 0.27285 v -1.09968 c 0,-0.22324 -0.15296,-0.42994 -0.41755,-0.42994 -0.22737,0 -0.41341,0.13229 -0.53743,0.31419 h -0.0165 z m 2.64997,0 h -0.26872 v 1.49655 h 0.26872 v -0.98392 c 0.0868,-0.1695 0.23978,-0.31006 0.43408,-0.31006 0.0455,0 0.0827,0.008 0.12402,0.0248 v -0.26045 h -0.0827 c -0.21084,0 -0.38034,0.12815 -0.47542,0.31419 h -0.0165 z m 1.98127,0.78961 c 0.0166,-0.38447 -0.0992,-0.82268 -0.57051,-0.82268 -0.42995,0 -0.64492,0.39274 -0.64492,0.78134 0,0.24392 0.0992,0.78135 0.7152,0.78135 0.19017,0 0.3514,-0.0372 0.50023,-0.0827 v -0.21911 c -0.13643,0.0661 -0.27285,0.0992 -0.42581,0.0992 -0.3266,0 -0.49196,-0.22324 -0.50023,-0.53744 z m -0.91777,-0.18603 c 0.008,-0.19844 0.0992,-0.43408 0.33073,-0.43408 0.24391,0 0.30592,0.23151 0.30179,0.43408 z m 0.0992,-0.87643 h 0.23564 l 0.3762,-0.40928 h -0.31005 z m 2.31613,0.28525 c -0.14056,-0.0248 -0.28112,-0.0455 -0.42581,-0.0455 -0.56224,0 -0.7152,0.44648 -0.7152,0.78134 0,0.24392 0.0992,0.78135 0.7152,0.78135 0.14883,0 0.29765,-0.0372 0.44235,-0.0785 v -0.2191 c -0.11989,0.0661 -0.25632,0.0951 -0.38861,0.0951 -0.339,0 -0.47956,-0.27285 -0.47956,-0.57464 0,-0.28939 0.1323,-0.58291 0.45476,-0.58291 0.13642,0 0.26871,0.0331 0.39687,0.0744 z m 1.53686,0.77721 c 0.0165,-0.38447 -0.0992,-0.82268 -0.57051,-0.82268 -0.42995,0 -0.64492,0.39274 -0.64492,0.78134 0,0.24392 0.0992,0.78135 0.7152,0.78135 0.19017,0 0.3514,-0.0372 0.50023,-0.0827 v -0.21911 c -0.13643,0.0661 -0.27285,0.0992 -0.42581,0.0992 -0.3266,0 -0.49196,-0.22324 -0.50023,-0.53744 z m -0.91777,-0.18603 c 0.008,-0.19844 0.0992,-0.43408 0.33073,-0.43408 0.24391,0 0.30592,0.23151 0.30179,0.43408 z m 1.66294,-0.15296 c 0.11162,-0.13229 0.27285,-0.24805 0.45062,-0.24805 0.28939,0 0.34313,0.30593 0.34313,0.5333 0,0.25218 -0.0785,0.59118 -0.3886,0.59118 -0.17777,0 -0.27285,-0.0744 -0.40515,-0.19017 z m 0,-0.45062 h -0.26871 v 2.04225 h 0.26871 v -0.51263 l -0.0165,-0.20257 h 0.0165 c 0.12403,0.14883 0.26459,0.20257 0.45062,0.20257 0.44648,0 0.63252,-0.43821 0.63252,-0.82269 0,-0.37207 -0.15296,-0.74 -0.58291,-0.74 -0.22324,0 -0.40101,0.11575 -0.50023,0.31419 h -0.0165 z m 1.79007,0 v -0.30179 l -0.27285,0.0289 v 0.27285 h -0.18603 v 0.20257 h 0.18603 v 0.90124 c 0,0.14883 0.0868,0.42581 0.44649,0.42581 0.0703,0 0.14056,-0.0124 0.21084,-0.0331 v -0.18604 c -0.0413,0.0124 -0.0868,0.0165 -0.13229,0.0165 -0.22324,0 -0.25219,-0.13643 -0.25219,-0.3266 v -0.79788 h 0.35967 v -0.20257 z m 1.86966,0.78961 c 0.0165,-0.38447 -0.0992,-0.82268 -0.57051,-0.82268 -0.42995,0 -0.64492,0.39274 -0.64492,0.78134 0,0.24392 0.0992,0.78135 0.7152,0.78135 0.19017,0 0.3514,-0.0372 0.50023,-0.0827 v -0.21911 c -0.13643,0.0661 -0.27285,0.0992 -0.42581,0.0992 -0.3266,0 -0.49196,-0.22324 -0.50023,-0.53744 z m -0.91777,-0.18603 c 0.008,-0.19844 0.0992,-0.43408 0.33073,-0.43408 0.24391,0 0.30592,0.23151 0.30179,0.43408 z m 2.60966,0.89297 v -1.49655 h -0.27286 v 0.96738 c -0.10335,0.1695 -0.26458,0.3266 -0.47129,0.3266 -0.12402,0 -0.21083,-0.0868 -0.21083,-0.22738 v -1.0666 h -0.26872 v 1.09967 c 0,0.22325 0.14882,0.42995 0.41754,0.42995 0.22324,0 0.40928,-0.13229 0.5333,-0.31419 h 0.0165 l -0.0165,0.28112 z m 0.80305,-1.49655 h -0.26872 v 1.49655 h 0.26872 v -0.98392 c 0.0868,-0.1695 0.23977,-0.31006 0.43408,-0.31006 0.0455,0 0.0827,0.008 0.12402,0.0248 v -0.26045 h -0.0827 c -0.21084,0 -0.38034,0.12815 -0.47542,0.31419 h -0.0165 z m 0.88573,1.49655 h 0.34313 v -0.339 h -0.34313 z m 0,0"
       style="fill:#131413;fill-opacity:1;fill-rule:nonzero;stroke:none;stroke-width:0.352778"
       aria-label="(c) convention générateur, (d) convention récepteur." />
  </g>
</svg>
