<?xml version="1.0" encoding="UTF-8" standalone="no"?>
<!-- Created with Inkscape (http://www.inkscape.org/) -->

<svg
   width="159.67574mm"
   height="215.66641mm"
   viewBox="0 0 159.67574 215.66641"
   version="1.1"
   id="svg1"
   inkscape:version="1.4.2 (1:1.4.2+202505120737+ebf0e940d0)"
   sodipodi:docname="DOM_HeH.svg"
   inkscape:export-filename="DOM_HeH.pdf"
   inkscape:export-xdpi="96"
   inkscape:export-ydpi="96"
   xmlns:inkscape="http://www.inkscape.org/namespaces/inkscape"
   xmlns:sodipodi="http://sodipodi.sourceforge.net/DTD/sodipodi-0.dtd"
   xmlns="http://www.w3.org/2000/svg"
   xmlns:svg="http://www.w3.org/2000/svg">
  <sodipodi:namedview
     id="namedview1"
     pagecolor="#ffffff"
     bordercolor="#000000"
     borderopacity="0.25"
     inkscape:showpageshadow="2"
     inkscape:pageopacity="0.0"
     inkscape:pagecheckerboard="0"
     inkscape:deskcolor="#d1d1d1"
     inkscape:document-units="mm"
     showgrid="true"
     inkscape:zoom="0.71179153"
     inkscape:cx="730.55098"
     inkscape:cy="301.35228"
     inkscape:window-width="1920"
     inkscape:window-height="1008"
     inkscape:window-x="0"
     inkscape:window-y="0"
     inkscape:window-maximized="1"
     inkscape:current-layer="layer1">
    <inkscape:grid
       id="grid1"
       units="mm"
       originx="13.692963"
       originy="-53.234921"
       spacingx="0.26458333"
       spacingy="0.26458334"
       empcolor="#0099e5"
       empopacity="0.30196078"
       color="#0099e5"
       opacity="0.14901961"
       empspacing="5"
       enabled="true"
       visible="true" />
  </sodipodi:namedview>
  <defs
     id="defs1">
    <clipPath
       clipPathUnits="userSpaceOnUse"
       id="clipPath29">
      <path
         d="M 0,0 H 1024 V 768 H 0 Z"
         transform="matrix(0.99996813,-0.00798088,-0.00798088,-0.99996813,-59.273511,655.71432)"
         id="path29" />
    </clipPath>
    <clipPath
       clipPathUnits="userSpaceOnUse"
       id="clipPath32">
      <path
         d="M 0,0 H 1024 V 768 H 0 Z"
         transform="matrix(1,0,0,-1,-52.701232,227.94111)"
         id="path32" />
    </clipPath>
    <clipPath
       clipPathUnits="userSpaceOnUse"
       id="clipPath34">
      <path
         d="M 0,0 H 1024 V 768 H 0 Z"
         transform="matrix(1,0,0,-1,-439.68371,230.44101)"
         id="path34" />
    </clipPath>
    <clipPath
       clipPathUnits="userSpaceOnUse"
       id="clipPath35">
      <path
         d="M 0,0 H 1024 V 768 H 0 Z"
         transform="matrix(1,0,0,-1,-133.1311,26.153078)"
         id="path35" />
    </clipPath>
    <clipPath
       clipPathUnits="userSpaceOnUse"
       id="clipPath36">
      <path
         d="M 0,0 H 1024 V 768 H 0 Z"
         transform="matrix(1,0,0,-1,-446.30541,26.009093)"
         id="path36" />
    </clipPath>
    <clipPath
       clipPathUnits="userSpaceOnUse"
       id="clipPath37">
      <path
         d="M 0,0 H 1024 V 768 H 0 Z"
         transform="matrix(1,0,0,-1,-463.63341,20.009093)"
         id="path37" />
    </clipPath>
    <clipPath
       clipPathUnits="userSpaceOnUse"
       id="clipPath39">
      <path
         d="M 0,0 H 1024 V 768 H 0 Z"
         transform="matrix(0.52232552,-0.8527462,-0.8527462,-0.52232552,216.65102,315.239)"
         id="path39" />
    </clipPath>
    <clipPath
       clipPathUnits="userSpaceOnUse"
       id="clipPath41">
      <path
         d="M 0,0 H 1024 V 768 H 0 Z"
         transform="matrix(0.68315929,0.73026938,0.73026938,-0.68315929,-313.9473,-170.30904)"
         id="path41" />
    </clipPath>
    <clipPath
       clipPathUnits="userSpaceOnUse"
       id="clipPath42">
      <path
         d="M 0,0 H 1024 V 768 H 0 Z"
         transform="matrix(1,0,0,-1,-5.5254401,344.92966)"
         id="path42" />
    </clipPath>
    <clipPath
       clipPathUnits="userSpaceOnUse"
       id="clipPath43">
      <path
         d="M 0,0 H 1024 V 768 H 0 Z"
         transform="matrix(1,0,0,-1,-18.11488,344.92966)"
         id="path43" />
    </clipPath>
    <clipPath
       clipPathUnits="userSpaceOnUse"
       id="clipPath44">
      <path
         d="M 0,0 H 1024 V 768 H 0 Z"
         transform="matrix(1,0,0,-1,-5.6104402,223.26616)"
         id="path44" />
    </clipPath>
    <clipPath
       clipPathUnits="userSpaceOnUse"
       id="clipPath45">
      <path
         d="M 0,0 H 1024 V 768 H 0 Z"
         transform="matrix(1,0,0,-1,-18.199881,223.26616)"
         id="path45" />
    </clipPath>
    <clipPath
       clipPathUnits="userSpaceOnUse"
       id="clipPath47">
      <path
         d="M 0,0 H 1024 V 768 H 0 Z"
         transform="matrix(1,0,0,-1,-52.701232,349.46861)"
         id="path47" />
    </clipPath>
    <clipPath
       clipPathUnits="userSpaceOnUse"
       id="clipPath49">
      <path
         d="M 0,0 H 1024 V 768 H 0 Z"
         transform="matrix(1,0,0,-1,-52.701232,397.44111)"
         id="path49" />
    </clipPath>
    <clipPath
       clipPathUnits="userSpaceOnUse"
       id="clipPath50">
      <path
         d="M 0,0 H 1024 V 768 H 0 Z"
         transform="matrix(1,0,0,-1,-5.4489401,392.83406)"
         id="path50" />
    </clipPath>
    <clipPath
       clipPathUnits="userSpaceOnUse"
       id="clipPath51">
      <path
         d="M 0,0 H 1024 V 768 H 0 Z"
         transform="matrix(1,0,0,-1,-18.03838,392.83406)"
         id="path51" />
    </clipPath>
    <clipPath
       clipPathUnits="userSpaceOnUse"
       id="clipPath53">
      <path
         d="M 0,0 H 1024 V 768 H 0 Z"
         transform="matrix(1,0,0,-1,-69.509732,397.46861)"
         id="path53" />
    </clipPath>
    <clipPath
       clipPathUnits="userSpaceOnUse"
       id="clipPath55">
      <path
         d="M 0,0 H 1024 V 768 H 0 Z"
         transform="matrix(1,0,0,-1,-115.8784,397.96861)"
         id="path55" />
    </clipPath>
    <clipPath
       clipPathUnits="userSpaceOnUse"
       id="clipPath57">
      <path
         d="M 0,0 H 1024 V 768 H 0 Z"
         transform="matrix(1,0,0,-1,-162.45201,397.46861)"
         id="path57" />
    </clipPath>
    <clipPath
       clipPathUnits="userSpaceOnUse"
       id="clipPath59">
      <path
         d="M 0,0 H 1024 V 768 H 0 Z"
         transform="matrix(1,0,0,-1,-115.5897,348.94111)"
         id="path59" />
    </clipPath>
    <clipPath
       clipPathUnits="userSpaceOnUse"
       id="clipPath61">
      <path
         d="M 0,0 H 1024 V 768 H 0 Z"
         transform="matrix(1,0,0,-1,-299.3488,114.09561)"
         id="path61" />
    </clipPath>
    <clipPath
       clipPathUnits="userSpaceOnUse"
       id="clipPath63">
      <path
         d="M 0,0 H 1024 V 768 H 0 Z"
         transform="matrix(1,0,0,-1,-295.58671,653.18582)"
         id="path63" />
    </clipPath>
    <clipPath
       clipPathUnits="userSpaceOnUse"
       id="clipPath64">
      <path
         d="M 0,0 H 1024 V 768 H 0 Z"
         transform="matrix(1,0,0,-1,-81.255062,377.95146)"
         id="path64" />
    </clipPath>
    <clipPath
       clipPathUnits="userSpaceOnUse"
       id="clipPath65">
      <path
         d="M 0,0 H 1024 V 768 H 0 Z"
         transform="matrix(1,0,0,-1,-89.75506,377.95146)"
         id="path65" />
    </clipPath>
    <clipPath
       clipPathUnits="userSpaceOnUse"
       id="clipPath66">
      <path
         d="M 0,0 H 1024 V 768 H 0 Z"
         transform="matrix(1,0,0,-1,-97.72576,373.70146)"
         id="path66" />
    </clipPath>
    <clipPath
       clipPathUnits="userSpaceOnUse"
       id="clipPath67">
      <path
         d="M 0,0 H 1024 V 768 H 0 Z"
         transform="matrix(1,0,0,-1,-124.8166,377.95146)"
         id="path67" />
    </clipPath>
    <clipPath
       clipPathUnits="userSpaceOnUse"
       id="clipPath68">
      <path
         d="M 0,0 H 1024 V 768 H 0 Z"
         transform="matrix(1,0,0,-1,-133.31661,377.95146)"
         id="path68" />
    </clipPath>
    <clipPath
       clipPathUnits="userSpaceOnUse"
       id="clipPath69">
      <path
         d="M 0,0 H 1024 V 768 H 0 Z"
         transform="matrix(1,0,0,-1,-141.28731,373.70146)"
         id="path69" />
    </clipPath>
    <clipPath
       clipPathUnits="userSpaceOnUse"
       id="clipPath70">
      <path
         d="M 0,0 H 1024 V 768 H 0 Z"
         transform="matrix(1,0,0,-1,-95.34217,331.52716)"
         id="path70" />
    </clipPath>
    <clipPath
       clipPathUnits="userSpaceOnUse"
       id="clipPath71">
      <path
         d="M 0,0 H 1024 V 768 H 0 Z"
         transform="matrix(1,0,0,-1,-103.84218,331.52716)"
         id="path71" />
    </clipPath>
    <clipPath
       clipPathUnits="userSpaceOnUse"
       id="clipPath72">
      <path
         d="M 0,0 H 1024 V 768 H 0 Z"
         transform="matrix(1,0,0,-1,-171.9565,377.19706)"
         id="path72" />
    </clipPath>
    <clipPath
       clipPathUnits="userSpaceOnUse"
       id="clipPath73">
      <path
         d="M 0,0 H 1024 V 768 H 0 Z"
         transform="matrix(1,0,0,-1,-180.45651,377.19706)"
         id="path73" />
    </clipPath>
    <clipPath
       clipPathUnits="userSpaceOnUse"
       id="clipPath74">
      <path
         d="M 0,0 H 1024 V 768 H 0 Z"
         transform="matrix(1,0,0,-1,-188.42721,372.94706)"
         id="path74" />
    </clipPath>
    <clipPath
       clipPathUnits="userSpaceOnUse"
       id="clipPath75">
      <path
         d="M 0,0 H 1024 V 768 H 0 Z"
         transform="matrix(1,0,0,-1,-35.710311,649.51991)"
         id="path75" />
    </clipPath>
    <clipPath
       clipPathUnits="userSpaceOnUse"
       id="clipPath87">
      <path
         d="M 0,0 H 1024 V 768 H 0 Z"
         transform="matrix(1.3333333,0,0,-1.3333333,0,1024)"
         id="path87" />
    </clipPath>
    <clipPath
       clipPathUnits="userSpaceOnUse"
       id="clipPath85">
      <path
         d="m 252.5984,395.4686 h 42.57145 v 5 H 252.5984 Z"
         transform="matrix(1,0,0,-1,-253.59841,397.96861)"
         id="path85" />
    </clipPath>
    <clipPath
       clipPathUnits="userSpaceOnUse"
       id="clipPath90">
      <path
         d="M 0,0 H 1024 V 768 H 0 Z"
         transform="matrix(1.3333333,0,0,-1.3333333,0,1024)"
         id="path90" />
    </clipPath>
    <clipPath
       clipPathUnits="userSpaceOnUse"
       id="clipPath88">
      <path
         d="m 333.4606,395.4686 h 42.57145 v 5 H 333.4606 Z"
         transform="matrix(1,0,0,-1,-334.46061,397.96861)"
         id="path88" />
    </clipPath>
    <clipPath
       clipPathUnits="userSpaceOnUse"
       id="clipPath127">
      <path
         d="M 0,0 H 1024 V 768 H 0 Z"
         transform="matrix(1.3333333,0,0,-1.3333333,0,1024)"
         id="path127" />
    </clipPath>
    <clipPath
       clipPathUnits="userSpaceOnUse"
       id="clipPath125">
      <path
         d="m 306.8518,99.76964 v 32.01746 h 11.6 V 99.76964 Z"
         transform="matrix(1.3333333,0,0,-1.3333333,0,1024)"
         id="path125" />
    </clipPath>
    <clipPath
       clipPathUnits="userSpaceOnUse"
       id="clipPath124">
      <path
         d="M 0,0 H 1024 V 768 H 0 Z"
         transform="matrix(0,1,1,0,-100.76961,-312.65181)"
         id="path124" />
    </clipPath>
    <clipPath
       clipPathUnits="userSpaceOnUse"
       id="clipPath129">
      <path
         d="M 0,0 H 1024 V 768 H 0 Z"
         id="path129" />
    </clipPath>
    <clipPath
       clipPathUnits="userSpaceOnUse"
       id="clipPath133">
      <path
         d="M 0,0 H 1024 V 768 H 0 Z"
         transform="matrix(1.3333333,0,0,-1.3333333,0,1024)"
         id="path133" />
    </clipPath>
    <clipPath
       clipPathUnits="userSpaceOnUse"
       id="clipPath131">
      <path
         d="m 318.8345,97.82011 v 32.01749 h 11.6 V 97.82011 Z"
         transform="matrix(1.3333333,0,0,-1.3333333,0,1024)"
         id="path131" />
    </clipPath>
    <clipPath
       clipPathUnits="userSpaceOnUse"
       id="clipPath130">
      <path
         d="M 0,0 H 1024 V 768 H 0 Z"
         transform="matrix(0,1,1,0,-98.820115,-324.63451)"
         id="path130" />
    </clipPath>
    <clipPath
       clipPathUnits="userSpaceOnUse"
       id="clipPath135">
      <path
         d="M 0,0 H 1024 V 768 H 0 Z"
         id="path135" />
    </clipPath>
    <clipPath
       clipPathUnits="userSpaceOnUse"
       id="clipPath137">
      <path
         d="M 0,0 H 1024 V 768 H 0 Z"
         transform="matrix(1.3333333,0,0,-1.3333333,0,1024)"
         id="path137" />
    </clipPath>
    <clipPath
       clipPathUnits="userSpaceOnUse"
       id="clipPath136">
      <path
         d="M 0,0 H 1024 V 768 H 0 Z"
         transform="matrix(1,0,0,-1,-414.39051,598.61446)"
         id="path136" />
    </clipPath>
    <clipPath
       clipPathUnits="userSpaceOnUse"
       id="clipPath138">
      <path
         d="M 0,0 H 1024 V 768 H 0 Z"
         transform="matrix(1,0,0,-1,-445.00581,392.44366)"
         id="path138" />
    </clipPath>
    <clipPath
       clipPathUnits="userSpaceOnUse"
       id="clipPath139">
      <path
         d="M 0,0 H 1024 V 768 H 0 Z"
         transform="matrix(1,0,0,-1,-452.93411,107.68107)"
         id="path139" />
    </clipPath>
    <clipPath
       clipPathUnits="userSpaceOnUse"
       id="clipPath148">
      <path
         d="M 0,0 H 1024 V 768 H 0 Z"
         transform="matrix(1,0,0,-1,-439.68371,221.25481)"
         id="path148" />
    </clipPath>
    <clipPath
       clipPathUnits="userSpaceOnUse"
       id="clipPath201">
      <path
         d="M 0,0 H 1024 V 768 H 0 Z"
         transform="matrix(1,0,0,-1,-298.35751,160.2472)"
         id="path201" />
    </clipPath>
    <clipPath
       clipPathUnits="userSpaceOnUse"
       id="clipPath218">
      <path
         d="M 0,0 H 1024 V 768 H 0 Z"
         transform="matrix(1.3333333,0,0,-1.3333333,0,1024)"
         id="path218" />
    </clipPath>
    <clipPath
       clipPathUnits="userSpaceOnUse"
       id="clipPath216">
      <path
         d="M 0,0 H 1024 V 768 H 0 Z"
         transform="matrix(1,0,0,-1,-295.58671,604.33502)"
         id="path216" />
    </clipPath>
    <clipPath
       clipPathUnits="userSpaceOnUse"
       id="clipPath222">
      <path
         d="M 0,0 H 1024 V 768 H 0 Z"
         transform="matrix(1.3333333,0,0,-1.3333333,0,1024)"
         id="path222" />
    </clipPath>
    <clipPath
       clipPathUnits="userSpaceOnUse"
       id="clipPath220">
      <path
         d="m 124.3727,334.4346 v 32.0175 h 11.6 v -32.0175 z"
         transform="matrix(1.3333333,0,0,-1.3333333,0,1024)"
         id="path220" />
    </clipPath>
    <clipPath
       clipPathUnits="userSpaceOnUse"
       id="clipPath219">
      <path
         d="M 0,0 H 1024 V 768 H 0 Z"
         transform="matrix(0,1,1,0,-335.43461,-130.1727)"
         id="path219" />
    </clipPath>
    <clipPath
       clipPathUnits="userSpaceOnUse"
       id="clipPath224">
      <path
         d="M 0,0 H 1024 V 768 H 0 Z"
         id="path224" />
    </clipPath>
    <clipPath
       clipPathUnits="userSpaceOnUse"
       id="clipPath228">
      <path
         d="M 0,0 H 1024 V 768 H 0 Z"
         transform="matrix(1.3333333,0,0,-1.3333333,0,1024)"
         id="path228" />
    </clipPath>
    <clipPath
       clipPathUnits="userSpaceOnUse"
       id="clipPath226">
      <path
         d="m 136.3554,332.4851 v 32.0175 h 11.6 v -32.0175 z"
         transform="matrix(1.3333333,0,0,-1.3333333,0,1024)"
         id="path226" />
    </clipPath>
    <clipPath
       clipPathUnits="userSpaceOnUse"
       id="clipPath225">
      <path
         d="M 0,0 H 1024 V 768 H 0 Z"
         transform="matrix(0,1,1,0,-333.48511,-142.1554)"
         id="path225" />
    </clipPath>
    <clipPath
       clipPathUnits="userSpaceOnUse"
       id="clipPath230">
      <path
         d="M 0,0 H 1024 V 768 H 0 Z"
         id="path230" />
    </clipPath>
    <clipPath
       clipPathUnits="userSpaceOnUse"
       id="clipPath234">
      <path
         d="M 0,0 H 1024 V 768 H 0 Z"
         transform="matrix(1.3333333,0,0,-1.3333333,0,1024)"
         id="path234" />
    </clipPath>
    <clipPath
       clipPathUnits="userSpaceOnUse"
       id="clipPath232">
      <path
         d="m 447.4411,211.5486 v 32.0175 h 11.6 v -32.0175 z"
         transform="matrix(1.3333333,0,0,-1.3333333,0,1024)"
         id="path232" />
    </clipPath>
    <clipPath
       clipPathUnits="userSpaceOnUse"
       id="clipPath231">
      <path
         d="M 0,0 H 1024 V 768 H 0 Z"
         transform="matrix(0,1,1,0,-212.5486,-453.24111)"
         id="path231" />
    </clipPath>
    <clipPath
       clipPathUnits="userSpaceOnUse"
       id="clipPath236">
      <path
         d="M 0,0 H 1024 V 768 H 0 Z"
         id="path236" />
    </clipPath>
    <clipPath
       clipPathUnits="userSpaceOnUse"
       id="clipPath240">
      <path
         d="M 0,0 H 1024 V 768 H 0 Z"
         transform="matrix(1.3333333,0,0,-1.3333333,0,1024)"
         id="path240" />
    </clipPath>
    <clipPath
       clipPathUnits="userSpaceOnUse"
       id="clipPath238">
      <path
         d="m 459.4238,209.5991 v 32.0175 h 11.6 v -32.0175 z"
         transform="matrix(1.3333333,0,0,-1.3333333,0,1024)"
         id="path238" />
    </clipPath>
    <clipPath
       clipPathUnits="userSpaceOnUse"
       id="clipPath237">
      <path
         d="M 0,0 H 1024 V 768 H 0 Z"
         transform="matrix(0,1,1,0,-210.59911,-465.22381)"
         id="path237" />
    </clipPath>
    <clipPath
       clipPathUnits="userSpaceOnUse"
       id="clipPath242">
      <path
         d="M 0,0 H 1024 V 768 H 0 Z"
         id="path242" />
    </clipPath>
    <clipPath
       clipPathUnits="userSpaceOnUse"
       id="clipPath246">
      <path
         d="M 0,0 H 1024 V 768 H 0 Z"
         transform="matrix(1.3333333,0,0,-1.3333333,0,1024)"
         id="path246" />
    </clipPath>
    <clipPath
       clipPathUnits="userSpaceOnUse"
       id="clipPath244">
      <path
         d="m 306.617,145.2132 v 32.0175 h 11.6 v -32.0175 z"
         transform="matrix(1.3333333,0,0,-1.3333333,0,1024)"
         id="path244" />
    </clipPath>
    <clipPath
       clipPathUnits="userSpaceOnUse"
       id="clipPath243">
      <path
         d="M 0,0 H 1024 V 768 H 0 Z"
         transform="matrix(0,1,1,0,-146.2132,-312.41701)"
         id="path243" />
    </clipPath>
    <clipPath
       clipPathUnits="userSpaceOnUse"
       id="clipPath248">
      <path
         d="M 0,0 H 1024 V 768 H 0 Z"
         id="path248" />
    </clipPath>
    <clipPath
       clipPathUnits="userSpaceOnUse"
       id="clipPath252">
      <path
         d="M 0,0 H 1024 V 768 H 0 Z"
         transform="matrix(1.3333333,0,0,-1.3333333,0,1024)"
         id="path252" />
    </clipPath>
    <clipPath
       clipPathUnits="userSpaceOnUse"
       id="clipPath250">
      <path
         d="m 318.5997,143.2637 v 32.0174 h 11.6 v -32.0174 z"
         transform="matrix(1.3333333,0,0,-1.3333333,0,1024)"
         id="path250" />
    </clipPath>
    <clipPath
       clipPathUnits="userSpaceOnUse"
       id="clipPath249">
      <path
         d="M 0,0 H 1024 V 768 H 0 Z"
         transform="matrix(0,1,1,0,-144.2637,-324.39971)"
         id="path249" />
    </clipPath>
    <clipPath
       clipPathUnits="userSpaceOnUse"
       id="clipPath254">
      <path
         d="M 0,0 H 1024 V 768 H 0 Z"
         id="path254" />
    </clipPath>
    <clipPath
       clipPathUnits="userSpaceOnUse"
       id="clipPath257">
      <path
         d="M 0,0 H 1024 V 768 H 0 Z"
         transform="matrix(1.3333333,0,0,-1.3333333,0,1024)"
         id="path257" />
    </clipPath>
    <clipPath
       clipPathUnits="userSpaceOnUse"
       id="clipPath255">
      <path
         d="M 0,0 H 1024 V 768 H 0 Z"
         transform="matrix(0.3776851,-0.92593411,-0.92593411,-0.3776851,291.78933,337.66148)"
         id="path255" />
    </clipPath>
    <clipPath
       clipPathUnits="userSpaceOnUse"
       id="clipPath259">
      <path
         d="M 0,0 H 1024 V 768 H 0 Z"
         transform="matrix(0.82234093,0.56899513,0.56899513,-0.82234093,-370.02242,-60.743837)"
         id="path259" />
    </clipPath>
    <clipPath
       clipPathUnits="userSpaceOnUse"
       id="clipPath260">
      <path
         d="M 0,0 H 1024 V 768 H 0 Z"
         transform="matrix(1,0,0,-1,-423.21921,103.82583)"
         id="path260" />
    </clipPath>
    <clipPath
       clipPathUnits="userSpaceOnUse"
       id="clipPath261">
      <path
         d="M 0,0 H 1024 V 768 H 0 Z"
         transform="matrix(1,0,0,-1,-425.28981,103.82583)"
         id="path261" />
    </clipPath>
    <clipPath
       clipPathUnits="userSpaceOnUse"
       id="clipPath262">
      <path
         d="M 0,0 H 1024 V 768 H 0 Z"
         transform="matrix(1,0,0,-1,-216.66271,651.70277)"
         id="path262" />
    </clipPath>
    <clipPath
       clipPathUnits="userSpaceOnUse"
       id="clipPath263">
      <path
         d="M 0,0 H 1024 V 768 H 0 Z"
         transform="matrix(1,0,0,-1,-452.93411,154.26595)"
         id="path263" />
    </clipPath>
    <clipPath
       clipPathUnits="userSpaceOnUse"
       id="clipPath287">
      <path
         d="M 0,0 H 1024 V 768 H 0 Z"
         transform="matrix(1,0,0,-1,-414.47701,109.15962)"
         id="path287" />
    </clipPath>
    <clipPath
       clipPathUnits="userSpaceOnUse"
       id="clipPath288">
      <path
         d="M 0,0 H 1024 V 768 H 0 Z"
         transform="matrix(1,0,0,-1,-422.97701,109.15962)"
         id="path288" />
    </clipPath>
    <clipPath
       clipPathUnits="userSpaceOnUse"
       id="clipPath289">
      <path
         d="M 0,0 H 1024 V 768 H 0 Z"
         transform="matrix(1,0,0,-1,-430.84571,104.90961)"
         id="path289" />
    </clipPath>
    <clipPath
       clipPathUnits="userSpaceOnUse"
       id="clipPath290">
      <path
         d="M 0,0 H 1024 V 768 H 0 Z"
         transform="matrix(1,0,0,-1,-414.43451,392.59946)"
         id="path290" />
    </clipPath>
    <clipPath
       clipPathUnits="userSpaceOnUse"
       id="clipPath291">
      <path
         d="M 0,0 H 1024 V 768 H 0 Z"
         transform="matrix(1,0,0,-1,-422.93451,392.59946)"
         id="path291" />
    </clipPath>
    <clipPath
       clipPathUnits="userSpaceOnUse"
       id="clipPath292">
      <path
         d="M 0,0 H 1024 V 768 H 0 Z"
         transform="matrix(1,0,0,-1,-430.90521,388.34946)"
         id="path292" />
    </clipPath>
    <clipPath
       clipPathUnits="userSpaceOnUse"
       id="clipPath293">
      <path
         d="M 0,0 H 1024 V 768 H 0 Z"
         transform="matrix(1,0,0,-1,-415.28451,154.60315)"
         id="path293" />
    </clipPath>
    <clipPath
       clipPathUnits="userSpaceOnUse"
       id="clipPath294">
      <path
         d="M 0,0 H 1024 V 768 H 0 Z"
         transform="matrix(1,0,0,-1,-423.78451,154.60315)"
         id="path294" />
    </clipPath>
    <clipPath
       clipPathUnits="userSpaceOnUse"
       id="clipPath295">
      <path
         d="M 0,0 H 1024 V 768 H 0 Z"
         transform="matrix(1,0,0,-1,-431.65321,150.35316)"
         id="path295" />
    </clipPath>
    <clipPath
       clipPathUnits="userSpaceOnUse"
       id="clipPath296">
      <path
         d="M 0,0 H 1024 V 768 H 0 Z"
         transform="matrix(1,0,0,-1,-541.90501,178.37565)"
         id="path296" />
    </clipPath>
    <clipPath
       clipPathUnits="userSpaceOnUse"
       id="clipPath297">
      <path
         d="M 0,0 H 1024 V 768 H 0 Z"
         transform="matrix(1,0,0,-1,-549.77371,174.12565)"
         id="path297" />
    </clipPath>
    <clipPath
       clipPathUnits="userSpaceOnUse"
       id="clipPath298">
      <path
         d="M 0,0 H 1024 V 768 H 0 Z"
         transform="matrix(1,0,0,-1,-558.11506,171.47025)"
         id="path298" />
    </clipPath>
    <clipPath
       clipPathUnits="userSpaceOnUse"
       id="clipPath299">
      <path
         d="M 0,0 H 1024 V 768 H 0 Z"
         transform="matrix(1,0,0,-1,-541.94771,263.15965)"
         id="path299" />
    </clipPath>
    <clipPath
       clipPathUnits="userSpaceOnUse"
       id="clipPath300">
      <path
         d="M 0,0 H 1024 V 768 H 0 Z"
         transform="matrix(1,0,0,-1,-550.68826,263.15965)"
         id="path300" />
    </clipPath>
    <clipPath
       clipPathUnits="userSpaceOnUse"
       id="clipPath301">
      <path
         d="M 0,0 H 1024 V 768 H 0 Z"
         transform="matrix(1,0,0,-1,-549.73108,256.34887)"
         id="path301" />
    </clipPath>
    <clipPath
       clipPathUnits="userSpaceOnUse"
       id="clipPath302">
      <path
         d="M 0,0 H 1024 V 768 H 0 Z"
         transform="matrix(1,0,0,-1,-558.07243,253.69347)"
         id="path302" />
    </clipPath>
    <clipPath
       clipPathUnits="userSpaceOnUse"
       id="clipPath303">
      <path
         d="M 0,0 H 1024 V 768 H 0 Z"
         transform="matrix(1,0,0,-1,-293.3875,26.009093)"
         id="path303" />
    </clipPath>
    <clipPath
       clipPathUnits="userSpaceOnUse"
       id="clipPath304">
      <path
         d="M 0,0 H 1024 V 768 H 0 Z"
         transform="matrix(1,0,0,-1,-337.37951,20.009093)"
         id="path304" />
    </clipPath>
    <clipPath
       clipPathUnits="userSpaceOnUse"
       id="clipPath306">
      <path
         d="M 0,0 H 1024 V 768 H 0 Z"
         transform="matrix(0.48049746,0.87699619,0.87699619,-0.48049746,-381.16358,30.379845)"
         id="path306" />
    </clipPath>
    <clipPath
       clipPathUnits="userSpaceOnUse"
       id="clipPath308">
      <path
         d="M 0,0 H 1024 V 768 H 0 Z"
         transform="matrix(0.2621195,-0.96503542,-0.96503542,-0.2621195,496.02261,482.86911)"
         id="path308" />
    </clipPath>
    <clipPath
       clipPathUnits="userSpaceOnUse"
       id="clipPath309">
      <path
         d="M 0,0 H 1024 V 768 H 0 Z"
         transform="matrix(1,0,0,-1,-388.10341,598.71646)"
         id="path309" />
    </clipPath>
    <clipPath
       clipPathUnits="userSpaceOnUse"
       id="clipPath310">
      <path
         d="M 0,0 H 1024 V 768 H 0 Z"
         transform="matrix(1,0,0,-1,-396.70241,598.71646)"
         id="path310" />
    </clipPath>
    <clipPath
       clipPathUnits="userSpaceOnUse"
       id="clipPath311">
      <path
         d="M 0,0 H 1024 V 768 H 0 Z"
         transform="matrix(1,0,0,-1,-404.57111,594.46646)"
         id="path311" />
    </clipPath>
    <clipPath
       clipPathUnits="userSpaceOnUse"
       id="clipPath313">
      <path
         d="M 0,0 H 1024 V 768 H 0 Z"
         transform="matrix(0.34369376,0.93908173,0.93908173,-0.34369376,-441.61934,-53.94394)"
         id="path313" />
    </clipPath>
    <clipPath
       clipPathUnits="userSpaceOnUse"
       id="clipPath315">
      <path
         d="M 0,0 H 1024 V 768 H 0 Z"
         transform="matrix(0.24194211,-0.9702907,-0.9702907,-0.24194211,553.36888,483.0595)"
         id="path315" />
    </clipPath>
    <clipPath
       clipPathUnits="userSpaceOnUse"
       id="clipPath316">
      <path
         d="M 0,0 H 1024 V 768 H 0 Z"
         transform="matrix(1,0,0,-1,-253.85001,650.07637)"
         id="path316" />
    </clipPath>
    <clipPath
       clipPathUnits="userSpaceOnUse"
       id="clipPath317">
      <path
         d="M 0,0 H 1024 V 768 H 0 Z"
         transform="matrix(1,0,0,-1,-262.44901,650.07637)"
         id="path317" />
    </clipPath>
    <clipPath
       clipPathUnits="userSpaceOnUse"
       id="clipPath318">
      <path
         d="M 0,0 H 1024 V 768 H 0 Z"
         transform="matrix(1,0,0,-1,-270.31771,645.82637)"
         id="path318" />
    </clipPath>
    <clipPath
       clipPathUnits="userSpaceOnUse"
       id="clipPath61-2">
      <path
         d="M 0,0 H 1024 V 768 H 0 Z"
         transform="matrix(1,0,0,-1,-299.3488,114.09561)"
         id="path61-7" />
    </clipPath>
    <clipPath
       clipPathUnits="userSpaceOnUse"
       id="clipPath61-2-6">
      <path
         d="M 0,0 H 1024 V 768 H 0 Z"
         transform="matrix(1,0,0,-1,-299.3488,114.09561)"
         id="path61-7-0" />
    </clipPath>
    <clipPath
       clipPathUnits="userSpaceOnUse"
       id="clipPath222-2">
      <path
         d="M 0,0 H 1024 V 768 H 0 Z"
         transform="matrix(1.3333333,0,0,-1.3333333,0,1024)"
         id="path222-3" />
    </clipPath>
    <clipPath
       clipPathUnits="userSpaceOnUse"
       id="clipPath220-7">
      <path
         d="m 124.3727,334.4346 v 32.0175 h 11.6 v -32.0175 z"
         transform="matrix(1.3333333,0,0,-1.3333333,0,1024)"
         id="path220-5" />
    </clipPath>
    <clipPath
       clipPathUnits="userSpaceOnUse"
       id="clipPath219-9">
      <path
         d="M 0,0 H 1024 V 768 H 0 Z"
         transform="matrix(0,1,1,0,-335.43461,-130.1727)"
         id="path219-2" />
    </clipPath>
    <clipPath
       clipPathUnits="userSpaceOnUse"
       id="clipPath224-2">
      <path
         d="M 0,0 H 1024 V 768 H 0 Z"
         id="path224-8" />
    </clipPath>
    <clipPath
       clipPathUnits="userSpaceOnUse"
       id="clipPath35-9">
      <path
         d="M 0,0 H 1024 V 768 H 0 Z"
         transform="matrix(1,0,0,-1,-133.1311,26.153078)"
         id="path35-4" />
    </clipPath>
    <clipPath
       clipPathUnits="userSpaceOnUse"
       id="clipPath36-7">
      <path
         d="M 0,0 H 1024 V 768 H 0 Z"
         transform="matrix(1,0,0,-1,-446.30541,26.009093)"
         id="path36-8" />
    </clipPath>
    <clipPath
       clipPathUnits="userSpaceOnUse"
       id="clipPath37-4">
      <path
         d="M 0,0 H 1024 V 768 H 0 Z"
         transform="matrix(1,0,0,-1,-463.63341,20.009093)"
         id="path37-5" />
    </clipPath>
    <clipPath
       clipPathUnits="userSpaceOnUse"
       id="clipPath303-0">
      <path
         d="M 0,0 H 1024 V 768 H 0 Z"
         transform="matrix(1,0,0,-1,-293.3875,26.009093)"
         id="path303-3" />
    </clipPath>
    <clipPath
       clipPathUnits="userSpaceOnUse"
       id="clipPath304-6">
      <path
         d="M 0,0 H 1024 V 768 H 0 Z"
         transform="matrix(1,0,0,-1,-337.37951,20.009093)"
         id="path304-1" />
    </clipPath>
  </defs>
  <g
     inkscape:label="Layer 1"
     inkscape:groupmode="layer"
     id="layer1"
     transform="translate(13.692962,-53.23492)">
    <g
       id="g27"
       transform="matrix(0.26458333,0,0,0.26458333,-26.458333,15.875004)">
      <path
         id="path28"
         d="M 0.04947982,6.199803 0.05746044,7.199771 4.688111,587.4185"
         style="fill:none;stroke:#000000;stroke-width:2;stroke-linecap:butt;stroke-linejoin:round;stroke-miterlimit:4;stroke-dasharray:none;stroke-opacity:1"
         transform="matrix(1.3332909,0.01064117,-0.01064117,1.3332909,86.0064,150.3728)"
         clip-path="url(#clipPath29)" />
      <path
         id="path30"
         d="m 69.3048,645.6204 -4.8,9.6 -4.8,-9.6 4.8,2.4 z"
         style="fill:#000000;fill-opacity:1;fill-rule:nonzero;stroke:none"
         transform="matrix(1.3333333,0,0,-1.3333333,0,1024)" />
    </g>
    <g
       id="g30"
       transform="matrix(0.26458333,0,0,0.26458333,-26.458333,15.875004)">
      <path
         id="path31"
         d="M 0,0 H 11.20715"
         style="fill:none;stroke:#000000;stroke-width:2;stroke-linecap:butt;stroke-linejoin:round;stroke-miterlimit:4;stroke-dasharray:none;stroke-opacity:1"
         transform="matrix(1.3333333,0,0,1.3333333,70.268307,720.07853)"
         clip-path="url(#clipPath32)" />
    </g>
    <g
       id="g32"
       transform="matrix(0.26458333,0,0,0.26458333,-26.458333,15.875004)">
      <path
         id="path33"
         d="M 0,0 H 40.57145"
         style="fill:none;stroke:#000000;stroke-width:3;stroke-linecap:butt;stroke-linejoin:round;stroke-miterlimit:4;stroke-dasharray:none;stroke-opacity:1"
         transform="matrix(1.3333333,0,0,1.3333333,586.24493,716.74533)"
         clip-path="url(#clipPath34)" />
    </g>
    <g
       id="g45"
       transform="matrix(0.26458333,0,0,0.26458333,-26.458333,15.875004)">
      <path
         id="path46"
         d="M 0,0 H 11.20715"
         style="fill:none;stroke:#000000;stroke-width:2;stroke-linecap:butt;stroke-linejoin:round;stroke-miterlimit:4;stroke-dasharray:none;stroke-opacity:1"
         transform="matrix(1.3333333,0,0,1.3333333,70.268307,558.04187)"
         clip-path="url(#clipPath47)" />
    </g>
    <g
       id="g57"
       transform="matrix(0.26458333,0,0,0.26458333,-26.458333,15.875004)">
      <path
         id="path58"
         d="M 0,0 H 40.57145"
         style="fill:none;stroke:#000000;stroke-width:3;stroke-linecap:butt;stroke-linejoin:round;stroke-miterlimit:4;stroke-dasharray:none;stroke-opacity:1"
         transform="matrix(1.3333333,0,0,1.3333333,154.1196,558.7452)"
         clip-path="url(#clipPath59)" />
    </g>
    <g
       id="g74"
       transform="matrix(0.26458333,0,0,0.26458333,-26.458333,15.875004)">
      <text
         id="text74"
         xml:space="preserve"
         transform="matrix(1.3333333,0,0,1.3333333,47.613747,157.97347)"
         clip-path="url(#clipPath75)"><tspan
           id="tspan74"
           style="font-variant:normal;font-weight:normal;font-size:19px;font-family:STIXGeneral;writing-mode:lr-tb;fill:#000000;fill-opacity:1;fill-rule:nonzero;stroke:none"
           x="0"
           y="0">eV</tspan></text>
    </g>
    <g
       id="g199"
       transform="matrix(0.26458333,0,0,0.26458333,-26.458333,15.875004)">
      <path
         id="path200"
         d="M 0,0 H 40.57145"
         style="fill:none;stroke:#000000;stroke-width:3;stroke-linecap:butt;stroke-linejoin:round;stroke-miterlimit:4;stroke-dasharray:none;stroke-opacity:1"
         transform="matrix(1.3333333,0,0,1.3333333,397.81,810.33707)"
         clip-path="url(#clipPath201)" />
    </g>
    <g
       id="g215"
       transform="matrix(0.26458333,0,0,0.26458333,-26.458333,15.875004)">
      <g
         id="g217"
         clip-path="url(#clipPath218)">
        <path
           d="M 0,0 H 40.57145"
           style="fill:none;stroke:#000000;stroke-width:3;stroke-linecap:butt;stroke-linejoin:round;stroke-miterlimit:4;stroke-dasharray:none;stroke-opacity:1"
           transform="matrix(1.3333333,0,0,1.3333333,394.1156,218.22)"
           clip-path="url(#clipPath216)"
           id="path217" />
      </g>
    </g>
    <g
       id="g218"
       style="fill:#03a9f4;stroke:#03a9f4"
       transform="matrix(0.26458333,0,0,0.26458333,-26.458333,15.875004)">
      <g
         id="g222"
         clip-path="url(#clipPath222)"
         style="fill:#03a9f4;stroke:#03a9f4">
        <g
           clip-path="url(#clipPath220)"
           id="g221"
           style="fill:#03a9f4;stroke:#03a9f4">
          <path
             d="m 0,0 h 22.81747 1"
             style="fill:#03a9f4;stroke:#03a9f4;stroke-width:2;stroke-linecap:butt;stroke-linejoin:round;stroke-miterlimit:4;stroke-dasharray:none;stroke-opacity:1"
             transform="matrix(0,-1.3333333,1.3333333,0,173.5636,576.75387)"
             clip-path="url(#clipPath219)"
             id="path221" />
        </g>
      </g>
      <path
         id="path223"
         d="m 134.9727,355.8521 -4.8,9.6 -4.8,-9.6 4.8,2.4 z"
         style="fill:#03a9f4;fill-opacity:1;fill-rule:nonzero;stroke:#03a9f4"
         transform="matrix(1.3333333,0,0,-1.3333333,0,1024)"
         clip-path="url(#clipPath224)" />
    </g>
    <g
       id="g218-3"
       style="fill:#03a9f4;stroke:#03a9f4"
       transform="matrix(0.26458333,0,0,0.26458333,38.099999,-74.612499)">
      <g
         id="g222-6"
         clip-path="url(#clipPath222-2)"
         style="fill:#03a9f4;stroke:#03a9f4">
        <g
           clip-path="url(#clipPath220-7)"
           id="g221-1"
           style="fill:#03a9f4;stroke:#03a9f4">
          <path
             d="m 0,0 h 22.81747 1"
             style="fill:#03a9f4;stroke:#03a9f4;stroke-width:2;stroke-linecap:butt;stroke-linejoin:round;stroke-miterlimit:4;stroke-dasharray:none;stroke-opacity:1"
             transform="matrix(0,-1.3333333,1.3333333,0,173.5636,576.75387)"
             clip-path="url(#clipPath219-9)"
             id="path221-2" />
        </g>
      </g>
      <path
         id="path223-9"
         d="m 134.9727,355.8521 -4.8,9.6 -4.8,-9.6 4.8,2.4 z"
         style="fill:#03a9f4;fill-opacity:1;fill-rule:nonzero;stroke:#03a9f4"
         transform="matrix(1.3333333,0,0,-1.3333333,0,1024)"
         clip-path="url(#clipPath224-2)" />
    </g>
    <g
       id="g230"
       style="fill:#03a9f4;stroke:#03a9f4"
       transform="matrix(0.26458333,0,0,0.26458333,-26.458333,15.875004)">
      <g
         id="g234"
         clip-path="url(#clipPath234)"
         style="fill:#03a9f4;stroke:#03a9f4">
        <g
           clip-path="url(#clipPath232)"
           id="g233"
           style="fill:#03a9f4;stroke:#03a9f4">
          <path
             d="m 0,0 h 22.81747 1"
             style="fill:#03a9f4;stroke:#03a9f4;stroke-width:2;stroke-linecap:butt;stroke-linejoin:round;stroke-miterlimit:4;stroke-dasharray:none;stroke-opacity:1"
             transform="matrix(0,-1.3333333,1.3333333,0,604.32147,740.60187)"
             clip-path="url(#clipPath231)"
             id="path233" />
        </g>
      </g>
      <path
         id="path235"
         d="m 458.0411,232.9661 -4.8,9.6 -4.8,-9.6 4.8,2.4 z"
         style="fill:#03a9f4;fill-opacity:1;fill-rule:nonzero;stroke:#03a9f4"
         transform="matrix(1.3333333,0,0,-1.3333333,0,1024)"
         clip-path="url(#clipPath236)" />
    </g>
    <g
       id="g236"
       style="fill:#03a9f4;stroke:#03a9f4"
       transform="matrix(0.26458333,0,0,0.26458333,-26.458333,15.875004)">
      <g
         id="g240"
         clip-path="url(#clipPath240)"
         style="fill:#03a9f4;stroke:#03a9f4">
        <g
           clip-path="url(#clipPath238)"
           id="g239"
           style="fill:#03a9f4;stroke:#03a9f4">
          <path
             d="m 6.2,0 h 1 22.81747"
             style="fill:#03a9f4;stroke:#03a9f4;stroke-width:2;stroke-linecap:butt;stroke-linejoin:round;stroke-miterlimit:4;stroke-dasharray:none;stroke-opacity:1"
             transform="matrix(0,-1.3333333,1.3333333,0,620.2984,743.2012)"
             clip-path="url(#clipPath237)"
             id="path239" />
        </g>
      </g>
      <path
         id="path241"
         d="m 460.4238,220.1991 4.8,-9.6 4.8,9.6 -4.8,-2.4 z"
         style="fill:#03a9f4;fill-opacity:1;fill-rule:nonzero;stroke:#03a9f4"
         transform="matrix(1.3333333,0,0,-1.3333333,0,1024)"
         clip-path="url(#clipPath242)" />
    </g>
    <g
       id="g242"
       style="fill:#03a9f4;stroke:#03a9f4"
       transform="matrix(0.26458333,0,0,0.26458333,-26.458333,15.875004)">
      <g
         id="g246"
         clip-path="url(#clipPath246)"
         style="fill:#03a9f4;stroke:#03a9f4">
        <g
           clip-path="url(#clipPath244)"
           id="g245"
           style="fill:#03a9f4;stroke:#03a9f4">
          <path
             d="m 0,0 h 22.81747 1"
             style="fill:#03a9f4;stroke:#03a9f4;stroke-width:2;stroke-linecap:butt;stroke-linejoin:round;stroke-miterlimit:4;stroke-dasharray:none;stroke-opacity:1"
             transform="matrix(0,-1.3333333,1.3333333,0,416.556,829.04907)"
             clip-path="url(#clipPath243)"
             id="path245" />
        </g>
      </g>
      <path
         id="path247"
         d="m 317.217,166.6307 -4.8,9.6 -4.8,-9.6 4.8,2.4 z"
         style="fill:#03a9f4;fill-opacity:1;fill-rule:nonzero;stroke:#03a9f4"
         transform="matrix(1.3333333,0,0,-1.3333333,0,1024)"
         clip-path="url(#clipPath248)" />
    </g>
    <g
       id="g248"
       style="fill:#03a9f4;stroke:#03a9f4"
       transform="matrix(0.26458333,0,0,0.26458333,-26.458333,15.875004)">
      <g
         id="g252"
         clip-path="url(#clipPath252)"
         style="fill:#03a9f4;stroke:#03a9f4">
        <g
           clip-path="url(#clipPath250)"
           id="g251"
           style="fill:#03a9f4;stroke:#03a9f4">
          <path
             d="m 6.2,0 h 1 22.81747"
             style="fill:#03a9f4;stroke:#03a9f4;stroke-width:2;stroke-linecap:butt;stroke-linejoin:round;stroke-miterlimit:4;stroke-dasharray:none;stroke-opacity:1"
             transform="matrix(0,-1.3333333,1.3333333,0,432.53293,831.6484)"
             clip-path="url(#clipPath249)"
             id="path251" />
        </g>
      </g>
      <path
         id="path253"
         d="m 319.5997,153.8637 4.8,-9.6 4.8,9.6 -4.8,-2.4 z"
         style="fill:#03a9f4;fill-opacity:1;fill-rule:nonzero;stroke:#03a9f4"
         transform="matrix(1.3333333,0,0,-1.3333333,0,1024)"
         clip-path="url(#clipPath254)" />
    </g>
    <g
       id="g254"
       transform="matrix(0.26458333,0,0,0.26458333,-26.458333,15.875004)">
      <g
         id="g256"
         clip-path="url(#clipPath257)">
        <path
           d="M 27.862416,60.982652 256.6862,0"
           style="fill:none;stroke:#000000;stroke-width:1;stroke-linecap:butt;stroke-linejoin:miter;stroke-miterlimit:4;stroke-dasharray:2, 2;stroke-dashoffset:0;stroke-opacity:1"
           transform="matrix(0.50358013,1.2345788,-1.2345788,0.50358013,269.9304,493.72347)"
           clip-path="url(#clipPath255)"
           id="path256"
           sodipodi:nodetypes="cc" />
      </g>
    </g>
    <g
       id="g257"
       transform="matrix(0.26458333,0,0,0.26458333,-26.458333,15.875004)">
      <path
         id="path258"
         d="M 0,0 H 123.4925"
         style="fill:none;stroke:#000000;stroke-width:1;stroke-linecap:butt;stroke-linejoin:miter;stroke-miterlimit:4;stroke-dasharray:none;stroke-opacity:1"
         transform="matrix(1.0964545,-0.75866013,0.75866013,1.0964545,451.79667,809.8816)"
         clip-path="url(#clipPath259)" />
    </g>
    <g
       id="g304"
       transform="matrix(0.26458333,0,0,0.26458333,-26.458333,15.875004)">
      <path
         id="path305"
         d="M 0,0 H 292.7245"
         style="fill:none;stroke:#000000;stroke-width:1;stroke-linecap:butt;stroke-linejoin:miter;stroke-miterlimit:4;stroke-dasharray:none;stroke-opacity:1"
         transform="matrix(0.6406632,-1.1693281,1.1693281,0.6406632,208.67347,558.83147)"
         clip-path="url(#clipPath306)" />
    </g>
    <g
       id="g306"
       transform="matrix(0.26458333,0,0,0.26458333,-26.458333,15.875004)">
      <path
         id="path307"
         d="M 0,0 H 397.7854"
         style="fill:none;stroke:#000000;stroke-width:1;stroke-linecap:butt;stroke-linejoin:miter;stroke-miterlimit:4;stroke-dasharray:2, 2;stroke-dashoffset:0;stroke-opacity:1"
         transform="matrix(0.34949267,1.2867139,-1.2867139,0.34949267,447.95813,217.0016)"
         clip-path="url(#clipPath308)" />
    </g>
    <ellipse
       style="fill:#ffffff;fill-opacity:1;stroke:#d32f2f;stroke-width:0.556948;stroke-linecap:round;stroke-linejoin:round;stroke-dasharray:none"
       id="path1-6-1-5-6-9-62"
       cx="19.687483"
       cy="148.16667"
       rx="6.7708507"
       ry="6.7708488"
       inkscape:export-filename="s00.svg"
       inkscape:export-xdpi="96"
       inkscape:export-ydpi="96" />
    <ellipse
       style="fill:#ffffff;fill-opacity:1;stroke:#d32f2f;stroke-width:0.556948;stroke-linecap:round;stroke-linejoin:round;stroke-dasharray:none"
       id="path1-6-1-5-6-9-62-2"
       cx="136.10414"
       cy="185.20834"
       rx="6.7708507"
       ry="6.7708488"
       inkscape:export-filename="s00.svg"
       inkscape:export-xdpi="96"
       inkscape:export-ydpi="96" />
    <g
       id="g59"
       transform="matrix(0.26458333,0,0,0.26458333,-28.093291,-19.016264)">
      <path
         id="path60"
         d="M 0,0 H 40.57145"
         style="fill:none;stroke:#000000;stroke-width:3;stroke-linecap:butt;stroke-linejoin:round;stroke-miterlimit:4;stroke-dasharray:none;stroke-opacity:1"
         transform="matrix(1.3333333,0,0,1.3333333,399.13173,871.87253)"
         clip-path="url(#clipPath61-2)" />
    </g>
    <ellipse
       style="fill:#ffffff;fill-opacity:1;stroke:#d32f2f;stroke-width:0.556948;stroke-linecap:round;stroke-linejoin:round;stroke-dasharray:none"
       id="path1-6-1-5-6-9-6-6-9-0"
       cx="-94.397842"
       cy="211.87283"
       rx="6.3213124"
       ry="6.321311"
       inkscape:export-filename="s00.svg"
       inkscape:export-xdpi="96"
       inkscape:export-ydpi="96"
       transform="scale(-1,1)" />
    <ellipse
       style="fill:#ffffff;fill-opacity:1;stroke:#d32f2f;stroke-width:0.556948;stroke-linecap:round;stroke-linejoin:round;stroke-dasharray:none"
       id="path1-6-1-5-6-9-6-6-9-0-8"
       cx="-76.133675"
       cy="211.60034"
       rx="3.932147"
       ry="3.9321463"
       inkscape:export-filename="s00.svg"
       inkscape:export-xdpi="96"
       inkscape:export-ydpi="96"
       transform="scale(-1,1)" />
    <g
       id="g59-6"
       transform="matrix(-0.26458333,0,0,0.26458333,201.01397,-167.18293)">
      <path
         id="path60-1"
         d="M 0,0 H 40.57145"
         style="fill:none;stroke:#000000;stroke-width:3;stroke-linecap:butt;stroke-linejoin:round;stroke-miterlimit:4;stroke-dasharray:none;stroke-opacity:1"
         transform="matrix(1.3333333,0,0,1.3333333,399.13173,871.87253)"
         clip-path="url(#clipPath61-2-6)" />
    </g>
    <ellipse
       style="fill:#d32f2f;fill-opacity:1;stroke:#d32f2f;stroke-width:0.556948;stroke-linecap:round;stroke-linejoin:round;stroke-dasharray:none"
       id="path1-6-1-5-6-9-6-6-9-0-87"
       cx="78.522842"
       cy="63.706161"
       rx="6.3213124"
       ry="6.321311"
       inkscape:export-filename="s00.svg"
       inkscape:export-xdpi="96"
       inkscape:export-ydpi="96" />
    <ellipse
       style="fill:#ffffff;fill-opacity:1;stroke:#d32f2f;stroke-width:0.556948;stroke-linecap:round;stroke-linejoin:round;stroke-dasharray:none"
       id="path1-6-1-5-6-9-6-6-9-0-8-9"
       cx="96.78701"
       cy="63.43367"
       rx="3.932147"
       ry="3.9321463"
       inkscape:export-filename="s00.svg"
       inkscape:export-xdpi="96"
       inkscape:export-ydpi="96" />
    <g
       id="g34"
       transform="matrix(0.26458333,0,0,0.26458333,-21.166664,5.2916702)">
      <text
         id="text34"
         xml:space="preserve"
         transform="matrix(1.3333333,0,0,1.3333333,177.50813,989.12923)"
         clip-path="url(#clipPath35-9)"><tspan
           id="tspan34"
           style="font-variant:normal;font-weight:normal;font-size:24px;font-family:STIXGeneral;writing-mode:lr-tb;fill:#000000;fill-opacity:1;fill-rule:nonzero;stroke:none"
           x="0"
           y="0">H</tspan></text>
    </g>
    <g
       id="g35"
       transform="matrix(0.26458333,0,0,0.26458333,-21.166664,5.2916702)">
      <text
         id="text35"
         xml:space="preserve"
         transform="matrix(1.3333333,0,0,1.3333333,595.07387,989.32121)"
         clip-path="url(#clipPath36-7)"><tspan
           id="tspan35"
           style="font-variant:normal;font-weight:normal;font-size:24px;font-family:STIXGeneral;writing-mode:lr-tb;fill:#000000;fill-opacity:1;fill-rule:nonzero;stroke:none"
           x="0"
           y="0">He</tspan></text>
      <text
         id="text36"
         xml:space="preserve"
         transform="matrix(1.3333333,0,0,1.3333333,618.17787,997.32121)"
         clip-path="url(#clipPath37-4)"><tspan
           id="tspan36"
           style="font-variant:normal;font-weight:normal;font-size:17.04px;font-family:STIXGeneral;writing-mode:lr-tb;fill:#000000;fill-opacity:1;fill-rule:nonzero;stroke:none"
           x="0"
           y="0" /></text>
    </g>
    <g
       id="g302"
       transform="matrix(0.26458333,0,0,0.26458333,-22.915199,7.0587753)">
      <text
         id="text302"
         xml:space="preserve"
         transform="matrix(1.3333333,0,0,1.3333333,391.18333,989.32121)"
         clip-path="url(#clipPath303-0)"><tspan
           id="tspan302"
           style="font-variant:normal;font-weight:normal;font-size:24px;font-family:STIXGeneral;writing-mode:lr-tb;fill:#000000;fill-opacity:1;fill-rule:nonzero;stroke:none"
           x="0"
           y="0">HeH</tspan></text>
      <text
         id="text303"
         xml:space="preserve"
         transform="matrix(1.3333333,0,0,1.3333333,449.83933,997.32121)"
         clip-path="url(#clipPath304-6)"><tspan
           id="tspan303"
           style="font-variant:normal;font-weight:normal;font-size:17.04px;font-family:STIXGeneral;writing-mode:lr-tb;fill:#000000;fill-opacity:1;fill-rule:nonzero;stroke:none"
           x="0"
           y="0" /></text>
    </g>
  </g>
</svg>
