<?xml version="1.0" encoding="UTF-8" standalone="no"?>
<!-- Created with Inkscape (http://www.inkscape.org/) -->

<svg
   width="54.904175mm"
   height="137.42104mm"
   viewBox="0 0 54.904175 137.42104"
   version="1.1"
   id="svg1"
   xmlns="http://www.w3.org/2000/svg"
   xmlns:svg="http://www.w3.org/2000/svg">
  <defs
     id="defs1" />
  <g
     id="layer1"
     transform="translate(-408.81507,-194.37829)">
    <path
       style="fill:none;stroke:#000000;stroke-width:1.38469;stroke-linecap:round;stroke-linejoin:round;stroke-dasharray:1.38469, 5.53875;stroke-dashoffset:0"
       d="M 435.70473,195.07063 V 331.79931"
       id="path2-9-7-1-2-8-5" />
    <text
       xml:space="preserve"
       style="font-size:13.1549px;font-family:arial;-inkscape-font-specification:arial;text-align:center;text-anchor:middle;fill:none;stroke:#000000;stroke-width:8.59161;stroke-linecap:round;stroke-linejoin:round;stroke-dasharray:8.59161, 34.3665;stroke-dashoffset:0"
       x="448.13458"
       y="207.50005"
       id="text4-6-4-5-8-4-4"><tspan
         id="tspan4-0-5-5-9-5-7"
         style="font-size:13.1549px;fill:#000000;stroke:none;stroke-width:8.59161"
         x="448.13458"
         y="207.50005">x</tspan></text>
    <path
       d="m 436.80323,199.15112 c -7.35738,-0.13846 -14.76044,2.14179 -18.72141,6.90635 -9.49335,11.4194 -5.12029,24.25667 1.6418,34.253 a 23.306031,23.306031 0 0 1 16.34349,-6.81579 23.306031,23.306031 0 0 1 16.59208,6.95196 c 6.94364,-9.67003 11.5032,-22.11033 2.59181,-33.68967 -3.77888,-4.91024 -11.09039,-7.46739 -18.44777,-7.60585 z"
       style="fill:none;stroke:#0055d4;stroke-width:1.03535;stroke-linecap:round;stroke-linejoin:round"
       id="path26" />
    <path
       d="m 452.05796,287.56884 a 23.306031,23.306031 0 0 1 -15.99085,6.35073 23.306031,23.306031 0 0 1 -15.75511,-6.22677 c -7.08531,10.11105 -11.99404,23.34836 -2.23018,35.09317 7.92192,9.52913 29.6114,9.12096 37.16918,-0.69951 9.16734,-11.91191 4.08185,-24.73704 -3.19304,-34.51762 z"
       style="fill:none;stroke:#ff9955;stroke-width:1.03535;stroke-linecap:round;stroke-linejoin:round"
       id="path32" />
    <path
       d="m 452.65919,246.3664 a 23.306031,23.306031 0 0 0 -16.59208,-6.95195 23.306031,23.306031 0 0 0 -16.34349,6.81578 c 6.78715,10.03335 15.98122,17.20486 15.98122,17.20486 0,0 9.75771,-7.0463 16.95435,-17.06869 z"
       style="fill:none;stroke:#ff9955;stroke-width:1.44425;stroke-linejoin:round;stroke-opacity:1"
       id="path28" />
    <path
       d="m 435.70484,263.43509 c 0,0 -8.67463,6.7775 -15.39284,16.36468 a 23.306031,23.306031 0 0 0 15.75511,6.22678 23.306031,23.306031 0 0 0 15.99085,-6.35074 c -7.12633,-9.58089 -16.35312,-16.24072 -16.35312,-16.24072 z"
       style="fill:none;stroke:#0055d4;stroke-width:1.44425;stroke-linejoin:round;stroke-opacity:1"
       id="path31" />
    <circle
       style="fill:none;stroke:#ff0000;stroke-width:1.6502;stroke-linejoin:round;stroke-dasharray:1.6502, 3.30041;stroke-dashoffset:0;stroke-opacity:1"
       id="path5-9"
       cx="436.26462"
       cy="263.12955"
       r="26.629511" />
    <ellipse
       style="fill:#ffcc00;stroke:#ffcc00;stroke-width:1.17866;stroke-linejoin:round;stroke-opacity:1"
       id="path4-2-5"
       cx="435.70471"
       cy="263.28738"
       rx="1.4630778"
       ry="1.4630777" />
  </g>
</svg>
