<?xml version="1.0" encoding="UTF-8" standalone="no"?>
<svg
   version="1.1"
   width="1532"
   height="898"
   id="svg49"
   sodipodi:docname="geogebra-export.svg"
   inkscape:version="1.4.2 (1:1.4.2+202505120737+ebf0e940d0)"
   xmlns:inkscape="http://www.inkscape.org/namespaces/inkscape"
   xmlns:sodipodi="http://sodipodi.sourceforge.net/DTD/sodipodi-0.dtd"
   xmlns="http://www.w3.org/2000/svg"
   xmlns:svg="http://www.w3.org/2000/svg">
  <sodipodi:namedview
     id="namedview49"
     pagecolor="#ffffff"
     bordercolor="#000000"
     borderopacity="0.25"
     inkscape:showpageshadow="2"
     inkscape:pageopacity="0.0"
     inkscape:pagecheckerboard="0"
     inkscape:deskcolor="#d1d1d1"
     inkscape:zoom="0.88975501"
     inkscape:cx="882.82728"
     inkscape:cy="525.42553"
     inkscape:window-width="1920"
     inkscape:window-height="1008"
     inkscape:window-x="0"
     inkscape:window-y="0"
     inkscape:window-maximized="1"
     inkscape:current-layer="svg49" />
  <defs
     id="defs1">
    <clipPath
       clipPathUnits="userSpaceOnUse"
       id="clipPath49">
      <path
         fill="none"
         stroke="none"
         d="M 0,0 H 1532 V 898 H 0 Z"
         id="path50" />
    </clipPath>
    <clipPath
       clipPathUnits="userSpaceOnUse"
       id="clipPath50">
      <path
         fill="none"
         stroke="none"
         d="M 0,0 H 1532 V 898 H 0 Z"
         id="path51" />
    </clipPath>
    <clipPath
       clipPathUnits="userSpaceOnUse"
       id="clipPath51">
      <path
         fill="none"
         stroke="none"
         d="M 0,0 H 1532 V 898 H 0 Z"
         id="path52" />
    </clipPath>
    <clipPath
       clipPathUnits="userSpaceOnUse"
       id="clipPath52">
      <path
         fill="none"
         stroke="none"
         d="M 0,0 H 1532 V 898 H 0 Z"
         id="path53" />
    </clipPath>
  </defs>
  <path
     fill="none"
     stroke="#1c1c1f"
     paint-order="fill stroke markers"
     d="m 714.5,2.5 v 896"
     stroke-opacity="1"
     stroke-miterlimit="10"
     id="path2" />
  <path
     fill="none"
     stroke="#1c1c1f"
     paint-order="fill stroke markers"
     d="m 714.5,1.5 -4,4"
     stroke-opacity="1"
     stroke-miterlimit="10"
     id="path3" />
  <path
     fill="none"
     stroke="#1c1c1f"
     paint-order="fill stroke markers"
     d="m 714.5,1.5 4,4"
     stroke-opacity="1"
     stroke-miterlimit="10"
     id="path4" />
  <path
     fill="none"
     stroke="#1c1c1f"
     paint-order="fill stroke markers"
     d="m 0.5,473.5 h 1530"
     stroke-opacity="1"
     stroke-miterlimit="10"
     id="path5" />
  <path
     fill="none"
     stroke="#1c1c1f"
     paint-order="fill stroke markers"
     d="m 1531.5,473.5 -4,-4"
     stroke-opacity="1"
     stroke-miterlimit="10"
     id="path6" />
  <path
     fill="none"
     stroke="#1c1c1f"
     paint-order="fill stroke markers"
     d="m 1531.5,473.5 -4,4"
     stroke-opacity="1"
     stroke-miterlimit="10"
     id="path7" />
  <text
     fill="#1c1c1f"
     stroke="none"
     font-family="geogebra-sans-serif, sans-serif"
     font-size="12px"
     font-style="normal"
     font-weight="normal"
     text-decoration="normal"
     x="34"
     y="489"
     text-anchor="start"
     dominant-baseline="alphabetic"
     fill-opacity="1"
     id="text7">–4</text>
  <path
     fill="none"
     stroke="#1c1c1f"
     paint-order="fill stroke markers"
     d="m 39.5,473.5 v 3"
     stroke-opacity="1"
     stroke-miterlimit="10"
     id="path8" />
  <text
     fill="#1c1c1f"
     stroke="none"
     font-family="geogebra-sans-serif, sans-serif"
     font-size="12px"
     font-style="normal"
     font-weight="normal"
     text-decoration="normal"
     x="113"
     y="489"
     text-anchor="start"
     dominant-baseline="alphabetic"
     fill-opacity="1"
     id="text8">–3.5</text>
  <path
     fill="none"
     stroke="#1c1c1f"
     paint-order="fill stroke markers"
     d="m 124.5,473.5 v 3"
     stroke-opacity="1"
     stroke-miterlimit="10"
     id="path9" />
  <text
     fill="#1c1c1f"
     stroke="none"
     font-family="geogebra-sans-serif, sans-serif"
     font-size="12px"
     font-style="normal"
     font-weight="normal"
     text-decoration="normal"
     x="203"
     y="489"
     text-anchor="start"
     dominant-baseline="alphabetic"
     fill-opacity="1"
     id="text9">–3</text>
  <path
     fill="none"
     stroke="#1c1c1f"
     paint-order="fill stroke markers"
     d="m 208.5,473.5 v 3"
     stroke-opacity="1"
     stroke-miterlimit="10"
     id="path10" />
  <text
     fill="#1c1c1f"
     stroke="none"
     font-family="geogebra-sans-serif, sans-serif"
     font-size="12px"
     font-style="normal"
     font-weight="normal"
     text-decoration="normal"
     x="281"
     y="489"
     text-anchor="start"
     dominant-baseline="alphabetic"
     fill-opacity="1"
     id="text10"
     inkscape:export-filename="sinc.pdf"
     inkscape:export-xdpi="96"
     inkscape:export-ydpi="96">–2.5</text>
  <path
     fill="none"
     stroke="#1c1c1f"
     paint-order="fill stroke markers"
     d="m 292.5,473.5 v 3"
     stroke-opacity="1"
     stroke-miterlimit="10"
     id="path11" />
  <text
     fill="#1c1c1f"
     stroke="none"
     font-family="geogebra-sans-serif, sans-serif"
     font-size="12px"
     font-style="normal"
     font-weight="normal"
     text-decoration="normal"
     x="372"
     y="489"
     text-anchor="start"
     dominant-baseline="alphabetic"
     fill-opacity="1"
     id="text11">–2</text>
  <path
     fill="none"
     stroke="#1c1c1f"
     paint-order="fill stroke markers"
     d="m 377.5,473.5 v 3"
     stroke-opacity="1"
     stroke-miterlimit="10"
     id="path12" />
  <text
     fill="#1c1c1f"
     stroke="none"
     font-family="geogebra-sans-serif, sans-serif"
     font-size="12px"
     font-style="normal"
     font-weight="normal"
     text-decoration="normal"
     x="450"
     y="489"
     text-anchor="start"
     dominant-baseline="alphabetic"
     fill-opacity="1"
     id="text12">–1.5</text>
  <path
     fill="none"
     stroke="#1c1c1f"
     paint-order="fill stroke markers"
     d="m 461.5,473.5 v 3"
     stroke-opacity="1"
     stroke-miterlimit="10"
     id="path13" />
  <text
     fill="#1c1c1f"
     stroke="none"
     font-family="geogebra-sans-serif, sans-serif"
     font-size="12px"
     font-style="normal"
     font-weight="normal"
     text-decoration="normal"
     x="540"
     y="489"
     text-anchor="start"
     dominant-baseline="alphabetic"
     fill-opacity="1"
     id="text13">–1</text>
  <path
     fill="none"
     stroke="#1c1c1f"
     paint-order="fill stroke markers"
     d="m 545.5,473.5 v 3"
     stroke-opacity="1"
     stroke-miterlimit="10"
     id="path14" />
  <text
     fill="#1c1c1f"
     stroke="none"
     font-family="geogebra-sans-serif, sans-serif"
     font-size="12px"
     font-style="normal"
     font-weight="normal"
     text-decoration="normal"
     x="619"
     y="489"
     text-anchor="start"
     dominant-baseline="alphabetic"
     fill-opacity="1"
     id="text14">–0.5</text>
  <path
     fill="none"
     stroke="#1c1c1f"
     paint-order="fill stroke markers"
     d="m 630.5,473.5 v 3"
     stroke-opacity="1"
     stroke-miterlimit="10"
     id="path15" />
  <path
     fill="none"
     stroke="#1c1c1f"
     paint-order="fill stroke markers"
     d="m 714.5,473.5 v 3"
     stroke-opacity="1"
     stroke-miterlimit="10"
     id="path16" />
  <text
     fill="#1c1c1f"
     stroke="none"
     font-family="geogebra-sans-serif, sans-serif"
     font-size="12px"
     font-style="normal"
     font-weight="normal"
     text-decoration="normal"
     x="791"
     y="489"
     text-anchor="start"
     dominant-baseline="alphabetic"
     fill-opacity="1"
     id="text16">0.5</text>
  <path
     fill="none"
     stroke="#1c1c1f"
     paint-order="fill stroke markers"
     d="m 799.5,473.5 v 3"
     stroke-opacity="1"
     stroke-miterlimit="10"
     id="path17" />
  <text
     fill="#1c1c1f"
     stroke="none"
     font-family="geogebra-sans-serif, sans-serif"
     font-size="12px"
     font-style="normal"
     font-weight="normal"
     text-decoration="normal"
     x="881"
     y="489"
     text-anchor="start"
     dominant-baseline="alphabetic"
     fill-opacity="1"
     id="text17">1</text>
  <path
     fill="none"
     stroke="#1c1c1f"
     paint-order="fill stroke markers"
     d="m 883.5,473.5 v 3"
     stroke-opacity="1"
     stroke-miterlimit="10"
     id="path18" />
  <text
     fill="#1c1c1f"
     stroke="none"
     font-family="geogebra-sans-serif, sans-serif"
     font-size="12px"
     font-style="normal"
     font-weight="normal"
     text-decoration="normal"
     x="959"
     y="489"
     text-anchor="start"
     dominant-baseline="alphabetic"
     fill-opacity="1"
     id="text18">1.5</text>
  <path
     fill="none"
     stroke="#1c1c1f"
     paint-order="fill stroke markers"
     d="m 967.5,473.5 v 3"
     stroke-opacity="1"
     stroke-miterlimit="10"
     id="path19" />
  <text
     fill="#1c1c1f"
     stroke="none"
     font-family="geogebra-sans-serif, sans-serif"
     font-size="12px"
     font-style="normal"
     font-weight="normal"
     text-decoration="normal"
     x="1050"
     y="489"
     text-anchor="start"
     dominant-baseline="alphabetic"
     fill-opacity="1"
     id="text19">2</text>
  <path
     fill="none"
     stroke="#1c1c1f"
     paint-order="fill stroke markers"
     d="m 1052.5,473.5 v 3"
     stroke-opacity="1"
     stroke-miterlimit="10"
     id="path20" />
  <text
     fill="#1c1c1f"
     stroke="none"
     font-family="geogebra-sans-serif, sans-serif"
     font-size="12px"
     font-style="normal"
     font-weight="normal"
     text-decoration="normal"
     x="1128"
     y="489"
     text-anchor="start"
     dominant-baseline="alphabetic"
     fill-opacity="1"
     id="text20">2.5</text>
  <path
     fill="none"
     stroke="#1c1c1f"
     paint-order="fill stroke markers"
     d="m 1136.5,473.5 v 3"
     stroke-opacity="1"
     stroke-miterlimit="10"
     id="path21" />
  <text
     fill="#1c1c1f"
     stroke="none"
     font-family="geogebra-sans-serif, sans-serif"
     font-size="12px"
     font-style="normal"
     font-weight="normal"
     text-decoration="normal"
     x="1218"
     y="489"
     text-anchor="start"
     dominant-baseline="alphabetic"
     fill-opacity="1"
     id="text21">3</text>
  <path
     fill="none"
     stroke="#1c1c1f"
     paint-order="fill stroke markers"
     d="m 1220.5,473.5 v 3"
     stroke-opacity="1"
     stroke-miterlimit="10"
     id="path22" />
  <text
     fill="#1c1c1f"
     stroke="none"
     font-family="geogebra-sans-serif, sans-serif"
     font-size="12px"
     font-style="normal"
     font-weight="normal"
     text-decoration="normal"
     x="1297"
     y="489"
     text-anchor="start"
     dominant-baseline="alphabetic"
     fill-opacity="1"
     id="text22">3.5</text>
  <path
     fill="none"
     stroke="#1c1c1f"
     paint-order="fill stroke markers"
     d="m 1305.5,473.5 v 3"
     stroke-opacity="1"
     stroke-miterlimit="10"
     id="path23" />
  <text
     fill="#1c1c1f"
     stroke="none"
     font-family="geogebra-sans-serif, sans-serif"
     font-size="12px"
     font-style="normal"
     font-weight="normal"
     text-decoration="normal"
     x="1387"
     y="489"
     text-anchor="start"
     dominant-baseline="alphabetic"
     fill-opacity="1"
     id="text23">4</text>
  <path
     fill="none"
     stroke="#1c1c1f"
     paint-order="fill stroke markers"
     d="m 1389.5,473.5 v 3"
     stroke-opacity="1"
     stroke-miterlimit="10"
     id="path24" />
  <text
     fill="#1c1c1f"
     stroke="none"
     font-family="geogebra-sans-serif, sans-serif"
     font-size="12px"
     font-style="normal"
     font-weight="normal"
     text-decoration="normal"
     x="1466"
     y="489"
     text-anchor="start"
     dominant-baseline="alphabetic"
     fill-opacity="1"
     id="text24">4.5</text>
  <path
     fill="none"
     stroke="#1c1c1f"
     paint-order="fill stroke markers"
     d="m 1474.5,473.5 v 3"
     stroke-opacity="1"
     stroke-miterlimit="10"
     id="path25" />
  <path
     fill="none"
     stroke="#1c1c1f"
     paint-order="fill stroke markers"
     d="m 711.5,895.5 h 3"
     stroke-opacity="1"
     stroke-miterlimit="10"
     id="path26" />
  <path
     fill="none"
     stroke="#1c1c1f"
     paint-order="fill stroke markers"
     d="m 711.5,810.5 h 3"
     stroke-opacity="1"
     stroke-miterlimit="10"
     id="path27" />
  <path
     fill="none"
     stroke="#1c1c1f"
     paint-order="fill stroke markers"
     d="m 711.5,726.5 h 3"
     stroke-opacity="1"
     stroke-miterlimit="10"
     id="path28" />
  <path
     fill="none"
     stroke="#1c1c1f"
     paint-order="fill stroke markers"
     d="m 711.5,642.5 h 3"
     stroke-opacity="1"
     stroke-miterlimit="10"
     id="path29" />
  <path
     fill="none"
     stroke="#1c1c1f"
     paint-order="fill stroke markers"
     d="m 711.5,557.5 h 3"
     stroke-opacity="1"
     stroke-miterlimit="10"
     id="path30" />
  <path
     fill="none"
     stroke="#1c1c1f"
     paint-order="fill stroke markers"
     d="m 711.5,389.5 h 3"
     stroke-opacity="1"
     stroke-miterlimit="10"
     id="path31" />
  <path
     fill="none"
     stroke="#1c1c1f"
     paint-order="fill stroke markers"
     d="m 711.5,304.5 h 3"
     stroke-opacity="1"
     stroke-miterlimit="10"
     id="path32" />
  <path
     fill="none"
     stroke="#1c1c1f"
     paint-order="fill stroke markers"
     d="m 711.5,220.5 h 3"
     stroke-opacity="1"
     stroke-miterlimit="10"
     id="path33" />
  <path
     fill="none"
     stroke="#1c1c1f"
     paint-order="fill stroke markers"
     d="m 711.5,135.5 h 3"
     stroke-opacity="1"
     stroke-miterlimit="10"
     id="path34" />
  <path
     fill="none"
     stroke="#1c1c1f"
     paint-order="fill stroke markers"
     d="m 711.5,51.5 h 3"
     stroke-opacity="1"
     stroke-miterlimit="10"
     id="path35" />
  <text
     fill="#1c1c1f"
     stroke="none"
     font-family="geogebra-sans-serif, sans-serif"
     font-size="12px"
     font-style="normal"
     font-weight="normal"
     text-decoration="normal"
     x="694"
     y="815"
     text-anchor="start"
     dominant-baseline="alphabetic"
     fill-opacity="1"
     id="text35">–2</text>
  <text
     fill="#1c1c1f"
     stroke="none"
     font-family="geogebra-sans-serif, sans-serif"
     font-size="12px"
     font-style="normal"
     font-weight="normal"
     text-decoration="normal"
     x="684"
     y="731"
     text-anchor="start"
     dominant-baseline="alphabetic"
     fill-opacity="1"
     id="text36">–1.5</text>
  <text
     fill="#1c1c1f"
     stroke="none"
     font-family="geogebra-sans-serif, sans-serif"
     font-size="12px"
     font-style="normal"
     font-weight="normal"
     text-decoration="normal"
     x="694"
     y="647"
     text-anchor="start"
     dominant-baseline="alphabetic"
     fill-opacity="1"
     id="text37">–1</text>
  <text
     fill="#1c1c1f"
     stroke="none"
     font-family="geogebra-sans-serif, sans-serif"
     font-size="12px"
     font-style="normal"
     font-weight="normal"
     text-decoration="normal"
     x="684"
     y="562"
     text-anchor="start"
     dominant-baseline="alphabetic"
     fill-opacity="1"
     id="text38">–0.5</text>
  <text
     fill="#1c1c1f"
     stroke="none"
     font-family="geogebra-sans-serif, sans-serif"
     font-size="12px"
     font-style="normal"
     font-weight="normal"
     text-decoration="normal"
     x="690"
     y="394"
     text-anchor="start"
     dominant-baseline="alphabetic"
     fill-opacity="1"
     id="text39">0.5</text>
  <text
     fill="#1c1c1f"
     stroke="none"
     font-family="geogebra-sans-serif, sans-serif"
     font-size="12px"
     font-style="normal"
     font-weight="normal"
     text-decoration="normal"
     x="700"
     y="309"
     text-anchor="start"
     dominant-baseline="alphabetic"
     fill-opacity="1"
     id="text40">1</text>
  <text
     fill="#1c1c1f"
     stroke="none"
     font-family="geogebra-sans-serif, sans-serif"
     font-size="12px"
     font-style="normal"
     font-weight="normal"
     text-decoration="normal"
     x="690"
     y="225"
     text-anchor="start"
     dominant-baseline="alphabetic"
     fill-opacity="1"
     id="text41">1.5</text>
  <text
     fill="#1c1c1f"
     stroke="none"
     font-family="geogebra-sans-serif, sans-serif"
     font-size="12px"
     font-style="normal"
     font-weight="normal"
     text-decoration="normal"
     x="700"
     y="140"
     text-anchor="start"
     dominant-baseline="alphabetic"
     fill-opacity="1"
     id="text42">2</text>
  <text
     fill="#1c1c1f"
     stroke="none"
     font-family="geogebra-sans-serif, sans-serif"
     font-size="12px"
     font-style="normal"
     font-weight="normal"
     text-decoration="normal"
     x="690"
     y="56"
     text-anchor="start"
     dominant-baseline="alphabetic"
     fill-opacity="1"
     id="text43">2.5</text>
  <text
     fill="#1c1c1f"
     stroke="none"
     font-family="geogebra-sans-serif, sans-serif"
     font-size="12px"
     font-style="normal"
     font-weight="normal"
     text-decoration="normal"
     x="700"
     y="489"
     text-anchor="start"
     dominant-baseline="alphabetic"
     fill-opacity="1"
     id="text44">0</text>
  <path
     fill="none"
     stroke="#006400"
     paint-order="fill stroke markers"
     d="m 1,584.82402 v 2.33951 -2.33951 l 1,-2.37814 v 0 l 1,-2.41594 v 0 l 1,-2.4529 v 0 l 1,-2.48901 v 0 l 1,-2.52427 v 0 l 1,-2.55864 v 0 l 1,-2.59214 v 0 l 1,-2.62472 v 0 l 1,-2.65641 v 0 l 1,-2.68716 v 0 l 1,-2.717 v 0 l 1,-2.74589 v 0 l 1,-2.77382 v 0 l 1,-2.80079 v 0 l 1,-2.8268 v 0 l 1,-2.85183 v 0 l 1,-2.87586 v 0 l 1,-2.8989 v 0 l 1,-2.92094 v 0 l 1,-2.94196 v 0 l 1,-2.96196 v 0 l 1,-2.98094 v 0 l 1,-2.99888 v 0 l 1,-3.01579 v 0 l 1,-3.03165 v 0 l 1,-3.04645 v 0 l 1,-3.0602 v 0 l 1,-3.0729 v 0 l 1,-3.08452 v 0 l 1,-3.09509 v 0 l 1,-3.10456 v 0 l 1,-3.11298 v 0 l 1,-3.1203 v 0 l 1,-3.12656 v 0 l 1,-3.13172 v 0 l 1,-3.13579 v 0 l 1,-3.1388 v 0 l 1,-3.14069 v 0 l 1,-3.14152 v 0 l 1,-3.14124 v 0 l 1,-3.13988 v 0 l 1,-3.13743 v 0 l 1,-3.13389 v 0 l 1,-3.12927 v 0 l 1,-3.12357 v 0 l 1,-3.11677 v 0 l 1,-3.10891 v 0 l 1,-3.09996 v 0 l 1,-3.08993 v 0 l 1,-3.07885 v 0 l 1,-3.06668 v 0 l 1,-3.05346 v 0 l 1,-3.03918 v 0 l 1,-3.02385 v 0 l 1,-3.00746 v 0 l 1,-2.99004 v 0 l 1,-2.97158 v 0 l 1,-2.95209 v 0 l 1,-2.93158 v 0 l 1,-2.91004 v 0 l 1,-2.88751 v 0 l 1,-2.86397 v 0 l 1,-2.83944 v 0 l 1,-2.81392 v 0 l 1,-2.78743 v 0 l 1,-2.75997 v 0 l 1,-2.73156 v 0 l 1,-2.7022 v 0 l 1,-2.6719 v 0 l 1,-2.64068 v 0 l 1,-2.60854 v 0 l 1,-2.5755 v 0 l 1,-2.54157 v 0 l 1,-2.50675 v 0 l 1,-2.47106 v 0 l 1,-2.43453 v 0 l 1,-2.39714 v 0 l 1,-2.35892 v 0 l 1,-2.31989 v 0 l 1,-2.28006 v 0 l 1,-2.23943 v 0 l 1,-2.19802 v 0 l 1,-2.15586 v 0 l 1,-2.11295 v 0 l 1,-2.06931 v 0 l 1,-2.02494 v 0 l 1,-1.97988 v 0 l 1,-1.93413 v 0 l 1,-1.88771 v 0 l 1,-1.84063 v 0 l 1,-1.79293 v 0 l 1,-1.74459 v 0 l 1,-1.69565 v 0 l 1,-1.64613 v 0 l 1,-1.59603 v 0 l 1,-1.54538 v 0 l 1,-1.49419 v 0 l 1,-1.4425 v 0 l 1,-1.39029 v 0 l 1,-1.3376 v 0 l 1,-1.28446 v 0 l 1,-1.23086 v 0 l 1,-1.17685 v 0 l 1,-1.12242 v 0 l 1,-1.0676 v 0 l 1,-1.01241 v 0 l 1,-0.95687 v 0 l 1,-0.90101 v 0 l 1,-0.84482 v 0 l 1,-0.78835 v 0 l 1,-0.73161 v 0 l 1,-0.6746 v 0 l 1,-0.61736 v 0 l 1,-0.55992 v 0 l 1,-0.50228 v 0 l 1,-0.44445 v 0 l 1,-0.38649 v 0 l 1,-0.32838 v 0 l 1,-0.27016 v 0 l 1,-0.21185 v 0 l 1,-0.15347 v 0 l 1,-0.095 v 0 l 1,-0.0366 v 0.0219 l 1,-0.0224 v 0.0224 l 1,0.0804 v 0 l 1,0.13886 v 0 l 1,0.19726 v 0 l 1,0.25559 v 0 l 1,0.31383 v 0 l 1,0.37198 v 0 l 1,0.42997 v 0 l 1,0.48784 v 0 l 1,0.54552 v 0 l 1,0.60303 v 0 l 1,0.66031 v 0 l 1,0.71738 v 0 l 1,0.77418 v 0 l 1,0.83074 v 0 l 1,0.88698 v 0 l 1,0.94294 v 0 l 1,0.99856 v 0 l 1,1.05384 v 0 l 1,1.10875 v 0 l 1,1.16327 v 0 l 1,1.2174 v 0 l 1,1.2711 v 0 l 1,1.32436 v 0 l 1,1.37717 v 0 l 1,1.42949 v 0 l 1,1.48131 v 0 l 1,1.53264 v 0 l 1,1.58342 v 0 l 1,1.63365 v 0 l 1,1.68333 v 0 l 1,1.73241 v 0 l 1,1.7809 v 0 l 1,1.82876 v 0 l 1,1.87601 v 0 l 1,1.92258 v 0 l 1,1.96851 v 0 l 1,2.01374 v 0 l 1,2.05828 v 0 l 1,2.10211 v 0 l 1,2.1452 v 0 l 1,2.18755 v 0 l 1,2.22915 v 0 l 1,2.26998 v 0 l 1,2.31 v 0 l 1,2.34925 v 0 l 1,2.38766 v 0 l 1,2.42526 v 0 l 1,2.46201 v 0 l 1,2.49791 v 0 l 1,2.53294 v 0 l 1,2.5671 v 0 l 1,2.60037 v 0 l 1,2.63273 v 0 l 1,2.66418 v 0 l 1,2.69471 v 0 l 1,2.72431 v 0 l 1,2.75296 v 0 l 1,2.78065 v 0 l 1,2.80739 v 0 l 1,2.83315 v 0 l 1,2.85793 v 0 l 1,2.88172 v 0 l 1,2.9045 v 0 l 1,2.92629 v 0 l 1,2.94706 v 0 l 1,2.9668 v 0 l 1,2.98552 v 0 l 1,3.00321 v 0 l 1,3.01985 v 0 l 1,3.03544 v 0 l 1,3.04999 v 0 l 1,3.06348 v 0 l 1,3.0759 v 0 l 1,3.08727 v 0 l 1,3.09755 v 0 l 1,3.10677 v 0 l 1,3.11491 v 0 l 1,3.12197 v 0 l 1,3.12794 v 0 l 1,3.13284 v 0 l 1,3.13665 v 0 l 1,3.13937 v 0 l 1,3.14101 v 0 l 1,3.14154 v 0 l 1,3.14101 v 0 l 1,3.13937 v 0 l 1,3.13665 v 0 l 1,3.13284 v 0 l 1,3.12794 v 0 l 1,3.12197 v 0 l 1,3.11491 v 0 l 1,3.10677 v 0 l 1,3.09755 v 0 l 1,3.08727 v 0 l 1,3.0759 v 0 l 1,3.06348 v 0 l 1,3.04999 v 0 l 1,3.03544 v 0 l 1,3.01985 v 0 l 1,3.00321 v 0 l 1,2.98552 v 0 l 1,2.9668 v 0 l 1,2.94706 v 0 l 1,2.92629 v 0 l 1,2.9045 v 0 l 1,2.88172 v 0 l 1,2.85793 v 0 l 1,2.83315 v 0 l 1,2.80739 v 0 l 1,2.78065 v 0 l 1,2.75296 v 0 l 1,2.72431 v 0 l 1,2.69471 v 0 l 1,2.66418 v 0 l 1,2.63273 v 0 l 1,2.60037 v 0 l 1,2.5671 v 0 l 1,2.53294 v 0 l 1,2.49791 v 0 l 1,2.46201 v 0 l 1,2.42526 v 0 l 1,2.38766 v 0 l 1,2.34925 v 0 l 1,2.31 v 0 l 1,2.26998 v 0 l 1,2.22915 v 0 l 1,2.18755 v 0 l 1,2.1452 v 0 l 1,2.10211 v 0 l 1,2.05828 v 0 l 1,2.01374 v 0 l 1,1.96851 v 0 l 1,1.92258 v 0 l 1,1.87601 v 0 l 1,1.82876 v 0 l 1,1.7809 v 0 l 1,1.73241 v 0 l 1,1.68333 v 0 l 1,1.63365 v 0 l 1,1.58342 v 0 l 1,1.53264 v 0 l 1,1.48131 v 0 l 1,1.42949 v 0 l 1,1.37717 v 0 l 1,1.32436 v 0 l 1,1.2711 v 0 l 1,1.2174 v 0 l 1,1.16327 v 0 l 1,1.10875 v 0 l 1,1.05384 v 0 l 1,0.99856 v 0 l 1,0.94294 v 0 l 1,0.88698 v 0 l 1,0.83074 v 0 l 1,0.77418 v 0 l 1,0.71738 v 0 l 1,0.66031 v 0 l 1,0.60303 v 0 l 1,0.54552 v 0 l 1,0.48784 v 0 l 1,0.42997 v 0 l 1,0.37198 v 0 l 1,0.31383 v 0 l 1,0.25559 v 0 l 1,0.19726 v 0 l 1,0.13886 v 0 l 1,0.0804 v 0 l 1,0.0224 v -4.6e-4 l 1,-0.0366 v 0 l 1,-0.095 v 0 l 1,-0.15347 v 0 l 1,-0.21185 v 0 l 1,-0.27016 v 0 l 1,-0.32838 v 0 l 1,-0.38649 v 0 l 1,-0.44445 v 0 l 1,-0.50228 v 0 l 1,-0.55992 v 0 l 1,-0.61736 v 0 l 1,-0.6746 v 0 l 1,-0.73161 v 0 l 1,-0.78835 v 0 l 1,-0.84482 v 0 l 1,-0.90101 v 0 l 1,-0.95687 v 0 l 1,-1.01241 v 0 l 1,-1.0676 v 0 l 1,-1.12242 v 0 l 1,-1.17685 v 0 l 1,-1.23086 v 0 l 1,-1.28446 v 0 l 1,-1.3376 v 0 l 1,-1.39029 v 0 l 1,-1.4425 v 0 l 1,-1.49419 v 0 l 1,-1.54538 v 0 l 1,-1.59603 v 0 l 1,-1.64613 v 0 l 1,-1.69565 v 0 l 1,-1.74459 v 0 l 1,-1.79293 v 0 l 1,-1.84063 v 0 l 1,-1.88771 v 0 l 1,-1.93413 v 0 l 1,-1.97988 v 0 l 1,-2.02494 v 0 l 1,-2.06931 v 0 l 1,-2.11295 v 0 l 1,-2.15586 v 0 l 1,-2.19802 v 0 l 1,-2.23943 v 0 l 1,-2.28006 v 0 l 1,-2.31989 v 0 l 1,-2.35892 v 0 l 1,-2.39714 v 0 l 1,-2.43453 v 0 l 1,-2.47106 v 0 l 1,-2.50675 v 0 l 1,-2.54157 v 0 l 1,-2.5755 v 0 l 1,-2.60854 v 0 l 1,-2.64068 v 0 l 1,-2.6719 v 0 l 1,-2.7022 v 0 l 1,-2.73156 v 0 l 1,-2.75997 v 0 l 1,-2.78743 v 0 l 1,-2.81392 v 0 l 1,-2.83944 v 0 l 1,-2.86397 v 0 l 1,-2.88751 v 0 l 1,-2.91004 v 0 l 1,-2.93158 v 0 l 1,-2.95209 v 0 l 1,-2.97158 v 0 l 1,-2.99004 v 0 l 1,-3.00746 v 0 l 1,-3.02385 v 0 l 1,-3.03918 v 0 l 1,-3.05346 v 0 l 1,-3.06668 v 0 l 1,-3.07885 v 0 l 1,-3.08993 v 0 l 1,-3.09996 v 0 l 1,-3.10891 v 0 l 1,-3.11677 v 0 l 1,-3.12357 v 0 l 1,-3.12927 v 0 l 1,-3.13389 v 0 l 1,-3.13743 v 0 l 1,-3.13988 v 0 l 1,-3.14124 v 0 l 1,-3.14152 v 0 l 1,-3.14069 v 0 l 1,-3.1388 v 0 l 1,-3.13579 v 0 l 1,-3.13172 v 0 l 1,-3.12656 v 0 l 1,-3.1203 v 0 l 1,-3.11298 v 0 l 1,-3.10456 v 0 l 1,-3.09509 v 0 l 1,-3.08452 v 0 l 1,-3.0729 v 0 l 1,-3.0602 v 0 l 1,-3.04645 v 0 l 1,-3.03165 v 0 l 1,-3.01579 v 0 l 1,-2.99888 v 0 l 1,-2.98094 v 0 l 1,-2.96196 v 0 l 1,-2.94196 v 0 l 1,-2.92094 v 0 l 1,-2.8989 v 0 l 1,-2.87586 v 0 l 1,-2.85183 v 0 l 1,-2.8268 v 0 l 1,-2.80079 v 0 l 1,-2.77382 v 0 l 1,-2.74589 v 0 l 1,-2.717 v 0 l 1,-2.68716 v 0 l 1,-2.65641 v 0 l 1,-2.62472 v 0 l 1,-2.59214 v 0 l 1,-2.55864 v 0 l 1,-2.52427 v 0 l 1,-2.48901 v 0 l 1,-2.4529 v 0 l 1,-2.41594 v 0 l 1,-2.37814 v 0 l 1,-2.33951 v 0 l 1,-2.30007 v 0 l 1,-2.25984 v 0 l 1,-2.21882 v 0 l 1,-2.17704 v 0 l 1,-2.1345 v 0 l 1,-2.09122 v 0 l 1,-2.04721 v 0 l 1,-2.0025 v 0 l 1,-1.95708 v 0 l 1,-1.91101 v 0 l 1,-1.86425 v 0 l 1,-1.81686 v 0 l 1,-1.76883 v 0 l 1,-1.7202 v 0 l 1,-1.67096 v 0 l 1,-1.62115 v 0 l 1,-1.57077 v 0 l 1,-1.51986 v 0 l 1,-1.4684 v 0 l 1,-1.41646 v 0 l 1,-1.36401 v 0 l 1,-1.31108 v 0 l 1,-1.25772 v 0 l 1,-1.20391 v 0 l 1,-1.14968 v 0 l 1,-1.09505 v 0 l 1,-1.04005 v 0 l 1,-0.98469 v 0 l 1,-0.92898 v 0 l 1,-0.87295 v 0 l 1,-0.81663 v 0 l 1,-0.76 v 0 l 1,-0.70314 v 0 l 1,-0.64601 v 0 l 1,-0.58867 v 0 l 1,-0.53111 v 0 l 1,-0.47339 v 0 l 1,-0.41549 v 0 l 1,-0.35745 v 0 l 1,-0.29928 v 0 l 1,-0.24102 v 0 l 1,-0.18267 v 0 l 1,-0.12425 v 0 l 1,-0.0658 v 0 l 1,-0.0114 v 0.004 l 1,0.0512 v 0 l 1,0.10963 v 0 l 1,0.16807 v 0 l 1,0.22644 v 0 l 1,0.28472 v 0 l 1,0.34292 v 0 l 1,0.40099 v 0 l 1,0.45893 v 0 l 1,0.5167 v 0 l 1,0.5743 v 0 l 1,0.6317 v 0 l 1,0.68887 v 0 l 1,0.74581 v 0 l 1,0.8025 v 0 l 1,0.8589 v 0 l 1,0.915 v 0 l 1,0.97079 v 0 l 1,1.02624 v 0 l 1,1.08134 v 0 l 1,1.13606 v 0 l 1,1.19039 v 0 l 1,1.24431 v 0 l 1,1.29778 v 0 l 1,1.35082 v 0 l 1,1.40339 v 0 l 1,1.45547 v 0 l 1,1.50704 v 0 l 1,1.55809 v 0 l 1,1.60861 v 0 l 1,1.65856 v 0 l 1,1.70795 v 0 l 1,1.75673 v 0 l 1,1.80491 v 0 l 1,1.85246 v 0 l 1,1.89938 v 0 l 1,1.94563 v 0 l 1,1.99121 v 0 l 1,2.0361 v 0 l 1,2.08028 v 0 l 1,2.12375 v 0 l 1,2.16647 v 0 l 1,2.20845 v 0 l 1,2.24966 v 0 l 1,2.29009 v 0 l 1,2.32972 v 0 l 1,2.36856 v 0 l 1,2.40656 v 0 l 1,2.44374 v 0 l 1,2.48007 v 0 l 1,2.51553 v 0 l 1,2.55014 v 0 l 1,2.58384 v 0 l 1,2.61666 v 0 l 1,2.64857 v 0 l 1,2.67957 v 0 l 1,2.70963 v 0 l 1,2.73875 v 0 l 1,2.76692 v 0 l 1,2.79415 v 0 l 1,2.82039 v 0 l 1,2.84566 v 0 l 1,2.86995 v 0 l 1,2.89323 v 0 l 1,2.91553 v 0 l 1,2.9368 v 0 l 1,2.95705 v 0 l 1,2.97629 v 0 l 1,2.9945 v 0 l 1,3.01166 v 0 l 1,3.02777 v 0 l 1,3.04285 v 0 l 1,3.05687 v 0 l 1,3.06982 v 0 l 1,3.08172 v 0 l 1,3.09254 v 0 l 1,3.1023 v 0 l 1,3.11097 v 0 l 1,3.11858 v 0 l 1,3.12509 v 0 l 1,3.13053 v 0 l 1,3.13488 v 0 l 1,3.13815 v 0 l 1,3.14032 v 0 l 1,3.14141 v 0 l 1,3.14141 v 0 l 1,3.14032 v 0 l 1,3.13815 v 0 l 1,3.13488 v 0 l 1,3.13053 v 0 l 1,3.12509 v 0 l 1,3.11858 v 0 l 1,3.11097 v 0 l 1,3.1023 v 0 l 1,3.09254 v 0 l 1,3.08172 v 0 l 1,3.06982 v 0 l 1,3.05687 v 0 l 1,3.04285 v 0 l 1,3.02777 v 0 l 1,3.01166 v 0 l 1,2.9945 v 0 l 1,2.97629 v 0 l 1,2.95705 v 0 l 1,2.9368 v 0 l 1,2.91553 v 0 l 1,2.89323 v 0 l 1,2.86995 v 0 l 1,2.84566 v 0 l 1,2.82039 v 0 l 1,2.79415 v 0 l 1,2.76692 v 0 l 1,2.73875 v 0 l 1,2.70963 v 0 l 1,2.67957 v 0 l 1,2.64857 v 0 l 1,2.61666 v 0 l 1,2.58384 v 0 l 1,2.55014 v 0 l 1,2.51553 v 0 l 1,2.48007 v 0 l 1,2.44374 v 0 l 1,2.40656 v 0 l 1,2.36856 v 0 l 1,2.32972 v 0 l 1,2.29009 v 0 l 1,2.24966 v 0 l 1,2.20845 v 0 l 1,2.16647 v 0 l 1,2.12375 v 0 l 1,2.08028 v 0 l 1,2.0361 v 0 l 1,1.99121 v 0 l 1,1.94563 v 0 l 1,1.89938 v 0 l 1,1.85246 v 0 l 1,1.80491 v 0 l 1,1.75673 v 0 l 1,1.70795 v 0 l 1,1.65856 v 0 l 1,1.60861 v 0 l 1,1.55809 v 0 l 1,1.50704 v 0 l 1,1.45547 v 0 l 1,1.40339 v 0 l 1,1.35082 v 0 l 1,1.29778 v 0 l 1,1.24431 v 0 l 1,1.19039 v 0 l 1,1.13606 v 0 l 1,1.08134 v 0 l 1,1.02624 v 0 l 1,0.97079 v 0 l 1,0.915 v 0 l 1,0.8589 v 0 l 1,0.8025 v 0 l 1,0.74581 v 0 l 1,0.68887 v 0 l 1,0.6317 v 0 l 1,0.5743 v 0 l 1,0.5167 v 0 l 1,0.45893 v 0 l 1,0.40099 v 0 l 1,0.34292 v 0 l 1,0.28472 v 0 l 1,0.22644 v 0 l 1,0.16807 v 0 l 1,0.10963 v 0 l 1,0.0512 v -0.007 l 1,0.0114 v -0.0114 l 1,-0.0658 v 0 l 1,-0.12425 v 0 l 1,-0.18267 v 0 l 1,-0.24102 v 0 l 1,-0.29928 v 0 l 1,-0.35745 v 0 l 1,-0.41549 v 0 l 1,-0.47339 v 0 l 1,-0.53111 v 0 l 1,-0.58867 v 0 l 1,-0.64601 v 0 l 1,-0.70314 v 0 l 1,-0.76 v 0 l 1,-0.81663 v 0 l 1,-0.87295 v 0 l 1,-0.92898 v 0 l 1,-0.98469 v 0 l 1,-1.04005 v 0 l 1,-1.09505 v 0 l 1,-1.14968 v 0 l 1,-1.20391 v 0 l 1,-1.25772 v 0 l 1,-1.31108 v 0 l 1,-1.36401 v 0 l 1,-1.41646 v 0 l 1,-1.4684 v 0 l 1,-1.51986 v 0 l 1,-1.57077 v 0 l 1,-1.62115 v 0 l 1,-1.67096 v 0 l 1,-1.7202 v 0 l 1,-1.76883 v 0 l 1,-1.81686 v 0 l 1,-1.86425 v 0 l 1,-1.91101 v 0 l 1,-1.95708 v 0 l 1,-2.0025 v 0 l 1,-2.04721 v 0 l 1,-2.09122 v 0 l 1,-2.1345 v 0 l 1,-2.17704 v 0 l 1,-2.21882 v 0 l 1,-2.25984 v 0 l 1,-2.30007 v 0 l 1,-2.33951 v 0 l 1,-2.37814 v 0 l 1,-2.41594 v 0 l 1,-2.4529 v 0 l 1,-2.48901 v 0 l 1,-2.52427 v 0 l 1,-2.55864 v 0 l 1,-2.59214 v 0 l 1,-2.62472 v 0 l 1,-2.65641 v 0 l 1,-2.68716 v 0 l 1,-2.717 v 0 l 1,-2.74589 v 0 l 1,-2.77382 v 0 l 1,-2.80079 v 0 l 1,-2.8268 v 0 l 1,-2.85183 v 0 l 1,-2.87586 v 0 l 1,-2.8989 v 0 l 1,-2.92094 v 0 l 1,-2.94196 v 0 l 1,-2.96196 v 0 l 1,-2.98094 v 0 l 1,-2.99888 v 0 l 1,-3.01579 v 0 l 1,-3.03165 v 0 l 1,-3.04645 v 0 l 1,-3.0602 v 0 l 1,-3.0729 v 0 l 1,-3.08452 v 0 l 1,-3.09509 v 0 l 1,-3.10456 v 0 l 1,-3.11298 v 0 l 1,-3.1203 v 0 l 1,-3.12656 v 0 l 1,-3.13172 v 0 l 1,-3.13579 v 0 l 1,-3.1388 v 0 l 1,-3.14069 v 0 l 1,-3.14152 v 0 l 1,-3.14124 v 0 l 1,-3.13988 v 0 l 1,-3.13743 v 0 l 1,-3.13389 v 0 l 1,-3.12927 v 0 l 1,-3.12357 v 0 l 1,-3.11677 v 0 l 1,-3.10891 v 0 l 1,-3.09996 v 0 l 1,-3.08993 v 0 l 1,-3.07885 v 0 l 1,-3.06668 v 0 l 1,-3.05346 v 0 l 1,-3.03918 v 0 l 1,-3.02385 v 0 l 1,-3.00746 v 0 l 1,-2.99004 v 0 l 1,-2.97158 v 0 l 1,-2.95209 v 0 l 1,-2.93158 v 0 l 1,-2.91004 v 0 l 1,-2.88751 v 0 l 1,-2.86397 v 0 l 1,-2.83944 v 0 l 1,-2.81392 v 0 l 1,-2.78743 v 0 l 1,-2.75997 v 0 l 1,-2.73156 v 0 l 1,-2.7022 v 0 l 1,-2.6719 v 0 l 1,-2.64068 v 0 l 1,-2.60854 v 0 l 1,-2.5755 v 0 l 1,-2.54157 v 0 l 1,-2.50675 v 0 l 1,-2.47106 v 0 l 1,-2.43453 v 0 l 1,-2.39714 v 0 l 1,-2.35892 v 0 l 1,-2.31989 v 0 l 1,-2.28006 v 0 l 1,-2.23943 v 0 l 1,-2.19802 v 0 l 1,-2.15586 v 0 l 1,-2.11295 v 0 l 1,-2.06931 v 0 l 1,-2.02494 v 0 l 1,-1.97988 v 0 l 1,-1.93413 v 0 l 1,-1.88771 v 0 l 1,-1.84063 v 0 l 1,-1.79293 v 0 l 1,-1.74459 v 0 l 1,-1.69565 v 0 l 1,-1.64613 v 0 l 1,-1.59603 v 0 l 1,-1.54538 v 0 l 1,-1.49419 v 0 l 1,-1.4425 v 0 l 1,-1.39029 v 0 l 1,-1.3376 v 0 l 1,-1.28446 v 0 l 1,-1.23086 v 0 l 1,-1.17685 v 0 l 1,-1.12242 v 0 l 1,-1.0676 v 0 l 1,-1.01241 v 0 l 1,-0.95687 v 0 l 1,-0.90101 v 0 l 1,-0.84482 v 0 l 1,-0.78835 v 0 l 1,-0.73161 v 0 l 1,-0.6746 v 0 l 1,-0.61736 v 0 l 1,-0.55992 v 0 l 1,-0.50228 v 0 l 1,-0.44445 v 0 l 1,-0.38649 v 0 l 1,-0.32838 v 0 l 1,-0.27016 v 0 l 1,-0.21185 v 0 l 1,-0.15347 v 0 l 1,-0.095 v 0 l 1,-0.0366 v 0.0219 l 1,-0.0224 v 0.0224 l 1,0.0804 v 0 l 1,0.13886 v 0 l 1,0.19726 v 0 l 1,0.25559 v 0 l 1,0.31383 v 0 l 1,0.37198 v 0 l 1,0.42997 v 0 l 1,0.48784 v 0 l 1,0.54552 v 0 l 1,0.60303 v 0 l 1,0.66031 v 0 l 1,0.71738 v 0 l 1,0.77418 v 0 l 1,0.83074 v 0 l 1,0.88698 v 0 l 1,0.94294 v 0 l 1,0.99856 v 0 l 1,1.05384 v 0 l 1,1.10875 v 0 l 1,1.16327 v 0 l 1,1.2174 v 0 l 1,1.2711 v 0 l 1,1.32436 v 0 l 1,1.37717 v 0 l 1,1.42949 v 0 l 1,1.48131 v 0 l 1,1.53264 v 0 l 1,1.58342 v 0 l 1,1.63365 v 0 l 1,1.68333 v 0 l 1,1.73241 v 0 l 1,1.7809 v 0 l 1,1.82876 v 0 l 1,1.87601 v 0 l 1,1.92258 v 0 l 1,1.96851 v 0 l 1,2.01374 v 0 l 1,2.05828 v 0 l 1,2.10211 v 0 l 1,2.1452 v 0 l 1,2.18755 v 0 l 1,2.22915 v 0 l 1,2.26998 v 0 l 1,2.31 v 0 l 1,2.34925 v 0 l 1,2.38766 v 0 l 1,2.42526 v 0 l 1,2.46201 v 0 l 1,2.49791 v 0 l 1,2.53294 v 0 l 1,2.5671 v 0 l 1,2.60037 v 0 l 1,2.63273 v 0 l 1,2.66418 v 0 l 1,2.69471 v 0 l 1,2.72431 v 0 l 1,2.75296 v 0 l 1,2.78065 v 0 l 1,2.80739 v 0 l 1,2.83315 v 0 l 1,2.85793 v 0 l 1,2.88172 v 0 l 1,2.9045 v 0 l 1,2.92629 v 0 l 1,2.94706 v 0 l 1,2.9668 v 0 l 1,2.98552 v 0 l 1,3.00321 v 0 l 1,3.01985 v 0 l 1,3.03544 v 0 l 1,3.04999 v 0 l 1,3.06348 v 0 l 1,3.0759 v 0 l 1,3.08727 v 0 l 1,3.09755 v 0 l 1,3.10677 v 0 l 1,3.11491 v 0 l 1,3.12197 v 0 l 1,3.12794 v 0 l 1,3.13284 v 0 l 1,3.13665 v 0 l 1,3.13937 v 0 l 1,3.14101 v 0 l 1,3.14154 v 0 l 1,3.14101 v 0 l 1,3.13937 v 0 l 1,3.13665 v 0 l 1,3.13284 v 0 l 1,3.12794 v 0 l 1,3.12197 v 0 l 1,3.11491 v 0 l 1,3.10677 v 0 l 1,3.09755 v 0 l 1,3.08727 v 0 l 1,3.0759 v 0 l 1,3.06348 v 0 l 1,3.04999 v 0 l 1,3.03544 v 0 l 1,3.01985 v 0 l 1,3.00321 v 0 l 1,2.98552 v 0 l 1,2.9668 v 0 l 1,2.94706 v 0 l 1,2.92629 v 0 l 1,2.9045 v 0 l 1,2.88172 v 0 l 1,2.85793 v 0 l 1,2.83315 v 0 l 1,2.80739 v 0 l 1,2.78065 v 0 l 1,2.75296 v 0 l 1,2.72431 v 0 l 1,2.69471 v 0 l 1,2.66418 v 0 l 1,2.63273 v 0 l 1,2.60037 v 0 l 1,2.5671 v 0 l 1,2.53294 v 0 l 1,2.49791 v 0 l 1,2.46201 v 0 l 1,2.42526 v 0 l 1,2.38766 v 0 l 1,2.34925 v 0 l 1,2.31 v 0 l 1,2.26998 v 0 l 1,2.22915 v 0 l 1,2.18755 v 0 l 1,2.1452 v 0 l 1,2.10211 v 0 l 1,2.05828 v 0 l 1,2.01374 v 0 l 1,1.96851 v 0 l 1,1.92258 v 0 l 1,1.87601 v 0 l 1,1.82876 v 0 l 1,1.7809 v 0 l 1,1.73241 v 0 l 1,1.68333 v 0 l 1,1.63365 v 0 l 1,1.58342 v 0 l 1,1.53264 v 0 l 1,1.48131 v 0 l 1,1.42949 v 0 l 1,1.37717 v 0 l 1,1.32436 v 0 l 1,1.2711 v 0 l 1,1.2174 v 0 l 1,1.16327 v 0 l 1,1.10875 v 0 l 1,1.05384 v 0 l 1,0.99856 v 0 l 1,0.94294 v 0 l 1,0.88698 v 0 l 1,0.83074 v 0 l 1,0.77418 v 0 l 1,0.71738 v 0 l 1,0.66031 v 0 l 1,0.60303 v 0 l 1,0.54552 v 0 l 1,0.48784 v 0 l 1,0.42997 v 0 l 1,0.37198 v 0 l 1,0.31383 v 0 l 1,0.25559 v 0 l 1,0.19726 v 0 l 1,0.13886 v 0 l 1,0.0804 v 0 l 1,0.0224 v -4.6e-4 l 1,-0.0366 v 0 l 1,-0.095 v 0 l 1,-0.15347 v 0 l 1,-0.21185 v 0 l 1,-0.27016 v 0 l 1,-0.32838 v 0 l 1,-0.38649 v 0 l 1,-0.44445 v 0 l 1,-0.50228 v 0 l 1,-0.55992 v 0 l 1,-0.61736 v 0 l 1,-0.6746 v 0 l 1,-0.73161 v 0 l 1,-0.78835 v 0 l 1,-0.84482 v 0 l 1,-0.90101 v 0 l 1,-0.95687 v 0 l 1,-1.01241 v 0 l 1,-1.0676 v 0 l 1,-1.12242 v 0 l 1,-1.17685 v 0 l 1,-1.23086 v 0 l 1,-1.28446 v 0 l 1,-1.3376 v 0 l 1,-1.39029 v 0 l 1,-1.4425 v 0 l 1,-1.49419 v 0 l 1,-1.54538 v 0 l 1,-1.59603 v 0 l 1,-1.64613 v 0 l 1,-1.69565 v 0 l 1,-1.74459 v 0 l 1,-1.79293 v 0 l 1,-1.84063 v 0 l 1,-1.88771 v 0 l 1,-1.93413 v 0 l 1,-1.97988 v 0 l 1,-2.02494 v 0 l 1,-2.06931 v 0 l 1,-2.11295 v 0 l 1,-2.15586 v 0 l 1,-2.19802 v 0 l 1,-2.23943 v 0 l 1,-2.28006 v 0 l 1,-2.31989 v 0 l 1,-2.35892 v 0 l 1,-2.39714 v 0 l 1,-2.43453 v 0 l 1,-2.47106 v 0 l 1,-2.50675 v 0 l 1,-2.54157 v 0 l 1,-2.5755 v 0 l 1,-2.60854 v 0 l 1,-2.64068 v 0 l 1,-2.6719 v 0 l 1,-2.7022 v 0 l 1,-2.73156 v 0 l 1,-2.75997 v 0 l 1,-2.78743 v 0 l 1,-2.81392 v 0 l 1,-2.83944 v 0 l 1,-2.86397 v 0 l 1,-2.88751 v 0 l 1,-2.91004 v 0 l 1,-2.93158 v 0 l 1,-2.95209 v 0 l 1,-2.97158 v 0 l 1,-2.99004 v 0 l 1,-3.00746 v 0 l 1,-3.02385 v 0 l 1,-3.03918 v 0 l 1,-3.05346 v 0 l 1,-3.06668 v 0 l 1,-3.07885 v 0 l 1,-3.08993 v 0 l 1,-3.09996 v 0 l 1,-3.10891 v 0 l 1,-3.11677 v 0 l 1,-3.12357 v 0 l 1,-3.12927 v 0 l 1,-3.13389 v 0 l 1,-3.13743 v 0 l 1,-3.13988 v 0 l 1,-3.14124 v 0 l 1,-3.14152 v 0 l 1,-3.14069 v 0 l 1,-3.1388 v 0 l 1,-3.13579 v 0 l 1,-3.13172 v 0 l 1,-3.12656 v 0 l 1,-3.1203 v 0 l 1,-3.11298 v 0 l 1,-3.10456 v 0 l 1,-3.09509 v 0 l 1,-3.08452 v 0 l 1,-3.0729 v 0 l 1,-3.0602 v 0 l 1,-3.04645 v 0 l 1,-3.03165 v 0 l 1,-3.01579 v 0 l 1,-2.99888 v 0 l 1,-2.98094 v 0 l 1,-2.96196 v 0 l 1,-2.94196 v 0 l 1,-2.92094 v 0 l 1,-2.8989 v 0 l 1,-2.87586 v 0 l 1,-2.85183 v 0 l 1,-2.8268 v 0 l 1,-2.80079 v 0 l 1,-2.77382 v 0 l 1,-2.74589 v 0 l 1,-2.717 v 0 l 1,-2.68716 v 0 l 1,-2.65641 v 0 l 1,-2.62472 v 0 l 1,-2.59214 v 0 l 1,-2.55864 v 0 l 1,-2.52427 v 0 l 1,-2.48901 v 0 l 1,-2.4529 v 0 l 1,-2.41594 v 0 l 1,-2.37814 v 0 l 1,-2.33951 v 0 l 1,-2.30007 v 0 l 1,-2.25984 v 0 l 1,-2.21882 v 0 l 1,-2.17704 v 0 l 1,-2.1345 v 0 l 1,-2.09122 v 0 l 1,-2.04721 v 0 l 1,-2.0025 v 0 l 1,-1.95708 v 0 l 1,-1.91101 v 0 l 1,-1.86425 v 0 l 1,-1.81686 v 0 l 1,-1.76883 v 0 l 1,-1.7202 v 0 l 1,-1.67096 v 0 l 1,-1.62115 v 0 l 1,-1.57077 v 0 l 1,-1.51986 v 0 l 1,-1.4684 v 0 l 1,-1.41646 v 0 l 1,-1.36401 v 0 l 1,-1.31108 v 0 l 1,-1.25772 v 0 l 1,-1.20391 v 0 l 1,-1.14968 v 0 l 1,-1.09505 v 0 l 1,-1.04005 v 0 l 1,-0.98469 v 0 l 1,-0.92898 v 0 l 1,-0.87295 v 0 l 1,-0.81663 v 0 l 1,-0.76 v 0 l 1,-0.70314 v 0 l 1,-0.64601 v 0 l 1,-0.58867 v 0 l 1,-0.53111 v 0 l 1,-0.47339 v 0 l 1,-0.41549 v 0 l 1,-0.35745 v 0 l 1,-0.29928 v 0 l 1,-0.24102 v 0 l 1,-0.18267 v 0 l 1,-0.12425 v 0 l 1,-0.0658 v 0 l 1,-0.0114 v 0.004 l 1,0.0512 v 0 l 1,0.10963 v 0 l 1,0.16807 v 0 l 1,0.22644 v 0 l 1,0.28472 v 0 l 1,0.34292 v 0 l 1,0.40099 v 0 l 1,0.45893 v 0 l 1,0.5167 v 0 l 1,0.5743 v 0 l 1,0.6317 v 0 l 1,0.68887 v 0 l 1,0.74581 v 0 l 1,0.8025 v 0 l 1,0.8589 v 0 l 1,0.915 v 0 l 1,0.97079 v 0 l 1,1.02624 v 0 l 1,1.08134 v 0 l 1,1.13606 v 0 l 1,1.19039 v 0 l 1,1.24431 v 0 l 1,1.29778 v 0 l 1,1.35082 v 0 l 1,1.40339 v 0 l 1,1.45547 v 0 l 1,1.50704 v 0 l 1,1.55809 v 0 l 1,1.60861 v 0 l 1,1.65856 v 0 l 1,1.70795 v 0 l 1,1.75673 v 0 l 1,1.80491 v 0 l 1,1.85246 v 0 l 1,1.89938 v 0 l 1,1.94563 v 0 l 1,1.99121 v 0 l 1,2.0361 v 0 l 1,2.08028 v 0 l 1,2.12375 v 0 l 1,2.16647 v 0 l 1,2.20845 v 0 l 1,2.24966 v 0 l 1,2.29009 v 0 l 1,2.32972 v 0 l 1,2.36856 v 0 l 1,2.40656 v 0 l 1,2.44374 v 0 l 1,2.48007 v 0 l 1,2.51553 v 0 l 1,2.55014 v 0 l 1,2.58384 v 0 l 1,2.61666 v 0 l 1,2.64857 v 0 l 1,2.67957 v 0 l 1,2.70963 v 0 l 1,2.73875 v 0 l 1,2.76692 v 0 l 1,2.79415 v 0 l 1,2.82039 v 0 l 1,2.84566 v 0 l 1,2.86995 v 0 l 1,2.89323 v 0 l 1,2.91553 v 0 l 1,2.9368 v 0 l 1,2.95705 v 0 l 1,2.97629 v 0 l 1,2.9945 v 0 l 1,3.01166 v 0 l 1,3.02777 v 0 l 1,3.04285 v 0 l 1,3.05687 v 0 l 1,3.06982 v 0 l 1,3.08172 v 0 l 1,3.09254 v 0 l 1,3.1023 v 0 l 1,3.11097 v 0 l 1,3.11858 v 0 l 1,3.12509 v 0 l 1,3.13053 v 0 l 1,3.13488 v 0 l 1,3.13815 v 0 l 1,3.14032 v 0 l 1,3.14141 v 0 l 1,3.14141 v 0 l 1,3.14032 v 0 l 1,3.13815 v 0 l 1,3.13488 v 0 l 1,3.13053 v 0 l 1,3.12509 v 0 l 1,3.11858 v 0 l 1,3.11097 v 0 l 1,3.1023 v 0 l 1,3.09254 v 0 l 1,3.08172 v 0 l 1,3.06982 v 0 l 1,3.05687 v 0 l 1,3.04285 v 0 l 1,3.02777 v 0 l 1,3.01166 v 0 l 1,2.9945 v 0 l 1,2.97629 v 0 l 1,2.95705 v 0 l 1,2.9368 v 0 l 1,2.91553 v 0 l 1,2.89323 v 0 l 1,2.86995 v 0 l 1,2.84566 v 0 l 1,2.82039 v 0 l 1,2.79415 v 0 l 1,2.76692 v 0 l 1,2.73875 v 0 l 1,2.70963 v 0 l 1,2.67957 v 0 l 1,2.64857 v 0 l 1,2.61666 v 0 l 1,2.58384 v 0 l 1,2.55014 v 0 l 1,2.51553 v 0 l 1,2.48007 v 0 l 1,2.44374 v 0 l 1,2.40656 v 0 l 1,2.36856 v 0 l 1,2.32972 v 0 l 1,2.29009 v 0 l 1,2.24966 v 0 l 1,2.20845 v 0 l 1,2.16647 v 0 l 1,2.12375 v 0 l 1,2.08028 v 0 l 1,2.0361 v 0 l 1,1.99121 v 0 l 1,1.94563 v 0 l 1,1.89938 v 0 l 1,1.85246 v 0 l 1,1.80491 v 0 l 1,1.75673 v 0 l 1,1.70795 v 0 l 1,1.65856 v 0 l 1,1.60861 v 0 l 1,1.55809 v 0 l 1,1.50704 v 0 l 1,1.45547 v 0 l 1,1.40339 v 0 l 1,1.35082 v 0 l 1,1.29778 v 0 l 1,1.24431 v 0 l 1,1.19039 v 0 l 1,1.13606 v 0 l 1,1.08134 v 0 l 1,1.02624 v 0 l 1,0.97079 v 0 l 1,0.915 v 0 l 1,0.8589 v 0 l 1,0.8025 v 0 l 1,0.74581 v 0 l 1,0.68887 v 0 l 1,0.6317 v 0 l 1,0.5743 v 0 l 1,0.5167 v 0 l 1,0.45893 v 0 l 1,0.40099 v 0 l 1,0.34292 v 0 l 1,0.28472 v 0 l 1,0.22644 v 0 l 1,0.16807 v 0 l 1,0.10963 v 0 l 1,0.0512 v -0.007 l 1,0.0114 v -0.0114 l 1,-0.0658 v 0 l 1,-0.12425 v 0 l 1,-0.18267 v 0 l 1,-0.24102 v 0 l 1,-0.29928 v 0 l 1,-0.35745 v 0 l 1,-0.41549 v 0 l 1,-0.47339 v 0 l 1,-0.53111 v 0 l 1,-0.58867 v 0 l 1,-0.64601 v 0 l 1,-0.70314 v 0 l 1,-0.76 v 0 l 1,-0.81663 v 0 l 1,-0.87295 v 0 l 1,-0.92898 v 0 l 1,-0.98469 v 0 l 1,-1.04005 v 0 l 1,-1.09505 v 0 l 1,-1.14968 v 0 l 1,-1.20391 v 0 l 1,-1.25772 v 0 l 1,-1.31108 v 0 l 1,-1.36401 v 0 l 1,-1.41646 v 0 l 1,-1.4684 v 0 l 1,-1.51986 v 0 l 1,-1.57077 v 0 l 1,-1.62115 v 0 l 1,-1.67096 v 0 l 1,-1.7202 v 0 l 1,-1.76883 v 0 l 1,-1.81686 v 0 l 1,-1.86425 v 0 l 1,-1.91101 v 0 l 1,-1.95708 v 0 l 1,-2.0025 v 0 l 1,-2.04721 v 0 l 1,-2.09122 v 0 l 1,-2.1345 v 0 l 1,-2.17704 v 0 l 1,-2.21882 v 0 l 1,-2.25984 v 0 l 1,-2.30007 v 0 l 1,-2.33951 v 0 l 1,-2.37814 v 0 l 1,-2.41594 v 0 l 1,-2.4529 v 0 l 1,-2.48901 v 0 l 1,-2.52427 v 0 l 1,-2.55864 v 0 l 1,-2.59214 v 0 l 1,-2.62472 v 0 l 1,-2.65641 v 0 l 1,-2.68716 v 0 l 1,-2.717 v 0 l 1,-2.74589 v 0 l 1,-2.77382 v 0 l 1,-2.80079 v 0 l 1,-2.8268 v 0 l 1,-2.85183 v 0 l 1,-2.87586 v 0 l 1,-2.8989 v 0 l 1,-2.92094 v 0 l 1,-2.94196 v 0 l 1,-2.96196 v 0 l 1,-2.98094 v 0 l 1,-2.99888 v 0 l 1,-3.01579 v 0 l 1,-3.03165 v 0 l 1,-3.04645 v 0 l 1,-3.0602 v 0 l 1,-3.0729 v 0 l 1,-3.08452 v 0 l 1,-3.09509 v 0 l 1,-3.10456 v 0 l 1,-3.11298 v 0 l 1,-3.1203 v 0 l 1,-3.12656 v 0 l 1,-3.13172 v 0 l 1,-3.13579 v 0 l 1,-3.1388 v 0 l 1,-3.14069 v 0 l 1,-3.14152 v 0 l 1,-3.14124 v 0 l 1,-3.13988 v 0 l 1,-3.13743 v 0 l 1,-3.13389 v 0 l 1,-3.12927 v 0 l 1,-3.12357 v 0 l 1,-3.11677 v 0 l 1,-3.10891 v 0 l 1,-3.09996 v 0 l 1,-3.08993 v 0 l 1,-3.07885 v 0 l 1,-3.06668 v 0 l 1,-3.05346 v 0 l 1,-3.03918 v 0 l 1,-3.02385 v 0 l 1,-3.00746 v 0 l 1,-2.99004 v 0 l 1,-2.97158 v 0 l 1,-2.95209 v 0 l 1,-2.93158 v 0 l 1,-2.91004 v 0 l 1,-2.88751 v 0 l 1,-2.86397 v 0 l 1,-2.83944 v 0 l 1,-2.81392 v 0 l 1,-2.78743 v 0 l 1,-2.75997 v 0 l 1,-2.73156 v 0 l 1,-2.7022 v 0 l 1,-2.6719 v 0 l 1,-2.64068 v 0 l 1,-2.60854 v 0 l 1,-2.5755 v 0 l 1,-2.54157 v 0 l 1,-2.50675 v 0 l 1,-2.47106 v 0 l 1,-2.43453 v 0 l 1,-2.39714 v 0 l 1,-2.35892 v 0 l 1,-2.31989 v 0 l 1,-2.28006 v 0 l 1,-2.23943 v 0 l 1,-2.19802 v 0 l 1,-2.15586 v 0 l 1,-2.11295 v 0 l 1,-2.06931 v 0 l 1,-2.02494 v 0 l 1,-1.97988 v 0 l 1,-1.93413 v 0 l 1,-1.88771 v 0 l 1,-1.84063 v 0 l 1,-1.79293 v 0 l 1,-1.74459 v 0 l 1,-1.69565 v 0 l 1,-1.64613 v 0 l 1,-1.59603 v 0 l 1,-1.54538 v 0 l 1,-1.49419 v 0 l 1,-1.4425 v 0 l 1,-1.39029 v 0 l 1,-1.3376 v 0 l 1,-1.28446 v 0 l 1,-1.23086 v 0 l 1,-1.17685 v 0 l 1,-1.12242 v 0 l 1,-1.0676 v 0 l 1,-1.01241 v 0 l 1,-0.95687 v 0 l 1,-0.90101 v 0 l 1,-0.84482 v 0 l 1,-0.78835 v 0 l 1,-0.73161 v 0 l 1,-0.6746 v 0 l 1,-0.61736 v 0 l 1,-0.55992 v 0 l 1,-0.50228 v 0 l 1,-0.44445 v 0 l 1,-0.38649 v 0 l 1,-0.32838 v 0 l 1,-0.27016 v 0 l 1,-0.21185 v 0 l 1,-0.15347 v 0 l 1,-0.095 v 0 l 1,-0.0366 v 0.0219 l 1,-0.0224 v 0.0224 l 1,0.0804 v 0 l 1,0.13886 v 0 l 1,0.19726 v 0 l 1,0.25559 v 0 l 1,0.31383 v 0 l 1,0.37198 v 0 l 1,0.42997 v 0 l 1,0.48784 v 0 l 1,0.54552 v 0 l 1,0.60303 v 0 l 1,0.66031 v 0 l 1,0.71738 v 0 l 1,0.77418 v 0 l 1,0.83074 v 0 l 1,0.88698 v 0 l 1,0.94294 v 0 l 1,0.99856 v 0 l 1,1.05384 v 0 l 1,1.10875 v 0 l 1,1.16327 v 0 l 1,1.2174 v 0 l 1,1.2711 v 0 l 1,1.32436 v 0 l 1,1.37717 v 0 l 1,1.42949 v 0 l 1,1.48131 v 0 l 1,1.53264 v 0 l 1,1.58342 v 0 l 1,1.63365 v 0 l 1,1.68333 v 0 l 1,1.73241 v 0 l 1,1.7809 v 0 l 1,1.82876 v 0 l 1,1.87601 v 0 l 1,1.92258 v 0 l 1,1.96851 v 0 l 1,2.01374 v 0 l 1,2.05828 v 0 l 1,2.10211 v 0 l 1,2.1452 v 0 l 1,2.18755 v 0 l 1,2.22915 v 0 l 1,2.26998 v 0 l 1,2.31 v 0 l 1,2.34925 v 0 l 1,2.38766 v 0 l 1,2.42526 v 0 l 1,2.46201 v 0 l 1,2.49791 v 0 l 1,2.53294 v 0 l 1,2.5671 v 0 l 1,2.60037 v 0 l 1,2.63273 v 0 l 1,2.66418 v 0 l 1,2.69471 v 0 l 1,2.72431 v 0 l 1,2.75296"
     stroke-opacity="0.698039"
     stroke-linecap="round"
     stroke-linejoin="round"
     stroke-miterlimit="10"
     stroke-width="2.5"
     id="path44"
     clip-path="url(#clipPath52)"
     style="stroke:#8bc34a;stroke-opacity:1" />
  <text
     fill="#006400"
     stroke="none"
     font-family="geogebra-sans-serif, sans-serif"
     font-size="16px"
     font-style="normal"
     font-weight="normal"
     text-decoration="normal"
     x="8"
     y="567"
     text-anchor="start"
     dominant-baseline="alphabetic"
     fill-opacity="1"
     id="text45">f</text>
  <path
     fill="none"
     stroke="#cc0000"
     paint-order="fill stroke markers"
     d="m 1,486.05688 v 0.0178 0 l 1,0.0178 v 0 l 1,0.0179 v 0 l 1,0.0179 v 0 l 1,0.018 v 0 l 1,0.018 v 0 l 1,0.0181 v 0 l 1,0.0181 v 0 l 1,0.0182 v 0 l 1,0.0182 v 0 l 1,0.0183 v 0 l 1,0.0183 v 0 l 1,0.0184 v 0 l 1,0.0184 v 0 l 1,0.0185 v 0 l 1,0.0185 v 0 l 1,0.0186 v 0 l 1,0.0186 v 0 l 1,0.0187 v 0 l 1,0.0187 v 0 l 1,0.0188 v 0 l 1,0.0189 v 0 l 1,0.0189 v 0 l 1,0.019 v 0 l 1,0.019 v 0 l 1,0.0191 v 0 l 1,0.0191 v 0 l 1,0.0192 v 0 l 1,0.0192 v 0 l 1,0.0193 v 0 l 1,0.0194 v 0 l 1,0.0194 v 0 l 1,0.0195 v 0 l 1,0.0195 v 0 l 1,0.0196 v 0 l 1,0.0197 v 0 l 1,0.0197 v 0 l 1,0.0198 v 0 l 1,0.0198 v 0 l 1,0.0199 v 0 l 1,0.0199 v 0 l 1,0.02 v 0 l 1,0.0201 v 0 l 1,0.0201 v 0 l 1,0.0202 v 0 l 1,0.0202 v 0 l 1,0.0203 v 0 l 1,0.0204 v 0 l 1,0.0204 v 0 l 1,0.0205 v 0 l 1,0.0205 v 0 l 1,0.0206 v 0 l 1,0.0207 v 0 l 1,0.0207 v 0 l 1,0.0208 v 0 l 1,0.0209 v 0 l 1,0.0209 v 0 l 1,0.021 v 0 l 1,0.0211 v 0 l 1,0.0211 v 0 l 1,0.0212 v 0 l 1,0.0212 v 0 l 1,0.0213 v 0 l 1,0.0214 v 0 l 1,0.0214 v 0 l 1,0.0215 v 0 l 1,0.0216 v 0 l 1,0.0216 v 0 l 1,0.0217 v 0 l 1,0.0218 v 0 l 1,0.0218 v 0 l 1,0.0219 v 0 l 1,0.022 v 0 l 1,0.022 v 0 l 1,0.0221 v 0 l 1,0.0222 v 0 l 1,0.0222 v 0 l 1,0.0223 v 0 l 1,0.0224 v 0 l 1,0.0225 v 0 l 1,0.0225 v 0 l 1,0.0226 v 0 l 1,0.0227 v 0 l 1,0.0227 v 0 l 1,0.0228 v 0 l 1,0.0229 v 0 l 1,0.023 v 0 l 1,0.023 v 0 l 1,0.0231 v 0 l 1,0.0232 v 0 l 1,0.0233 v 0 l 1,0.0233 v 0 l 1,0.0234 v 0 l 1,0.0235 v 0 l 1,0.0236 v 0 l 1,0.0236 v 0 l 1,0.0237 v 0 l 1,0.0238 v 0 l 1,0.0239 v 0 l 1,0.0239 v 0 l 1,0.024 v 0 l 1,0.0241 v 0 l 1,0.0242 v 0 l 1,0.0243 v 0 l 1,0.0243 v 0 l 1,0.0244 v 0 l 1,0.0245 v 0 l 1,0.0246 v 0 l 1,0.0247 v 0 l 1,0.0247 v 0 l 1,0.0248 v 0 l 1,0.0249 v 0 l 1,0.025 v 0 l 1,0.0251 v 0 l 1,0.0251 v 0 l 1,0.0252 v 0 l 1,0.0253 v 0 l 1,0.0254 v 0 l 1,0.0255 v 0 l 1,0.0256 v 0 l 1,0.0257 v 0 l 1,0.0258 v 0 l 1,0.0258 v 0 l 1,0.0259 v 0 l 1,0.026 v 0 l 1,0.0261 v 0 l 1,0.0262 v 0 l 1,0.0263 v 0 l 1,0.0264 v 0 l 1,0.0265 v 0 l 1,0.0265 v 0 l 1,0.0267 v 0 l 1,0.0267 v 0 l 1,0.0268 v 0 l 1,0.0269 v 0 l 1,0.027 v 0 l 1,0.0271 v 0 l 1,0.0272 v 0 l 1,0.0273 v 0 l 1,0.0274 v 0 l 1,0.0275 v 0 l 1,0.0276 v 0 l 1,0.0277 v 0 l 1,0.0278 v 0 l 1,0.0279 v 0 l 1,0.028 v 0 l 1,0.0281 v 0 l 1,0.0282 v 0 l 1,0.0283 v 0 l 1,0.0284 v 0 l 1,0.0285 v 0 l 1,0.0286 v 0 l 1,0.0287 v 0 l 1,0.0288 v 0 l 1,0.0289 v 0 l 1,0.029 v 0 l 1,0.0291 v 0 l 1,0.0292 v 0 l 1,0.0293 v 0 l 1,0.0294 v 0 l 1,0.0295 v 0 l 1,0.0296 v 0 l 1,0.0297 v 0 l 1,0.0298 v 0 l 1,0.0299 v 0 l 1,0.03 v 0 l 1,0.0301 v 0 l 1,0.0303 v 0 l 1,0.0304 v 0 l 1,0.0305 v 0 l 1,0.0306 v 0 l 1,0.0307 v 0 l 1,0.0308 v 0 l 1,0.0309 v 0 l 1,0.0311 v 0 l 1,0.0312 v 0 l 1,0.0313 v 0 l 1,0.0314 v 0 l 1,0.0315 v 0 l 1,0.0316 v 0 l 1,0.0318 v 0 l 1,0.0319 v 0 l 1,0.032 v 0 l 1,0.0321 v 0 l 1,0.0322 v 0 l 1,0.0324 v 0 l 1,0.0325 v 0 l 1,0.0326 v 0 l 1,0.0327 v 0 l 1,0.0328 v 0 l 1,0.033 v 0 l 1,0.0331 v 0 l 1,0.0332 v 0 l 1,0.0334 v 0 l 1,0.0335 v 0 l 1,0.0336 v 0 l 1,0.0337 v 0 l 1,0.0339 v 0 l 1,0.034 v 0 l 1,0.0341 v 0 l 1,0.0343 v 0 l 1,0.0344 v 0 l 1,0.0345 v 0 l 1,0.0347 v 0 l 1,0.0348 v 0 l 1,0.035 v 0 l 1,0.0351 v 0 l 1,0.0352 v 0 l 1,0.0354 v 0 l 1,0.0355 v 0 l 1,0.0356 v 0 l 1,0.0358 v 0 l 1,0.0359 v 0 l 1,0.0361 v 0 l 1,0.0362 v 0 l 1,0.0364 v 0 l 1,0.0365 v 0 l 1,0.0367 v 0 l 1,0.0368 v 0 l 1,0.0369 v 0 l 1,0.0371 v 0 l 1,0.0373 v 0 l 1,0.0374 v 0 l 1,0.0376 v 0 l 1,0.0377 v 0 l 1,0.0379 v 0 l 1,0.038 v 0 l 1,0.0382 v 0 l 1,0.0383 v 0 l 1,0.0385 v 0 l 1,0.0387 v 0 l 1,0.0388 v 0 l 1,0.039 v 0 l 1,0.0391 v 0 l 1,0.0393 v 0 l 1,0.0395 v 0 l 1,0.0396 v 0 l 1,0.0398 v 0 l 1,0.04 v 0 l 1,0.0401 v 0 l 1,0.0403 v 0 l 1,0.0405 v 0 l 1,0.0406 v 0 l 1,0.0408 v 0 l 1,0.041 v 0 l 1,0.0412 v 0 l 1,0.0413 v 0 l 1,0.0415 v 0 l 1,0.0417 v 0 l 1,0.0419 v 0 l 1,0.0421 v 0 l 1,0.0422 v 0 l 1,0.0424 v 0 l 1,0.0426 v 0 l 1,0.0428 v 0 l 1,0.043 v 0 l 1,0.0432 v 0 l 1,0.0434 v 0 l 1,0.0435 v 0 l 1,0.0437 v 0 l 1,0.0439 v 0 l 1,0.0441 v 0 l 1,0.0443 v 0 l 1,0.0445 v 0 l 1,0.0447 v 0 l 1,0.0449 v 0 l 1,0.0451 v 0 l 1,0.0453 v 0 l 1,0.0455 v 0 l 1,0.0457 v 0 l 1,0.0459 v 0 l 1,0.0461 v 0 l 1,0.0463 v 0 l 1,0.0466 v 0 l 1,0.0468 v 0 l 1,0.047 v 0 l 1,0.0472 v 0 l 1,0.0474 v 0 l 1,0.0476 v 0 l 1,0.0479 v 0 l 1,0.0481 v 0 l 1,0.0483 v 0 l 1,0.0485 v 0 l 1,0.0487 v 0 l 1,0.049 v 0 l 1,0.0492 v 0 l 1,0.0494 v 0 l 1,0.0497 v 0 l 1,0.0499 v 0 l 1,0.0501 v 0 l 1,0.0504 v 0 l 1,0.0506 v 0 l 1,0.0508 v 0 l 1,0.0511 v 0 l 1,0.0513 v 0 l 1,0.0516 v 0 l 1,0.0518 v 0 l 1,0.0521 v 0 l 1,0.0523 v 0 l 1,0.0526 v 0 l 1,0.0528 v 0 l 1,0.0531 v 0 l 1,0.0533 v 0 l 1,0.0536 v 0 l 1,0.0539 v 0 l 1,0.0541 v 0 l 1,0.0544 v 0 l 1,0.0547 v 0 l 1,0.0549 v 0 l 1,0.0552 v 0 l 1,0.0555 v 0 l 1,0.0557 v 0 l 1,0.056 v 0 l 1,0.0563 v 0 l 1,0.0566 v 0 l 1,0.0569 v 0 l 1,0.0572 v 0 l 1,0.0574 v 0 l 1,0.0577 v 0 l 1,0.058 v 0 l 1,0.0583 v 0 l 1,0.0586 v 0 l 1,0.0589 v 0 l 1,0.0592 v 0 l 1,0.0595 v 0 l 1,0.0598 v 0 l 1,0.0601 v 0 l 1,0.0605 v 0 l 1,0.0608 v 0 l 1,0.0611 v 0 l 1,0.0614 v 0 l 1,0.0617 v 0 l 1,0.062 v 0 l 1,0.0624 v 0 l 1,0.0627 v 0 l 1,0.063 v 0 l 1,0.0634 v 0 l 1,0.0637 v 0 l 1,0.064 v 0 l 1,0.0644 v 0 l 1,0.0647 v 0 l 1,0.0651 v 0 l 1,0.0654 v 0 l 1,0.0658 v 0 l 1,0.0661 v 0 l 1,0.0665 v 0 l 1,0.0668 v 0 l 1,0.0672 v 0 l 1,0.0676 v 0 l 1,0.0679 v 0 l 1,0.0683 v 0 l 1,0.0687 v 0 l 1,0.0691 v 0 l 1,0.0695 v 0 l 1,0.0698 v 0 l 1,0.0702 v 0 l 1,0.0706 v 0 l 1,0.071 v 0 l 1,0.0714 v 0 l 1,0.0718 v 0 l 1,0.0722 v 0 l 1,0.0726 v 0 l 1,0.0731 v 0 l 1,0.0735 v 0 l 1,0.0739 v 0 l 1,0.0743 v 0 l 1,0.0747 v 0 l 1,0.0752 v 0 l 1,0.0756 v 0 l 1,0.076 v 0 l 1,0.0765 v 0 l 1,0.0769 v 0 l 1,0.0774 v 0 l 1,0.0778 v 0 l 1,0.0783 v 0 l 1,0.0788 v 0 l 1,0.0792 v 0 l 1,0.0797 v 0 l 1,0.0802 v 0 l 1,0.0806 v 0 l 1,0.0811 v 0 l 1,0.0816 v 0 l 1,0.0821 v 0 l 1,0.0826 v 0 l 1,0.0831 v 0 l 1,0.0836 v 0 l 1,0.0841 v 0 l 1,0.0846 v 0 l 1,0.0852 v 0 l 1,0.0857 v 0 l 1,0.0862 v 0 l 1,0.0867 v 0 l 1,0.0873 v 0 l 1,0.0878 v 0 l 1,0.0884 v 0 l 1,0.0889 v 0 l 1,0.0895 v 0 l 1,0.0901 v 0 l 1,0.0906 v 0 l 1,0.0912 v 0 l 1,0.0918 v 0 l 1,0.0924 v 0 l 1,0.093 v 0 l 1,0.0936 v 0 l 1,0.0942 v 0 l 1,0.0948 v 0 l 1,0.0954 v 0 l 1,0.096 v 0 l 1,0.0967 v 0 l 1,0.0973 v 0 l 1,0.0979 v 0 l 1,0.0986 v 0 l 1,0.0992 v 0 l 1,0.0999 v 0 l 1,0.10055 v 0 l 1,0.10122 v 0 l 1,0.1019 v 0 l 1,0.10259 v 0 l 1,0.10328 v 0 l 1,0.10398 v 0 l 1,0.10469 v 0 l 1,0.10541 v 0 l 1,0.10613 v 0 l 1,0.10686 v 0 l 1,0.10759 v 0 l 1,0.10834 v 0 l 1,0.1091 v 0 l 1,0.10985 v 0 l 1,0.11062 v 0 l 1,0.11141 v 0 l 1,0.11218 v 0 l 1,0.11298 v 0 l 1,0.11378 v 0 l 1,0.11459 v 0 l 1,0.11541 v 0 l 1,0.11624 v 0 l 1,0.11708 v 0 l 1,0.11792 v 0 l 1,0.11878 v 0 l 1,0.11964 v 0 l 1,0.12052 v 0 l 1,0.1214 v 0 l 1,0.12229 v 0 l 1,0.1232 v 0 l 1,0.12411 v 0 l 1,0.12503 v 0 l 1,0.12597 v 0 l 1,0.12691 v 0 l 1,0.12787 v 0 l 1,0.12883 v 0 l 1,0.12981 v 0 l 1,0.1308 v 0 l 1,0.1318 v 0 l 1,0.13281 v 0 l 1,0.13383 v 0 l 1,0.13487 v 0 l 1,0.13591 v 0 l 1,0.13697 v 0 l 1,0.13804 v 0 l 1,0.13913 v 0 l 1,0.14022 v 0 l 1,0.14133 v 0 l 1,0.14246 v 0 l 1,0.14359 v 0 l 1,0.14474 v 0 l 1,0.1459 v 0 l 1,0.14709 v 0 l 1,0.14827 v 0 l 1,0.14948 v 0 l 1,0.15071 v 0 l 1,0.15193 v 0 l 1,0.1532 v 0 l 1,0.15445 v 0 l 1,0.15575 v 0 l 1,0.15704 v 0 l 1,0.15835 v 0 l 1,0.15969 v 0 l 1,0.16104 v 0 l 1,0.1624 v 0 l 1,0.16379 v 0 l 1,0.16519 v 0 l 1,0.16661 v 0 l 1,0.16804 v 0 l 1,0.16951 v 0 l 1,0.17097 v 0 l 1,0.17248 v 0 l 1,0.17398 v 0 l 1,0.17553 v 0 l 1,0.17707 v 0 l 1,0.17866 v 0 l 1,0.18025 v 0 l 1,0.18187 v 0 l 1,0.1835 v 0 l 1,0.18517 v 0 l 1,0.18686 v 0 l 1,0.18857 v 0 l 1,0.19029 v 0 l 1,0.19206 v 0 l 1,0.19383 v 0 l 1,0.19564 v 0 l 1,0.19747 v 0 l 1,0.19932 v 0 l 1,0.20121 v 0 l 1,0.20312 v 0 l 1,0.20505 v 0 l 1,0.20702 v 0 l 1,0.20901 v 0 l 1,0.21103 v 0 l 1,0.21309 v 0 l 1,0.21516 v 0 l 1,0.21728 v 0 l 1,0.21942 v 0 l 1,0.2216 v 0 l 1,0.2238 v 0 l 1,0.22605 v 0 l 1,0.22832 v 0 l 1,0.23063 v 0 l 1,0.23297 v 0 l 1,0.23536 v 0 l 1,0.23777 v 0 l 1,0.24022 v 0 l 1,0.24272 v 0 l 1,0.24525 v 0 l 1,0.24782 v 0 l 1,0.25043 v 0 l 1,0.25309 v 0 l 1,0.25578 v 0 l 1,0.25852 v 0 l 1,0.26131 v 0 l 1,0.26413 v 0 l 1,0.26701 v 0 l 1,0.26993 v 0 l 1,0.2729 v 0 l 1,0.27593 v 0 l 1,0.27899 v 0 l 1,0.28211 v 0 l 1,0.28529 v 0 l 1,0.28851 v 0 l 1,0.2918 v 0 l 1,0.29514 v 0 l 1,0.29853 v 0 l 1,0.302 v 0 l 1,0.3055 v 0 l 1,0.30909 v 0 l 1,0.31273 v 0 l 1,0.31643 v 0 l 1,0.32021 v 0 l 1,0.32405 v 0 l 1,0.32796 v 0 l 1,0.33194 v 0 l 1,0.33599 v 0 l 1,0.34012 v 0 l 1,0.34433 v 0 l 1,0.34861 v 0 l 1,0.35298 v 0 l 1,0.35742 v 0 l 1,0.36196 v 0 l 1,0.36657 v 0 l 1,0.37128 v 0 l 1,0.37608 v 0 l 1,0.38097 v 0 l 1,0.38596 v 0 l 1,0.39105 v 0 l 1,0.39623 v 0 l 1,0.40153 v 0 l 1,0.40692 v 0 l 1,0.41243 v 0 l 1,0.41806 v 0 l 1,0.42379 v 0 l 1,0.42964 v 0 l 1,0.43563 v 0 l 1,0.44172 v 0 l 1,0.44796 v 0 l 1,0.45433 v 0 l 1,0.46082 v 0 l 1,0.46747 v 0 l 1,0.47426 v 0 l 1,0.48119 v 0 l 1,0.48828 v 0 l 1,0.49553 v 0 l 1,0.50294 v 0 l 1,0.51052 v 0 l 1,0.51826 v 0 l 1,0.5262 v 0 l 1,0.5343 v 0 l 1,0.5426 v 0 l 1,0.5511 v 0 l 1,0.5598 v 0 l 1,0.5687 v 0 l 1,0.57781 v 0 l 1,0.58716 v 0 l 1,0.59672 v 0 l 1,0.60652 v 0 l 1,0.61657 v 0 l 1,0.62686 v 0 l 1,0.63743 v 0 l 1,0.64825 v 0 l 1,0.65936 v 0 l 1,0.67074 v 0 l 1,0.68244 v 0 l 1,0.69444 v 0 l 1,0.70676 v 0 l 1,0.7194 v 0 l 1,0.7324 v 0 l 1,0.74574 v 0 l 1,0.75946 v 0 l 1,0.77356 v 0 l 1,0.78804 v 0 l 1,0.80296 v 0 l 1,0.81828 v 0 l 1,0.83405 v 0 l 1,0.8503 v 0 l 1,0.867 v 0 l 1,0.88422 v 0 l 1,0.90194 v 0 l 1,0.92021 v 0 l 1,0.93904 v 0 l 1,0.95845 v 0 l 1,0.97847 v 0 l 1,0.99913 v 0 l 1,1.02044 v 0 l 1,1.04244 v 0 l 1,1.06517 v 0 l 1,1.08864 v 0 l 1,1.1129 v 0 l 1,1.13798 v 0 l 1,1.16392 v 0 l 1,1.19075 v 0 l 1,1.21852 v 0 l 1,1.24728 v 0 l 1,1.27707 v 0 l 1,1.30793 v 0 l 1,1.33993 v 0 l 1,1.37312 v 0 l 1,1.40755 v 0 l 1,1.4433 v 0 l 1,1.48042 v 0 l 1,1.51901 v 0 l 1,1.55911 v 0 l 1,1.60082 v 0 l 1,1.64424 v 0 l 1,1.68944 v 0 l 1,1.73653 v 0 l 1,1.78562 v 0 l 1,1.83683 v 0 l 1,1.89025 v 0 l 1,1.94606 v 0 l 1,2.00437 v 0 l 1,2.06533 v 0 l 1,2.12913 v 0 l 1,2.19593 v 0 l 1,2.26591 v 0 l 1,2.33931 v 0 l 1,2.41632 v 0 l 1,2.4972 v 0 l 1,2.58221 v 0 l 1,2.67164 v 0 l 1,2.7658 v 0 l 1,2.86501 v 0 l 1,2.96967 v 0 l 1,3.08018 v 0 l 1,3.19695 v 0 l 1,3.32051 v 0 l 1,3.45137 v 0 l 1,3.59012 v 0 l 1,3.7374 v 0 l 1,3.89395 v 0 l 1,4.06053 v 0 l 1,4.23804 v 0 l 1,4.42744 v 0 l 1,4.62985 v 0 l 1,4.84645 v 0 l 1,5.07861 v 0 l 1,5.32787 v 0 l 1,5.59594 v 0 l 1,5.88476 v 0 l 1,6.19654 v 0 l 1,6.53376 v 0 l 1,6.89929 v 0 l 1,7.29637 v 0 l 1,7.72875 v 0 l 1,8.20073 v 0 l 1,8.71731 v 0 l 1,9.28429 v 0 l 1,9.90845 v 0 l 1,10.59773 v 0 l 1,11.36153 v 0 l 1,12.21099 v 0 l 1,13.15942 v 0 l 1,14.22281 v 0 l 1,15.42051 v 0 l 1,16.77617 v 0 l 1,18.3188 v 0 L 693.88986,908 M 714.52,-10 h 18.99559 L 734,2.4985653 v 0 l 1,23.2531577 v 0 l 1,21.064624 v 0 l 1,19.171176 v 0 l 1,17.522042 v 0 l 1,16.076925 v 0 l 1,14.80351 v 0 l 1,13.67561 v 0 l 1,12.67191 v 0 l 1,11.77478 v 0 l 1,10.96966 v 0 l 1,10.2444 v 0 l 1,9.58876 v 0 l 1,8.9941 v 0 l 1,8.45311 v 0 l 1,7.95949 v 0 l 1,7.50789 v 0 l 1,7.09367 v 0 l 1,6.71279 v 0 l 1,6.3618 v 0 l 1,6.03763 v 0 l 1,5.73763 v 0 l 1,5.45943 v 0 l 1,5.20101 v 0 l 1,4.96049 v 0 l 1,4.73629 v 0 l 1,4.52695 v 0 l 1,4.33119 v 0 l 1,4.14786 v 0 l 1,3.97593 v 0 l 1,3.81447 v 0 l 1,3.66265 v 0 l 1,3.51972 v 0 l 1,3.38499 v 0 l 1,3.25785 v 0 l 1,3.13775 v 0 l 1,3.02417 v 0 l 1,2.91664 v 0 l 1,2.81475 v 0 l 1,2.7181 v 0 l 1,2.62636 v 0 l 1,2.53917 v 0 l 1,2.45626 v 0 l 1,2.37735 v 0 l 1,2.30217 v 0 l 1,2.23051 v 0 l 1,2.16214 v 0 l 1,2.09687 v 0 l 1,2.03451 v 0 l 1,1.97489 v 0 l 1,1.91785 v 0 l 1,1.86325 v 0 l 1,1.81095 v 0 l 1,1.76082 v 0 l 1,1.71275 v 0 l 1,1.6666 v 0 l 1,1.62232 v 0 l 1,1.57976 v 0 l 1,1.53886 v 0 l 1,1.49953 v 0 l 1,1.46168 v 0 l 1,1.42526 v 0 l 1,1.39018 v 0 l 1,1.35637 v 0 l 1,1.32378 v 0 l 1,1.29236 v 0 l 1,1.26204 v 0 l 1,1.23278 v 0 l 1,1.20452 v 0 l 1,1.17722 v 0 l 1,1.15084 v 0 l 1,1.12533 v 0 l 1,1.10067 v 0 l 1,1.07681 v 0 l 1,1.05372 v 0 l 1,1.03135 v 0 l 1,1.0097 v 0 l 1,0.98871 v 0 l 1,0.96839 v 0 l 1,0.94867 v 0 l 1,0.92955 v 0 l 1,0.91101 v 0 l 1,0.89301 v 0 l 1,0.87555 v 0 l 1,0.85859 v 0 l 1,0.84211 v 0 l 1,0.82612 v 0 l 1,0.81056 v 0 l 1,0.79545 v 0 l 1,0.78075 v 0 l 1,0.76646 v 0 l 1,0.75255 v 0 l 1,0.73902 v 0 l 1,0.72586 v 0 l 1,0.71304 v 0 l 1,0.70056 v 0 l 1,0.6884 v 0 l 1,0.67655 v 0 l 1,0.66502 v 0 l 1,0.65377 v 0 l 1,0.6428 v 0 l 1,0.63211 v 0 l 1,0.62169 v 0 l 1,0.61151 v 0 l 1,0.60159 v 0 l 1,0.59191 v 0 l 1,0.58246 v 0 l 1,0.57323 v 0 l 1,0.56422 v 0 l 1,0.55542 v 0 l 1,0.54683 v 0 l 1,0.53843 v 0 l 1,0.53022 v 0 l 1,0.52221 v 0 l 1,0.51437 v 0 l 1,0.50671 v 0 l 1,0.49921 v 0 l 1,0.49188 v 0 l 1,0.48472 v 0 l 1,0.47771 v 0 l 1,0.47084 v 0 l 1,0.46413 v 0 l 1,0.45756 v 0 l 1,0.45112 v 0 l 1,0.44483 v 0 l 1,0.43866 v 0 l 1,0.43262 v 0 l 1,0.4267 v 0 l 1,0.42091 v 0 l 1,0.41523 v 0 l 1,0.40966 v 0 l 1,0.40422 v 0 l 1,0.39886 v 0 l 1,0.39363 v 0 l 1,0.38849 v 0 l 1,0.38345 v 0 l 1,0.37852 v 0 l 1,0.37366 v 0 l 1,0.36892 v 0 l 1,0.36425 v 0 l 1,0.35968 v 0 l 1,0.35519 v 0 l 1,0.35078 v 0 l 1,0.34646 v 0 l 1,0.34222 v 0 l 1,0.33805 v 0 l 1,0.33396 v 0 l 1,0.32994 v 0 l 1,0.32599 v 0 l 1,0.32212 v 0 l 1,0.31831 v 0 l 1,0.31457 v 0 l 1,0.3109 v 0 l 1,0.30729 v 0 l 1,0.30375 v 0 l 1,0.30025 v 0 l 1,0.29683 v 0 l 1,0.29346 v 0 l 1,0.29015 v 0 l 1,0.2869 v 0 l 1,0.28369 v 0 l 1,0.28055 v 0 l 1,0.27745 v 0 l 1,0.2744 v 0 l 1,0.27141 v 0 l 1,0.26846 v 0 l 1,0.26557 v 0 l 1,0.26271 v 0 l 1,0.25991 v 0 l 1,0.25715 v 0 l 1,0.25443 v 0 l 1,0.25175 v 0 l 1,0.24912 v 0 l 1,0.24653 v 0 l 1,0.24398 v 0 l 1,0.24147 v 0 l 1,0.23899 v 0 l 1,0.23656 v 0 l 1,0.23416 v 0 l 1,0.2318 v 0 l 1,0.22947 v 0 l 1,0.22717 v 0 l 1,0.22493 v 0 l 1,0.22269 v 0 l 1,0.22051 v 0 l 1,0.21834 v 0 l 1,0.21622 v 0 l 1,0.21412 v 0 l 1,0.21206 v 0 l 1,0.21002 v 0 l 1,0.20801 v 0 l 1,0.20603 v 0 l 1,0.20408 v 0 l 1,0.20216 v 0 l 1,0.20027 v 0 l 1,0.19839 v 0 l 1,0.19655 v 0 l 1,0.19473 v 0 l 1,0.19294 v 0 l 1,0.19117 v 0 l 1,0.18943 v 0 l 1,0.18771 v 0 l 1,0.18601 v 0 l 1,0.18434 v 0 l 1,0.18268 v 0 l 1,0.18106 v 0 l 1,0.17945 v 0 l 1,0.17786 v 0 l 1,0.1763 v 0 l 1,0.17475 v 0 l 1,0.17323 v 0 l 1,0.17172 v 0 l 1,0.17024 v 0 l 1,0.16877 v 0 l 1,0.16733 v 0 l 1,0.16589 v 0 l 1,0.16449 v 0 l 1,0.16309 v 0 l 1,0.16172 v 0 l 1,0.16036 v 0 l 1,0.15902 v 0 l 1,0.1577 v 0 l 1,0.15639 v 0 l 1,0.15509 v 0 l 1,0.15383 v 0 l 1,0.15256 v 0 l 1,0.15132 v 0 l 1,0.15009 v 0 l 1,0.14888 v 0 l 1,0.14767 v 0 l 1,0.14649 v 0 l 1,0.14533 v 0 l 1,0.14416 v 0 l 1,0.14302 v 0 l 1,0.14189 v 0 l 1,0.14078 v 0 l 1,0.13967 v 0 l 1,0.13858 v 0 l 1,0.13751 v 0 l 1,0.13644 v 0 l 1,0.13539 v 0 l 1,0.13434 v 0 l 1,0.13332 v 0 l 1,0.1323 v 0 l 1,0.1313 v 0 l 1,0.1303 v 0 l 1,0.12932 v 0 l 1,0.12835 v 0 l 1,0.12739 v 0 l 1,0.12644 v 0 l 1,0.1255 v 0 l 1,0.12457 v 0 l 1,0.12365 v 0 l 1,0.12275 v 0 l 1,0.12184 v 0 l 1,0.12096 v 0 l 1,0.12008 v 0 l 1,0.11921 v 0 l 1,0.11834 v 0 l 1,0.1175 v 0 l 1,0.11666 v 0 l 1,0.11582 v 0 l 1,0.115 v 0 l 1,0.11419 v 0 l 1,0.11338 v 0 l 1,0.11258 v 0 l 1,0.11179 v 0 l 1,0.11101 v 0 l 1,0.11024 v 0 l 1,0.10948 v 0 l 1,0.10871 v 0 l 1,0.10797 v 0 l 1,0.10722 v 0 l 1,0.1065 v 0 l 1,0.10576 v 0 l 1,0.10505 v 0 l 1,0.10433 v 0 l 1,0.10364 v 0 l 1,0.10293 v 0 l 1,0.10224 v 0 l 1,0.10156 v 0 l 1,0.10089 v 0 l 1,0.10021 v 0 l 1,0.0996 v 0 l 1,0.0989 v 0 l 1,0.0982 v 0 l 1,0.0976 v 0 l 1,0.097 v 0 l 1,0.0963 v 0 l 1,0.0957 v 0 l 1,0.0951 v 0 l 1,0.0945 v 0 l 1,0.0939 v 0 l 1,0.0933 v 0 l 1,0.0927 v 0 l 1,0.0921 v 0 l 1,0.0915 v 0 l 1,0.0909 v 0 l 1,0.0903 v 0 l 1,0.0898 v 0 l 1,0.0892 v 0 l 1,0.0887 v 0 l 1,0.0881 v 0 l 1,0.0876 v 0 l 1,0.087 v 0 l 1,0.0865 v 0 l 1,0.0859 v 0 l 1,0.0854 v 0 l 1,0.0849 v 0 l 1,0.0844 v 0 l 1,0.0839 v 0 l 1,0.0834 v 0 l 1,0.0829 v 0 l 1,0.0824 v 0 l 1,0.0819 v 0 l 1,0.0814 v 0 l 1,0.0809 v 0 l 1,0.0804 v 0 l 1,0.0799 v 0 l 1,0.0795 v 0 l 1,0.079 v 0 l 1,0.0785 v 0 l 1,0.0781 v 0 l 1,0.0776 v 0 l 1,0.0772 v 0 l 1,0.0767 v 0 l 1,0.0763 v 0 l 1,0.0758 v 0 l 1,0.0754 v 0 l 1,0.075 v 0 l 1,0.0745 v 0 l 1,0.0741 v 0 l 1,0.0737 v 0 l 1,0.0733 v 0 l 1,0.0729 v 0 l 1,0.0724 v 0 l 1,0.072 v 0 l 1,0.0716 v 0 l 1,0.0712 v 0 l 1,0.0708 v 0 l 1,0.0704 v 0 l 1,0.07 v 0 l 1,0.0696 v 0 l 1,0.0693 v 0 l 1,0.0689 v 0 l 1,0.0685 v 0 l 1,0.0681 v 0 l 1,0.0678 v 0 l 1,0.0674 v 0 l 1,0.067 v 0 l 1,0.0667 v 0 l 1,0.0663 v 0 l 1,0.0659 v 0 l 1,0.0656 v 0 l 1,0.0652 v 0 l 1,0.0649 v 0 l 1,0.0645 v 0 l 1,0.0642 v 0 l 1,0.0639 v 0 l 1,0.0635 v 0 l 1,0.0632 v 0 l 1,0.0629 v 0 l 1,0.0625 v 0 l 1,0.0622 v 0 l 1,0.0619 v 0 l 1,0.0615 v 0 l 1,0.0612 v 0 l 1,0.0609 v 0 l 1,0.0606 v 0 l 1,0.0603 v 0 l 1,0.06 v 0 l 1,0.0597 v 0 l 1,0.0594 v 0 l 1,0.0591 v 0 l 1,0.0588 v 0 l 1,0.0585 v 0 l 1,0.0582 v 0 l 1,0.0579 v 0 l 1,0.0576 v 0 l 1,0.0573 v 0 l 1,0.057 v 0 l 1,0.0567 v 0 l 1,0.0564 v 0 l 1,0.0562 v 0 l 1,0.0559 v 0 l 1,0.0556 v 0 l 1,0.0553 v 0 l 1,0.0551 v 0 l 1,0.0548 v 0 l 1,0.0545 v 0 l 1,0.0543 v 0 l 1,0.054 v 0 l 1,0.0537 v 0 l 1,0.0535 v 0 l 1,0.0532 v 0 l 1,0.053 v 0 l 1,0.0527 v 0 l 1,0.0524 v 0 l 1,0.0522 v 0 l 1,0.0519 v 0 l 1,0.0517 v 0 l 1,0.0514 v 0 l 1,0.0512 v 0 l 1,0.051 v 0 l 1,0.0507 v 0 l 1,0.0505 v 0 l 1,0.0503 v 0 l 1,0.05 v 0 l 1,0.0498 v 0 l 1,0.0495 v 0 l 1,0.0493 v 0 l 1,0.0491 v 0 l 1,0.0489 v 0 l 1,0.0486 v 0 l 1,0.0484 v 0 l 1,0.0482 v 0 l 1,0.048 v 0 l 1,0.0477 v 0 l 1,0.0475 v 0 l 1,0.0473 v 0 l 1,0.0471 v 0 l 1,0.0469 v 0 l 1,0.0467 v 0 l 1,0.0464 v 0 l 1,0.0462 v 0 l 1,0.046 v 0 l 1,0.0458 v 0 l 1,0.0456 v 0 l 1,0.0454 v 0 l 1,0.0452 v 0 l 1,0.045 v 0 l 1,0.0448 v 0 l 1,0.0446 v 0 l 1,0.0444 v 0 l 1,0.0442 v 0 l 1,0.044 v 0 l 1,0.0438 v 0 l 1,0.0436 v 0 l 1,0.0435 v 0 l 1,0.0433 v 0 l 1,0.0431 v 0 l 1,0.0429 v 0 l 1,0.0427 v 0 l 1,0.0425 v 0 l 1,0.0423 v 0 l 1,0.0421 v 0 l 1,0.042 v 0 l 1,0.0418 v 0 l 1,0.0416 v 0 l 1,0.0414 v 0 l 1,0.0413 v 0 l 1,0.0411 v 0 l 1,0.0409 v 0 l 1,0.0407 v 0 l 1,0.0406 v 0 l 1,0.0404 v 0 l 1,0.0402 v 0 l 1,0.0401 v 0 l 1,0.0399 v 0 l 1,0.0397 v 0 l 1,0.0396 v 0 l 1,0.0394 v 0 l 1,0.0392 v 0 l 1,0.0391 v 0 l 1,0.0389 v 0 l 1,0.0387 v 0 l 1,0.0386 v 0 l 1,0.0384 v 0 l 1,0.0383 v 0 l 1,0.0381 v 0 l 1,0.038 v 0 l 1,0.0378 v 0 l 1,0.0376 v 0 l 1,0.0375 v 0 l 1,0.0373 v 0 l 1,0.0372 v 0 l 1,0.037 v 0 l 1,0.0369 v 0 l 1,0.0367 v 0 l 1,0.0366 v 0 l 1,0.0364 v 0 l 1,0.0363 v 0 l 1,0.0362 v 0 l 1,0.036 v 0 l 1,0.0359 v 0 l 1,0.0357 v 0 l 1,0.0356 v 0 l 1,0.0354 v 0 l 1,0.0353 v 0 l 1,0.0352 v 0 l 1,0.035 v 0 l 1,0.0349 v 0 l 1,0.0347 v 0 l 1,0.0346 v 0 l 1,0.0345 v 0 l 1,0.0343 v 0 l 1,0.0342 v 0 l 1,0.0341 v 0 l 1,0.0339 v 0 l 1,0.0338 v 0 l 1,0.0337 v 0 l 1,0.0335 v 0 l 1,0.0334 v 0 l 1,0.0333 v 0 l 1,0.0332 v 0 l 1,0.033 v 0 l 1,0.0329 v 0 l 1,0.0328 v 0 l 1,0.0327 v 0 l 1,0.0325 v 0 l 1,0.0324 v 0 l 1,0.0323 v 0 l 1,0.0322 v 0 l 1,0.0321 v 0 l 1,0.0319 v 0 l 1,0.0318 v 0 l 1,0.0317 v 0 l 1,0.0316 v 0 l 1,0.0315 v 0 l 1,0.0313 v 0 l 1,0.0312 v 0 l 1,0.0311 v 0 l 1,0.031 v 0 l 1,0.0309 v 0 l 1,0.0308 v 0 l 1,0.0307 v 0 l 1,0.0305 v 0 l 1,0.0304 v 0 l 1,0.0303 v 0 l 1,0.0302 v 0 l 1,0.0301 v 0 l 1,0.03 v 0 l 1,0.0299 v 0 l 1,0.0298 v 0 l 1,0.0297 v 0 l 1,0.0296 v 0 l 1,0.0294 v 0 l 1,0.0294 v 0 l 1,0.0292 v 0 l 1,0.0291 v 0 l 1,0.029 v 0 l 1,0.0289 v 0 l 1,0.0288 v 0 l 1,0.0287 v 0 l 1,0.0286 v 0 l 1,0.0285 v 0 l 1,0.0284 v 0 l 1,0.0283 v 0 l 1,0.0282 v 0 l 1,0.0281 v 0 l 1,0.028 v 0 l 1,0.0279 v 0 l 1,0.0278 v 0 l 1,0.0277 v 0 l 1,0.0276 v 0 l 1,0.0275 v 0 l 1,0.0274 v 0 l 1,0.0273 v 0 l 1,0.0273 v 0 l 1,0.0272 v 0 l 1,0.0271 v 0 l 1,0.027 v 0 l 1,0.0269 v 0 l 1,0.0268 v 0 l 1,0.0267 v 0 l 1,0.0266 v 0 l 1,0.0265 v 0 l 1,0.0264 v 0 l 1,0.0263 v 0 l 1,0.0262 v 0 l 1,0.0261 v 0 l 1,0.0261 v 0 l 1,0.026 v 0 l 1,0.0259 v 0 l 1,0.0258 v 0 l 1,0.0257 v 0 l 1,0.0256 v 0 l 1,0.0255 v 0 l 1,0.0254 v 0 l 1,0.0254 v 0 l 1,0.0253 v 0 l 1,0.0252 v 0 l 1,0.0251 v 0 l 1,0.025 v 0 l 1,0.0249 v 0 l 1,0.0249 v 0 l 1,0.0248 v 0 l 1,0.0247 v 0 l 1,0.0246 v 0 l 1,0.0245 v 0 l 1,0.0245 v 0 l 1,0.0244 v 0 l 1,0.0243 v 0 l 1,0.0242 v 0 l 1,0.0242 v 0 l 1,0.0241 v 0 l 1,0.024 v 0 l 1,0.0239 v 0 l 1,0.0238 v 0 l 1,0.0238 v 0 l 1,0.0237 v 0 l 1,0.0236 v 0 l 1,0.0235 v 0 l 1,0.0234 v 0 l 1,0.0234 v 0 l 1,0.0233 v 0 l 1,0.0232 v 0 l 1,0.0232 v 0 l 1,0.0231 v 0 l 1,0.023 v 0 l 1,0.0229 v 0 l 1,0.0229 v 0 l 1,0.0228 v 0 l 1,0.0227 v 0 l 1,0.0226 v 0 l 1,0.0226 v 0 l 1,0.0225 v 0 l 1,0.0224 v 0 l 1,0.0224 v 0 l 1,0.0223 v 0 l 1,0.0222 v 0 l 1,0.0222 v 0 l 1,0.0221 v 0 l 1,0.022 v 0 l 1,0.0219 v 0 l 1,0.0219 v 0 l 1,0.0218 v 0 l 1,0.0217 v 0 l 1,0.0217 v 0 l 1,0.0216 v 0 l 1,0.0215 v 0 l 1,0.0215 v 0 l 1,0.0214 v 0 l 1,0.0213 v 0 l 1,0.0213 v 0 l 1,0.0212 v 0 l 1,0.0211 v 0 l 1,0.0211 v 0 l 1,0.021 v 0 l 1,0.0209 v 0 l 1,0.0209 v 0 l 1,0.0208 v 0 l 1,0.0208 v 0 l 1,0.0207 v 0 l 1,0.0206 v 0 l 1,0.0206 v 0 l 1,0.0205 v 0 l 1,0.0205 v 0 l 1,0.0204 v 0 l 1,0.0203 v 0 l 1,0.0203 v 0 l 1,0.0202 v 0 l 1,0.0202 v 0 l 1,0.0201 v 0 l 1,0.02 v 0 l 1,0.02 v 0 l 1,0.0199 v 0 l 1,0.0198 v 0 l 1,0.0198 v 0 l 1,0.0197 v 0 l 1,0.0197 v 0 l 1,0.0196 v 0 l 1,0.0196 v 0 l 1,0.0195 v 0 l 1,0.0195 v 0 l 1,0.0194 v 0 l 1,0.0193 v 0 l 1,0.0193 v 0 l 1,0.0192 v 0 l 1,0.0192 v 0 l 1,0.0191 v 0 l 1,0.019 v 0 l 1,0.019 v 0 l 1,0.0189 v 0 l 1,0.0189 v 0 l 1,0.0188 v 0 l 1,0.0188 v 0 l 1,0.0187 v 0 l 1,0.0187 v 0 l 1,0.0186 v 0 l 1,0.0186 v 0 l 1,0.0185 v 0 l 1,0.0185 v 0 l 1,0.0184 v 0 l 1,0.0183 v 0 l 1,0.0183 v 0 l 1,0.0183 v 0 l 1,0.0182 v 0 l 1,0.0182 v 0 l 1,0.0181 v 0 l 1,0.0181 v 0 l 1,0.018 v 0 l 1,0.0179 v 0 l 1,0.0179 v 0 l 1,0.0178 v 0 l 1,0.0178 v 0 l 1,0.0177 v 0 l 1,0.0177 v 0 l 1,0.0177 v 0 l 1,0.0176 v 0 l 1,0.0175 v 0 l 1,0.0175 v 0 l 1,0.0174 v 0 l 1,0.0174 v 0 l 1,0.0174 v 0 l 1,0.0173 v 0 l 1,0.0173 v 0 l 1,0.0172 v 0 l 1,0.0172 v 0 l 1,0.0171 v 0 l 1,0.0171 v 0 l 1,0.017 v 0 l 1,0.017 v 0 l 1,0.0169 v 0 l 1,0.0169 v 0 l 1,0.0168 v 0 l 1,0.0168 v 0 l 1,0.0167 v 0 l 1,0.0167 v 0 l 1,0.0167 v 0 l 1,0.0166 v 0 l 1,0.0166 v 0 l 1,0.0165 v 0 l 1,0.0165 v 0 l 1,0.0164 v 0 l 1,0.0164 v 0 l 1,0.0163 v 0 l 1,0.0163 v 0 l 1,0.0163 v 0 l 1,0.0162 v 0 l 1,0.0162 v 0 l 1,0.0161 v 0 l 1,0.0161 v 0 l 1,0.016 v 0 l 1,0.016 v 0 l 1,0.016 v 0 l 1,0.0159 v 0 l 1,0.0159 v 0 l 1,0.0158 v 0 l 1,0.0158 v 0 l 1,0.0157 v 0 l 1,0.0157 v 0 l 1,0.0157 v 0 l 1,0.0156 v 0 l 1,0.0156 v 0 l 1,0.0155 v 0 l 1,0.0155 v 0 l 1,0.0155 v 0 l 1,0.0154 v 0 l 1,0.0154 v 0 l 1,0.0153 v 0 l 1,0.0153 v 0 l 1,0.0153 v 0 l 1,0.0152 v 0 l 1,0.0152 v 0 l 1,0.0151 v 0 l 1,0.0151 v 0 l 1,0.0151 v 0 l 1,0.015 v 0 l 1,0.015 v 0 l 1,0.0149 v 0 l 1,0.0149 v 0 l 1,0.0149 v 0 l 1,0.0148 v 0 l 1,0.0148 v 0 l 1,0.0148 v 0 l 1,0.0147 v 0 l 1,0.0147 v 0 l 1,0.0146 v 0 l 1,0.0146 v 0 l 1,0.0146 v 0 l 1,0.0145 v 0 l 1,0.0145 v 0 l 1,0.0145 v 0 l 1,0.0144 v 0 l 1,0.0144 v 0 l 1,0.0143 v 0 l 1,0.0143 v 0 l 1,0.0143 v 0 l 1,0.0143 v 0 l 1,0.0142 v 0 l 1,0.0142 v 0 l 1,0.0141 v 0 l 1,0.0141 v 0 l 1,0.0141 v 0 l 1,0.014 v 0 l 1,0.014 v 0 l 1,0.014 v 0 l 1,0.0139 v 0 l 1,0.0139 v 0 l 1,0.0139 v 0 l 1,0.0138 v 0 l 1,0.0138 v 0 l 1,0.0138 v 0 l 1,0.0137 v 0 l 1,0.0137 v 0 l 1,0.0136 v 0 l 1,0.0136 v 0 l 1,0.0136"
     stroke-opacity="0.698039"
     stroke-linecap="round"
     stroke-linejoin="round"
     stroke-miterlimit="10"
     stroke-width="2.5"
     id="path45"
     clip-path="url(#clipPath51)"
     style="stroke:#d32f2f;stroke-opacity:1" />
  <text
     fill="#cc0000"
     stroke="none"
     font-family="geogebra-sans-serif, sans-serif"
     font-size="16px"
     font-style="normal"
     font-weight="normal"
     text-decoration="normal"
     x="8"
     y="486"
     text-anchor="start"
     dominant-baseline="alphabetic"
     fill-opacity="1"
     id="text46">g</text>
  <path
     fill="none"
     stroke="#0000ff"
     paint-order="fill stroke markers"
     d="m 0,464.82358 5.984375,1.03125 5.984375,1.14286 5.984375,1.24223 5.984375,1.32799 5.984375,1.39881 5.984375,1.4536 5.984375,1.4914 5.984375,1.51145 5.984375,1.51319 5.984375,1.49629 5.984375,1.4606 5.984375,1.40621 5.984375,1.33345 5.984375,1.24287 5.984375,1.13522 5.984375,1.01149 5.98438,0.87289 5.98437,0.72081 5.98438,0.55681 5.98437,0.38269 5.98438,0.20031 5.98437,0.0118 5.98438,-0.18084 5.98437,-0.37523 5.98437,-0.56908 5.98438,-0.76007 5.98437,-0.94581 5.98438,-1.12397 5.98437,-1.2922 5.98438,-1.44831 5.98437,-1.59013 5.98438,-1.71563 5.98437,-1.82295 5.98438,-1.91039 5.98438,-1.97644 5.98437,-2.01983 5.98437,-2.03948 5.98438,-2.03463 5.98437,-2.00473 5.98438,-1.94951 5.98437,-1.86905 5.98438,-1.76365 5.98437,-1.63395 5.98438,-1.48086 5.98437,-1.30559 5.98438,-1.10964 5.98438,-0.89479 5.98437,-0.66305 5.98438,-0.4167 5.98437,-0.15823 5.98437,0.10966 5.98438,0.38412 5.98437,0.66211 5.98438,0.94049 5.98437,1.21605 5.98438,1.4855 5.98437,1.74553 5.98438,1.99288 5.98437,2.22426 5.98438,2.43656 5.98437,2.6267 5.98438,2.79182 5.98437,2.92919 5.98438,3.03636 5.98437,3.11105 5.98438,3.15131 5.98438,3.1555 5.98437,3.12224 5.98437,3.05057 5.98438,2.93983 5.98437,2.78977 5.98438,2.60049 5.98438,2.37253 5.98437,2.10678 5.98437,1.80451 5.98438,1.46744 5.98437,1.09758 5.98438,0.69735 5.98437,0.26952 5.98438,-0.18284 5.98437,-0.65637 5.98438,-1.14739 5.98437,-1.65206 5.98438,-2.16624 5.98437,-2.68569 5.98438,-3.20601 5.98437,-3.72272 5.98438,-4.23125 5.98437,-4.72708 5.98438,-5.20566 5.98437,-5.66258 5.98438,-6.09348 5.98437,-6.4942 5.98438,-6.86079 5.98437,-7.1895 5.98438,-7.47687 5.98437,-7.71979 5.98438,-7.91542 5.98437,-8.06136 5.98438,-8.15555 5.98437,-8.19641 5.98438,-8.18274 5.98437,-8.11383 5.98438,-7.98941 5.98437,-7.80971 5.98438,-7.57538 5.98437,-7.28758 5.98438,-6.94792 5.98437,-6.55845 5.98438,-6.12165 5.98437,-5.64043 5.98438,-5.11805 5.98437,-4.55818 5.98438,-3.96479 5.98437,-3.34215 5.98438,-2.69477 5.98437,-2.02743 5.98438,-1.34501 5.98437,-0.65262 5.98438,0.0447 5.98437,0.74158 5.98438,1.43299 5.98437,2.11374 5.98438,2.77882 5.98437,3.42328 5.98438,4.04243 5.98437,4.63177 5.98438,5.18705 5.98437,5.70436 5.98438,6.18008 5.98437,6.61097 5.98438,6.99421 5.98437,7.32733 5.98438,7.60837 5.98437,7.83576 5.98438,8.00842 5.98437,8.12574 5.98438,8.18756 5.98437,8.19421 5.98438,8.14645 5.98437,8.04553 5.98438,7.89312 5.98437,7.69129 5.98438,7.44253 5.98437,7.14968 5.98438,6.81592 5.98437,6.44476 5.98438,6.03995 5.98437,5.60548 5.98438,5.14555 5.98437,4.66452 5.98438,4.1668 5.98437,3.65697 5.98438,3.13955 5.98437,2.6191 5.98438,2.10007 5.98437,1.58687 5.98438,1.08373 5.98437,0.59473 5.98438,0.12371 5.98437,-0.32569 5.98438,-0.75016 5.98437,-1.14664 5.98438,-1.51244 5.98437,-1.84517 5.98438,-2.14284 5.98437,-2.40383 5.98438,-2.62688 5.9844,-2.81116 5.9843,-2.95618 5.9844,-3.06191 5.9844,-3.12863 5.9844,-3.15702 5.9844,-3.14815 5.9843,-3.10337 5.9844,-3.02441 5.9844,-2.91326 5.9844,-2.77219 5.9843,-2.60371 5.9844,-2.41057 5.9844,-2.19566 5.9844,-1.96205 5.9843,-1.71291 5.9844,-1.45148 5.9844,-1.18107 5.9844,-0.90496 5.9843,-0.62645 5.9844,-0.34875 5.9844,-0.075 5.9844,0.19188 5.9843,0.44894 5.9844,0.69357 5.9844,0.92327 5.9844,1.1358 5.9843,1.32921 5.9844,1.5017 5.9844,1.65187 5.9844,1.77851 5.9843,1.88074 5.9844,1.958 5.9844,2.00995 5.9844,2.03664 5.9843,2.03833 5.9844,2.01558 5.9844,1.96923 5.9844,1.90037 5.9843,1.81029 5.9844,1.70055 5.9844,1.57285 5.9844,1.42909 5.9843,1.27132 5.9844,1.10167 5.9844,0.92242 5.9844,0.73588 5.9843,0.5444 5.9844,0.35033 5.9844,0.15606 5.9844,-0.0362 5.9843,-0.22404 5.9844,-0.40547 5.9844,-0.5784 5.9844,-0.74096 5.9843,-0.8914 5.9844,-1.02818 5.9844,-1.14991 5.9844,-1.25543 5.9843,-1.34377 5.9844,-1.4142 5.9844,-1.46621 5.9844,-1.4995 5.9843,-1.51401 5.9844,-1.5099 5.9844,-1.48753 5.9843,-1.44752 5.9844,-1.39063 5.9844,-1.31782 5.9844,-1.23025 5.9844,-1.12923 5.9843,-1.01617 5.9844,-0.89264 5.9844,-0.76031 5.9844,-0.62088 5.9843,-0.47618 5.9844,-0.32801 5.9844,-0.17822 5.9844,-0.0286 5.9843,0.11894 5.9844,0.26277 5.9844,0.40117 5.9844,0.53254 5.9843,0.65542 5.9844,0.76846 5.9844,0.87042 5.9844,0.96025 5.9843,1.03703 5.9844,1.10003"
     stroke-opacity="0.698039"
     stroke-linecap="round"
     stroke-linejoin="round"
     stroke-miterlimit="10"
     stroke-width="2.5"
     id="path46"
     clip-path="url(#clipPath50)"
     style="stroke:#a527b0;stroke-opacity:1" />
  <text
     fill="#0000ff"
     stroke="none"
     font-family="geogebra-sans-serif, sans-serif"
     font-size="16px"
     font-style="normal"
     font-weight="normal"
     text-decoration="normal"
     x="8"
     y="465"
     text-anchor="start"
     dominant-baseline="alphabetic"
     fill-opacity="1"
     id="text47">h</text>
  <path
     fill="none"
     stroke="#c75000"
     paint-order="fill stroke markers"
     d="m 0,472.94166 5.984375,0.0982 5.984375,0.0941 5.984375,0.0848 5.984375,0.0704 5.984375,0.0515 5.984375,0.029 5.984375,0.004 5.984375,-0.0231 5.984375,-0.0503 5.984375,-0.0764 5.984375,-0.1002 5.984375,-0.12035 5.984375,-0.13577 5.984375,-0.14553 5.984375,-0.14892 5.984375,-0.14556 5.98438,-0.13535 5.98437,-0.11859 5.98438,-0.0958 5.98437,-0.068 5.98438,-0.0363 5.98437,-0.002 5.98438,0.0328 5.98437,0.0668 5.98437,0.0982 5.98438,0.1251 5.98437,0.14612 5.98438,0.15985 5.98437,0.16527 5.98438,0.16172 5.98437,0.14892 5.98438,0.12707 5.98437,0.0968 5.98438,0.0592 5.98438,0.0157 5.98437,-0.0318 5.98437,-0.0812 5.98438,-0.13009 5.98437,-0.17617 5.98438,-0.217 5.98437,-0.25034 5.98438,-0.27418 5.98437,-0.28692 5.98438,-0.28737 5.98437,-0.27492 5.98438,-0.24954 5.98438,-0.21185 5.98437,-0.16311 5.98438,-0.10517 5.98437,-0.0405 5.98437,0.0281 5.98438,0.0973 5.98437,0.16351 5.98438,0.22333 5.98437,0.27322 5.98438,0.30999 5.98437,0.33082 5.98438,0.33356 5.98437,0.31669 5.98438,0.27963 5.98437,0.22263 5.98438,0.14699 5.98437,0.0549 5.98438,-0.0504 5.98437,-0.16499 5.98438,-0.28408 5.98438,-0.40238 5.98437,-0.5143 5.98437,-0.61407 5.98438,-0.69615 5.98437,-0.75533 5.98438,-0.78715 5.98438,-0.78807 5.98437,-0.75572 5.98437,-0.68912 5.98438,-0.58884 5.98437,-0.45711 5.98438,-0.29785 5.98437,-0.11666 5.98438,0.0792 5.98437,0.28118 5.98438,0.47926 5.98437,0.66264 5.98438,0.81987 5.98437,0.93925 5.98438,1.00929 5.98437,1.0191 5.98438,0.95887 5.98437,0.82029 5.98438,0.59693 5.98437,0.28463 5.98438,-0.11821 5.98437,-0.61042 5.98438,-1.18784 5.98437,-1.84336 5.98438,-2.56687 5.98437,-3.34546 5.98438,-4.16363 5.98437,-5.00362 5.98438,-5.84584 5.98437,-6.66936 5.98438,-7.45247 5.98437,-8.17327 5.98438,-8.81036 5.98437,-9.34335 5.98438,-9.75367 2.99219,-4.98783 2.99218,-5.03715 2.99219,-5.06704 2.99219,-5.07682 2.99219,-5.066 2.99218,-5.03416 5.98438,-9.88746 5.98437,-9.50335 5.98438,-8.94952 5.98437,-8.23189 5.98438,-7.3605 5.98437,-6.34929 5.98438,-5.21584 5.98437,-3.9809 5.98438,-2.66785 2.99219,-0.82406 2.99218,-0.47813 5.98438,0.0892 2.99219,0.56694 2.99218,0.91198 5.98438,2.83933 5.98437,4.14376 5.98438,5.36697 5.98437,6.48589 5.98438,7.48011 5.98437,8.33253 5.98438,9.02967 5.98437,9.56204 5.98438,9.92423 2.99219,5.04432 2.99218,5.07076 2.99219,5.07626 2.99219,5.06128 5.98437,9.99852 5.98438,9.70862 5.98437,9.28164 5.98438,8.73424 5.98437,8.08528 5.98438,7.3553 5.98437,6.5658 5.98438,5.73868 5.98437,4.8956 5.98438,4.05735 5.98437,3.24329 5.98438,2.47094 5.98437,1.75545 5.98438,1.10944 5.98437,0.54257 5.98438,0.0616 5.98437,-0.32963 5.98438,-0.6304 5.98437,-0.84264 5.98438,-0.97079 5.98437,-1.02156 5.98438,-1.00346 5.98437,-0.9265 5.98438,-0.80162 5.98437,-0.6404 5.98438,-0.4545 5.98437,-0.25534 5.98438,-0.0536 5.98437,0.14083 5.98438,0.31958 5.98437,0.4756 5.98438,0.60349 5.98437,0.69955 5.98438,0.76176 5.98437,0.78977 5.98438,0.78474 5.9844,0.7492 5.9843,0.68682 5.9844,0.60219 5.9844,0.50053 5.9844,0.38749 5.9844,0.26876 5.9843,0.14998 5.9844,0.0363 5.9844,-0.0675 5.9844,-0.15763 5.9843,-0.23101 5.9844,-0.28549 5.9844,-0.31998 5.9844,-0.33427 5.9843,-0.32913 5.9844,-0.30612 5.9844,-0.26751 5.9844,-0.21616 5.9843,-0.15532 5.9844,-0.0885 5.9844,-0.0192 5.9844,0.049 5.9843,0.11301 5.9844,0.1699 5.9844,0.21732 5.9844,0.25349 5.9843,0.27724 5.9844,0.28803 5.9844,0.28595 5.9844,0.27173 5.9843,0.24656 5.9844,0.21215 5.9844,0.17051 5.9844,0.12395 5.9843,0.0748 5.9844,0.0256 5.9844,-0.0215 5.9844,-0.0643 5.9843,-0.1011 5.9844,-0.13035 5.9844,-0.15108 5.9844,-0.16269 5.9843,-0.16507 5.9844,-0.15854 5.9844,-0.1438 5.9844,-0.12196 5.9843,-0.0943 5.9844,-0.0626 5.9844,-0.0283 5.9844,0.007 5.9843,0.0405 5.9844,0.0718 5.9844,0.099 5.9844,0.12108 5.9843,0.13704 5.9844,0.14637 5.9844,0.14886 5.9844,0.14462 5.9843,0.1341 5.9844,0.11801 5.9844,0.0973 5.9844,0.0732 5.9843,0.0469 5.9844,0.0197 5.9844,-0.007 5.9843,-0.032 5.9844,-0.0542 5.9844,-0.0725 5.9844,-0.0862 5.9844,-0.0949 5.9843,-0.0983 5.9844,-0.0965 5.9844,-0.0896 5.9844,-0.0783 5.9843,-0.0631 5.9844,-0.0451 5.9844,-0.025 5.9844,-0.004 5.9843,0.0168 5.9844,0.0365 5.9844,0.0541 5.9844,0.0689 5.9843,0.0801 5.9844,0.0875 5.9844,0.0906 5.9844,0.0896 5.9843,0.0845 5.9844,0.0756"
     stroke-opacity="0.698039"
     stroke-linecap="round"
     stroke-linejoin="round"
     stroke-miterlimit="10"
     stroke-width="2.5"
     id="path47"
     clip-path="url(#clipPath49)"
     style="stroke:#ffa500;stroke-opacity:1" />
  <text
     fill="#c75000"
     stroke="none"
     font-family="geogebra-sans-serif, sans-serif"
     font-size="16px"
     font-style="normal"
     font-weight="normal"
     text-decoration="normal"
     x="8"
     y="473"
     text-anchor="start"
     dominant-baseline="alphabetic"
     fill-opacity="1"
     id="text48">j</text>
</svg>
