<?xml version="1.0" encoding="UTF-8" standalone="no"?>
<!-- Created with Inkscape (http://www.inkscape.org/) -->

<svg
   width="210mm"
   height="297mm"
   viewBox="0 0 210 297"
   version="1.1"
   id="svg1"
   inkscape:version="1.4.2 (1:1.4.2+202505120737+ebf0e940d0)"
   sodipodi:docname="s11.svg"
   xmlns:inkscape="http://www.inkscape.org/namespaces/inkscape"
   xmlns:sodipodi="http://sodipodi.sourceforge.net/DTD/sodipodi-0.dtd"
   xmlns="http://www.w3.org/2000/svg"
   xmlns:svg="http://www.w3.org/2000/svg">
  <sodipodi:namedview
     id="namedview1"
     pagecolor="#ffffff"
     bordercolor="#000000"
     borderopacity="0.25"
     inkscape:showpageshadow="2"
     inkscape:pageopacity="0.0"
     inkscape:pagecheckerboard="0"
     inkscape:deskcolor="#d1d1d1"
     inkscape:document-units="mm"
     showgrid="true"
     inkscape:zoom="1.0066252"
     inkscape:cx="652.17916"
     inkscape:cy="417.73243"
     inkscape:window-width="1920"
     inkscape:window-height="1008"
     inkscape:window-x="0"
     inkscape:window-y="0"
     inkscape:window-maximized="1"
     inkscape:current-layer="layer1">
    <inkscape:grid
       id="grid1"
       units="mm"
       originx="0"
       originy="0"
       spacingx="0.26458333"
       spacingy="0.26458334"
       empcolor="#0099e5"
       empopacity="0.30196078"
       color="#0099e5"
       opacity="0.14901961"
       empspacing="5"
       enabled="true"
       visible="true" />
  </sodipodi:namedview>
  <defs
     id="defs1" />
  <g
     inkscape:label="Layer 1"
     inkscape:groupmode="layer"
     id="layer1">
    <path
       style="fill:#d32f2f;stroke-width:0.816999;stroke-linecap:round;stroke-linejoin:round"
       id="path1"
       sodipodi:type="arc"
       sodipodi:cx="50.270832"
       sodipodi:cy="111.125"
       sodipodi:rx="2.6458333"
       sodipodi:ry="2.6458333"
       sodipodi:start="2.4995541"
       sodipodi:end="2.4695982"
       sodipodi:open="true"
       sodipodi:arc-type="arc"
       d="m 48.151846,112.7094 a 2.6458333,2.6458333 0 0 1 0.518759,-3.69146 2.6458333,2.6458333 0 0 1 3.695245,0.4911 2.6458333,2.6458333 0 0 1 -0.463412,3.69882 2.6458333,2.6458333 0 0 1 -3.702186,-0.4357" />
    <path
       style="fill:#03a9f4;stroke-width:0.816999;stroke-linecap:round;stroke-linejoin:round"
       id="path2"
       sodipodi:type="arc"
       sodipodi:cx="134.9375"
       sodipodi:cy="111.125"
       sodipodi:rx="2.6458333"
       sodipodi:ry="2.6458333"
       sodipodi:start="2.4995541"
       sodipodi:end="2.4695982"
       sodipodi:open="true"
       sodipodi:arc-type="arc"
       d="m 132.81851,112.7094 a 2.6458333,2.6458333 0 0 1 0.51876,-3.69146 2.6458333,2.6458333 0 0 1 3.69525,0.4911 2.6458333,2.6458333 0 0 1 -0.46341,3.69882 2.6458333,2.6458333 0 0 1 -3.70219,-0.4357" />
    <path
       style="fill:#03a9f4;stroke-width:0.816999;stroke-linecap:round;stroke-linejoin:round;stroke:#ffa500"
       d="M 95.249996,63.500002 V 164.04167"
       id="path3" />
    <path
       style="fill:none;stroke:#8e44ad;stroke-width:0.816999;stroke-linecap:round;stroke-linejoin:round"
       d="m 52.916663,111.125 c -15.874997,-52.916665 100.541667,-52.916665 79.374997,0"
       id="path4"
       sodipodi:nodetypes="cc" />
    <path
       style="fill:none;stroke:#8e44ad;stroke-width:0.816999;stroke-linecap:round;stroke-linejoin:round"
       d="m 52.916663,111.125 c -10.583331,-31.749997 95.249997,-31.749997 79.374997,0"
       id="path5"
       sodipodi:nodetypes="cc" />
    <path
       style="fill:none;stroke:#8e44ad;stroke-width:0.816999;stroke-linecap:round;stroke-linejoin:round"
       d="M 52.916663,111.125 H 132.29166"
       id="path6" />
    <path
       style="fill:none;stroke:#8e44ad;stroke-width:0.816999;stroke-linecap:round;stroke-linejoin:round"
       d="M 132.29166,111.125 C 158.75,107.59723 174.625,97.013893 179.91666,79.375002"
       id="path7"
       sodipodi:nodetypes="cc" />
    <path
       style="fill:none;stroke:#8e44ad;stroke-width:0.816999;stroke-linecap:round;stroke-linejoin:round"
       d="M 52.916663,111.125 C 24.694438,107.59723 10.583335,97.01389 10.583333,79.375002"
       id="path8"
       sodipodi:nodetypes="cc" />
    <path
       style="fill:none;stroke:#8e44ad;stroke-width:0.816999;stroke-linecap:round;stroke-linejoin:round"
       d="m 53.416601,111.41283 c -15.874997,52.91667 100.541659,52.91667 79.374989,0"
       id="path4-8"
       sodipodi:nodetypes="cc" />
    <path
       style="fill:none;stroke:#8e44ad;stroke-width:0.816999;stroke-linecap:round;stroke-linejoin:round"
       d="m 53.416601,111.41283 c -10.583331,31.75 95.249989,31.75 79.374989,0"
       id="path5-7"
       sodipodi:nodetypes="cc" />
    <path
       style="fill:none;stroke:#8e44ad;stroke-width:0.816999;stroke-linecap:round;stroke-linejoin:round"
       d="m 132.79159,111.41283 c 26.45834,3.52777 42.33334,14.11111 47.625,31.75"
       id="path7-9"
       sodipodi:nodetypes="cc" />
    <path
       style="fill:none;stroke:#8e44ad;stroke-width:0.816999;stroke-linecap:round;stroke-linejoin:round"
       d="m 53.416601,111.41283 c -28.222225,3.52777 -42.333328,14.11111 -42.33333,31.75"
       id="path8-2"
       sodipodi:nodetypes="cc" />
    <path
       style="fill:none;stroke:#8e44ad;stroke-width:0.816999;stroke-linecap:round;stroke-linejoin:round"
       d="m 21.166666,105.83333 v -5.29166 h 5.291666"
       id="path9" />
    <path
       style="fill:none;stroke:#8e44ad;stroke-width:0.816999;stroke-linecap:round;stroke-linejoin:round"
       d="m 21.166666,116.94584 v 5.29166 h 5.291666"
       id="path10" />
    <path
       style="fill:none;stroke:#8e44ad;stroke-width:0.816999;stroke-linecap:round;stroke-linejoin:round"
       d="m 125.41255,93.525797 -1.19505,-5.15496"
       id="path11" />
    <path
       style="fill:none;stroke:#8e44ad;stroke-width:0.816999;stroke-linecap:round;stroke-linejoin:round"
       d="m 120.2576,94.720838 5.15495,-1.195041"
       id="path12" />
    <path
       style="fill:none;stroke:#8e44ad;stroke-width:0.816999;stroke-linecap:round;stroke-linejoin:round"
       d="m 111.125,127.52917 5.29166,5.29167 -5.29166,5.29167"
       id="path13" />
  </g>
</svg>
