<?xml version="1.0" encoding="UTF-8" standalone="no"?>
<!-- Created with Inkscape (http://www.inkscape.org/) -->

<svg
   width="80.669693mm"
   height="43.928047mm"
   viewBox="0 0 80.669693 43.928047"
   version="1.1"
   id="svg1"
   inkscape:version="1.4 (1:1.4+202410161351+e7c3feb100)"
   sodipodi:docname="fig1.svg"
   inkscape:export-filename="fig1.pdf"
   inkscape:export-xdpi="96"
   inkscape:export-ydpi="96"
   xmlns:inkscape="http://www.inkscape.org/namespaces/inkscape"
   xmlns:sodipodi="http://sodipodi.sourceforge.net/DTD/sodipodi-0.dtd"
   xmlns="http://www.w3.org/2000/svg"
   xmlns:svg="http://www.w3.org/2000/svg">
  <sodipodi:namedview
     id="namedview1"
     pagecolor="#ffffff"
     bordercolor="#000000"
     borderopacity="0.25"
     inkscape:showpageshadow="2"
     inkscape:pageopacity="0.0"
     inkscape:pagecheckerboard="0"
     inkscape:deskcolor="#d1d1d1"
     inkscape:document-units="mm"
     inkscape:zoom="1.4235831"
     inkscape:cx="158.0519"
     inkscape:cy="79.728401"
     inkscape:window-width="1920"
     inkscape:window-height="1008"
     inkscape:window-x="0"
     inkscape:window-y="0"
     inkscape:window-maximized="1"
     inkscape:current-layer="layer1" />
  <defs
     id="defs1">
    <clipPath
       clipPathUnits="userSpaceOnUse"
       id="clipPath83">
      <path
         d="M -2,681 H 482 V -1 H -2 Z"
         transform="translate(-207.44901,-322.29)"
         id="path83" />
    </clipPath>
    <clipPath
       clipPathUnits="userSpaceOnUse"
       id="clipPath85">
      <path
         d="M -2,681 H 482 V -1 H -2 Z"
         transform="translate(-188.64,-297.187)"
         id="path85" />
    </clipPath>
    <clipPath
       clipPathUnits="userSpaceOnUse"
       id="clipPath87">
      <path
         d="M -2,681 H 482 V -1 H -2 Z"
         transform="translate(-188.66499,-322.26802)"
         id="path87" />
    </clipPath>
    <clipPath
       clipPathUnits="userSpaceOnUse"
       id="clipPath89">
      <path
         d="M -2,681 H 482 V -1 H -2 Z"
         transform="translate(-209.79301,-267.58701)"
         id="path89" />
    </clipPath>
    <clipPath
       clipPathUnits="userSpaceOnUse"
       id="clipPath91">
      <path
         d="M -2,681 H 482 V -1 H -2 Z"
         transform="translate(-188.64,-375.29)"
         id="path91" />
    </clipPath>
    <clipPath
       clipPathUnits="userSpaceOnUse"
       id="clipPath93">
      <path
         d="M -2,681 H 482 V -1 H -2 Z"
         transform="translate(-243.64,-322.267)"
         id="path93" />
    </clipPath>
    <clipPath
       clipPathUnits="userSpaceOnUse"
       id="clipPath95">
      <path
         d="M -2,681 H 482 V -1 H -2 Z"
         transform="translate(-188.64,-322.29)"
         id="path95" />
    </clipPath>
    <clipPath
       clipPathUnits="userSpaceOnUse"
       id="clipPath97">
      <path
         d="M -2,681 H 482 V -1 H -2 Z"
         transform="translate(-138.472,-366.26801)"
         id="path97" />
    </clipPath>
    <clipPath
       clipPathUnits="userSpaceOnUse"
       id="clipPath99">
      <path
         d="M -2,681 H 482 V -1 H -2 Z"
         transform="translate(-181.392,-325.86301)"
         id="path99" />
    </clipPath>
    <clipPath
       clipPathUnits="userSpaceOnUse"
       id="clipPath101">
      <path
         d="M -2,681 H 482 V -1 H -2 Z"
         transform="translate(-188.46401,-292.91801)"
         id="path101" />
    </clipPath>
    <clipPath
       clipPathUnits="userSpaceOnUse"
       id="clipPath108">
      <path
         d="M -2,681 H 482 V -1 H -2 Z"
         transform="translate(-321.111,-322.29)"
         id="path108" />
    </clipPath>
    <clipPath
       clipPathUnits="userSpaceOnUse"
       id="clipPath110">
      <path
         d="M -2,681 H 482 V -1 H -2 Z"
         transform="translate(-305.81,-297.187)"
         id="path110" />
    </clipPath>
    <clipPath
       clipPathUnits="userSpaceOnUse"
       id="clipPath112">
      <path
         d="M -2,681 H 482 V -1 H -2 Z"
         transform="translate(-305.93201,-322.29202)"
         id="path112" />
    </clipPath>
    <clipPath
       clipPathUnits="userSpaceOnUse"
       id="clipPath114">
      <path
         d="M -2,681 H 482 V -1 H -2 Z"
         transform="translate(-339.85001,-274.47901)"
         id="path114" />
    </clipPath>
    <clipPath
       clipPathUnits="userSpaceOnUse"
       id="clipPath116">
      <path
         d="M -2,681 H 482 V -1 H -2 Z"
         transform="translate(-305.81,-375.29)"
         id="path116" />
    </clipPath>
    <clipPath
       clipPathUnits="userSpaceOnUse"
       id="clipPath118">
      <path
         d="M -2,681 H 482 V -1 H -2 Z"
         transform="translate(-360.81001,-322.267)"
         id="path118" />
    </clipPath>
    <clipPath
       clipPathUnits="userSpaceOnUse"
       id="clipPath120">
      <path
         d="M -2,681 H 482 V -1 H -2 Z"
         transform="translate(-305.676,-322.30601)"
         id="path120" />
    </clipPath>
    <clipPath
       clipPathUnits="userSpaceOnUse"
       id="clipPath122">
      <path
         d="M -2,681 H 482 V -1 H -2 Z"
         transform="translate(-284.47301,-385.56001)"
         id="path122" />
    </clipPath>
    <clipPath
       clipPathUnits="userSpaceOnUse"
       id="clipPath124">
      <path
         d="M -2,681 H 482 V -1 H -2 Z"
         transform="translate(-301.21202,-329.04202)"
         id="path124" />
    </clipPath>
    <clipPath
       clipPathUnits="userSpaceOnUse"
       id="clipPath126">
      <path
         d="M -2,681 H 482 V -1 H -2 Z"
         transform="translate(-305.642,-354.146)"
         id="path126" />
    </clipPath>
    <clipPath
       clipPathUnits="userSpaceOnUse"
       id="clipPath133">
      <path
         d="M -2,681 H 482 V -1 H -2 Z"
         transform="translate(-305.676,-290.678)"
         id="path133" />
    </clipPath>
    <clipPath
       clipPathUnits="userSpaceOnUse"
       id="clipPath135">
      <path
         d="M -2,681 H 482 V -1 H -2 Z"
         transform="matrix(1,0,0,-1,-298.975,314.12351)"
         id="path135" />
    </clipPath>
    <clipPath
       clipPathUnits="userSpaceOnUse"
       id="clipPath137">
      <path
         d="M -2,681 H 482 V -1 H -2 Z"
         transform="translate(-190.64001,-322.29)"
         id="path137" />
    </clipPath>
    <clipPath
       clipPathUnits="userSpaceOnUse"
       id="clipPath139">
      <path
         d="M -2,681 H 482 V -1 H -2 Z"
         transform="translate(-307.676,-322.30601)"
         id="path139" />
    </clipPath>
  </defs>
  <g
     inkscape:label="Calque 1"
     inkscape:groupmode="layer"
     id="layer1"
     transform="translate(-85.06806,-105.65145)">
    <path
       id="path82"
       d="M 0,0 V -44.584"
       style="fill:none;stroke:#000000;stroke-width:0.3;stroke-linecap:butt;stroke-linejoin:miter;stroke-miterlimit:4;stroke-dasharray:2, 1.5;stroke-dashoffset:0;stroke-opacity:1"
       transform="matrix(0.35277776,0,0,-0.35277776,111.6354,128.03889)"
       clip-path="url(#clipPath83)" />
    <path
       id="path84"
       d="M 0,0 C 13.863,0 25.103,11.24 25.103,25.103 25.103,38.966 13.863,50.205 0,50.205 -13.863,50.205 -25.102,38.966 -25.102,25.103 -25.102,11.24 -13.863,0 0,0 Z m 0,-23.334 c 26.75,0 48.437,21.686 48.437,48.437 0,26.75 -21.687,48.437 -48.437,48.437 -26.751,0 -48.437,-21.687 -48.437,-48.437 0,-26.751 21.686,-48.437 48.437,-48.437 z"
       style="fill:none;stroke:#000000;stroke-width:0.5;stroke-linecap:butt;stroke-linejoin:miter;stroke-miterlimit:4;stroke-dasharray:none;stroke-opacity:1"
       transform="matrix(0.35277776,0,0,-0.35277776,105,136.89467)"
       clip-path="url(#clipPath85)" />
    <path
       id="path86"
       d="M 0,0 23.589,-55.182"
       style="fill:#ff0000;stroke:#ff0000;stroke-width:1.2;stroke-linecap:butt;stroke-linejoin:miter;stroke-miterlimit:4;stroke-dasharray:none;stroke-opacity:1"
       transform="matrix(0.35277776,0,0,-0.35277776,105.00882,128.04665)"
       clip-path="url(#clipPath87)" />
    <path
       id="path88"
       d="m 0,0 4.99,-6.357 -1.144,8 L 0,0"
       style="fill:#ff0000;fill-opacity:1;fill-rule:nonzero;stroke:none"
       transform="matrix(0.35277776,0,0,-0.35277776,112.46231,147.33689)"
       clip-path="url(#clipPath89)" />
    <path
       id="path90"
       d="M 0,0 V -111"
       style="fill:none;stroke:#000000;stroke-width:1;stroke-linecap:round;stroke-linejoin:miter;stroke-miterlimit:4;stroke-dasharray:0, 2;stroke-dashoffset:0;stroke-opacity:1"
       transform="matrix(0.35277776,0,0,-0.35277776,105,109.34167)"
       clip-path="url(#clipPath91)" />
    <path
       id="path92"
       d="M 0,0 H -111.5"
       style="fill:none;stroke:#000000;stroke-width:1;stroke-linecap:butt;stroke-linejoin:miter;stroke-miterlimit:4;stroke-dasharray:none;stroke-opacity:1"
       transform="matrix(0.35277776,0,0,-0.35277776,124.40278,128.047)"
       clip-path="url(#clipPath93)" />
    <path
       id="path94"
       d="M 0,0 18.809,-16.487"
       style="fill:#ddff55;stroke:#ff7f2a;stroke-width:0.3;stroke-linecap:butt;stroke-linejoin:miter;stroke-miterlimit:4;stroke-dasharray:2, 1.5;stroke-dashoffset:0;stroke-opacity:1"
       transform="matrix(0.35277776,0,0,-0.35277776,105,128.03889)"
       clip-path="url(#clipPath95)" />
    <path
       id="path96"
       d="M 0,0 45.357,-39.793"
       style="fill:#ff0000;stroke:#ff0000;stroke-width:1.2;stroke-linecap:butt;stroke-linejoin:miter;stroke-miterlimit:4;stroke-dasharray:none;stroke-opacity:1"
       transform="matrix(0.35277776,0,0,-0.35277776,87.301844,112.52443)"
       clip-path="url(#clipPath97)" />
    <path
       id="path98"
       d="M 0,0 7.248,-3.573 2.757,3.145 0,0"
       style="fill:#ff0000;fill-opacity:1;fill-rule:nonzero;stroke:none"
       transform="matrix(0.35277776,0,0,-0.35277776,102.44307,126.77841)"
       clip-path="url(#clipPath99)" />
    <path
       id="path100"
       d="M 0,0 C 3.898,-0.2 7.651,0.722 10.9,2.513 M -0.058,43.846 C -3.915,43.25 -7.402,41.584 -10.219,39.17"
       style="fill:none;stroke:#000000;stroke-width:0.3;stroke-linecap:butt;stroke-linejoin:miter;stroke-miterlimit:4;stroke-dasharray:none;stroke-opacity:1"
       transform="matrix(0.35277776,0,0,-0.35277776,104.93791,138.40068)"
       clip-path="url(#clipPath101)" />
    <path
       id="path102"
       d="m 90.554247,111.65296 c -0.115755,0.14883 -0.194303,0.25218 -0.260449,0.25218 -0.0041,0 -0.04961,-0.008 -0.04961,-0.0537 0,-0.0951 0.252181,-0.88057 0.252181,-1.01699 0,-0.13229 -0.07028,-0.21084 -0.219108,-0.21084 -0.260449,0 -0.553972,0.44235 -0.7028,0.67799 l -0.0083,-0.008 0.206706,-0.66146 -0.0124,-0.008 c -0.169499,0.0372 -0.343132,0.0661 -0.512631,0.0992 v 0.0496 c 0.169499,0 0.202572,0.0372 0.202572,0.0827 0,0.0703 -0.21084,0.81029 -0.310059,1.16995 h 0.235645 c 0.132292,-0.42994 0.173633,-0.56637 0.318327,-0.78548 0.115755,-0.17777 0.314192,-0.45475 0.467155,-0.45475 0.06201,0 0.07855,0.0455 0.07855,0.10335 0,0.12816 -0.235645,0.90124 -0.235645,0.97979 0,0.0909 0.0083,0.18603 0.152963,0.18603 0.173632,0 0.285253,-0.14469 0.44235,-0.35967 z m 0.615984,-0.96325 c 0.128157,-0.28112 0.276985,-0.62838 0.276985,-0.68212 0,-0.0537 -0.03307,-0.0951 -0.103353,-0.0951 -0.06615,0 -0.148828,0.0496 -0.169498,0.12816 -0.02894,0.10335 -0.05788,0.47129 -0.07441,0.64905 z m 0,0"
       style="fill:#000000;fill-opacity:1;fill-rule:nonzero;stroke:none;stroke-width:0.352778" />
    <path
       id="path103"
       d="m 92.247167,111.83486 v 0.21498 l 1.612305,-0.72761 v -0.19843 l -1.612305,-0.73174 v 0.21497 l 1.347722,0.61599 z m 0,0"
       style="fill:#000000;fill-opacity:1;fill-rule:nonzero;stroke:none;stroke-width:0.352778" />
    <path
       id="path104"
       d="m 96.199381,111.65296 c -0.115756,0.14883 -0.194304,0.25218 -0.26045,0.25218 -0.0041,0 -0.04961,-0.008 -0.04961,-0.0537 0,-0.0951 0.252181,-0.88057 0.252181,-1.01699 0,-0.13229 -0.07028,-0.21084 -0.219108,-0.21084 -0.260449,0 -0.553971,0.44235 -0.702799,0.67799 l -0.0083,-0.008 0.206705,-0.66146 -0.0124,-0.008 c -0.169499,0.0372 -0.343132,0.0661 -0.51263,0.0992 v 0.0496 c 0.169498,0 0.202571,0.0372 0.202571,0.0827 0,0.0703 -0.210839,0.81029 -0.310058,1.16995 h 0.235644 c 0.132292,-0.42994 0.173633,-0.56637 0.318327,-0.78548 0.115755,-0.17776 0.314193,-0.45475 0.467155,-0.45475 0.06201,0 0.07855,0.0455 0.07855,0.10335 0,0.12816 -0.235644,0.90124 -0.235644,0.97979 0,0.0909 0.0083,0.18603 0.152962,0.18603 0.173633,0 0.285254,-0.14469 0.44235,-0.35967 z m 11.038089,28.44891 c 0.12815,-0.42168 0.17363,-0.56637 0.29352,-0.79375 0.0248,-0.0496 0.21911,-0.40101 0.31419,-0.40101 0.0786,0 0.0289,0.11576 0.16537,0.11576 0.0372,0 0.14882,0 0.14882,-0.16537 0,-0.10748 -0.0785,-0.15709 -0.14882,-0.15709 -0.20258,0 -0.44235,0.37207 -0.54984,0.58291 l -0.0248,0.062 -0.004,-0.004 0.15296,-0.63252 -0.008,-0.008 c -0.14056,0.0248 -0.33073,0.0661 -0.49196,0.0868 v 0.0537 c 0.0372,-0.004 0.0703,-0.0165 0.10336,-0.0165 0.0992,0 0.11575,0.0537 0.11575,0.0951 0,0.0289 -0.0207,0.13643 -0.0496,0.25632 l -0.25631,0.92604 z m -4.67879,-17.13797 c -0.12816,0.18604 -0.21911,0.24805 -0.25631,0.24805 -0.0289,0 -0.0537,-0.0248 -0.0537,-0.0455 0,-0.0372 0.0372,-0.16536 0.0537,-0.21084 l 0.27698,-1.02112 -0.008,-0.008 c -0.12402,0.0248 -0.3886,0.0744 -0.50849,0.0827 v 0.0496 c 0.17363,0 0.19843,0.0165 0.19843,0.0827 0,0.0868 -0.24804,0.87643 -0.24804,1.02526 0,0.0579 0,0.1943 0.14883,0.1943 0.17776,0 0.31832,-0.17363 0.43821,-0.35966 z m 0.13643,-1.53789 c 0,-0.0703 -0.0537,-0.17363 -0.16123,-0.17363 -0.0744,0 -0.14883,0.0579 -0.14883,0.1695 0,0.11162 0.0744,0.16536 0.15296,0.16536 0.10335,0 0.1571,-0.0992 0.1571,-0.16123 z m 9.95288,4.65191 0.11575,-0.63252 h -0.0661 c -0.0165,0.0331 -0.0331,0.0703 -0.12816,0.0703 -0.0703,0 -0.26458,-0.0744 -0.49609,-0.0744 -0.72347,0 -1.28571,0.69866 -1.28571,1.31051 0,0.63666 0.46302,0.8599 0.83095,0.8599 0.46302,0 0.74414,-0.33487 0.86403,-0.47543 l -0.0537,-0.0413 c -0.15296,0.14883 -0.3762,0.37207 -0.73587,0.37207 -0.37621,0 -0.54984,-0.26045 -0.54984,-0.67799 0,-0.46716 0.32246,-1.2361 0.95912,-1.2361 0.45061,0 0.47955,0.42581 0.48782,0.51676 z m 1.32291,9.05578 c -0.1819,-0.0165 -0.20257,-0.0537 -0.23977,-0.27285 l -0.29766,-1.79834 h -0.0827 l -0.92191,1.5875 c -0.26045,0.44235 -0.28939,0.45475 -0.40928,0.48369 v 0.0496 h 0.59118 v -0.0496 c -0.14469,-0.0124 -0.18603,-0.0289 -0.18603,-0.11162 0,-0.0703 0.0207,-0.11162 0.062,-0.19844 l 0.1819,-0.35967 h 0.69866 l 0.0661,0.41755 c 0.004,0.0455 0.004,0.0909 0.004,0.0909 0,0.12816 -0.0827,0.14883 -0.24804,0.16123 v 0.0496 h 0.78135 z m -1.2361,-0.78135 0.47543,-0.82269 h 0.004 l 0.13643,0.82269 z m -2.82049,12.47366 h 0.89296 c 0.40928,0 0.84336,-0.19844 0.84336,-0.63252 0,-0.31006 -0.22324,-0.40514 -0.39274,-0.47956 v -0.004 c 0.30179,-0.062 0.54984,-0.19844 0.54984,-0.48369 0,-0.36381 -0.30592,-0.47543 -0.63665,-0.47543 h -0.81856 v 0.0538 c 0.14883,0.008 0.24391,0.0165 0.24391,0.13642 0,0.0537 -0.0165,0.12402 -0.0331,0.1943 l -0.39274,1.4056 c -0.0537,0.19431 -0.10335,0.20671 -0.25631,0.23565 z m 0.56637,-0.23978 c 0,-0.0579 0.16536,-0.60772 0.21497,-0.81029 0.21498,0.004 0.35967,0.004 0.44235,0.0579 0.0951,0.0579 0.1695,0.1695 0.1695,0.33073 0,0.31419 -0.1819,0.56637 -0.62838,0.56637 -0.0909,0 -0.19844,-0.0207 -0.19844,-0.14469 z m 0.45062,-1.64951 c 0.0124,-0.0455 0.0248,-0.0868 0.19843,-0.0868 0.23978,0 0.35554,0.11162 0.35554,0.3266 0,0.49609 -0.45475,0.50849 -0.76068,0.49609 z M 86.842846,131.98867 c -0.115755,0.14883 -0.194303,0.25218 -0.260449,0.25218 -0.0041,0 -0.04961,-0.008 -0.04961,-0.0537 0,-0.0951 0.252181,-0.88057 0.252181,-1.01699 0,-0.13229 -0.07028,-0.21084 -0.219108,-0.21084 -0.26045,0 -0.553972,0.44235 -0.7028,0.67799 l -0.0083,-0.008 0.206706,-0.66146 -0.0124,-0.008 c -0.169499,0.0372 -0.343132,0.0661 -0.512631,0.0992 v 0.0496 c 0.169499,0 0.202572,0.0372 0.202572,0.0827 0,0.0703 -0.21084,0.81028 -0.310058,1.16995 h 0.235644 c 0.132292,-0.42995 0.173633,-0.56637 0.318327,-0.78548 0.115755,-0.17777 0.314192,-0.45475 0.467155,-0.45475 0.06201,0 0.07855,0.0455 0.07855,0.10335 0,0.12816 -0.235645,0.90124 -0.235645,0.97978 0,0.0909 0.0083,0.18604 0.152963,0.18604 0.173632,0 0.285253,-0.14469 0.44235,-0.35967 z m 0.361735,-0.96325 c 0.128158,-0.28112 0.276986,-0.62838 0.276986,-0.68213 0,-0.0537 -0.03307,-0.0951 -0.103353,-0.0951 -0.06615,0 -0.148828,0.0496 -0.169499,0.12816 -0.02894,0.10335 -0.05788,0.47129 -0.07441,0.64905 z m 8.582422,0.96325 c -0.115755,0.14883 -0.194304,0.25218 -0.260449,0.25218 -0.0041,0 -0.04961,-0.008 -0.04961,-0.0537 0,-0.0951 0.252181,-0.88057 0.252181,-1.01699 0,-0.13229 -0.07028,-0.21084 -0.219108,-0.21084 -0.260449,0 -0.553971,0.44235 -0.702799,0.67799 l -0.0083,-0.008 0.206706,-0.66146 -0.0124,-0.008 c -0.169498,0.0372 -0.343131,0.0661 -0.51263,0.0992 v 0.0496 c 0.169499,0 0.202572,0.0372 0.202572,0.0827 0,0.0703 -0.21084,0.81028 -0.310059,1.16995 h 0.235645 c 0.132291,-0.42995 0.173633,-0.56637 0.318326,-0.78548 0.115756,-0.17777 0.314193,-0.45475 0.467155,-0.45475 0.06201,0 0.07855,0.0455 0.07855,0.10335 0,0.12816 -0.235645,0.90124 -0.235645,0.97978 0,0.0909 0.0083,0.18604 0.152962,0.18604 0.173633,0 0.285254,-0.14469 0.44235,-0.35967 z m 0,0"
       style="fill:#000000;fill-opacity:1;fill-rule:nonzero;stroke:none;stroke-width:0.352778" />
    <path
       id="path107"
       d="M 0,0 V -44.584"
       style="fill:none;stroke:#000000;stroke-width:0.3;stroke-linecap:butt;stroke-linejoin:miter;stroke-miterlimit:4;stroke-dasharray:2, 1.5;stroke-dashoffset:0;stroke-opacity:1"
       transform="matrix(0.35277776,0,0,-0.35277776,151.73282,128.03889)"
       clip-path="url(#clipPath108)" />
    <path
       id="path109"
       d="M 0,0 C 13.864,0 25.103,11.24 25.103,25.103 25.103,38.966 13.864,50.205 0,50.205 -13.863,50.205 -25.102,38.966 -25.102,25.103 -25.102,11.24 -13.863,0 0,0 Z m 0,-23.334 c 26.751,0 48.437,21.686 48.437,48.437 0,26.75 -21.686,48.437 -48.437,48.437 -26.75,0 -48.436,-21.687 -48.436,-48.437 0,-26.751 21.686,-48.437 48.436,-48.437 z"
       style="fill:none;stroke:#000000;stroke-width:0.5;stroke-linecap:butt;stroke-linejoin:miter;stroke-miterlimit:4;stroke-dasharray:none;stroke-opacity:1"
       transform="matrix(0.35277776,0,0,-0.35277776,146.33497,136.89467)"
       clip-path="url(#clipPath110)" />
    <path
       id="path111"
       d="M 0,0 36.426,-47.693"
       style="fill:none;stroke:#ff0000;stroke-width:1.2;stroke-linecap:butt;stroke-linejoin:miter;stroke-miterlimit:4;stroke-dasharray:none;stroke-opacity:1"
       transform="matrix(0.35277776,0,0,-0.35277776,146.37801,128.03818)"
       clip-path="url(#clipPath112)" />
    <path
       id="path113"
       d="M 0,0 6.398,-4.935 3.324,2.538 0,0"
       style="fill:#ff0000;fill-opacity:1;fill-rule:nonzero;stroke:none"
       transform="matrix(0.35277776,0,0,-0.35277776,158.34353,144.90554)"
       clip-path="url(#clipPath114)" />
    <path
       id="path115"
       d="M 0,0 V -111"
       style="fill:none;stroke:#000000;stroke-width:1;stroke-linecap:round;stroke-linejoin:miter;stroke-miterlimit:4;stroke-dasharray:0, 2;stroke-dashoffset:0;stroke-opacity:1"
       transform="matrix(0.35277776,0,0,-0.35277776,146.33497,109.34167)"
       clip-path="url(#clipPath116)" />
    <path
       id="path117"
       d="M 0,0 H -111.5"
       style="fill:none;stroke:#000000;stroke-width:1;stroke-linecap:butt;stroke-linejoin:miter;stroke-miterlimit:4;stroke-dasharray:none;stroke-opacity:1"
       transform="matrix(0.35277776,0,0,-0.35277776,165.73775,128.047)"
       clip-path="url(#clipPath118)" />
    <path
       id="path119"
       d="M 0,0 15.412,-45.975"
       style="fill:none;stroke:#ff6600;stroke-width:0.3;stroke-linecap:butt;stroke-linejoin:miter;stroke-miterlimit:4;stroke-dasharray:2, 1.5;stroke-dashoffset:0;stroke-opacity:1"
       transform="matrix(0.35277776,0,0,-0.35277776,146.2877,128.03324)"
       clip-path="url(#clipPath120)" />
    <path
       id="path121"
       d="M 0,0 19.153,-57.216"
       style="fill:none;stroke:#ff0000;stroke-width:1.2;stroke-linecap:butt;stroke-linejoin:miter;stroke-miterlimit:4;stroke-dasharray:none;stroke-opacity:1"
       transform="matrix(0.35277776,0,0,-0.35277776,138.80775,105.71864)"
       clip-path="url(#clipPath122)" />
    <path
       id="path123"
       d="M 0,0 4.464,-6.736 3.966,1.329 0,0"
       style="fill:#ff0000;fill-opacity:1;fill-rule:nonzero;stroke:none"
       transform="matrix(0.35277776,0,0,-0.35277776,144.7129,125.65693)"
       clip-path="url(#clipPath124)" />
    <path
       id="path125"
       d="M 0,0 C -3.264,0.001 -6.414,-0.783 -9.222,-2.205"
       style="fill:none;stroke:#000000;stroke-width:0.3;stroke-linecap:butt;stroke-linejoin:miter;stroke-miterlimit:4;stroke-dasharray:none;stroke-opacity:1"
       transform="matrix(0.35277776,0,0,-0.35277776,146.2757,116.8008)"
       clip-path="url(#clipPath126)" />
    <path
       id="path127"
       d="m 131.89022,111.65296 c -0.11576,0.14883 -0.1943,0.25218 -0.26045,0.25218 -0.004,0 -0.0496,-0.008 -0.0496,-0.0537 0,-0.0951 0.25218,-0.88057 0.25218,-1.01699 0,-0.13229 -0.0703,-0.21084 -0.21911,-0.21084 -0.26045,0 -0.55397,0.44235 -0.7028,0.67799 l -0.008,-0.008 0.2067,-0.66146 -0.0124,-0.008 c -0.1695,0.0372 -0.34313,0.0661 -0.51263,0.0992 v 0.0496 c 0.1695,0 0.20257,0.0372 0.20257,0.0827 0,0.0703 -0.21084,0.81029 -0.31006,1.16995 h 0.23565 c 0.13229,-0.42994 0.17363,-0.56637 0.31832,-0.78548 0.11576,-0.17777 0.3142,-0.45475 0.46716,-0.45475 0.062,0 0.0786,0.0455 0.0786,0.10335 0,0.12816 -0.23565,0.90124 -0.23565,0.97979 0,0.0909 0.008,0.18603 0.15296,0.18603 0.17364,0 0.28526,-0.14469 0.44235,-0.35967 z m 0.61598,-0.96325 c 0.12816,-0.28112 0.27699,-0.62838 0.27699,-0.68212 0,-0.0537 -0.0331,-0.0951 -0.10336,-0.0951 -0.0661,0 -0.14882,0.0496 -0.16949,0.12816 -0.0289,0.10335 -0.0579,0.47129 -0.0744,0.64905 z m 0,0"
       style="fill:#000000;fill-opacity:1;fill-rule:nonzero;stroke:none;stroke-width:0.352778" />
    <path
       id="path128"
       d="m 135.19441,111.83486 -1.35186,-0.61184 1.35186,-0.61599 v -0.21497 l -1.6123,0.73174 v 0.19843 l 1.6123,0.72761 z m 0,0"
       style="fill:#000000;fill-opacity:1;fill-rule:nonzero;stroke:none;stroke-width:0.352778" />
    <path
       id="path129"
       d="m 137.53535,111.65296 c -0.11575,0.14883 -0.1943,0.25218 -0.26045,0.25218 -0.004,0 -0.0496,-0.008 -0.0496,-0.0537 0,-0.0951 0.25218,-0.88057 0.25218,-1.01699 0,-0.13229 -0.0703,-0.21084 -0.2191,-0.21084 -0.26045,0 -0.55397,0.44235 -0.7028,0.67799 l -0.008,-0.008 0.2067,-0.66146 -0.0124,-0.008 c -0.1695,0.0372 -0.34313,0.0661 -0.51263,0.0992 v 0.0496 c 0.1695,0 0.20257,0.0372 0.20257,0.0827 0,0.0703 -0.21084,0.81029 -0.31006,1.16995 h 0.23565 c 0.13229,-0.42994 0.17363,-0.56637 0.31832,-0.78548 0.11576,-0.17776 0.3142,-0.45475 0.46716,-0.45475 0.062,0 0.0786,0.0455 0.0786,0.10335 0,0.12816 -0.23565,0.90124 -0.23565,0.97979 0,0.0909 0.008,0.18603 0.15296,0.18603 0.17364,0 0.28526,-0.14469 0.44235,-0.35967 z m 11.31714,29.10934 c 0.12816,-0.42168 0.17363,-0.56638 0.29352,-0.79375 0.0248,-0.0496 0.21911,-0.40101 0.31419,-0.40101 0.0786,0 0.0289,0.11575 0.16537,0.11575 0.0372,0 0.14883,0 0.14883,-0.16536 0,-0.10749 -0.0786,-0.1571 -0.14883,-0.1571 -0.20257,0 -0.44235,0.37207 -0.54984,0.58291 l -0.0248,0.062 -0.004,-0.004 0.15297,-0.63252 -0.008,-0.008 c -0.14056,0.0248 -0.33073,0.0661 -0.49196,0.0868 v 0.0537 c 0.0372,-0.004 0.0703,-0.0165 0.10335,-0.0165 0.0992,0 0.11576,0.0538 0.11576,0.0951 0,0.0289 -0.0207,0.13643 -0.0496,0.25631 l -0.25632,0.92605 z m -4.7842,-24.40575 c -0.12816,0.18604 -0.21911,0.24805 -0.25632,0.24805 -0.0289,0 -0.0537,-0.0248 -0.0537,-0.0455 0,-0.0372 0.0372,-0.16536 0.0537,-0.21084 l 0.27699,-1.02112 -0.008,-0.008 c -0.12403,0.0248 -0.38861,0.0744 -0.5085,0.0827 v 0.0496 c 0.17363,0 0.19844,0.0165 0.19844,0.0827 0,0.0868 -0.24805,0.87644 -0.24805,1.02526 0,0.0579 0,0.19431 0.14883,0.19431 0.17777,0 0.31833,-0.17364 0.43822,-0.35967 z m 0.13642,-1.53789 c 0,-0.0703 -0.0537,-0.17363 -0.16123,-0.17363 -0.0744,0 -0.14883,0.0579 -0.14883,0.1695 0,0.11162 0.0744,0.16536 0.15297,0.16536 0.10335,0 0.15709,-0.0992 0.15709,-0.16123 z m 8.52765,11.21482 0.11575,-0.63252 h -0.0661 c -0.0165,0.0331 -0.0331,0.0703 -0.12816,0.0703 -0.0703,0 -0.26458,-0.0744 -0.4961,-0.0744 -0.72347,0 -1.28571,0.69866 -1.28571,1.31051 0,0.63665 0.46303,0.8599 0.83096,0.8599 0.46302,0 0.74414,-0.33487 0.86403,-0.47543 l -0.0537,-0.0413 c -0.15296,0.14883 -0.37621,0.37207 -0.73587,0.37207 -0.37621,0 -0.54984,-0.26045 -0.54984,-0.67799 0,-0.46716 0.32246,-1.2361 0.95911,-1.2361 0.45062,0 0.47956,0.42581 0.48783,0.51676 z m -0.18811,20.8132 c -0.1819,-0.0165 -0.20257,-0.0537 -0.23977,-0.27285 l -0.29766,-1.79834 h -0.0827 l -0.92191,1.5875 c -0.26045,0.44235 -0.28939,0.45475 -0.40928,0.48369 v 0.0496 h 0.59118 v -0.0496 c -0.14469,-0.0124 -0.18603,-0.0289 -0.18603,-0.11162 0,-0.0703 0.0207,-0.11162 0.062,-0.19844 l 0.1819,-0.35967 h 0.69866 l 0.0661,0.41755 c 0.004,0.0455 0.004,0.0909 0.004,0.0909 0,0.12816 -0.0827,0.14883 -0.24804,0.16123 v 0.0496 h 0.78134 z m -1.2361,-0.78135 0.47543,-0.82269 h 0.004 l 0.13643,0.82269 z m 1.79524,-10.03143 h 0.89297 c 0.40928,0 0.84336,-0.19843 0.84336,-0.63252 0,-0.31006 -0.22324,-0.40514 -0.39274,-0.47955 v -0.004 c 0.30179,-0.062 0.54984,-0.19844 0.54984,-0.48369 0,-0.3638 -0.30593,-0.47542 -0.63666,-0.47542 h -0.81855 v 0.0537 c 0.14883,0.008 0.24391,0.0165 0.24391,0.13643 0,0.0537 -0.0165,0.12402 -0.0331,0.1943 l -0.39274,1.4056 c -0.0537,0.1943 -0.10335,0.2067 -0.25632,0.23564 z m 0.56638,-0.23978 c 0,-0.0579 0.16536,-0.60771 0.21497,-0.81028 0.21498,0.004 0.35967,0.004 0.44235,0.0579 0.0951,0.0579 0.1695,0.16949 0.1695,0.33072 0,0.3142 -0.1819,0.56638 -0.62839,0.56638 -0.0909,0 -0.19843,-0.0207 -0.19843,-0.1447 z m 0.45062,-1.64951 c 0.0124,-0.0455 0.0248,-0.0868 0.19843,-0.0868 0.23978,0 0.35554,0.11162 0.35554,0.32659 0,0.49609 -0.45476,0.5085 -0.76068,0.49609 z m -17.44287,-2.15594 c -0.11575,0.14883 -0.1943,0.25218 -0.26045,0.25218 -0.004,0 -0.0496,-0.008 -0.0496,-0.0537 0,-0.0951 0.25219,-0.88057 0.25219,-1.01699 0,-0.13229 -0.0703,-0.21084 -0.21911,-0.21084 -0.26045,0 -0.55397,0.44235 -0.7028,0.67799 l -0.008,-0.008 0.20671,-0.66146 -0.0124,-0.008 c -0.1695,0.0372 -0.34313,0.0661 -0.51263,0.0992 v 0.0496 c 0.1695,0 0.20257,0.0372 0.20257,0.0827 0,0.0703 -0.21084,0.81028 -0.31006,1.16995 h 0.23565 c 0.13229,-0.42995 0.17363,-0.56637 0.31833,-0.78548 0.11575,-0.17777 0.31419,-0.45475 0.46715,-0.45475 0.062,0 0.0785,0.0455 0.0785,0.10335 0,0.12816 -0.23565,0.90124 -0.23565,0.97978 0,0.0909 0.008,0.18604 0.15297,0.18604 0.17363,0 0.28525,-0.14469 0.44235,-0.35967 z m 0.36174,-0.96325 c 0.12816,-0.28112 0.27698,-0.62838 0.27698,-0.68213 0,-0.0537 -0.0331,-0.0951 -0.10335,-0.0951 -0.0661,0 -0.14883,0.0496 -0.1695,0.12816 -0.0289,0.10335 -0.0579,0.47129 -0.0744,0.64905 z m -8.08633,0.96325 c -0.11575,0.14883 -0.1943,0.25218 -0.26045,0.25218 -0.004,0 -0.0496,-0.008 -0.0496,-0.0537 0,-0.0951 0.25218,-0.88057 0.25218,-1.01699 0,-0.13229 -0.0703,-0.21084 -0.2191,-0.21084 -0.26045,0 -0.55398,0.44235 -0.7028,0.67799 l -0.008,-0.008 0.2067,-0.66146 -0.0124,-0.008 c -0.1695,0.0372 -0.34313,0.0661 -0.51263,0.0992 v 0.0496 c 0.1695,0 0.20257,0.0372 0.20257,0.0827 0,0.0703 -0.21084,0.81028 -0.31006,1.16995 h 0.23565 c 0.13229,-0.42995 0.17363,-0.56637 0.31833,-0.78548 0.11575,-0.17777 0.31419,-0.45475 0.46715,-0.45475 0.062,0 0.0786,0.0455 0.0786,0.10335 0,0.12816 -0.23565,0.90124 -0.23565,0.97978 0,0.0909 0.008,0.18604 0.15297,0.18604 0.17363,0 0.28525,-0.14469 0.44235,-0.35967 z m 0,0"
       style="fill:#000000;fill-opacity:1;fill-rule:nonzero;stroke:none;stroke-width:0.352778" />
    <path
       id="path132"
       d="M 0,0 C 7.065,0 13.647,2.071 19.171,5.64"
       style="fill:none;stroke:#000000;stroke-width:0.3;stroke-linecap:butt;stroke-linejoin:miter;stroke-miterlimit:4;stroke-dasharray:none;stroke-opacity:1"
       transform="matrix(0.35277776,0,0,-0.35277776,146.2877,139.1909)"
       clip-path="url(#clipPath133)" />
    <path
       id="path134"
       d="M -0.07070312,4.53125e-4 H 2.1207031 V -0.14017187 c -0.3867187,-0.046875 -0.609375,-0.0703125 -0.609375,-0.36328125 0,-0.2109375 0.046875,-0.3984375 0.09375,-0.57421878 l 1.1132813,-3.984375 C 2.8707031,-5.6362656 3.0113281,-5.6479844 3.4566406,-5.7300156 V -5.8823594 H 1.2300781 v 0.1523438 c 0.3867188,0.046875 0.6328125,0.070312 0.6328125,0.3867187 0,0.1640625 -0.046875,0.375 -0.09375,0.5507813 l -1.11328122,3.98437498 c -0.15234375,0.55078125 -0.29296875,0.5859375 -0.7265625,0.66796875 z M -116.5668,0.170375 h 2.19141 V 0.02975 c -0.38672,-0.046875 -0.60938,-0.0703125 -0.60938,-0.36328125 0,-0.2109375 0.0469,-0.3984375 0.0937,-0.57421875 l 1.11329,-3.984375 c 0.15234,-0.5742187 0.29296,-0.5859375 0.73828,-0.6679687 v -0.1523438 h -2.22657 v 0.1523438 c 0.38672,0.046875 0.63282,0.070312 0.63282,0.3867187 0,0.1640625 -0.0469,0.375 -0.0937,0.5507813 l -1.11328,3.98437495 c -0.15235,0.55078125 -0.29297,0.5859375 -0.72657,0.66796875 z m 0,0"
       style="fill:#000000;fill-opacity:1;fill-rule:nonzero;stroke:none"
       aria-label="I&#10;I"
       transform="matrix(0.35277776,0,0,0.35277776,143.92373,130.91985)"
       clip-path="url(#clipPath135)" />
    <path
       id="path136"
       d="m 0,0 c 0,-1.105 -0.895,-2 -2,-2 -1.105,0 -2,0.895 -2,2 0,1.104 0.895,2 2,2 1.105,0 2,-0.896 2,-2"
       style="fill:#000000;fill-opacity:1;fill-rule:nonzero;stroke:none"
       transform="matrix(0.35277776,0,0,-0.35277776,105.70556,128.03889)"
       clip-path="url(#clipPath137)" />
    <path
       id="path138"
       d="m 0,0 c 0,-1.104 -0.896,-2 -2,-2 -1.105,0 -2,0.896 -2,2 0,1.105 0.895,2 2,2 1.104,0 2,-0.895 2,-2"
       style="fill:#000000;fill-opacity:1;fill-rule:nonzero;stroke:none"
       transform="matrix(0.35277776,0,0,-0.35277776,146.99325,128.03324)"
       clip-path="url(#clipPath139)" />
    <text
       xml:space="preserve"
       style="font-size:5.10989px;font-family:arial;-inkscape-font-specification:arial;text-align:start;writing-mode:lr-tb;direction:ltr;text-anchor:start;fill:#000000;stroke:none;stroke-width:0.381322;stroke-linecap:round;stroke-linejoin:round"
       x="95.321571"
       y="136.4323"
       id="text1"><tspan
         sodipodi:role="line"
         id="tspan1"
         style="fill:#000000;stroke:none;stroke-width:0.381323"
         x="95.321571"
         y="136.4323">1</tspan></text>
    <text
       xml:space="preserve"
       style="font-size:5.10989px;font-family:arial;-inkscape-font-specification:arial;text-align:start;writing-mode:lr-tb;direction:ltr;text-anchor:start;fill:#000000;stroke:none;stroke-width:0.381322;stroke-linecap:round;stroke-linejoin:round"
       x="88.642197"
       y="141.76817"
       id="text1-1"><tspan
         sodipodi:role="line"
         id="tspan1-4"
         style="fill:#000000;stroke:none;stroke-width:0.381323"
         x="88.642197"
         y="141.76817">2</tspan></text>
    <text
       xml:space="preserve"
       style="font-size:5.10989px;font-family:arial;-inkscape-font-specification:arial;text-align:start;writing-mode:lr-tb;direction:ltr;text-anchor:start;fill:#ff6600;stroke:none;stroke-width:0.381322;stroke-linecap:round;stroke-linejoin:round"
       x="107.45365"
       y="129.60818"
       id="text1-6"><tspan
         sodipodi:role="line"
         id="tspan1-8"
         style="fill:#ff6600;stroke:none;stroke-width:0.381323"
         x="107.45365"
         y="129.60818">3</tspan></text>
    <text
       xml:space="preserve"
       style="font-size:5.10989px;font-family:arial;-inkscape-font-specification:arial;text-align:start;writing-mode:lr-tb;direction:ltr;text-anchor:start;fill:#000000;stroke:none;stroke-width:0.381322;stroke-linecap:round;stroke-linejoin:round"
       x="112.19185"
       y="140.30861"
       id="text1-64"><tspan
         sodipodi:role="line"
         id="tspan1-9"
         style="fill:#000000;stroke:none;stroke-width:0.381323"
         x="112.19185"
         y="140.30861">4</tspan></text>
    <text
       xml:space="preserve"
       style="font-size:5.10989px;font-family:arial;-inkscape-font-specification:arial;text-align:start;writing-mode:lr-tb;direction:ltr;text-anchor:start;fill:#000000;stroke:none;stroke-width:0.381322;stroke-linecap:round;stroke-linejoin:round"
       x="130.22823"
       y="143.21678"
       id="text1-8"><tspan
         sodipodi:role="line"
         id="tspan1-7"
         style="fill:#000000;stroke:none;stroke-width:0.381323"
         x="130.22823"
         y="143.21678">1</tspan></text>
    <text
       xml:space="preserve"
       style="font-size:5.10989px;font-family:arial;-inkscape-font-specification:arial;text-align:start;writing-mode:lr-tb;direction:ltr;text-anchor:start;fill:#000000;stroke:none;stroke-width:0.381322;stroke-linecap:round;stroke-linejoin:round"
       x="136.42812"
       y="137.25044"
       id="text1-1-1"><tspan
         sodipodi:role="line"
         id="tspan1-4-7"
         style="fill:#000000;stroke:none;stroke-width:0.381323"
         x="136.42812"
         y="137.25044">2</tspan></text>
    <text
       xml:space="preserve"
       style="font-size:5.10989px;font-family:arial;-inkscape-font-specification:arial;text-align:start;writing-mode:lr-tb;direction:ltr;text-anchor:start;fill:#ff6600;stroke:none;stroke-width:0.381322;stroke-linecap:round;stroke-linejoin:round"
       x="143.01581"
       y="136.00932"
       id="text1-6-2"><tspan
         sodipodi:role="line"
         id="tspan1-8-7"
         style="fill:#ff6600;stroke:none;stroke-width:0.381323"
         x="143.01581"
         y="136.00932">3</tspan></text>
    <text
       xml:space="preserve"
       style="font-size:5.10989px;font-family:arial;-inkscape-font-specification:arial;text-align:start;writing-mode:lr-tb;direction:ltr;text-anchor:start;fill:#000000;stroke:none;stroke-width:0.381322;stroke-linecap:round;stroke-linejoin:round"
       x="152.3779"
       y="143.44518"
       id="text1-64-2"><tspan
         sodipodi:role="line"
         id="tspan1-9-2"
         style="fill:#000000;stroke:none;stroke-width:0.381323"
         x="152.3779"
         y="143.44518">4</tspan></text>
  </g>
</svg>
