<?xml version="1.0" encoding="UTF-8" standalone="no"?>
<!-- Created with Inkscape (http://www.inkscape.org/) -->

<svg
   width="105.46267mm"
   height="57.002159mm"
   viewBox="0 0 105.46267 57.002159"
   version="1.1"
   id="svg1"
   inkscape:version="1.4 (1:1.4+202410161351+e7c3feb100)"
   sodipodi:docname="fig2.svg"
   inkscape:export-filename="fig2.pdf"
   inkscape:export-xdpi="96"
   inkscape:export-ydpi="96"
   xmlns:inkscape="http://www.inkscape.org/namespaces/inkscape"
   xmlns:sodipodi="http://sodipodi.sourceforge.net/DTD/sodipodi-0.dtd"
   xmlns="http://www.w3.org/2000/svg"
   xmlns:svg="http://www.w3.org/2000/svg">
  <sodipodi:namedview
     id="namedview1"
     pagecolor="#ffffff"
     bordercolor="#000000"
     borderopacity="0.25"
     inkscape:showpageshadow="2"
     inkscape:pageopacity="0.0"
     inkscape:pagecheckerboard="0"
     inkscape:deskcolor="#d1d1d1"
     inkscape:document-units="mm"
     inkscape:zoom="1.0066252"
     inkscape:cx="219.54546"
     inkscape:cy="98.845128"
     inkscape:window-width="1920"
     inkscape:window-height="1008"
     inkscape:window-x="0"
     inkscape:window-y="0"
     inkscape:window-maximized="1"
     inkscape:current-layer="layer1" />
  <defs
     id="defs1">
    <clipPath
       clipPathUnits="userSpaceOnUse"
       id="clipPath86">
      <path
         d="M -2,681 H 482 V -1 H -2 Z"
         id="path86" />
    </clipPath>
    <clipPath
       clipPathUnits="userSpaceOnUse"
       id="clipPath88">
      <path
         d="M -2,681 H 482 V -1 H -2 Z"
         transform="translate(-338.933,-561.97002)"
         id="path88" />
    </clipPath>
    <clipPath
       clipPathUnits="userSpaceOnUse"
       id="clipPath90">
      <path
         d="M -2,681 H 482 V -1 H -2 Z"
         transform="translate(-366.72001,-545.85002)"
         id="path90" />
    </clipPath>
    <clipPath
       clipPathUnits="userSpaceOnUse"
       id="clipPath92">
      <path
         d="M -2,681 H 482 V -1 H -2 Z"
         transform="translate(-338.9,-599.44702)"
         id="path92" />
    </clipPath>
    <clipPath
       clipPathUnits="userSpaceOnUse"
       id="clipPath94">
      <path
         d="M -2,681 H 482 V -1 H -2 Z"
         transform="translate(-381.40001,-561.94702)"
         id="path94" />
    </clipPath>
    <clipPath
       clipPathUnits="userSpaceOnUse"
       id="clipPath96">
      <path
         d="M -2,681 H 482 V -1 H -2 Z"
         transform="translate(-338.9,-561.97002)"
         id="path96" />
    </clipPath>
    <clipPath
       clipPathUnits="userSpaceOnUse"
       id="clipPath98">
      <path
         d="M -2,681 H 482 V -1 H -2 Z"
         transform="translate(-306.56701,-594.07202)"
         id="path98" />
    </clipPath>
    <clipPath
       clipPathUnits="userSpaceOnUse"
       id="clipPath100">
      <path
         d="M -2,681 H 482 V -1 H -2 Z"
         transform="translate(-331.88801,-565.98501)"
         id="path100" />
    </clipPath>
    <clipPath
       clipPathUnits="userSpaceOnUse"
       id="clipPath102">
      <path
         d="M -2,681 H 482 V -1 H -2 Z"
         transform="translate(-338.9,-579.56901)"
         id="path102" />
    </clipPath>
    <clipPath
       clipPathUnits="userSpaceOnUse"
       id="clipPath104">
      <path
         d="M -2,681 H 482 V -1 H -2 Z"
         transform="matrix(1,0,0,-1,-352.11211,572.61391)"
         id="path104" />
    </clipPath>
    <clipPath
       clipPathUnits="userSpaceOnUse"
       id="clipPath106">
      <path
         d="M -2,681 H 482 V -1 H -2 Z"
         transform="matrix(1,0,0,-1,-356.61191,569.61391)"
         id="path106" />
    </clipPath>
    <clipPath
       clipPathUnits="userSpaceOnUse"
       id="clipPath109">
      <path
         d="M -2,681 H 482 V -1 H -2 Z"
         transform="matrix(1,0,0,-1,-361.19601,572.61391)"
         id="path109" />
    </clipPath>
    <clipPath
       clipPathUnits="userSpaceOnUse"
       id="clipPath111">
      <path
         d="M -2,681 H 482 V -1 H -2 Z"
         transform="translate(-338.4,-541.26201)"
         id="path111" />
    </clipPath>
    <clipPath
       clipPathUnits="userSpaceOnUse"
       id="clipPath194">
      <path
         d="M -2,681 H 482 V -1 H -2 Z"
         id="path194" />
    </clipPath>
    <clipPath
       clipPathUnits="userSpaceOnUse"
       id="clipPath196">
      <path
         d="M -2,681 H 482 V -1 H -2 Z"
         transform="translate(-146.817,-167.387)"
         id="path196" />
    </clipPath>
    <clipPath
       clipPathUnits="userSpaceOnUse"
       id="clipPath198">
      <path
         d="M -2,681 H 482 V -1 H -2 Z"
         transform="translate(-76.587999,-235.829)"
         id="path198" />
    </clipPath>
    <clipPath
       clipPathUnits="userSpaceOnUse"
       id="clipPath200">
      <path
         d="M -2,681 H 482 V -1 H -2 Z"
         transform="matrix(1,0,0,-1,-69.265202,263.9709)"
         id="path200" />
    </clipPath>
    <clipPath
       clipPathUnits="userSpaceOnUse"
       id="clipPath202">
      <path
         d="M -2,681 H 482 V -1 H -2 Z"
         transform="translate(-71.067003,-275.63801)"
         id="path202" />
    </clipPath>
    <clipPath
       clipPathUnits="userSpaceOnUse"
       id="clipPath204">
      <path
         d="M -2,681 H 482 V -1 H -2 Z"
         transform="translate(-108.34,-253.71201)"
         id="path204" />
    </clipPath>
    <clipPath
       clipPathUnits="userSpaceOnUse"
       id="clipPath206">
      <path
         d="M -2,681 H 482 V -1 H -2 Z"
         transform="translate(-110.564,-254.881)"
         id="path206" />
    </clipPath>
    <clipPath
       clipPathUnits="userSpaceOnUse"
       id="clipPath208">
      <path
         d="M -2,681 H 482 V -1 H -2 Z"
         transform="translate(-185.808,-249.618)"
         id="path208" />
    </clipPath>
    <clipPath
       clipPathUnits="userSpaceOnUse"
       id="clipPath210">
      <path
         d="M -2,681 H 482 V -1 H -2 Z"
         transform="translate(-186.344,-252.073)"
         id="path210" />
    </clipPath>
    <clipPath
       clipPathUnits="userSpaceOnUse"
       id="clipPath212">
      <path
         d="M -2,681 H 482 V -1 H -2 Z"
         transform="translate(-113.83501,-268.297)"
         id="path212" />
    </clipPath>
    <clipPath
       clipPathUnits="userSpaceOnUse"
       id="clipPath214">
      <path
         d="M -2,681 H 482 V -1 H -2 Z"
         transform="translate(-116.31701,-268.65501)"
         id="path214" />
    </clipPath>
    <clipPath
       clipPathUnits="userSpaceOnUse"
       id="clipPath216">
      <path
         d="M -2,681 H 482 V -1 H -2 Z"
         transform="translate(-193.64001,-233.763)"
         id="path216" />
    </clipPath>
    <clipPath
       clipPathUnits="userSpaceOnUse"
       id="clipPath218">
      <path
         d="M -2,681 H 482 V -1 H -2 Z"
         transform="translate(-195.06701,-235.829)"
         id="path218" />
    </clipPath>
    <clipPath
       clipPathUnits="userSpaceOnUse"
       id="clipPath220">
      <path
         d="M -2,681 H 482 V -1 H -2 Z"
         transform="translate(-123.40101,-272.65)"
         id="path220" />
    </clipPath>
    <clipPath
       clipPathUnits="userSpaceOnUse"
       id="clipPath222">
      <path
         d="M -2,681 H 482 V -1 H -2 Z"
         transform="translate(-125.89901,-272.43401)"
         id="path222" />
    </clipPath>
    <clipPath
       clipPathUnits="userSpaceOnUse"
       id="clipPath224">
      <path
         d="M -2,681 H 482 V -1 H -2 Z"
         transform="translate(-173.547,-210.38001)"
         id="path224" />
    </clipPath>
    <clipPath
       clipPathUnits="userSpaceOnUse"
       id="clipPath226">
      <path
         d="M -2,681 H 482 V -1 H -2 Z"
         transform="translate(-175.97501,-211.02901)"
         id="path226" />
    </clipPath>
    <clipPath
       clipPathUnits="userSpaceOnUse"
       id="clipPath228">
      <path
         d="M -2,681 H 482 V -1 H -2 Z"
         transform="translate(-137.87,-275.663)"
         id="path228" />
    </clipPath>
    <clipPath
       clipPathUnits="userSpaceOnUse"
       id="clipPath230">
      <path
         d="M -2,681 H 482 V -1 H -2 Z"
         transform="translate(-140.151,-274.609)"
         id="path230" />
    </clipPath>
    <clipPath
       clipPathUnits="userSpaceOnUse"
       id="clipPath232">
      <path
         d="M -2,681 H 482 V -1 H -2 Z"
         transform="translate(-157.54101,-192.872)"
         id="path232" />
    </clipPath>
    <clipPath
       clipPathUnits="userSpaceOnUse"
       id="clipPath234">
      <path
         d="M -2,681 H 482 V -1 H -2 Z"
         transform="translate(-159.93201,-192.09701)"
         id="path234" />
    </clipPath>
    <clipPath
       clipPathUnits="userSpaceOnUse"
       id="clipPath236">
      <path
         d="M -2,681 H 482 V -1 H -2 Z"
         transform="matrix(1,0,0,-1,-181.3054,282.36671)"
         id="path236" />
    </clipPath>
    <clipPath
       clipPathUnits="userSpaceOnUse"
       id="clipPath238">
      <path
         d="M -2,681 H 482 V -1 H -2 Z"
         transform="matrix(1,0,0,-1,-185.80521,279.36671)"
         id="path238" />
    </clipPath>
    <clipPath
       clipPathUnits="userSpaceOnUse"
       id="clipPath240">
      <path
         d="M -2,681 H 482 V -1 H -2 Z"
         transform="matrix(1,0,0,-1,-190.3894,282.36671)"
         id="path240" />
    </clipPath>
    <clipPath
       clipPathUnits="userSpaceOnUse"
       id="clipPath226-9">
      <path
         d="M -2,681 H 482 V -1 H -2 Z"
         transform="translate(-175.97501,-211.02901)"
         id="path226-0" />
    </clipPath>
    <clipPath
       clipPathUnits="userSpaceOnUse"
       id="clipPath218-1">
      <path
         d="M -2,681 H 482 V -1 H -2 Z"
         transform="translate(-195.06701,-235.829)"
         id="path218-1" />
    </clipPath>
    <clipPath
       clipPathUnits="userSpaceOnUse"
       id="clipPath210-6">
      <path
         d="M -2,681 H 482 V -1 H -2 Z"
         transform="translate(-186.344,-252.073)"
         id="path210-7" />
    </clipPath>
    <clipPath
       clipPathUnits="userSpaceOnUse"
       id="clipPath194-3">
      <path
         d="M -2,681 H 482 V -1 H -2 Z"
         id="path194-9" />
    </clipPath>
    <clipPath
       clipPathUnits="userSpaceOnUse"
       id="clipPath196-0">
      <path
         d="M -2,681 H 482 V -1 H -2 Z"
         transform="translate(-146.817,-167.387)"
         id="path196-8" />
    </clipPath>
    <clipPath
       clipPathUnits="userSpaceOnUse"
       id="clipPath198-8">
      <path
         d="M -2,681 H 482 V -1 H -2 Z"
         transform="translate(-76.587999,-235.829)"
         id="path198-5" />
    </clipPath>
    <clipPath
       clipPathUnits="userSpaceOnUse"
       id="clipPath202-0">
      <path
         d="M -2,681 H 482 V -1 H -2 Z"
         transform="translate(-71.067003,-275.63801)"
         id="path202-9" />
    </clipPath>
    <clipPath
       clipPathUnits="userSpaceOnUse"
       id="clipPath204-6">
      <path
         d="M -2,681 H 482 V -1 H -2 Z"
         transform="translate(-108.34,-253.71201)"
         id="path204-3" />
    </clipPath>
    <clipPath
       clipPathUnits="userSpaceOnUse"
       id="clipPath206-8">
      <path
         d="M -2,681 H 482 V -1 H -2 Z"
         transform="translate(-110.564,-254.881)"
         id="path206-5" />
    </clipPath>
    <clipPath
       clipPathUnits="userSpaceOnUse"
       id="clipPath208-6">
      <path
         d="M -2,681 H 482 V -1 H -2 Z"
         transform="translate(-185.808,-249.618)"
         id="path208-1" />
    </clipPath>
    <clipPath
       clipPathUnits="userSpaceOnUse"
       id="clipPath210-1">
      <path
         d="M -2,681 H 482 V -1 H -2 Z"
         transform="translate(-186.344,-252.073)"
         id="path210-5" />
    </clipPath>
    <clipPath
       clipPathUnits="userSpaceOnUse"
       id="clipPath210-6-9">
      <path
         d="M -2,681 H 482 V -1 H -2 Z"
         transform="translate(-186.344,-252.073)"
         id="path210-7-8" />
    </clipPath>
    <clipPath
       clipPathUnits="userSpaceOnUse"
       id="clipPath212-4">
      <path
         d="M -2,681 H 482 V -1 H -2 Z"
         transform="translate(-113.83501,-268.297)"
         id="path212-8" />
    </clipPath>
    <clipPath
       clipPathUnits="userSpaceOnUse"
       id="clipPath214-1">
      <path
         d="M -2,681 H 482 V -1 H -2 Z"
         transform="translate(-116.31701,-268.65501)"
         id="path214-0" />
    </clipPath>
    <clipPath
       clipPathUnits="userSpaceOnUse"
       id="clipPath216-3">
      <path
         d="M -2,681 H 482 V -1 H -2 Z"
         transform="translate(-193.64001,-233.763)"
         id="path216-0" />
    </clipPath>
    <clipPath
       clipPathUnits="userSpaceOnUse"
       id="clipPath218-4">
      <path
         d="M -2,681 H 482 V -1 H -2 Z"
         transform="translate(-195.06701,-235.829)"
         id="path218-4" />
    </clipPath>
    <clipPath
       clipPathUnits="userSpaceOnUse"
       id="clipPath218-1-4">
      <path
         d="M -2,681 H 482 V -1 H -2 Z"
         transform="translate(-195.06701,-235.829)"
         id="path218-1-4" />
    </clipPath>
    <clipPath
       clipPathUnits="userSpaceOnUse"
       id="clipPath220-7">
      <path
         d="M -2,681 H 482 V -1 H -2 Z"
         transform="translate(-123.40101,-272.65)"
         id="path220-6" />
    </clipPath>
    <clipPath
       clipPathUnits="userSpaceOnUse"
       id="clipPath222-3">
      <path
         d="M -2,681 H 482 V -1 H -2 Z"
         transform="translate(-125.89901,-272.43401)"
         id="path222-1" />
    </clipPath>
    <clipPath
       clipPathUnits="userSpaceOnUse"
       id="clipPath224-7">
      <path
         d="M -2,681 H 482 V -1 H -2 Z"
         transform="translate(-173.547,-210.38001)"
         id="path224-5" />
    </clipPath>
    <clipPath
       clipPathUnits="userSpaceOnUse"
       id="clipPath226-96">
      <path
         d="M -2,681 H 482 V -1 H -2 Z"
         transform="translate(-175.97501,-211.02901)"
         id="path226-2" />
    </clipPath>
    <clipPath
       clipPathUnits="userSpaceOnUse"
       id="clipPath226-9-1">
      <path
         d="M -2,681 H 482 V -1 H -2 Z"
         transform="translate(-175.97501,-211.02901)"
         id="path226-0-7" />
    </clipPath>
    <clipPath
       clipPathUnits="userSpaceOnUse"
       id="clipPath228-8">
      <path
         d="M -2,681 H 482 V -1 H -2 Z"
         transform="translate(-137.87,-275.663)"
         id="path228-5" />
    </clipPath>
    <clipPath
       clipPathUnits="userSpaceOnUse"
       id="clipPath230-7">
      <path
         d="M -2,681 H 482 V -1 H -2 Z"
         transform="translate(-140.151,-274.609)"
         id="path230-4" />
    </clipPath>
    <clipPath
       clipPathUnits="userSpaceOnUse"
       id="clipPath232-1">
      <path
         d="M -2,681 H 482 V -1 H -2 Z"
         transform="translate(-157.54101,-192.872)"
         id="path232-8" />
    </clipPath>
    <clipPath
       clipPathUnits="userSpaceOnUse"
       id="clipPath234-5">
      <path
         d="M -2,681 H 482 V -1 H -2 Z"
         transform="translate(-159.93201,-192.09701)"
         id="path234-9" />
    </clipPath>
    <clipPath
       clipPathUnits="userSpaceOnUse"
       id="clipPath97">
      <path
         d="M -2,681 H 482 V -1 H -2 Z"
         id="path97" />
    </clipPath>
    <clipPath
       clipPathUnits="userSpaceOnUse"
       id="clipPath99">
      <path
         d="M -2,681 H 482 V -1 H -2 Z"
         transform="translate(-134.15199,-474.72302)"
         id="path99" />
    </clipPath>
    <clipPath
       clipPathUnits="userSpaceOnUse"
       id="clipPath101">
      <path
         d="M -2,681 H 482 V -1 H -2 Z"
         transform="translate(-63.923006,-543.49801)"
         id="path101" />
    </clipPath>
    <clipPath
       clipPathUnits="userSpaceOnUse"
       id="clipPath103">
      <path
         d="M -2,681 H 482 V -1 H -2 Z"
         transform="translate(-82.09,-587.14002)"
         id="path103" />
    </clipPath>
    <clipPath
       clipPathUnits="userSpaceOnUse"
       id="clipPath105">
      <path
         d="M -2,681 H 482 V -1 H -2 Z"
         transform="translate(-102.926,-566.97801)"
         id="path105" />
    </clipPath>
    <clipPath
       clipPathUnits="userSpaceOnUse"
       id="clipPath107">
      <path
         d="M -2,681 H 482 V -1 H -2 Z"
         transform="translate(-105.345,-567.64601)"
         id="path107" />
    </clipPath>
    <clipPath
       clipPathUnits="userSpaceOnUse"
       id="clipPath109-0">
      <path
         d="M -2,681 H 482 V -1 H -2 Z"
         transform="translate(-154.612,-506.29001)"
         id="path109-5" />
    </clipPath>
    <clipPath
       clipPathUnits="userSpaceOnUse"
       id="clipPath111-9">
      <path
         d="M -2,681 H 482 V -1 H -2 Z"
         transform="translate(-157.12,-506.15802)"
         id="path111-4" />
    </clipPath>
    <clipPath
       clipPathUnits="userSpaceOnUse"
       id="clipPath113">
      <path
         d="M -2,681 H 482 V -1 H -2 Z"
         transform="translate(-111.323,-579.49202)"
         id="path113" />
    </clipPath>
    <clipPath
       clipPathUnits="userSpaceOnUse"
       id="clipPath115">
      <path
         d="M -2,681 H 482 V -1 H -2 Z"
         transform="translate(-113.82001,-579.27101)"
         id="path115" />
    </clipPath>
    <clipPath
       clipPathUnits="userSpaceOnUse"
       id="clipPath117">
      <path
         d="M -2,681 H 482 V -1 H -2 Z"
         transform="translate(-143.358,-512.01501)"
         id="path117" />
    </clipPath>
    <clipPath
       clipPathUnits="userSpaceOnUse"
       id="clipPath119">
      <path
         d="M -2,681 H 482 V -1 H -2 Z"
         transform="translate(-145.78701,-511.37201)"
         id="path119" />
    </clipPath>
    <clipPath
       clipPathUnits="userSpaceOnUse"
       id="clipPath121">
      <path
         d="M -2,681 H 482 V -1 H -2 Z"
         transform="translate(-104.413,-541.43301)"
         id="path121" />
    </clipPath>
    <clipPath
       clipPathUnits="userSpaceOnUse"
       id="clipPath123">
      <path
         d="M -2,681 H 482 V -1 H -2 Z"
         transform="translate(-105.84,-543.49801)"
         id="path123" />
    </clipPath>
    <clipPath
       clipPathUnits="userSpaceOnUse"
       id="clipPath125">
      <path
         d="M -2,681 H 482 V -1 H -2 Z"
         transform="translate(-151.825,-520.58301)"
         id="path125" />
    </clipPath>
    <clipPath
       clipPathUnits="userSpaceOnUse"
       id="clipPath127">
      <path
         d="M -2,681 H 482 V -1 H -2 Z"
         transform="translate(-154.317,-520.89502)"
         id="path127" />
    </clipPath>
    <clipPath
       clipPathUnits="userSpaceOnUse"
       id="clipPath129">
      <path
         d="M -2,681 H 482 V -1 H -2 Z"
         transform="translate(-125.466,-583.73502)"
         id="path129" />
    </clipPath>
    <clipPath
       clipPathUnits="userSpaceOnUse"
       id="clipPath131">
      <path
         d="M -2,681 H 482 V -1 H -2 Z"
         transform="translate(-127.73301,-582.66301)"
         id="path131" />
    </clipPath>
    <clipPath
       clipPathUnits="userSpaceOnUse"
       id="clipPath133">
      <path
         d="M -2,681 H 482 V -1 H -2 Z"
         transform="translate(-137.633,-499.32901)"
         id="path133" />
    </clipPath>
    <clipPath
       clipPathUnits="userSpaceOnUse"
       id="clipPath135">
      <path
         d="M -2,681 H 482 V -1 H -2 Z"
         transform="translate(-139.85801,-498.17302)"
         id="path135" />
    </clipPath>
    <clipPath
       clipPathUnits="userSpaceOnUse"
       id="clipPath140">
      <path
         d="M -2,681 H 482 V -1 H -2 Z"
         transform="matrix(1,0,0,-1,-163.30191,558.49842)"
         id="path140" />
    </clipPath>
    <clipPath
       clipPathUnits="userSpaceOnUse"
       id="clipPath142">
      <path
         d="M -2,681 H 482 V -1 H -2 Z"
         transform="matrix(1,0,0,-1,-167.886,561.49842)"
         id="path142" />
    </clipPath>
  </defs>
  <g
     inkscape:label="Calque 1"
     inkscape:groupmode="layer"
     id="layer1"
     transform="translate(-81.592923,-53.320924)">
    <path
       id="path193"
       d="m 76.427,166.471 h 142.292 v 69.563 H 76.427 Z"
       style="fill:#dcdcdc;fill-opacity:1;fill-rule:nonzero;stroke:none"
       transform="matrix(0.35277776,0,0,-0.35277776,56.620532,161.76022)"
       clip-path="url(#clipPath194)" />
    <path
       id="path195"
       d="M 0,0 V 140"
       style="fill:none;stroke:#000000;stroke-width:1;stroke-linecap:round;stroke-linejoin:miter;stroke-miterlimit:4;stroke-dasharray:0, 2;stroke-dashoffset:0;stroke-opacity:1"
       transform="matrix(0.35277776,0,0,-0.35277776,108.41431,102.70981)"
       clip-path="url(#clipPath196)" />
    <path
       id="path197"
       d="M 0,0 H 141.979"
       style="fill:none;stroke:#000000;stroke-width:1;stroke-linecap:butt;stroke-linejoin:miter;stroke-miterlimit:4;stroke-dasharray:none;stroke-opacity:1"
       transform="matrix(0.35277776,0,0,-0.35277776,83.639075,78.564996)"
       clip-path="url(#clipPath198)" />
    <path
       id="path201"
       d="M 0,0 39.497,-20.757"
       style="fill:none;stroke:#2b0000;stroke-width:1.2;stroke-linecap:butt;stroke-linejoin:miter;stroke-miterlimit:4;stroke-dasharray:none;stroke-opacity:1"
       transform="matrix(0.35277776,0,0,-0.35277776,81.691391,64.521262)"
       clip-path="url(#clipPath202)" />
    <path
       id="path203"
       d="M 0,0 7.882,-1.78 1.946,3.703 0,0"
       style="fill:#2b0000;fill-opacity:1;fill-rule:nonzero;stroke:none"
       transform="matrix(0.35277776,0,0,-0.35277776,94.840475,72.256266)"
       clip-path="url(#clipPath204)" />
    <path
       id="path205"
       d="M 0,0 36.253,-19.052 75.78,-2.808"
       style="fill:none;stroke:#2b0000;stroke-width:1.2;stroke-linecap:butt;stroke-linejoin:miter;stroke-miterlimit:4;stroke-dasharray:none;stroke-opacity:1"
       transform="matrix(0.35277776,0,0,-0.35277776,95.625052,71.843873)"
       clip-path="url(#clipPath206)" />
    <path
       id="path207"
       d="M 0,0 6.425,4.902 -1.59,3.869 0,0"
       style="fill:#2b0000;fill-opacity:1;fill-rule:nonzero;stroke:none"
       transform="matrix(0.35277776,0,0,-0.35277776,122.16946,73.700542)"
       clip-path="url(#clipPath208)" />
    <path
       id="path209"
       d="m -96.027,44.565 26,-27.983"
       style="fill:none;stroke:#550000;stroke-width:1.2;stroke-linecap:butt;stroke-linejoin:miter;stroke-miterlimit:4;stroke-dasharray:none;stroke-opacity:1"
       transform="matrix(0.35277776,0,0,-0.35277776,122.35855,72.834473)"
       clip-path="url(#clipPath210)"
       sodipodi:nodetypes="cc" />
    <path
       id="path209-6"
       d="M 0,0 15.973,6.564"
       style="fill:none;stroke:#2b0000;stroke-width:1.2;stroke-linecap:butt;stroke-linejoin:miter;stroke-miterlimit:4;stroke-dasharray:none;stroke-opacity:1"
       transform="matrix(0.35277776,0,0,-0.35277776,122.30631,72.872007)"
       clip-path="url(#clipPath210-6)"
       sodipodi:nodetypes="cc" />
    <path
       id="path211"
       d="M 0,0 6.845,-4.295 3.064,2.847 0,0"
       style="fill:#550000;fill-opacity:1;fill-rule:nonzero;stroke:none"
       transform="matrix(0.35277776,0,0,-0.35277776,96.778992,67.111006)"
       clip-path="url(#clipPath212)" />
    <path
       id="path213"
       d="M 0,0 30.5,-32.826 H 78.75"
       style="fill:none;stroke:#550000;stroke-width:1.2;stroke-linecap:butt;stroke-linejoin:miter;stroke-miterlimit:4;stroke-dasharray:none;stroke-opacity:1"
       transform="matrix(0.35277776,0,0,-0.35277776,97.654586,66.98471)"
       clip-path="url(#clipPath214)" />
    <path
       id="path215"
       d="M 0,0 7.806,2.092 0,4.183 V 0"
       style="fill:#550000;fill-opacity:1;fill-rule:nonzero;stroke:none"
       transform="matrix(0.35277776,0,0,-0.35277776,124.93242,79.293833)"
       clip-path="url(#clipPath216)" />
    <path
       id="path217"
       d="M -87,67.808 -69.168,36.605"
       style="fill:#800000;stroke:#800000;stroke-width:1.2;stroke-linecap:butt;stroke-linejoin:miter;stroke-miterlimit:4;stroke-dasharray:none;stroke-opacity:1"
       transform="matrix(0.35277776,0,0,-0.35277776,125.43584,78.564996)"
       clip-path="url(#clipPath218)"
       sodipodi:nodetypes="cc" />
    <path
       id="path217-9"
       d="M 0,0 H 20.75"
       style="fill:none;stroke:#550000;stroke-width:1.2;stroke-linecap:butt;stroke-linejoin:miter;stroke-miterlimit:4;stroke-dasharray:none;stroke-opacity:1"
       transform="matrix(0.35277776,0,0,-0.35277776,125.43493,78.579072)"
       clip-path="url(#clipPath218-1)"
       sodipodi:nodetypes="cc" />
    <path
       id="path219"
       d="M 0,0 5.688,-5.74 3.631,2.075 0,0"
       style="fill:#800000;fill-opacity:1;fill-rule:nonzero;stroke:none"
       transform="matrix(0.35277776,0,0,-0.35277776,100.15366,65.575365)"
       clip-path="url(#clipPath220)" />
    <path
       id="path221"
       d="m 0,0 20.918,-36.605 29.158,-24.8"
       style="fill:none;stroke:#800000;stroke-width:1.2;stroke-linecap:butt;stroke-linejoin:miter;stroke-miterlimit:4;stroke-dasharray:none;stroke-opacity:1"
       transform="matrix(0.35277776,0,0,-0.35277776,101.0349,65.651562)"
       clip-path="url(#clipPath222)" />
    <path
       id="path223"
       d="M 0,0 7.301,-3.464 2.71,3.186 0,0"
       style="fill:#800000;fill-opacity:1;fill-rule:nonzero;stroke:none"
       transform="matrix(0.35277776,0,0,-0.35277776,117.84406,87.542832)"
       clip-path="url(#clipPath224)" />
    <path
       id="path225"
       d="M 0,0 23.092,-19.642"
       style="fill:#ff0000;stroke:#800000;stroke-width:1.2;stroke-linecap:butt;stroke-linejoin:miter;stroke-miterlimit:4;stroke-dasharray:none;stroke-opacity:1"
       transform="matrix(0.35277776,0,0,-0.35277776,118.7006,87.31388)"
       clip-path="url(#clipPath226)"
       sodipodi:nodetypes="cc" />
    <path
       id="path225-1"
       d="M -41.158,94.609 -35.824,63.58"
       style="fill:#ff0000;stroke:#ff0000;stroke-width:1.2;stroke-linecap:butt;stroke-linejoin:miter;stroke-miterlimit:4;stroke-dasharray:none;stroke-opacity:1"
       transform="matrix(0.35277776,0,0,-0.35277776,118.68358,87.327421)"
       clip-path="url(#clipPath226-9)"
       sodipodi:nodetypes="cc" />
    <path
       id="path227"
       d="M 0,0 3.383,-7.338 4.123,0.709 0,0"
       style="fill:#ff0000;fill-opacity:1;fill-rule:nonzero;stroke:none"
       transform="matrix(0.35277776,0,0,-0.35277776,105.258,64.512446)"
       clip-path="url(#clipPath228)" />
    <path
       id="path229"
       d="M 0,0 6.666,-38.78 19.781,-82.512"
       style="fill:none;stroke:#ff0000;stroke-width:1.2;stroke-linecap:butt;stroke-linejoin:miter;stroke-miterlimit:4;stroke-dasharray:none;stroke-opacity:1"
       transform="matrix(0.35277776,0,0,-0.35277776,106.06269,64.884273)"
       clip-path="url(#clipPath230)" />
    <path
       id="path231"
       d="M 0,0 4.245,-6.876 4.007,1.201 0,0"
       style="fill:#ff0000;fill-opacity:1;fill-rule:nonzero;stroke:none"
       transform="matrix(0.35277776,0,0,-0.35277776,112.1975,93.719271)"
       clip-path="url(#clipPath232)" />
    <path
       id="path233"
       d="M 0,0 6.135,-20.459"
       style="fill:#ff0000;stroke:#ff0000;stroke-width:1.2;stroke-linecap:butt;stroke-linejoin:miter;stroke-miterlimit:4;stroke-dasharray:none;stroke-opacity:1"
       transform="matrix(0.35277776,0,0,-0.35277776,113.04099,93.99267)"
       clip-path="url(#clipPath234)" />
    <path
       style="fill:none;stroke:#2b0000;stroke-width:0.4;stroke-linecap:round;stroke-linejoin:round;stroke-dasharray:none"
       d="m 94.228837,63.016357 c 3.989628,-3.285986 8.459883,-5.322344 14.193463,-4.074052"
       id="path1"
       sodipodi:nodetypes="cc" />
    <text
       xml:space="preserve"
       style="font-size:2.71999px;font-family:arial;-inkscape-font-specification:arial;text-align:start;writing-mode:lr-tb;direction:ltr;text-anchor:start;fill:none;stroke:#2b0000;stroke-width:0.0902123;stroke-linecap:round;stroke-linejoin:round;stroke-dasharray:none"
       x="100.54969"
       y="61.307922"
       id="text1"><tspan
         sodipodi:role="line"
         id="tspan1"
         style="fill:#000000;stroke:none;stroke-width:0.0902123"
         x="100.54969"
         y="61.307922">i<tspan
   style="font-size:1.76799px;baseline-shift:sub;stroke-width:0.0902123"
   id="tspan2">lim</tspan></tspan></text>
    <text
       xml:space="preserve"
       style="font-size:5.05818px;font-family:arial;-inkscape-font-specification:arial;text-align:start;writing-mode:lr-tb;direction:ltr;text-anchor:start;fill:#000000;stroke:none;stroke-width:0.167762;stroke-linecap:round;stroke-linejoin:round;stroke-dasharray:none"
       x="100.45623"
       y="108.89051"
       id="text3"><tspan
         sodipodi:role="line"
         id="tspan3"
         style="stroke-width:0.167762"
         x="100.45623"
         y="108.89051">n<tspan
   style="font-size:3.28782px;baseline-shift:sub;stroke-width:0.167762"
   id="tspan4">2</tspan> &lt; n<tspan
   style="font-size:3.28782px;baseline-shift:sub;stroke-width:0.167762"
   id="tspan5">1</tspan></tspan></text>
    <text
       xml:space="preserve"
       style="font-size:5.05818px;font-family:arial;-inkscape-font-specification:arial;text-align:start;writing-mode:lr-tb;direction:ltr;text-anchor:start;fill:#000000;stroke:none;stroke-width:0.167762;stroke-linecap:round;stroke-linejoin:round;stroke-dasharray:none"
       x="158.67868"
       y="109.31145"
       id="text3-1"><tspan
         sodipodi:role="line"
         id="tspan3-2"
         style="stroke-width:0.167762"
         x="158.67868"
         y="109.31145">n<tspan
   style="font-size:3.28782px;baseline-shift:sub;stroke-width:0.167762"
   id="tspan4-8">2</tspan> &gt; n<tspan
   style="font-size:3.28782px;baseline-shift:sub;stroke-width:0.167762"
   id="tspan5-9">1</tspan></tspan></text>
    <path
       id="path96-9"
       d="m 63.923,474.332 h 136.208 v 69.167 H 63.923 Z"
       style="fill:#dcdcdc;fill-opacity:1;fill-rule:nonzero;stroke:none"
       transform="matrix(0.35277776,0,0,-0.35277776,116.45383,270.54353)"
       clip-path="url(#clipPath97)" />
    <path
       id="path98-2"
       d="M 0,0 V 126.667"
       style="fill:none;stroke:#000000;stroke-width:1;stroke-linecap:round;stroke-linejoin:miter;stroke-miterlimit:4;stroke-dasharray:0, 2;stroke-dashoffset:0;stroke-opacity:1"
       transform="matrix(0.35277776,0,0,-0.35277776,163.77967,103.07181)"
       clip-path="url(#clipPath99)" />
    <path
       id="path100-2"
       d="M 0,0 H 135.875"
       style="fill:none;stroke:#000000;stroke-width:1;stroke-linecap:butt;stroke-linejoin:miter;stroke-miterlimit:4;stroke-dasharray:none;stroke-opacity:1"
       transform="matrix(0.35277776,0,0,-0.35277776,139.00445,78.80952)"
       clip-path="url(#clipPath101)" />
    <path
       id="path102-4"
       d="M 0,0 23.255,-19.494"
       style="fill:none;stroke:#d40000;stroke-width:1.2;stroke-linecap:butt;stroke-linejoin:miter;stroke-miterlimit:4;stroke-dasharray:none;stroke-opacity:1"
       transform="matrix(0.35277776,0,0,-0.35277776,145.41336,63.413591)"
       clip-path="url(#clipPath103)" />
    <path
       id="path104-7"
       d="M 0,0 7.325,-3.412 2.687,3.206 0,0"
       style="fill:#d40000;fill-opacity:1;fill-rule:nonzero;stroke:none"
       transform="matrix(0.35277776,0,0,-0.35277776,152.76383,70.526297)"
       clip-path="url(#clipPath105)" />
    <path
       id="path106-7"
       d="m 0,0 28.807,-24.148 22.968,-37.34"
       style="fill:none;stroke:#d40000;stroke-width:1.2;stroke-linecap:butt;stroke-linejoin:miter;stroke-miterlimit:4;stroke-dasharray:none;stroke-opacity:1"
       transform="matrix(0.35277776,0,0,-0.35277776,153.6172,70.290644)"
       clip-path="url(#clipPath107)" />
    <path
       id="path108"
       d="M 0,0 5.871,-5.553 3.563,2.191 0,0"
       style="fill:#d40000;fill-opacity:1;fill-rule:nonzero;stroke:none"
       transform="matrix(0.35277776,0,0,-0.35277776,170.99751,91.935677)"
       clip-path="url(#clipPath109-0)" />
    <path
       style="fill:none;stroke:#ff2a2a;stroke-width:1.2;stroke-linecap:butt;stroke-linejoin:miter;stroke-miterlimit:4;stroke-dasharray:none;stroke-opacity:1"
       d="M -53.03,90.232 -43.3,73.113"
       transform="matrix(0.35277776,0,0,-0.35277776,171.88227,91.982241)"
       id="path6" />
    <path
       style="fill:none;stroke:#d40000;stroke-width:1.2;stroke-linecap:butt;stroke-linejoin:miter;stroke-miterlimit:4;stroke-dasharray:none;stroke-opacity:1"
       d="M 0,0 6.47,-10.518"
       transform="matrix(0.35277776,0,0,-0.35277776,171.88227,91.982241)"
       id="path110" />
    <path
       id="path112"
       d="M 0,0 5.675,-5.752 3.636,2.067 0,0"
       style="fill:#ff2a2a;fill-opacity:1;fill-rule:nonzero;stroke:none"
       transform="matrix(0.35277776,0,0,-0.35277776,155.72611,66.111635)"
       clip-path="url(#clipPath113)" />
    <path
       id="path114"
       d="M 0,0 20.332,-35.773 31.967,-67.899"
       style="fill:none;stroke:#ff2a2a;stroke-width:1.2;stroke-linecap:butt;stroke-linejoin:miter;stroke-miterlimit:4;stroke-dasharray:none;stroke-opacity:1"
       transform="matrix(0.35277776,0,0,-0.35277776,156.607,66.189602)"
       clip-path="url(#clipPath115)" />
    <path
       id="path116"
       d="M 0,0 4.625,-6.627 3.933,1.425 0,0"
       style="fill:#ff2a2a;fill-opacity:1;fill-rule:nonzero;stroke:none"
       transform="matrix(0.35277776,0,0,-0.35277776,167.02735,89.916022)"
       clip-path="url(#clipPath117)" />
    <path
       style="fill:none;stroke:#aa0000;stroke-width:1.2;stroke-linecap:butt;stroke-linejoin:miter;stroke-miterlimit:4;stroke-dasharray:none;stroke-opacity:1"
       d="m -64.447,32.126 h 24.5"
       transform="matrix(0.35277776,0,0,-0.35277776,167.88424,90.14286)"
       id="path7" />
    <path
       style="fill:none;stroke:#ff2a2a;stroke-width:1.2;stroke-linecap:butt;stroke-linejoin:miter;stroke-miterlimit:4;stroke-dasharray:none;stroke-opacity:1"
       d="M 0,0 13.303,-36.732"
       transform="matrix(0.35277776,0,0,-0.35277776,167.88424,90.14286)"
       id="path118" />
    <path
       id="path120"
       d="M 0,0 7.806,2.091 0,4.183 V 0"
       style="fill:#aa0000;fill-opacity:1;fill-rule:nonzero;stroke:none"
       transform="matrix(0.35277776,0,0,-0.35277776,153.28841,79.538006)"
       clip-path="url(#clipPath121)" />
    <path
       id="path122"
       d="M 0,0 H 28.312 L 48.477,-22.603"
       style="fill:none;stroke:#aa0000;stroke-width:1.2;stroke-linecap:butt;stroke-linejoin:miter;stroke-miterlimit:4;stroke-dasharray:none;stroke-opacity:1"
       transform="matrix(0.35277776,0,0,-0.35277776,153.79183,78.80952)"
       clip-path="url(#clipPath123)" />
    <path
       id="path124"
       d="M 0,0 6.756,-4.432 3.121,2.785 0,0"
       style="fill:#aa0000;fill-opacity:1;fill-rule:nonzero;stroke:none"
       transform="matrix(0.35277776,0,0,-0.35277776,170.01431,86.893425)"
       clip-path="url(#clipPath125)" />
    <path
       style="fill:none;stroke:#ff5555;stroke-width:1.2;stroke-linecap:butt;stroke-linejoin:miter;stroke-miterlimit:4;stroke-dasharray:none;stroke-opacity:1"
       d="m -30.227,83.995 3.643,-22.227"
       transform="matrix(0.35277776,0,0,-0.35277776,170.89344,86.783353)"
       id="path5" />
    <path
       style="fill:none;stroke:#aa0000;stroke-width:1.2;stroke-linecap:butt;stroke-linejoin:miter;stroke-miterlimit:4;stroke-dasharray:none;stroke-opacity:1"
       d="M 0,0 20.523,-23.005"
       transform="matrix(0.35277776,0,0,-0.35277776,170.89344,86.783353)"
       id="path126" />
    <path
       id="path128"
       d="M 0,0 3.326,-7.365 4.128,0.676 0,0"
       style="fill:#ff5555;fill-opacity:1;fill-rule:nonzero;stroke:none"
       transform="matrix(0.35277776,0,0,-0.35277776,160.71545,64.614799)"
       clip-path="url(#clipPath129)" />
    <path
       id="path130"
       d="M 0,0 6.419,-39.165 12.125,-84.49"
       style="fill:none;stroke:#ff5555;stroke-width:1.2;stroke-linecap:butt;stroke-linejoin:miter;stroke-miterlimit:4;stroke-dasharray:none;stroke-opacity:1"
       transform="matrix(0.35277776,0,0,-0.35277776,161.51519,64.992979)"
       clip-path="url(#clipPath131)" />
    <path
       id="path132"
       d="M 0,0 3.05,-7.483 4.15,0.523 0,0"
       style="fill:#ff5555;fill-opacity:1;fill-rule:nonzero;stroke:none"
       transform="matrix(0.35277776,0,0,-0.35277776,165.00769,94.391362)"
       clip-path="url(#clipPath133)" />
    <path
       id="path134"
       d="M 0,0 1.232,-9.783"
       style="fill:#ff5555;stroke:#ff5555;stroke-width:1.2;stroke-linecap:butt;stroke-linejoin:miter;stroke-miterlimit:4;stroke-dasharray:none;stroke-opacity:1"
       transform="matrix(0.35277776,0,0,-0.35277776,165.79263,94.79917)"
       clip-path="url(#clipPath135)" />
  </g>
</svg>
