<?xml version="1.0" encoding="UTF-8" standalone="no"?>
<!-- Created with Inkscape (http://www.inkscape.org/) -->

<svg
   width="210mm"
   height="297mm"
   viewBox="0 0 210 297"
   version="1.1"
   id="svg1"
   sodipodi:docname="schema2.svg"
   inkscape:version="1.3.2 (1:1.3.2+202311252150+091e20ef0f)"
   xml:space="preserve"
   xmlns:inkscape="http://www.inkscape.org/namespaces/inkscape"
   xmlns:sodipodi="http://sodipodi.sourceforge.net/DTD/sodipodi-0.dtd"
   xmlns="http://www.w3.org/2000/svg"
   xmlns:svg="http://www.w3.org/2000/svg"><sodipodi:namedview
     id="namedview1"
     pagecolor="#ffffff"
     bordercolor="#000000"
     borderopacity="0.25"
     inkscape:showpageshadow="2"
     inkscape:pageopacity="0.0"
     inkscape:pagecheckerboard="0"
     inkscape:deskcolor="#d1d1d1"
     inkscape:document-units="mm"
     showgrid="true"
     inkscape:zoom="0.73228114"
     inkscape:cx="288.8235"
     inkscape:cy="396.02276"
     inkscape:window-width="1920"
     inkscape:window-height="1008"
     inkscape:window-x="0"
     inkscape:window-y="0"
     inkscape:window-maximized="1"
     inkscape:current-layer="layer1"><inkscape:grid
       id="grid1"
       units="mm"
       originx="0"
       originy="0"
       spacingx="0.99999998"
       spacingy="1"
       empcolor="#0099e5"
       empopacity="0.30196078"
       color="#0099e5"
       opacity="0.14901961"
       empspacing="5"
       dotted="false"
       gridanglex="30"
       gridanglez="30"
       visible="true" /></sodipodi:namedview><defs
     id="defs1"><marker
       style="overflow:visible"
       id="Triangle"
       refX="0"
       refY="0"
       orient="auto-start-reverse"
       inkscape:stockid="Triangle arrow"
       markerWidth="1"
       markerHeight="1"
       viewBox="0 0 1 1"
       inkscape:isstock="true"
       inkscape:collect="always"
       preserveAspectRatio="xMidYMid"><path
         transform="scale(0.5)"
         style="fill:context-stroke;fill-rule:evenodd;stroke:context-stroke;stroke-width:1pt"
         d="M 5.77,0 -2.88,5 V -5 Z"
         id="path135" /></marker><marker
       style="overflow:visible"
       id="Triangle-0"
       refX="0"
       refY="0"
       orient="auto-start-reverse"
       inkscape:stockid="Triangle arrow"
       markerWidth="1"
       markerHeight="1"
       viewBox="0 0 1 1"
       inkscape:isstock="true"
       inkscape:collect="always"
       preserveAspectRatio="xMidYMid"><path
         transform="scale(0.5)"
         style="fill:context-stroke;fill-rule:evenodd;stroke:context-stroke;stroke-width:1pt"
         d="M 5.77,0 -2.88,5 V -5 Z"
         id="path135-6" /></marker><marker
       style="overflow:visible"
       id="Triangle-9"
       refX="0"
       refY="0"
       orient="auto-start-reverse"
       inkscape:stockid="Triangle arrow"
       markerWidth="1"
       markerHeight="1"
       viewBox="0 0 1 1"
       inkscape:isstock="true"
       inkscape:collect="always"
       preserveAspectRatio="xMidYMid"><path
         transform="scale(0.5)"
         style="fill:context-stroke;fill-rule:evenodd;stroke:context-stroke;stroke-width:1pt"
         d="M 5.77,0 -2.88,5 V -5 Z"
         id="path135-7" /></marker><marker
       style="overflow:visible"
       id="Triangle-0-3"
       refX="0"
       refY="0"
       orient="auto-start-reverse"
       inkscape:stockid="Triangle arrow"
       markerWidth="1"
       markerHeight="1"
       viewBox="0 0 1 1"
       inkscape:isstock="true"
       inkscape:collect="always"
       preserveAspectRatio="xMidYMid"><path
         transform="scale(0.5)"
         style="fill:context-stroke;fill-rule:evenodd;stroke:context-stroke;stroke-width:1pt"
         d="M 5.77,0 -2.88,5 V -5 Z"
         id="path135-6-6" /></marker><marker
       style="overflow:visible"
       id="Triangle-9-1"
       refX="0"
       refY="0"
       orient="auto-start-reverse"
       inkscape:stockid="Triangle arrow"
       markerWidth="1"
       markerHeight="1"
       viewBox="0 0 1 1"
       inkscape:isstock="true"
       inkscape:collect="always"
       preserveAspectRatio="xMidYMid"><path
         transform="scale(0.5)"
         style="fill:context-stroke;fill-rule:evenodd;stroke:context-stroke;stroke-width:1pt"
         d="M 5.77,0 -2.88,5 V -5 Z"
         id="path135-7-9" /></marker><marker
       style="overflow:visible"
       id="Triangle-0-3-4"
       refX="0"
       refY="0"
       orient="auto-start-reverse"
       inkscape:stockid="Triangle arrow"
       markerWidth="1"
       markerHeight="1"
       viewBox="0 0 1 1"
       inkscape:isstock="true"
       inkscape:collect="always"
       preserveAspectRatio="xMidYMid"><path
         transform="scale(0.5)"
         style="fill:context-stroke;fill-rule:evenodd;stroke:context-stroke;stroke-width:1pt"
         d="M 5.77,0 -2.88,5 V -5 Z"
         id="path135-6-6-7" /></marker><marker
       style="overflow:visible"
       id="Triangle-4"
       refX="0"
       refY="0"
       orient="auto-start-reverse"
       inkscape:stockid="Triangle arrow"
       markerWidth="1"
       markerHeight="1"
       viewBox="0 0 1 1"
       inkscape:isstock="true"
       inkscape:collect="always"
       preserveAspectRatio="xMidYMid"><path
         transform="scale(0.5)"
         style="fill:context-stroke;fill-rule:evenodd;stroke:context-stroke;stroke-width:1pt"
         d="M 5.77,0 -2.88,5 V -5 Z"
         id="path135-74" /></marker><marker
       style="overflow:visible"
       id="Triangle-0-4"
       refX="0"
       refY="0"
       orient="auto-start-reverse"
       inkscape:stockid="Triangle arrow"
       markerWidth="1"
       markerHeight="1"
       viewBox="0 0 1 1"
       inkscape:isstock="true"
       inkscape:collect="always"
       preserveAspectRatio="xMidYMid"><path
         transform="scale(0.5)"
         style="fill:context-stroke;fill-rule:evenodd;stroke:context-stroke;stroke-width:1pt"
         d="M 5.77,0 -2.88,5 V -5 Z"
         id="path135-6-3" /></marker><marker
       style="overflow:visible"
       id="Triangle-4-1"
       refX="0"
       refY="0"
       orient="auto-start-reverse"
       inkscape:stockid="Triangle arrow"
       markerWidth="1"
       markerHeight="1"
       viewBox="0 0 1 1"
       inkscape:isstock="true"
       inkscape:collect="always"
       preserveAspectRatio="xMidYMid"><path
         transform="scale(0.5)"
         style="fill:context-stroke;fill-rule:evenodd;stroke:context-stroke;stroke-width:1pt"
         d="M 5.77,0 -2.88,5 V -5 Z"
         id="path135-74-1" /></marker><marker
       style="overflow:visible"
       id="Triangle-0-4-5"
       refX="0"
       refY="0"
       orient="auto-start-reverse"
       inkscape:stockid="Triangle arrow"
       markerWidth="1"
       markerHeight="1"
       viewBox="0 0 1 1"
       inkscape:isstock="true"
       inkscape:collect="always"
       preserveAspectRatio="xMidYMid"><path
         transform="scale(0.5)"
         style="fill:context-stroke;fill-rule:evenodd;stroke:context-stroke;stroke-width:1pt"
         d="M 5.77,0 -2.88,5 V -5 Z"
         id="path135-6-3-9" /></marker></defs><g
     inkscape:label="Calque 1"
     inkscape:groupmode="layer"
     id="layer1"><path
       style="fill:#000000;stroke-width:0.551;stroke-linecap:round;stroke-linejoin:round;stroke:#000000;marker-end:url(#Triangle)"
       d="m 25,119.99999 h 90"
       id="path1"
       inkscape:export-filename="q2.pdf"
       inkscape:export-xdpi="96"
       inkscape:export-ydpi="96" /><path
       style="fill:none;stroke:#000000;stroke-width:0.551;stroke-linecap:round;stroke-linejoin:round;marker-end:url(#Triangle-0);marker-start:url(#Triangle)"
       d="M 195.00001,29.999999 H 105 l 0,39.999999"
       id="path1-6"
       inkscape:export-filename="deph_1.pdf"
       inkscape:export-xdpi="96"
       inkscape:export-ydpi="96" /><path
       style="fill:none;stroke:#008000;stroke-width:0.551;stroke-linecap:round;stroke-linejoin:round;marker-start:url(#Triangle-9);marker-end:url(#Triangle-0-3)"
       d="m 198.54637,135.43502 -67.48803,-0.0517 V 95.383324"
       id="path1-6-2"
       sodipodi:nodetypes="ccc"
       inkscape:export-filename="resonance.pdf"
       inkscape:export-xdpi="96"
       inkscape:export-ydpi="96" /><path
       style="fill:none;stroke:#ff7f2a;stroke-width:0.551;stroke-linecap:round;stroke-linejoin:round;marker-start:url(#Triangle-9-1);marker-end:url(#Triangle-0-3-4)"
       d="m 16.38985,134.73415 -67.48803,-0.0517 V 94.682462"
       id="path1-6-2-4"
       sodipodi:nodetypes="ccc" /><path
       style="fill:#000000;stroke:#000000;stroke-width:0.551;stroke-linecap:round;stroke-linejoin:round;stroke-dasharray:0.551, 1.653;stroke-dashoffset:0"
       d="m 65.000001,99.999997 0,20.000003"
       id="path2"
       sodipodi:nodetypes="cc" /><path
       style="fill:#000000;stroke:#000000;stroke-width:0.551;stroke-linecap:round;stroke-linejoin:round;stroke-dasharray:0.551, 1.653;stroke-dashoffset:0"
       d="m 85.000002,120 0,19.99999"
       id="path2-5"
       sodipodi:nodetypes="cc" /><path
       style="fill:#000000;stroke:#000000;stroke-width:0.551;stroke-linecap:round;stroke-linejoin:round;stroke-dasharray:0.551, 1.653;stroke-dashoffset:0"
       d="m 150,24.999999 0,24.999995"
       id="path2-5-9"
       sodipodi:nodetypes="cc" /><path
       style="fill:#000000;stroke:#000000;stroke-width:0.551;stroke-linecap:round;stroke-linejoin:round;stroke-dasharray:0.551, 1.653;stroke-dashoffset:0"
       d="m 105,49.999999 h 45"
       id="path2-5-9-3"
       sodipodi:nodetypes="cc" /><text
       xml:space="preserve"
       style="font-size:5.29167px;font-family:arial;-inkscape-font-specification:arial;text-align:center;text-anchor:middle;fill:#ff7f2a;stroke:none;stroke-width:0.551;stroke-linecap:round;stroke-linejoin:round;stroke-dasharray:0.551, 1.653;stroke-dashoffset:0"
       x="55"
       y="130"
       id="text2"><tspan
         sodipodi:role="line"
         id="tspan2"
         style="stroke-width:0.551;stroke:none;fill:#ff7f2a"
         x="55"
         y="130">Pas de résonance</tspan></text><text
       xml:space="preserve"
       style="font-size:5.29167px;font-family:arial;-inkscape-font-specification:arial;text-align:center;text-anchor:middle;fill:#008000;stroke:none;stroke-width:0.551;stroke-linecap:round;stroke-linejoin:round;stroke-dasharray:0.551, 1.653;stroke-dashoffset:0"
       x="102.3451"
       y="130"
       id="text2-2"><tspan
         sodipodi:role="line"
         id="tspan2-9"
         style="stroke:none;stroke-width:0.551;fill:#008000"
         x="102.3451"
         y="130">Résonance</tspan></text><text
       xml:space="preserve"
       style="font-size:5.29167px;font-family:arial;-inkscape-font-specification:arial;text-align:center;text-anchor:middle;fill:#000000;stroke:none;stroke-width:0.551;stroke-linecap:round;stroke-linejoin:round;stroke-dasharray:0.551, 1.653;stroke-dashoffset:0"
       x="91.81739"
       y="108.09184"
       id="text3"><tspan
         sodipodi:role="line"
         id="tspan3"
         style="stroke-width:0.551"
         x="91.81739"
         y="108.09184">Régime </tspan><tspan
         sodipodi:role="line"
         style="stroke-width:0.551"
         x="91.81739"
         y="114.70643"
         id="tspan4">pseudo-périodique</tspan></text><text
       xml:space="preserve"
       style="font-size:5.29167px;font-family:arial;-inkscape-font-specification:arial;text-align:center;text-anchor:middle;fill:#000000;stroke:none;stroke-width:0.551;stroke-linecap:round;stroke-linejoin:round;stroke-dasharray:0.551, 1.653;stroke-dashoffset:0"
       x="46.507156"
       y="108.09184"
       id="text5"><tspan
         sodipodi:role="line"
         id="tspan5"
         style="stroke-width:0.551"
         x="46.507156"
         y="108.09184">Régime </tspan><tspan
         sodipodi:role="line"
         style="stroke-width:0.551"
         x="46.507156"
         y="114.70643"
         id="tspan6">apériodique</tspan></text><text
       xml:space="preserve"
       style="font-size:5.29167px;font-family:arial;-inkscape-font-specification:arial;text-align:center;text-anchor:middle;fill:#000000;stroke:none;stroke-width:0.551;stroke-linecap:round;stroke-linejoin:round;stroke-dasharray:0.551, 1.653;stroke-dashoffset:0"
       x="20.136053"
       y="121.62296"
       id="text7"><tspan
         sodipodi:role="line"
         id="tspan7"
         style="stroke-width:0.551"
         x="20.136053"
         y="121.62296">Q</tspan></text><text
       xml:space="preserve"
       style="font-size:5.29167px;font-family:arial;-inkscape-font-specification:arial;text-align:center;text-anchor:middle;fill:#000000;stroke:none;stroke-width:0.551;stroke-linecap:round;stroke-linejoin:round;stroke-dasharray:0.551, 1.653;stroke-dashoffset:0"
       x="65"
       y="98.941666"
       id="text8"><tspan
         sodipodi:role="line"
         id="tspan8"
         style="stroke-width:0.551"
         x="65"
         y="98.941666">1/2</tspan></text><text
       xml:space="preserve"
       style="font-size:5.29167px;font-family:arial;-inkscape-font-specification:arial;text-align:center;text-anchor:middle;fill:#000000;stroke:none;stroke-width:0.551;stroke-linecap:round;stroke-linejoin:round;stroke-dasharray:0.551, 1.653;stroke-dashoffset:0"
       x="85"
       y="145"
       id="text8-0"><tspan
         sodipodi:role="line"
         id="tspan8-9"
         style="stroke-width:0.551"
         x="85"
         y="145">1/(2)<tspan
   style="font-size:65%;baseline-shift:super"
   id="tspan9">0.5</tspan></tspan></text><path
       style="fill:none;stroke:#008000;stroke-width:0.551;stroke-linecap:round;stroke-linejoin:round;stroke-dasharray:none;stroke-dashoffset:0"
       d="m 105,29.999998 h 45"
       id="path9" /><path
       style="fill:none;stroke:#008000;stroke-width:0.551;stroke-linecap:round;stroke-linejoin:round;stroke-dasharray:none;stroke-dashoffset:0"
       d="m 150,49.999999 h 45"
       id="path9-2" /><text
       xml:space="preserve"
       style="font-size:5.29167px;font-family:arial;-inkscape-font-specification:arial;text-align:center;text-anchor:middle;fill:none;stroke:#008000;stroke-width:0.551;stroke-linecap:round;stroke-linejoin:round;stroke-dasharray:none;stroke-dashoffset:0"
       x="100.42976"
       y="51.092632"
       id="text10"><tspan
         sodipodi:role="line"
         id="tspan10"
         style="fill:#000000;stroke:none;stroke-width:0.551"
         x="100.42976"
         y="51.092632">-pi</tspan></text><text
       xml:space="preserve"
       style="font-size:5.29167px;font-family:arial;-inkscape-font-specification:arial;text-align:center;text-anchor:middle;fill:#000000;stroke:none;stroke-width:0.551;stroke-linecap:round;stroke-linejoin:round;stroke-dasharray:none;stroke-dashoffset:0"
       x="150.34268"
       y="21.598803"
       id="text11"><tspan
         sodipodi:role="line"
         id="tspan11"
         style="stroke-width:0.551"
         x="150.34268"
         y="21.598803"> ω<tspan
   style="font-size:65%;baseline-shift:sub"
   id="tspan12">0</tspan></tspan></text><text
       xml:space="preserve"
       style="font-size:5.29167px;font-family:arial;-inkscape-font-specification:arial;text-align:center;text-anchor:middle;fill:#000000;stroke:none;stroke-width:0.551;stroke-linecap:round;stroke-linejoin:round;stroke-dasharray:none;stroke-dashoffset:0"
       x="120"
       y="70"
       id="text13"><tspan
         sodipodi:role="line"
         id="tspan13"
         style="stroke-width:0.551"
         x="120"
         y="70">Dephasage</tspan></text><text
       xml:space="preserve"
       style="font-size:5.29167px;font-family:arial;-inkscape-font-specification:arial;text-align:center;text-anchor:middle;fill:#000000;stroke:none;stroke-width:0.551;stroke-linecap:round;stroke-linejoin:round;stroke-dasharray:none;stroke-dashoffset:0"
       x="200.5246"
       y="30.603514"
       id="text14"><tspan
         sodipodi:role="line"
         id="tspan14"
         style="stroke-width:0.551"
         x="200.5246"
         y="30.603514"> ω<tspan
   style="font-size:65%;baseline-shift:sub"
   id="tspan15">e</tspan></tspan></text><path
       style="fill:none;stroke:#000000;stroke-width:0.551;stroke-linecap:round;stroke-linejoin:round;marker-start:url(#Triangle-4);marker-end:url(#Triangle-0-4)"
       d="M 185.00001,194.99999 H 95.000002 v 40"
       id="path1-6-7"
       inkscape:export-filename="deph-2.pdf"
       inkscape:export-xdpi="96"
       inkscape:export-ydpi="96" /><path
       style="fill:#000000;stroke:#000000;stroke-width:0.551;stroke-linecap:round;stroke-linejoin:round;stroke-dasharray:0.551, 1.653;stroke-dashoffset:0"
       d="m 140.00001,189.99999 v 24.99999"
       id="path2-5-9-8"
       sodipodi:nodetypes="cc" /><path
       style="fill:#000000;stroke:#000000;stroke-width:0.551;stroke-linecap:round;stroke-linejoin:round;stroke-dasharray:0.551, 1.653;stroke-dashoffset:0"
       d="M 95.000002,214.99999 H 140.00001"
       id="path2-5-9-3-6"
       sodipodi:nodetypes="cc" /><text
       xml:space="preserve"
       style="font-size:5.29167px;font-family:arial;-inkscape-font-specification:arial;text-align:center;text-anchor:middle;fill:none;stroke:#008000;stroke-width:0.551;stroke-linecap:round;stroke-linejoin:round;stroke-dasharray:none;stroke-dashoffset:0"
       x="88.842262"
       y="216.6218"
       id="text10-4"><tspan
         sodipodi:role="line"
         id="tspan10-3"
         style="fill:#000000;stroke:none;stroke-width:0.551"
         x="88.842262"
         y="216.6218">-π/2</tspan></text><text
       xml:space="preserve"
       style="font-size:5.29167px;font-family:arial;-inkscape-font-specification:arial;text-align:center;text-anchor:middle;fill:none;stroke:#008000;stroke-width:0.551;stroke-linecap:round;stroke-linejoin:round;stroke-dasharray:none;stroke-dashoffset:0"
       x="90.156212"
       y="236.01312"
       id="text10-4-9"><tspan
         sodipodi:role="line"
         id="tspan10-3-1"
         style="fill:#000000;stroke:none;stroke-width:0.551"
         x="90.156212"
         y="236.01312">-π</tspan></text><text
       xml:space="preserve"
       style="font-size:5.29167px;font-family:arial;-inkscape-font-specification:arial;text-align:center;text-anchor:middle;fill:#000000;stroke:none;stroke-width:0.551;stroke-linecap:round;stroke-linejoin:round;stroke-dasharray:none;stroke-dashoffset:0"
       x="140.34268"
       y="186.5988"
       id="text11-1"><tspan
         sodipodi:role="line"
         id="tspan11-4"
         style="stroke-width:0.551"
         x="140.34268"
         y="186.5988">1</tspan></text><text
       xml:space="preserve"
       style="font-size:5.29167px;font-family:arial;-inkscape-font-specification:arial;text-align:center;text-anchor:middle;fill:#000000;stroke:none;stroke-width:0.551;stroke-linecap:round;stroke-linejoin:round;stroke-dasharray:none;stroke-dashoffset:0"
       x="80.005257"
       y="202.04993"
       id="text13-2"><tspan
         sodipodi:role="line"
         id="tspan13-0"
         style="stroke-width:0.551"
         x="80.005257"
         y="202.04993">Dephasage</tspan></text><text
       xml:space="preserve"
       style="font-size:5.29167px;font-family:arial;-inkscape-font-specification:arial;text-align:center;text-anchor:middle;fill:#000000;stroke:none;stroke-width:0.551;stroke-linecap:round;stroke-linejoin:round;stroke-dasharray:none;stroke-dashoffset:0"
       x="190.5246"
       y="195.60352"
       id="text14-6"><tspan
         sodipodi:role="line"
         id="tspan14-8"
         style="stroke-width:0.551"
         x="190.5246"
         y="195.60352">u</tspan></text><path
       style="fill:none;stroke:#000000;stroke-width:0.551;stroke-linecap:round;stroke-linejoin:round;stroke-dasharray:none;stroke-dashoffset:0"
       d="m 131.05834,120.38332 c 0,0 10,0 11.18875,-3.89552 0.0531,-0.17395 1.21349,-4.28566 2.99703,-11.10448 0.45035,-1.72179 0.81422,-3 1.87255,-5.00001 1.01977,-1.927131 1.94167,-3.999976 4.07124,-3.304176 1.36286,0.44529 2.10363,2.026302 2.75376,3.304176 2.65586,5.22033 2.48911,16.26563 5,20 2.30247,3.42439 7.2646,7.2614 11.05834,8.88479 4.67084,1.99871 11.04415,1.88443 16.05833,2.70271 6.64967,1.08518 10,2.41251 10,2.41251"
       id="path15"
       sodipodi:nodetypes="cssssssssc" /><path
       style="fill:none;stroke:#000000;stroke-width:0.551;stroke-linecap:round;stroke-linejoin:round;stroke-dasharray:none;stroke-dashoffset:0"
       d="m -51.09818,119.68245 c 25,0 27.11171,10 54.999998,11.5875 6.72675,0.38291 10.000002,2.41251 10.000002,2.41251"
       id="path15-6"
       sodipodi:nodetypes="csc" /><text
       xml:space="preserve"
       style="font-size:5.29167px;font-family:arial;-inkscape-font-specification:arial;text-align:center;text-anchor:middle;fill:none;stroke:#000000;stroke-width:0.551;stroke-linecap:round;stroke-linejoin:round;stroke-dasharray:none;stroke-dashoffset:0"
       x="127.28306"
       y="102.40266"
       id="text16"><tspan
         sodipodi:role="line"
         id="tspan16"
         style="fill:#000000;stroke:none;stroke-width:0.551"
         x="127.28306"
         y="102.40266">X<tspan
   style="font-size:65%;baseline-shift:sub"
   id="tspan17">m</tspan></tspan></text><text
       xml:space="preserve"
       style="font-size:5.29167px;font-family:arial;-inkscape-font-specification:arial;text-align:center;text-anchor:middle;fill:none;stroke:#000000;stroke-width:0.551;stroke-linecap:round;stroke-linejoin:round;stroke-dasharray:none;stroke-dashoffset:0"
       x="-55.375732"
       y="101.70181"
       id="text16-3"><tspan
         sodipodi:role="line"
         id="tspan16-2"
         style="fill:#000000;stroke:none;stroke-width:0.551"
         x="-55.375732"
         y="101.70181">X<tspan
   style="font-size:65%;baseline-shift:sub"
   id="tspan17-0">m</tspan></tspan></text><text
       xml:space="preserve"
       style="font-size:5.29167px;font-family:arial;-inkscape-font-specification:arial;text-align:center;text-anchor:middle;fill:#000000;stroke:none;stroke-width:0.551;stroke-linecap:round;stroke-linejoin:round;stroke-dasharray:none;stroke-dashoffset:0"
       x="-56.37619"
       y="119.40701"
       id="text18"><tspan
         sodipodi:role="line"
         id="tspan18"
         style="stroke-width:0.551"
         x="-56.37619"
         y="119.40701">d<tspan
   style="font-size:65%;baseline-shift:sub"
   id="tspan19">m</tspan></tspan></text><text
       xml:space="preserve"
       style="font-size:5.29167px;font-family:arial;-inkscape-font-specification:arial;text-align:center;text-anchor:middle;fill:#000000;stroke:none;stroke-width:0.551;stroke-linecap:round;stroke-linejoin:round;stroke-dasharray:none;stroke-dashoffset:0"
       x="125.76731"
       y="119.97607"
       id="text18-5"><tspan
         sodipodi:role="line"
         id="tspan18-4"
         style="stroke-width:0.551"
         x="125.76731"
         y="119.97607">d<tspan
   style="font-size:65%;baseline-shift:sub"
   id="tspan19-7">m</tspan></tspan></text><path
       style="fill:#000000;stroke:#000000;stroke-width:0.551;stroke-linecap:round;stroke-linejoin:round;stroke-dasharray:0.551, 2.204;stroke-dashoffset:0"
       d="M 150,90.383334 V 135.38331"
       id="path19" /><path
       style="fill:#000000;stroke-width:0.26565"
       d="m 140.67909,143.5063 c -0.29542,-1.03057 -0.53996,-1.87729 -0.54342,-1.88158 -0.003,-0.004 -0.0727,0.0728 -0.15399,0.17138 -0.13999,0.16982 -0.19142,0.20197 -0.21412,0.13386 -0.0123,-0.0369 0.61481,-0.77322 0.63156,-0.74158 0.007,0.0125 0.234,0.79789 0.50527,1.7453 0.27128,0.94741 0.50193,1.71272 0.51257,1.7007 0.0107,-0.012 0.56365,-1.74213 1.22891,-3.84467 0.66526,-2.10255 1.21904,-3.82958 1.23064,-3.83787 0.0116,-0.008 3.62754,-0.0116 8.03544,-0.007 l 8.01436,0.008 v 0.09 0.09 l -7.96533,0.008 -7.96533,0.008 -1.15497,3.6422 c -0.63523,2.00322 -1.22321,3.85555 -1.30662,4.1163 -0.14744,0.46094 -0.15395,0.47409 -0.23474,0.47409 h -0.0831 z m 15.55407,0.9649 c -0.0862,-0.0417 -0.15977,-0.22982 -0.15976,-0.40864 l 1e-5,-0.14237 h -0.32359 c -0.31053,0 -0.33117,-0.004 -0.5111,-0.10169 -0.30829,-0.16719 -0.4579,-0.41949 -0.459,-0.77405 -0.003,-0.82917 0.91587,-1.60537 1.73379,-1.46527 0.61396,0.10517 0.91501,0.70011 0.67533,1.33462 -0.12648,0.33482 -0.49801,0.72383 -0.83701,0.87639 -0.14219,0.064 -0.14598,0.0737 -0.0853,0.21885 0.0439,0.10495 0.12442,0.16701 0.21682,0.16701 0.11351,0 0.317,-0.1278 0.36552,-0.22956 0.0502,-0.10534 0.12758,-0.13762 0.12758,-0.0532 0,0.0743 -0.14528,0.34794 -0.23544,0.44353 -0.15182,0.16094 -0.34637,0.21244 -0.50782,0.13443 z m -0.20134,-0.67695 c 0.0361,-0.0138 0.0438,-0.0442 0.0312,-0.12201 -0.009,-0.057 -0.0327,-0.12269 -0.0521,-0.14605 -0.0531,-0.064 -0.24768,-0.0526 -0.33987,0.0199 -0.0937,0.0737 -0.10806,0.21801 -0.0266,0.26792 0.0507,0.0311 0.28613,0.019 0.38736,-0.0198 z m -0.53034,-0.10282 c 0,-0.066 0.03,-0.12329 0.10234,-0.19566 0.0836,-0.0836 0.12527,-0.10235 0.22774,-0.10235 0.17175,0 0.23744,0.0426 0.30658,0.19893 l 0.0591,0.13356 0.0917,-0.0534 c 0.14502,-0.0844 0.40374,-0.38156 0.48882,-0.56142 0.25756,-0.54443 0.21693,-1.12041 -0.0935,-1.32586 -0.44615,-0.29525 -1.12582,0.006 -1.42429,0.63147 -0.25925,0.5432 -0.21763,1.07445 0.10195,1.30149 0.12304,0.0874 0.13962,0.0842 0.13962,-0.0268 z m -2.649,0.13093 c -7e-5,-0.029 0.21519,-0.26263 0.47836,-0.51924 0.55333,-0.53954 0.64716,-0.68109 0.64854,-0.97828 0.001,-0.20861 -0.0565,-0.32793 -0.20776,-0.43159 -0.195,-0.13361 -0.46991,-0.11113 -0.64538,0.0528 -0.11035,0.10307 -0.11742,0.15815 -0.0255,0.19859 0.12257,0.0539 0.10606,0.27107 -0.0231,0.30348 -0.11544,0.029 -0.22522,-0.0574 -0.22441,-0.17664 0.003,-0.37138 0.41878,-0.64729 0.85491,-0.56667 0.0915,0.0169 0.20395,0.0504 0.24988,0.0745 0.11291,0.0591 0.26836,0.22562 0.30744,0.32927 0.0461,0.12216 0.0393,0.33606 -0.0147,0.46557 -0.062,0.14867 -0.16121,0.24889 -0.65784,0.66459 l -0.41856,0.35035 0.42651,0.008 c 0.24282,0.005 0.45062,-0.005 0.48247,-0.0216 0.031,-0.0166 0.0713,-0.0909 0.0903,-0.16638 0.0342,-0.13597 0.1238,-0.19513 0.1238,-0.0818 0,0.0524 -0.0456,0.33793 -0.0766,0.47962 l -0.0148,0.0677 h -0.6767 c -0.62436,0 -0.67671,-0.004 -0.67682,-0.0527 z m 4.87646,-0.95132 c 0,-0.0224 0.14758,-0.16481 0.32795,-0.31643 0.18037,-0.15162 0.37598,-0.32884 0.43469,-0.39383 0.23323,-0.25815 0.21382,-0.52922 -0.0472,-0.65897 -0.16363,-0.0813 -0.30739,-0.0719 -0.47694,0.0312 l -0.10261,0.0624 0.0675,0.0448 c 0.1203,0.0799 0.0709,0.24818 -0.0729,0.24818 -0.16305,0 -0.16023,-0.24223 0.004,-0.38686 0.13693,-0.12023 0.29036,-0.16569 0.49618,-0.14703 0.32792,0.0297 0.54242,0.20864 0.54266,0.45261 2.1e-4,0.21779 -0.083,0.31368 -0.56557,0.65165 -0.15243,0.10675 -0.27714,0.20496 -0.27714,0.21823 0,0.0292 0.41985,0.029 0.58511,-2.7e-4 0.10149,-0.018 0.12218,-0.0351 0.14383,-0.11867 0.0353,-0.13642 0.12753,-0.13624 0.10299,2.1e-4 -0.01,0.0538 -0.0265,0.1554 -0.0373,0.22576 l -0.0197,0.12793 h -0.55302 c -0.44506,0 -0.55302,-0.008 -0.55302,-0.0408 z m -13.33469,-0.69803 c 0,-0.0641 0.0138,-0.0683 0.25437,-0.0784 0.15536,-0.006 0.26959,-0.0259 0.29348,-0.0497 0.0306,-0.0306 0.041,-0.31782 0.0476,-1.31691 0.005,-0.74909 -0.003,-1.27781 -0.0188,-1.27781 -0.015,0 -0.0798,0.0183 -0.14392,0.0406 -0.0642,0.0224 -0.19455,0.0496 -0.28974,0.0605 -0.16778,0.0192 -0.17308,0.0177 -0.17308,-0.0518 0,-0.0652 0.0162,-0.0735 0.18127,-0.0921 0.23075,-0.0261 0.38698,-0.0815 0.55443,-0.19676 0.24469,-0.16835 0.22752,-0.27015 0.22752,1.34964 0,1.30347 0.005,1.4451 0.0497,1.48246 0.0306,0.0254 0.14663,0.0454 0.30101,0.0519 0.23791,0.01 0.25126,0.0142 0.25126,0.0788 v 0.0682 l -0.76757,-5.3e-4 -0.76757,-5.3e-4 z m 3.40172,-1.05182 c -0.0204,-0.0246 -0.0293,-0.0653 -0.0197,-0.0903 0.0152,-0.0397 0.19735,-0.0455 1.43411,-0.0455 1.23676,0 1.41885,0.006 1.4341,0.0455 0.01,0.025 8e-4,0.0657 -0.0197,0.0903 -0.0559,0.0674 -2.77294,0.0674 -2.82885,0 z m 4.87602,-0.0455 v -0.0903 h 3.35625 3.35625 v 0.0903 0.0903 h -3.35625 -3.35625 z m 2.79939,-0.75253 c 0,-0.053 0.02,-0.0602 0.16753,-0.0602 0.30361,0 0.28398,0.0654 0.28398,-0.94629 v -0.88397 l -0.14024,0.0422 c -0.0771,0.0232 -0.18549,0.0422 -0.24081,0.0422 -0.0805,0 -0.10056,-0.012 -0.10056,-0.0602 0,-0.0495 0.0201,-0.0602 0.11287,-0.0604 0.1582,-2.4e-4 0.31242,-0.0479 0.44431,-0.13745 0.1997,-0.13551 0.19534,-0.15669 0.19534,0.94834 0,1.13599 -0.0216,1.05553 0.28398,1.05553 0.14746,0 0.16753,0.007 0.16753,0.0602 0,0.0582 -0.0201,0.0602 -0.58697,0.0602 -0.5669,0 -0.58696,-0.002 -0.58696,-0.0602 z"
       id="path20"
       sodipodi:nodetypes="sssssssssccccccssscssscsscsssssssssssssssssssscsssssscscsssscsssssccsssscsccssssscssssssscssscssssscssssssssssscccssssscsscccccccccssscssssssssss" /><text
       xml:space="preserve"
       style="font-size:5.29167px;font-family:arial;-inkscape-font-specification:arial;text-align:center;text-anchor:middle;fill:#000000;stroke:none;stroke-width:0.551;stroke-linecap:round;stroke-linejoin:round;stroke-dasharray:0.551, 2.204;stroke-dashoffset:0"
       x="203.07288"
       y="136.94284"
       id="text20"><tspan
         sodipodi:role="line"
         id="tspan20"
         x="203.07288"
         y="136.94284"
         style="stroke:none;stroke-width:0.551">u</tspan></text><text
       xml:space="preserve"
       style="font-size:5.29167px;font-family:arial;-inkscape-font-specification:arial;text-align:center;text-anchor:middle;fill:#000000;stroke:none;stroke-width:0.551;stroke-linecap:round;stroke-linejoin:round;stroke-dasharray:0.551, 2.204;stroke-dashoffset:0"
       x="21.248978"
       y="136.37764"
       id="text20-4"><tspan
         sodipodi:role="line"
         id="tspan20-5"
         x="21.248978"
         y="136.37764"
         style="stroke:none;stroke-width:0.551">u</tspan></text><path
       style="fill:none;stroke:#008000;stroke-width:0.551;stroke-linecap:round;stroke-linejoin:round;stroke-dasharray:none;stroke-dashoffset:0"
       d="m 95.000002,194.99999 c 39.706708,3.21554 51.737848,39.64112 94.999998,40"
       id="path21"
       sodipodi:nodetypes="cc" /><path
       style="fill:none;stroke:#000000;stroke-width:0.551;stroke-linecap:round;stroke-linejoin:round;marker-start:url(#Triangle-4-1);marker-end:url(#Triangle-0-4-5)"
       d="M 295.00001,195 H 205 v 40"
       id="path1-6-7-7" /><path
       style="fill:#000000;stroke:#000000;stroke-width:0.551;stroke-linecap:round;stroke-linejoin:round;stroke-dasharray:0.551, 1.653;stroke-dashoffset:0"
       d="m 250.00001,190 v 24.99999"
       id="path2-5-9-8-6"
       sodipodi:nodetypes="cc" /><path
       style="fill:#000000;stroke:#000000;stroke-width:0.551;stroke-linecap:round;stroke-linejoin:round;stroke-dasharray:0.551, 1.653;stroke-dashoffset:0"
       d="m 205,215 h 45.00001"
       id="path2-5-9-3-6-7"
       sodipodi:nodetypes="cc" /><text
       xml:space="preserve"
       style="font-size:5.29167px;font-family:arial;-inkscape-font-specification:arial;text-align:center;text-anchor:middle;fill:none;stroke:#008000;stroke-width:0.551;stroke-linecap:round;stroke-linejoin:round;stroke-dasharray:none;stroke-dashoffset:0"
       x="198.84225"
       y="216.62181"
       id="text10-4-3"><tspan
         sodipodi:role="line"
         id="tspan10-3-6"
         style="fill:#000000;stroke:none;stroke-width:0.551"
         x="198.84225"
         y="216.62181">-π/2</tspan></text><text
       xml:space="preserve"
       style="font-size:5.29167px;font-family:arial;-inkscape-font-specification:arial;text-align:center;text-anchor:middle;fill:none;stroke:#008000;stroke-width:0.551;stroke-linecap:round;stroke-linejoin:round;stroke-dasharray:none;stroke-dashoffset:0"
       x="200.1562"
       y="236.01314"
       id="text10-4-9-5"><tspan
         sodipodi:role="line"
         id="tspan10-3-1-6"
         style="fill:#000000;stroke:none;stroke-width:0.551"
         x="200.1562"
         y="236.01314">-π</tspan></text><text
       xml:space="preserve"
       style="font-size:5.29167px;font-family:arial;-inkscape-font-specification:arial;text-align:center;text-anchor:middle;fill:#000000;stroke:none;stroke-width:0.551;stroke-linecap:round;stroke-linejoin:round;stroke-dasharray:none;stroke-dashoffset:0"
       x="250.34268"
       y="186.59882"
       id="text11-1-3"><tspan
         sodipodi:role="line"
         id="tspan11-4-9"
         style="stroke-width:0.551"
         x="250.34268"
         y="186.59882">1</tspan></text><text
       xml:space="preserve"
       style="font-size:5.29167px;font-family:arial;-inkscape-font-specification:arial;text-align:center;text-anchor:middle;fill:#000000;stroke:none;stroke-width:0.551;stroke-linecap:round;stroke-linejoin:round;stroke-dasharray:none;stroke-dashoffset:0"
       x="190.00525"
       y="202.04994"
       id="text13-2-4"><tspan
         sodipodi:role="line"
         id="tspan13-0-8"
         style="stroke-width:0.551"
         x="190.00525"
         y="202.04994">Dephasage</tspan></text><text
       xml:space="preserve"
       style="font-size:5.29167px;font-family:arial;-inkscape-font-specification:arial;text-align:center;text-anchor:middle;fill:#000000;stroke:none;stroke-width:0.551;stroke-linecap:round;stroke-linejoin:round;stroke-dasharray:none;stroke-dashoffset:0"
       x="300.52457"
       y="195.60353"
       id="text14-6-1"><tspan
         sodipodi:role="line"
         id="tspan14-8-2"
         style="stroke-width:0.551"
         x="300.52457"
         y="195.60353">u</tspan></text><path
       style="fill:none;stroke:#008000;stroke-width:0.551;stroke-linecap:round;stroke-linejoin:round;stroke-dasharray:none;stroke-dashoffset:0"
       d="m 205,195 c 90.00001,0 -3.2563,41.01314 96.5875,40"
       id="path21-9"
       sodipodi:nodetypes="cc" /><text
       xml:space="preserve"
       style="font-size:5.29167px;font-family:arial;-inkscape-font-specification:arial;text-align:center;text-anchor:middle;fill:none;stroke:#008000;stroke-width:0.551;stroke-linecap:round;stroke-linejoin:round;stroke-dasharray:none;stroke-dashoffset:0"
       x="238.47812"
       y="233.21744"
       id="text21"><tspan
         sodipodi:role="line"
         id="tspan21"
         style="fill:#000000;stroke:none;stroke-width:0.551"
         x="238.47812"
         y="233.21744">Si Q &gt;&gt; 1</tspan></text><path
       style="fill:none;stroke:#ff7f2a;stroke-width:0.605;stroke-linecap:round;stroke-linejoin:round;stroke-dasharray:none;marker-end:url(#Triangle-0-3-4)"
       d="m 55,131.82498 c -5.448458,19.42395 -30.692748,19.06563 -45,9.99999"
       id="path3" /><path
       style="fill:none;stroke:#008000;stroke-width:0.604999;stroke-linecap:round;stroke-linejoin:round;stroke-dasharray:none;marker-end:url(#Triangle-0-3-4)"
       d="M 95.000002,135 C 100,150 115,145 130,140"
       id="path4"
       sodipodi:nodetypes="cc" /></g></svg>
