<?xml version="1.0" encoding="UTF-8" standalone="no"?>
<svg
   xmlns:cdml="http://www.freesoftware.fsf.org/bkchem/cdml"
   xmlns:dc="http://purl.org/dc/elements/1.1/"
   xmlns:cc="http://creativecommons.org/ns#"
   xmlns:rdf="http://www.w3.org/1999/02/22-rdf-syntax-ns#"
   xmlns:svg="http://www.w3.org/2000/svg"
   xmlns="http://www.w3.org/2000/svg"
   xmlns:sodipodi="http://sodipodi.sourceforge.net/DTD/sodipodi-0.dtd"
   xmlns:inkscape="http://www.inkscape.org/namespaces/inkscape"
   height="38.93750mm"
   version="1.0"
   viewBox="0 0 155 147"
   width="41.05655mm"
   id="svg2"
   inkscape:version="0.48.0 r9654"
   sodipodi:docname="General_struct_alkene_group.svg">
  <metadata
     id="metadata46">
    <rdf:RDF>
      <cc:Work
         rdf:about="">
        <dc:format>image/svg+xml</dc:format>
        <dc:type
           rdf:resource="http://purl.org/dc/dcmitype/StillImage" />
      </cc:Work>
    </rdf:RDF>
  </metadata>
  <defs
     id="defs44" />
  <sodipodi:namedview
     pagecolor="#ffffff"
     bordercolor="#666666"
     borderopacity="1"
     objecttolerance="10"
     gridtolerance="10"
     guidetolerance="10"
     inkscape:pageopacity="0"
     inkscape:pageshadow="2"
     inkscape:window-width="640"
     inkscape:window-height="480"
     id="namedview42"
     showgrid="false"
     inkscape:zoom="1.8700054"
     inkscape:cx="72.737984"
     inkscape:cy="68.983757"
     inkscape:window-x="0"
     inkscape:window-y="0"
     inkscape:window-maximized="0"
     inkscape:current-layer="g4" />
  <g
     font-family="Helvetica"
     font-size="12pt"
     stroke-linecap="round"
     transform="translate(-222,-163)"
     id="g4">
    <g
       stroke="#000000"
       stroke-width="2.26516853933"
       id="g6">
      <line
         x1="267.15"
         x2="320.00"
         y1="240.00"
         y2="240.00"
         id="line8" />
      <line
         x1="271.11"
         x2="316.04"
         y1="232.07"
         y2="232.07"
         id="line10" />
    </g>
    <g
       stroke="#000000"
       stroke-width="2.26516853933"
       id="g12">
      <line
         x1="267.15"
         x2="248.09"
         y1="240.00"
         y2="207.00"
         id="line14" />
    </g>
    <g
       stroke="#000000"
       stroke-width="2.26516853933"
       id="g16">
      <line
         x1="320.00"
         x2="335.59"
         y1="240.00"
         y2="267.00"
         id="line18" />
    </g>
    <g
       stroke="#000000"
       stroke-width="2.26516853933"
       id="g20">
      <line
         x1="320.00"
         x2="339.05"
         y1="240.00"
         y2="207.00"
         id="line22" />
    </g>
    <g
       stroke="#000000"
       stroke-width="2.26516853933"
       id="g24">
      <line
         x1="267.15"
         x2="251.56"
         y1="240.00"
         y2="267.00"
         id="line26" />
    </g>
    <text
       fill="#000000"
       font-family="Arial"
       font-size="24pt"
       x="228.30"
       y="201.23"
       id="text28">R</text>
    <g
       style="font-size:30px;fill:#000000;font-family:Arial"
       id="text30">
      <path
         d="m 230.6584,292.76999 0,-21.47461 9.52149,0 c 1.91404,2e-5 3.36912,0.19289 4.36523,0.57861 0.99608,0.38577 1.79197,1.06692 2.3877,2.04346 0.59568,0.97658 0.89353,2.05568 0.89355,3.2373 -2e-5,1.52346 -0.49318,2.80763 -1.47949,3.85254 -0.98635,1.04494 -2.50978,1.709 -4.57031,1.99219 0.75193,0.36134 1.32322,0.71778 1.71386,1.06934 0.83006,0.76172 1.6162,1.71387 2.3584,2.85644 l 3.73535,5.84473 -3.57422,0 -2.84179,-4.46777 c -0.8301,-1.28906 -1.51369,-2.27539 -2.05078,-2.95899 -0.53713,-0.68358 -1.01808,-1.1621 -1.44288,-1.43555 -0.42481,-0.27342 -0.85694,-0.46385 -1.29638,-0.57128 -0.32228,-0.0684 -0.84962,-0.10253 -1.58203,-0.10254 l -3.2959,0 0,9.53613 z m 2.8418,-11.99707 6.1084,0 c 1.29881,10e-6 2.31444,-0.13427 3.04687,-0.40283 0.73241,-0.26855 1.28905,-0.69823 1.66992,-1.28907 0.38085,-0.5908 0.57128,-1.23289 0.57129,-1.92627 -1e-5,-1.0156 -0.36867,-1.85056 -1.10595,-2.50488 -0.73732,-0.65428 -1.90187,-0.98142 -3.49366,-0.98144 l -6.79687,0 z"
         style="font-size:30px;fill:#000000;font-family:Arial"
         id="path3029" />
      <path
         d="m 258.36226,280.76999 -1.97754,0 0,-12.60132 c -0.47608,0.45411 -1.10047,0.90822 -1.87317,1.36231 -0.77271,0.45411 -1.46668,0.79468 -2.08191,1.02172 l 0,-1.91162 c 1.10596,-0.52 2.07275,-1.14989 2.90039,-1.88965 0.82763,-0.73973 1.41357,-1.4575 1.75781,-2.15332 l 1.27442,0 z"
         style="font-size:75%;baseline-shift:super"
         id="path3031" />
    </g>
    <g
       style="font-size:30px;fill:#000000;font-family:Arial"
       id="text34">
      <path
         d="m 336.65839,201.23 0,-21.47461 9.52148,0 c 1.91405,2e-5 3.36913,0.19289 4.36523,0.57861 0.99608,0.38576 1.79198,1.06691 2.3877,2.04346 0.59568,0.97658 0.89354,2.05568 0.89355,3.2373 -10e-6,1.52345 -0.49318,2.80763 -1.47949,3.85254 -0.98634,1.04493 -2.50978,1.70899 -4.57031,1.99219 0.75194,0.36134 1.32323,0.71778 1.71387,1.06933 0.83006,0.76173 1.61619,1.71388 2.3584,2.85645 l 3.73535,5.84473 -3.57422,0 -2.8418,-4.46778 c -0.83009,-1.28905 -1.51368,-2.27538 -2.05078,-2.95898 -0.53712,-0.68359 -1.01808,-1.1621 -1.44287,-1.43555 -0.42482,-0.27343 -0.85694,-0.46386 -1.29639,-0.57129 -0.32227,-0.0684 -0.84962,-0.10253 -1.58203,-0.10254 l -3.2959,0 0,9.53614 z m 2.84179,-11.99707 6.1084,0 c 1.29882,1e-5 2.31444,-0.13427 3.04688,-0.40284 0.7324,-0.26854 1.28904,-0.69823 1.66992,-1.28906 0.38084,-0.59081 0.57127,-1.23289 0.57129,-1.92627 -2e-5,-1.01561 -0.36867,-1.85057 -1.10596,-2.50488 -0.73732,-0.65428 -1.90187,-0.98143 -3.49365,-0.98145 l -6.79688,0 z"
         style="font-size:30px;fill:#000000;font-family:Arial"
         id="path3024" />
      <path
         d="m 367.30658,187.32936 0,1.90064 -10.64575,0 c -0.0146,-0.47608 0.0623,-0.93384 0.23071,-1.3733 0.271,-0.72509 0.70495,-1.4392 1.30188,-2.14233 0.59692,-0.70312 1.45935,-1.51611 2.58728,-2.43896 1.75048,-1.43554 2.93334,-2.57263 3.54858,-3.41126 0.61523,-0.83861 0.92285,-1.63146 0.92286,-2.37854 -10e-6,-0.78368 -0.28016,-1.44469 -0.84046,-1.98303 -0.56031,-0.53832 -1.2909,-0.80748 -2.19177,-0.8075 -0.95215,2e-5 -1.71387,0.28566 -2.28516,0.85694 -0.57129,0.5713 -0.8606,1.36231 -0.86792,2.37304 l -2.03247,-0.20874 c 0.13916,-1.5161 0.66284,-2.67149 1.57105,-3.46618 0.9082,-0.79466 2.12768,-1.192 3.65844,-1.19202 1.54541,2e-5 2.76855,0.42848 3.66944,1.2854 0.90087,0.85695 1.35131,1.91896 1.35132,3.18604 -10e-6,0.64454 -0.13185,1.27808 -0.39551,1.90063 -0.26368,0.62257 -0.70131,1.27809 -1.31287,1.96655 -0.61158,0.68849 -1.62781,1.63331 -3.0487,2.83448 -1.18653,0.99609 -1.94825,1.67175 -2.28516,2.02697 -0.33692,0.35523 -0.61524,0.71229 -0.83496,1.07117 z"
         style="font-size:75%;baseline-shift:super"
         id="path3026" />
    </g>
    <g
       style="font-size:30px;fill:#000000;font-family:Arial"
       id="text38">
      <path
         d="m 336.65839,292.76999 0,-21.47461 9.52148,0 c 1.91405,2e-5 3.36913,0.19289 4.36523,0.57861 0.99608,0.38577 1.79198,1.06692 2.3877,2.04346 0.59568,0.97658 0.89354,2.05568 0.89355,3.2373 -10e-6,1.52346 -0.49318,2.80763 -1.47949,3.85254 -0.98634,1.04494 -2.50978,1.709 -4.57031,1.99219 0.75194,0.36134 1.32323,0.71778 1.71387,1.06934 0.83006,0.76172 1.61619,1.71387 2.3584,2.85644 l 3.73535,5.84473 -3.57422,0 -2.8418,-4.46777 c -0.83009,-1.28906 -1.51368,-2.27539 -2.05078,-2.95899 -0.53712,-0.68358 -1.01808,-1.1621 -1.44287,-1.43555 -0.42482,-0.27342 -0.85694,-0.46385 -1.29639,-0.57128 -0.32227,-0.0684 -0.84962,-0.10253 -1.58203,-0.10254 l -3.2959,0 0,9.53613 z m 2.84179,-11.99707 6.1084,0 c 1.29882,10e-6 2.31444,-0.13427 3.04688,-0.40283 0.7324,-0.26855 1.28904,-0.69823 1.66992,-1.28907 0.38084,-0.5908 0.57127,-1.23289 0.57129,-1.92627 -2e-5,-1.0156 -0.36867,-1.85056 -1.10596,-2.50488 -0.73732,-0.65428 -1.90187,-0.98142 -3.49365,-0.98144 l -6.79688,0 z"
         style="font-size:30px;fill:#000000;font-family:Arial"
         id="path3034" />
      <path
         d="m 356.9245,276.51828 1.97754,-0.26367 c 0.22705,1.12061 0.6134,1.9281 1.15906,2.42248 0.54565,0.49439 1.21032,0.74158 1.99401,0.74158 0.93017,0 1.7157,-0.32226 2.35657,-0.9668 0.64086,-0.64452 0.9613,-1.44286 0.96131,-2.39502 -1e-5,-0.90819 -0.29664,-1.65709 -0.8899,-2.2467 -0.59327,-0.58959 -1.34766,-0.88439 -2.26318,-0.8844 -0.37354,1e-5 -0.83863,0.0733 -1.39526,0.21973 l 0.21972,-1.73584 c 0.13183,0.0147 0.23803,0.022 0.31861,0.022 0.84228,1e-5 1.60033,-0.21972 2.27417,-0.65918 0.67382,-0.43944 1.01073,-1.11693 1.01074,-2.03247 -1e-5,-0.72509 -0.24537,-1.32567 -0.73609,-1.80176 -0.49073,-0.47606 -1.12427,-0.71409 -1.90063,-0.71411 -0.76905,2e-5 -1.40992,0.24171 -1.92261,0.7251 -0.5127,0.48341 -0.84229,1.20851 -0.98877,2.17529 l -1.97754,-0.35156 c 0.2417,-1.32567 0.79102,-2.35289 1.64795,-3.08167 0.85693,-0.72874 1.92261,-1.09312 3.19702,-1.09314 0.8789,2e-5 1.68823,0.18862 2.42798,0.5658 0.73974,0.37721 1.30553,0.89174 1.69739,1.54358 0.39184,0.65187 0.58776,1.34401 0.58777,2.07642 -1e-5,0.69581 -0.18678,1.32935 -0.5603,1.90063 -0.37355,0.5713 -0.92653,1.0254 -1.65894,1.3623 0.95214,0.21974 1.69188,0.67567 2.21924,1.3678 0.52733,0.69215 0.791,1.55824 0.79101,2.59827 -10e-6,1.40625 -0.5127,2.59827 -1.53808,3.57605 -1.0254,0.97778 -2.32179,1.46667 -3.88916,1.46667 -1.41358,0 -2.58729,-0.42114 -3.52112,-1.26342 -0.93384,-0.84229 -1.46668,-1.9336 -1.59851,-3.27393 z"
         style="font-size:75%;baseline-shift:super"
         id="path3036" />
    </g>
  </g>
  <cdml:cdml
     version="0.15">
    <cdml:info>
      <cdml:author_program
         version="0.13.0">BKchem</cdml:author_program>
    </cdml:info>
    <cdml:paper
       crop_margin="5"
       crop_svg="1"
       orientation="portrait"
       replace_minus="0"
       type="Legal"
       use_real_minus="0" />
    <cdml:viewport
       viewport="0.000000 0.000000 640.000000 480.000000" />
    <cdml:standard
       area_color=""
       font_family="Arial"
       font_size="24"
       line_color="#000"
       line_width="0.06cm"
       paper_crop_margin="5"
       paper_crop_svg="1"
       paper_orientation="portrait"
       paper_type="Legal">
      <cdml:bond
         double-ratio="0.85"
         length="1.4cm"
         wedge-width="0.18cm"
         width="0.21cm" />
      <cdml:arrow
         length="1.6cm" />
      <cdml:atom
         show_hydrogens="0" />
    </cdml:standard>
    <cdml:molecule
       id="molecule77950"
       name="">
      <cdml:atom
         id="atom87504"
         name="C"
         valency="4">
        <cdml:point
           x="7.076cm"
           y="6.357cm" />
      </cdml:atom>
      <cdml:atom
         id="atom54365"
         name="C"
         valency="4">
        <cdml:point
           x="8.476cm"
           y="6.357cm" />
      </cdml:atom>
      <cdml:query
         id="atom86749"
         name="R"
         pos="center-last">
        <cdml:point
           x="6.376cm"
           y="5.145cm" />
      </cdml:query>
      <cdml:text
         id="atom69462"
         pos="center-last">
        <cdml:ftext>R<cdml:sup>1</cdml:sup>
</cdml:ftext>
        <cdml:point
           x="6.376cm"
           y="7.570cm" />
      </cdml:text>
      <cdml:text
         id="atom99534"
         pos="center-first">
        <cdml:ftext>R<cdml:sup>2</cdml:sup>
</cdml:ftext>
        <cdml:point
           x="9.176cm"
           y="5.145cm" />
      </cdml:text>
      <cdml:text
         id="atom8197"
         pos="center-first">
        <cdml:ftext>R<cdml:sup>3</cdml:sup>
</cdml:ftext>
        <cdml:point
           x="9.176cm"
           y="7.570cm" />
      </cdml:text>
      <cdml:bond
         bond_width="7.92808988764"
         center="no"
         double_ratio="0.85"
         end="atom54365"
         id="bond51456"
         line_width="2.26516853933"
         start="atom87504"
         type="n2" />
      <cdml:bond
         double_ratio="0.85"
         end="atom86749"
         id="bond90462"
         line_width="2.26516853933"
         start="atom87504"
         type="n1" />
      <cdml:bond
         double_ratio="0.85"
         end="atom8197"
         id="bond67813"
         line_width="2.26516853933"
         start="atom54365"
         type="n1" />
      <cdml:bond
         double_ratio="0.85"
         end="atom99534"
         id="bond4879"
         line_width="2.26516853933"
         start="atom54365"
         type="n1" />
      <cdml:bond
         double_ratio="0.85"
         end="atom69462"
         id="bond34453"
         line_width="2.26516853933"
         start="atom87504"
         type="n1" />
    </cdml:molecule>
  </cdml:cdml>
</svg>
