<?xml version="1.0" encoding="UTF-8"?>
<svg preserveAspectRatio="xMidYMid" viewBox="177.5 83.18 32.006 15.757" xmlns="http://www.w3.org/2000/svg" xmlns:cc="http://creativecommons.org/ns#" xmlns:dc="http://purl.org/dc/elements/1.1/" xmlns:rdf="http://www.w3.org/1999/02/22-rdf-syntax-ns#">
  <clipPath id="a">
    <rect x=".3" y=".3" width="539.4" height="719.15"/>
  </clipPath>
  <g clip-path="url(#a)" transform="translate(.292 -.0834)">
    <path d="M178.21 98.02v-6.442h2.856q.86 0 1.31.175.448.172.716.61.268.44.268.972 0 .686-.444 1.156t-1.37.6q.337.16.513.32.37.35.7.86l1.12 1.76h-1.07l-.858-1.34q-.373-.58-.615-.886-.24-.31-.435-.43-.19-.124-.385-.172-.143-.03-.472-.03h-.988v2.86zm.852-3.6h1.833q.584 0 .914-.118.32-.123.5-.387.17-.268.17-.58 0-.457-.34-.75-.33-.296-1.05-.296h-2.04zm11.098-6.738q0-1.604.86-2.51.863-.91 2.225-.91.892 0 1.608.427.717.42 1.09 1.19.378.76.378 1.72 0 .98-.39 1.75-.39.773-1.12 1.173-.72.396-1.56.396-.91 0-1.623-.44-.717-.44-1.086-1.2t-.37-1.61zm.88.013q0 1.165.623 1.837.628.668 1.573.668.963 0 1.582-.677.624-.676.624-1.92 0-.787-.268-1.37-.263-.59-.778-.91-.51-.326-1.147-.326-.91 0-1.56.624-.65.62-.65 2.08z"/>
    <path d="M184.94 92.43l-.3-.52 4.22-2.44.3.52z" fill-rule="evenodd" shape-rendering="geometricPrecision" stroke-width="0"/>
    <path d="M203.16 98.02v-6.442h.852v2.645h3.35v-2.645h.85v6.442h-.85v-3.037h-3.35v3.037z"/>
    <path d="M197.44 90.08l.3-.52 4.22 2.44-.3.52z" fill-rule="evenodd" shape-rendering="geometricPrecision" stroke-width="0"/>
  </g>
</svg>