<?xml version="1.0" encoding="UTF-8" standalone="no"?>
<svg
   xmlns:cdml="http://www.freesoftware.fsf.org/bkchem/cdml"
   xmlns:dc="http://purl.org/dc/elements/1.1/"
   xmlns:cc="http://creativecommons.org/ns#"
   xmlns:rdf="http://www.w3.org/1999/02/22-rdf-syntax-ns#"
   xmlns:svg="http://www.w3.org/2000/svg"
   xmlns="http://www.w3.org/2000/svg"
   xmlns:sodipodi="http://sodipodi.sourceforge.net/DTD/sodipodi-0.dtd"
   xmlns:inkscape="http://www.inkscape.org/namespaces/inkscape"
   height="14.56845mm"
   version="1.0"
   viewBox="0 0 208 55"
   width="55.09524mm"
   id="svg2"
   inkscape:version="0.48.0 r9654"
   sodipodi:docname="General_struct_alkyne_group.svg">
  <metadata
     id="metadata32">
    <rdf:RDF>
      <cc:Work
         rdf:about="">
        <dc:format>image/svg+xml</dc:format>
        <dc:type
           rdf:resource="http://purl.org/dc/dcmitype/StillImage" />
      </cc:Work>
    </rdf:RDF>
  </metadata>
  <defs
     id="defs30" />
  <sodipodi:namedview
     pagecolor="#ffffff"
     bordercolor="#666666"
     borderopacity="1"
     objecttolerance="10"
     gridtolerance="10"
     guidetolerance="10"
     inkscape:pageopacity="0"
     inkscape:pageshadow="2"
     inkscape:window-width="640"
     inkscape:window-height="480"
     id="namedview28"
     showgrid="false"
     inkscape:zoom="2.6124458"
     inkscape:cx="97.60968"
     inkscape:cy="25.810246"
     inkscape:window-x="0"
     inkscape:window-y="0"
     inkscape:window-maximized="0"
     inkscape:current-layer="g4" />
  <g
     font-family="Helvetica"
     font-size="12pt"
     stroke-linecap="round"
     transform="translate(-196,-209)"
     id="g4">
    <g
       stroke="#000000"
       stroke-width="2.26516853933"
       id="g6">
      <line
         x1="228.00"
         x2="267.15"
         y1="240.00"
         y2="240.00"
         id="line8" />
    </g>
    <g
       stroke="#000000"
       stroke-width="2.26516853933"
       id="g10">
      <line
         x1="267.15"
         x2="320.00"
         y1="240.00"
         y2="240.00"
         id="line12" />
      <line
         x1="271.11"
         x2="316.04"
         y1="234.05"
         y2="234.05"
         id="line14" />
      <line
         x1="271.11"
         x2="316.04"
         y1="245.95"
         y2="245.95"
         id="line16" />
    </g>
    <g
       stroke="#000000"
       stroke-width="2.26516853933"
       id="g18">
      <line
         x1="320.00"
         x2="359.00"
         y1="240.00"
         y2="240.00"
         id="line20" />
    </g>
    <g
       style="font-size:30px;fill:#000000;font-family:Arial"
       id="text22">
      <path
         d="m 362.65839,247 0,-21.47461 9.52148,0 c 1.91405,2e-5 3.36913,0.19289 4.36523,0.57861 0.99608,0.38577 1.79198,1.06692 2.3877,2.04346 0.59568,0.97658 0.89354,2.05568 0.89355,3.23731 -10e-6,1.52345 -0.49318,2.80763 -1.47949,3.85253 -0.98634,1.04494 -2.50978,1.709 -4.57031,1.99219 0.75194,0.36134 1.32323,0.71778 1.71387,1.06934 0.83006,0.76172 1.61619,1.71387 2.3584,2.85644 l 3.73535,5.84473 -3.57422,0 -2.8418,-4.46777 c -0.83009,-1.28906 -1.51368,-2.27539 -2.05078,-2.95899 -0.53712,-0.68358 -1.01808,-1.1621 -1.44287,-1.43554 -0.42482,-0.27343 -0.85694,-0.46386 -1.29639,-0.57129 -0.32227,-0.0683 -0.84962,-0.10253 -1.58203,-0.10254 l -3.2959,0 0,9.53613 z m 2.84179,-11.99707 6.1084,0 c 1.29882,1e-5 2.31444,-0.13427 3.04688,-0.40283 0.7324,-0.26854 1.28904,-0.69823 1.66992,-1.28906 0.38084,-0.59081 0.57127,-1.2329 0.57129,-1.92627 -2e-5,-1.01561 -0.36867,-1.85057 -1.10596,-2.50489 -0.73732,-0.65428 -1.90187,-0.98142 -3.49365,-0.98144 l -6.79688,0 z"
         style="font-size:30px;fill:#000000;font-family:Arial"
         id="path3010" />
      <path
         d="m 390.36224,235 -1.97754,0 0,-12.60132 c -0.47608,0.45412 -1.10046,0.90822 -1.87316,1.36231 -0.77271,0.45411 -1.46668,0.79468 -2.08191,1.02172 l 0,-1.91162 c 1.10595,-0.52 2.07275,-1.14989 2.90039,-1.88964 0.82763,-0.73974 1.41356,-1.45751 1.75781,-2.15333 l 1.27441,0 z"
         style="font-size:75%;baseline-shift:super"
         id="path3012" />
    </g>
    <text
       fill="#000000"
       font-family="Arial"
       font-size="24pt"
       x="202.30"
       y="247.00"
       id="text26">R</text>
  </g>
  <cdml:cdml
     version="0.15">
    <cdml:info>
      <cdml:author_program
         version="0.13.0">BKchem</cdml:author_program>
    </cdml:info>
    <cdml:paper
       crop_margin="5"
       crop_svg="1"
       orientation="portrait"
       replace_minus="0"
       type="Legal"
       use_real_minus="0" />
    <cdml:viewport
       viewport="0.000000 0.000000 640.000000 480.000000" />
    <cdml:standard
       area_color=""
       font_family="Arial"
       font_size="24"
       line_color="#000"
       line_width="0.06cm"
       paper_crop_margin="5"
       paper_crop_svg="1"
       paper_orientation="portrait"
       paper_type="Legal">
      <cdml:bond
         double-ratio="0.85"
         length="1.4cm"
         wedge-width="0.18cm"
         width="0.21cm" />
      <cdml:arrow
         length="1.6cm" />
      <cdml:atom
         show_hydrogens="0" />
    </cdml:standard>
    <cdml:molecule
       id="molecule47317"
       name="">
      <cdml:atom
         id="atom16503"
         name="C"
         valency="4">
        <cdml:point
           x="7.076cm"
           y="6.357cm" />
      </cdml:atom>
      <cdml:atom
         id="atom67618"
         name="C"
         valency="4">
        <cdml:point
           x="8.476cm"
           y="6.357cm" />
      </cdml:atom>
      <cdml:text
         id="atom30436"
         pos="center-first">
        <cdml:ftext>R<cdml:sup>1</cdml:sup>
</cdml:ftext>
        <cdml:point
           x="9.876cm"
           y="6.357cm" />
      </cdml:text>
      <cdml:query
         id="atom14871"
         name="R"
         pos="center-last">
        <cdml:point
           x="5.676cm"
           y="6.357cm" />
      </cdml:query>
      <cdml:bond
         double_ratio="0.85"
         end="atom16503"
         id="bond25201"
         line_width="2.26516853933"
         start="atom14871"
         type="n1" />
      <cdml:bond
         bond_width="7.92808988764"
         double_ratio="0.85"
         end="atom67618"
         id="bond29070"
         line_width="2.26516853933"
         start="atom16503"
         type="n3" />
      <cdml:bond
         double_ratio="0.85"
         end="atom30436"
         id="bond30597"
         line_width="2.26516853933"
         start="atom67618"
         type="n1" />
    </cdml:molecule>
  </cdml:cdml>
</svg>
