<?xml version="1.0" encoding="UTF-8"?>
<svg preserveAspectRatio="xMidYMid" version="1.1" viewBox="177.5 68.78 48.225 44.547" xmlns="http://www.w3.org/2000/svg">
 <clipPath id="a">
  <rect x=".3" y=".3" width="539.4" height="719.15"/>
 </clipPath>
 <g transform="translate(.292 -.0934)" clip-path="url(#a)">
  <path d="m178.21 98.02v-6.442h2.856c0.573 0 1.01 0.0583 1.31 0.175 0.299 0.1147 0.537 0.318 0.716 0.61 0.179 0.2933 0.268 0.6173 0.268 0.972 0 0.4573-0.148 0.8427-0.444 1.156s-0.753 0.5133-1.37 0.6c0.225 0.1067 0.396 0.2133 0.513 0.32 0.247 0.2333 0.48 0.52 0.7 0.86l1.12 1.76h-1.07l-0.858-1.34c-0.249-0.3867-0.454-0.682-0.615-0.886-0.16-0.2067-0.305-0.35-0.435-0.43-0.127-0.0827-0.255-0.14-0.385-0.172-0.095-0.02-0.253-0.03-0.472-0.03h-0.988v2.86zm0.852-3.6h1.833c0.389 0 0.694-0.0393 0.914-0.118 0.213-0.082 0.38-0.211 0.5-0.387 0.113-0.1787 0.17-0.372 0.17-0.58 0-0.3047-0.113-0.5547-0.34-0.75-0.22-0.1973-0.57-0.296-1.05-0.296h-2.04z"/>
  <path d="m203.13 98.02v-6.442h0.874l3.384 5.058v-5.058h0.817v6.442h-0.874l-3.38-5.063v5.063z"/>
  <path d="m190.16 73.292q0-1.604 0.86-2.51 0.863-0.91 2.225-0.91 0.892 0 1.608 0.427 0.717 0.42 1.09 1.19 0.378 0.76 0.378 1.72 0 0.98-0.39 1.75-0.39 0.773-1.12 1.173-0.72 0.396-1.56 0.396-0.91 0-1.623-0.44-0.717-0.44-1.086-1.2t-0.37-1.61zm0.88 0.013q0 1.165 0.623 1.837 0.628 0.668 1.573 0.668 0.963 0 1.582-0.677 0.624-0.676 0.624-1.92 0-0.787-0.268-1.37-0.263-0.59-0.778-0.91-0.51-0.326-1.147-0.326-0.91 0-1.56 0.624-0.65 0.62-0.65 2.08z"/>
  <path d="m203.15 112.42v-6.442h2.856q0.86 0 1.31 0.175 0.448 0.172 0.716 0.61 0.268 0.44 0.268 0.972 0 0.686-0.444 1.156t-1.37 0.6q0.337 0.16 0.513 0.32 0.37 0.35 0.7 0.86l1.12 1.76h-1.07l-0.858-1.34q-0.373-0.58-0.615-0.886-0.24-0.31-0.435-0.43-0.19-0.124-0.385-0.172-0.143-0.03-0.472-0.03h-0.984v2.86zm0.852-3.6h1.833q0.584 0 0.914-0.118 0.32-0.123 0.5-0.386 0.17-0.27 0.17-0.58 0-0.458-0.34-0.752-0.33-0.294-1.05-0.294h-2.029zm5.538-0.56-0.203-1.204v-1.076h0.9v1.076l-0.21 1.204z"/>
  <path d="m205.39 99.99v-1h0.6v5.72h-0.6z" fill-rule="evenodd" shape-rendering="geometricPrecision" stroke-width="0"/>
  <path d="m215.62 90.82v-6.442h2.856q0.86 0 1.31 0.175 0.448 0.172 0.716 0.61 0.268 0.44 0.268 0.972 0 0.686-0.444 1.156t-1.37 0.6q0.337 0.16 0.513 0.32 0.37 0.35 0.7 0.86l1.12 1.76h-1.07l-0.858-1.34q-0.373-0.58-0.615-0.886-0.24-0.31-0.435-0.43-0.19-0.124-0.385-0.172-0.143-0.03-0.472-0.03h-0.988v2.86zm0.852-3.6h1.833q0.584 0 0.914-0.118 0.32-0.123 0.5-0.387 0.17-0.268 0.17-0.58 0-0.457-0.34-0.75-0.33-0.296-1.05-0.296h-2.04zm5.538-0.562-0.203-1.204v-1.077h0.9v1.077l-0.21 1.204zm1.72 0-0.202-1.204v-1.077h0.9v1.077l-0.21 1.204z"/>
  <path d="m209.73 92.52-0.3-0.52 4.74-2.74 0.3 0.52z" fill-rule="evenodd" shape-rendering="geometricPrecision" stroke-width="0"/>
 </g>
 <path d="m191.99 78.097v9.6758l-7.029 4.0058 0.299 0.5196 8.23-4.75 8.689 5.0195 0.301-0.5195-7.49-4.2754v-9.6758h-0.6v9.3281l-0.9-0.5781-0.9 0.5781v-9.3281z" fill-rule="evenodd" shape-rendering="geometricPrecision" stroke-width="0"/>
</svg>
