<?xml version="1.0" encoding="UTF-8" standalone="no"?>
<!-- Created with Inkscape (http://www.inkscape.org/) -->

<svg
   version="1.1"
   id="svg1"
   width="638.02448"
   height="659.07507"
   viewBox="0 0 638.02448 659.07507"
   sodipodi:docname="amine.svg"
   inkscape:version="1.3.2 (1:1.3.2+202311252150+091e20ef0f)"
   xmlns:inkscape="http://www.inkscape.org/namespaces/inkscape"
   xmlns:sodipodi="http://sodipodi.sourceforge.net/DTD/sodipodi-0.dtd"
   xmlns="http://www.w3.org/2000/svg"
   xmlns:svg="http://www.w3.org/2000/svg">
  <defs
     id="defs1" />
  <sodipodi:namedview
     id="namedview1"
     pagecolor="#ffffff"
     bordercolor="#000000"
     borderopacity="0.25"
     inkscape:showpageshadow="2"
     inkscape:pageopacity="0.0"
     inkscape:pagecheckerboard="0"
     inkscape:deskcolor="#d1d1d1"
     inkscape:zoom="0.50803461"
     inkscape:cx="317.89173"
     inkscape:cy="328.71776"
     inkscape:window-width="1920"
     inkscape:window-height="1008"
     inkscape:window-x="0"
     inkscape:window-y="0"
     inkscape:window-maximized="1"
     inkscape:current-layer="g1" />
  <g
     inkscape:groupmode="layer"
     inkscape:label="Image"
     id="g1"
     transform="translate(-75,-74.924948)">
    <path
       style="fill:#000000"
       d="m 530,667 v -67 h 36.31634 c 21.92603,0 38.65162,0.4317 42.20979,1.08946 12.13632,2.24352 21.25583,9.63347 25.62296,20.76345 3.36913,8.58649 3.22917,21.69513 -0.31278,29.29505 -1.44773,3.10638 -4.46278,7.47851 -6.70012,9.71585 -5.89243,5.89243 -11.89263,8.72549 -24.57047,11.60121 l -2.93429,0.66559 4.43429,2.50336 c 5.72509,3.23208 9.94129,7.31313 15.87488,15.36603 5.04255,6.8436 27.0594,41.32992 27.0594,42.38477 0,0.33837 -4.8375,0.60402 -10.75,0.59032 l -10.75,-0.0249 -12,-19.02976 C 588.76301,675.69219 586.46185,674 557.85331,674 H 548 v 30 30 h -9 -9 z m 72.76409,-10.43542 c 10.5512,-3.30808 15.86242,-11.22644 15.05133,-22.43966 -0.80295,-11.10067 -7.51455,-17.2213 -21.02675,-19.1753 -3.45877,-0.50017 -15.85117,-0.91845 -27.53867,-0.92951 L 548,614 v 22.63003 22.63003 l 24.75,-0.52252 c 19.05984,-0.4024 25.96024,-0.90197 30.01409,-2.17296 z M 660.16076,632.75 c -1.20973,-7.8375 -2.19079,-18.4125 -2.18014,-23.5 L 658,600 h 9.5 9.5 l 0.0184,10.25 c 0.0105,5.87029 -0.90873,15.91158 -2.15134,23.5 l -2.1697,13.25 h -5.16853 -5.16852 z M 535.67115,585.82842 c -0.81274,-1.28063 -13.94538,-23.88303 -29.18364,-50.22755 -21.13468,-36.53851 -27.38355,-48.09268 -26.34671,-48.71514 0.74756,-0.44881 3.19634,-1.93726 5.44173,-3.30769 l 4.08254,-2.49167 6.50211,11.20681 c 8.10541,13.97022 50.95402,87.94908 51.5031,88.921 0.37901,0.67088 -6.21578,5.29044 -9.17195,6.42484 -0.7422,0.2848 -2.01443,-0.52996 -2.82718,-1.8106 z M 75,403.91856 v -67.08144 l 38.75,0.39132 c 36.58262,0.36943 39.11935,0.51353 45.35342,2.57635 8.79241,2.90934 14.89157,8.34027 19.1077,17.01423 2.99425,6.16013 3.24903,7.46058 3.26815,16.68098 0.0243,11.74044 -1.68475,16.51299 -8.60001,24.01517 -5.08673,5.51844 -11.47612,8.96488 -21.19655,11.43341 l -7.09322,1.80135 4.35377,2.22112 c 5.42925,2.7698 12.85022,10.39203 19.0133,19.52895 6.67468,9.89538 24.04344,37.3194 24.04344,37.96286 0,0.29542 -4.8375,0.53304 -10.75,0.52802 L 170.5,470.98188 158.28688,451.741 C 140.39394,423.55187 134.07513,416.20493 125.10078,413.15516 123.15282,412.49319 115.57463,412 107.35078,412 H 93 V 441.5 471 H 84 75 Z M 151.5,392.5 c 8.19073,-4.09536 11.88125,-9.95148 11.86065,-18.82049 -0.0158,-6.80934 -1.56941,-10.64766 -6.02137,-14.87646 -6.16619,-5.8571 -8.41395,-6.25269 -37.58928,-6.61552 L 93,351.85486 v 22.15841 22.1584 L 119.25,395.83584 145.5,395.5 Z M 384,404 v -67 l 9.25,0.009 9.25,0.009 35.25,52.67579 35.25,52.6758 V 389.68502 337 h 8.5 8.5 v 67 67 l -9.25,-0.0411 -9.25,-0.0411 L 437,419.0205 C 418.025,390.47692 402.1625,367.09543 401.75,367.06157 401.3375,367.02771 401,390.4 401,419 v 52 H 392.5 384 Z M 201,403.5 V 397 h 87.5 87.5 v 6.5 6.5 H 288.5 201 Z m 282.49714,-79.67423 c -2.74843,-1.69397 -5.11153,-3.17464 -5.25133,-3.29038 -0.22343,-0.18497 52.73755,-92.51159 56.3695,-98.26869 l 1.40892,-2.23331 4.98788,3.06908 c 2.74334,1.68799 4.98789,3.51565 4.98789,4.06147 0,0.90859 -55.42745,97.42771 -56.87448,99.03892 -0.34718,0.38657 -2.87995,-0.68312 -5.62838,-2.37709 z M 530,142 V 75 l 34.25,0.01981 c 18.8375,0.01089 37.4,0.465756 41.25,1.010804 8.41239,1.19095 18.32358,5.788942 22.0979,10.251653 7.71116,9.117559 10.96826,23.055813 8.04978,34.447753 -3.5644,13.9132 -12.51677,22.04149 -28.84243,26.18744 l -7.00082,1.77788 4.43128,2.59691 c 7.55797,4.42926 15.74912,14.42097 28.8868,35.23663 6.93256,10.98411 12.9176,20.53362 13.30009,21.22112 0.53757,0.96625 -1.79144,1.25 -10.26008,1.25 h -10.95551 l -4.7815,-7.75 c -11.05129,-17.9123 -24.06223,-37.01814 -28.34005,-41.6158 -2.522,-2.71057 -6.83546,-5.98273 -9.58546,-7.27148 -4.53192,-2.12382 -6.38082,-2.3441 -19.75,-2.35295 L 548,150 v 29.5 29.5 h -9 -9 z m 76.12135,-11.26061 c 7.91619,-3.88758 11.20734,-8.86471 11.7068,-17.70386 0.56841,-10.05945 -3.39479,-16.715531 -12.3418,-20.727704 -3.43703,-1.541292 -7.67253,-1.833471 -30.73635,-2.120295 L 548,89.854865 v 22.158405 22.1584 L 574.25,133.83584 600.5,133.5 Z M 662.5357,121.75 C 660.87739,116.58749 658,93.33752 658,85.10048 V 75 h 9.5 9.5 l 0.0192,10.75 c 0.0119,6.63432 -0.8412,15.82282 -2.22819,24 l -2.2474,13.25 h -4.80319 c -2.96174,0 -4.95713,-0.47923 -5.20472,-1.25 z m 35.99658,0 C 696.6516,115.94467 693.95707,93.054726 694.20619,85 l 0.29381,-9.5 9.25,-0.287526 9.25,-0.287526 0.0243,10.787526 c 0.0149,6.628583 -0.8338,15.895836 -2.20151,24.037526 L 708.59698,123 h -4.82988 c -2.98126,0 -4.98486,-0.47843 -5.23482,-1.25 z"
       id="path1" />
  </g>
</svg>
