<?xml version="1.0" encoding="UTF-8" standalone="no"?>
<svg
   xmlns:dc="http://purl.org/dc/elements/1.1/"
   xmlns:cc="http://creativecommons.org/ns#"
   xmlns:rdf="http://www.w3.org/1999/02/22-rdf-syntax-ns#"
   xmlns:svg="http://www.w3.org/2000/svg"
   xmlns="http://www.w3.org/2000/svg"
   xmlns:sodipodi="http://sodipodi.sourceforge.net/DTD/sodipodi-0.dtd"
   xmlns:inkscape="http://www.inkscape.org/namespaces/inkscape"
   height="33.63988mm"
   version="1.0"
   viewBox="0 0 141 127"
   width="37.34821mm"
   id="svg2"
   inkscape:version="0.48.0 r9654"
   sodipodi:docname="General_struct_ketone_group.svg">
  <metadata
     id="metadata32">
    <rdf:RDF>
      <cc:Work
         rdf:about="">
        <dc:format>image/svg+xml</dc:format>
        <dc:type
           rdf:resource="http://purl.org/dc/dcmitype/StillImage" />
      </cc:Work>
    </rdf:RDF>
  </metadata>
  <defs
     id="defs30" />
  <sodipodi:namedview
     pagecolor="#ffffff"
     bordercolor="#666666"
     borderopacity="1"
     objecttolerance="10"
     gridtolerance="10"
     guidetolerance="10"
     inkscape:pageopacity="0"
     inkscape:pageshadow="2"
     inkscape:window-width="640"
     inkscape:window-height="480"
     id="namedview28"
     showgrid="false"
     inkscape:zoom="2.1644944"
     inkscape:cx="66.168091"
     inkscape:cy="59.598213"
     inkscape:window-x="0"
     inkscape:window-y="0"
     inkscape:window-maximized="0"
     inkscape:current-layer="g4" />
  <g
     font-family="Helvetica"
     font-size="12pt"
     stroke-linecap="round"
     transform="translate(-185,-60)"
     id="g4">
    <g
       stroke="#000000"
       stroke-width="2.26516853933"
       id="g6">
      <line
         x1="215.57"
         x2="250.10"
         y1="156.42"
         y2="136.65"
         id="line8" />
    </g>
    <g
       stroke="#000000"
       stroke-width="2.26516853933"
       id="g10">
      <line
         x1="247.10"
         x2="247.23"
         y1="136.64"
         y2="98.53"
         id="line12" />
      <line
         x1="253.10"
         x2="253.23"
         y1="136.66"
         y2="98.55"
         id="line14" />
    </g>
    <g
       stroke="#000000"
       stroke-width="2.26516853933"
       id="g16">
      <line
         x1="250.10"
         x2="277.04"
         y1="136.65"
         y2="152.33"
         id="line18" />
    </g>
    <text
       fill="#000000"
       font-family="Arial"
       font-size="24pt"
       x="237.30"
       y="90.79"
       id="text20">O</text>
    <text
       fill="#000000"
       font-family="Arial"
       font-size="24pt"
       x="191.30"
       y="169.91"
       id="text22">R</text>
    <g
       style="font-size:30px;fill:#000000;font-family:Arial"
       id="text24">
      <path
         d="m 286.65839,170.24001 0,-21.47461 9.52148,0 c 1.91405,2e-5 3.36913,0.19289 4.36523,0.57861 0.99608,0.38576 1.79198,1.06691 2.3877,2.04346 0.59568,0.97658 0.89354,2.05568 0.89355,3.2373 -10e-6,1.52345 -0.49318,2.80763 -1.47949,3.85254 -0.98634,1.04493 -2.50978,1.70899 -4.57031,1.99219 0.75194,0.36134 1.32323,0.71778 1.71387,1.06933 0.83006,0.76173 1.61619,1.71388 2.3584,2.85645 l 3.73535,5.84473 -3.57422,0 -2.8418,-4.46778 c -0.83009,-1.28905 -1.51368,-2.27538 -2.05078,-2.95898 -0.53712,-0.68359 -1.01808,-1.1621 -1.44287,-1.43555 -0.42482,-0.27343 -0.85694,-0.46386 -1.29639,-0.57129 -0.32227,-0.0684 -0.84962,-0.10253 -1.58203,-0.10254 l -3.2959,0 0,9.53614 z m 2.84179,-11.99707 6.1084,0 c 1.29882,1e-5 2.31444,-0.13427 3.04688,-0.40284 0.7324,-0.26854 1.28904,-0.69823 1.66992,-1.28906 0.38084,-0.59081 0.57127,-1.23289 0.57129,-1.92627 -2e-5,-1.01561 -0.36867,-1.85057 -1.10596,-2.50488 -0.73732,-0.65428 -1.90187,-0.98143 -3.49365,-0.98145 l -6.79688,0 z"
         style="font-size:30px;fill:#000000;font-family:Arial"
         id="path3010" />
      <path
         d="m 314.36224,158.24001 -1.97754,0 0,-12.60132 c -0.47608,0.45411 -1.10046,0.90821 -1.87316,1.3623 -0.77271,0.45411 -1.46668,0.79469 -2.08191,1.02173 l 0,-1.91162 c 1.10595,-0.52001 2.07275,-1.14989 2.90039,-1.88965 0.82763,-0.73973 1.41356,-1.4575 1.75781,-2.15332 l 1.27441,0 z"
         style="font-size:75%;baseline-shift:super"
         id="path3012" />
    </g>
  </g>
</svg>
