<?xml version="1.0" encoding="UTF-8" standalone="no"?>
<svg
   version="1.1"
   width="1532"
   height="898"
   id="svg65"
   sodipodi:docname="methode-6.svg"
   inkscape:version="1.4.2 (1:1.4.2+202505120737+ebf0e940d0)"
   xmlns:inkscape="http://www.inkscape.org/namespaces/inkscape"
   xmlns:sodipodi="http://sodipodi.sourceforge.net/DTD/sodipodi-0.dtd"
   xmlns="http://www.w3.org/2000/svg"
   xmlns:svg="http://www.w3.org/2000/svg">
  <sodipodi:namedview
     id="namedview65"
     pagecolor="#ffffff"
     bordercolor="#000000"
     borderopacity="0.25"
     inkscape:showpageshadow="2"
     inkscape:pageopacity="0.0"
     inkscape:pagecheckerboard="0"
     inkscape:deskcolor="#d1d1d1"
     inkscape:zoom="0.6291518"
     inkscape:cx="765.31609"
     inkscape:cy="449.01723"
     inkscape:window-width="1920"
     inkscape:window-height="1008"
     inkscape:window-x="0"
     inkscape:window-y="0"
     inkscape:window-maximized="1"
     inkscape:current-layer="svg65" />
  <defs
     id="defs1">
    <clipPath
       clipPathUnits="userSpaceOnUse"
       id="clipPath65">
      <path
         fill="none"
         stroke="none"
         d="M 0,0 H 1532 V 898 H 0 Z"
         id="path66" />
    </clipPath>
    <clipPath
       clipPathUnits="userSpaceOnUse"
       id="clipPath66">
      <path
         fill="none"
         stroke="none"
         d="M 0,0 H 1532 V 898 H 0 Z"
         id="path67" />
    </clipPath>
  </defs>
  <rect
     fill="#ffffff"
     stroke="none"
     x="0"
     y="0"
     width="1532"
     height="898"
     fill-opacity="1"
     id="rect1" />
  <path
     fill="none"
     stroke="#252525"
     paint-order="fill stroke markers"
     d="m 635.5,2.5 v 896"
     stroke-opacity="1"
     stroke-miterlimit="10"
     id="path2" />
  <path
     fill="none"
     stroke="#252525"
     paint-order="fill stroke markers"
     d="m 635.5,1.5 -4,4"
     stroke-opacity="1"
     stroke-miterlimit="10"
     id="path3" />
  <path
     fill="none"
     stroke="#252525"
     paint-order="fill stroke markers"
     d="m 635.5,1.5 4,4"
     stroke-opacity="1"
     stroke-miterlimit="10"
     id="path4" />
  <text
     fill="#252525"
     stroke="none"
     font-family="geogebra-sans-serif, sans-serif"
     font-size="16px"
     font-style="normal"
     font-weight="normal"
     text-decoration="normal"
     x="1514"
     y="692"
     text-anchor="start"
     dominant-baseline="alphabetic"
     fill-opacity="1"
     id="text4"
     inkscape:export-filename="graph2.pdf"
     inkscape:export-xdpi="96"
     inkscape:export-ydpi="96">x</text>
  <path
     fill="none"
     stroke="#252525"
     paint-order="fill stroke markers"
     d="m 0.5,696.5 h 1530"
     stroke-opacity="1"
     stroke-miterlimit="10"
     id="path5" />
  <path
     fill="none"
     stroke="#252525"
     paint-order="fill stroke markers"
     d="m 1531.5,696.5 -4,-4"
     stroke-opacity="1"
     stroke-miterlimit="10"
     id="path6" />
  <path
     fill="none"
     stroke="#252525"
     paint-order="fill stroke markers"
     d="m 1531.5,696.5 -4,4"
     stroke-opacity="1"
     stroke-miterlimit="10"
     id="path7" />
  <text
     fill="#252525"
     stroke="none"
     font-family="geogebra-sans-serif, sans-serif"
     font-size="12px"
     font-style="normal"
     font-weight="normal"
     text-decoration="normal"
     x="41"
     y="712"
     text-anchor="start"
     dominant-baseline="alphabetic"
     fill-opacity="1"
     id="text7">–2</text>
  <path
     fill="none"
     stroke="#252525"
     paint-order="fill stroke markers"
     d="m 46.5,696.5 v 3"
     stroke-opacity="1"
     stroke-miterlimit="10"
     id="path8" />
  <text
     fill="#252525"
     stroke="none"
     font-family="geogebra-sans-serif, sans-serif"
     font-size="12px"
     font-style="normal"
     font-weight="normal"
     text-decoration="normal"
     x="94"
     y="712"
     text-anchor="start"
     dominant-baseline="alphabetic"
     fill-opacity="1"
     id="text8">–1.8</text>
  <path
     fill="none"
     stroke="#252525"
     paint-order="fill stroke markers"
     d="m 105.5,696.5 v 3"
     stroke-opacity="1"
     stroke-miterlimit="10"
     id="path9" />
  <text
     fill="#252525"
     stroke="none"
     font-family="geogebra-sans-serif, sans-serif"
     font-size="12px"
     font-style="normal"
     font-weight="normal"
     text-decoration="normal"
     x="153"
     y="712"
     text-anchor="start"
     dominant-baseline="alphabetic"
     fill-opacity="1"
     id="text9">–1.6</text>
  <path
     fill="none"
     stroke="#252525"
     paint-order="fill stroke markers"
     d="m 164.5,696.5 v 3"
     stroke-opacity="1"
     stroke-miterlimit="10"
     id="path10" />
  <text
     fill="#252525"
     stroke="none"
     font-family="geogebra-sans-serif, sans-serif"
     font-size="12px"
     font-style="normal"
     font-weight="normal"
     text-decoration="normal"
     x="212"
     y="712"
     text-anchor="start"
     dominant-baseline="alphabetic"
     fill-opacity="1"
     id="text10">–1.4</text>
  <path
     fill="none"
     stroke="#252525"
     paint-order="fill stroke markers"
     d="m 223.5,696.5 v 3"
     stroke-opacity="1"
     stroke-miterlimit="10"
     id="path11" />
  <text
     fill="#252525"
     stroke="none"
     font-family="geogebra-sans-serif, sans-serif"
     font-size="12px"
     font-style="normal"
     font-weight="normal"
     text-decoration="normal"
     x="271"
     y="712"
     text-anchor="start"
     dominant-baseline="alphabetic"
     fill-opacity="1"
     id="text11">–1.2</text>
  <path
     fill="none"
     stroke="#252525"
     paint-order="fill stroke markers"
     d="m 282.5,696.5 v 3"
     stroke-opacity="1"
     stroke-miterlimit="10"
     id="path12" />
  <text
     fill="#252525"
     stroke="none"
     font-family="geogebra-sans-serif, sans-serif"
     font-size="12px"
     font-style="normal"
     font-weight="normal"
     text-decoration="normal"
     x="335"
     y="712"
     text-anchor="start"
     dominant-baseline="alphabetic"
     fill-opacity="1"
     id="text12">–1</text>
  <path
     fill="none"
     stroke="#252525"
     paint-order="fill stroke markers"
     d="m 340.5,696.5 v 3"
     stroke-opacity="1"
     stroke-miterlimit="10"
     id="path13" />
  <text
     fill="#252525"
     stroke="none"
     font-family="geogebra-sans-serif, sans-serif"
     font-size="12px"
     font-style="normal"
     font-weight="normal"
     text-decoration="normal"
     x="388"
     y="712"
     text-anchor="start"
     dominant-baseline="alphabetic"
     fill-opacity="1"
     id="text13">–0.8</text>
  <path
     fill="none"
     stroke="#252525"
     paint-order="fill stroke markers"
     d="m 399.5,696.5 v 3"
     stroke-opacity="1"
     stroke-miterlimit="10"
     id="path14" />
  <text
     fill="#252525"
     stroke="none"
     font-family="geogebra-sans-serif, sans-serif"
     font-size="12px"
     font-style="normal"
     font-weight="normal"
     text-decoration="normal"
     x="447"
     y="712"
     text-anchor="start"
     dominant-baseline="alphabetic"
     fill-opacity="1"
     id="text14">–0.6</text>
  <path
     fill="none"
     stroke="#252525"
     paint-order="fill stroke markers"
     d="m 458.5,696.5 v 3"
     stroke-opacity="1"
     stroke-miterlimit="10"
     id="path15" />
  <text
     fill="#252525"
     stroke="none"
     font-family="geogebra-sans-serif, sans-serif"
     font-size="12px"
     font-style="normal"
     font-weight="normal"
     text-decoration="normal"
     x="506"
     y="712"
     text-anchor="start"
     dominant-baseline="alphabetic"
     fill-opacity="1"
     id="text15">–0.4</text>
  <path
     fill="none"
     stroke="#252525"
     paint-order="fill stroke markers"
     d="m 517.5,696.5 v 3"
     stroke-opacity="1"
     stroke-miterlimit="10"
     id="path16" />
  <text
     fill="#252525"
     stroke="none"
     font-family="geogebra-sans-serif, sans-serif"
     font-size="12px"
     font-style="normal"
     font-weight="normal"
     text-decoration="normal"
     x="565"
     y="712"
     text-anchor="start"
     dominant-baseline="alphabetic"
     fill-opacity="1"
     id="text16">–0.2</text>
  <path
     fill="none"
     stroke="#252525"
     paint-order="fill stroke markers"
     d="m 576.5,696.5 v 3"
     stroke-opacity="1"
     stroke-miterlimit="10"
     id="path17" />
  <path
     fill="none"
     stroke="#252525"
     paint-order="fill stroke markers"
     d="m 635.5,696.5 v 3"
     stroke-opacity="1"
     stroke-miterlimit="10"
     id="path18" />
  <text
     fill="#252525"
     stroke="none"
     font-family="geogebra-sans-serif, sans-serif"
     font-size="12px"
     font-style="normal"
     font-weight="normal"
     text-decoration="normal"
     x="685"
     y="712"
     text-anchor="start"
     dominant-baseline="alphabetic"
     fill-opacity="1"
     id="text18">0.2</text>
  <path
     fill="none"
     stroke="#252525"
     paint-order="fill stroke markers"
     d="m 693.5,696.5 v 3"
     stroke-opacity="1"
     stroke-miterlimit="10"
     id="path19" />
  <text
     fill="#252525"
     stroke="none"
     font-family="geogebra-sans-serif, sans-serif"
     font-size="12px"
     font-style="normal"
     font-weight="normal"
     text-decoration="normal"
     x="744"
     y="712"
     text-anchor="start"
     dominant-baseline="alphabetic"
     fill-opacity="1"
     id="text19">0.4</text>
  <path
     fill="none"
     stroke="#252525"
     paint-order="fill stroke markers"
     d="m 752.5,696.5 v 3"
     stroke-opacity="1"
     stroke-miterlimit="10"
     id="path20" />
  <text
     fill="#252525"
     stroke="none"
     font-family="geogebra-sans-serif, sans-serif"
     font-size="12px"
     font-style="normal"
     font-weight="normal"
     text-decoration="normal"
     x="803"
     y="712"
     text-anchor="start"
     dominant-baseline="alphabetic"
     fill-opacity="1"
     id="text20">0.6</text>
  <path
     fill="none"
     stroke="#252525"
     paint-order="fill stroke markers"
     d="m 811.5,696.5 v 3"
     stroke-opacity="1"
     stroke-miterlimit="10"
     id="path21" />
  <text
     fill="#252525"
     stroke="none"
     font-family="geogebra-sans-serif, sans-serif"
     font-size="12px"
     font-style="normal"
     font-weight="normal"
     text-decoration="normal"
     x="862"
     y="712"
     text-anchor="start"
     dominant-baseline="alphabetic"
     fill-opacity="1"
     id="text21">0.8</text>
  <path
     fill="none"
     stroke="#252525"
     paint-order="fill stroke markers"
     d="m 870.5,696.5 v 3"
     stroke-opacity="1"
     stroke-miterlimit="10"
     id="path22" />
  <text
     fill="#252525"
     stroke="none"
     font-family="geogebra-sans-serif, sans-serif"
     font-size="12px"
     font-style="normal"
     font-weight="normal"
     text-decoration="normal"
     x="927"
     y="712"
     text-anchor="start"
     dominant-baseline="alphabetic"
     fill-opacity="1"
     id="text22">1</text>
  <path
     fill="none"
     stroke="#252525"
     paint-order="fill stroke markers"
     d="m 929.5,696.5 v 3"
     stroke-opacity="1"
     stroke-miterlimit="10"
     id="path23" />
  <text
     fill="#252525"
     stroke="none"
     font-family="geogebra-sans-serif, sans-serif"
     font-size="12px"
     font-style="normal"
     font-weight="normal"
     text-decoration="normal"
     x="980"
     y="712"
     text-anchor="start"
     dominant-baseline="alphabetic"
     fill-opacity="1"
     id="text23">1.2</text>
  <path
     fill="none"
     stroke="#252525"
     paint-order="fill stroke markers"
     d="m 988.5,696.5 v 3"
     stroke-opacity="1"
     stroke-miterlimit="10"
     id="path24" />
  <text
     fill="#252525"
     stroke="none"
     font-family="geogebra-sans-serif, sans-serif"
     font-size="12px"
     font-style="normal"
     font-weight="normal"
     text-decoration="normal"
     x="1038"
     y="712"
     text-anchor="start"
     dominant-baseline="alphabetic"
     fill-opacity="1"
     id="text24">1.4</text>
  <path
     fill="none"
     stroke="#252525"
     paint-order="fill stroke markers"
     d="m 1046.5,696.5 v 3"
     stroke-opacity="1"
     stroke-miterlimit="10"
     id="path25" />
  <text
     fill="#252525"
     stroke="none"
     font-family="geogebra-sans-serif, sans-serif"
     font-size="12px"
     font-style="normal"
     font-weight="normal"
     text-decoration="normal"
     x="1097"
     y="712"
     text-anchor="start"
     dominant-baseline="alphabetic"
     fill-opacity="1"
     id="text25">1.6</text>
  <path
     fill="none"
     stroke="#252525"
     paint-order="fill stroke markers"
     d="m 1105.5,696.5 v 3"
     stroke-opacity="1"
     stroke-miterlimit="10"
     id="path26" />
  <text
     fill="#252525"
     stroke="none"
     font-family="geogebra-sans-serif, sans-serif"
     font-size="12px"
     font-style="normal"
     font-weight="normal"
     text-decoration="normal"
     x="1156"
     y="712"
     text-anchor="start"
     dominant-baseline="alphabetic"
     fill-opacity="1"
     id="text26">1.8</text>
  <path
     fill="none"
     stroke="#252525"
     paint-order="fill stroke markers"
     d="m 1164.5,696.5 v 3"
     stroke-opacity="1"
     stroke-miterlimit="10"
     id="path27" />
  <text
     fill="#252525"
     stroke="none"
     font-family="geogebra-sans-serif, sans-serif"
     font-size="12px"
     font-style="normal"
     font-weight="normal"
     text-decoration="normal"
     x="1221"
     y="712"
     text-anchor="start"
     dominant-baseline="alphabetic"
     fill-opacity="1"
     id="text27">2</text>
  <path
     fill="none"
     stroke="#252525"
     paint-order="fill stroke markers"
     d="m 1223.5,696.5 v 3"
     stroke-opacity="1"
     stroke-miterlimit="10"
     id="path28" />
  <text
     fill="#252525"
     stroke="none"
     font-family="geogebra-sans-serif, sans-serif"
     font-size="12px"
     font-style="normal"
     font-weight="normal"
     text-decoration="normal"
     x="1274"
     y="712"
     text-anchor="start"
     dominant-baseline="alphabetic"
     fill-opacity="1"
     id="text28">2.2</text>
  <path
     fill="none"
     stroke="#252525"
     paint-order="fill stroke markers"
     d="m 1282.5,696.5 v 3"
     stroke-opacity="1"
     stroke-miterlimit="10"
     id="path29" />
  <text
     fill="#252525"
     stroke="none"
     font-family="geogebra-sans-serif, sans-serif"
     font-size="12px"
     font-style="normal"
     font-weight="normal"
     text-decoration="normal"
     x="1333"
     y="712"
     text-anchor="start"
     dominant-baseline="alphabetic"
     fill-opacity="1"
     id="text29">2.4</text>
  <path
     fill="none"
     stroke="#252525"
     paint-order="fill stroke markers"
     d="m 1341.5,696.5 v 3"
     stroke-opacity="1"
     stroke-miterlimit="10"
     id="path30" />
  <text
     fill="#252525"
     stroke="none"
     font-family="geogebra-sans-serif, sans-serif"
     font-size="12px"
     font-style="normal"
     font-weight="normal"
     text-decoration="normal"
     x="1391"
     y="712"
     text-anchor="start"
     dominant-baseline="alphabetic"
     fill-opacity="1"
     id="text30">2.6</text>
  <path
     fill="none"
     stroke="#252525"
     paint-order="fill stroke markers"
     d="m 1399.5,696.5 v 3"
     stroke-opacity="1"
     stroke-miterlimit="10"
     id="path31" />
  <text
     fill="#252525"
     stroke="none"
     font-family="geogebra-sans-serif, sans-serif"
     font-size="12px"
     font-style="normal"
     font-weight="normal"
     text-decoration="normal"
     x="1450"
     y="712"
     text-anchor="start"
     dominant-baseline="alphabetic"
     fill-opacity="1"
     id="text31">2.8</text>
  <path
     fill="none"
     stroke="#252525"
     paint-order="fill stroke markers"
     d="m 1458.5,696.5 v 3"
     stroke-opacity="1"
     stroke-miterlimit="10"
     id="path32" />
  <text
     fill="#252525"
     stroke="none"
     font-family="geogebra-sans-serif, sans-serif"
     font-size="12px"
     font-style="normal"
     font-weight="normal"
     text-decoration="normal"
     x="1515"
     y="712"
     text-anchor="start"
     dominant-baseline="alphabetic"
     fill-opacity="1"
     id="text32">3</text>
  <path
     fill="none"
     stroke="#252525"
     paint-order="fill stroke markers"
     d="m 1517.5,696.5 v 3"
     stroke-opacity="1"
     stroke-miterlimit="10"
     id="path33" />
  <text
     fill="#252525"
     stroke="none"
     font-family="geogebra-sans-serif, sans-serif"
     font-size="16px"
     font-style="normal"
     font-weight="normal"
     text-decoration="normal"
     x="640"
     y="17"
     text-anchor="start"
     dominant-baseline="alphabetic"
     fill-opacity="1"
     id="text33">ψ(x,t</text>
  <text
     fill="#252525"
     stroke="none"
     font-family="geogebra-sans-serif, sans-serif"
     font-size="14px"
     font-style="normal"
     font-weight="normal"
     text-decoration="normal"
     x="676"
     y="24"
     text-anchor="start"
     dominant-baseline="alphabetic"
     fill-opacity="1"
     id="text34">0</text>
  <text
     fill="#252525"
     stroke="none"
     font-family="geogebra-sans-serif, sans-serif"
     font-size="16px"
     font-style="normal"
     font-weight="normal"
     text-decoration="normal"
     x="684"
     y="17"
     text-anchor="start"
     dominant-baseline="alphabetic"
     fill-opacity="1"
     id="text35">)</text>
  <path
     fill="none"
     stroke="#252525"
     paint-order="fill stroke markers"
     d="m 632.5,873.5 h 3"
     stroke-opacity="1"
     stroke-miterlimit="10"
     id="path35" />
  <path
     fill="none"
     stroke="#252525"
     paint-order="fill stroke markers"
     d="m 632.5,814.5 h 3"
     stroke-opacity="1"
     stroke-miterlimit="10"
     id="path36" />
  <path
     fill="none"
     stroke="#252525"
     paint-order="fill stroke markers"
     d="m 632.5,755.5 h 3"
     stroke-opacity="1"
     stroke-miterlimit="10"
     id="path37" />
  <path
     fill="none"
     stroke="#252525"
     paint-order="fill stroke markers"
     d="m 632.5,637.5 h 3"
     stroke-opacity="1"
     stroke-miterlimit="10"
     id="path38" />
  <path
     fill="none"
     stroke="#252525"
     paint-order="fill stroke markers"
     d="m 632.5,579.5 h 3"
     stroke-opacity="1"
     stroke-miterlimit="10"
     id="path39" />
  <path
     fill="none"
     stroke="#252525"
     paint-order="fill stroke markers"
     d="m 632.5,520.5 h 3"
     stroke-opacity="1"
     stroke-miterlimit="10"
     id="path40" />
  <path
     fill="none"
     stroke="#252525"
     paint-order="fill stroke markers"
     d="m 632.5,461.5 h 3"
     stroke-opacity="1"
     stroke-miterlimit="10"
     id="path41" />
  <path
     fill="none"
     stroke="#252525"
     paint-order="fill stroke markers"
     d="m 632.5,402.5 h 3"
     stroke-opacity="1"
     stroke-miterlimit="10"
     id="path42" />
  <path
     fill="none"
     stroke="#252525"
     paint-order="fill stroke markers"
     d="m 632.5,343.5 h 3"
     stroke-opacity="1"
     stroke-miterlimit="10"
     id="path43" />
  <path
     fill="none"
     stroke="#252525"
     paint-order="fill stroke markers"
     d="m 632.5,284.5 h 3"
     stroke-opacity="1"
     stroke-miterlimit="10"
     id="path44" />
  <path
     fill="none"
     stroke="#252525"
     paint-order="fill stroke markers"
     d="m 632.5,226.5 h 3"
     stroke-opacity="1"
     stroke-miterlimit="10"
     id="path45" />
  <path
     fill="none"
     stroke="#252525"
     paint-order="fill stroke markers"
     d="m 632.5,167.5 h 3"
     stroke-opacity="1"
     stroke-miterlimit="10"
     id="path46" />
  <path
     fill="none"
     stroke="#252525"
     paint-order="fill stroke markers"
     d="m 632.5,108.5 h 3"
     stroke-opacity="1"
     stroke-miterlimit="10"
     id="path47" />
  <path
     fill="none"
     stroke="#252525"
     paint-order="fill stroke markers"
     d="m 632.5,49.5 h 3"
     stroke-opacity="1"
     stroke-miterlimit="10"
     id="path48" />
  <text
     fill="#252525"
     stroke="none"
     font-family="geogebra-sans-serif, sans-serif"
     font-size="12px"
     font-style="normal"
     font-weight="normal"
     text-decoration="normal"
     x="605"
     y="878"
     text-anchor="start"
     dominant-baseline="alphabetic"
     fill-opacity="1"
     id="text48">–0.6</text>
  <text
     fill="#252525"
     stroke="none"
     font-family="geogebra-sans-serif, sans-serif"
     font-size="12px"
     font-style="normal"
     font-weight="normal"
     text-decoration="normal"
     x="605"
     y="819"
     text-anchor="start"
     dominant-baseline="alphabetic"
     fill-opacity="1"
     id="text49">–0.4</text>
  <text
     fill="#252525"
     stroke="none"
     font-family="geogebra-sans-serif, sans-serif"
     font-size="12px"
     font-style="normal"
     font-weight="normal"
     text-decoration="normal"
     x="605"
     y="760"
     text-anchor="start"
     dominant-baseline="alphabetic"
     fill-opacity="1"
     id="text50">–0.2</text>
  <text
     fill="#252525"
     stroke="none"
     font-family="geogebra-sans-serif, sans-serif"
     font-size="12px"
     font-style="normal"
     font-weight="normal"
     text-decoration="normal"
     x="611"
     y="642"
     text-anchor="start"
     dominant-baseline="alphabetic"
     fill-opacity="1"
     id="text51">0.2</text>
  <text
     fill="#252525"
     stroke="none"
     font-family="geogebra-sans-serif, sans-serif"
     font-size="12px"
     font-style="normal"
     font-weight="normal"
     text-decoration="normal"
     x="611"
     y="584"
     text-anchor="start"
     dominant-baseline="alphabetic"
     fill-opacity="1"
     id="text52">0.4</text>
  <text
     fill="#252525"
     stroke="none"
     font-family="geogebra-sans-serif, sans-serif"
     font-size="12px"
     font-style="normal"
     font-weight="normal"
     text-decoration="normal"
     x="611"
     y="525"
     text-anchor="start"
     dominant-baseline="alphabetic"
     fill-opacity="1"
     id="text53">0.6</text>
  <text
     fill="#252525"
     stroke="none"
     font-family="geogebra-sans-serif, sans-serif"
     font-size="12px"
     font-style="normal"
     font-weight="normal"
     text-decoration="normal"
     x="611"
     y="466"
     text-anchor="start"
     dominant-baseline="alphabetic"
     fill-opacity="1"
     id="text54">0.8</text>
  <text
     fill="#252525"
     stroke="none"
     font-family="geogebra-sans-serif, sans-serif"
     font-size="12px"
     font-style="normal"
     font-weight="normal"
     text-decoration="normal"
     x="621"
     y="407"
     text-anchor="start"
     dominant-baseline="alphabetic"
     fill-opacity="1"
     id="text55">1</text>
  <text
     fill="#252525"
     stroke="none"
     font-family="geogebra-sans-serif, sans-serif"
     font-size="12px"
     font-style="normal"
     font-weight="normal"
     text-decoration="normal"
     x="611"
     y="348"
     text-anchor="start"
     dominant-baseline="alphabetic"
     fill-opacity="1"
     id="text56">1.2</text>
  <text
     fill="#252525"
     stroke="none"
     font-family="geogebra-sans-serif, sans-serif"
     font-size="12px"
     font-style="normal"
     font-weight="normal"
     text-decoration="normal"
     x="611"
     y="289"
     text-anchor="start"
     dominant-baseline="alphabetic"
     fill-opacity="1"
     id="text57">1.4</text>
  <text
     fill="#252525"
     stroke="none"
     font-family="geogebra-sans-serif, sans-serif"
     font-size="12px"
     font-style="normal"
     font-weight="normal"
     text-decoration="normal"
     x="611"
     y="231"
     text-anchor="start"
     dominant-baseline="alphabetic"
     fill-opacity="1"
     id="text58">1.6</text>
  <text
     fill="#252525"
     stroke="none"
     font-family="geogebra-sans-serif, sans-serif"
     font-size="12px"
     font-style="normal"
     font-weight="normal"
     text-decoration="normal"
     x="611"
     y="172"
     text-anchor="start"
     dominant-baseline="alphabetic"
     fill-opacity="1"
     id="text59">1.8</text>
  <text
     fill="#252525"
     stroke="none"
     font-family="geogebra-sans-serif, sans-serif"
     font-size="12px"
     font-style="normal"
     font-weight="normal"
     text-decoration="normal"
     x="621"
     y="113"
     text-anchor="start"
     dominant-baseline="alphabetic"
     fill-opacity="1"
     id="text60">2</text>
  <text
     fill="#252525"
     stroke="none"
     font-family="geogebra-sans-serif, sans-serif"
     font-size="12px"
     font-style="normal"
     font-weight="normal"
     text-decoration="normal"
     x="611"
     y="54"
     text-anchor="start"
     dominant-baseline="alphabetic"
     fill-opacity="1"
     id="text61">2.2</text>
  <text
     fill="#252525"
     stroke="none"
     font-family="geogebra-sans-serif, sans-serif"
     font-size="12px"
     font-style="normal"
     font-weight="normal"
     text-decoration="normal"
     x="621"
     y="712"
     text-anchor="start"
     dominant-baseline="alphabetic"
     fill-opacity="1"
     id="text62">0</text>
  <path
     fill="none"
     stroke="#0000ff"
     paint-order="fill stroke markers"
     d="m 1,674.28508 v 0.0673 -0.0673 l 1,-0.0676 v 0 l 1,-0.0679 v 0 l 1,-0.0682 v 0 l 1,-0.0685 v 0 l 1,-0.0688 v 0 l 1,-0.0691 v 0 l 1,-0.0694 v 0 l 1,-0.0697 v 0 l 1,-0.0701 v 0 l 1,-0.0704 v 0 l 1,-0.0707 v 0 l 1,-0.071 v 0 l 1,-0.0713 v 0 l 1,-0.0716 v 0 l 1,-0.072 v 0 l 1,-0.0723 v 0 l 1,-0.0726 v 0 l 1,-0.0729 v 0 l 1,-0.0733 v 0 l 1,-0.0736 v 0 l 1,-0.0739 v 0 l 1,-0.0743 v 0 l 1,-0.0746 v 0 l 1,-0.0749 v 0 l 1,-0.0753 v 0 l 1,-0.0756 v 0 l 1,-0.076 v 0 l 1,-0.0763 v 0 l 1,-0.0767 v 0 l 1,-0.077 v 0 l 1,-0.0774 v 0 l 1,-0.0777 v 0 l 1,-0.0781 v 0 l 1,-0.0785 v 0 l 1,-0.0788 v 0 l 1,-0.0792 v 0 l 1,-0.0796 v 0 l 1,-0.0799 v 0 l 1,-0.0803 v 0 l 1,-0.0807 v 0 l 1,-0.0811 v 0 l 1,-0.0814 v 0 l 1,-0.0818 v 0 l 1,-0.0822 v 0 l 1,-0.0826 v 0 l 1,-0.083 v 0 l 1,-0.0834 v 0 l 1,-0.0838 v 0 l 1,-0.0842 v 0 l 1,-0.0846 v 0 l 1,-0.085 v 0 l 1,-0.0854 v 0 l 1,-0.0858 v 0 l 1,-0.0862 v 0 l 1,-0.0866 v 0 l 1,-0.087 v 0 l 1,-0.0874 v 0 l 1,-0.0878 v 0 l 1,-0.0883 v 0 l 1,-0.0887 v 0 l 1,-0.0891 v 0 l 1,-0.0895 v 0 l 1,-0.09 v 0 l 1,-0.0904 v 0 l 1,-0.0908 v 0 l 1,-0.0913 v 0 l 1,-0.0917 v 0 l 1,-0.0922 v 0 l 1,-0.0926 v 0 l 1,-0.0931 v 0 l 1,-0.0935 v 0 l 1,-0.094 v 0 l 1,-0.0944 v 0 l 1,-0.0949 v 0 l 1,-0.0954 v 0 l 1,-0.0958 v 0 l 1,-0.0963 v 0 l 1,-0.0968 v 0 l 1,-0.0973 v 0 l 1,-0.0977 v 0 l 1,-0.0982 v 0 l 1,-0.0987 v 0 l 1,-0.0992 v 0 l 1,-0.0997 v 0 l 1,-0.10019 v 0 l 1,-0.10069 v 0 l 1,-0.10118 v 0 l 1,-0.1017 v 0 l 1,-0.10221 v 0 l 1,-0.10271 v 0 l 1,-0.10324 v 0 l 1,-0.10375 v 0 l 1,-0.10428 v 0 l 1,-0.1048 v 0 l 1,-0.10533 v 0 l 1,-0.10587 v 0 l 1,-0.1064 v 0 l 1,-0.10695 v 0 l 1,-0.10749 v 0 l 1,-0.10803 v 0 l 1,-0.10859 v 0 l 1,-0.10914 v 0 l 1,-0.1097 v 0 l 1,-0.11026 v 0 l 1,-0.11083 v 0 l 1,-0.1114 v 0 l 1,-0.11197 v 0 l 1,-0.11255 v 0 l 1,-0.11313 v 0 l 1,-0.11372 v 0 l 1,-0.11431 v 0 l 1,-0.11489 v 0 l 1,-0.1155 v 0 l 1,-0.1161 v 0 l 1,-0.1167 v 0 l 1,-0.11731 v 0 l 1,-0.11792 v 0 l 1,-0.11855 v 0 l 1,-0.11916 v 0 l 1,-0.11979 v 0 l 1,-0.12042 v 0 l 1,-0.12105 v 0 l 1,-0.1217 v 0 l 1,-0.12233 v 0 l 1,-0.12299 v 0 l 1,-0.12363 v 0 l 1,-0.1243 v 0 l 1,-0.12495 v 0 l 1,-0.12562 v 0 l 1,-0.12629 v 0 l 1,-0.12697 v 0 l 1,-0.12764 v 0 l 1,-0.12833 v 0 l 1,-0.12901 v 0 l 1,-0.12972 v 0 l 1,-0.1304 v 0 l 1,-0.13112 v 0 l 1,-0.13182 v 0 l 1,-0.13253 v 0 l 1,-0.13326 v 0 l 1,-0.13397 v 0 l 1,-0.13471 v 0 l 1,-0.13543 v 0 l 1,-0.13618 v 0 l 1,-0.13692 v 0 l 1,-0.13767 v 0 l 1,-0.13842 v 0 l 1,-0.13919 v 0 l 1,-0.13995 v 0 l 1,-0.14071 v 0 l 1,-0.1415 v 0 l 1,-0.14228 v 0 l 1,-0.14306 v 0 l 1,-0.14386 v 0 l 1,-0.14465 v 0 l 1,-0.14546 v 0 l 1,-0.14627 v 0 l 1,-0.14708 v 0 l 1,-0.14791 v 0 l 1,-0.14873 v 0 l 1,-0.14957 v 0 l 1,-0.1504 v 0 l 1,-0.15126 v 0 l 1,-0.1521 v 0 l 1,-0.15296 v 0 l 1,-0.15382 v 0 l 1,-0.1547 v 0 l 1,-0.15557 v 0 l 1,-0.15646 v 0 l 1,-0.15734 v 0 l 1,-0.15824 v 0 l 1,-0.15914 v 0 l 1,-0.16005 v 0 l 1,-0.16097 v 0 l 1,-0.16189 v 0 l 1,-0.16282 v 0 l 1,-0.16376 v 0 l 1,-0.1647 v 0 l 1,-0.16565 v 0 l 1,-0.1666 v 0 l 1,-0.16757 v 0 l 1,-0.16854 v 0 l 1,-0.16952 v 0 l 1,-0.17051 v 0 l 1,-0.1715 v 0 l 1,-0.1725 v 0 l 1,-0.17351 v 0 l 1,-0.17452 v 0 l 1,-0.17555 v 0 l 1,-0.17658 v 0 l 1,-0.17761 v 0 l 1,-0.17867 v 0 l 1,-0.17971 v 0 l 1,-0.18079 v 0 l 1,-0.18185 v 0 l 1,-0.18293 v 0 l 1,-0.18401 v 0 l 1,-0.18511 v 0 l 1,-0.18622 v 0 l 1,-0.18733 v 0 l 1,-0.18844 v 0 l 1,-0.18958 v 0 l 1,-0.19071 v 0 l 1,-0.19186 v 0 l 1,-0.19302 v 0 l 1,-0.19417 v 0 l 1,-0.19536 v 0 l 1,-0.19653 v 0 l 1,-0.19772 v 0 l 1,-0.19893 v 0 l 1,-0.20013 v 0 l 1,-0.20135 v 0 l 1,-0.20259 v 0 l 1,-0.20382 v 0 l 1,-0.20506 v 0 l 1,-0.20633 v 0 l 1,-0.20759 v 0 l 1,-0.20886 v 0 l 1,-0.21016 v 0 l 1,-0.21145 v 0 l 1,-0.21276 v 0 l 1,-0.21408 v 0 l 1,-0.2154 v 0 l 1,-0.21675 v 0 l 1,-0.21809 v 0 l 1,-0.21945 v 0 l 1,-0.22082 v 0 l 1,-0.2222 v 0 l 1,-0.2236 v 0 l 1,-0.225 v 0 l 1,-0.22641 v 0 l 1,-0.22784 v 0 l 1,-0.22927 v 0 l 1,-0.23073 v 0 l 1,-0.23218 v 0 l 1,-0.23366 v 0 l 1,-0.23514 v 0 l 1,-0.23663 v 0 l 1,-0.23815 v 0 l 1,-0.23966 v 0 l 1,-0.2412 v 0 l 1,-0.24273 v 0 l 1,-0.2443 v 0 l 1,-0.24587 v 0 l 1,-0.24744 v 0 l 1,-0.24905 v 0 l 1,-0.25065 v 0 l 1,-0.25227 v 0 l 1,-0.25391 v 0 l 1,-0.25555 v 0 l 1,-0.25722 v 0 l 1,-0.25889 v 0 l 1,-0.26058 v 0 l 1,-0.26228 v 0 l 1,-0.264 v 0 l 1,-0.26572 v 0 l 1,-0.26748 v 0 l 1,-0.26923 v 0 l 1,-0.27101 v 0 l 1,-0.27279 v 0 l 1,-0.2746 v 0 l 1,-0.27641 v 0 l 1,-0.27825 v 0 l 1,-0.2801 v 0 l 1,-0.28196 v 0 l 1,-0.28384 v 0 l 1,-0.28574 v 0 l 1,-0.28765 v 0 l 1,-0.28957 v 0 l 1,-0.29152 v 0 l 1,-0.29348 v 0 l 1,-0.29545 v 0 l 1,-0.29744 v 0 l 1,-0.29946 v 0 l 1,-0.30148 v 0 l 1,-0.30352 v 0 l 1,-0.30559 v 0 l 1,-0.30766 v 0 l 1,-0.30976 v 0 l 1,-0.31187 v 0 l 1,-0.314 v 0 l 1,-0.31615 v 0 l 1,-0.31832 v 0 l 1,-0.32051 v 0 l 1,-0.32271 v 0 l 1,-0.32494 v 0 l 1,-0.32717 v 0 l 1,-0.32944 v 0 l 1,-0.33172 v 0 l 1,-0.33402 v 0 l 1,-0.33634 v 0 l 1,-0.33869 v 0 l 1,-0.34104 v 0 l 1,-0.34342 v 0 l 1,-0.34583 v 0 l 1,-0.34825 v 0 l 1,-0.35069 v 0 l 1,-0.35315 v 0 l 1,-0.35564 v 0 l 1,-0.35815 v 0 l 1,-0.36068 v 0 l 1,-0.36323 v 0 l 1,-0.3658 v 0 l 1,-0.36839 v 0 l 1,-0.37102 v 0 l 1,-0.37365 v 0 l 1,-0.37632 v 0 l 1,-0.37901 v 0 l 1,-0.38172 v 0 l 1,-0.38445 v 0 l 1,-0.38721 v 0 l 1,-0.38999 v 0 l 1,-0.3928 v 0 l 1,-0.39563 v 0 l 1,-0.39849 v 0 l 1,-0.40137 v 0 l 1,-0.40428 v 0 l 1,-0.40721 v 0 l 1,-0.41017 v 0 l 1,-0.41315 v 0 l 1,-0.41617 v 0 l 1,-0.4192 v 0 l 1,-0.42226 v 0 l 1,-0.42536 v 0 l 1,-0.42848 v 0 l 1,-0.43162 v 0 l 1,-0.4348 v 0 l 1,-0.438 v 0 l 1,-0.44123 v 0 l 1,-0.4445 v 0 l 1,-0.44778 v 0 l 1,-0.4511 v 0 l 1,-0.45445 v 0 l 1,-0.45782 v 0 l 1,-0.46123 v 0 l 1,-0.46467 v 0 l 1,-0.46814 v 0 l 1,-0.47164 v 0 l 1,-0.47517 v 0 l 1,-0.47874 v 0 l 1,-0.48232 v 0 l 1,-0.48596 v 0 l 1,-0.48961 v 0 l 1,-0.49331 v 0 l 1,-0.49703 v 0 l 1,-0.50078 v 0 l 1,-0.50458 v 0 l 1,-0.50841 v 0 l 1,-0.51226 v 0 l 1,-0.51616 v 0 l 1,-0.52009 v 0 l 1,-0.52405 v 0 l 1,-0.52806 v 0 l 1,-0.53209 v 0 l 1,-0.53616 v 0 l 1,-0.54027 v 0 l 1,-0.54442 v 0 l 1,-0.5486 v 0 l 1,-0.55282 v 0 l 1,-0.55708 v 0 l 1,-0.56138 v 0 l 1,-0.56571 v 0 l 1,-0.57008 v 0 l 1,-0.5745 v 0 l 1,-0.57895 v 0 l 1,-0.58344 v 0 l 1,-0.58798 v 0 l 1,-0.59254 v 0 l 1,-0.59717 v 0 l 1,-0.60181 v 0 l 1,-0.60652 v 0 l 1,-0.61125 v 0 l 1,-0.61603 v 0 l 1,-0.62086 v 0 l 1,-0.62573 v 0 l 1,-0.63063 v 0 l 1,-0.63559 v 0 l 1,-0.64059 v 0 l 1,-0.64563 v 0 l 1,-0.65071 v 0 l 1,-0.65585 v 0 l 1,-0.66103 v 0 l 1,-0.66625 v 0 l 1,-0.67151 v 0 l 1,-0.67684 v 0 l 1,-0.6822 v 0 l 1,-0.68761 v 0 l 1,-0.69306 v 0 l 1,-0.69857 v 0 l 1,-0.70413 v 0 l 1,-0.70973 v 0 l 1,-0.71538 v 0 l 1,-0.72108 v 0 l 1,-0.72684 v 0 l 1,-0.73263 v 0 l 1,-0.73848 v 0 l 1,-0.74439 v 0 l 1,-0.75034 v 0 l 1,-0.75634 v 0 l 1,-0.7624 v 0 l 1,-0.7685 v 0 l 1,-0.77467 v 0 l 1,-0.78088 v 0 l 1,-0.78714 v 0 l 1,-0.79346 v 0 l 1,-0.79984 v 0 l 1,-0.80626 v 0 l 1,-0.81274 v 0 l 1,-0.81927 v 0 l 1,-0.82587 v 0 l 1,-0.83251 v 0 l 1,-0.8392 v 0 l 1,-0.84597 v 0 l 1,-0.85277 v 0 l 1,-0.85964 v 0 l 1,-0.86656 v 0 l 1,-0.87354 v 0 l 1,-0.88058 v 0 l 1,-0.88767 v 0 l 1,-0.89482 v 0 l 1,-0.90202 v 0 l 1,-0.90929 v 0 l 1,-0.91661 v 0 l 1,-0.92399 v 0 l 1,-0.93143 v 0 l 1,-0.93893 v 0 l 1,-0.94647 v 0 l 1,-0.95409 v 0 l 1,-0.96176 v 0 l 1,-0.96948 v 0 l 1,-0.97727 v 0 l 1,-0.98512 v 0 l 1,-0.99302 v 0 l 1,-1.00098 v 0 l 1,-1.009 v 0 l 1,-1.01707 v 0 l 1,-1.02522 v 0 l 1,-1.03341 v 0 l 1,-1.04166 v 0 l 1,-1.04997 v 0 l 1,-1.05833 v 0 l 1,-1.06677 v 0 l 1,-1.07524 v 0 l 1,-1.08379 v 0 l 1,-1.09238 v 0 l 1,-1.10104 v 0 l 1,-1.10974 v 0 l 1,-1.11851 v 0 l 1,-1.12733 v 0 l 1,-1.13621 v 0 l 1,-1.14514 v 0 l 1,-1.15412 v 0 l 1,-1.16316 v 0 l 1,-1.17225 v 0 l 1,-1.18139 v 0 l 1,-1.19059 v 0 l 1,-1.19983 v 0 l 1,-1.20914 v 0 l 1,-1.21847 v 0 l 1,-1.22788 v 0 l 1,-1.23731 v 0 l 1,-1.24681 v 0 l 1,-1.25634 v 0 l 1,-1.26592 v 0 l 1,-1.27555 v 0 l 1,-1.28521 v 0 l 1,-1.29493 v 0 l 1,-1.30467 v 0 l 1,-1.31447 v 0 l 1,-1.32429 v 0 l 1,-1.33415 v 0 l 1,-1.34405 v 0 l 1,-1.35399 v 0 l 1,-1.36394 v 0 l 1,-1.37394 v 0 l 1,-1.38397 v 0 l 1,-1.39401 v 0 l 1,-1.40408 v 0 l 1,-1.41418 v 0 l 1,-1.4243 v 0 l 1,-1.43443 v 0 l 1,-1.44458 v 0 l 1,-1.45475 v 0 l 1,-1.46492 v 0 l 1,-1.47511 v 0 l 1,-1.4853 v 0 l 1,-1.4955 v 0 l 1,-1.5057 v 0 l 1,-1.51589 v 0 l 1,-1.52608 v 0 l 1,-1.53627 v 0 l 1,-1.54644 v 0 l 1,-1.5566 v 0 l 1,-1.56675 v 0 l 1,-1.57686 v 0 l 1,-1.58696 v 0 l 1,-1.59704 v 0 l 1,-1.60706 v 0 l 1,-1.61707 v 0 l 1,-1.62704 v 0 l 1,-1.63695 v 0 l 1,-1.64682 v 0 l 1,-1.65664 v 0 l 1,-1.6664 v 0 l 1,-1.6761 v 0 l 1,-1.68574 v 0 l 1,-1.69529 v 0 l 1,-1.70479 v 0 l 1,-1.71418 v 0 l 1,-1.72351 v 0 l 1,-1.73273 v 0 l 1,-1.74187 v 0 l 1,-1.75089 v 0 l 1,-1.7598 v 0 l 1,-1.76861 v 0 l 1,-1.77729 v 0 l 1,-1.78585 v 0 l 1,-1.79427 v 0 l 1,-1.80254 v 0 l 1,-1.81069 v 0 l 1,-1.81866 v 0 l 1,-1.82649 v 0 l 1,-1.83414 v 0 l 1,-1.84162 v 0 l 1,-1.84892 v 0 l 1,-1.85603 v 0 l 1,-1.86294 v 0 l 1,-1.86964 v 0 l 1,-1.87615 v 0 l 1,-1.88242 v 0 l 1,-1.88847 v 0 l 1,-1.89428 v 0 l 1,-1.89984 v 0 l 1,-1.90516 v 0 l 1,-1.91022 v 0 l 1,-1.91499 v 0 l 1,-1.9195 v 0 l 1,-1.92371 v 0 l 1,-1.92763 v 0 l 1,-1.93124 v 0 l 1,-1.93454 v 0 l 1,-1.93751 v 0 l 1,-1.94015 v 0 l 1,-1.94245 v 0 l 1,-1.9444 v 0 l 1,-1.94598 v 0 l 1,-1.94719 v 0 l 1,-1.94802 v 0 l 1,-1.94847 v 0 l 1,-1.94851 v 0 l 1,-1.94814 v 0 l 1,-1.94736 v 0 l 1,-1.94614 v 0 l 1,-1.9445 v 0 l 1,-1.94239 v 0 l 1,-1.93985 v 0 l 1,-1.93682 v 0 l 1,-1.93333 v 0 l 1,-1.92935 v 0 l 1,-1.92487 v 0 l 1,-1.91991 v 0 l 1,-1.91441 v 0 l 1,-1.90841 v 0 l 1,-1.90187 v 0 l 1,-1.8948 v 0 l 1,-1.88719 v 0 l 1,-1.87901 v 0 l 1,-1.87028 v 0 l 1,-1.86098 v 0 l 1,-1.85111 v 0 l 1,-1.84064 v 0 l 1,-1.8296 v 0 l 1,-1.81795 v 0 l 1,-1.8057 v 0 l 1,-1.79285 v 0 l 1,-1.77938 v 0 l 1,-1.76528 v 0 l 1,-1.75058 v 0 l 1,-1.73523 v 0 l 1,-1.71926 v 0 l 1,-1.70265 v 0 l 1,-1.6854 v 0 l 1,-1.66751 v 0 l 1,-1.64898 v 0 l 1,-1.6298 v 0 l 1,-1.60997 v 0 l 1,-1.5895 v 0 l 1,-1.56838 v 0 l 1,-1.54662 v 0 l 1,-1.5242 v 0 l 1,-1.50115 v 0 l 1,-1.47745 v 0 l 1,-1.45311 v 0 l 1,-1.42813 v 0 l 1,-1.40253 v 0 l 1,-1.37629 v 0 l 1,-1.34944 v 0 l 1,-1.32196 v 0 l 1,-1.29388 v 0 l 1,-1.26519 v 0 l 1,-1.2359 v 0 l 1,-1.20604 v 0 l 1,-1.17559 v 0 l 1,-1.14457 v 0 l 1,-1.113 v 0 l 1,-1.08087 v 0 l 1,-1.04822 v 0 l 1,-1.01503 v 0 l 1,-0.98134 v 0 l 1,-0.94715 v 0 l 1,-0.91247 v 0 l 1,-0.87733 v 0 l 1,-0.84174 v 0 l 1,-0.8057 v 0 l 1,-0.76925 v 0 l 1,-0.73238 v 0 l 1,-0.69514 v 0 l 1,-0.65752 v 0 l 1,-0.61956 v 0 l 1,-0.58125 v 0 l 1,-0.54264 v 0 l 1,-0.50373 v 0 l 1,-0.46455 v 0 l 1,-0.42511 v 0 l 1,-0.38546 v 0 l 1,-0.34557 v 0 l 1,-0.30551 v 0 l 1,-0.26527 v 0 l 1,-0.2249 v 0 l 1,-0.18439 v 0 l 1,-0.14378 v 0 l 1,-0.10309 v 0 l 1,-0.0624 v 0 l 1,-0.0216 v 0.0192 l 1,-0.0192 v 0.0192 l 1,0.06 v 0 l 1,0.10075 v 0 l 1,0.14143 v 0 l 1,0.18204 v 0 l 1,0.22256 v 0 l 1,0.26295 v 0 l 1,0.30318 v 0 l 1,0.34327 v 0 l 1,0.38315 v 0 l 1,0.42283 v 0 l 1,0.46228 v 0 l 1,0.50148 v 0 l 1,0.5404 v 0 l 1,0.57903 v 0 l 1,0.61734 v 0 l 1,0.65534 v 0 l 1,0.69298 v 0 l 1,0.73024 v 0 l 1,0.76713 v 0 l 1,0.8036 v 0 l 1,0.83967 v 0 l 1,0.87529 v 0 l 1,0.91045 v 0 l 1,0.94516 v 0 l 1,0.97938 v 0 l 1,1.0131 v 0 l 1,1.04631 v 0 l 1,1.079 v 0 l 1,1.11116 v 0 l 1,1.14276 v 0 l 1,1.17381 v 0 l 1,1.20429 v 0 l 1,1.2342 v 0 l 1,1.26352 v 0 l 1,1.29223 v 0 l 1,1.32036 v 0 l 1,1.34786 v 0 l 1,1.37476 v 0 l 1,1.40103 v 0 l 1,1.42667 v 0 l 1,1.45169 v 0 l 1,1.47606 v 0 l 1,1.49979 v 0 l 1,1.52289 v 0 l 1,1.54534 v 0 l 1,1.56714 v 0 l 1,1.5883 v 0 l 1,1.60881 v 0 l 1,1.62867 v 0 l 1,1.64789 v 0 l 1,1.66645 v 0 l 1,1.68439 v 0 l 1,1.70167 v 0 l 1,1.71832 v 0 l 1,1.73432 v 0 l 1,1.74971 v 0 l 1,1.76445 v 0 l 1,1.77858 v 0 l 1,1.79208 v 0 l 1,1.80498 v 0 l 1,1.81726 v 0 l 1,1.82894 v 0 l 1,1.84002 v 0 l 1,1.85052 v 0 l 1,1.86043 v 0 l 1,1.86976 v 0 l 1,1.87852 v 0 l 1,1.88673 v 0 l 1,1.89437 v 0 l 1,1.90148 v 0 l 1,1.90805 v 0 l 1,1.91408 v 0 l 1,1.9196 v 0 l 1,1.9246 v 0 l 1,1.9291 v 0 l 1,1.93312 v 0 l 1,1.93663 v 0 l 1,1.93968 v 0 l 1,1.94226 v 0 l 1,1.94439 v 0 l 1,1.94606 v 0 l 1,1.9473 v 0 l 1,1.94811 v 0 l 1,1.9485 v 0 l 1,1.94848 v 0 l 1,1.94806 v 0 l 1,1.94725 v 0 l 1,1.94606 v 0 l 1,1.94449 v 0 l 1,1.94257 v 0 l 1,1.9403 v 0 l 1,1.93767 v 0 l 1,1.93472 v 0 l 1,1.93144 v 0 l 1,1.92785 v 0 l 1,1.92395 v 0 l 1,1.91975 v 0 l 1,1.91526 v 0 l 1,1.91049 v 0 l 1,1.90546 v 0 l 1,1.90016 v 0 l 1,1.89461 v 0 l 1,1.88881 v 0 l 1,1.88278 v 0 l 1,1.87651 v 0 l 1,1.87003 v 0 l 1,1.86333 v 0 l 1,1.85644 v 0 l 1,1.84933 v 0 l 1,1.84205 v 0 l 1,1.83458 v 0 l 1,1.82693 v 0 l 1,1.81912 v 0 l 1,1.81115 v 0 l 1,1.80302 v 0 l 1,1.79475 v 0 l 1,1.78634 v 0 l 1,1.77779 v 0 l 1,1.76911 v 0 l 1,1.76032 v 0 l 1,1.75141 v 0 l 1,1.74238 v 0 l 1,1.73327 v 0 l 1,1.72404 v 0 l 1,1.71473 v 0 l 1,1.70533 v 0 l 1,1.69584 v 0 l 1,1.68629 v 0 l 1,1.67666 v 0 l 1,1.66696 v 0 l 1,1.65721 v 0 l 1,1.64739 v 0 l 1,1.63752 v 0 l 1,1.62761 v 0 l 1,1.61765 v 0 l 1,1.60764 v 0 l 1,1.59762 v 0 l 1,1.58754 v 0 l 1,1.57745 v 0 l 1,1.56733 v 0 l 1,1.55719 v 0 l 1,1.54703 v 0 l 1,1.53685 v 0 l 1,1.52667 v 0 l 1,1.51649 v 0 l 1,1.50628 v 0 l 1,1.49609 v 0 l 1,1.48589 v 0 l 1,1.4757 v 0 l 1,1.46551 v 0 l 1,1.45534 v 0 l 1,1.44517 v 0 l 1,1.43501 v 0 l 1,1.42488 v 0 l 1,1.41477 v 0 l 1,1.40466 v 0 l 1,1.39459 v 0 l 1,1.38455 v 0 l 1,1.37452 v 0 l 1,1.36452 v 0 l 1,1.35456 v 0 l 1,1.34462 v 0 l 1,1.33473 v 0 l 1,1.32486 v 0 l 1,1.31503 v 0 l 1,1.30524 v 0 l 1,1.29548 v 0 l 1,1.28578 v 0 l 1,1.2761 v 0 l 1,1.26648 v 0 l 1,1.25689 v 0 l 1,1.24736 v 0 l 1,1.23786 v 0 l 1,1.22842 v 0 l 1,1.21902 v 0 l 1,1.20967 v 0 l 1,1.20037 v 0 l 1,1.19112 v 0 l 1,1.18192 v 0 l 1,1.17278 v 0 l 1,1.16368 v 0 l 1,1.15465 v 0 l 1,1.14565 v 0 l 1,1.13672 v 0 l 1,1.12784 v 0 l 1,1.11902 v 0 l 1,1.11025 v 0 l 1,1.10154 v 0 l 1,1.09288 v 0 l 1,1.08428 v 0 l 1,1.07574 v 0 l 1,1.06725 v 0 l 1,1.05882 v 0 l 1,1.05046 v 0 l 1,1.04214 v 0 l 1,1.03388 v 0 l 1,1.02568 v 0 l 1,1.01755 v 0 l 1,1.00946 v 0 l 1,1.00145 v 0 l 1,0.99347 v 0 l 1,0.98557 v 0 l 1,0.97773 v 0 l 1,0.96993 v 0 l 1,0.9622 v 0 l 1,0.95453 v 0 l 1,0.94692 v 0 l 1,0.93935 v 0 l 1,0.93186 v 0 l 1,0.92442 v 0 l 1,0.91704 v 0 l 1,0.90971 v 0 l 1,0.90244 v 0 l 1,0.89524 v 0 l 1,0.88808 v 0 l 1,0.88098 v 0 l 1,0.87395 v 0 l 1,0.86696 v 0 l 1,0.86004 v 0 l 1,0.85317 v 0 l 1,0.84635 v 0 l 1,0.8396 v 0 l 1,0.83289 v 0 l 1,0.82625 v 0 l 1,0.81965 v 0 l 1,0.81312 v 0 l 1,0.80663 v 0 l 1,0.80021 v 0 l 1,0.79383 v 0 l 1,0.78751 v 0 l 1,0.78123 v 0 l 1,0.77503 v 0 l 1,0.76886 v 0 l 1,0.76275 v 0 l 1,0.75669 v 0 l 1,0.75068 v 0 l 1,0.74473 v 0 l 1,0.73882 v 0 l 1,0.73297 v 0 l 1,0.72717 v 0 l 1,0.72141 v 0 l 1,0.71571 v 0 l 1,0.71006 v 0 l 1,0.70444 v 0 l 1,0.6989 v 0 l 1,0.69338 v 0 l 1,0.68792 v 0 l 1,0.68251 v 0 l 1,0.67714 v 0 l 1,0.67183 v 0 l 1,0.66655 v 0 l 1,0.66133 v 0 l 1,0.65614 v 0 l 1,0.65102 v 0 l 1,0.64592 v 0 l 1,0.64087 v 0 l 1,0.63588 v 0 l 1,0.63092 v 0 l 1,0.62601 v 0 l 1,0.62114 v 0 l 1,0.61631 v 0 l 1,0.61153 v 0 l 1,0.60678 v 0 l 1,0.60209 v 0 l 1,0.59743 v 0 l 1,0.59281 v 0 l 1,0.58824 v 0 l 1,0.5837 v 0 l 1,0.57921 v 0 l 1,0.57476 v 0 l 1,0.57033 v 0 l 1,0.56597 v 0 l 1,0.56162 v 0 l 1,0.55733 v 0 l 1,0.55306 v 0 l 1,0.54885 v 0 l 1,0.54465 v 0 l 1,0.54051 v 0 l 1,0.5364 v 0 l 1,0.53233 v 0 l 1,0.52828 v 0 l 1,0.52429 v 0 l 1,0.52032 v 0 l 1,0.51638 v 0 l 1,0.51249 v 0 l 1,0.50863 v 0 l 1,0.5048 v 0 l 1,0.501 v 0 l 1,0.49725 v 0 l 1,0.49352 v 0 l 1,0.48982 v 0 l 1,0.48617 v 0 l 1,0.48253 v 0 l 1,0.47894 v 0 l 1,0.47538 v 0 l 1,0.47184 v 0 l 1,0.46834 v 0 l 1,0.46487 v 0 l 1,0.46143 v 0 l 1,0.45802 v 0 l 1,0.45465 v 0 l 1,0.45129 v 0 l 1,0.44797 v 0 l 1,0.44468 v 0 l 1,0.44142 v 0 l 1,0.43819 v 0 l 1,0.43498 v 0 l 1,0.43181 v 0 l 1,0.42866 v 0 l 1,0.42553 v 0 l 1,0.42245 v 0 l 1,0.41938 v 0 l 1,0.41634 v 0 l 1,0.41332 v 0 l 1,0.41034 v 0 l 1,0.40738 v 0 l 1,0.40445 v 0 l 1,0.40154 v 0 l 1,0.39865 v 0 l 1,0.3958 v 0 l 1,0.39296 v 0 l 1,0.39015 v 0 l 1,0.38737 v 0 l 1,0.38461 v 0 l 1,0.38188 v 0 l 1,0.37916 v 0 l 1,0.37648 v 0 l 1,0.37381 v 0 l 1,0.37116 v 0 l 1,0.36855 v 0 l 1,0.36595 v 0 l 1,0.36338 v 0 l 1,0.36082 v 0 l 1,0.35829 v 0 l 1,0.35579 v 0 l 1,0.3533 v 0 l 1,0.35083 v 0 l 1,0.34839 v 0 l 1,0.34596 v 0 l 1,0.34356 v 0 l 1,0.34118 v 0 l 1,0.33882 v 0 l 1,0.33648 v 0 l 1,0.33415 v 0 l 1,0.33185 v 0 l 1,0.32958 v 0 l 1,0.3273 v 0 l 1,0.32507 v 0 l 1,0.32284 v 0 l 1,0.32063 v 0 l 1,0.31844 v 0 l 1,0.31628 v 0 l 1,0.31413 v 0 l 1,0.31199 v 0 l 1,0.30988 v 0 l 1,0.30778 v 0 l 1,0.30571 v 0 l 1,0.30364 v 0 l 1,0.3016 v 0 l 1,0.29957 v 0 l 1,0.29756 v 0 l 1,0.29557 v 0 l 1,0.29359 v 0 l 1,0.29163 v 0 l 1,0.28968 v 0 l 1,0.28776 v 0 l 1,0.28585 v 0 l 1,0.28395 v 0 l 1,0.28207 v 0 l 1,0.2802 v 0 l 1,0.27836 v 0 l 1,0.27652 v 0 l 1,0.2747 v 0 l 1,0.2729 v 0 l 1,0.27111 v 0 l 1,0.26933 v 0 l 1,0.26758 v 0 l 1,0.26583 v 0 l 1,0.2641 v 0 l 1,0.26238 v 0 l 1,0.26067 v 0 l 1,0.25899 v 0 l 1,0.25731 v 0 l 1,0.25565 v 0 l 1,0.254 v 0 l 1,0.25237 v 0 l 1,0.25074 v 0 l 1,0.24914 v 0 l 1,0.24754 v 0 l 1,0.24596 v 0 l 1,0.24438 v 0 l 1,0.24283 v 0 l 1,0.24129 v 0 l 1,0.23975 v 0 l 1,0.23823 v 0 l 1,0.23672 v 0 l 1,0.23523 v 0 l 1,0.23374 v 0 l 1,0.23227 v 0 l 1,0.2308 v 0 l 1,0.22936 v 0 l 1,0.22792 v 0 l 1,0.2265 v 0 l 1,0.22508 v 0 l 1,0.22368 v 0 l 1,0.22228 v 0 l 1,0.2209 v 0 l 1,0.21953 v 0 l 1,0.21817 v 0 l 1,0.21682 v 0 l 1,0.21548 v 0 l 1,0.21416 v 0 l 1,0.21283 v 0 l 1,0.21153 v 0 l 1,0.21023 v 0 l 1,0.20894 v 0 l 1,0.20766 v 0 l 1,0.2064 v 0 l 1,0.20514 v 0 l 1,0.20389 v 0 l 1,0.20265 v 0 l 1,0.20143 v 0 l 1,0.2002 v 0 l 1,0.199 v 0 l 1,0.19779 v 0 l 1,0.1966 v 0 l 1,0.19542 v 0 l 1,0.19425 v 0 l 1,0.19308 v 0 l 1,0.19192 v 0 l 1,0.19078 v 0 l 1,0.18964 v 0 l 1,0.18852 v 0 l 1,0.18739 v 0 l 1,0.18628 v 0 l 1,0.18517 v 0 l 1,0.18408 v 0 l 1,0.18299 v 0 l 1,0.18192 v 0 l 1,0.18084 v 0 l 1,0.17978 v 0 l 1,0.17872 v 0 l 1,0.17768 v 0 l 1,0.17664 v 0 l 1,0.1756 v 0 l 1,0.17459 v 0 l 1,0.17356 v 0 l 1,0.17256 v 0 l 1,0.17156 v 0 l 1,0.17056 v 0 l 1,0.16958 v 0 l 1,0.1686 v 0 l 1,0.16762 v 0 l 1,0.16666 v 0 l 1,0.16571 v 0 l 1,0.16475 v 0 l 1,0.16381 v 0 l 1,0.16288 v 0 l 1,0.16194 v 0 l 1,0.16102 v 0 l 1,0.1601 v 0 l 1,0.1592 v 0 l 1,0.15829 v 0 l 1,0.1574 v 0 l 1,0.1565 v 0 l 1,0.15563 v 0 l 1,0.15474 v 0 l 1,0.15388 v 0 l 1,0.15301 v 0 l 1,0.15215 v 0 l 1,0.1513 v 0 l 1,0.15046 v 0 l 1,0.14961 v 0 l 1,0.14878 v 0 l 1,0.14795 v 0 l 1,0.14714 v 0 l 1,0.14631 v 0 l 1,0.14551 v 0 l 1,0.1447 v 0 l 1,0.1439 v 0 l 1,0.14311 v 0 l 1,0.14232 v 0 l 1,0.14154 v 0 l 1,0.14077 v 0 l 1,0.13999 v 0 l 1,0.13923 v 0 l 1,0.13846 v 0 l 1,0.13772 v 0 l 1,0.13696 v 0 l 1,0.13622 v 0 l 1,0.13548 v 0 l 1,0.13475 v 0 l 1,0.13401 v 0 l 1,0.1333 v 0 l 1,0.13257 v 0 l 1,0.13187 v 0 l 1,0.13115 v 0 l 1,0.13045 v 0 l 1,0.12975 v 0 l 1,0.12906 v 0 l 1,0.12837 v 0 l 1,0.12768 v 0 l 1,0.127 v 0 l 1,0.12633 v 0 l 1,0.12566 v 0 l 1,0.12499 v 0 l 1,0.12433 v 0 l 1,0.12368 v 0 l 1,0.12302 v 0 l 1,0.12237 v 0 l 1,0.12173 v 0 l 1,0.12109 v 0 l 1,0.12046 v 0 l 1,0.11983 v 0 l 1,0.1192 v 0 l 1,0.11857 v 0 l 1,0.11796 v 0 l 1,0.11735 v 0 l 1,0.11674 v 0 l 1,0.11613 v 0 l 1,0.11553 v 0 l 1,0.11493 v 0 l 1,0.11434 v 0 l 1,0.11375 v 0 l 1,0.11317 v 0 l 1,0.11258 v 0 l 1,0.112 v 0 l 1,0.11144 v 0 l 1,0.11086 v 0 l 1,0.11029 v 0 l 1,0.10974 v 0 l 1,0.10917 v 0 l 1,0.10862 v 0 l 1,0.10807 v 0 l 1,0.10752 v 0 l 1,0.10697 v 0 l 1,0.10644 v 0 l 1,0.10589 v 0 l 1,0.10537 v 0 l 1,0.10483 v 0 l 1,0.10431 v 0 l 1,0.10378 v 0 l 1,0.10327 v 0 l 1,0.10274 v 0 l 1,0.10224 v 0 l 1,0.10172 v 0 l 1,0.10122 v 0 l 1,0.10072 v 0 l 1,0.10021 v 0 l 1,0.0997 v 0 l 1,0.0992 v 0 l 1,0.0987 v 0 l 1,0.0983 v 0 l 1,0.0978 v 0 l 1,0.0973 v 0 l 1,0.0968 v 0 l 1,0.0963 v 0 l 1,0.0959 v 0 l 1,0.0954 v 0 l 1,0.0949 v 0 l 1,0.0945 v 0 l 1,0.094 v 0 l 1,0.0935 v 0 l 1,0.0931 v 0 l 1,0.0926 v 0 l 1,0.0922 v 0 l 1,0.0917 v 0 l 1,0.0913 v 0 l 1,0.0909 v 0 l 1,0.0904 v 0 l 1,0.09 v 0 l 1,0.0896 v 0 l 1,0.0891 v 0 l 1,0.0887 v 0 l 1,0.0883 v 0 l 1,0.0879 v 0 l 1,0.0874 v 0 l 1,0.087 v 0 l 1,0.0866 v 0 l 1,0.0862 v 0 l 1,0.0858 v 0 l 1,0.0854 v 0 l 1,0.085 v 0 l 1,0.0846 v 0 l 1,0.0842 v 0 l 1,0.0838 v 0 l 1,0.0834 v 0 l 1,0.083 v 0 l 1,0.0826 v 0 l 1,0.0822 v 0 l 1,0.0818 v 0 l 1,0.0815 v 0 l 1,0.0811 v 0 l 1,0.0807 v 0 l 1,0.0803 v 0 l 1,0.08 v 0 l 1,0.0796 v 0 l 1,0.0792 v 0 l 1,0.0789 v 0 l 1,0.0785 v 0 l 1,0.0781 v 0 l 1,0.0778 v 0 l 1,0.0774 v 0 l 1,0.0771 v 0 l 1,0.0767 v 0 l 1,0.0764 v 0 l 1,0.076 v 0 l 1,0.0756 v 0 l 1,0.0753 v 0 l 1,0.075 v 0 l 1,0.0746 v 0 l 1,0.0743 v 0 l 1,0.0739 v 0 l 1,0.0736 v 0 l 1,0.0733 v 0 l 1,0.073 v 0 l 1,0.0726 v 0 l 1,0.0723 v 0 l 1,0.072 v 0 l 1,0.0716 v 0 l 1,0.0713 v 0 l 1,0.071 v 0 l 1,0.0707 v 0 l 1,0.0704 v 0 l 1,0.0701 v 0 l 1,0.0697 v 0 l 1,0.0695 v 0 l 1,0.0691 v 0 l 1,0.0688 v 0 l 1,0.0685 v 0 l 1,0.0682 v 0 l 1,0.0679 v 0 l 1,0.0676 v 0 l 1,0.0673 v 0 l 1,0.067 v 0 l 1,0.0667 v 0 l 1,0.0664 v 0 l 1,0.0662 v 0 l 1,0.0659 v 0 l 1,0.0656 v 0 l 1,0.0653 v 0 l 1,0.065 v 0 l 1,0.0647 v 0 l 1,0.0644 v 0 l 1,0.0642 v 0 l 1,0.0639 v 0 l 1,0.0636 v 0 l 1,0.0633 v 0 l 1,0.0631 v 0 l 1,0.0628 v 0 l 1,0.0625 v 0 l 1,0.0622 v 0 l 1,0.062 v 0 l 1,0.0617 v 0 l 1,0.0615 v 0 l 1,0.0612 v 0 l 1,0.0609 v 0 l 1,0.0607 v 0 l 1,0.0604 v 0 l 1,0.0602 v 0 l 1,0.0599 v 0 l 1,0.0596 v 0 l 1,0.0594 v 0 l 1,0.0592 v 0 l 1,0.0589 v 0 l 1,0.0586 v 0 l 1,0.0584 v 0 l 1,0.0581 v 0 l 1,0.0579 v 0 l 1,0.0577 v 0 l 1,0.0574 v 0 l 1,0.0572 v 0 l 1,0.057 v 0 l 1,0.0567 v 0 l 1,0.0565 v 0 l 1,0.0562 v 0 l 1,0.056 v 0 l 1,0.0558 v 0 l 1,0.0555 v 0 l 1,0.0553 v 0 l 1,0.0551 v 0 l 1,0.0548 v 0 l 1,0.0546 v 0 l 1,0.0544 v 0 l 1,0.0542 v 0 l 1,0.0539 v 0 l 1,0.0537 v 0 l 1,0.0535 v 0 l 1,0.0533 v 0 l 1,0.0531 v 0 l 1,0.0528 v 0 l 1,0.0527 v 0 l 1,0.0524 v 0 l 1,0.0522 v 0 l 1,0.052 v 0 l 1,0.0518 v 0 l 1,0.0516 v 0 l 1,0.0514 v 0 l 1,0.0512 v 0 l 1,0.051 v 0 l 1,0.0508 v 0 l 1,0.0506 v 0 l 1,0.0503 v 0 l 1,0.0502 v 0 l 1,0.0499 v 0 l 1,0.0498 v 0 l 1,0.0495 v 0 l 1,0.0494 v 0 l 1,0.0491 v 0 l 1,0.0489 v 0 l 1,0.0488 v 0 l 1,0.0486 v 0 l 1,0.0484 v 0 l 1,0.0482 v 0 l 1,0.048 v 0 l 1,0.0478 v 0 l 1,0.0476 v 0 l 1,0.0474 v 0 l 1,0.0472 v 0 l 1,0.0471 v 0 l 1,0.0469 v 0 l 1,0.0467 v 0 l 1,0.0465 v 0 l 1,0.0463 v 0 l 1,0.0461 v 0 l 1,0.046 v 0 l 1,0.0458 v 0 l 1,0.0456 v 0 l 1,0.0454 v 0 l 1,0.0452 v 0 l 1,0.0451 v 0 l 1,0.0449 v 0 l 1,0.0447 v 0 l 1,0.0445 v 0 l 1,0.0444 v 0 l 1,0.0442 v 0 l 1,0.044 v 0 l 1,0.0439 v 0 l 1,0.0437 v 0 l 1,0.0435 v 0 l 1,0.0434 v 0 l 1,0.0432 v 0 l 1,0.043 v 0 l 1,0.0429 v 0 l 1,0.0427 v 0 l 1,0.0425 v 0 l 1,0.0424 v 0 l 1,0.0422 v 0 l 1,0.0421 v 0 l 1,0.0419 v 0 l 1,0.0417 v 0 l 1,0.0416 v 0 l 1,0.0414 v 0 l 1,0.0413 v 0 l 1,0.0411 v 0 l 1,0.0409 v 0 l 1,0.0408 v 0 l 1,0.0406 v 0 l 1,0.0405 v 0 l 1,0.0403 v 0 l 1,0.0402 v 0 l 1,0.04 v 0 l 1,0.0399 v 0 l 1,0.0397 v 0 l 1,0.0396 v 0 l 1,0.0394 v 0 l 1,0.0393 v 0 l 1,0.0391 v 0 l 1,0.039 v 0 l 1,0.0389 v 0 l 1,0.0387 v 0 l 1,0.0386 v 0 l 1,0.0384 v 0 l 1,0.0383 v 0 l 1,0.0381 v 0 l 1,0.038 v 0 l 1,0.0379 v 0 l 1,0.0377 v 0 l 1,0.0376 v 0 l 1,0.0375 v 0 l 1,0.0373 v 0 l 1,0.0372 v 0 l 1,0.037 v 0 l 1,0.0369 v 0 l 1,0.0368 v 0 l 1,0.0366 v 0 l 1,0.0365 v 0 l 1,0.0364 v 0 l 1,0.0362 v 0 l 1,0.0361 v 0 l 1,0.036 v 0 l 1,0.0359 v 0 l 1,0.0357 v 0 l 1,0.0356 v 0 l 1,0.0355 v 0 l 1,0.0353 v 0 l 1,0.0352 v 0 l 1,0.0351 v 0 l 1,0.0349 v 0 l 1,0.0348 v 0 l 1,0.0347 v 0 l 1,0.0346 v 0 l 1,0.0345 v 0 l 1,0.0343 v 0 l 1,0.0342 v 0 l 1,0.0341 v 0 l 1,0.034 v 0 l 1,0.0339 v 0 l 1,0.0337 v 0 l 1,0.0336 v 0 l 1,0.0335 v 0 l 1,0.0334 v 0 l 1,0.0333 v 0 l 1,0.0331 v 0 l 1,0.033 v 0 l 1,0.0329 v 0 l 1,0.0328 v 0 l 1,0.0327 v 0 l 1,0.0326 v 0 l 1,0.0324 v 0 l 1,0.0323 v 0 l 1,0.0322 v 0 l 1,0.0321 v 0 l 1,0.032 v 0 l 1,0.0319 v 0 l 1,0.0318 v 0 l 1,0.0317 v 0 l 1,0.0316 v 0 l 1,0.0314 v 0 l 1,0.0313 v 0 l 1,0.0312 v 0 l 1,0.0311 v 0 l 1,0.031 v 0 l 1,0.0309 v 0 l 1,0.0308 v 0 l 1,0.0307 v 0 l 1,0.0306 v 0 l 1,0.0305 v 0 l 1,0.0304 v 0 l 1,0.0303 v 0 l 1,0.0302 v 0 l 1,0.0301 v 0 l 1,0.03 v 0 l 1,0.0299 v 0 l 1,0.0298 v 0 l 1,0.0297 v 0 l 1,0.0296 v 0 l 1,0.0295 v 0 l 1,0.0294 v 0 l 1,0.0293 v 0 l 1,0.0292 v 0 l 1,0.0291 v 0 l 1,0.029 v 0 l 1,0.0289 v 0 l 1,0.0288 v 0 l 1,0.0287 v 0 l 1,0.0286 v 0 l 1,0.0285 v 0 l 1,0.0284 v 0 l 1,0.0283 v 0 l 1,0.0282 v 0 l 1,0.0281 v 0 l 1,0.028 v 0 l 1,0.0279 v 0 l 1,0.0278 v 0 l 1,0.0277 v 0 l 1,0.0276 v 0 l 1,0.0276 v 0 l 1,0.0275 v 0 l 1,0.0274 v 0 l 1,0.0273 v 0 l 1,0.0272 v 0 l 1,0.0271 v 0 l 1,0.027 v 0 l 1,0.0269 v 0 l 1,0.0268 v 0 l 1,0.0267 v 0 l 1,0.0267 v 0 l 1,0.0266 v 0 l 1,0.0265 v 0 l 1,0.0264 v 0 l 1,0.0263 v 0 l 1,0.0262 v 0 l 1,0.0261 v 0 l 1,0.026 v 0 l 1,0.026 v 0 l 1,0.0259 v 0 l 1,0.0258 v 0 l 1,0.0257 v 0 l 1,0.0256 v 0 l 1,0.0255 v 0 l 1,0.0255 v 0 l 1,0.0254 v 0 l 1,0.0253 v 0 l 1,0.0252 v 0 l 1,0.0251"
     stroke-opacity="0.698039"
     stroke-linecap="round"
     stroke-linejoin="round"
     stroke-miterlimit="10"
     stroke-width="2.5"
     id="path62"
     clip-path="url(#clipPath66)"
     style="stroke:#d32f2f;stroke-width:4;stroke-dasharray:none" />
  <text
     fill="#0000ff"
     stroke="none"
     font-family="geogebra-sans-serif, sans-serif"
     font-size="16px"
     font-style="normal"
     font-weight="normal"
     text-decoration="normal"
     x="8"
     y="673"
     text-anchor="start"
     dominant-baseline="alphabetic"
     fill-opacity="1"
     id="text63">h</text>
  <path
     fill="none"
     stroke="#c75000"
     paint-order="fill stroke markers"
     d="m 1,681.70975 v 0.0373 -0.0373 l 1,-0.0374 v 0 l 1,-0.0376 v 0 l 1,-0.0377 v 0 l 1,-0.0379 v 0 l 1,-0.038 v 0 l 1,-0.0381 v 0 l 1,-0.0383 v 0 l 1,-0.0384 v 0 l 1,-0.0385 v 0 l 1,-0.0387 v 0 l 1,-0.0388 v 0 l 1,-0.039 v 0 l 1,-0.0391 v 0 l 1,-0.0393 v 0 l 1,-0.0394 v 0 l 1,-0.0396 v 0 l 1,-0.0397 v 0 l 1,-0.0399 v 0 l 1,-0.04 v 0 l 1,-0.0402 v 0 l 1,-0.0403 v 0 l 1,-0.0405 v 0 l 1,-0.0406 v 0 l 1,-0.0408 v 0 l 1,-0.0409 v 0 l 1,-0.0411 v 0 l 1,-0.0412 v 0 l 1,-0.0414 v 0 l 1,-0.0415 v 0 l 1,-0.0417 v 0 l 1,-0.0419 v 0 l 1,-0.042 v 0 l 1,-0.0422 v 0 l 1,-0.0423 v 0 l 1,-0.0425 v 0 l 1,-0.0427 v 0 l 1,-0.0428 v 0 l 1,-0.043 v 0 l 1,-0.0432 v 0 l 1,-0.0433 v 0 l 1,-0.0435 v 0 l 1,-0.0437 v 0 l 1,-0.0438 v 0 l 1,-0.044 v 0 l 1,-0.0442 v 0 l 1,-0.0444 v 0 l 1,-0.0445 v 0 l 1,-0.0447 v 0 l 1,-0.0449 v 0 l 1,-0.045 v 0 l 1,-0.0452 v 0 l 1,-0.0454 v 0 l 1,-0.0456 v 0 l 1,-0.0458 v 0 l 1,-0.0459 v 0 l 1,-0.0461 v 0 l 1,-0.0463 v 0 l 1,-0.0465 v 0 l 1,-0.0466 v 0 l 1,-0.0468 v 0 l 1,-0.047 v 0 l 1,-0.0472 v 0 l 1,-0.0474 v 0 l 1,-0.0476 v 0 l 1,-0.0478 v 0 l 1,-0.048 v 0 l 1,-0.0481 v 0 l 1,-0.0484 v 0 l 1,-0.0485 v 0 l 1,-0.0487 v 0 l 1,-0.0489 v 0 l 1,-0.0491 v 0 l 1,-0.0493 v 0 l 1,-0.0495 v 0 l 1,-0.0497 v 0 l 1,-0.0499 v 0 l 1,-0.0501 v 0 l 1,-0.0503 v 0 l 1,-0.0505 v 0 l 1,-0.0507 v 0 l 1,-0.0509 v 0 l 1,-0.0511 v 0 l 1,-0.0513 v 0 l 1,-0.0516 v 0 l 1,-0.0518 v 0 l 1,-0.052 v 0 l 1,-0.0522 v 0 l 1,-0.0524 v 0 l 1,-0.0526 v 0 l 1,-0.0528 v 0 l 1,-0.053 v 0 l 1,-0.0533 v 0 l 1,-0.0535 v 0 l 1,-0.0537 v 0 l 1,-0.0539 v 0 l 1,-0.0541 v 0 l 1,-0.0544 v 0 l 1,-0.0546 v 0 l 1,-0.0548 v 0 l 1,-0.055 v 0 l 1,-0.0553 v 0 l 1,-0.0555 v 0 l 1,-0.0557 v 0 l 1,-0.056 v 0 l 1,-0.0562 v 0 l 1,-0.0564 v 0 l 1,-0.0567 v 0 l 1,-0.0569 v 0 l 1,-0.0571 v 0 l 1,-0.0574 v 0 l 1,-0.0576 v 0 l 1,-0.0579 v 0 l 1,-0.0581 v 0 l 1,-0.0584 v 0 l 1,-0.0586 v 0 l 1,-0.0589 v 0 l 1,-0.0591 v 0 l 1,-0.0593 v 0 l 1,-0.0596 v 0 l 1,-0.0599 v 0 l 1,-0.0601 v 0 l 1,-0.0604 v 0 l 1,-0.0606 v 0 l 1,-0.0609 v 0 l 1,-0.0612 v 0 l 1,-0.0614 v 0 l 1,-0.0617 v 0 l 1,-0.0619 v 0 l 1,-0.0622 v 0 l 1,-0.0625 v 0 l 1,-0.0627 v 0 l 1,-0.063 v 0 l 1,-0.0633 v 0 l 1,-0.0636 v 0 l 1,-0.0638 v 0 l 1,-0.0641 v 0 l 1,-0.0644 v 0 l 1,-0.0647 v 0 l 1,-0.065 v 0 l 1,-0.0652 v 0 l 1,-0.0655 v 0 l 1,-0.0658 v 0 l 1,-0.0661 v 0 l 1,-0.0664 v 0 l 1,-0.0667 v 0 l 1,-0.067 v 0 l 1,-0.0673 v 0 l 1,-0.0676 v 0 l 1,-0.0679 v 0 l 1,-0.0682 v 0 l 1,-0.0685 v 0 l 1,-0.0688 v 0 l 1,-0.0691 v 0 l 1,-0.0694 v 0 l 1,-0.0697 v 0 l 1,-0.07 v 0 l 1,-0.0703 v 0 l 1,-0.0707 v 0 l 1,-0.071 v 0 l 1,-0.0713 v 0 l 1,-0.0716 v 0 l 1,-0.0719 v 0 l 1,-0.0722 v 0 l 1,-0.0726 v 0 l 1,-0.0729 v 0 l 1,-0.0732 v 0 l 1,-0.0736 v 0 l 1,-0.0739 v 0 l 1,-0.0742 v 0 l 1,-0.0746 v 0 l 1,-0.0749 v 0 l 1,-0.0753 v 0 l 1,-0.0756 v 0 l 1,-0.076 v 0 l 1,-0.0763 v 0 l 1,-0.0766 v 0 l 1,-0.077 v 0 l 1,-0.0774 v 0 l 1,-0.0777 v 0 l 1,-0.0781 v 0 l 1,-0.0784 v 0 l 1,-0.0788 v 0 l 1,-0.0792 v 0 l 1,-0.0795 v 0 l 1,-0.0799 v 0 l 1,-0.0803 v 0 l 1,-0.0806 v 0 l 1,-0.081 v 0 l 1,-0.0814 v 0 l 1,-0.0818 v 0 l 1,-0.0822 v 0 l 1,-0.0825 v 0 l 1,-0.0829 v 0 l 1,-0.0833 v 0 l 1,-0.0837 v 0 l 1,-0.0841 v 0 l 1,-0.0845 v 0 l 1,-0.0849 v 0 l 1,-0.0853 v 0 l 1,-0.0857 v 0 l 1,-0.0861 v 0 l 1,-0.0865 v 0 l 1,-0.087 v 0 l 1,-0.0874 v 0 l 1,-0.0878 v 0 l 1,-0.0882 v 0 l 1,-0.0886 v 0 l 1,-0.0891 v 0 l 1,-0.0895 v 0 l 1,-0.0899 v 0 l 1,-0.0904 v 0 l 1,-0.0908 v 0 l 1,-0.0912 v 0 l 1,-0.0917 v 0 l 1,-0.0921 v 0 l 1,-0.0926 v 0 l 1,-0.093 v 0 l 1,-0.0935 v 0 l 1,-0.0939 v 0 l 1,-0.0944 v 0 l 1,-0.0949 v 0 l 1,-0.0953 v 0 l 1,-0.0958 v 0 l 1,-0.0963 v 0 l 1,-0.0967 v 0 l 1,-0.0972 v 0 l 1,-0.0977 v 0 l 1,-0.0982 v 0 l 1,-0.0987 v 0 l 1,-0.0992 v 0 l 1,-0.0996 v 0 l 1,-0.10014 v 0 l 1,-0.10065 v 0 l 1,-0.10114 v 0 l 1,-0.10165 v 0 l 1,-0.10216 v 0 l 1,-0.10267 v 0 l 1,-0.10319 v 0 l 1,-0.10371 v 0 l 1,-0.10423 v 0 l 1,-0.10476 v 0 l 1,-0.10529 v 0 l 1,-0.10582 v 0 l 1,-0.10635 v 0 l 1,-0.1069 v 0 l 1,-0.10744 v 0 l 1,-0.10799 v 0 l 1,-0.10854 v 0 l 1,-0.10909 v 0 l 1,-0.10965 v 0 l 1,-0.11021 v 0 l 1,-0.11078 v 0 l 1,-0.11135 v 0 l 1,-0.11192 v 0 l 1,-0.1125 v 0 l 1,-0.11308 v 0 l 1,-0.11367 v 0 l 1,-0.11425 v 0 l 1,-0.11485 v 0 l 1,-0.11544 v 0 l 1,-0.11604 v 0 l 1,-0.11665 v 0 l 1,-0.11726 v 0 l 1,-0.11787 v 0 l 1,-0.11849 v 0 l 1,-0.11911 v 0 l 1,-0.11973 v 0 l 1,-0.12037 v 0 l 1,-0.121 v 0 l 1,-0.12163 v 0 l 1,-0.12228 v 0 l 1,-0.12293 v 0 l 1,-0.12358 v 0 l 1,-0.12424 v 0 l 1,-0.12489 v 0 l 1,-0.12556 v 0 l 1,-0.12623 v 0 l 1,-0.12691 v 0 l 1,-0.12758 v 0 l 1,-0.12827 v 0 l 1,-0.12896 v 0 l 1,-0.12965 v 0 l 1,-0.13035 v 0 l 1,-0.13105 v 0 l 1,-0.13176 v 0 l 1,-0.13247 v 0 l 1,-0.13319 v 0 l 1,-0.13391 v 0 l 1,-0.13464 v 0 l 1,-0.13537 v 0 l 1,-0.13611 v 0 l 1,-0.13686 v 0 l 1,-0.1376 v 0 l 1,-0.13836 v 0 l 1,-0.13912 v 0 l 1,-0.13988 v 0 l 1,-0.14065 v 0 l 1,-0.14143 v 0 l 1,-0.14221 v 0 l 1,-0.14299 v 0 l 1,-0.14379 v 0 l 1,-0.14458 v 0 l 1,-0.14539 v 0 l 1,-0.1462 v 0 l 1,-0.14701 v 0 l 1,-0.14783 v 0 l 1,-0.14866 v 0 l 1,-0.1495 v 0 l 1,-0.15033 v 0 l 1,-0.15118 v 0 l 1,-0.15202 v 0 l 1,-0.15289 v 0 l 1,-0.15375 v 0 l 1,-0.15462 v 0 l 1,-0.15549 v 0 l 1,-0.15638 v 0 l 1,-0.15727 v 0 l 1,-0.15816 v 0 l 1,-0.15906 v 0 l 1,-0.15997 v 0 l 1,-0.16089 v 0 l 1,-0.16181 v 0 l 1,-0.16274 v 0 l 1,-0.16367 v 0 l 1,-0.16462 v 0 l 1,-0.16556 v 0 l 1,-0.16652 v 0 l 1,-0.16749 v 0 l 1,-0.16846 v 0 l 1,-0.16943 v 0 l 1,-0.17042 v 0 l 1,-0.17141 v 0 l 1,-0.17241 v 0 l 1,-0.17342 v 0 l 1,-0.17444 v 0 l 1,-0.17546 v 0 l 1,-0.17648 v 0 l 1,-0.17753 v 0 l 1,-0.17857 v 0 l 1,-0.17963 v 0 l 1,-0.18068 v 0 l 1,-0.18176 v 0 l 1,-0.18284 v 0 l 1,-0.18392 v 0 l 1,-0.18501 v 0 l 1,-0.18612 v 0 l 1,-0.18723 v 0 l 1,-0.18835 v 0 l 1,-0.18948 v 0 l 1,-0.19061 v 0 l 1,-0.19176 v 0 l 1,-0.19291 v 0 l 1,-0.19408 v 0 l 1,-0.19525 v 0 l 1,-0.19643 v 0 l 1,-0.19761 v 0 l 1,-0.19882 v 0 l 1,-0.20003 v 0 l 1,-0.20125 v 0 l 1,-0.20247 v 0 l 1,-0.20371 v 0 l 1,-0.20496 v 0 l 1,-0.20621 v 0 l 1,-0.20748 v 0 l 1,-0.20876 v 0 l 1,-0.21004 v 0 l 1,-0.21134 v 0 l 1,-0.21264 v 0 l 1,-0.21396 v 0 l 1,-0.21529 v 0 l 1,-0.21663 v 0 l 1,-0.21797 v 0 l 1,-0.21933 v 0 l 1,-0.2207 v 0 l 1,-0.22209 v 0 l 1,-0.22347 v 0 l 1,-0.22487 v 0 l 1,-0.22629 v 0 l 1,-0.22772 v 0 l 1,-0.22915 v 0 l 1,-0.23059 v 0 l 1,-0.23206 v 0 l 1,-0.23353 v 0 l 1,-0.235 v 0 l 1,-0.23651 v 0 l 1,-0.23801 v 0 l 1,-0.23953 v 0 l 1,-0.24106 v 0 l 1,-0.2426 v 0 l 1,-0.24416 v 0 l 1,-0.24573 v 0 l 1,-0.24731 v 0 l 1,-0.2489 v 0 l 1,-0.25051 v 0 l 1,-0.25213 v 0 l 1,-0.25377 v 0 l 1,-0.2554 v 0 l 1,-0.25707 v 0 l 1,-0.25875 v 0 l 1,-0.26043 v 0 l 1,-0.26213 v 0 l 1,-0.26385 v 0 l 1,-0.26557 v 0 l 1,-0.26732 v 0 l 1,-0.26908 v 0 l 1,-0.27085 v 0 l 1,-0.27264 v 0 l 1,-0.27444 v 0 l 1,-0.27626 v 0 l 1,-0.27808 v 0 l 1,-0.27994 v 0 l 1,-0.2818 v 0 l 1,-0.28367 v 0 l 1,-0.28557 v 0 l 1,-0.28748 v 0 l 1,-0.28941 v 0 l 1,-0.29134 v 0 l 1,-0.29331 v 0 l 1,-0.29528 v 0 l 1,-0.29727 v 0 l 1,-0.29928 v 0 l 1,-0.3013 v 0 l 1,-0.30334 v 0 l 1,-0.30541 v 0 l 1,-0.30748 v 0 l 1,-0.30957 v 0 l 1,-0.31169 v 0 l 1,-0.31381 v 0 l 1,-0.31596 v 0 l 1,-0.31813 v 0 l 1,-0.32032 v 0 l 1,-0.32251 v 0 l 1,-0.32474 v 0 l 1,-0.32698 v 0 l 1,-0.32924 v 0 l 1,-0.33152 v 0 l 1,-0.33382 v 0 l 1,-0.33614 v 0 l 1,-0.33848 v 0 l 1,-0.34083 v 0 l 1,-0.34322 v 0 l 1,-0.34561 v 0 l 1,-0.34804 v 0 l 1,-0.35047 v 0 l 1,-0.35294 v 0 l 1,-0.35542 v 0 l 1,-0.35793 v 0 l 1,-0.36046 v 0 l 1,-0.363 v 0 l 1,-0.36558 v 0 l 1,-0.36816 v 0 l 1,-0.37079 v 0 l 1,-0.37342 v 0 l 1,-0.37609 v 0 l 1,-0.37877 v 0 l 1,-0.38148 v 0 l 1,-0.38421 v 0 l 1,-0.38697 v 0 l 1,-0.38975 v 0 l 1,-0.39255 v 0 l 1,-0.39538 v 0 l 1,-0.39824 v 0 l 1,-0.40112 v 0 l 1,-0.40402 v 0 l 1,-0.40695 v 0 l 1,-0.40991 v 0 l 1,-0.41289 v 0 l 1,-0.4159 v 0 l 1,-0.41894 v 0 l 1,-0.42199 v 0 l 1,-0.42509 v 0 l 1,-0.4282 v 0 l 1,-0.43135 v 0 l 1,-0.43452 v 0 l 1,-0.43772 v 0 l 1,-0.44095 v 0 l 1,-0.4442 v 0 l 1,-0.4475 v 0 l 1,-0.4508 v 0 l 1,-0.45416 v 0 l 1,-0.45753 v 0 l 1,-0.46093 v 0 l 1,-0.46437 v 0 l 1,-0.46783 v 0 l 1,-0.47133 v 0 l 1,-0.47487 v 0 l 1,-0.47842 v 0 l 1,-0.48201 v 0 l 1,-0.48563 v 0 l 1,-0.48929 v 0 l 1,-0.49298 v 0 l 1,-0.49671 v 0 l 1,-0.50045 v 0 l 1,-0.50425 v 0 l 1,-0.50807 v 0 l 1,-0.51192 v 0 l 1,-0.51582 v 0 l 1,-0.51975 v 0 l 1,-0.5237 v 0 l 1,-0.5277 v 0 l 1,-0.53174 v 0 l 1,-0.5358 v 0 l 1,-0.53992 v 0 l 1,-0.54405 v 0 l 1,-0.54823 v 0 l 1,-0.55245 v 0 l 1,-0.55671 v 0 l 1,-0.56099 v 0 l 1,-0.56533 v 0 l 1,-0.5697 v 0 l 1,-0.57411 v 0 l 1,-0.57856 v 0 l 1,-0.58305 v 0 l 1,-0.58758 v 0 l 1,-0.59214 v 0 l 1,-0.59676 v 0 l 1,-0.60141 v 0 l 1,-0.6061 v 0 l 1,-0.61083 v 0 l 1,-0.61562 v 0 l 1,-0.62043 v 0 l 1,-0.6253 v 0 l 1,-0.6302 v 0 l 1,-0.63516 v 0 l 1,-0.64014 v 0 l 1,-0.64519 v 0 l 1,-0.65027 v 0 l 1,-0.6554 v 0 l 1,-0.66057 v 0 l 1,-0.66579 v 0 l 1,-0.67105 v 0 l 1,-0.67637 v 0 l 1,-0.68173 v 0 l 1,-0.68713 v 0 l 1,-0.69259 v 0 l 1,-0.69809 v 0 l 1,-0.70364 v 0 l 1,-0.70923 v 0 l 1,-0.71489 v 0 l 1,-0.72058 v 0 l 1,-0.72633 v 0 l 1,-0.73212 v 0 l 1,-0.73797 v 0 l 1,-0.74387 v 0 l 1,-0.74981 v 0 l 1,-0.75582 v 0 l 1,-0.76186 v 0 l 1,-0.76797 v 0 l 1,-0.77413 v 0 l 1,-0.78033 v 0 l 1,-0.78659 v 0 l 1,-0.79291 v 0 l 1,-0.79928 v 0 l 1,-0.80569 v 0 l 1,-0.81217 v 0 l 1,-0.8187 v 0 l 1,-0.82529 v 0 l 1,-0.83192 v 0 l 1,-0.83862 v 0 l 1,-0.84537 v 0 l 1,-0.85218 v 0 l 1,-0.85903 v 0 l 1,-0.86596 v 0 l 1,-0.87293 v 0 l 1,-0.87996 v 0 l 1,-0.88704 v 0 l 1,-0.89419 v 0 l 1,-0.9014 v 0 l 1,-0.90865 v 0 l 1,-0.91597 v 0 l 1,-0.92334 v 0 l 1,-0.93077 v 0 l 1,-0.93827 v 0 l 1,-0.94581 v 0 l 1,-0.95342 v 0 l 1,-0.96109 v 0 l 1,-0.9688 v 0 l 1,-0.97659 v 0 l 1,-0.98443 v 0 l 1,-0.99232 v 0 l 1,-1.00028 v 0 l 1,-1.0083 v 0 l 1,-1.01637 v 0 l 1,-1.0245 v 0 l 1,-1.03268 v 0 l 1,-1.04094 v 0 l 1,-1.04924 v 0 l 1,-1.0576 v 0 l 1,-1.06603 v 0 l 1,-1.0745 v 0 l 1,-1.08303 v 0 l 1,-1.09163 v 0 l 1,-1.10028 v 0 l 1,-1.10898 v 0 l 1,-1.11774 v 0 l 1,-1.12656 v 0 l 1,-1.13543 v 0 l 1,-1.14435 v 0 l 1,-1.15333 v 0 l 1,-1.16237 v 0 l 1,-1.17145 v 0 l 1,-1.18059 v 0 l 1,-1.18978 v 0 l 1,-1.19903 v 0 l 1,-1.20831 v 0 l 1,-1.21766 v 0 l 1,-1.22705 v 0 l 1,-1.23649 v 0 l 1,-1.24597 v 0 l 1,-1.25551 v 0 l 1,-1.26508 v 0 l 1,-1.2747 v 0 l 1,-1.28437 v 0 l 1,-1.29407 v 0 l 1,-1.30382 v 0 l 1,-1.31361 v 0 l 1,-1.32343 v 0 l 1,-1.33329 v 0 l 1,-1.34318 v 0 l 1,-1.35312 v 0 l 1,-1.36307 v 0 l 1,-1.37306 v 0 l 1,-1.38309 v 0 l 1,-1.39313 v 0 l 1,-1.4032 v 0 l 1,-1.4133 v 0 l 1,-1.42341 v 0 l 1,-1.43354 v 0 l 1,-1.44369 v 0 l 1,-1.45386 v 0 l 1,-1.46403 v 0 l 1,-1.47422 v 0 l 1,-1.48441 v 0 l 1,-1.49461 v 0 l 1,-1.5048 v 0 l 1,-1.515 v 0 l 1,-1.52519 v 0 l 1,-1.53538 v 0 l 1,-1.54555 v 0 l 1,-1.55572 v 0 l 1,-1.56585 v 0 l 1,-1.57598 v 0 l 1,-1.58608 v 0 l 1,-1.59615 v 0 l 1,-1.6062 v 0 l 1,-1.61619 v 0 l 1,-1.62617 v 0 l 1,-1.63608 v 0 l 1,-1.64596 v 0 l 1,-1.65578 v 0 l 1,-1.66555 v 0 l 1,-1.67526 v 0 l 1,-1.68489 v 0 l 1,-1.69446 v 0 l 1,-1.70396 v 0 l 1,-1.71337 v 0 l 1,-1.72269 v 0 l 1,-1.73193 v 0 l 1,-1.74107 v 0 l 1,-1.75011 v 0 l 1,-1.75903 v 0 l 1,-1.76784 v 0 l 1,-1.77654 v 0 l 1,-1.7851 v 0 l 1,-1.79353 v 0 l 1,-1.80183 v 0 l 1,-1.80998 v 0 l 1,-1.81797 v 0 l 1,-1.82581 v 0 l 1,-1.83348 v 0 l 1,-1.84097 v 0 l 1,-1.84829 v 0 l 1,-1.85541 v 0 l 1,-1.86235 v 0 l 1,-1.86907 v 0 l 1,-1.87558 v 0 l 1,-1.88188 v 0 l 1,-1.88795 v 0 l 1,-1.89378 v 0 l 1,-1.89937 v 0 l 1,-1.90471 v 0 l 1,-1.90978 v 0 l 1,-1.91458 v 0 l 1,-1.91912 v 0 l 1,-1.92335 v 0 l 1,-1.9273 v 0 l 1,-1.93094 v 0 l 1,-1.93426 v 0 l 1,-1.93727 v 0 l 1,-1.93993 v 0 l 1,-1.94227 v 0 l 1,-1.94424 v 0 l 1,-1.94585 v 0 l 1,-1.9471 v 0 l 1,-1.94797 v 0 l 1,-1.94844 v 0 l 1,-1.94852 v 0 l 1,-1.94819 v 0 l 1,-1.94745 v 0 l 1,-1.94626 v 0 l 1,-1.94466 v 0 l 1,-1.9426 v 0 l 1,-1.94008 v 0 l 1,-1.93711 v 0 l 1,-1.93365 v 0 l 1,-1.92972 v 0 l 1,-1.92529 v 0 l 1,-1.92036 v 0 l 1,-1.91491 v 0 l 1,-1.90896 v 0 l 1,-1.90246 v 0 l 1,-1.89544 v 0 l 1,-1.88788 v 0 l 1,-1.87975 v 0 l 1,-1.87106 v 0 l 1,-1.86182 v 0 l 1,-1.85199 v 0 l 1,-1.84159 v 0 l 1,-1.83059 v 0 l 1,-1.81899 v 0 l 1,-1.8068 v 0 l 1,-1.79399 v 0 l 1,-1.78058 v 0 l 1,-1.76655 v 0 l 1,-1.75188 v 0 l 1,-1.7366 v 0 l 1,-1.72069 v 0 l 1,-1.70412 v 0 l 1,-1.68694 v 0 l 1,-1.6691 v 0 l 1,-1.65063 v 0 l 1,-1.6315 v 0 l 1,-1.61173 v 0 l 1,-1.59132 v 0 l 1,-1.57026 v 0 l 1,-1.54855 v 0 l 1,-1.52619 v 0 l 1,-1.50319 v 0 l 1,-1.47954 v 0 l 1,-1.45527 v 0 l 1,-1.43034 v 0 l 1,-1.4048 v 0 l 1,-1.37861 v 0 l 1,-1.35181 v 0 l 1,-1.32439 v 0 l 1,-1.29636 v 0 l 1,-1.26772 v 0 l 1,-1.2385 v 0 l 1,-1.20867 v 0 l 1,-1.17828 v 0 l 1,-1.1473 v 0 l 1,-1.11578 v 0 l 1,-1.08371 v 0 l 1,-1.05109 v 0 l 1,-1.01796 v 0 l 1,-0.98431 v 0 l 1,-0.95016 v 0 l 1,-0.91553 v 0 l 1,-0.88042 v 0 l 1,-0.84487 v 0 l 1,-0.80887 v 0 l 1,-0.77245 v 0 l 1,-0.73563 v 0 l 1,-0.69841 v 0 l 1,-0.66083 v 0 l 1,-0.62289 v 0 l 1,-0.58461 v 0 l 1,-0.54603 v 0 l 1,-0.50715 v 0 l 1,-0.46799 v 0 l 1,-0.42858 v 0 l 1,-0.38893 v 0 l 1,-0.34907 v 0 l 1,-0.30902 v 0 l 1,-0.2688 v 0 l 1,-0.22844 v 0 l 1,-0.18793 v 0 l 1,-0.14734 v 0 l 1,-0.10666 v 0 l 1,-0.0659 v 0 l 1,-0.0251 v 0.0156 l 1,-0.0159 v 0.0159 l 1,0.0564 v 0 l 1,0.0972 v 0 l 1,0.13787 v 0 l 1,0.1785 v 0 l 1,0.21901 v 0 l 1,0.25942 v 0 l 1,0.29967 v 0 l 1,0.33977 v 0 l 1,0.37967 v 0 l 1,0.41937 v 0 l 1,0.45884 v 0 l 1,0.49805 v 0 l 1,0.53701 v 0 l 1,0.57566 v 0 l 1,0.614 v 0 l 1,0.65203 v 0 l 1,0.6897 v 0 l 1,0.727 v 0 l 1,0.76391 v 0 l 1,0.80043 v 0 l 1,0.83653 v 0 l 1,0.87219 v 0 l 1,0.9074 v 0 l 1,0.94214 v 0 l 1,0.9764 v 0 l 1,1.01017 v 0 l 1,1.04343 v 0 l 1,1.07616 v 0 l 1,1.10836 v 0 l 1,1.14002 v 0 l 1,1.17112 v 0 l 1,1.20165 v 0 l 1,1.2316 v 0 l 1,1.26097 v 0 l 1,1.28975 v 0 l 1,1.31792 v 0 l 1,1.34548 v 0 l 1,1.37243 v 0 l 1,1.39876 v 0 l 1,1.42445 v 0 l 1,1.44952 v 0 l 1,1.47395 v 0 l 1,1.49775 v 0 l 1,1.52089 v 0 l 1,1.5434 v 0 l 1,1.56526 v 0 l 1,1.58647 v 0 l 1,1.60704 v 0 l 1,1.62696 v 0 l 1,1.64624 v 0 l 1,1.66485 v 0 l 1,1.68285 v 0 l 1,1.70018 v 0 l 1,1.71688 v 0 l 1,1.73296 v 0 l 1,1.74838 v 0 l 1,1.76319 v 0 l 1,1.77737 v 0 l 1,1.79092 v 0 l 1,1.80388 v 0 l 1,1.81621 v 0 l 1,1.82794 v 0 l 1,1.83908 v 0 l 1,1.84962 v 0 l 1,1.85958 v 0 l 1,1.86897 v 0 l 1,1.87778 v 0 l 1,1.88603 v 0 l 1,1.89372 v 0 l 1,1.90088 v 0 l 1,1.9075 v 0 l 1,1.91357 v 0 l 1,1.91914 v 0 l 1,1.92418 v 0 l 1,1.92873 v 0 l 1,1.93278 v 0 l 1,1.93635 v 0 l 1,1.93943 v 0 l 1,1.94205 v 0 l 1,1.94422 v 0 l 1,1.94594 v 0 l 1,1.9472 v 0 l 1,1.94806 v 0 l 1,1.94848 v 0 l 1,1.9485 v 0 l 1,1.94811 v 0 l 1,1.94734 v 0 l 1,1.94617 v 0 l 1,1.94465 v 0 l 1,1.94276 v 0 l 1,1.9405 v 0 l 1,1.93792 v 0 l 1,1.93499 v 0 l 1,1.93174 v 0 l 1,1.92818 v 0 l 1,1.9243 v 0 l 1,1.92012 v 0 l 1,1.91567 v 0 l 1,1.91092 v 0 l 1,1.90591 v 0 l 1,1.90064 v 0 l 1,1.8951 v 0 l 1,1.88933 v 0 l 1,1.88331 v 0 l 1,1.87707 v 0 l 1,1.87061 v 0 l 1,1.86393 v 0 l 1,1.85704 v 0 l 1,1.84996 v 0 l 1,1.8427 v 0 l 1,1.83523 v 0 l 1,1.82761 v 0 l 1,1.81981 v 0 l 1,1.81186 v 0 l 1,1.80374 v 0 l 1,1.79547 v 0 l 1,1.78708 v 0 l 1,1.77854 v 0 l 1,1.76988 v 0 l 1,1.76109 v 0 l 1,1.7522 v 0 l 1,1.74318 v 0 l 1,1.73406 v 0 l 1,1.72486 v 0 l 1,1.71554 v 0 l 1,1.70616 v 0 l 1,1.69668 v 0 l 1,1.68713 v 0 l 1,1.6775 v 0 l 1,1.66781 v 0 l 1,1.65807 v 0 l 1,1.64825 v 0 l 1,1.63838 v 0 l 1,1.62848 v 0 l 1,1.61852 v 0 l 1,1.60853 v 0 l 1,1.59849 v 0 l 1,1.58842 v 0 l 1,1.57834 v 0 l 1,1.56821 v 0 l 1,1.55808 v 0 l 1,1.54792 v 0 l 1,1.53774 v 0 l 1,1.52757 v 0 l 1,1.51737 v 0 l 1,1.50718 v 0 l 1,1.49698 v 0 l 1,1.48678 v 0 l 1,1.47659 v 0 l 1,1.46641 v 0 l 1,1.45622 v 0 l 1,1.44606 v 0 l 1,1.4359 v 0 l 1,1.42577 v 0 l 1,1.41565 v 0 l 1,1.40555 v 0 l 1,1.39547 v 0 l 1,1.38542 v 0 l 1,1.37539 v 0 l 1,1.3654 v 0 l 1,1.35543 v 0 l 1,1.34549 v 0 l 1,1.33559 v 0 l 1,1.32572 v 0 l 1,1.31589 v 0 l 1,1.3061 v 0 l 1,1.29634 v 0 l 1,1.28662 v 0 l 1,1.27695 v 0 l 1,1.26732 v 0 l 1,1.25773 v 0 l 1,1.24818 v 0 l 1,1.2387 v 0 l 1,1.22924 v 0 l 1,1.21984 v 0 l 1,1.21048 v 0 l 1,1.20119 v 0 l 1,1.19193 v 0 l 1,1.18272 v 0 l 1,1.17358 v 0 l 1,1.16447 v 0 l 1,1.15543 v 0 l 1,1.14644 v 0 l 1,1.1375 v 0 l 1,1.12862 v 0 l 1,1.11979 v 0 l 1,1.11101 v 0 l 1,1.1023 v 0 l 1,1.09364 v 0 l 1,1.08503 v 0 l 1,1.07648 v 0 l 1,1.06799 v 0 l 1,1.05956 v 0 l 1,1.05118 v 0 l 1,1.04287 v 0 l 1,1.0346 v 0 l 1,1.0264 v 0 l 1,1.01826 v 0 l 1,1.01017 v 0 l 1,1.00214 v 0 l 1,0.99417 v 0 l 1,0.98626 v 0 l 1,0.97841 v 0 l 1,0.97061 v 0 l 1,0.96288 v 0 l 1,0.95519 v 0 l 1,0.94758 v 0 l 1,0.94002 v 0 l 1,0.93251 v 0 l 1,0.92507 v 0 l 1,0.91768 v 0 l 1,0.91035 v 0 l 1,0.90308 v 0 l 1,0.89586 v 0 l 1,0.8887 v 0 l 1,0.88161 v 0 l 1,0.87456 v 0 l 1,0.86757 v 0 l 1,0.86064 v 0 l 1,0.85377 v 0 l 1,0.84695 v 0 l 1,0.84018 v 0 l 1,0.83348 v 0 l 1,0.82683 v 0 l 1,0.82023 v 0 l 1,0.81368 v 0 l 1,0.8072 v 0 l 1,0.80077 v 0 l 1,0.79438 v 0 l 1,0.78806 v 0 l 1,0.78178 v 0 l 1,0.77557 v 0 l 1,0.7694 v 0 l 1,0.76328 v 0 l 1,0.75722 v 0 l 1,0.75121 v 0 l 1,0.74524 v 0 l 1,0.73934 v 0 l 1,0.73348 v 0 l 1,0.72767 v 0 l 1,0.72192 v 0 l 1,0.7162 v 0 l 1,0.71055 v 0 l 1,0.70494 v 0 l 1,0.69937 v 0 l 1,0.69387 v 0 l 1,0.6884 v 0 l 1,0.68298 v 0 l 1,0.67761 v 0 l 1,0.67229 v 0 l 1,0.66701 v 0 l 1,0.66178 v 0 l 1,0.6566 v 0 l 1,0.65146 v 0 l 1,0.64636 v 0 l 1,0.64132 v 0 l 1,0.63631 v 0 l 1,0.63135 v 0 l 1,0.62644 v 0 l 1,0.62156 v 0 l 1,0.61673 v 0 l 1,0.61195 v 0 l 1,0.6072 v 0 l 1,0.60249 v 0 l 1,0.59784 v 0 l 1,0.59322 v 0 l 1,0.58863 v 0 l 1,0.5841 v 0 l 1,0.5796 v 0 l 1,0.57514 v 0 l 1,0.57072 v 0 l 1,0.56635 v 0 l 1,0.562 v 0 l 1,0.5577 v 0 l 1,0.55344 v 0 l 1,0.54921 v 0 l 1,0.54502 v 0 l 1,0.54087 v 0 l 1,0.53676 v 0 l 1,0.53268 v 0 l 1,0.52864 v 0 l 1,0.52463 v 0 l 1,0.52067 v 0 l 1,0.51672 v 0 l 1,0.51283 v 0 l 1,0.50897 v 0 l 1,0.50513 v 0 l 1,0.50134 v 0 l 1,0.49757 v 0 l 1,0.49384 v 0 l 1,0.49015 v 0 l 1,0.48648 v 0 l 1,0.48286 v 0 l 1,0.47925 v 0 l 1,0.47568 v 0 l 1,0.47215 v 0 l 1,0.46865 v 0 l 1,0.46517 v 0 l 1,0.46173 v 0 l 1,0.45832 v 0 l 1,0.45494 v 0 l 1,0.45158 v 0 l 1,0.44826 v 0 l 1,0.44497 v 0 l 1,0.44171 v 0 l 1,0.43847 v 0 l 1,0.43526 v 0 l 1,0.43208 v 0 l 1,0.42893 v 0 l 1,0.42581 v 0 l 1,0.42272 v 0 l 1,0.41964 v 0 l 1,0.41661 v 0 l 1,0.41359 v 0 l 1,0.4106 v 0 l 1,0.40763 v 0 l 1,0.40471 v 0 l 1,0.40179 v 0 l 1,0.3989 v 0 l 1,0.39605 v 0 l 1,0.39321 v 0 l 1,0.3904 v 0 l 1,0.38761 v 0 l 1,0.38485 v 0 l 1,0.38211 v 0 l 1,0.3794 v 0 l 1,0.37671 v 0 l 1,0.37404 v 0 l 1,0.3714 v 0 l 1,0.36877 v 0 l 1,0.36618 v 0 l 1,0.3636 v 0 l 1,0.36105 v 0 l 1,0.35851 v 0 l 1,0.35601 v 0 l 1,0.35351 v 0 l 1,0.35105 v 0 l 1,0.3486 v 0 l 1,0.34618 v 0 l 1,0.34377 v 0 l 1,0.34138 v 0 l 1,0.33903 v 0 l 1,0.33668 v 0 l 1,0.33436 v 0 l 1,0.33205 v 0 l 1,0.32977 v 0 l 1,0.3275 v 0 l 1,0.32526 v 0 l 1,0.32303 v 0 l 1,0.32083 v 0 l 1,0.31864 v 0 l 1,0.31646 v 0 l 1,0.31432 v 0 l 1,0.31218 v 0 l 1,0.31006 v 0 l 1,0.30797 v 0 l 1,0.30588 v 0 l 1,0.30382 v 0 l 1,0.30178 v 0 l 1,0.29975 v 0 l 1,0.29773 v 0 l 1,0.29574 v 0 l 1,0.29377 v 0 l 1,0.2918 v 0 l 1,0.28985 v 0 l 1,0.28793 v 0 l 1,0.28601 v 0 l 1,0.28412 v 0 l 1,0.28223 v 0 l 1,0.28037 v 0 l 1,0.27852 v 0 l 1,0.27668 v 0 l 1,0.27486 v 0 l 1,0.27305 v 0 l 1,0.27127 v 0 l 1,0.26949 v 0 l 1,0.26773 v 0 l 1,0.26598 v 0 l 1,0.26425 v 0 l 1,0.26253 v 0 l 1,0.26082 v 0 l 1,0.25914 v 0 l 1,0.25745 v 0 l 1,0.2558 v 0 l 1,0.25414 v 0 l 1,0.25251 v 0 l 1,0.25089 v 0 l 1,0.24927 v 0 l 1,0.24768 v 0 l 1,0.2461 v 0 l 1,0.24452 v 0 l 1,0.24297 v 0 l 1,0.24141 v 0 l 1,0.23989 v 0 l 1,0.23836 v 0 l 1,0.23686 v 0 l 1,0.23535 v 0 l 1,0.23387 v 0 l 1,0.2324 v 0 l 1,0.23094 v 0 l 1,0.22948 v 0 l 1,0.22805 v 0 l 1,0.22662 v 0 l 1,0.2252 v 0 l 1,0.2238 v 0 l 1,0.2224 v 0 l 1,0.22103 v 0 l 1,0.21965 v 0 l 1,0.21829 v 0 l 1,0.21693 v 0 l 1,0.2156 v 0 l 1,0.21427 v 0 l 1,0.21295 v 0 l 1,0.21164 v 0 l 1,0.21034 v 0 l 1,0.20906 v 0 l 1,0.20777 v 0 l 1,0.20651 v 0 l 1,0.20525 v 0 l 1,0.204 v 0 l 1,0.20276 v 0 l 1,0.20153 v 0 l 1,0.20031 v 0 l 1,0.1991 v 0 l 1,0.1979 v 0 l 1,0.19671 v 0 l 1,0.19552 v 0 l 1,0.19435 v 0 l 1,0.19318 v 0 l 1,0.19203 v 0 l 1,0.19088 v 0 l 1,0.18974 v 0 l 1,0.18861 v 0 l 1,0.18749 v 0 l 1,0.18637 v 0 l 1,0.18527 v 0 l 1,0.18418 v 0 l 1,0.18309 v 0 l 1,0.182 v 0 l 1,0.18094 v 0 l 1,0.17987 v 0 l 1,0.17882 v 0 l 1,0.17777 v 0 l 1,0.17672 v 0 l 1,0.1757 v 0 l 1,0.17467 v 0 l 1,0.17366 v 0 l 1,0.17264 v 0 l 1,0.17165 v 0 l 1,0.17065 v 0 l 1,0.16966 v 0 l 1,0.16868 v 0 l 1,0.16771 v 0 l 1,0.16675 v 0 l 1,0.16579 v 0 l 1,0.16483 v 0 l 1,0.1639 v 0 l 1,0.16295 v 0 l 1,0.16203 v 0 l 1,0.1611 v 0 l 1,0.16018 v 0 l 1,0.15928 v 0 l 1,0.15837 v 0 l 1,0.15747 v 0 l 1,0.15658 v 0 l 1,0.1557 v 0 l 1,0.15483 v 0 l 1,0.15395 v 0 l 1,0.15308 v 0 l 1,0.15223 v 0 l 1,0.15138 v 0 l 1,0.15052 v 0 l 1,0.14969 v 0 l 1,0.14886 v 0 l 1,0.14802 v 0 l 1,0.14721 v 0 l 1,0.14638 v 0 l 1,0.14558 v 0 l 1,0.14477 v 0 l 1,0.14397 v 0 l 1,0.14318 v 0 l 1,0.14239 v 0 l 1,0.14161 v 0 l 1,0.14083 v 0 l 1,0.14006 v 0 l 1,0.13929 v 0 l 1,0.13854 v 0 l 1,0.13778 v 0 l 1,0.13702 v 0 l 1,0.13629 v 0 l 1,0.13554 v 0 l 1,0.13481 v 0 l 1,0.13409 v 0 l 1,0.13335 v 0 l 1,0.13264 v 0 l 1,0.13193 v 0 l 1,0.13121 v 0 l 1,0.13051 v 0 l 1,0.12981 v 0 l 1,0.12912 v 0 l 1,0.12843 v 0 l 1,0.12774 v 0 l 1,0.12707 v 0 l 1,0.12638 v 0 l 1,0.12572 v 0 l 1,0.12505 v 0 l 1,0.12439 v 0 l 1,0.12373 v 0 l 1,0.12308 v 0 l 1,0.12243 v 0 l 1,0.12179 v 0 l 1,0.12114 v 0 l 1,0.12051 v 0 l 1,0.11989 v 0 l 1,0.11925 v 0 l 1,0.11863 v 0 l 1,0.11802 v 0 l 1,0.1174 v 0 l 1,0.11679 v 0 l 1,0.11618 v 0 l 1,0.11558 v 0 l 1,0.11499 v 0 l 1,0.11439 v 0 l 1,0.1138 v 0 l 1,0.11322 v 0 l 1,0.11263 v 0 l 1,0.11206 v 0 l 1,0.11148 v 0 l 1,0.11091 v 0 l 1,0.11034 v 0 l 1,0.10979 v 0 l 1,0.10922 v 0 l 1,0.10867 v 0 l 1,0.10811 v 0 l 1,0.10757 v 0 l 1,0.10702 v 0 l 1,0.10648 v 0 l 1,0.10595 v 0 l 1,0.10541 v 0 l 1,0.10488 v 0 l 1,0.10435 v 0 l 1,0.10383 v 0 l 1,0.10331 v 0 l 1,0.10279 v 0 l 1,0.10228 v 0 l 1,0.10177 v 0 l 1,0.10126 v 0 l 1,0.10076 v 0 l 1,0.10026 v 0 l 1,0.0998 v 0 l 1,0.0993 v 0 l 1,0.0988 v 0 l 1,0.0983 v 0 l 1,0.0978 v 0 l 1,0.0973 v 0 l 1,0.0968 v 0 l 1,0.0964 v 0 l 1,0.0959 v 0 l 1,0.0954 v 0 l 1,0.095 v 0 l 1,0.0945 v 0 l 1,0.094 v 0 l 1,0.0936 v 0 l 1,0.0931 v 0 l 1,0.0927 v 0 l 1,0.0922 v 0 l 1,0.0918 v 0 l 1,0.0913 v 0 l 1,0.0909 v 0 l 1,0.0905 v 0 l 1,0.09 v 0 l 1,0.0896 v 0 l 1,0.0892 v 0 l 1,0.0887 v 0 l 1,0.0883 v 0 l 1,0.0879 v 0 l 1,0.0875 v 0 l 1,0.087 v 0 l 1,0.0866 v 0 l 1,0.0862 v 0 l 1,0.0858 v 0 l 1,0.0854 v 0 l 1,0.085 v 0 l 1,0.0846 v 0 l 1,0.0842 v 0 l 1,0.0838 v 0 l 1,0.0834 v 0 l 1,0.083 v 0 l 1,0.0826 v 0 l 1,0.0823 v 0 l 1,0.0819 v 0 l 1,0.0815 v 0 l 1,0.0811 v 0 l 1,0.0807 v 0 l 1,0.0804 v 0 l 1,0.08 v 0 l 1,0.0796 v 0 l 1,0.0793 v 0 l 1,0.0789 v 0 l 1,0.0785 v 0 l 1,0.0781 v 0 l 1,0.0778 v 0 l 1,0.0774 v 0 l 1,0.0771 v 0 l 1,0.0767 v 0 l 1,0.0764 v 0 l 1,0.076 v 0 l 1,0.0757 v 0 l 1,0.0753 v 0 l 1,0.075 v 0 l 1,0.0747 v 0 l 1,0.0743 v 0 l 1,0.074 v 0 l 1,0.0736 v 0 l 1,0.0733 v 0 l 1,0.073 v 0 l 1,0.0726 v 0 l 1,0.0723 v 0 l 1,0.072 v 0 l 1,0.0717 v 0 l 1,0.0714 v 0 l 1,0.071 v 0 l 1,0.0707 v 0 l 1,0.0704 v 0 l 1,0.0701 v 0 l 1,0.0698 v 0 l 1,0.0695 v 0 l 1,0.0692 v 0 l 1,0.0688 v 0 l 1,0.0685 v 0 l 1,0.0683 v 0 l 1,0.0679 v 0 l 1,0.0676 v 0 l 1,0.0674 v 0 l 1,0.067 v 0 l 1,0.0668 v 0 l 1,0.0665 v 0 l 1,0.0662 v 0 l 1,0.0659 v 0 l 1,0.0656 v 0 l 1,0.0653 v 0 l 1,0.065 v 0 l 1,0.0648 v 0 l 1,0.0645 v 0 l 1,0.0642 v 0 l 1,0.0639 v 0 l 1,0.0636 v 0 l 1,0.0634 v 0 l 1,0.0631 v 0 l 1,0.0628 v 0 l 1,0.0625 v 0 l 1,0.0623 v 0 l 1,0.062 v 0 l 1,0.0617 v 0 l 1,0.0615 v 0 l 1,0.0612 v 0 l 1,0.061 v 0 l 1,0.0607 v 0 l 1,0.0604 v 0 l 1,0.0602 v 0 l 1,0.0599 v 0 l 1,0.0597 v 0 l 1,0.0594 v 0 l 1,0.0592 v 0 l 1,0.0589 v 0 l 1,0.0587 v 0 l 1,0.0584 v 0 l 1,0.0582 v 0 l 1,0.0579 v 0 l 1,0.0577 v 0 l 1,0.0574 v 0 l 1,0.0572 v 0 l 1,0.057 v 0 l 1,0.0567 v 0 l 1,0.0565 v 0 l 1,0.0563 v 0 l 1,0.056 v 0 l 1,0.0558 v 0 l 1,0.0556 v 0 l 1,0.0553 v 0 l 1,0.0551 v 0 l 1,0.0549 v 0 l 1,0.0546 v 0 l 1,0.0544 v 0 l 1,0.0542 v 0 l 1,0.054 v 0 l 1,0.0538 v 0 l 1,0.0535 v 0 l 1,0.0533 v 0 l 1,0.0531 v 0 l 1,0.0529 v 0 l 1,0.0527 v 0 l 1,0.0524 v 0 l 1,0.0522 v 0 l 1,0.052 v 0 l 1,0.0518 v 0 l 1,0.0516 v 0 l 1,0.0514 v 0 l 1,0.0512 v 0 l 1,0.051 v 0 l 1,0.0508 v 0 l 1,0.0506 v 0 l 1,0.0504 v 0 l 1,0.0502 v 0 l 1,0.05 v 0 l 1,0.0498 v 0 l 1,0.0496 v 0 l 1,0.0494 v 0 l 1,0.0492 v 0 l 1,0.049 v 0 l 1,0.0488 v 0 l 1,0.0486 v 0 l 1,0.0484 v 0 l 1,0.0482 v 0 l 1,0.048 v 0 l 1,0.0478 v 0 l 1,0.0476 v 0 l 1,0.0474 v 0 l 1,0.0472 v 0 l 1,0.0471 v 0 l 1,0.0469 v 0 l 1,0.0467 v 0 l 1,0.0465 v 0 l 1,0.0463 v 0 l 1,0.0461 v 0 l 1,0.046 v 0 l 1,0.0458 v 0 l 1,0.0456 v 0 l 1,0.0454 v 0 l 1,0.0453 v 0 l 1,0.0451 v 0 l 1,0.0449 v 0 l 1,0.0447 v 0 l 1,0.0446 v 0 l 1,0.0444 v 0 l 1,0.0442 v 0 l 1,0.044 v 0 l 1,0.0439 v 0 l 1,0.0437 v 0 l 1,0.0435 v 0 l 1,0.0434 v 0 l 1,0.0432 v 0 l 1,0.043 v 0 l 1,0.0429 v 0 l 1,0.0427 v 0 l 1,0.0426 v 0 l 1,0.0424 v 0 l 1,0.0422 v 0 l 1,0.0421"
     stroke-opacity="0.698039"
     stroke-linecap="round"
     stroke-linejoin="round"
     stroke-miterlimit="10"
     stroke-width="2.5"
     id="path63"
     clip-path="url(#clipPath65)"
     style="stroke:#e67e22;stroke-width:4;stroke-dasharray:none" />
  <text
     fill="#c75000"
     stroke="none"
     font-family="geogebra-sans-serif, sans-serif"
     font-size="16px"
     font-style="normal"
     font-weight="normal"
     text-decoration="normal"
     x="8"
     y="681"
     text-anchor="start"
     dominant-baseline="alphabetic"
     fill-opacity="1"
     id="text64">j</text>
</svg>
