<?xml version="1.0" encoding="UTF-8" standalone="no"?>
<svg
   version="1.1"
   width="1532"
   height="898"
   id="svg38"
   sodipodi:docname="Methode-4.svg"
   inkscape:version="1.4.2 (1:1.4.2+202505120737+ebf0e940d0)"
   xmlns:inkscape="http://www.inkscape.org/namespaces/inkscape"
   xmlns:sodipodi="http://sodipodi.sourceforge.net/DTD/sodipodi-0.dtd"
   xmlns="http://www.w3.org/2000/svg"
   xmlns:svg="http://www.w3.org/2000/svg">
  <sodipodi:namedview
     id="namedview38"
     pagecolor="#ffffff"
     bordercolor="#000000"
     borderopacity="0.25"
     inkscape:showpageshadow="2"
     inkscape:pageopacity="0.0"
     inkscape:pagecheckerboard="0"
     inkscape:deskcolor="#d1d1d1"
     inkscape:zoom="0.6291518"
     inkscape:cx="884.52421"
     inkscape:cy="464.91165"
     inkscape:window-width="1920"
     inkscape:window-height="1008"
     inkscape:window-x="0"
     inkscape:window-y="0"
     inkscape:window-maximized="1"
     inkscape:current-layer="svg38" />
  <defs
     id="defs1">
    <clipPath
       clipPathUnits="userSpaceOnUse"
       id="clipPath38">
      <path
         fill="none"
         stroke="none"
         d="M 0,0 H 1532 V 898 H 0 Z"
         id="path39" />
    </clipPath>
    <clipPath
       clipPathUnits="userSpaceOnUse"
       id="clipPath39">
      <path
         fill="none"
         stroke="none"
         d="M 0,0 H 1532 V 898 H 0 Z"
         id="path40" />
    </clipPath>
  </defs>
  <rect
     fill="#ffffff"
     stroke="none"
     x="0"
     y="0"
     width="1532"
     height="898"
     fill-opacity="1"
     id="rect1" />
  <path
     fill="none"
     stroke="#c0c0c0"
     paint-order="fill stroke markers"
     d="m 77.5,0.5 v 898 m 0,-898 v 898 m 98,-898 v 898 m 98,-898 v 898 m 98,-898 v 898 m 98,-898 v 898 m 196,-898 v 898 m 98,-898 v 898 m 98,-898 v 898 m 98,-898 v 898 m 98,-898 v 898 m 98,-898 v 898 m 98,-898 v 898 m 98,-898 v 898 m 98,-898 v 898"
     stroke-opacity="1"
     stroke-linecap="round"
     stroke-linejoin="round"
     stroke-miterlimit="10"
     id="path2" />
  <path
     fill="none"
     stroke="#c0c0c0"
     paint-order="fill stroke markers"
     d=""
     stroke-opacity="0.235294"
     stroke-linecap="round"
     stroke-linejoin="round"
     stroke-miterlimit="10"
     id="path3" />
  <path
     fill="none"
     stroke="#c0c0c0"
     paint-order="fill stroke markers"
     d="m 0.5,13.5 h 1532 m -1532,0 h 1532 m -1532,98 h 1532 m -1532,98 h 1532 m -1532,98 h 1532 m -1532,98 h 1532 m -1532,196 h 1532 m -1532,98 h 1532 m -1532,98 h 1532 m -1532,98 h 1532"
     stroke-opacity="1"
     stroke-linecap="round"
     stroke-linejoin="round"
     stroke-miterlimit="10"
     id="path4" />
  <path
     fill="none"
     stroke="#c0c0c0"
     paint-order="fill stroke markers"
     d=""
     stroke-opacity="0.235294"
     stroke-linecap="round"
     stroke-linejoin="round"
     stroke-miterlimit="10"
     id="path5" />
  <path
     fill="none"
     stroke="#252525"
     paint-order="fill stroke markers"
     d="m 567.5,2.5 v 896"
     stroke-opacity="1"
     stroke-miterlimit="10"
     id="path6" />
  <path
     fill="none"
     stroke="#252525"
     paint-order="fill stroke markers"
     d="m 567.5,1.5 -4,4"
     stroke-opacity="1"
     stroke-miterlimit="10"
     id="path7" />
  <path
     fill="none"
     stroke="#252525"
     paint-order="fill stroke markers"
     d="m 567.5,1.5 4,4"
     stroke-opacity="1"
     stroke-miterlimit="10"
     id="path8" />
  <text
     fill="#252525"
     stroke="none"
     font-family="geogebra-sans-serif, sans-serif"
     font-size="16px"
     font-style="normal"
     font-weight="normal"
     text-decoration="normal"
     x="1514"
     y="499"
     text-anchor="start"
     dominant-baseline="alphabetic"
     fill-opacity="1"
     id="text8"
     inkscape:export-filename="graph.pdf"
     inkscape:export-xdpi="96"
     inkscape:export-ydpi="96">x</text>
  <path
     fill="none"
     stroke="#252525"
     paint-order="fill stroke markers"
     d="m 0.5,503.5 h 1530"
     stroke-opacity="1"
     stroke-miterlimit="10"
     id="path9" />
  <path
     fill="none"
     stroke="#252525"
     paint-order="fill stroke markers"
     d="m 1531.5,503.5 -4,-4"
     stroke-opacity="1"
     stroke-miterlimit="10"
     id="path10" />
  <path
     fill="none"
     stroke="#252525"
     paint-order="fill stroke markers"
     d="m 1531.5,503.5 -4,4"
     stroke-opacity="1"
     stroke-miterlimit="10"
     id="path11" />
  <text
     fill="#252525"
     stroke="none"
     font-family="geogebra-sans-serif, sans-serif"
     font-size="12px"
     font-style="normal"
     font-weight="normal"
     text-decoration="normal"
     x="66"
     y="519"
     text-anchor="start"
     dominant-baseline="alphabetic"
     fill-opacity="1"
     id="text11">–2.5</text>
  <text
     fill="#252525"
     stroke="none"
     font-family="geogebra-sans-serif, sans-serif"
     font-size="12px"
     font-style="normal"
     font-weight="normal"
     text-decoration="normal"
     x="170"
     y="519"
     text-anchor="start"
     dominant-baseline="alphabetic"
     fill-opacity="1"
     id="text12">–2</text>
  <text
     fill="#252525"
     stroke="none"
     font-family="geogebra-sans-serif, sans-serif"
     font-size="12px"
     font-style="normal"
     font-weight="normal"
     text-decoration="normal"
     x="262"
     y="519"
     text-anchor="start"
     dominant-baseline="alphabetic"
     fill-opacity="1"
     id="text13">–1.5</text>
  <text
     fill="#252525"
     stroke="none"
     font-family="geogebra-sans-serif, sans-serif"
     font-size="12px"
     font-style="normal"
     font-weight="normal"
     text-decoration="normal"
     x="366"
     y="519"
     text-anchor="start"
     dominant-baseline="alphabetic"
     fill-opacity="1"
     id="text14">–1</text>
  <text
     fill="#252525"
     stroke="none"
     font-family="geogebra-sans-serif, sans-serif"
     font-size="12px"
     font-style="normal"
     font-weight="normal"
     text-decoration="normal"
     x="458"
     y="519"
     text-anchor="start"
     dominant-baseline="alphabetic"
     fill-opacity="1"
     id="text15">–0.5</text>
  <text
     fill="#252525"
     stroke="none"
     font-family="geogebra-sans-serif, sans-serif"
     font-size="12px"
     font-style="normal"
     font-weight="normal"
     text-decoration="normal"
     x="657"
     y="519"
     text-anchor="start"
     dominant-baseline="alphabetic"
     fill-opacity="1"
     id="text16">0.5</text>
  <text
     fill="#252525"
     stroke="none"
     font-family="geogebra-sans-serif, sans-serif"
     font-size="12px"
     font-style="normal"
     font-weight="normal"
     text-decoration="normal"
     x="761"
     y="519"
     text-anchor="start"
     dominant-baseline="alphabetic"
     fill-opacity="1"
     id="text17">1</text>
  <text
     fill="#252525"
     stroke="none"
     font-family="geogebra-sans-serif, sans-serif"
     font-size="12px"
     font-style="normal"
     font-weight="normal"
     text-decoration="normal"
     x="853"
     y="519"
     text-anchor="start"
     dominant-baseline="alphabetic"
     fill-opacity="1"
     id="text18">1.5</text>
  <text
     fill="#252525"
     stroke="none"
     font-family="geogebra-sans-serif, sans-serif"
     font-size="12px"
     font-style="normal"
     font-weight="normal"
     text-decoration="normal"
     x="957"
     y="519"
     text-anchor="start"
     dominant-baseline="alphabetic"
     fill-opacity="1"
     id="text19">2</text>
  <text
     fill="#252525"
     stroke="none"
     font-family="geogebra-sans-serif, sans-serif"
     font-size="12px"
     font-style="normal"
     font-weight="normal"
     text-decoration="normal"
     x="1049"
     y="519"
     text-anchor="start"
     dominant-baseline="alphabetic"
     fill-opacity="1"
     id="text20">2.5</text>
  <text
     fill="#252525"
     stroke="none"
     font-family="geogebra-sans-serif, sans-serif"
     font-size="12px"
     font-style="normal"
     font-weight="normal"
     text-decoration="normal"
     x="1153"
     y="519"
     text-anchor="start"
     dominant-baseline="alphabetic"
     fill-opacity="1"
     id="text21">3</text>
  <text
     fill="#252525"
     stroke="none"
     font-family="geogebra-sans-serif, sans-serif"
     font-size="12px"
     font-style="normal"
     font-weight="normal"
     text-decoration="normal"
     x="1245"
     y="519"
     text-anchor="start"
     dominant-baseline="alphabetic"
     fill-opacity="1"
     id="text22">3.5</text>
  <text
     fill="#252525"
     stroke="none"
     font-family="geogebra-sans-serif, sans-serif"
     font-size="12px"
     font-style="normal"
     font-weight="normal"
     text-decoration="normal"
     x="1349"
     y="519"
     text-anchor="start"
     dominant-baseline="alphabetic"
     fill-opacity="1"
     id="text23">4</text>
  <text
     fill="#252525"
     stroke="none"
     font-family="geogebra-sans-serif, sans-serif"
     font-size="12px"
     font-style="normal"
     font-weight="normal"
     text-decoration="normal"
     x="1441"
     y="519"
     text-anchor="start"
     dominant-baseline="alphabetic"
     fill-opacity="1"
     id="text24">4.5</text>
  <text
     fill="#252525"
     stroke="none"
     font-family="geogebra-sans-serif, sans-serif"
     font-size="16px"
     font-style="normal"
     font-weight="normal"
     text-decoration="normal"
     x="572"
     y="147"
     text-anchor="start"
     dominant-baseline="alphabetic"
     fill-opacity="1"
     id="text25">ψ(x,t</text>
  <text
     fill="#252525"
     stroke="none"
     font-family="geogebra-sans-serif, sans-serif"
     font-size="14px"
     font-style="normal"
     font-weight="normal"
     text-decoration="normal"
     x="608"
     y="154"
     text-anchor="start"
     dominant-baseline="alphabetic"
     fill-opacity="1"
     id="text26">0</text>
  <text
     fill="#252525"
     stroke="none"
     font-family="geogebra-sans-serif, sans-serif"
     font-size="16px"
     font-style="normal"
     font-weight="normal"
     text-decoration="normal"
     x="616"
     y="147"
     text-anchor="start"
     dominant-baseline="alphabetic"
     fill-opacity="1"
     id="text27">)</text>
  <text
     fill="#252525"
     stroke="none"
     font-family="geogebra-sans-serif, sans-serif"
     font-size="12px"
     font-style="normal"
     font-weight="normal"
     text-decoration="normal"
     x="537"
     y="802"
     text-anchor="start"
     dominant-baseline="alphabetic"
     fill-opacity="1"
     id="text28">–1.5</text>
  <text
     fill="#252525"
     stroke="none"
     font-family="geogebra-sans-serif, sans-serif"
     font-size="12px"
     font-style="normal"
     font-weight="normal"
     text-decoration="normal"
     x="547"
     y="704"
     text-anchor="start"
     dominant-baseline="alphabetic"
     fill-opacity="1"
     id="text29">–1</text>
  <text
     fill="#252525"
     stroke="none"
     font-family="geogebra-sans-serif, sans-serif"
     font-size="12px"
     font-style="normal"
     font-weight="normal"
     text-decoration="normal"
     x="537"
     y="606"
     text-anchor="start"
     dominant-baseline="alphabetic"
     fill-opacity="1"
     id="text30">–0.5</text>
  <text
     fill="#252525"
     stroke="none"
     font-family="geogebra-sans-serif, sans-serif"
     font-size="12px"
     font-style="normal"
     font-weight="normal"
     text-decoration="normal"
     x="543"
     y="410"
     text-anchor="start"
     dominant-baseline="alphabetic"
     fill-opacity="1"
     id="text31">0.5</text>
  <text
     fill="#252525"
     stroke="none"
     font-family="geogebra-sans-serif, sans-serif"
     font-size="12px"
     font-style="normal"
     font-weight="normal"
     text-decoration="normal"
     x="553"
     y="312"
     text-anchor="start"
     dominant-baseline="alphabetic"
     fill-opacity="1"
     id="text32">1</text>
  <text
     fill="#252525"
     stroke="none"
     font-family="geogebra-sans-serif, sans-serif"
     font-size="12px"
     font-style="normal"
     font-weight="normal"
     text-decoration="normal"
     x="543"
     y="214"
     text-anchor="start"
     dominant-baseline="alphabetic"
     fill-opacity="1"
     id="text33">1.5</text>
  <text
     fill="#252525"
     stroke="none"
     font-family="geogebra-sans-serif, sans-serif"
     font-size="12px"
     font-style="normal"
     font-weight="normal"
     text-decoration="normal"
     x="553"
     y="116"
     text-anchor="start"
     dominant-baseline="alphabetic"
     fill-opacity="1"
     id="text34">2</text>
  <text
     fill="#252525"
     stroke="none"
     font-family="geogebra-sans-serif, sans-serif"
     font-size="12px"
     font-style="normal"
     font-weight="normal"
     text-decoration="normal"
     x="543"
     y="18"
     text-anchor="start"
     dominant-baseline="alphabetic"
     fill-opacity="1"
     id="text35">2.5</text>
  <text
     fill="#252525"
     stroke="none"
     font-family="geogebra-sans-serif, sans-serif"
     font-size="12px"
     font-style="normal"
     font-weight="normal"
     text-decoration="normal"
     x="553"
     y="519"
     text-anchor="start"
     dominant-baseline="alphabetic"
     fill-opacity="1"
     id="text36">0</text>
  <path
     fill="none"
     stroke="#006400"
     paint-order="fill stroke markers"
     d="m 1,350.15767 v 3.99317 0 l 1,4.14651 v 0 l 1,4.29558 v 0 l 1,4.44024 v 0 l 1,4.58036 v 0 l 1,4.71577 v 0 l 1,4.84634 v 0 l 1,4.97193 v 0 l 1,5.09242 v 0 l 1,5.20769 v 0 l 1,5.31761 v 0 l 1,5.42208 v 0 l 1,5.52097 v 0 l 1,5.6142 v 0 l 1,5.70167 v 0 l 1,5.7833 v 0 l 1,5.85897 v 0 l 1,5.92864 v 0 l 1,5.99223 v 0 l 1,6.04966 v 0 l 1,6.10088 v 0 l 1,6.14585 v 0 l 1,6.18451 v 0 l 1,6.21681 v 0 l 1,6.24274 v 0 l 1,6.26226 v 0 l 1,6.27535 v 0 l 1,6.282 v 0 l 1,6.28221 v 0 l 1,6.27597 v 0 l 1,6.26328 v 0 l 1,6.24417 v 0 l 1,6.21865 v 0 l 1,6.18675 v 0 l 1,6.14849 v 0 l 1,6.10393 v 0 l 1,6.0531 v 0 l 1,5.99605 v 0 l 1,5.93287 v 0 l 1,5.86357 v 0 l 1,5.78828 v 0 l 1,5.70703 v 0 l 1,5.61994 v 0 l 1,5.52706 v 0 l 1,5.42852 v 0 l 1,5.32441 v 0 l 1,5.21483 v 0 l 1,5.0999 v 0 l 1,4.97974 v 0 l 1,4.85447 v 0 l 1,4.7242 v 0 l 1,4.5891 v 0 l 1,4.44929 v 0 l 1,4.3049 v 0 l 1,4.1561 v 0 l 1,4.00303 v 0 l 1,3.84586 v 0 l 1,3.68474 v 0 l 1,3.51984 v 0 l 1,3.35131 v 0 l 1,3.17936 v 0 l 1,3.00415 v 0 l 1,2.82584 v 0 l 1,2.64463 v 0 l 1,2.46072 v 0 l 1,2.27428 v 0 l 1,2.0855 v 0 l 1,1.89459 v 0 l 1,1.70172 v 0 l 1,1.50711 v 0 l 1,1.31096 v 0 l 1,1.11346 v 0 l 1,0.91481 v 0 l 1,0.71524 v 0 l 1,0.51491 v 0 l 1,0.31407 v 0 l 1,0.11291 v -0.0884 l 1,0.0888 v -0.0888 l 1,-0.28957 v 0 l 1,-0.49047 v 0 l 1,-0.69086 v 0 l 1,-0.89054 v 0 l 1,-1.08931 v 0 l 1,-1.28696 v 0 l 1,-1.48329 v 0 l 1,-1.6781 v 0 l 1,-1.87118 v 0 l 1,-2.06235 v 0 l 1,-2.2514 v 0 l 1,-2.43813 v 0 l 1,-2.62237 v 0 l 1,-2.80391 v 0 l 1,-2.98258 v 0 l 1,-3.15818 v 0 l 1,-3.33054 v 0 l 1,-3.49949 v 0 l 1,-3.66485 v 0 l 1,-3.82643 v 0 l 1,-3.9841 v 0 l 1,-4.13768 v 0 l 1,-4.287 v 0 l 1,-4.43193 v 0 l 1,-4.57231 v 0 l 1,-4.708 v 0 l 1,-4.83886 v 0 l 1,-4.96474 v 0 l 1,-5.08554 v 0 l 1,-5.20111 v 0 l 1,-5.31135 v 0 l 1,-5.41613 v 0 l 1,-5.51536 v 0 l 1,-5.60892 v 0 l 1,-5.69673 v 0 l 1,-5.77869 v 0 l 1,-5.85473 v 0 l 1,-5.92474 v 0 l 1,-5.98869 v 0 l 1,-6.04648 v 0 l 1,-6.09807 v 0 l 1,-6.1434 v 0 l 1,-6.18242 v 0 l 1,-6.2151 v 0 l 1,-6.2414 v 0 l 1,-6.2613 v 0 l 1,-6.27477 v 0 l 1,-6.28179 v 0 l 1,-6.28237 v 0 l 1,-6.27651 v 0 l 1,-6.2642 v 0 l 1,-6.24546 v 0 l 1,-6.22032 v 0 l 1,-6.18878 v 0 l 1,-6.15089 v 0 l 1,-6.1067 v 0 l 1,-6.05624 v 0 l 1,-5.99955 v 0 l 1,-5.93672 v 0 l 1,-5.86779 v 0 l 1,-5.79283 v 0 l 1,-5.71193 v 0 l 1,-5.62518 v 0 l 1,-5.53263 v 0 l 1,-5.43443 v 0 l 1,-5.33063 v 0 l 1,-5.22137 v 0 l 1,-5.10675 v 0 l 1,-4.98689 v 0 l 1,-4.86191 v 0 l 1,-4.73194 v 0 l 1,-4.59711 v 0 l 1,-4.45757 v 0 l 1,-4.31345 v 0 l 1,-4.1649 v 0 l 1,-4.01208 v 0 l 1,-3.85513 v 0 l 1,-3.69425 v 0 l 1,-3.52955 v 0 l 1,-3.36124 v 0 l 1,-3.18949 v 0 l 1,-3.01445 v 0 l 1,-2.83632 v 0 l 1,-2.65528 v 0 l 1,-2.47152 v 0 l 1,-2.28522 v 0 l 1,-2.09658 v 0 l 1,-1.90577 v 0 l 1,-1.71302 v 0 l 1,-1.51851 v 0 l 1,-1.32244 v 0 l 1,-1.12502 v 0 l 1,-0.92643 v 0 l 1,-0.72689 v 0 l 1,-0.52662 v 0 l 1,-0.3258 v 0 l 1,-0.12464 v 0.0766 l 1,-0.0781 v 0.0781 l 1,0.27784 v 0 l 1,0.47876 v 0 l 1,0.67918 v 0 l 1,0.87892 v 0 l 1,1.07774 v 0 l 1,1.27547 v 0 l 1,1.47188 v 0 l 1,1.66678 v 0 l 1,1.85997 v 0 l 1,2.05125 v 0 l 1,2.24043 v 0 l 1,2.42731 v 0 l 1,2.61169 v 0 l 1,2.7934 v 0 l 1,2.97224 v 0 l 1,3.14802 v 0 l 1,3.32058 v 0 l 1,3.48974 v 0 l 1,3.65529 v 0 l 1,3.81712 v 0 l 1,3.97501 v 0 l 1,4.12883 v 0 l 1,4.27842 v 0 l 1,4.4236 v 0 l 1,4.56425 v 0 l 1,4.70021 v 0 l 1,4.83136 v 0 l 1,4.95754 v 0 l 1,5.07863 v 0 l 1,5.19452 v 0 l 1,5.30507 v 0 l 1,5.41017 v 0 l 1,5.50972 v 0 l 1,5.60362 v 0 l 1,5.69177 v 0 l 1,5.77407 v 0 l 1,5.85046 v 0 l 1,5.92082 v 0 l 1,5.98513 v 0 l 1,6.04328 v 0 l 1,6.09523 v 0 l 1,6.14092 v 0 l 1,6.18032 v 0 l 1,6.21337 v 0 l 1,6.24005 v 0 l 1,6.26031 v 0 l 1,6.27416 v 0 l 1,6.28156 v 0 l 1,6.28252 v 0 l 1,6.27702 v 0 l 1,6.2651 v 0 l 1,6.24673 v 0 l 1,6.22195 v 0 l 1,6.1908 v 0 l 1,6.15328 v 0 l 1,6.10945 v 0 l 1,6.05935 v 0 l 1,6.00303 v 0 l 1,5.94055 v 0 l 1,5.87198 v 0 l 1,5.79736 v 0 l 1,5.71682 v 0 l 1,5.63039 v 0 l 1,5.53819 v 0 l 1,5.44031 v 0 l 1,5.33684 v 0 l 1,5.2279 v 0 l 1,5.11358 v 0 l 1,4.99402 v 0 l 1,4.86934 v 0 l 1,4.73965 v 0 l 1,4.60511 v 0 l 1,4.46584 v 0 l 1,4.32197 v 0 l 1,4.17369 v 0 l 1,4.0211 v 0 l 1,3.86441 v 0 l 1,3.70373 v 0 l 1,3.53926 v 0 l 1,3.37116 v 0 l 1,3.1996 v 0 l 1,3.02474 v 0 l 1,2.8468 v 0 l 1,2.66592 v 0 l 1,2.48231 v 0 l 1,2.29615 v 0 l 1,2.10764 v 0 l 1,1.91696 v 0 l 1,1.72432 v 0 l 1,1.5299 v 0 l 1,1.33392 v 0 l 1,1.13656 v 0 l 1,0.93804 v 0 l 1,0.73856 v 0 l 1,0.53832 v 0 l 1,0.33752 v 0 l 1,0.13639 v -0.0649 l 1,0.0681 v -0.0681 l 1,-0.26611 v 0 l 1,-0.46705 v 0 l 1,-0.66752 v 0 l 1,-0.86728 v 0 l 1,-1.06618 v 0 l 1,-1.26396 v 0 l 1,-1.46046 v 0 l 1,-1.65546 v 0 l 1,-1.84875 v 0 l 1,-2.04015 v 0 l 1,-2.22946 v 0 l 1,-2.41647 v 0 l 1,-2.60101 v 0 l 1,-2.78287 v 0 l 1,-2.96189 v 0 l 1,-3.13786 v 0 l 1,-3.31061 v 0 l 1,-3.47996 v 0 l 1,-3.64574 v 0 l 1,-3.80778 v 0 l 1,-3.96592 v 0 l 1,-4.11997 v 0 l 1,-4.2698 v 0 l 1,-4.41526 v 0 l 1,-4.55617 v 0 l 1,-4.69242 v 0 l 1,-4.82384 v 0 l 1,-4.95032 v 0 l 1,-5.07171 v 0 l 1,-5.1879 v 0 l 1,-5.29877 v 0 l 1,-5.40419 v 0 l 1,-5.50407 v 0 l 1,-5.5983 v 0 l 1,-5.68679 v 0 l 1,-5.76943 v 0 l 1,-5.84616 v 0 l 1,-5.91689 v 0 l 1,-5.98154 v 0 l 1,-6.04006 v 0 l 1,-6.09237 v 0 l 1,-6.13843 v 0 l 1,-6.1782 v 0 l 1,-6.21162 v 0 l 1,-6.23866 v 0 l 1,-6.25931 v 0 l 1,-6.27352 v 0 l 1,-6.28131 v 0 l 1,-6.28264 v 0 l 1,-6.27752 v 0 l 1,-6.26597 v 0 l 1,-6.24798 v 0 l 1,-6.22357 v 0 l 1,-6.19279 v 0 l 1,-6.15565 v 0 l 1,-6.11218 v 0 l 1,-6.06244 v 0 l 1,-6.00649 v 0 l 1,-5.94436 v 0 l 1,-5.87614 v 0 l 1,-5.80188 v 0 l 1,-5.72168 v 0 l 1,-5.63559 v 0 l 1,-5.54373 v 0 l 1,-5.44617 v 0 l 1,-5.34303 v 0 l 1,-5.2344 v 0 l 1,-5.12039 v 0 l 1,-5.00114 v 0 l 1,-4.87675 v 0 l 1,-4.74736 v 0 l 1,-4.61309 v 0 l 1,-4.47408 v 0 l 1,-4.33049 v 0 l 1,-4.18246 v 0 l 1,-4.03012 v 0 l 1,-3.87365 v 0 l 1,-3.71322 v 0 l 1,-3.54895 v 0 l 1,-3.38106 v 0 l 1,-3.2097 v 0 l 1,-3.03503 v 0 l 1,-2.85726 v 0 l 1,-2.67655 v 0 l 1,-2.49309 v 0 l 1,-2.30708 v 0 l 1,-2.1187 v 0 l 1,-1.92814 v 0 l 1,-1.7356 v 0 l 1,-1.54129 v 0 l 1,-1.34539 v 0 l 1,-1.14811 v 0 l 1,-0.94965 v 0 l 1,-0.75022 v 0 l 1,-0.55001 v 0 l 1,-0.34925 v 0 l 1,-0.14812 v 0.0532 l 1,-0.0588 v 0.0588 l 1,0.25438 v 0 l 1,0.45534 v 0 l 1,0.65584 v 0 l 1,0.85566 v 0 l 1,1.0546 v 0 l 1,1.25246 v 0 l 1,1.44903 v 0 l 1,1.64413 v 0 l 1,1.83753 v 0 l 1,2.02904 v 0 l 1,2.21847 v 0 l 1,2.40563 v 0 l 1,2.59032 v 0 l 1,2.77234 v 0 l 1,2.95153 v 0 l 1,3.12768 v 0 l 1,3.30062 v 0 l 1,3.47018 v 0 l 1,3.63617 v 0 l 1,3.79844 v 0 l 1,3.9568 v 0 l 1,4.1111 v 0 l 1,4.26118 v 0 l 1,4.40689 v 0 l 1,4.54809 v 0 l 1,4.68459 v 0 l 1,4.81631 v 0 l 1,4.94308 v 0 l 1,5.06477 v 0 l 1,5.18127 v 0 l 1,5.29245 v 0 l 1,5.39819 v 0 l 1,5.4984 v 0 l 1,5.59296 v 0 l 1,5.68179 v 0 l 1,5.76477 v 0 l 1,5.84185 v 0 l 1,5.91293 v 0 l 1,5.97794 v 0 l 1,6.03681 v 0 l 1,6.08949 v 0 l 1,6.13592 v 0 l 1,6.17605 v 0 l 1,6.20984 v 0 l 1,6.23727 v 0 l 1,6.25827 v 0 l 1,6.27288 v 0 l 1,6.28103 v 0 l 1,6.28274 v 0 l 1,6.278 v 0 l 1,6.26681 v 0 l 1,6.24921 v 0 l 1,6.22517 v 0 l 1,6.19476 v 0 l 1,6.15798 v 0 l 1,6.11489 v 0 l 1,6.06552 v 0 l 1,6.00992 v 0 l 1,5.94816 v 0 l 1,5.88028 v 0 l 1,5.80638 v 0 l 1,5.72652 v 0 l 1,5.64077 v 0 l 1,5.54925 v 0 l 1,5.45201 v 0 l 1,5.3492 v 0 l 1,5.24088 v 0 l 1,5.12719 v 0 l 1,5.00824 v 0 l 1,4.88415 v 0 l 1,4.75504 v 0 l 1,4.62105 v 0 l 1,4.48232 v 0 l 1,4.33899 v 0 l 1,4.19121 v 0 l 1,4.03912 v 0 l 1,3.8829 v 0 l 1,3.72267 v 0 l 1,3.55864 v 0 l 1,3.39096 v 0 l 1,3.21978 v 0 l 1,3.04531 v 0 l 1,2.86771 v 0 l 1,2.68717 v 0 l 1,2.50386 v 0 l 1,2.318 v 0 l 1,2.12975 v 0 l 1,1.93931 v 0 l 1,1.74689 v 0 l 1,1.55266 v 0 l 1,1.35686 v 0 l 1,1.15965 v 0 l 1,0.96126 v 0 l 1,0.76187 v 0 l 1,0.56171 v 0 l 1,0.36097 v 0 l 1,0.15986 v -0.0414 l 1,0.0501 v -0.0501 l 1,-0.24264 v 0 l 1,-0.44363 v 0 l 1,-0.64416 v 0 l 1,-0.84402 v 0 l 1,-1.04303 v 0 l 1,-1.24095 v 0 l 1,-1.43761 v 0 l 1,-1.63279 v 0 l 1,-1.82629 v 0 l 1,-2.01793 v 0 l 1,-2.20748 v 0 l 1,-2.39478 v 0 l 1,-2.57961 v 0 l 1,-2.7618 v 0 l 1,-2.94116 v 0 l 1,-3.11749 v 0 l 1,-3.29063 v 0 l 1,-3.46038 v 0 l 1,-3.62659 v 0 l 1,-3.78908 v 0 l 1,-3.94767 v 0 l 1,-4.10221 v 0 l 1,-4.25255 v 0 l 1,-4.39852 v 0 l 1,-4.53997 v 0 l 1,-4.67677 v 0 l 1,-4.80876 v 0 l 1,-4.93582 v 0 l 1,-5.05781 v 0 l 1,-5.17462 v 0 l 1,-5.28611 v 0 l 1,-5.39218 v 0 l 1,-5.4927 v 0 l 1,-5.58761 v 0 l 1,-5.67676 v 0 l 1,-5.76009 v 0 l 1,-5.83752 v 0 l 1,-5.90895 v 0 l 1,-5.97431 v 0 l 1,-6.03355 v 0 l 1,-6.08659 v 0 l 1,-6.13338 v 0 l 1,-6.17389 v 0 l 1,-6.20804 v 0 l 1,-6.23584 v 0 l 1,-6.25723 v 0 l 1,-6.2722 v 0 l 1,-6.28073 v 0 l 1,-6.28281 v 0 l 1,-6.27846 v 0 l 1,-6.26764 v 0 l 1,-6.25041 v 0 l 1,-6.22676 v 0 l 1,-6.1967 v 0 l 1,-6.16031 v 0 l 1,-6.11757 v 0 l 1,-6.06857 v 0 l 1,-6.01333 v 0 l 1,-5.95193 v 0 l 1,-5.88441 v 0 l 1,-5.81086 v 0 l 1,-5.73133 v 0 l 1,-5.64594 v 0 l 1,-5.55474 v 0 l 1,-5.45785 v 0 l 1,-5.35534 v 0 l 1,-5.24735 v 0 l 1,-5.13397 v 0 l 1,-5.01532 v 0 l 1,-4.89152 v 0 l 1,-4.76271 v 0 l 1,-4.62899 v 0 l 1,-4.49055 v 0 l 1,-4.34747 v 0 l 1,-4.19995 v 0 l 1,-4.04811 v 0 l 1,-3.89212 v 0 l 1,-3.73213 v 0 l 1,-3.56831 v 0 l 1,-3.40083 v 0 l 1,-3.22986 v 0 l 1,-3.05558 v 0 l 1,-2.87815 v 0 l 1,-2.69778 v 0 l 1,-2.51463 v 0 l 1,-2.32891 v 0 l 1,-2.14079 v 0 l 1,-1.95047 v 0 l 1,-1.75817 v 0 l 1,-1.56404 v 0 l 1,-1.36832 v 0 l 1,-1.17119 v 0 l 1,-0.97285 v 0 l 1,-0.77353 v 0 l 1,-0.57341 v 0 l 1,-0.37269 v 0 l 1,-0.1716 v 0.0297 l 1,-0.0422 v 0.0422 l 1,0.23091 v 0 l 1,0.43192 v 0 l 1,0.63247 v 0 l 1,0.83239 v 0 l 1,1.03144 v 0 l 1,1.22944 v 0 l 1,1.42618 v 0 l 1,1.62145 v 0 l 1,1.81505 v 0 l 1,2.0068 v 0 l 1,2.19649 v 0 l 1,2.38392 v 0 l 1,2.5689 v 0 l 1,2.75125 v 0 l 1,2.93078 v 0 l 1,3.10729 v 0 l 1,3.28061 v 0 l 1,3.45058 v 0 l 1,3.617 v 0 l 1,3.7797 v 0 l 1,3.93853 v 0 l 1,4.09331 v 0 l 1,4.2439 v 0 l 1,4.39012 v 0 l 1,4.53185 v 0 l 1,4.66892 v 0 l 1,4.80119 v 0 l 1,4.92855 v 0 l 1,5.05084 v 0 l 1,5.16795 v 0 l 1,5.27975 v 0 l 1,5.38614 v 0 l 1,5.487 v 0 l 1,5.58222 v 0 l 1,5.67172 v 0 l 1,5.7554 v 0 l 1,5.83316 v 0 l 1,5.90495 v 0 l 1,5.97067 v 0 l 1,6.03026 v 0 l 1,6.08367 v 0 l 1,6.13082 v 0 l 1,6.1717 v 0 l 1,6.20623 v 0 l 1,6.23439 v 0 l 1,6.25616 v 0 l 1,6.2715 v 0 l 1,6.28041 v 0 l 1,6.28287 v 0 l 1,6.27889 v 0 l 1,6.26845 v 0 l 1,6.25159 v 0 l 1,6.22831 v 0 l 1,6.19863 v 0 l 1,6.1626 v 0 l 1,6.12024 v 0 l 1,6.0716 v 0 l 1,6.01673 v 0 l 1,5.95567 v 0 l 1,5.88852 v 0 l 1,5.81531 v 0 l 1,5.73614 v 0 l 1,5.65108 v 0 l 1,5.56022 v 0 l 1,5.46365 v 0 l 1,5.36147 v 0 l 1,5.2538 v 0 l 1,5.14073 v 0 l 1,5.02239 v 0 l 1,4.89888 v 0 l 1,4.77035 v 0 l 1,4.63693 v 0 l 1,4.49875 v 0 l 1,4.35595 v 0 l 1,4.20867 v 0 l 1,4.05708 v 0 l 1,3.90133 v 0 l 1,3.74157 v 0 l 1,3.57797 v 0 l 1,3.4107 v 0 l 1,3.23993 v 0 l 1,3.06583 v 0 l 1,2.88858 v 0 l 1,2.70838 v 0 l 1,2.52538 v 0 l 1,2.33981 v 0 l 1,2.15183 v 0 l 1,1.96163 v 0 l 1,1.76944 v 0 l 1,1.57541 v 0 l 1,1.37978 v 0 l 1,1.18272 v 0 l 1,0.98446 v 0 l 1,0.78518 v 0 l 1,0.58509 v 0 l 1,0.38442 v 0 l 1,0.18333 v -0.0179 l 1,0.0349 v -0.0349 l 1,-0.21917 v 0 l 1,-0.4202 v 0 l 1,-0.6208 v 0 l 1,-0.82074 v 0 l 1,-1.01986 v 0 l 1,-1.21792 v 0 l 1,-1.41474 v 0 l 1,-1.6101 v 0 l 1,-1.80381 v 0 l 1,-1.99567 v 0 l 1,-2.18548 v 0 l 1,-2.37305 v 0 l 1,-2.55819 v 0 l 1,-2.74069 v 0 l 1,-2.92038 v 0 l 1,-3.09708 v 0 l 1,-3.2706 v 0 l 1,-3.44076 v 0 l 1,-3.60738 v 0 l 1,-3.77032 v 0 l 1,-3.92937 v 0 l 1,-4.0844 v 0 l 1,-4.23523 v 0 l 1,-4.38172 v 0 l 1,-4.52371 v 0 l 1,-4.66105 v 0 l 1,-4.79361 v 0 l 1,-4.92126 v 0 l 1,-5.04385 v 0 l 1,-5.16126 v 0 l 1,-5.27338 v 0 l 1,-5.38008 v 0 l 1,-5.48127 v 0 l 1,-5.57682 v 0 l 1,-5.66666 v 0 l 1,-5.75068 v 0 l 1,-5.82879 v 0 l 1,-5.90093 v 0 l 1,-5.967 v 0 l 1,-6.02695 v 0 l 1,-6.08073 v 0 l 1,-6.12824 v 0 l 1,-6.16949 v 0 l 1,-6.20439 v 0 l 1,-6.23292 v 0 l 1,-6.25506 v 0 l 1,-6.27079 v 0 l 1,-6.28007 v 0 l 1,-6.2829 v 0 l 1,-6.27929 v 0 l 1,-6.26924 v 0 l 1,-6.25275 v 0 l 1,-6.22985 v 0 l 1,-6.20054 v 0 l 1,-6.16487 v 0 l 1,-6.12289 v 0 l 1,-6.07461 v 0 l 1,-6.02009 v 0 l 1,-5.95941 v 0 l 1,-5.8926 v 0 l 1,-5.81975 v 0 l 1,-5.74092 v 0 l 1,-5.6562 v 0 l 1,-5.56567 v 0 l 1,-5.46944 v 0 l 1,-5.36759 v 0 l 1,-5.26023 v 0 l 1,-5.14747 v 0 l 1,-5.02943 v 0 l 1,-4.90623 v 0 l 1,-4.77798 v 0 l 1,-4.64485 v 0 l 1,-4.50694 v 0 l 1,-4.3644 v 0 l 1,-4.21738 v 0 l 1,-4.06604 v 0 l 1,-3.91053 v 0 l 1,-3.75099 v 0 l 1,-3.58762 v 0 l 1,-3.42055 v 0 l 1,-3.24998 v 0 l 1,-3.07608 v 0 l 1,-2.89901 v 0 l 1,-2.71896 v 0 l 1,-2.53614 v 0 l 1,-2.3507 v 0 l 1,-2.16285 v 0 l 1,-1.97279 v 0 l 1,-1.7807 v 0 l 1,-1.58677 v 0 l 1,-1.39123 v 0 l 1,-1.19426 v 0 l 1,-0.99605 v 0 l 1,-0.79683 v 0 l 1,-0.59678 v 0 l 1,-0.39614 v 0 l 1,-0.19507 v 0.006 l 1,-0.0283 v 0.0283 l 1,0.20744 v 0 l 1,0.40848 v 0 l 1,0.60911 v 0 l 1,0.8091 v 0 l 1,1.00827 v 0 l 1,1.2064 v 0 l 1,1.4033 v 0 l 1,1.59875 v 0 l 1,1.79256 v 0 l 1,1.98453 v 0 l 1,2.17447 v 0 l 1,2.36217 v 0 l 1,2.54746 v 0 l 1,2.73012 v 0 l 1,2.90998 v 0 l 1,3.08685 v 0 l 1,3.26057 v 0 l 1,3.43093 v 0 l 1,3.59777 v 0 l 1,3.76091 v 0 l 1,3.92021 v 0 l 1,4.07547 v 0 l 1,4.22655 v 0 l 1,4.37329 v 0 l 1,4.51555 v 0 l 1,4.65317 v 0 l 1,4.78602 v 0 l 1,4.91394 v 0 l 1,5.03684 v 0 l 1,5.15456 v 0 l 1,5.26699 v 0 l 1,5.37401 v 0 l 1,5.47551 v 0 l 1,5.57141 v 0 l 1,5.66158 v 0 l 1,5.74594 v 0 l 1,5.82439 v 0 l 1,5.89689 v 0 l 1,5.96331 v 0 l 1,6.02363 v 0 l 1,6.07776 v 0 l 1,6.12564 v 0 l 1,6.16726 v 0 l 1,6.20252 v 0 l 1,6.23144 v 0 l 1,6.25395 v 0 l 1,6.27004 v 0 l 1,6.2797 v 0 l 1,6.28292 v 0 l 1,6.27968 v 0 l 1,6.27001 v 0 l 1,6.25388 v 0 l 1,6.23136 v 0 l 1,6.20242 v 0 l 1,6.16713 v 0 l 1,6.12551 v 0 l 1,6.0776 v 0 l 1,6.02344 v 0 l 1,5.96312 v 0 l 1,5.89666 v 0 l 1,5.82417 v 0 l 1,5.74568 v 0 l 1,5.6613 v 0 l 1,5.57111 v 0 l 1,5.47521 v 0 l 1,5.37368 v 0 l 1,5.26664 v 0 l 1,5.1542 v 0 l 1,5.03646 v 0 l 1,4.91355 v 0 l 1,4.7856 v 0 l 1,4.65275 v 0 l 1,4.51511 v 0 l 1,4.37284 v 0 l 1,4.22608 v 0 l 1,4.07498 v 0 l 1,3.91971 v 0 l 1,3.76041 v 0 l 1,3.59725 v 0 l 1,3.4304 v 0 l 1,3.26002 v 0 l 1,3.08631 v 0 l 1,2.90942 v 0 l 1,2.72955 v 0 l 1,2.54687 v 0 l 1,2.36159 v 0 l 1,2.17387 v 0 l 1,1.98393 v 0 l 1,1.79196 v 0 l 1,1.59813 v 0 l 1,1.40268 v 0 l 1,1.20578 v 0 l 1,1.00764 v 0 l 1,0.80848 v 0 l 1,0.60847 v 0 l 1,0.40786 v 0 l 1,0.2068 v 0 l 1,0.028 v -0.0225 l 1,-0.19571 v 0 l 1,-0.39676 v 0 l 1,-0.59742 v 0 l 1,-0.79746 v 0 l 1,-0.99668 v 0 l 1,-1.19487 v 0 l 1,-1.39185 v 0 l 1,-1.58739 v 0 l 1,-1.7813 v 0 l 1,-1.97339 v 0 l 1,-2.16345 v 0 l 1,-2.35129 v 0 l 1,-2.53672 v 0 l 1,-2.71953 v 0 l 1,-2.89957 v 0 l 1,-3.07663 v 0 l 1,-3.25052 v 0 l 1,-3.42109 v 0 l 1,-3.58813 v 0 l 1,-3.75151 v 0 l 1,-3.91102 v 0 l 1,-4.06653 v 0 l 1,-4.21785 v 0 l 1,-4.36486 v 0 l 1,-4.50737 v 0 l 1,-4.64528 v 0 l 1,-4.77839 v 0 l 1,-4.90663 v 0 l 1,-5.02981 v 0 l 1,-5.14783 v 0 l 1,-5.26058 v 0 l 1,-5.36791 v 0 l 1,-5.46975 v 0 l 1,-5.56597 v 0 l 1,-5.65648 v 0 l 1,-5.74118 v 0 l 1,-5.81998 v 0 l 1,-5.89282 v 0 l 1,-5.95961 v 0 l 1,-6.02028 v 0 l 1,-6.07477 v 0 l 1,-6.12302 v 0 l 1,-6.165 v 0 l 1,-6.20065 v 0 l 1,-6.22992 v 0 l 1,-6.25281 v 0 l 1,-6.26928 v 0 l 1,-6.27932 v 0 l 1,-6.28291 v 0 l 1,-6.28005 v 0 l 1,-6.27074 v 0 l 1,-6.255 v 0 l 1,-6.23285 v 0 l 1,-6.20429 v 0 l 1,-6.16936 v 0 l 1,-6.12811 v 0 l 1,-6.08056 v 0 l 1,-6.02678 v 0 l 1,-5.9668 v 0 l 1,-5.90071 v 0 l 1,-5.82855 v 0 l 1,-5.75043 v 0 l 1,-5.66638 v 0 l 1,-5.57653 v 0 l 1,-5.48096 v 0 l 1,-5.37976 v 0 l 1,-5.27303 v 0 l 1,-5.1609 v 0 l 1,-5.04347 v 0 l 1,-4.92087 v 0 l 1,-4.7932 v 0 l 1,-4.66063 v 0 l 1,-4.52326 v 0 l 1,-4.38127 v 0 l 1,-4.23476 v 0 l 1,-4.08392 v 0 l 1,-3.92888 v 0 l 1,-3.7698 v 0 l 1,-3.60687 v 0 l 1,-3.44023 v 0 l 1,-3.27006 v 0 l 1,-3.09653 v 0 l 1,-2.91982 v 0 l 1,-2.74012 v 0 l 1,-2.5576 v 0 l 1,-2.37246 v 0 l 1,-2.18489 v 0 l 1,-1.99507 v 0 l 1,-1.80321 v 0 l 1,-1.60949 v 0 l 1,-1.41412 v 0 l 1,-1.2173 v 0 l 1,-1.01923 v 0 l 1,-0.82012 v 0 l 1,-0.62016 v 0 l 1,-0.41957 v 0 l 1,-0.21854 v 0 l 1,-0.0346 v 0.0172 l 1,0.18397 v 0 l 1,0.38505 v 0 l 1,0.58573 v 0 l 1,0.78581 v 0 l 1,0.98508 v 0 l 1,1.18335 v 0 l 1,1.38039 v 0 l 1,1.57603 v 0 l 1,1.77004 v 0 l 1,1.96223 v 0 l 1,2.15243 v 0 l 1,2.34039 v 0 l 1,2.52597 v 0 l 1,2.70895 v 0 l 1,2.88915 v 0 l 1,3.06638 v 0 l 1,3.24047 v 0 l 1,3.41123 v 0 l 1,3.57849 v 0 l 1,3.74208 v 0 l 1,3.90182 v 0 l 1,4.05757 v 0 l 1,4.20914 v 0 l 1,4.35641 v 0 l 1,4.49919 v 0 l 1,4.63735 v 0 l 1,4.77077 v 0 l 1,4.89928 v 0 l 1,5.02276 v 0 l 1,5.1411 v 0 l 1,5.25414 v 0 l 1,5.36181 v 0 l 1,5.46396 v 0 l 1,5.56052 v 0 l 1,5.65135 v 0 l 1,5.7364 v 0 l 1,5.81555 v 0 l 1,5.88874 v 0 l 1,5.95588 v 0 l 1,6.01691 v 0 l 1,6.07176 v 0 l 1,6.12038 v 0 l 1,6.16272 v 0 l 1,6.19874 v 0 l 1,6.2284 v 0 l 1,6.25165 v 0 l 1,6.26849 v 0 l 1,6.27891 v 0 l 1,6.28288 v 0 l 1,6.28039 v 0 l 1,6.27146 v 0 l 1,6.2561 v 0 l 1,6.23431 v 0 l 1,6.20613 v 0 l 1,6.17158 v 0 l 1,6.13069 v 0 l 1,6.08351 v 0 l 1,6.03008 v 0 l 1,5.97047 v 0 l 1,5.90473 v 0 l 1,5.83293 v 0 l 1,5.75514 v 0 l 1,5.67145 v 0 l 1,5.58193 v 0 l 1,5.48669 v 0 l 1,5.38581 v 0 l 1,5.27941 v 0 l 1,5.16759 v 0 l 1,5.05047 v 0 l 1,4.92815 v 0 l 1,4.80079 v 0 l 1,4.66849 v 0 l 1,4.53141 v 0 l 1,4.38967 v 0 l 1,4.24343 v 0 l 1,4.09283 v 0 l 1,3.93804 v 0 l 1,3.77919 v 0 l 1,3.61648 v 0 l 1,3.45005 v 0 l 1,3.28008 v 0 l 1,3.10674 v 0 l 1,2.93021 v 0 l 1,2.75068 v 0 l 1,2.56832 v 0 l 1,2.38334 v 0 l 1,2.19589 v 0 l 1,2.0062 v 0 l 1,1.81445 v 0 l 1,1.62084 v 0 l 1,1.42555 v 0 l 1,1.22882 v 0 l 1,1.03082 v 0 l 1,0.83176 v 0 l 1,0.63184 v 0 l 1,0.43129 v 0 l 1,0.23027 v 0 l 1,0.0418 v -0.0127 l 1,-0.17223 v 0 l 1,-0.37333 v 0 l 1,-0.57403 v 0 l 1,-0.77416 v 0 l 1,-0.97348 v 0 l 1,-1.17182 v 0 l 1,-1.36893 v 0 l 1,-1.56466 v 0 l 1,-1.75877 v 0 l 1,-1.95108 v 0 l 1,-2.14139 v 0 l 1,-2.32949 v 0 l 1,-2.51521 v 0 l 1,-2.69835 v 0 l 1,-2.87872 v 0 l 1,-3.05613 v 0 l 1,-3.2304 v 0 l 1,-3.40137 v 0 l 1,-3.56883 v 0 l 1,-3.73264 v 0 l 1,-3.89261 v 0 l 1,-4.0486 v 0 l 1,-4.20042 v 0 l 1,-4.34793 v 0 l 1,-4.49099 v 0 l 1,-4.62942 v 0 l 1,-4.76312 v 0 l 1,-4.89192 v 0 l 1,-5.0157 v 0 l 1,-5.13434 v 0 l 1,-5.2477 v 0 l 1,-5.35567 v 0 l 1,-5.45816 v 0 l 1,-5.55504 v 0 l 1,-5.64621 v 0 l 1,-5.7316 v 0 l 1,-5.8111 v 0 l 1,-5.88463 v 0 l 1,-5.95213 v 0 l 1,-6.01352 v 0 l 1,-6.06873 v 0 l 1,-6.11772 v 0 l 1,-6.16043 v 0 l 1,-6.19681 v 0 l 1,-6.22684 v 0 l 1,-6.25047 v 0 l 1,-6.26769 v 0 l 1,-6.27848 v 0 l 1,-6.28282 v 0 l 1,-6.28071 v 0 l 1,-6.27216 v 0 l 1,-6.25717 v 0 l 1,-6.23576 v 0 l 1,-6.20795 v 0 l 1,-6.17377 v 0 l 1,-6.13324 v 0 l 1,-6.08644 v 0 l 1,-6.03337 v 0 l 1,-5.97411 v 0 l 1,-5.90874 v 0 l 1,-5.83728 v 0 l 1,-5.75984 v 0 l 1,-5.67649 v 0 l 1,-5.58731 v 0 l 1,-5.4924 v 0 l 1,-5.39185 v 0 l 1,-5.28577 v 0 l 1,-5.17426 v 0 l 1,-5.05744 v 0 l 1,-4.93543 v 0 l 1,-4.80835 v 0 l 1,-4.67634 v 0 l 1,-4.53954 v 0 l 1,-4.39806 v 0 l 1,-4.25208 v 0 l 1,-4.10174 v 0 l 1,-3.94718 v 0 l 1,-3.78857 v 0 l 1,-3.62607 v 0 l 1,-3.45985 v 0 l 1,-3.29009 v 0 l 1,-3.11694 v 0 l 1,-2.9406 v 0 l 1,-2.76123 v 0 l 1,-2.57904 v 0 l 1,-2.39419 v 0 l 1,-2.20689 v 0 l 1,-2.01732 v 0 l 1,-1.82569 v 0 l 1,-1.63218 v 0 l 1,-1.43699 v 0 l 1,-1.24033 v 0 l 1,-1.0424 v 0 l 1,-0.8434 v 0 l 1,-0.64352 v 0 l 1,-0.443 v 0 l 1,-0.24201 v 0 l 1,-0.0497 v 0.009 l 1,0.16049 v 0 l 1,0.36161 v 0 l 1,0.56234 v 0 l 1,0.7625 v 0 l 1,0.96189 v 0 l 1,1.16027 v 0 l 1,1.35747 v 0 l 1,1.55329 v 0 l 1,1.74749 v 0 l 1,1.93992 v 0 l 1,2.13034 v 0 l 1,2.31859 v 0 l 1,2.50444 v 0 l 1,2.68774 v 0 l 1,2.86828 v 0 l 1,3.04586 v 0 l 1,3.22033 v 0 l 1,3.39148 v 0 l 1,3.55917 v 0 l 1,3.72318 v 0 l 1,3.8834 v 0 l 1,4.0396 v 0 l 1,4.19169 v 0 l 1,4.33945 v 0 l 1,4.48276 v 0 l 1,4.62148 v 0 l 1,4.75545 v 0 l 1,4.88455 v 0 l 1,5.00862 v 0 l 1,5.12756 v 0 l 1,5.24123 v 0 l 1,5.34953 v 0 l 1,5.45233 v 0 l 1,5.54954 v 0 l 1,5.64105 v 0 l 1,5.72678 v 0 l 1,5.80662 v 0 l 1,5.88051 v 0 l 1,5.94836 v 0 l 1,6.01011 v 0 l 1,6.06568 v 0 l 1,6.11503 v 0 l 1,6.15811 v 0 l 1,6.19487 v 0 l 1,6.22526 v 0 l 1,6.24927 v 0 l 1,6.26686 v 0 l 1,6.27803 v 0 l 1,6.28274 v 0 l 1,6.28101 v 0 l 1,6.27284 v 0 l 1,6.25822 v 0 l 1,6.23719 v 0 l 1,6.20974 v 0 l 1,6.17594 v 0 l 1,6.13578 v 0 l 1,6.08934 v 0 l 1,6.03663 v 0 l 1,5.97775 v 0 l 1,5.91271 v 0 l 1,5.84162 v 0 l 1,5.76452 v 0 l 1,5.68151 v 0 l 1,5.59268 v 0 l 1,5.49809 v 0 l 1,5.39787 v 0 l 1,5.2921 v 0 l 1,5.18091 v 0 l 1,5.0644 v 0 l 1,4.94269 v 0 l 1,4.8159 v 0 l 1,4.68418 v 0 l 1,4.54764 v 0 l 1,4.40644 v 0 l 1,4.26072 v 0 l 1,4.11062 v 0 l 1,3.95631 v 0 l 1,3.79793 v 0 l 1,3.63565 v 0 l 1,3.46965 v 0 l 1,3.30009 v 0 l 1,3.12713 v 0 l 1,2.95097 v 0 l 1,2.77177 v 0 l 1,2.58974 v 0 l 1,2.40504 v 0 l 1,2.21788 v 0 l 1,2.02845 v 0 l 1,1.83692 v 0 l 1,1.64351 v 0 l 1,1.44842 v 0 l 1,1.25184 v 0 l 1,1.05398 v 0 l 1,0.85503 v 0 l 1,0.6552 v 0 l 1,0.45471 v 0 l 1,0.25375 v 0 l 1,0.0583 v -0.006 l 1,-0.14876 v 0 l 1,-0.34988 v 0 l 1,-0.55065 v 0 l 1,-0.75084 v 0 l 1,-0.95028 v 0 l 1,-1.14873 v 0 l 1,-1.34601 v 0 l 1,-1.5419 v 0 l 1,-1.73621 v 0 l 1,-1.92875 v 0 l 1,-2.11929 v 0 l 1,-2.30767 v 0 l 1,-2.49367 v 0 l 1,-2.67713 v 0 l 1,-2.85782 v 0 l 1,-3.03559 v 0 l 1,-3.21024 v 0 l 1,-3.38159 v 0 l 1,-3.54948 v 0 l 1,-3.71373 v 0 l 1,-3.87415 v 0 l 1,-4.03061 v 0 l 1,-4.18292 v 0 l 1,-4.33095 v 0 l 1,-4.47454 v 0 l 1,-4.61351 v 0 l 1,-4.74777 v 0 l 1,-4.87715 v 0 l 1,-5.00153 v 0 l 1,-5.12076 v 0 l 1,-5.23475 v 0 l 1,-5.34336 v 0 l 1,-5.44649 v 0 l 1,-5.54402 v 0 l 1,-5.63588 v 0 l 1,-5.72193 v 0 l 1,-5.80213 v 0 l 1,-5.87636 v 0 l 1,-5.94457 v 0 l 1,-6.00668 v 0 l 1,-6.06261 v 0 l 1,-6.11232 v 0 l 1,-6.15577 v 0 l 1,-6.1929 v 0 l 1,-6.22366 v 0 l 1,-6.24805 v 0 l 1,-6.26601 v 0 l 1,-6.27755 v 0 l 1,-6.28264 v 0 l 1,-6.2813 v 0 l 1,-6.27349 v 0 l 1,-6.25925 v 0 l 1,-6.23859 v 0 l 1,-6.21152 v 0 l 1,-6.17808 v 0 l 1,-6.1383 v 0 l 1,-6.09222 v 0 l 1,-6.03988 v 0 l 1,-5.98135 v 0 l 1,-5.91667 v 0 l 1,-5.84593 v 0 l 1,-5.76918 v 0 l 1,-5.68652 v 0 l 1,-5.59801 v 0 l 1,-5.50377 v 0 l 1,-5.40387 v 0 l 1,-5.29842 v 0 l 1,-5.18754 v 0 l 1,-5.07134 v 0 l 1,-4.94993 v 0 l 1,-4.82344 v 0 l 1,-4.69199 v 0 l 1,-4.55574 v 0 l 1,-4.4148 v 0 l 1,-4.26934 v 0 l 1,-4.1195 v 0 l 1,-3.96542 v 0 l 1,-3.80728 v 0 l 1,-3.64522 v 0 l 1,-3.47944 v 0 l 1,-3.31007 v 0 l 1,-3.13731 v 0 l 1,-2.96132 v 0 l 1,-2.78231 v 0 l 1,-2.60043 v 0 l 1,-2.41589 v 0 l 1,-2.22886 v 0 l 1,-2.03956 v 0 l 1,-1.84814 v 0 l 1,-1.65485 v 0 l 1,-1.45984 v 0 l 1,-1.26334 v 0 l 1,-1.06555 v 0 l 1,-0.86666 v 0 l 1,-0.66689 v 0 l 1,-0.46642 v 0 l 1,-0.26547 v 0 l 1,-0.0676 v 0.003 l 1,0.13702 v 0 l 1,0.33816 v 0 l 1,0.53895 v 0 l 1,0.73918 v 0 l 1,0.93867 v 0 l 1,1.13719 v 0 l 1,1.33453 v 0 l 1,1.53052 v 0 l 1,1.72493 v 0 l 1,1.91756 v 0 l 1,2.10824 v 0 l 1,2.29674 v 0 l 1,2.48289 v 0 l 1,2.6665 v 0 l 1,2.84736 v 0 l 1,3.0253 v 0 l 1,3.20014 v 0 l 1,3.37169 v 0 l 1,3.53979 v 0 l 1,3.70424 v 0 l 1,3.86491 v 0 l 1,4.02159 v 0 l 1,4.17416 v 0 l 1,4.32243 v 0 l 1,4.46628 v 0 l 1,4.60554 v 0 l 1,4.74007 v 0 l 1,4.86974 v 0 l 1,4.99441 v 0 l 1,5.11395 v 0 l 1,5.22825 v 0 l 1,5.33717 v 0 l 1,5.44063 v 0 l 1,5.53849 v 0 l 1,5.63067 v 0 l 1,5.71708 v 0 l 1,5.79761 v 0 l 1,5.8722 v 0 l 1,5.94076 v 0 l 1,6.00322 v 0 l 1,6.05951 v 0 l 1,6.1096 v 0 l 1,6.15341 v 0 l 1,6.1909 v 0 l 1,6.22205 v 0 l 1,6.2468 v 0 l 1,6.26514 v 0 l 1,6.27705 v 0 l 1,6.28253 v 0 l 1,6.28154 v 0 l 1,6.27413 v 0 l 1,6.26026 v 0 l 1,6.23997 v 0 l 1,6.21327 v 0 l 1,6.18021 v 0 l 1,6.14079 v 0 l 1,6.09508 v 0 l 1,6.04311 v 0 l 1,5.98493 v 0 l 1,5.92061 v 0 l 1,5.85022 v 0 l 1,5.77383 v 0 l 1,5.6915 v 0 l 1,5.60333 v 0 l 1,5.50942 v 0 l 1,5.40985 v 0 l 1,5.30473 v 0 l 1,5.19415 v 0 l 1,5.07826 v 0 l 1,4.95715 v 0 l 1,4.83096 v 0 l 1,4.69979 v 0 l 1,4.56382 v 0 l 1,4.42315 v 0 l 1,4.27795 v 0 l 1,4.12835 v 0 l 1,3.97452 v 0 l 1,3.81661 v 0 l 1,3.65479 v 0 l 1,3.4892 v 0 l 1,3.32005 v 0 l 1,3.14747 v 0 l 1,2.97168 v 0 l 1,2.79283 v 0 l 1,2.61112 v 0 l 1,2.42672 v 0 l 1,2.23984 v 0 l 1,2.05066 v 0 l 1,1.85936 v 0 l 1,1.66617 v 0 l 1,1.47126 v 0 l 1,1.27485 v 0 l 1,1.07712 v 0 l 1,0.87828 v 0 l 1,0.67856 v 0 l 1,0.47813 v 0 l 1,0.27721 v 0 l 1,0.0775 v -0.002 l 1,-0.12528 v 0 l 1,-0.32643 v 0 l 1,-0.52725 v 0 l 1,-0.72752 v 0 l 1,-0.92706 v 0 l 1,-1.12563 v 0 l 1,-1.32306 v 0 l 1,-1.51913 v 0 l 1,-1.71363 v 0 l 1,-1.90638 v 0 l 1,-2.09717 v 0 l 1,-2.28581 v 0 l 1,-2.4721 v 0 l 1,-2.65586 v 0 l 1,-2.83689 v 0 l 1,-3.015 v 0 l 1,-3.19003 v 0 l 1,-3.36178 v 0 l 1,-3.53008 v 0 l 1,-3.69476 v 0 l 1,-3.85563 v 0 l 1,-4.01257 v 0 l 1,-4.16537 v 0 l 1,-4.31391 v 0 l 1,-4.45802 v 0 l 1,-4.59754 v 0 l 1,-4.73236 v 0 l 1,-4.86231 v 0 l 1,-4.98727 v 0 l 1,-5.10712 v 0 l 1,-5.22173 v 0 l 1,-5.33097 v 0 l 1,-5.43474 v 0 l 1,-5.53294 v 0 l 1,-5.62545 v 0 l 1,-5.7122 v 0 l 1,-5.79308 v 0 l 1,-5.86801 v 0 l 1,-5.93692 v 0 l 1,-5.99975 v 0 l 1,-6.0564 v 0 l 1,-6.10685 v 0 l 1,-6.15102 v 0 l 1,-6.18889 v 0 l 1,-6.22041 v 0 l 1,-6.24553 v 0 l 1,-6.26425 v 0 l 1,-6.27653 v 0 l 1,-6.28239 v 0 l 1,-6.28178 v 0 l 1,-6.27473 v 0 l 1,-6.26124 v 0 l 1,-6.24133 v 0 l 1,-6.21501 v 0 l 1,-6.18231 v 0 l 1,-6.14327 v 0 l 1,-6.09792 v 0 l 1,-6.0463 v 0 l 1,-5.9885 v 0 l 1,-5.92453 v 0 l 1,-5.85449 v 0 l 1,-5.77845 v 0 l 1,-5.69646 v 0 l 1,-5.60864 v 0 l 1,-5.51505 v 0 l 1,-5.41581 v 0 l 1,-5.31101 v 0 l 1,-5.20076 v 0 l 1,-5.08516 v 0 l 1,-4.96436 v 0 l 1,-4.83845 v 0 l 1,-4.70758 v 0 l 1,-4.57188 v 0 l 1,-4.43148 v 0 l 1,-4.28654 v 0 l 1,-4.1372 v 0 l 1,-3.98361 v 0 l 1,-3.82593 v 0 l 1,-3.66433 v 0 l 1,-3.49896 v 0 l 1,-3.33001 v 0 l 1,-3.15763"
     stroke-opacity="0.698039"
     stroke-linecap="round"
     stroke-linejoin="round"
     stroke-miterlimit="10"
     stroke-width="2.5"
     id="path36"
     clip-path="url(#clipPath39)"
     style="stroke:#03a9f4;stroke-opacity:1;stroke-width:3.7;stroke-dasharray:none" />
  <path
     fill="none"
     stroke="#cc0000"
     paint-order="fill stroke markers"
     d="m 1,523.50031 v 6.23927 0 l 1,6.21239 v 0 l 1,6.17913 v 0 l 1,6.13953 v 0 l 1,6.09362 v 0 l 1,6.04148 v 0 l 1,5.98311 v 0 l 1,5.91862 v 0 l 1,5.84804 v 0 l 1,5.77148 v 0 l 1,5.68897 v 0 l 1,5.60064 v 0 l 1,5.50655 v 0 l 1,5.40682 v 0 l 1,5.30153 v 0 l 1,5.1908 v 0 l 1,5.07475 v 0 l 1,4.95349 v 0 l 1,4.82714 v 0 l 1,4.69583 v 0 l 1,4.55972 v 0 l 1,4.41892 v 0 l 1,4.27358 v 0 l 1,4.12386 v 0 l 1,3.96991 v 0 l 1,3.81187 v 0 l 1,3.64994 v 0 l 1,3.48425 v 0 l 1,3.31498 v 0 l 1,3.14232 v 0 l 1,2.96642 v 0 l 1,2.7875 v 0 l 1,2.60569 v 0 l 1,2.42123 v 0 l 1,2.23427 v 0 l 1,2.04502 v 0 l 1,1.85367 v 0 l 1,1.66042 v 0 l 1,1.46547 v 0 l 1,1.26901 v 0 l 1,1.07125 v 0 l 1,0.87238 v 0 l 1,0.67264 v 0 l 1,0.47218 v 0 l 1,0.27126 v 0 l 1,0.0724 v -0.002 l 1,-0.13123 v 0 l 1,-0.33238 v 0 l 1,-0.53319 v 0 l 1,-0.73344 v 0 l 1,-0.93295 v 0 l 1,-1.1315 v 0 l 1,-1.32889 v 0 l 1,-1.5249 v 0 l 1,-1.71937 v 0 l 1,-1.91205 v 0 l 1,-2.10279 v 0 l 1,-2.29136 v 0 l 1,-2.47758 v 0 l 1,-2.66126 v 0 l 1,-2.8422 v 0 l 1,-3.02023 v 0 l 1,-3.19516 v 0 l 1,-3.36682 v 0 l 1,-3.535 v 0 l 1,-3.69958 v 0 l 1,-3.86034 v 0 l 1,-4.01715 v 0 l 1,-4.16983 v 0 l 1,-4.31824 v 0 l 1,-4.46221 v 0 l 1,-4.6016 v 0 l 1,-4.73628 v 0 l 1,-4.86608 v 0 l 1,-4.99089 v 0 l 1,-5.11059 v 0 l 1,-5.22504 v 0 l 1,-5.33412 v 0 l 1,-5.43773 v 0 l 1,-5.53576 v 0 l 1,-5.6281 v 0 l 1,-5.71468 v 0 l 1,-5.79538 v 0 l 1,-5.87014 v 0 l 1,-5.93887 v 0 l 1,-6.00151 v 0 l 1,-6.05799 v 0 l 1,-6.10825 v 0 l 1,-6.15224 v 0 l 1,-6.18991 v 0 l 1,-6.22124 v 0 l 1,-6.24617 v 0 l 1,-6.26471 v 0 l 1,-6.2768 v 0 l 1,-6.28246 v 0 l 1,-6.28166 v 0 l 1,-6.27443 v 0 l 1,-6.26075 v 0 l 1,-6.24064 v 0 l 1,-6.21413 v 0 l 1,-6.18125 v 0 l 1,-6.14201 v 0 l 1,-6.09648 v 0 l 1,-6.04468 v 0 l 1,-5.98669 v 0 l 1,-5.92255 v 0 l 1,-5.85233 v 0 l 1,-5.7761 v 0 l 1,-5.69395 v 0 l 1,-5.60595 v 0 l 1,-5.51219 v 0 l 1,-5.41279 v 0 l 1,-5.30782 v 0 l 1,-5.19741 v 0 l 1,-5.08167 v 0 l 1,-4.9607 v 0 l 1,-4.83465 v 0 l 1,-4.70363 v 0 l 1,-4.56779 v 0 l 1,-4.42725 v 0 l 1,-4.28218 v 0 l 1,-4.13272 v 0 l 1,-3.97899 v 0 l 1,-3.82121 v 0 l 1,-3.65948 v 0 l 1,-3.49402 v 0 l 1,-3.32495 v 0 l 1,-3.15248 v 0 l 1,-2.97677 v 0 l 1,-2.79801 v 0 l 1,-2.61638 v 0 l 1,-2.43205 v 0 l 1,-2.24524 v 0 l 1,-2.05612 v 0 l 1,-1.86489 v 0 l 1,-1.67175 v 0 l 1,-1.47688 v 0 l 1,-1.28051 v 0 l 1,-1.08281 v 0 l 1,-0.88402 v 0 l 1,-0.6843 v 0 l 1,-0.4839 v 0 l 1,-0.28298 v 0 l 1,-0.0827 v 8.8e-4 l 1,0.11949 v 0 l 1,0.32066 v 0 l 1,0.52149 v 0 l 1,0.72178 v 0 l 1,0.92133 v 0 l 1,1.11995 v 0 l 1,1.31741 v 0 l 1,1.51351 v 0 l 1,1.70807 v 0 l 1,1.90086 v 0 l 1,2.09172 v 0 l 1,2.28042 v 0 l 1,2.46679 v 0 l 1,2.65062 v 0 l 1,2.83172 v 0 l 1,3.00993 v 0 l 1,3.18505 v 0 l 1,3.35689 v 0 l 1,3.52529 v 0 l 1,3.69008 v 0 l 1,3.85107 v 0 l 1,4.00811 v 0 l 1,4.16105 v 0 l 1,4.3097 v 0 l 1,4.45394 v 0 l 1,4.5936 v 0 l 1,4.72855 v 0 l 1,4.85864 v 0 l 1,4.98376 v 0 l 1,5.10375 v 0 l 1,5.2185 v 0 l 1,5.32791 v 0 l 1,5.43184 v 0 l 1,5.53019 v 0 l 1,5.62288 v 0 l 1,5.70979 v 0 l 1,5.79083 v 0 l 1,5.86595 v 0 l 1,5.93503 v 0 l 1,5.99802 v 0 l 1,6.05486 v 0 l 1,6.10549 v 0 l 1,6.14984 v 0 l 1,6.1879 v 0 l 1,6.21958 v 0 l 1,6.2449 v 0 l 1,6.2638 v 0 l 1,6.27627 v 0 l 1,6.28231 v 0 l 1,6.28189 v 0 l 1,6.27502 v 0 l 1,6.26172 v 0 l 1,6.242 v 0 l 1,6.21585 v 0 l 1,6.18334 v 0 l 1,6.14447 v 0 l 1,6.09931 v 0 l 1,6.04788 v 0 l 1,5.99024 v 0 l 1,5.92645 v 0 l 1,5.85659 v 0 l 1,5.78072 v 0 l 1,5.6989 v 0 l 1,5.61124 v 0 l 1,5.51782 v 0 l 1,5.41874 v 0 l 1,5.3141 v 0 l 1,5.204 v 0 l 1,5.08855 v 0 l 1,4.9679 v 0 l 1,4.84214 v 0 l 1,4.71141 v 0 l 1,4.57584 v 0 l 1,4.43558 v 0 l 1,4.29077 v 0 l 1,4.14155 v 0 l 1,3.98808 v 0 l 1,3.83051 v 0 l 1,3.66903 v 0 l 1,3.50376 v 0 l 1,3.33491 v 0 l 1,3.16264 v 0 l 1,2.98711 v 0 l 1,2.80851 v 0 l 1,2.62705 v 0 l 1,2.44288 v 0 l 1,2.2562 v 0 l 1,2.06721 v 0 l 1,1.8761 v 0 l 1,1.68306 v 0 l 1,1.48829 v 0 l 1,1.292 v 0 l 1,1.09439 v 0 l 1,0.89563 v 0 l 1,0.69598 v 0 l 1,0.4956 v 0 l 1,0.29472 v 0 l 1,0.0937 v -1.3e-4 l 1,-0.10775 v 0 l 1,-0.30893 v 0 l 1,-0.50978 v 0 l 1,-0.71012 v 0 l 1,-0.90972 v 0 l 1,-1.10839 v 0 l 1,-1.30592 v 0 l 1,-1.50211 v 0 l 1,-1.69677 v 0 l 1,-1.88967 v 0 l 1,-2.08065 v 0 l 1,-2.26947 v 0 l 1,-2.45598 v 0 l 1,-2.63997 v 0 l 1,-2.82124 v 0 l 1,-2.99962 v 0 l 1,-3.17492 v 0 l 1,-3.34696 v 0 l 1,-3.51556 v 0 l 1,-3.68057 v 0 l 1,-3.84179 v 0 l 1,-3.99906 v 0 l 1,-4.15224 v 0 l 1,-4.30115 v 0 l 1,-4.44565 v 0 l 1,-4.58558 v 0 l 1,-4.72081 v 0 l 1,-4.85119 v 0 l 1,-4.9766 v 0 l 1,-5.09689 v 0 l 1,-5.21196 v 0 l 1,-5.32167 v 0 l 1,-5.42593 v 0 l 1,-5.52461 v 0 l 1,-5.61763 v 0 l 1,-5.70488 v 0 l 1,-5.78627 v 0 l 1,-5.86172 v 0 l 1,-5.93117 v 0 l 1,-5.99452 v 0 l 1,-6.05172 v 0 l 1,-6.1027 v 0 l 1,-6.14743 v 0 l 1,-6.18585 v 0 l 1,-6.21791 v 0 l 1,-6.2436 v 0 l 1,-6.26287 v 0 l 1,-6.27572 v 0 l 1,-6.28213 v 0 l 1,-6.28209 v 0 l 1,-6.27561 v 0 l 1,-6.26267 v 0 l 1,-6.24332 v 0 l 1,-6.21755 v 0 l 1,-6.18541 v 0 l 1,-6.14692 v 0 l 1,-6.10211 v 0 l 1,-6.05105 v 0 l 1,-5.99377 v 0 l 1,-5.93035 v 0 l 1,-5.86083 v 0 l 1,-5.7853 v 0 l 1,-5.70384 v 0 l 1,-5.61651 v 0 l 1,-5.52343 v 0 l 1,-5.42467 v 0 l 1,-5.32035 v 0 l 1,-5.21057 v 0 l 1,-5.09544 v 0 l 1,-4.97508 v 0 l 1,-4.84961 v 0 l 1,-4.71917 v 0 l 1,-4.58388 v 0 l 1,-4.44389 v 0 l 1,-4.29934 v 0 l 1,-4.15037 v 0 l 1,-3.99714 v 0 l 1,-3.83982 v 0 l 1,-3.67855 v 0 l 1,-3.51351 v 0 l 1,-3.34485 v 0 l 1,-3.17277 v 0 l 1,-2.99744 v 0 l 1,-2.81901 v 0 l 1,-2.63771 v 0 l 1,-2.4537 v 0 l 1,-2.26715 v 0 l 1,-2.0783 v 0 l 1,-1.8873 v 0 l 1,-1.69437 v 0 l 1,-1.4997 v 0 l 1,-1.30349 v 0 l 1,-1.10594 v 0 l 1,-0.90726 v 0 l 1,-0.70764 v 0 l 1,-0.50731 v 0 l 1,-0.30644 v 0 l 1,-0.10527 v 0.096 l 1,-0.0961 v 0.0961 l 1,0.2972 v 0 l 1,0.49808 v 0 l 1,0.69845 v 0 l 1,0.8981 v 0 l 1,1.09683 v 0 l 1,1.29444 v 0 l 1,1.49071 v 0 l 1,1.68545 v 0 l 1,1.87847 v 0 l 1,2.06956 v 0 l 1,2.25853 v 0 l 1,2.44517 v 0 l 1,2.6293 v 0 l 1,2.81074 v 0 l 1,2.9893 v 0 l 1,3.16478 v 0 l 1,3.33702 v 0 l 1,3.50583 v 0 l 1,3.67104 v 0 l 1,3.83249 v 0 l 1,3.99 v 0 l 1,4.14342 v 0 l 1,4.29258 v 0 l 1,4.43734 v 0 l 1,4.57755 v 0 l 1,4.71305 v 0 l 1,4.84373 v 0 l 1,4.96942 v 0 l 1,5.09001 v 0 l 1,5.2054 v 0 l 1,5.31542 v 0 l 1,5.42 v 0 l 1,5.51901 v 0 l 1,5.61236 v 0 l 1,5.69995 v 0 l 1,5.78168 v 0 l 1,5.85749 v 0 l 1,5.92728 v 0 l 1,5.99099 v 0 l 1,6.04855 v 0 l 1,6.09991 v 0 l 1,6.14499 v 0 l 1,6.18378 v 0 l 1,6.21622 v 0 l 1,6.24227 v 0 l 1,6.26193 v 0 l 1,6.27515 v 0 l 1,6.28193 v 0 l 1,6.28227 v 0 l 1,6.27616 v 0 l 1,6.2636 v 0 l 1,6.24463 v 0 l 1,6.21923 v 0 l 1,6.18746 v 0 l 1,6.14933 v 0 l 1,6.1049 v 0 l 1,6.0542 v 0 l 1,5.99729 v 0 l 1,5.93421 v 0 l 1,5.86505 v 0 l 1,5.78987 v 0 l 1,5.70875 v 0 l 1,5.62177 v 0 l 1,5.52901 v 0 l 1,5.43059 v 0 l 1,5.32659 v 0 l 1,5.21712 v 0 l 1,5.1023 v 0 l 1,4.98224 v 0 l 1,4.85707 v 0 l 1,4.72691 v 0 l 1,4.5919 v 0 l 1,4.45218 v 0 l 1,4.3079 v 0 l 1,4.15917 v 0 l 1,4.0062 v 0 l 1,3.84911 v 0 l 1,3.68806 v 0 l 1,3.52324 v 0 l 1,3.35478 v 0 l 1,3.18291 v 0 l 1,3.00774 v 0 l 1,2.82951 v 0 l 1,2.64836 v 0 l 1,2.4645 v 0 l 1,2.2781 v 0 l 1,2.08938 v 0 l 1,1.89849 v 0 l 1,1.70568 v 0 l 1,1.5111 v 0 l 1,1.31497 v 0 l 1,1.1175 v 0 l 1,0.91887 v 0 l 1,0.71932 v 0 l 1,0.519 v 0 l 1,0.31818 v 0 l 1,0.117 v -0.0843 l 1,0.0849 v -0.0849 l 1,-0.28547 v 0 l 1,-0.48637 v 0 l 1,-0.68678 v 0 l 1,-0.88648 v 0 l 1,-1.08526 v 0 l 1,-1.28295 v 0 l 1,-1.4793 v 0 l 1,-1.67414 v 0 l 1,-1.86726 v 0 l 1,-2.05847 v 0 l 1,-2.24756 v 0 l 1,-2.43435 v 0 l 1,-2.61864 v 0 l 1,-2.80024 v 0 l 1,-2.97896 v 0 l 1,-3.15463 v 0 l 1,-3.32706 v 0 l 1,-3.49608 v 0 l 1,-3.66151 v 0 l 1,-3.82318 v 0 l 1,-3.98092 v 0 l 1,-4.13458 v 0 l 1,-4.28401 v 0 l 1,-4.42902 v 0 l 1,-4.56949 v 0 l 1,-4.70528 v 0 l 1,-4.83624 v 0 l 1,-4.96223 v 0 l 1,-5.08312 v 0 l 1,-5.19881 v 0 l 1,-5.30915 v 0 l 1,-5.41405 v 0 l 1,-5.51339 v 0 l 1,-5.60707 v 0 l 1,-5.695 v 0 l 1,-5.77708 v 0 l 1,-5.85323 v 0 l 1,-5.92338 v 0 l 1,-5.98744 v 0 l 1,-6.04537 v 0 l 1,-6.09707 v 0 l 1,-6.14254 v 0 l 1,-6.18169 v 0 l 1,-6.2145 v 0 l 1,-6.24093 v 0 l 1,-6.26096 v 0 l 1,-6.27455 v 0 l 1,-6.28172 v 0 l 1,-6.28242 v 0 l 1,-6.27669 v 0 l 1,-6.26452 v 0 l 1,-6.24591 v 0 l 1,-6.22089 v 0 l 1,-6.18948 v 0 l 1,-6.15174 v 0 l 1,-6.10766 v 0 l 1,-6.05733 v 0 l 1,-6.00077 v 0 l 1,-5.93806 v 0 l 1,-5.86925 v 0 l 1,-5.79442 v 0 l 1,-5.71365 v 0 l 1,-5.627 v 0 l 1,-5.53458 v 0 l 1,-5.43648 v 0 l 1,-5.33281 v 0 l 1,-5.22365 v 0 l 1,-5.10915 v 0 l 1,-4.98938 v 0 l 1,-4.86451 v 0 l 1,-4.73464 v 0 l 1,-4.59991 v 0 l 1,-4.46046 v 0 l 1,-4.31643 v 0 l 1,-4.16797 v 0 l 1,-4.01524 v 0 l 1,-3.85838 v 0 l 1,-3.69756 v 0 l 1,-3.53295 v 0 l 1,-3.36471 v 0 l 1,-3.19302 v 0 l 1,-3.01805 v 0 l 1,-2.83999 v 0 l 1,-2.659 v 0 l 1,-2.4753 v 0 l 1,-2.28904 v 0 l 1,-2.10044 v 0 l 1,-1.90969 v 0 l 1,-1.71697 v 0 l 1,-1.5225 v 0 l 1,-1.32645 v 0 l 1,-1.12905 v 0 l 1,-0.93049 v 0 l 1,-0.73098 v 0 l 1,-0.5307 v 0 l 1,-0.3299 v 0 l 1,-0.12875 v 0.0725 l 1,-0.0745 v 0.0745 l 1,0.27374 v 0 l 1,0.47467 v 0 l 1,0.6751 v 0 l 1,0.87485 v 0 l 1,1.0737 v 0 l 1,1.27145 v 0 l 1,1.46788 v 0 l 1,1.66282 v 0 l 1,1.85605 v 0 l 1,2.04737 v 0 l 1,2.2366 v 0 l 1,2.42352 v 0 l 1,2.60796 v 0 l 1,2.78972 v 0 l 1,2.96862 v 0 l 1,3.14447 v 0 l 1,3.31709 v 0 l 1,3.48632 v 0 l 1,3.65196 v 0 l 1,3.81385 v 0 l 1,3.97184 v 0 l 1,4.12573 v 0 l 1,4.27541 v 0 l 1,4.42068 v 0 l 1,4.56143 v 0 l 1,4.69749 v 0 l 1,4.82873 v 0 l 1,4.95502 v 0 l 1,5.07621 v 0 l 1,5.19221 v 0 l 1,5.30286 v 0 l 1,5.40808 v 0 l 1,5.50775 v 0 l 1,5.60177 v 0 l 1,5.69003 v 0 l 1,5.77245 v 0 l 1,5.84895 v 0 l 1,5.91946 v 0 l 1,5.98387 v 0 l 1,6.04215 v 0 l 1,6.09424 v 0 l 1,6.14006 v 0 l 1,6.17958 v 0 l 1,6.21276 v 0 l 1,6.23956 v 0 l 1,6.25996 v 0 l 1,6.27394 v 0 l 1,6.28148 v 0 l 1,6.28256 v 0 l 1,6.2772 v 0 l 1,6.2654 v 0 l 1,6.24717 v 0 l 1,6.22253 v 0 l 1,6.19149 v 0 l 1,6.15411 v 0 l 1,6.11041 v 0 l 1,6.06043 v 0 l 1,6.00425 v 0 l 1,5.94188 v 0 l 1,5.87343 v 0 l 1,5.79895 v 0 l 1,5.71852 v 0 l 1,5.63221 v 0 l 1,5.54013 v 0 l 1,5.44236 v 0 l 1,5.33901 v 0 l 1,5.23017 v 0 l 1,5.11597 v 0 l 1,4.99651 v 0 l 1,4.87193 v 0 l 1,4.74235 v 0 l 1,4.6079 v 0 l 1,4.46872 v 0 l 1,4.32496 v 0 l 1,4.17675 v 0 l 1,4.02426 v 0 l 1,3.86764 v 0 l 1,3.70705 v 0 l 1,3.54265 v 0 l 1,3.37463 v 0 l 1,3.20312 v 0 l 1,3.02835 v 0 l 1,2.85045 v 0 l 1,2.66964 v 0 l 1,2.48608 v 0 l 1,2.29998 v 0 l 1,2.1115 v 0 l 1,1.92087 v 0 l 1,1.72827 v 0 l 1,1.53388 v 0 l 1,1.33793 v 0 l 1,1.1406 v 0 l 1,0.9421 v 0 l 1,0.74264 v 0 l 1,0.5424 v 0 l 1,0.34163 v 0 l 1,0.14048 v -0.0608 l 1,0.0647 v -0.0647 l 1,-0.26201 v 0 l 1,-0.46295 v 0 l 1,-0.66343 v 0 l 1,-0.86322 v 0 l 1,-1.06213 v 0 l 1,-1.25994 v 0 l 1,-1.45647 v 0 l 1,-1.6515 v 0 l 1,-1.84482 v 0 l 1,-2.03627 v 0 l 1,-2.22562 v 0 l 1,-2.41268 v 0 l 1,-2.59727 v 0 l 1,-2.77919 v 0 l 1,-2.95827 v 0 l 1,-3.1343 v 0 l 1,-3.30712 v 0 l 1,-3.47654 v 0 l 1,-3.6424 v 0 l 1,-3.80451 v 0 l 1,-3.96273 v 0 l 1,-4.11687 v 0 l 1,-4.2668 v 0 l 1,-4.41233 v 0 l 1,-4.55335 v 0 l 1,-4.68968 v 0 l 1,-4.82121 v 0 l 1,-4.94779 v 0 l 1,-5.06929 v 0 l 1,-5.18558 v 0 l 1,-5.29656 v 0 l 1,-5.4021 v 0 l 1,-5.50209 v 0 l 1,-5.59643 v 0 l 1,-5.68504 v 0 l 1,-5.76781 v 0 l 1,-5.84466 v 0 l 1,-5.9155 v 0 l 1,-5.98028 v 0 l 1,-6.03893 v 0 l 1,-6.09137 v 0 l 1,-6.13755 v 0 l 1,-6.17745 v 0 l 1,-6.211 v 0 l 1,-6.23818 v 0 l 1,-6.25895 v 0 l 1,-6.2733 v 0 l 1,-6.28121 v 0 l 1,-6.28268 v 0 l 1,-6.27769 v 0 l 1,-6.26626 v 0 l 1,-6.24841 v 0 l 1,-6.22414 v 0 l 1,-6.19348 v 0 l 1,-6.15647 v 0 l 1,-6.11312 v 0 l 1,-6.06353 v 0 l 1,-6.00768 v 0 l 1,-5.9457 v 0 l 1,-5.87759 v 0 l 1,-5.80346 v 0 l 1,-5.72337 v 0 l 1,-5.63741 v 0 l 1,-5.54565 v 0 l 1,-5.44822 v 0 l 1,-5.34519 v 0 l 1,-5.23667 v 0 l 1,-5.12277 v 0 l 1,-5.00362 v 0 l 1,-4.87934 v 0 l 1,-4.75004 v 0 l 1,-4.61588 v 0 l 1,-4.47697 v 0 l 1,-4.33346 v 0 l 1,-4.18552 v 0 l 1,-4.03327 v 0 l 1,-3.87688 v 0 l 1,-3.71653 v 0 l 1,-3.55234 v 0 l 1,-3.38452 v 0 l 1,-3.21323 v 0 l 1,-3.03862 v 0 l 1,-2.86092 v 0 l 1,-2.68026 v 0 l 1,-2.49686 v 0 l 1,-2.3109 v 0 l 1,-2.12256 v 0 l 1,-1.93205 v 0 l 1,-1.73955 v 0 l 1,-1.54527 v 0 l 1,-1.34939 v 0 l 1,-1.15215 v 0 l 1,-0.95371 v 0 l 1,-0.75429 v 0 l 1,-0.55411 v 0 l 1,-0.35334 v 0 l 1,-0.15223 v 0.049 l 1,-0.0557 v 0.0557 l 1,0.25028 v 0 l 1,0.45124 v 0 l 1,0.65175 v 0 l 1,0.85159 v 0 l 1,1.05056 v 0 l 1,1.24843 v 0 l 1,1.44504 v 0 l 1,1.64017 v 0 l 1,1.8336 v 0 l 1,2.02515 v 0 l 1,2.21463 v 0 l 1,2.40184 v 0 l 1,2.58658 v 0 l 1,2.76865 v 0 l 1,2.94791 v 0 l 1,3.12411 v 0 l 1,3.29713 v 0 l 1,3.46676 v 0 l 1,3.63282 v 0 l 1,3.79517 v 0 l 1,3.9536 v 0 l 1,4.108 v 0 l 1,4.25817 v 0 l 1,4.40396 v 0 l 1,4.54525 v 0 l 1,4.68186 v 0 l 1,4.81368 v 0 l 1,4.94054 v 0 l 1,5.06234 v 0 l 1,5.17894 v 0 l 1,5.29024 v 0 l 1,5.39609 v 0 l 1,5.49641 v 0 l 1,5.59109 v 0 l 1,5.68003 v 0 l 1,5.76314 v 0 l 1,5.84034 v 0 l 1,5.91154 v 0 l 1,5.97667 v 0 l 1,6.03567 v 0 l 1,6.08848 v 0 l 1,6.13504 v 0 l 1,6.17529 v 0 l 1,6.20922 v 0 l 1,6.23677 v 0 l 1,6.25791 v 0 l 1,6.27264 v 0 l 1,6.28093 v 0 l 1,6.28277 v 0 l 1,6.27816 v 0 l 1,6.26711 v 0 l 1,6.24962 v 0 l 1,6.22573 v 0 l 1,6.19545 v 0 l 1,6.15879 v 0 l 1,6.11583 v 0 l 1,6.06659 v 0 l 1,6.01112 v 0 l 1,5.94947 v 0 l 1,5.88173 v 0 l 1,5.80795 v 0 l 1,5.72821 v 0 l 1,5.64258 v 0 l 1,5.55117 v 0 l 1,5.45405 v 0 l 1,5.35135 v 0 l 1,5.24315 v 0 l 1,5.12956 v 0 l 1,5.01072 v 0 l 1,4.88672 v 0 l 1,4.75772 v 0 l 1,4.62383 v 0 l 1,4.4852 v 0 l 1,4.34196 v 0 l 1,4.19427 v 0 l 1,4.04227 v 0 l 1,3.88612 v 0 l 1,3.72598 v 0 l 1,3.56202 v 0 l 1,3.39441 v 0 l 1,3.22331 v 0 l 1,3.0489 v 0 l 1,2.87136 v 0 l 1,2.69088 v 0 l 1,2.50763 v 0 l 1,2.32181 v 0 l 1,2.13361 v 0 l 1,1.94322 v 0 l 1,1.75083 v 0 l 1,1.55665 v 0 l 1,1.36086 v 0 l 1,1.16369 v 0 l 1,0.96531 v 0 l 1,0.76595 v 0 l 1,0.5658 v 0 l 1,0.36507 v 0 l 1,0.16396 v -0.0373 l 1,0.0473 v -0.0473 l 1,-0.23855 v 0 l 1,-0.43953 v 0 l 1,-0.64007 v 0 l 1,-0.83996 v 0 l 1,-1.03897 v 0 l 1,-1.23693 v 0 l 1,-1.43361 v 0 l 1,-1.62883 v 0 l 1,-1.82236 v 0 l 1,-2.01404 v 0 l 1,-2.20364 v 0 l 1,-2.39098 v 0 l 1,-2.57587 v 0 l 1,-2.75811 v 0 l 1,-2.93753 v 0 l 1,-3.11392 v 0 l 1,-3.28713 v 0 l 1,-3.45696 v 0 l 1,-3.62324 v 0 l 1,-3.7858 v 0 l 1,-3.94447 v 0 l 1,-4.09911 v 0 l 1,-4.24952 v 0 l 1,-4.39558 v 0 l 1,-4.53714 v 0 l 1,-4.67402 v 0 l 1,-4.80612 v 0 l 1,-4.93328 v 0 l 1,-5.05538 v 0 l 1,-5.17229 v 0 l 1,-5.28388 v 0 l 1,-5.39007 v 0 l 1,-5.49071 v 0 l 1,-5.58573 v 0 l 1,-5.675 v 0 l 1,-5.75845 v 0 l 1,-5.836 v 0 l 1,-5.90755 v 0 l 1,-5.97304 v 0 l 1,-6.03241 v 0 l 1,-6.08557 v 0 l 1,-6.13249 v 0 l 1,-6.17312 v 0 l 1,-6.20741 v 0 l 1,-6.23534 v 0 l 1,-6.25685 v 0 l 1,-6.27196 v 0 l 1,-6.28062 v 0 l 1,-6.28284 v 0 l 1,-6.27861 v 0 l 1,-6.26793 v 0 l 1,-6.25082 v 0 l 1,-6.2273 v 0 l 1,-6.19738 v 0 l 1,-6.16111 v 0 l 1,-6.11851 v 0 l 1,-6.06963 v 0 l 1,-6.01452 v 0 l 1,-5.95325 v 0 l 1,-5.88584 v 0 l 1,-5.81242 v 0 l 1,-5.73302 v 0 l 1,-5.64774 v 0 l 1,-5.55665 v 0 l 1,-5.45988 v 0 l 1,-5.35749 v 0 l 1,-5.24961 v 0 l 1,-5.13633 v 0 l 1,-5.01779 v 0 l 1,-4.8941 v 0 l 1,-4.76538 v 0 l 1,-4.63178 v 0 l 1,-4.49341 v 0 l 1,-4.35044 v 0 l 1,-4.203 v 0 l 1,-4.05125 v 0 l 1,-3.89534 v 0 l 1,-3.73543 v 0 l 1,-3.57169 v 0 l 1,-3.40428 v 0 l 1,-3.23339 v 0 l 1,-3.05916 v 0 l 1,-2.8818 v 0 l 1,-2.70148 v 0 l 1,-2.5184 v 0 l 1,-2.33272 v 0 l 1,-2.14465 v 0 l 1,-1.95438 v 0 l 1,-1.7621 v 0 l 1,-1.56802 v 0 l 1,-1.37232 v 0 l 1,-1.17523 v 0 l 1,-0.97691 v 0 l 1,-0.7776 v 0 l 1,-0.5775 v 0 l 1,-0.37679 v 0 l 1,-0.1757 v 0.0256 l 1,-0.0396 v 0.0396 l 1,0.22681 v 0 l 1,0.42782 v 0 l 1,0.62839 v 0 l 1,0.82832 v 0 l 1,1.02739 v 0 l 1,1.22541 v 0 l 1,1.42218 v 0 l 1,1.61748 v 0 l 1,1.81113 v 0 l 1,2.00291 v 0 l 1,2.19264 v 0 l 1,2.38012 v 0 l 1,2.56515 v 0 l 1,2.74756 v 0 l 1,2.92714 v 0 l 1,3.10373 v 0 l 1,3.27711 v 0 l 1,3.44715 v 0 l 1,3.61364 v 0 l 1,3.77642 v 0 l 1,3.93533 v 0 l 1,4.09019 v 0 l 1,4.24087 v 0 l 1,4.38719 v 0 l 1,4.529 v 0 l 1,4.66617 v 0 l 1,4.79855 v 0 l 1,4.926 v 0 l 1,5.04839 v 0 l 1,5.16562 v 0 l 1,5.27752 v 0 l 1,5.38403 v 0 l 1,5.48499 v 0 l 1,5.58034 v 0 l 1,5.66996 v 0 l 1,5.75374 v 0 l 1,5.83164 v 0 l 1,5.90354 v 0 l 1,5.96939 v 0 l 1,6.02911 v 0 l 1,6.08264 v 0 l 1,6.12993 v 0 l 1,6.17092 v 0 l 1,6.20559 v 0 l 1,6.23388 v 0 l 1,6.25578 v 0 l 1,6.27125 v 0 l 1,6.28029 v 0 l 1,6.28289 v 0 l 1,6.27903 v 0 l 1,6.26873 v 0 l 1,6.252 v 0 l 1,6.22885 v 0 l 1,6.1993 v 0 l 1,6.1634 v 0 l 1,6.12117 v 0 l 1,6.07265 v 0 l 1,6.01791 v 0 l 1,5.95698 v 0 l 1,5.88995 v 0 l 1,5.81686 v 0 l 1,5.73781 v 0 l 1,5.65288 v 0 l 1,5.56212 v 0 l 1,5.46568 v 0 l 1,5.36362 v 0 l 1,5.25605 v 0 l 1,5.14308 v 0 l 1,5.02485 v 0 l 1,4.90146 v 0 l 1,4.77302 v 0 l 1,4.6397 v 0 l 1,4.50161 v 0 l 1,4.35891 v 0 l 1,4.21172 v 0 l 1,4.06022 v 0 l 1,3.90454 v 0 l 1,3.74487 v 0 l 1,3.58134 v 0 l 1,3.41415 v 0 l 1,3.24344 v 0 l 1,3.06941 v 0 l 1,2.89223 v 0 l 1,2.71208 v 0 l 1,2.52915 v 0 l 1,2.34362 v 0 l 1,2.15568 v 0 l 1,1.96554 v 0 l 1,1.77337 v 0 l 1,1.57939 v 0 l 1,1.38378 v 0 l 1,1.18675 v 0 l 1,0.98851 v 0 l 1,0.78926 v 0 l 1,0.58918 v 0 l 1,0.38852 v 0 l 1,0.18744 v -0.0138 l 1,0.0326 v -0.0326 l 1,-0.21507 v 0 l 1,-0.41611 v 0 l 1,-0.6167 v 0 l 1,-0.81668 v 0 l 1,-1.0158 v 0 l 1,-1.2139 v 0 l 1,-1.41074 v 0 l 1,-1.60613 v 0 l 1,-1.79988 v 0 l 1,-1.99177 v 0 l 1,-2.18164 v 0 l 1,-2.36925 v 0 l 1,-2.55443 v 0 l 1,-2.73699 v 0 l 1,-2.91675 v 0 l 1,-3.09351 v 0 l 1,-3.26709 v 0 l 1,-3.43732 v 0 l 1,-3.60403 v 0 l 1,-3.76703 v 0 l 1,-3.92617 v 0 l 1,-4.08127 v 0 l 1,-4.2322 v 0 l 1,-4.37878 v 0 l 1,-4.52085 v 0 l 1,-4.6583 v 0 l 1,-4.79096 v 0 l 1,-4.9187 v 0 l 1,-5.0414 v 0 l 1,-5.15892 v 0 l 1,-5.27114 v 0 l 1,-5.37797 v 0 l 1,-5.47926 v 0 l 1,-5.57493 v 0 l 1,-5.66488 v 0 l 1,-5.74903 v 0 l 1,-5.82725 v 0 l 1,-5.89952 v 0 l 1,-5.96571 v 0 l 1,-6.0258 v 0 l 1,-6.07968 v 0 l 1,-6.12735 v 0 l 1,-6.1687 v 0 l 1,-6.20374 v 0 l 1,-6.23241 v 0 l 1,-6.25467 v 0 l 1,-6.27053 v 0 l 1,-6.27994 v 0 l 1,-6.28292 v 0 l 1,-6.27943 v 0 l 1,-6.26951 v 0 l 1,-6.25315 v 0 l 1,-6.23037 v 0 l 1,-6.2012 v 0 l 1,-6.16567 v 0 l 1,-6.1238 v 0 l 1,-6.07566 v 0 l 1,-6.02127 v 0 l 1,-5.96071 v 0 l 1,-5.89402 v 0 l 1,-5.82129 v 0 l 1,-5.74259 v 0 l 1,-5.65799 v 0 l 1,-5.56758 v 0 l 1,-5.47145 v 0 l 1,-5.36972 v 0 l 1,-5.26248 v 0 l 1,-5.14982 v 0 l 1,-5.03189 v 0 l 1,-4.90879 v 0 l 1,-4.78065 v 0 l 1,-4.64761 v 0 l 1,-4.5098 v 0 l 1,-4.36735 v 0 l 1,-4.22043 v 0 l 1,-4.06917 v 0 l 1,-3.91374 v 0 l 1,-3.75429 v 0 l 1,-3.59098 v 0 l 1,-3.424 v 0 l 1,-3.25349 v 0 l 1,-3.07966 v 0 l 1,-2.90264 v 0 l 1,-2.72267 v 0 l 1,-2.53989 v 0 l 1,-2.35451 v 0 l 1,-2.16671 v 0 l 1,-1.97669 v 0 l 1,-1.78463 v 0 l 1,-1.59075 v 0 l 1,-1.39523 v 0 l 1,-1.19828 v 0 l 1,-1.00011 v 0 l 1,-0.8009 v 0 l 1,-0.60087 v 0 l 1,-0.40024 v 0 l 1,-0.19917 v 0.002 l 1,-0.0262 v 0.0262 l 1,0.20334 v 0 l 1,0.40439 v 0 l 1,0.60502 v 0 l 1,0.80503 v 0 l 1,1.00421 v 0 l 1,1.20238 v 0 l 1,1.39929 v 0 l 1,1.59478 v 0 l 1,1.78862 v 0 l 1,1.98064 v 0 l 1,2.17062 v 0 l 1,2.35836 v 0 l 1,2.5437 v 0 l 1,2.72642 v 0 l 1,2.90635 v 0 l 1,3.08328 v 0 l 1,3.25705 v 0 l 1,3.42749 v 0 l 1,3.5944 v 0 l 1,3.75763 v 0 l 1,3.917 v 0 l 1,4.07234 v 0 l 1,4.22351 v 0 l 1,4.37035 v 0 l 1,4.51269 v 0 l 1,4.65041 v 0 l 1,4.78335 v 0 l 1,4.91139 v 0 l 1,5.03438 v 0 l 1,5.15221 v 0 l 1,5.26475 v 0 l 1,5.37188 v 0 l 1,5.47351 v 0 l 1,5.5695 v 0 l 1,5.6598 v 0 l 1,5.74428 v 0 l 1,5.82285 v 0 l 1,5.89547 v 0 l 1,5.96202 v 0 l 1,6.02246 v 0 l 1,6.07671 v 0 l 1,6.12474 v 0 l 1,6.16646 v 0 l 1,6.20187 v 0 l 1,6.23091 v 0 l 1,6.25356 v 0 l 1,6.26978 v 0 l 1,6.27957 v 0 l 1,6.28291 v 0 l 1,6.27981 v 0 l 1,6.27027 v 0 l 1,6.25428 v 0 l 1,6.23188 v 0 l 1,6.20308 v 0 l 1,6.16791 v 0 l 1,6.12642 v 0 l 1,6.07864 v 0 l 1,6.02461 v 0 l 1,5.96441 v 0 l 1,5.89808 v 0 l 1,5.8257 v 0 l 1,5.74734 v 0 l 1,5.66308 v 0 l 1,5.57301 v 0 l 1,5.47722 v 0 l 1,5.37581 v 0 l 1,5.26888 v 0 l 1,5.15654 v 0 l 1,5.03891 v 0 l 1,4.91611 v 0 l 1,4.78827 v 0 l 1,4.6555 v 0 l 1,4.51796 v 0 l 1,4.37579 v 0 l 1,4.22912 v 0 l 1,4.07811 v 0 l 1,3.92291 v 0 l 1,3.7637 v 0 l 1,3.60062 v 0 l 1,3.43383 v 0 l 1,3.26353 v 0 l 1,3.08989 v 0 l 1,2.91305 v 0 l 1,2.73325 v 0 l 1,2.55063 v 0 l 1,2.36539 v 0 l 1,2.17772 v 0 l 1,1.98783 v 0 l 1,1.79589 v 0 l 1,1.6021 v 0 l 1,1.40668 v 0 l 1,1.20981 v 0 l 1,1.0117 v 0 l 1,0.81254 v 0 l 1,0.61257 v 0 l 1,0.41194 v 0 l 1,0.21092 v 0 l 1,0.0302 v -0.0206 l 1,-0.19161 v 0 l 1,-0.39267 v 0 l 1,-0.59333 v 0 l 1,-0.79338 v 0 l 1,-0.99262 v 0 l 1,-1.19085 v 0 l 1,-1.38784 v 0 l 1,-1.58342 v 0 l 1,-1.77737 v 0 l 1,-1.96949 v 0 l 1,-2.15959 v 0 l 1,-2.34748 v 0 l 1,-2.53296 v 0 l 1,-2.71584 v 0 l 1,-2.89592 v 0 l 1,-3.07305 v 0 l 1,-3.24701 v 0 l 1,-3.41764 v 0 l 1,-3.58476 v 0 l 1,-3.74821 v 0 l 1,-3.90781 v 0 l 1,-4.0634 v 0 l 1,-4.21481 v 0 l 1,-4.3619 v 0 l 1,-4.50452 v 0 l 1,-4.6425 v 0 l 1,-4.77573 v 0 l 1,-4.90406 v 0 l 1,-5.02735 v 0 l 1,-5.14548 v 0 l 1,-5.25833 v 0 l 1,-5.36578 v 0 l 1,-5.46773 v 0 l 1,-5.56406 v 0 l 1,-5.65469 v 0 l 1,-5.73951 v 0 l 1,-5.81844 v 0 l 1,-5.89139 v 0 l 1,-5.95831 v 0 l 1,-6.0191 v 0 l 1,-6.07372 v 0 l 1,-6.12211 v 0 l 1,-6.1642 v 0 l 1,-6.19998 v 0 l 1,-6.22939 v 0 l 1,-6.25241 v 0 l 1,-6.26901 v 0 l 1,-6.27918 v 0 l 1,-6.2829 v 0 l 1,-6.28017 v 0 l 1,-6.27099 v 0 l 1,-6.25539 v 0 l 1,-6.23336 v 0 l 1,-6.20494 v 0 l 1,-6.17014 v 0 l 1,-6.12901 v 0 l 1,-6.0816 v 0 l 1,-6.02793 v 0 l 1,-5.96809 v 0 l 1,-5.90212 v 0 l 1,-5.83008 v 0 l 1,-5.75208 v 0 l 1,-5.66816 v 0 l 1,-5.57842 v 0 l 1,-5.48296 v 0 l 1,-5.38188 v 0 l 1,-5.27526 v 0 l 1,-5.16325 v 0 l 1,-5.04591 v 0 l 1,-4.92342 v 0 l 1,-4.79585 v 0 l 1,-4.66338 v 0 l 1,-4.52612 v 0 l 1,-4.3842 v 0 l 1,-4.2378 v 0 l 1,-4.08703 v 0 l 1,-3.93209 v 0 l 1,-3.77309 v 0 l 1,-3.61023 v 0 l 1,-3.44366 v 0 l 1,-3.27356 v 0 l 1,-3.1001 v 0 l 1,-2.92346 v 0 l 1,-2.74381 v 0 l 1,-2.56136 v 0 l 1,-2.37626 v 0 l 1,-2.18874 v 0 l 1,-1.99896 v 0 l 1,-1.80714 v 0 l 1,-1.61345 v 0 l 1,-1.41813 v 0 l 1,-1.22132 v 0 l 1,-1.02329 v 0 l 1,-0.82419 v 0 l 1,-0.62424 v 0 l 1,-0.42367 v 0 l 1,-0.22264 v 0 l 1,-0.037 v 0.0156 l 1,0.17986 v 0 l 1,0.38095 v 0 l 1,0.58164 v 0 l 1,0.78173 v 0 l 1,0.98103 v 0 l 1,1.17932 v 0 l 1,1.37638 v 0 l 1,1.57206 v 0 l 1,1.7661 v 0 l 1,1.95833 v 0 l 1,2.14857 v 0 l 1,2.33658 v 0 l 1,2.52221 v 0 l 1,2.70525 v 0 l 1,2.8855 v 0 l 1,3.06279 v 0 l 1,3.23696 v 0 l 1,3.40778 v 0 l 1,3.57511 v 0 l 1,3.73878 v 0 l 1,3.89861 v 0 l 1,4.05443 v 0 l 1,4.2061 v 0 l 1,4.35344 v 0 l 1,4.49632 v 0 l 1,4.63459 v 0 l 1,4.76809 v 0 l 1,4.89671 v 0 l 1,5.0203 v 0 l 1,5.13873 v 0 l 1,5.25189 v 0 l 1,5.35967 v 0 l 1,5.46194 v 0 l 1,5.5586 v 0 l 1,5.64956 v 0 l 1,5.73472 v 0 l 1,5.81399 v 0 l 1,5.88731 v 0 l 1,5.95457 v 0 l 1,6.01572 v 0 l 1,6.07071 v 0 l 1,6.11945 v 0 l 1,6.16193 v 0 l 1,6.19806 v 0 l 1,6.22785 v 0 l 1,6.25125 v 0 l 1,6.26821 v 0 l 1,6.27876 v 0 l 1,6.28286 v 0 l 1,6.28051 v 0 l 1,6.27171 v 0 l 1,6.25647 v 0 l 1,6.23483 v 0 l 1,6.20677 v 0 l 1,6.17234 v 0 l 1,6.13158 v 0 l 1,6.08454 v 0 l 1,6.03123 v 0 l 1,5.97175 v 0 l 1,5.90613 v 0 l 1,5.83446 v 0 l 1,5.75678 v 0 l 1,5.67322 v 0 l 1,5.58381 v 0 l 1,5.48869 v 0 l 1,5.38793 v 0 l 1,5.28163 v 0 l 1,5.16992 v 0 l 1,5.05291 v 0 l 1,4.9307 v 0 l 1,4.80343 v 0 l 1,4.67124 v 0 l 1,4.53425 v 0 l 1,4.39261 v 0 l 1,4.24646 v 0 l 1,4.09595 v 0 l 1,3.94123 v 0 l 1,3.78247 v 0 l 1,3.61984 v 0 l 1,3.45348 v 0 l 1,3.28357 v 0 l 1,3.11031 v 0 l 1,2.93385 v 0 l 1,2.75437 v 0 l 1,2.57207 v 0 l 1,2.38713 v 0 l 1,2.19974 v 0 l 1,2.01009 v 0 l 1,1.81838 v 0 l 1,1.6248 v 0 l 1,1.42956 v 0 l 1,1.23284 v 0 l 1,1.03487 v 0 l 1,0.83583 v 0 l 1,0.63593 v 0 l 1,0.43538 v 0 l 1,0.23438 v 0 l 1,0.0445 v -0.0113 l 1,-0.16813 v 0 l 1,-0.36922 v 0 l 1,-0.56995 v 0 l 1,-0.77009 v 0 l 1,-0.96942 v 0 l 1,-1.16778 v 0 l 1,-1.36493 v 0 l 1,-1.56068 v 0 l 1,-1.75483 v 0 l 1,-1.94718 v 0 l 1,-2.13752 v 0 l 1,-2.32568 v 0 l 1,-2.51145 v 0 l 1,-2.69464 v 0 l 1,-2.87507 v 0 l 1,-3.05254 v 0 l 1,-3.22688 v 0 l 1,-3.39791 v 0 l 1,-3.56546 v 0 l 1,-3.72933 v 0 l 1,-3.8894 v 0 l 1,-4.04545 v 0 l 1,-4.19737 v 0 l 1,-4.34497 v 0 l 1,-4.48811 v 0 l 1,-4.62665 v 0 l 1,-4.76044 v 0 l 1,-4.88934 v 0 l 1,-5.01323 v 0 l 1,-5.13197 v 0 l 1,-5.24544 v 0 l 1,-5.35352 v 0 l 1,-5.45613 v 0 l 1,-5.55311 v 0 l 1,-5.64442 v 0 l 1,-5.72991 v 0 l 1,-5.80954 v 0 l 1,-5.88319 v 0 l 1,-5.95081 v 0 l 1,-6.01233 v 0 l 1,-6.06767 v 0 l 1,-6.11678 v 0 l 1,-6.15962 v 0 l 1,-6.19613 v 0 l 1,-6.22629 v 0 l 1,-6.25006 v 0 l 1,-6.2674 v 0 l 1,-6.27832 v 0 l 1,-6.2828 v 0 l 1,-6.28082 v 0 l 1,-6.2724 v 0 l 1,-6.25754 v 0 l 1,-6.23626 v 0 l 1,-6.20858 v 0 l 1,-6.17453 v 0 l 1,-6.13413 v 0 l 1,-6.08745 v 0 l 1,-6.03452 v 0 l 1,-5.97539 v 0 l 1,-5.91012 v 0 l 1,-5.8388 v 0 l 1,-5.76148 v 0 l 1,-5.67825 v 0 l 1,-5.58919 v 0 l 1,-5.49439 v 0 l 1,-5.39396 v 0 l 1,-5.28799 v 0 l 1,-5.17658 v 0 l 1,-5.05988 v 0 l 1,-4.93796 v 0 l 1,-4.811 v 0 l 1,-4.67908 v 0 l 1,-4.54238 v 0 l 1,-4.40099 v 0 l 1,-4.2551 v 0 l 1,-4.10485 v 0 l 1,-3.95037 v 0 l 1,-3.79184 v 0 l 1,-3.62943 v 0 l 1,-3.46328 v 0 l 1,-3.29358 v 0 l 1,-3.12051 v 0 l 1,-2.94422 v 0 l 1,-2.76492 v 0 l 1,-2.58278 v 0 l 1,-2.39799 v 0 l 1,-2.21073 v 0 l 1,-2.02122 v 0 l 1,-1.82961 v 0 l 1,-1.63614 v 0 l 1,-1.44099 v 0 l 1,-1.24436 v 0 l 1,-1.04644 v 0 l 1,-0.84747 v 0 l 1,-0.64761 v 0 l 1,-0.44709 v 0 l 1,-0.24611 v 0 l 1,-0.0526 v 0.008 l 1,0.15639 v 0 l 1,0.3575 v 0 l 1,0.55826 v 0 l 1,0.75843 v 0 l 1,0.95782 v 0 l 1,1.15624 v 0 l 1,1.35347 v 0 l 1,1.5493 v 0 l 1,1.74355 v 0 l 1,1.93601 v 0 l 1,2.12648 v 0 l 1,2.31477 v 0 l 1,2.50068 v 0 l 1,2.68403 v 0 l 1,2.86462"
     stroke-opacity="0.698039"
     stroke-linejoin="round"
     stroke-miterlimit="10"
     stroke-width="2.5"
     stroke-dasharray="2.5, 3"
     id="path37"
     clip-path="url(#clipPath38)"
     style="stroke:#8e44ad;stroke-opacity:1;stroke-width:4.2;stroke-dasharray:4.2, 5.03999922;stroke-dashoffset:0" />
</svg>
