<?xml version="1.0" encoding="UTF-8" standalone="no"?>
<!-- Created with Inkscape (http://www.inkscape.org/) -->

<svg
   width="174.37447mm"
   height="166.98022mm"
   viewBox="0 0 174.37447 166.98022"
   version="1.1"
   id="svg1"
   inkscape:version="1.4.3 (1:1.4.3+202512261035+0d15f75042)"
   sodipodi:docname="bille.svg"
   xmlns:inkscape="http://www.inkscape.org/namespaces/inkscape"
   xmlns:sodipodi="http://sodipodi.sourceforge.net/DTD/sodipodi-0.dtd"
   xmlns="http://www.w3.org/2000/svg"
   xmlns:svg="http://www.w3.org/2000/svg">
  <sodipodi:namedview
     id="namedview1"
     pagecolor="#ffffff"
     bordercolor="#000000"
     borderopacity="0.25"
     inkscape:showpageshadow="2"
     inkscape:pageopacity="0.0"
     inkscape:pagecheckerboard="0"
     inkscape:deskcolor="#d1d1d1"
     inkscape:document-units="mm"
     inkscape:zoom="0.5033126"
     inkscape:cx="393.39369"
     inkscape:cy="362.59772"
     inkscape:window-width="1920"
     inkscape:window-height="1008"
     inkscape:window-x="0"
     inkscape:window-y="0"
     inkscape:window-maximized="1"
     inkscape:current-layer="layer1" />
  <defs
     id="defs1">
    <marker
       style="overflow:visible"
       id="ArrowWide"
       refX="0"
       refY="0"
       orient="auto-start-reverse"
       inkscape:stockid="Wide arrow"
       markerWidth="1"
       markerHeight="1"
       viewBox="0 0 1 1"
       inkscape:isstock="true"
       inkscape:collect="always"
       preserveAspectRatio="xMidYMid">
      <path
         style="fill:none;stroke:context-stroke;stroke-width:1;stroke-linecap:butt"
         d="M 3,-3 0,0 3,3"
         transform="rotate(180,0.125,0)"
         sodipodi:nodetypes="ccc"
         id="path4" />
    </marker>
  </defs>
  <g
     inkscape:label="Layer 1"
     inkscape:groupmode="layer"
     id="layer1"
     transform="translate(-38.062657,-39.76716)">
    <path
       id="path149"
       d="M 85.306913,166.40946 H 199.50734"
       style="fill:none;stroke:#000000;stroke-width:0.436292;stroke-linecap:butt;stroke-linejoin:miter;stroke-miterlimit:10;stroke-dasharray:none;stroke-opacity:1"
       inkscape:export-filename="bille.pdf"
       inkscape:export-xdpi="96"
       inkscape:export-ydpi="96" />
    <path
       id="path150"
       d="m 201.68883,166.40946 -3.49041,-1.7452 1.30892,1.7452 -1.30892,1.74517"
       style="fill:#000000;fill-opacity:1;fill-rule:nonzero;stroke:none;stroke-width:1.09484" />
    <path
       id="path151"
       d="m 209.61449,169.41579 c -0.34641,0.50036 -0.85964,0.94942 -1.50112,0.94942 -0.15382,0 -0.78264,-0.025 -0.98794,-0.62867 0.0511,0.0125 0.11536,0.0125 0.14115,0.0125 0.38488,0 0.65435,-0.34643 0.65435,-0.64149 0,-0.30787 -0.25666,-0.41057 -0.44908,-0.41057 -0.20516,0 -0.66715,0.15403 -0.66715,0.79545 0,0.66718 0.56452,1.12906 1.30867,1.12906 1.30868,0 2.63016,-1.20603 3.00225,-2.65583 l 1.283,-5.10639 c 0.0125,-0.0642 0.0385,-0.14114 0.0385,-0.21815 0,-0.19249 -0.16672,-0.33361 -0.35924,-0.33361 -0.11535,0 -0.39773,0.0511 -0.50038,0.44903 l -0.96226,3.84906 c -0.0642,0.2309 -0.0642,0.25666 -0.16671,0.41056 -0.26938,0.35922 -0.70567,0.8083 -1.32152,0.8083 -0.74415,0 -0.8083,-0.7185 -0.8083,-1.07775 0,-0.74415 0.35926,-1.75772 0.70564,-2.69432 0.15405,-0.38493 0.23091,-0.56452 0.23091,-0.82114 0,-0.55168 -0.3977,-1.05206 -1.03922,-1.05206 -1.20605,0 -1.68075,1.89887 -1.68075,2.0015 0,0.0511 0.0511,0.11535 0.14113,0.11535 0.11535,0 0.12826,-0.0511 0.17981,-0.2309 0.32075,-1.10339 0.80827,-1.61658 1.32148,-1.61658 0.11536,0 0.34642,0 0.34642,0.4234 0,0.34639 -0.15382,0.71848 -0.34642,1.21885 -0.64152,1.71924 -0.64152,2.14265 -0.64152,2.46339 0,1.24453 0.88531,1.5268 1.53964,1.5268 0.38491,0 0.85961,-0.11536 1.30867,-0.60301 l 0.0125,0.0125 c -0.19248,0.76982 -0.32074,1.283 -0.78263,1.92453 z m 0,0"
       style="fill:#000000;fill-opacity:1;fill-rule:nonzero;stroke:none;stroke-width:1.09484"
       aria-label="y" />
    <path
       id="path152"
       d="M 85.306913,166.40946 V 52.209027"
       style="fill:none;stroke:#000000;stroke-width:0.436292;stroke-linecap:butt;stroke-linejoin:miter;stroke-miterlimit:10;stroke-dasharray:none;stroke-opacity:1" />
    <path
       id="path153"
       d="m 85.306913,50.027578 -1.745181,3.490377 1.745181,-1.308879 1.745183,1.308879"
       style="fill:#000000;fill-opacity:1;fill-rule:nonzero;stroke:none;stroke-width:1.09484" />
    <path
       id="path154"
       d="m 83.705902,44.475911 c 0.551695,-0.641519 1.013579,-1.039263 1.667917,-1.629455 0.782639,-0.679962 1.129053,-1.013569 1.308673,-1.206017 0.923771,-0.898117 1.372827,-1.667935 1.372827,-1.770552 0,-0.102727 -0.10263,-0.102727 -0.128297,-0.102727 -0.08982,0 -0.115464,0.05112 -0.179639,0.141146 -0.333583,0.564522 -0.641507,0.84679 -0.987921,0.84679 -0.269444,0 -0.410565,-0.12825 -0.667168,-0.436236 -0.269443,-0.320735 -0.500374,-0.551675 -0.872451,-0.551675 -0.962257,0 -1.526783,1.193206 -1.526783,1.462639 0,0.03849 0.01268,0.128262 0.128296,0.128262 0.102629,0 0.115464,-0.05112 0.153967,-0.153834 0.218112,-0.51322 0.846791,-0.615849 1.103393,-0.615849 0.269442,0 0.526035,0.102727 0.808298,0.218179 0.500376,0.205173 0.705656,0.205173 0.833961,0.205173 0.08982,0 0.141121,0 0.20529,-0.0125 -0.423392,0.513232 -1.129051,1.14188 -1.719237,1.680745 l -1.321505,1.206054 c -0.795469,0.82112 -1.283014,1.590938 -1.283014,1.680732 0,0.07686 0.06415,0.102728 0.141122,0.102728 0.077,0 0.08982,-0.0125 0.17964,-0.166705 0.218112,-0.333595 0.628674,-0.808298 1.116224,-0.808298 0.269442,0 0.41056,0.08961 0.667165,0.410554 0.24378,0.295151 0.474716,0.564535 0.88528,0.564535 1.283013,0 2.027163,-1.655088 2.027163,-1.963025 0,-0.05112 -0.01268,-0.128262 -0.153968,-0.128262 -0.102629,0 -0.115476,0.05112 -0.153968,0.179601 -0.28226,0.769794 -1.064903,1.090578 -1.565277,1.090578 -0.28226,0 -0.538865,-0.08986 -0.821128,-0.205161 -0.513207,-0.218179 -0.667168,-0.218179 -0.833961,-0.218179 -0.128297,0 -0.269444,0 -0.384902,0.05112 z m 0,0"
       style="fill:#000000;fill-opacity:1;fill-rule:nonzero;stroke:none;stroke-width:1.09484"
       aria-label="z" />
    <path
       id="path155"
       d="M 85.306913,166.40946 51.004354,200.71203"
       style="fill:none;stroke:#000000;stroke-width:0.436292;stroke-linecap:butt;stroke-linejoin:miter;stroke-miterlimit:10;stroke-dasharray:none;stroke-opacity:1" />
    <path
       id="path156"
       d="m 49.461821,202.25453 3.702064,-1.23399 -2.159535,-0.30849 -0.308516,-2.15953"
       style="fill:#000000;fill-opacity:1;fill-rule:nonzero;stroke:none;stroke-width:1.09483" />
    <path
       id="path157"
       d="m 43.887565,199.73342 c -0.410565,0.0769 -0.564525,0.3849 -0.564525,0.64151 0,0.30785 0.243778,0.41058 0.42339,0.41058 0.397738,0 0.667169,-0.33358 0.667169,-0.69285 0,-0.53885 -0.628675,-0.79545 -1.180372,-0.79545 -0.795469,0 -1.231692,0.78263 -1.359992,1.03923 -0.29508,-0.9879 -1.103395,-1.03923 -1.347166,-1.03923 -1.334334,0 -2.039995,1.71923 -2.039995,2.00148 0,0.0511 0.05133,0.11535 0.141143,0.11535 0.115465,0 0.141143,-0.0769 0.166773,-0.12826 0.436224,-1.44981 1.321503,-1.71923 1.693577,-1.71923 0.590186,0 0.705659,0.53885 0.705659,0.85962 0,0.2824 -0.077,0.59018 -0.23096,1.21885 l -0.449054,1.78341 c -0.192444,0.79545 -0.577356,1.51397 -1.270183,1.51397 -0.06415,0 -0.384904,0 -0.667168,-0.16672 0.474715,-0.10273 0.577356,-0.48757 0.577356,-0.64152 0,-0.26937 -0.192444,-0.42341 -0.436226,-0.42341 -0.32075,0 -0.654334,0.26941 -0.654334,0.69287 0,0.55166 0.615846,0.79545 1.167542,0.79545 0.628677,0 1.077733,-0.5004 1.347163,-1.02641 0.218114,0.76983 0.872451,1.02641 1.347165,1.02641 1.347166,0 2.052823,-1.70641 2.052823,-2.00152 0,-0.0642 -0.05133,-0.11535 -0.141121,-0.11535 -0.115477,0 -0.128297,0.0642 -0.166774,0.16691 -0.346415,1.15471 -1.116221,1.69357 -1.693581,1.69357 -0.461884,0 -0.718488,-0.34642 -0.718488,-0.88527 0,-0.28244 0.06415,-0.48756 0.269447,-1.36002 l 0.461883,-1.77056 c 0.192443,-0.79543 0.641505,-1.35995 1.231694,-1.35995 0.03848,0 0.397733,0 0.667168,0.1667 z m 0,0"
       style="fill:#000000;fill-opacity:1;fill-rule:nonzero;stroke:none;stroke-width:1.09484"
       aria-label="x" />
    <path
       id="path174"
       d="m 130.80825,135.32094 c 0,-1.3985 -1.16752,-2.54038 -2.54034,-2.54038 -1.41132,0 -2.5532,1.16755 -2.5532,2.54038 0,1.38564 1.14188,2.54036 2.5532,2.54036 1.37282,0 2.54034,-1.14187 2.54034,-2.54036 z m 0,0"
       style="fill:#000000;fill-opacity:1;fill-rule:nonzero;stroke:none;stroke-width:1.09484"
       aria-label="•" />
    <ellipse
       style="opacity:1;fill:none;stroke:#03a9f4;stroke-width:0.439392"
       id="path1"
       cx="90.392166"
       cy="161.02434"
       rx="44.95578"
       ry="45.503345" />
    <path
       id="path161"
       d="M 128.8625,135.04568 V 181.0715"
       style="fill:#8bc34a;stroke:#8bc34a;stroke-width:0.753158;stroke-linecap:butt;stroke-linejoin:miter;stroke-miterlimit:10;stroke-dasharray:none;stroke-opacity:1" />
    <path
       id="path162"
       d="m 128.8625,183.33434 1.81025,-3.62055 -1.81025,1.35771 -1.81026,-1.35771"
       style="fill:#8bc34a;fill-opacity:1;fill-rule:nonzero;stroke:none;stroke-width:1.13566" />
    <path
       id="path163"
       d="m 134.97434,153.15649 c -0.25303,0.0531 -0.29295,0.41258 -0.0258,0.50574 0.11979,0.0399 0.25303,0.012 0.37264,0.012 h 4.0192 c 0.133,0 0.26623,0.012 0.37263,-0.0667 0.14643,-0.11978 0.10656,-0.35931 -0.0667,-0.43919 -0.0929,-0.0399 -0.18649,-0.0258 -0.29263,-0.0258 h -3.93934 c -0.14643,0 -0.30615,-0.0258 -0.43916,0.012 z m 0,0"
       style="fill:#8bc34a;fill-opacity:1;fill-rule:nonzero;stroke:none;stroke-width:1.13566"
       aria-label="#" />
    <path
       id="path164"
       d="m 142.51694,153.14321 h -4.658 c -0.10657,0 -0.23951,-0.012 -0.34599,0.012 -0.11979,0.012 -0.21311,0.133 -0.21311,0.25303 0,0.11978 0.0929,0.23951 0.21311,0.25271 0.10656,0.0258 0.2395,0.012 0.34599,0.012 h 4.658 c -0.21279,0.34603 -0.42587,0.66544 -0.63878,1.01145 -0.0531,0.0929 -0.21281,0.25269 -0.13301,0.37265 0.0399,0.0531 0.11979,0.0531 0.17287,0.0258 0.11978,-0.0399 0.23951,-0.11978 0.35933,-0.18628 0.53236,-0.29295 1.0647,-0.58558 1.59702,-0.87835 0.23951,-0.13301 0.47912,-0.27943 0.73198,-0.41258 0.0799,-0.0399 0.21279,-0.0931 0.21279,-0.1995 0,-0.10657 -0.133,-0.15965 -0.21279,-0.19951 -0.25302,-0.14643 -0.49241,-0.27943 -0.73198,-0.41258 -0.53232,-0.29261 -1.06466,-0.58556 -1.59702,-0.87835 -0.11978,-0.0667 -0.2395,-0.14642 -0.35933,-0.1995 -0.0531,-0.0258 -0.133,-0.0258 -0.17287,0.0399 -0.0799,0.11978 0.0799,0.27941 0.13301,0.37261 0.21279,0.34603 0.42585,0.66544 0.63878,1.01148 z m 0,0"
       style="fill:#8bc34a;fill-opacity:1;fill-rule:nonzero;stroke:none;stroke-width:1.13566"
       aria-label="„" />
    <path
       id="path165"
       d="m 137.98874,161.44109 h 2.27576 c 1.8765,0 3.75301,-1.38411 3.75301,-2.9412 0,-1.05136 -0.90499,-2.02287 -2.60849,-2.02287 h -4.19219 c -0.26621,0 -0.38593,0 -0.38593,0.26623 0,0.133 0.11978,0.133 0.33269,0.133 0.82515,0 0.82515,0.10657 0.82515,0.25303 0,0.0258 0,0.10656 -0.0531,0.31935 l -1.83659,7.30636 c -0.11978,0.46581 -0.14642,0.5989 -1.0913,0.5989 -0.26623,0 -0.39925,0 -0.39925,0.25303 0,0.14642 0.11978,0.14642 0.19951,0.14642 0.26623,0 0.53236,-0.0258 0.7852,-0.0258 h 1.59704 c 0.25303,0 0.54566,0.0258 0.79853,0.0258 0.10656,0 0.25271,0 0.25271,-0.25271 0,-0.14642 -0.11979,-0.14642 -0.31935,-0.14642 -0.81181,0 -0.82511,-0.0929 -0.82511,-0.22631 0,-0.0667 0.012,-0.15964 0.0258,-0.22631 z m 0.97153,-4.0325 c 0.13301,-0.50572 0.18629,-0.53234 0.70533,-0.53234 h 1.34416 c 1.02478,0 1.86319,0.31935 1.86319,1.34415 0,0.34603 -0.17287,1.50389 -0.79849,2.12937 -0.22631,0.23951 -0.87837,0.75861 -2.11607,0.75861 h -1.91643 z m 0,0"
       style="fill:#8bc34a;fill-opacity:1;fill-rule:nonzero;stroke:none;stroke-width:1.13566"
       aria-label="P" />
    <path
       id="path159"
       d="m 112.64603,154.68404 c 0.006,-0.0246 0.0185,-0.0679 0.0185,-0.0987 0,-0.0617 -0.0617,-0.0617 -0.0741,-0.0617 -0.006,0 -0.23455,0.0185 -0.34565,0.0309 -0.11108,0.006 -0.20369,0.0185 -0.31478,0.0246 -0.15432,0.0119 -0.19753,0.0185 -0.19753,0.13571 0,0.0617 0.0617,0.0617 0.1296,0.0617 0.32096,0 0.32096,0.0555 0.32096,0.11735 0,0.0246 0,0.037 -0.0309,0.1543 l -0.78389,3.12316 c -0.0185,0.0679 -0.0309,0.11735 -0.0309,0.21603 0,0.31479 0.23456,0.56784 0.55551,0.56784 0.20369,0 0.34564,-0.13572 0.4444,-0.3333 0.10496,-0.20986 0.19751,-0.60488 0.19751,-0.62957 0,-0.0309 -0.0246,-0.0555 -0.0617,-0.0555 -0.0617,0 -0.0679,0.0309 -0.0926,0.12347 -0.11108,0.43823 -0.22221,0.77153 -0.47526,0.77153 -0.19134,0 -0.19134,-0.20368 -0.19134,-0.29009 0,-0.0246 0,-0.16049 0.0431,-0.3333 z m 0,0"
       style="fill:#a527b0;fill-opacity:1;fill-rule:nonzero;stroke:none;stroke-width:0.526699"
       aria-label="l" />
    <path
       style="opacity:1;fill:none;stroke:#a527b0;stroke-width:0.375999"
       d="M 85.686473,166.11611 128.26687,135.10076"
       id="path2" />
    <path
       id="path171"
       d="m 85.510916,127.05286 c 11.804993,0 22.917544,5.42064 30.185304,14.62036"
       style="fill:none;stroke:#d32f2f;stroke-width:0.641155;stroke-linecap:butt;stroke-linejoin:miter;stroke-miterlimit:10;stroke-dasharray:none;stroke-opacity:1" />
    <path
       id="path172"
       d="m 117.024,143.45747 -0.76451,-3.90338 -0.59359,2.14282 -2.22331,0.0303"
       style="fill:#d32f2f;fill-opacity:1;fill-rule:nonzero;stroke:none;stroke-width:0.904714" />
    <path
       id="path173"
       d="m 105.45137,122.11161 c 0,-1.10267 -0.34988,-2.17352 -1.2299,-2.17352 -1.51617,0 -3.12776,3.17019 -3.12776,5.54516 0,0.49832 0.10599,2.17352 1.2405,2.17352 1.47375,0 3.11716,-3.09595 3.11716,-5.54516 z m -3.27621,1.52677 c 0.15907,-0.63612 0.39231,-1.54797 0.81641,-2.32196 0.36048,-0.64677 0.74219,-1.16627 1.2193,-1.16627 0.34989,0 0.59374,0.30747 0.59374,1.34652 0,0.3923 -0.0318,0.93305 -0.34988,2.14171 z m 2.20535,0.31811 c -0.27567,1.06025 -0.49831,1.74942 -0.89063,2.42799 -0.30746,0.55132 -0.68915,1.06024 -1.14507,1.06024 -0.32868,0 -0.60435,-0.26505 -0.60435,-1.33594 0,-0.69975 0.16972,-1.43133 0.34989,-2.15229 z m 0,0"
       style="fill:#d32f2f;fill-opacity:1;fill-rule:nonzero;stroke:none;stroke-width:0.904756"
       aria-label="θ" />
    <path
       style="opacity:1;fill:none;stroke:#a527b0;stroke-width:0.375999;marker-end:url(#ArrowWide)"
       id="path3"
       sodipodi:type="arc"
       sodipodi:cx="84.766525"
       sodipodi:cy="65.053375"
       sodipodi:rx="5.1254177"
       sodipodi:ry="4.0740504"
       sodipodi:start="0"
       sodipodi:end="4.3340949"
       sodipodi:arc-type="arc"
       d="m 89.891943,65.053375 a 5.1254177,4.0740504 0 0 1 -4.480824,4.041703 5.1254177,4.0740504 0 0 1 -5.607878,-3.0251 5.1254177,4.0740504 0 0 1 3.070285,-4.802602"
       sodipodi:open="true" />
  </g>
</svg>
