<?xml version="1.0" encoding="UTF-8" standalone="no"?>
<!-- Created with Inkscape (http://www.inkscape.org/) -->

<svg
   width="83.886971mm"
   height="79.584976mm"
   viewBox="0 0 83.88697 79.584976"
   version="1.1"
   id="svg1"
   sodipodi:docname="pendule.svg"
   inkscape:version="1.4.3 (1:1.4.3+202512261035+0d15f75042)"
   xmlns:inkscape="http://www.inkscape.org/namespaces/inkscape"
   xmlns:sodipodi="http://sodipodi.sourceforge.net/DTD/sodipodi-0.dtd"
   xmlns="http://www.w3.org/2000/svg"
   xmlns:svg="http://www.w3.org/2000/svg">
  <sodipodi:namedview
     id="namedview1"
     pagecolor="#ffffff"
     bordercolor="#000000"
     borderopacity="0.25"
     inkscape:showpageshadow="2"
     inkscape:pageopacity="0.0"
     inkscape:pagecheckerboard="0"
     inkscape:deskcolor="#d1d1d1"
     inkscape:document-units="mm"
     inkscape:zoom="1.4235831"
     inkscape:cx="169.29114"
     inkscape:cy="147.86633"
     inkscape:window-width="1920"
     inkscape:window-height="1008"
     inkscape:window-x="0"
     inkscape:window-y="0"
     inkscape:window-maximized="1"
     inkscape:current-layer="layer1" />
  <defs
     id="defs1" />
  <g
     inkscape:label="Layer 1"
     inkscape:groupmode="layer"
     id="layer1"
     transform="translate(-74.72769,-79.768335)">
    <path
       id="path149"
       d="M 97.455666,140.69264 H 152.3945"
       style="fill:none;stroke:#000000;stroke-width:0.209889;stroke-linecap:butt;stroke-linejoin:miter;stroke-miterlimit:10;stroke-dasharray:none;stroke-opacity:1"
       inkscape:export-filename="pendule.pdf"
       inkscape:export-xdpi="96"
       inkscape:export-ydpi="96" />
    <path
       id="path150"
       d="m 153.44396,140.69264 -1.67914,-0.83957 0.62968,0.83957 -0.62968,0.83956"
       style="fill:#000000;fill-opacity:1;fill-rule:nonzero;stroke:none;stroke-width:0.526699" />
    <path
       id="path151"
       d="m 157.25679,142.13891 c -0.16665,0.24071 -0.41355,0.45674 -0.72215,0.45674 -0.074,0 -0.37651,-0.012 -0.47527,-0.30244 0.0246,0.006 0.0555,0.006 0.0679,0.006 0.18516,0 0.31479,-0.16666 0.31479,-0.30862 0,-0.1481 -0.12347,-0.19751 -0.21604,-0.19751 -0.0987,0 -0.32095,0.0741 -0.32095,0.38267 0,0.32097 0.27158,0.54316 0.62957,0.54316 0.62957,0 1.2653,-0.58018 1.4443,-1.27765 l 0.61722,-2.45655 c 0.006,-0.0309 0.0185,-0.0679 0.0185,-0.10495 0,-0.0926 -0.0802,-0.16049 -0.17282,-0.16049 -0.0555,0 -0.19134,0.0246 -0.24072,0.21603 l -0.46292,1.85168 c -0.0309,0.11108 -0.0309,0.12347 -0.0802,0.19751 -0.12959,0.17281 -0.33948,0.38885 -0.63575,0.38885 -0.35799,0 -0.38885,-0.34565 -0.38885,-0.51848 0,-0.35799 0.17283,-0.84559 0.33947,-1.29616 0.0741,-0.18518 0.11108,-0.27158 0.11108,-0.39503 0,-0.2654 -0.19132,-0.50612 -0.49994,-0.50612 -0.5802,0 -0.80857,0.9135 -0.80857,0.96287 0,0.0246 0.0246,0.0555 0.0679,0.0555 0.0555,0 0.0617,-0.0246 0.0865,-0.11108 0.1543,-0.53081 0.38884,-0.7777 0.63573,-0.7777 0.0555,0 0.16665,0 0.16665,0.20369 0,0.16664 -0.074,0.34564 -0.16665,0.58636 -0.30862,0.82708 -0.30862,1.03077 -0.30862,1.18507 0,0.59871 0.4259,0.7345 0.74068,0.7345 0.18517,0 0.41354,-0.0555 0.62957,-0.29009 l 0.006,0.006 c -0.0926,0.37034 -0.1543,0.61722 -0.3765,0.92584 z m 0,0"
       style="fill:#000000;fill-opacity:1;fill-rule:nonzero;stroke:none;stroke-width:0.526699"
       aria-label="y" />
    <path
       id="path152"
       d="M 97.455666,140.69264 V 85.7538"
       style="fill:none;stroke:#000000;stroke-width:0.209889;stroke-linecap:butt;stroke-linejoin:miter;stroke-miterlimit:10;stroke-dasharray:none;stroke-opacity:1" />
    <path
       id="path153"
       d="m 97.455666,84.704354 -0.839561,1.679135 0.839561,-0.629674 0.839562,0.629674"
       style="fill:#000000;fill-opacity:1;fill-rule:nonzero;stroke:none;stroke-width:0.526699" />
    <path
       id="path154"
       d="m 96.685461,82.033595 c 0.265406,-0.308618 0.487607,-0.499961 0.802392,-0.783886 0.376507,-0.327117 0.543157,-0.4876 0.629568,-0.580181 0.444402,-0.43206 0.660431,-0.802399 0.660431,-0.851773 0,-0.04942 -0.04937,-0.04942 -0.06172,-0.04942 -0.04321,0 -0.05555,0.02463 -0.08642,0.06793 -0.160478,0.271577 -0.308612,0.407365 -0.475263,0.407365 -0.129622,0 -0.197512,-0.06166 -0.320957,-0.209856 -0.129622,-0.154302 -0.240717,-0.265396 -0.419713,-0.265396 -0.462917,0 -0.734496,0.574014 -0.734496,0.703637 0,0.01851 0.0061,0.06166 0.06172,0.06166 0.04937,0 0.05555,-0.02464 0.07407,-0.07405 0.104928,-0.246898 0.407369,-0.296271 0.530813,-0.296271 0.129622,0 0.253062,0.04942 0.388851,0.104958 0.240718,0.09869 0.339473,0.09869 0.401197,0.09869 0.04321,0 0.06789,0 0.09876,-0.006 -0.203683,0.246898 -0.543157,0.549336 -0.82708,0.808566 l -0.635742,0.580196 c -0.382679,0.395018 -0.617224,0.765358 -0.617224,0.808565 0,0.03703 0.03086,0.04942 0.06789,0.04942 0.03704,0 0.04321,-0.006 0.08642,-0.08017 0.104928,-0.160483 0.302439,-0.388852 0.536986,-0.388852 0.129622,0 0.19751,0.04315 0.320956,0.197509 0.117276,0.141985 0.228373,0.271577 0.425885,0.271577 0.617224,0 0.975215,-0.796218 0.975215,-0.944354 0,-0.02464 -0.0061,-0.06166 -0.07407,-0.06166 -0.04937,0 -0.05555,0.02463 -0.07407,0.08644 -0.135788,0.370324 -0.512297,0.524641 -0.753014,0.524641 -0.135788,0 -0.259234,-0.04315 -0.395023,-0.09869 -0.24689,-0.104958 -0.320957,-0.104958 -0.401197,-0.104958 -0.06172,0 -0.129622,0 -0.185166,0.02463 z m 0,0"
       style="fill:#000000;fill-opacity:1;fill-rule:nonzero;stroke:none;stroke-width:0.526699"
       aria-label="z" />
    <path
       id="path155"
       d="M 97.455666,140.69264 80.953602,157.19471"
       style="fill:none;stroke:#000000;stroke-width:0.209889;stroke-linecap:butt;stroke-linejoin:miter;stroke-miterlimit:10;stroke-dasharray:none;stroke-opacity:1" />
    <path
       id="path156"
       d="m 80.21153,157.93677 1.780966,-0.59364 -1.038896,-0.14841 -0.148419,-1.03889"
       style="fill:#000000;fill-opacity:1;fill-rule:nonzero;stroke:none;stroke-width:0.526693" />
    <path
       id="path157"
       d="m 77.529901,156.72393 c -0.197512,0.037 -0.271578,0.18516 -0.271578,0.30861 0,0.1481 0.117275,0.19752 0.203682,0.19752 0.191341,0 0.320957,-0.16048 0.320957,-0.33331 0,-0.25923 -0.302439,-0.38267 -0.567846,-0.38267 -0.382679,0 -0.592535,0.3765 -0.654257,0.49994 -0.141955,-0.47525 -0.530814,-0.49994 -0.648086,-0.49994 -0.641913,0 -0.981388,0.82707 -0.981388,0.96286 0,0.0246 0.02469,0.0555 0.0679,0.0555 0.05555,0 0.0679,-0.037 0.08023,-0.0617 0.209856,-0.69747 0.635741,-0.82708 0.814736,-0.82708 0.283923,0 0.339474,0.25923 0.339474,0.41354 0,0.13586 -0.03704,0.28392 -0.111109,0.58636 l -0.216028,0.85794 c -0.09258,0.38268 -0.277751,0.72833 -0.611052,0.72833 -0.03086,0 -0.185167,0 -0.320957,-0.0802 0.228373,-0.0494 0.277751,-0.23455 0.277751,-0.30862 0,-0.12959 -0.09258,-0.20369 -0.209857,-0.20369 -0.154304,0 -0.314783,0.1296 -0.314783,0.33332 0,0.26539 0.296267,0.38267 0.561674,0.38267 0.30244,0 0.518469,-0.24072 0.648085,-0.49378 0.104929,0.37034 0.419713,0.49378 0.648086,0.49378 0.648086,0 0.987559,-0.82091 0.987559,-0.96287 0,-0.0309 -0.02469,-0.0555 -0.06789,-0.0555 -0.05555,0 -0.06172,0.0309 -0.08023,0.0803 -0.166651,0.5555 -0.536985,0.81473 -0.814738,0.81473 -0.2222,0 -0.345645,-0.16665 -0.345645,-0.42588 0,-0.13587 0.03086,-0.23455 0.129623,-0.65427 l 0.2222,-0.85177 c 0.09258,-0.38267 0.308612,-0.65425 0.592536,-0.65425 0.01851,0 0.191339,0 0.320957,0.0802 z m 0,0"
       style="fill:#000000;fill-opacity:1;fill-rule:nonzero;stroke:none;stroke-width:0.526699"
       aria-label="x" />
    <path
       id="path158"
       d="M 97.455666,140.69264 134.05536,115.2906"
       style="fill:none;stroke:#000000;stroke-width:0.419783;stroke-linecap:butt;stroke-linejoin:miter;stroke-miterlimit:10;stroke-dasharray:none;stroke-opacity:1" />
    <path
       id="path159"
       d="m 125.51603,124.06968 c 0.006,-0.0246 0.0185,-0.0679 0.0185,-0.0987 0,-0.0617 -0.0617,-0.0617 -0.0741,-0.0617 -0.006,0 -0.23455,0.0185 -0.34565,0.0309 -0.11108,0.006 -0.20369,0.0185 -0.31478,0.0246 -0.15432,0.0119 -0.19753,0.0185 -0.19753,0.13571 0,0.0617 0.0617,0.0617 0.1296,0.0617 0.32096,0 0.32096,0.0555 0.32096,0.11735 0,0.0246 0,0.037 -0.0309,0.1543 l -0.78389,3.12316 c -0.0185,0.0679 -0.0309,0.11735 -0.0309,0.21603 0,0.31479 0.23456,0.56784 0.55551,0.56784 0.20369,0 0.34564,-0.13572 0.4444,-0.3333 0.10496,-0.20986 0.19751,-0.60488 0.19751,-0.62957 0,-0.0309 -0.0246,-0.0555 -0.0617,-0.0555 -0.0617,0 -0.0679,0.0309 -0.0926,0.12347 -0.11108,0.43823 -0.22221,0.77153 -0.47526,0.77153 -0.19134,0 -0.19134,-0.20368 -0.19134,-0.29009 0,-0.0246 0,-0.16049 0.0431,-0.3333 z m 0,0"
       style="fill:#000000;fill-opacity:1;fill-rule:nonzero;stroke:none;stroke-width:0.526699"
       aria-label="l" />
    <path
       id="path160"
       d="m 97.455666,140.69264 36.599694,8.19094"
       style="fill:none;stroke:#000000;stroke-width:0.209889;stroke-linecap:butt;stroke-linejoin:miter;stroke-miterlimit:10;stroke-dasharray:1.57421, 1.57421;stroke-dashoffset:0;stroke-opacity:1" />
    <path
       id="path166"
       d="m 88.8336,149.3147 c 7.015042,0 13.92447,-1.64941 20.16812,-4.79759"
       style="fill:none;stroke:#ffa500;stroke-width:0.447899;stroke-linecap:butt;stroke-linejoin:miter;stroke-miterlimit:10;stroke-dasharray:none;stroke-opacity:1" />
    <path
       id="path167"
       d="m 111.22891,143.31402 c -0.72753,0.23046 -2.00113,0.43452 -2.97742,0.39939 l 0.99678,1.85928 c 0.51113,-0.83254 1.38601,-1.78031 1.98064,-2.25867"
       style="fill:#ffa500;fill-opacity:1;fill-rule:nonzero;stroke:none;stroke-width:0.526672" />
    <path
       id="path168"
       d="m 104.59982,153.66249 c -0.10492,0 -0.20368,0 -0.20368,-0.0309 0,-0.0119 0.1111,-0.60488 0.14814,-0.74066 0.19751,-0.80857 0.67894,-1.38877 1.22827,-1.38877 0.40737,0 0.59871,0.30862 0.59871,0.65427 0,0.72215 -0.80856,1.50602 -1.77143,1.50602 z m -0.27157,0.32713 c 0.037,0.006 0.0988,0.0119 0.21602,0.0119 1.03077,0 1.98129,-0.99373 1.98129,-1.98747 0,-0.38267 -0.16665,-0.85176 -0.69746,-0.85176 -0.90732,0 -1.29,1.27765 -1.64182,2.46273 -0.72832,-0.13572 -1.03076,-0.52465 -1.03076,-0.94436 0,-0.17283 0.13579,-0.84561 0.49995,-1.29618 0.0679,-0.0802 0.0679,-0.0926 0.0679,-0.10496 0,-0.0555 -0.0494,-0.0555 -0.0617,-0.0555 -0.16665,0 -0.64809,0.91966 -0.64809,1.51837 0,0.70364 0.5555,1.09249 1.06163,1.20359 l -0.32713,1.06163 c -0.0309,0.0987 -0.0309,0.11108 -0.0309,0.13571 0,0.14811 0.15431,0.1543 0.16665,0.1543 0.0617,0 0.17282,-0.0246 0.2222,-0.1481 0.0247,-0.0555 0.19751,-1.03076 0.2222,-1.16038 z m 0,0"
       style="fill:#ffa500;fill-opacity:1;fill-rule:nonzero;stroke:none;stroke-width:0.526699"
       aria-label="ϕ" />
    <path
       id="path169"
       d="m 112.74564,151.9034 c 0.0864,0 0.19752,0 0.19752,-0.1172 0,-0.11735 -0.10493,-0.11735 -0.19752,-0.11735 h -3.70951 c -0.0926,0 -0.20369,0 -0.20369,0.11108 0,0.12347 0.10493,0.12347 0.20369,0.12347 z m 0,1.16656 c 0.0864,0 0.19752,0 0.19752,-0.11108 0,-0.12347 -0.10493,-0.12347 -0.19752,-0.12347 h -3.70951 c -0.0926,0 -0.20369,0 -0.20369,0.1172 0,0.11735 0.10493,0.11735 0.20369,0.11735 z m 0,0"
       style="fill:#ffa500;fill-opacity:1;fill-rule:nonzero;stroke:none;stroke-width:0.526699"
       aria-label="=" />
    <path
       id="path170"
       d="m 118.77901,151.5701 c 0,-0.17899 -0.0494,-0.41355 -0.27158,-0.41355 -0.12344,0 -0.27158,0.16049 -0.27158,0.28393 0,0.0555 0.0247,0.0926 0.0741,0.1543 0.0988,0.10496 0.21603,0.27159 0.21603,0.56785 0,0.22838 -0.13579,0.58636 -0.24072,0.78389 -0.17282,0.34564 -0.46291,0.6419 -0.79004,0.6419 -0.39503,0 -0.54933,-0.25307 -0.61723,-0.60488 0.0679,-0.16665 0.21603,-0.57401 0.21603,-0.7345 0,-0.074 -0.0309,-0.12959 -0.11109,-0.12959 -0.0432,0 -0.0926,0.0246 -0.12345,0.074 -0.0864,0.14199 -0.17282,0.63576 -0.16665,0.77154 -0.11727,0.23454 -0.45674,0.62339 -0.85794,0.62339 -0.42588,0 -0.53698,-0.37032 -0.53698,-0.72831 0,-0.66043 0.40736,-1.22828 0.51846,-1.38877 0.0679,-0.0926 0.1111,-0.1543 0.1111,-0.16664 0,-0.0494 -0.0247,-0.11735 -0.0802,-0.11735 -0.10492,0 -0.13578,0.0864 -0.18516,0.16048 -0.32096,0.49378 -0.54933,1.19742 -0.54933,1.79613 0,0.39501 0.14813,0.85793 0.61722,0.85793 0.52464,0 0.85177,-0.4444 0.98139,-0.68512 0.0494,0.35183 0.24072,0.68512 0.70363,0.68512 0.47527,0 0.77771,-0.41971 1.00608,-0.932 0.16048,-0.36416 0.35799,-1.14805 0.35799,-1.49986 z m 1.58319,-0.16048 h 0.58019 c 0.11735,0 0.179,0 0.179,-0.11108 0,-0.074 -0.037,-0.074 -0.16049,-0.074 h -0.5555 l 0.23454,-0.91968 c 0.0246,-0.0864 0.0246,-0.0987 0.0246,-0.14198 0,-0.0987 -0.0802,-0.16049 -0.16665,-0.16049 -0.0494,0 -0.19132,0.0246 -0.24071,0.22221 l -0.24689,0.99991 h -0.59254 c -0.12344,0 -0.18516,0 -0.18516,0.12347 0,0.0617 0.0494,0.0617 0.16665,0.0617 h 0.56168 l -0.41971,1.66034 c -0.0494,0.2222 -0.0679,0.28392 -0.0679,0.36416 0,0.29627 0.20986,0.56784 0.56167,0.56784 0.63574,0 0.97522,-0.91966 0.97522,-0.96286 0,-0.037 -0.0246,-0.0555 -0.0617,-0.0555 -0.0119,0 -0.037,0 -0.0494,0.0246 -0.006,0.006 -0.0119,0.0119 -0.0555,0.11108 -0.13587,0.31479 -0.42588,0.75919 -0.79006,0.75919 -0.19132,0 -0.20367,-0.16048 -0.20367,-0.29627 0,-0.006 0,-0.12959 0.0185,-0.20369 z m 0,0"
       style="fill:#ffa500;fill-opacity:1;fill-rule:nonzero;stroke:none;stroke-width:0.526699"
       aria-label="ωt" />
    <path
       id="path171"
       d="m 97.455666,118.29732 c 6.872214,0 13.341334,3.1556 17.572224,8.51117"
       style="fill:none;stroke:#d32f2f;stroke-width:0.373245;stroke-linecap:butt;stroke-linejoin:miter;stroke-miterlimit:10;stroke-dasharray:none;stroke-opacity:1" />
    <path
       id="path172"
       d="m 115.80085,127.84718 -0.44505,-2.27233 -0.34556,1.24743 -1.29429,0.0176"
       style="fill:#d32f2f;fill-opacity:1;fill-rule:nonzero;stroke:none;stroke-width:0.526675" />
    <path
       id="path173"
       d="m 109.0639,115.4208 c 0,-0.64192 -0.20368,-1.26531 -0.71598,-1.26531 -0.88263,0 -1.82081,1.84551 -1.82081,3.22809 0,0.29009 0.0617,1.2653 0.72215,1.2653 0.85794,0 1.81464,-1.80229 1.81464,-3.22808 z m -1.90723,0.8888 c 0.0926,-0.37032 0.22838,-0.90115 0.47527,-1.35172 0.20985,-0.37651 0.43206,-0.67894 0.70981,-0.67894 0.20368,0 0.34564,0.17899 0.34564,0.78387 0,0.22838 -0.0185,0.54317 -0.20368,1.24679 z m 1.28383,0.18518 c -0.16048,0.61722 -0.29009,1.01842 -0.51847,1.41344 -0.17899,0.32095 -0.40119,0.61722 -0.6666,0.61722 -0.19134,0 -0.35182,-0.1543 -0.35182,-0.77771 0,-0.40736 0.0988,-0.83324 0.20369,-1.25295 z m 0,0"
       style="fill:#d32f2f;fill-opacity:1;fill-rule:nonzero;stroke:none;stroke-width:0.526699"
       aria-label="θ" />
    <path
       id="path174"
       d="m 135.27741,115.11527 c 0,-0.67278 -0.56166,-1.22211 -1.22209,-1.22211 -0.67895,0 -1.22828,0.56168 -1.22828,1.22211 0,0.6666 0.54933,1.2221 1.22828,1.2221 0.66043,0 1.22209,-0.54932 1.22209,-1.2221 z m 0,0"
       style="fill:#000000;fill-opacity:1;fill-rule:nonzero;stroke:none;stroke-width:0.526699"
       aria-label="•" />
    <path
       id="path161"
       d="M 134.13044,115.15918 V 138.1367"
       style="fill:#8bc34a;stroke:#8bc34a;stroke-width:0.376;stroke-linecap:butt;stroke-linejoin:miter;stroke-miterlimit:10;stroke-dasharray:none;stroke-opacity:1" />
    <path
       id="path162"
       d="m 134.13044,139.26638 0.90373,-1.80749 -0.90373,0.67781 -0.90374,-0.67781"
       style="fill:#8bc34a;fill-opacity:1;fill-rule:nonzero;stroke:none;stroke-width:0.566959" />
    <path
       id="path163"
       d="m 137.18166,124.20066 c -0.12632,0.0265 -0.14625,0.20597 -0.0129,0.25248 0.0598,0.0199 0.12632,0.006 0.18603,0.006 h 2.00651 c 0.0664,0 0.13291,0.006 0.18603,-0.0333 0.0731,-0.0598 0.0532,-0.17938 -0.0333,-0.21926 -0.0464,-0.0199 -0.0931,-0.0129 -0.14609,-0.0129 h -1.96664 c -0.0731,0 -0.15284,-0.0129 -0.21924,0.006 z m 0,0"
       style="fill:#8bc34a;fill-opacity:1;fill-rule:nonzero;stroke:none;stroke-width:0.566959"
       aria-label="#" />
    <path
       id="path164"
       d="m 140.94716,124.19403 h -2.32542 c -0.0532,0 -0.11957,-0.006 -0.17273,0.006 -0.0598,0.006 -0.10639,0.0664 -0.10639,0.12632 0,0.0598 0.0464,0.11957 0.10639,0.12616 0.0532,0.0129 0.11957,0.006 0.17273,0.006 h 2.32542 c -0.10623,0.17275 -0.21261,0.33221 -0.3189,0.50495 -0.0265,0.0464 -0.10624,0.12615 -0.0664,0.18604 0.0199,0.0265 0.0598,0.0265 0.0863,0.0129 0.0598,-0.0199 0.11957,-0.0598 0.17939,-0.093 0.26577,-0.14625 0.53153,-0.29234 0.79728,-0.4385 0.11957,-0.0664 0.23919,-0.1395 0.36543,-0.20597 0.0399,-0.0199 0.10623,-0.0465 0.10623,-0.0996 0,-0.0532 -0.0664,-0.0797 -0.10623,-0.0996 -0.12632,-0.0731 -0.24583,-0.1395 -0.36543,-0.20597 -0.26575,-0.14608 -0.53151,-0.29233 -0.79728,-0.4385 -0.0598,-0.0333 -0.11957,-0.0731 -0.17939,-0.0996 -0.0265,-0.0129 -0.0664,-0.0129 -0.0863,0.0199 -0.0399,0.0598 0.0399,0.13949 0.0664,0.18602 0.10623,0.17275 0.2126,0.33221 0.3189,0.50496 z m 0,0"
       style="fill:#8bc34a;fill-opacity:1;fill-rule:nonzero;stroke:none;stroke-width:0.566959"
       aria-label="„" />
    <path
       id="path165"
       d="m 138.68654,128.33659 h 1.13613 c 0.93681,0 1.87362,-0.69099 1.87362,-1.46834 0,-0.52487 -0.4518,-1.00988 -1.30224,-1.00988 h -2.09287 c -0.1329,0 -0.19267,0 -0.19267,0.13291 0,0.0664 0.0598,0.0664 0.16609,0.0664 0.41194,0 0.41194,0.0532 0.41194,0.12632 0,0.0129 0,0.0532 -0.0265,0.15943 l -0.91688,3.64756 c -0.0598,0.23255 -0.0731,0.29899 -0.54481,0.29899 -0.13291,0 -0.19932,0 -0.19932,0.12632 0,0.0731 0.0598,0.0731 0.0996,0.0731 0.13291,0 0.26577,-0.0129 0.392,-0.0129 h 0.79729 c 0.12632,0 0.27241,0.0129 0.39865,0.0129 0.0532,0 0.12616,0 0.12616,-0.12616 0,-0.0731 -0.0598,-0.0731 -0.15943,-0.0731 -0.40528,0 -0.41192,-0.0464 -0.41192,-0.11298 0,-0.0333 0.006,-0.0797 0.0129,-0.11298 z m 0.48502,-2.01315 c 0.0664,-0.25247 0.093,-0.26576 0.35212,-0.26576 h 0.67105 c 0.5116,0 0.93016,0.15943 0.93016,0.67104 0,0.17275 -0.0863,0.75079 -0.39863,1.06305 -0.11298,0.11957 -0.43851,0.37872 -1.05641,0.37872 h -0.95674 z m 0,0"
       style="fill:#8bc34a;fill-opacity:1;fill-rule:nonzero;stroke:none;stroke-width:0.566959"
       aria-label="P" />
  </g>
</svg>
