<?xml version="1.0" encoding="UTF-8" standalone="no"?>
<!-- Created with Inkscape (http://www.inkscape.org/) -->

<svg
   width="27.135078mm"
   height="18.969509mm"
   viewBox="0 0 27.135078 18.969509"
   version="1.1"
   id="svg1"
   inkscape:version="1.4.2 (1:1.4.2+202505120737+ebf0e940d0)"
   sodipodi:docname="sarrus.svg"
   xmlns:inkscape="http://www.inkscape.org/namespaces/inkscape"
   xmlns:sodipodi="http://sodipodi.sourceforge.net/DTD/sodipodi-0.dtd"
   xmlns="http://www.w3.org/2000/svg"
   xmlns:svg="http://www.w3.org/2000/svg">
  <sodipodi:namedview
     id="namedview1"
     pagecolor="#ffffff"
     bordercolor="#000000"
     borderopacity="0.25"
     inkscape:showpageshadow="2"
     inkscape:pageopacity="0.0"
     inkscape:pagecheckerboard="0"
     inkscape:deskcolor="#d1d1d1"
     inkscape:document-units="mm"
     showgrid="true"
     inkscape:zoom="2.8471661"
     inkscape:cx="63.220758"
     inkscape:cy="36.351936"
     inkscape:window-width="1920"
     inkscape:window-height="1008"
     inkscape:window-x="0"
     inkscape:window-y="0"
     inkscape:window-maximized="1"
     inkscape:current-layer="layer1">
    <inkscape:grid
       id="grid1"
       units="mm"
       originx="-86.518748"
       originy="-140.22913"
       spacingx="0.26458333"
       spacingy="0.26458334"
       empcolor="#0099e5"
       empopacity="0.30196078"
       color="#0099e5"
       opacity="0.14901961"
       empspacing="5"
       enabled="true"
       visible="true" />
  </sodipodi:namedview>
  <defs
     id="defs1" />
  <g
     inkscape:label="Layer 1"
     inkscape:groupmode="layer"
     id="layer1"
     transform="translate(-86.51875,-140.22914)">
    <path
       style="fill:#d32f2f;fill-opacity:0.5;stroke:#d32f2f;stroke-width:1.11125;stroke-linejoin:round;stroke-opacity:0.5"
       d="M 88.635409,156.8564 101.86458,142.30431"
       id="path1-3" />
    <path
       style="fill:#d32f2f;fill-opacity:0.5;stroke:#d32f2f;stroke-width:1.11125;stroke-linejoin:round;stroke-opacity:0.5"
       d="m 94.04904,157.40633 13.22917,-14.55209"
       id="path1-6-7" />
    <path
       style="fill:#d32f2f;fill-opacity:0.5;stroke:#d32f2f;stroke-width:1.11125;stroke-linejoin:round;stroke-opacity:0.5"
       d="M 100.01353,157.0817 113.2427,142.52961"
       id="path1-7-5" />
    <path
       style="fill:#d32f2f;fill-opacity:0.5;stroke:#03a9f4;stroke-width:1.11125;stroke-linejoin:round;stroke-opacity:0.5"
       d="m 88.635413,142.875 13.229167,14.55209"
       id="path1" />
    <path
       id="path35"
       d="m 86.812286,146.58745 c 0.07855,0 0.09922,0 0.09922,-0.0496 0.0041,-2.46393 0.289388,-4.51032 1.521354,-6.23011 0.02479,-0.0289 0.02479,-0.0372 0.02479,-0.0455 0,-0.0331 -0.02479,-0.0331 -0.08268,-0.0331 -0.05374,0 -0.06201,0 -0.07028,0.008 -0.01241,0.008 -0.458885,0.5209 -0.814419,1.22783 -0.463021,0.92604 -0.756545,1.99264 -0.884701,3.27008 -0.01241,0.11163 -0.08682,0.84336 -0.08682,1.67432 v 0.13643 c 0.0041,0.0413 0.02479,0.0413 0.09922,0.0413 z m 0.09922,0.0217 c 0,-0.0909 -0.0041,-0.0951 -0.09922,-0.0951 h -0.194302 c -0.09509,0 -0.09922,0.004 -0.09922,0.0951 v 1.99264 c 0,0.0909 0.0041,0.0951 0.09922,0.0951 h 0.194302 c 0.09509,0 0.09922,-0.004 0.09922,-0.0951 z m 0,2.10943 c 0,-0.0909 -0.0041,-0.0951 -0.09922,-0.0951 h -0.194302 c -0.09509,0 -0.09922,0.004 -0.09922,0.0951 v 1.99264 c 0,0.0909 0.0041,0.0951 0.09922,0.0951 h 0.194302 c 0.09509,0 0.09922,-0.004 0.09922,-0.0951 z m 0,2.1084 c 0,-0.0909 -0.0041,-0.0951 -0.09922,-0.0951 h -0.194302 c -0.09509,0 -0.09922,0.004 -0.09922,0.0951 v 1.99264 c 0,0.091 0.0041,0.0951 0.09922,0.0951 h 0.194302 c 0.09509,0 0.09922,-0.004 0.09922,-0.0951 z m -0.293521,2.01331 c -0.07441,0 -0.09509,0 -0.09922,0.0413 v 0.13643 c 0,2.1456 0.384472,3.40651 0.491959,3.76204 0.239778,0.77722 0.632521,1.59991 1.215429,2.32337 0.05375,0.0662 0.07028,0.0827 0.08268,0.0868 0.0083,0.004 0.01241,0.008 0.06615,0.008 0.05788,0 0.08268,0 0.08268,-0.0331 0,-0.008 0,-0.0165 -0.02066,-0.0455 -1.169956,-1.62471 -1.521354,-3.58015 -1.525487,-6.23012 0,-0.0496 -0.02066,-0.0496 -0.09922,-0.0496 z m 0,0"
       style="fill:#000000;fill-opacity:1;fill-rule:nonzero;stroke:none;stroke-width:0.352777" />
    <path
       id="path36"
       d="m 89.883935,143.32667 c -0.06201,-0.13229 -0.165365,-0.22738 -0.322461,-0.22738 -0.413412,0 -0.847495,0.51676 -0.847495,1.0294 0,0.33072 0.194305,0.56223 0.467156,0.56223 0.07028,0 0.248047,-0.0124 0.458886,-0.26045 0.02479,0.1447 0.148828,0.26045 0.318328,0.26045 0.124023,0 0.20257,-0.0785 0.260448,-0.19016 0.05788,-0.12816 0.103354,-0.34314 0.103354,-0.35141 0,-0.0331 -0.02894,-0.0331 -0.04134,-0.0331 -0.03307,0 -0.03721,0.0124 -0.04961,0.062 -0.05788,0.22738 -0.124023,0.43822 -0.264583,0.43822 -0.09509,0 -0.107487,-0.0909 -0.107487,-0.16123 0,-0.0785 0.0083,-0.10749 0.04547,-0.26045 0.04134,-0.14883 0.04548,-0.18604 0.07855,-0.31833 l 0.124024,-0.49196 c 0.02479,-0.0992 0.02479,-0.10335 0.02479,-0.11989 0,-0.0579 -0.04134,-0.0951 -0.09922,-0.0951 -0.08682,0 -0.136424,0.0786 -0.148828,0.1571 z m -0.227378,0.9095 c -0.01654,0.062 -0.01654,0.0703 -0.07028,0.12816 -0.157096,0.1943 -0.297656,0.25218 -0.396875,0.25218 -0.177768,0 -0.227377,-0.1943 -0.227377,-0.33073 0,-0.17777 0.115755,-0.60771 0.194304,-0.76894 0.107487,-0.21085 0.268717,-0.339 0.409276,-0.339 0.227378,0 0.276987,0.28939 0.276987,0.31006 0,0.0207 -0.0083,0.0413 -0.01241,0.0579 z m 5.383652,-1.98437 c 0,0 0,-0.0372 -0.04548,-0.0372 -0.07855,0 -0.334862,0.0289 -0.429948,0.0372 -0.02479,0 -0.06615,0.004 -0.06615,0.0703 0,0.0413 0.03307,0.0413 0.08682,0.0413 0.165365,0 0.173633,0.0248 0.173633,0.0579 0,0.0248 -0.02894,0.1447 -0.04961,0.21911 l -0.285255,1.14515 c -0.04547,0.17777 -0.05788,0.23151 -0.05788,0.35554 0,0.33486 0.186036,0.54983 0.446484,0.54983 0.413411,0 0.847495,-0.52089 0.847495,-1.02939 0,-0.31833 -0.186037,-0.56224 -0.467156,-0.56224 -0.16123,0 -0.305925,0.10335 -0.413412,0.21084 z m -0.33073,1.33118 c 0.02066,-0.0785 0.02066,-0.0868 0.05374,-0.12402 0.173632,-0.22738 0.330729,-0.28112 0.421679,-0.28112 0.128159,0 0.223242,0.10335 0.223242,0.33073 0,0.2067 -0.115755,0.61185 -0.181901,0.74414 -0.115755,0.23564 -0.276984,0.3638 -0.413411,0.3638 -0.119888,0 -0.235643,-0.0951 -0.235643,-0.35553 0,-0.0661 0,-0.13643 0.05788,-0.35554 z m 6.454391,-0.26458 c -0.0579,0 -0.10749,0 -0.1571,0.0496 -0.0538,0.0537 -0.062,0.11162 -0.062,0.13642 0,0.0827 0.062,0.12403 0.12815,0.12403 0.10336,0 0.19844,-0.0868 0.19844,-0.22738 0,-0.1695 -0.16536,-0.30179 -0.41341,-0.30179 -0.47542,0 -0.942577,0.50436 -0.942577,1.00045 0,0.3142 0.202567,0.59118 0.570507,0.59118 0.50023,0 0.79788,-0.37207 0.79788,-0.41341 0,-0.0207 -0.0248,-0.0455 -0.0455,-0.0455 -0.0165,0 -0.0248,0.008 -0.0455,0.0331 -0.27698,0.3514 -0.66146,0.3514 -0.7028,0.3514 -0.2191,0 -0.31419,-0.17363 -0.31419,-0.38447 0,-0.1447 0.0703,-0.48369 0.19017,-0.7028 0.10749,-0.19844 0.30179,-0.3514 0.49609,-0.3514 0.11576,0 0.25219,0.0455 0.3018,0.14056 z m -10.761106,5.25962 c 0,0 0,-0.0372 -0.04547,-0.0372 -0.05375,0 -0.388607,0.0331 -0.446484,0.0372 -0.02894,0.004 -0.04961,0.0248 -0.04961,0.0703 0,0.0413 0.02894,0.0413 0.08268,0.0413 0.169497,0 0.177765,0.0248 0.177765,0.0579 l -0.01241,0.0703 -0.210838,0.83508 c -0.06201,-0.13229 -0.165365,-0.22737 -0.322461,-0.22737 -0.413412,0 -0.847495,0.51676 -0.847495,1.02939 0,0.33073 0.194305,0.56224 0.467156,0.56224 0.07028,0 0.248047,-0.0124 0.458886,-0.26045 0.02479,0.1447 0.148828,0.26045 0.318328,0.26045 0.124023,0 0.20257,-0.0785 0.260448,-0.19017 0.05788,-0.12815 0.103354,-0.34313 0.103354,-0.3514 0,-0.0331 -0.02894,-0.0331 -0.04134,-0.0331 -0.03307,0 -0.03721,0.0124 -0.04961,0.062 -0.05788,0.22738 -0.124023,0.43822 -0.264583,0.43822 -0.09509,0 -0.107487,-0.0909 -0.107487,-0.16123 0,-0.0868 0.0083,-0.11162 0.02066,-0.1695 z m -0.731737,1.98438 c -0.01654,0.062 -0.01654,0.0703 -0.07028,0.12816 -0.157097,0.1943 -0.297656,0.25218 -0.396875,0.25218 -0.177766,0 -0.227375,-0.1943 -0.227375,-0.33073 0,-0.17777 0.115755,-0.60772 0.194302,-0.76894 0.107487,-0.21085 0.268719,-0.339 0.409279,-0.339 0.227374,0 0.276984,0.28939 0.276984,0.31006 0,0.0207 -0.0083,0.0413 -0.01241,0.0579 z m 5.123201,-0.39274 c 0.103352,0 0.363802,-0.008 0.537435,-0.0827 0.248047,-0.10336 0.264583,-0.3142 0.264583,-0.35967 0,-0.1571 -0.136427,-0.30179 -0.376205,-0.30179 -0.39274,0 -0.921907,0.34313 -0.921907,0.95498 0,0.35967 0.206706,0.63665 0.553972,0.63665 0.500226,0 0.797883,-0.37207 0.797883,-0.41341 0,-0.0207 -0.02479,-0.0455 -0.04547,-0.0455 -0.01654,0 -0.02479,0.008 -0.04548,0.0331 -0.276984,0.3514 -0.661458,0.3514 -0.702799,0.3514 -0.272852,0 -0.305925,-0.29766 -0.305925,-0.40928 0,-0.0413 0.0041,-0.15296 0.05788,-0.3638 z m -0.165364,-0.0786 c 0.136424,-0.5333 0.500226,-0.58704 0.591177,-0.58704 0.165364,0 0.26045,0.10335 0.26045,0.22324 0,0.3638 -0.562239,0.3638 -0.706935,0.3638 z m 6.140196,-0.51676 h 0.30179 c 0.0703,0 0.10748,0 0.10748,-0.0703 0,-0.0372 -0.0372,-0.0372 -0.0951,-0.0372 h -0.29352 l 0.0744,-0.40101 c 0.0124,-0.0744 0.062,-0.32246 0.0827,-0.36794 0.0331,-0.0661 0.091,-0.11989 0.16537,-0.11989 0.0165,0 0.10749,0 0.17363,0.0661 -0.15296,0.0124 -0.19017,0.13643 -0.19017,0.19017 0,0.0786 0.062,0.11989 0.12816,0.11989 0.0951,0 0.1943,-0.0744 0.1943,-0.21084 0,-0.16123 -0.16123,-0.23978 -0.30592,-0.23978 -0.11989,0 -0.339,0.062 -0.44649,0.40928 -0.0207,0.0744 -0.0289,0.11162 -0.11575,0.55397 h -0.23978 c -0.0703,0 -0.10749,0 -0.10749,0.0661 0,0.0413 0.0331,0.0413 0.0992,0.0413 h 0.23151 l -0.26458,1.38906 c -0.062,0.339 -0.11989,0.66146 -0.305924,0.66146 -0.01241,0 -0.09922,0 -0.165365,-0.0661 0.161229,-0.008 0.190167,-0.13643 0.190167,-0.19017 0,-0.0786 -0.06201,-0.11989 -0.128156,-0.11989 -0.09095,0 -0.194302,0.0744 -0.194302,0.21084 0,0.1571 0.15296,0.23978 0.297656,0.23978 0.194304,0 0.334864,-0.2067 0.396874,-0.339 0.11576,-0.22324 0.1943,-0.64905 0.19844,-0.67385 z m -10.51409,6.40891 c 0.0041,-0.0248 0.01241,-0.0413 0.01241,-0.0661 0,-0.0579 -0.04134,-0.0951 -0.103354,-0.0951 -0.03307,0 -0.128156,0.0248 -0.144693,0.15296 -0.06201,-0.13229 -0.186036,-0.22324 -0.326593,-0.22324 -0.401011,0 -0.835094,0.49196 -0.835094,1.00045 0,0.34727 0.214974,0.55398 0.467156,0.55398 0.206706,0 0.372071,-0.16537 0.409276,-0.20258 l 0.0041,0.004 c -0.07441,0.31006 -0.115755,0.45475 -0.115755,0.46302 -0.01654,0.0289 -0.136425,0.38034 -0.508495,0.38034 -0.06615,0 -0.181901,-0.004 -0.28112,-0.0372 0.107487,-0.0331 0.144693,-0.12402 0.144693,-0.1819 0,-0.0579 -0.03721,-0.12402 -0.132292,-0.12402 -0.07855,0 -0.190169,0.062 -0.190169,0.20257 0,0.14469 0.128159,0.21497 0.467156,0.21497 0.438216,0 0.690396,-0.27285 0.744141,-0.48369 z m -0.454752,0.8723 c -0.02066,0.0909 -0.103352,0.1819 -0.177768,0.24804 -0.07441,0.062 -0.186034,0.12403 -0.285253,0.12403 -0.177768,0 -0.23151,-0.1819 -0.23151,-0.32246 0,-0.1695 0.103351,-0.58291 0.198437,-0.76068 0.09509,-0.17363 0.248047,-0.31419 0.392742,-0.31419 0.231511,0 0.28112,0.28525 0.28112,0.30179 0,0.0165 -0.0041,0.0372 -0.0083,0.0537 z m 5.148006,-1.95131 c 0,0 0,-0.0372 -0.04547,-0.0372 -0.08268,0 -0.338998,0.0289 -0.429948,0.0372 -0.02894,0 -0.06615,0.004 -0.06615,0.0703 0,0.0413 0.03307,0.0413 0.08268,0.0413 0.169498,0 0.177766,0.0248 0.177766,0.0579 l -0.01241,0.0703 -0.508498,2.02572 c -0.01241,0.0496 -0.01241,0.0537 -0.01241,0.0786 0,0.0786 0.07028,0.0951 0.09922,0.0951 0.05788,0 0.115755,-0.0413 0.132292,-0.0909 l 0.06615,-0.26458 0.07855,-0.31833 c 0.02066,-0.0786 0.04134,-0.15296 0.05788,-0.23564 0.0083,-0.0207 0.03721,-0.13643 0.04134,-0.1571 0.0083,-0.0331 0.115755,-0.22738 0.235643,-0.32246 0.07855,-0.0579 0.186037,-0.12402 0.339,-0.12402 0.148828,0 0.190167,0.11989 0.190167,0.24391 0,0.19017 -0.132292,0.57464 -0.219107,0.78961 -0.02894,0.0786 -0.04548,0.12403 -0.04548,0.19431 0,0.16536 0.124027,0.28525 0.289391,0.28525 0.330729,0 0.458886,-0.51263 0.458886,-0.54157 0,-0.0331 -0.03307,-0.0331 -0.04134,-0.0331 -0.03721,0 -0.03721,0.008 -0.05374,0.062 -0.05374,0.18604 -0.165364,0.43822 -0.359669,0.43822 -0.05788,0 -0.08268,-0.0372 -0.08268,-0.11576 0,-0.0909 0.03307,-0.17363 0.06201,-0.25218 0.05787,-0.14883 0.214974,-0.56637 0.214974,-0.77308 0,-0.22737 -0.140563,-0.3762 -0.405146,-0.3762 -0.219107,0 -0.388604,0.11162 -0.516763,0.27285 z m 5.972766,0.20671 c 0,-0.0703 -0.0455,-0.12816 -0.12816,-0.12816 -0.0951,0 -0.19017,0.0909 -0.19017,0.18604 0,0.0661 0.0496,0.12816 0.13229,0.12816 0.0827,0 0.18604,-0.0827 0.18604,-0.18604 z m -0.26459,1.31878 c 0.0413,-0.0992 0.0413,-0.10748 0.0785,-0.20257 0.0248,-0.0703 0.0455,-0.11989 0.0455,-0.18603 0,-0.1571 -0.11576,-0.28939 -0.28939,-0.28939 -0.33073,0 -0.46302,0.51263 -0.46302,0.54157 0,0.0372 0.0331,0.0372 0.0413,0.0372 0.0331,0 0.0372,-0.008 0.0537,-0.0661 0.0951,-0.33073 0.23565,-0.43408 0.35553,-0.43408 0.0289,0 0.091,0 0.091,0.11162 0,0.0744 -0.0248,0.14883 -0.0413,0.1819 -0.0289,0.0909 -0.18603,0.50023 -0.23977,0.65319 -0.0372,0.091 -0.0827,0.2067 -0.0827,0.28112 0,0.16536 0.11989,0.28525 0.28939,0.28525 0.33073,0 0.45889,-0.50849 0.45889,-0.54157 0,-0.0331 -0.0331,-0.0331 -0.0413,-0.0331 -0.0372,0 -0.0372,0.008 -0.0537,0.062 -0.062,0.22324 -0.17776,0.43822 -0.35966,0.43822 -0.0579,0 -0.0827,-0.0372 -0.0827,-0.11576 0,-0.0909 0.0207,-0.14056 0.10336,-0.3514 z m 0,0"
       style="fill:#000000;fill-opacity:1;fill-rule:nonzero;stroke:none;stroke-width:0.352777" />
    <path
       id="path37"
       d="m 103.63503,146.40968 c 0,-2.1456 -0.38447,-3.40651 -0.49196,-3.75791 -0.23978,-0.78135 -0.63252,-1.60403 -1.21956,-2.3275 -0.0496,-0.0662 -0.0661,-0.0827 -0.0785,-0.0868 -0.008,-0.004 -0.0124,-0.008 -0.0661,-0.008 -0.0537,0 -0.0827,0 -0.0827,0.0331 0,0.008 0,0.0165 0.0455,0.0786 1.22369,1.70739 1.49655,3.81579 1.50068,6.19704 0,0.0496 0.0207,0.0496 0.0992,0.0496 h 0.1943 c 0.0744,0 0.0951,0 0.0992,-0.0413 z m 0,0.19947 c 0,-0.0909 -0.004,-0.0951 -0.0992,-0.0951 h -0.1943 c -0.0951,0 -0.0992,0.004 -0.0992,0.0951 v 1.99265 c 0,0.0909 0.004,0.0951 0.0992,0.0951 h 0.1943 c 0.0951,0 0.0992,-0.004 0.0992,-0.0951 z m 0,2.10944 c 0,-0.091 -0.004,-0.0951 -0.0992,-0.0951 h -0.1943 c -0.0951,0 -0.0992,0.004 -0.0992,0.0951 v 1.99264 c 0,0.0909 0.004,0.0951 0.0992,0.0951 h 0.1943 c 0.0951,0 0.0992,-0.004 0.0992,-0.0951 z m 0,2.10839 c 0,-0.0909 -0.004,-0.0951 -0.0992,-0.0951 h -0.1943 c -0.0951,0 -0.0992,0.004 -0.0992,0.0951 v 1.99265 c 0,0.091 0.004,0.0951 0.0992,0.0951 h 0.1943 c 0.0951,0 0.0992,-0.004 0.0992,-0.0951 z m 0,2.05466 c -0.004,-0.0413 -0.0248,-0.0413 -0.0992,-0.0413 h -0.1943 c -0.0785,0 -0.0992,0 -0.0992,0.0496 0,0.3638 -0.004,1.19889 -0.0951,2.07532 -0.19017,1.81488 -0.65733,3.07578 -1.42627,4.15479 -0.0248,0.0289 -0.0248,0.0372 -0.0248,0.0455 0,0.0331 0.0289,0.0331 0.0827,0.0331 0.0537,0 0.062,0 0.0703,-0.008 0.0124,-0.008 0.45889,-0.5209 0.81442,-1.22783 0.46302,-0.92604 0.75654,-1.99264 0.8847,-3.27008 0.0124,-0.11162 0.0868,-0.84336 0.0868,-1.67432 z m 0,0"
       style="fill:#000000;fill-opacity:1;fill-rule:nonzero;stroke:none;stroke-width:0.352777" />
    <path
       id="path38"
       d="m 107.25444,143.32667 c -0.062,-0.13229 -0.16536,-0.22738 -0.32246,-0.22738 -0.41341,0 -0.84749,0.51676 -0.84749,1.0294 0,0.33072 0.1943,0.56223 0.46715,0.56223 0.0703,0 0.24805,-0.0124 0.45889,-0.26045 0.0248,0.1447 0.14883,0.26045 0.31833,0.26045 0.12402,0 0.20257,-0.0785 0.26044,-0.19016 0.0579,-0.12816 0.10336,-0.34314 0.10336,-0.35141 0,-0.0331 -0.0289,-0.0331 -0.0413,-0.0331 -0.0331,0 -0.0372,0.0124 -0.0496,0.062 -0.0579,0.22738 -0.12403,0.43822 -0.26459,0.43822 -0.0951,0 -0.10748,-0.0909 -0.10748,-0.16123 0,-0.0785 0.008,-0.10749 0.0455,-0.26045 0.0413,-0.14883 0.0455,-0.18604 0.0786,-0.31833 l 0.12402,-0.49196 c 0.0248,-0.0992 0.0248,-0.10335 0.0248,-0.11989 0,-0.0579 -0.0413,-0.0951 -0.0992,-0.0951 -0.0868,0 -0.13642,0.0786 -0.14883,0.1571 z m -0.22737,0.9095 c -0.0165,0.062 -0.0165,0.0703 -0.0703,0.12816 -0.1571,0.1943 -0.29766,0.25218 -0.39688,0.25218 -0.17777,0 -0.22738,-0.1943 -0.22738,-0.33073 0,-0.17777 0.11576,-0.60771 0.19431,-0.76894 0.10749,-0.21085 0.26871,-0.339 0.40927,-0.339 0.22738,0 0.27699,0.28939 0.27699,0.31006 0,0.0207 -0.008,0.0413 -0.0124,0.0579 z m 5.38365,-1.98437 c 0,0 0,-0.0372 -0.0455,-0.0372 -0.0786,0 -0.33486,0.0289 -0.42995,0.0372 -0.0248,0 -0.0661,0.004 -0.0661,0.0703 0,0.0413 0.033,0.0413 0.0868,0.0413 0.16537,0 0.17364,0.0248 0.17364,0.0579 0,0.0248 -0.0289,0.1447 -0.0496,0.21911 l -0.28526,1.14515 c -0.0455,0.17777 -0.0579,0.23151 -0.0579,0.35554 0,0.33486 0.18603,0.54983 0.44648,0.54983 0.41341,0 0.84749,-0.52089 0.84749,-1.02939 0,-0.31833 -0.18603,-0.56224 -0.46715,-0.56224 -0.16123,0 -0.30592,0.10335 -0.41341,0.21084 z m -0.33073,1.33118 c 0.0207,-0.0785 0.0207,-0.0868 0.0537,-0.12402 0.17363,-0.22738 0.33073,-0.28112 0.42168,-0.28112 0.12816,0 0.22324,0.10335 0.22324,0.33073 0,0.2067 -0.11575,0.61185 -0.1819,0.74414 -0.11575,0.23564 -0.27698,0.3638 -0.41341,0.3638 -0.11989,0 -0.23564,-0.0951 -0.23564,-0.35553 0,-0.0661 0,-0.13643 0.0579,-0.35554 z m -4.30672,4.99504 c 0,0 0,-0.0372 -0.0455,-0.0372 -0.0538,0 -0.38861,0.0331 -0.44649,0.0372 -0.0289,0.004 -0.0496,0.0248 -0.0496,0.0703 0,0.0413 0.0289,0.0413 0.0827,0.0413 0.16949,0 0.17776,0.0248 0.17776,0.0579 l -0.0124,0.0703 -0.21084,0.83508 c -0.062,-0.13229 -0.16537,-0.22737 -0.32246,-0.22737 -0.41341,0 -0.8475,0.51676 -0.8475,1.02939 0,0.33073 0.19431,0.56224 0.46716,0.56224 0.0703,0 0.24804,-0.0124 0.45889,-0.26045 0.0248,0.1447 0.14882,0.26045 0.31832,0.26045 0.12403,0 0.20257,-0.0785 0.26045,-0.19017 0.0579,-0.12815 0.10335,-0.34313 0.10335,-0.3514 0,-0.0331 -0.0289,-0.0331 -0.0413,-0.0331 -0.0331,0 -0.0372,0.0124 -0.0496,0.062 -0.0579,0.22738 -0.12402,0.43822 -0.26458,0.43822 -0.0951,0 -0.10749,-0.0909 -0.10749,-0.16123 0,-0.0868 0.008,-0.11162 0.0207,-0.1695 z m -0.73173,1.98438 c -0.0165,0.062 -0.0165,0.0703 -0.0703,0.12816 -0.1571,0.1943 -0.29766,0.25218 -0.39688,0.25218 -0.17777,0 -0.22738,-0.1943 -0.22738,-0.33073 0,-0.17777 0.11576,-0.60772 0.19431,-0.76894 0.10749,-0.21085 0.26871,-0.339 0.40927,-0.339 0.22738,0 0.27699,0.28939 0.27699,0.31006 0,0.0207 -0.008,0.0413 -0.0124,0.0579 z m 5.12423,-0.39274 c 0.10335,0 0.3638,-0.008 0.53743,-0.0827 0.24805,-0.10336 0.26459,-0.3142 0.26459,-0.35967 0,-0.1571 -0.13643,-0.30179 -0.3762,-0.30179 -0.39275,0 -0.92191,0.34313 -0.92191,0.95498 0,0.35967 0.2067,0.63665 0.55397,0.63665 0.50023,0 0.79788,-0.37207 0.79788,-0.41341 0,-0.0207 -0.0248,-0.0455 -0.0455,-0.0455 -0.0165,0 -0.0248,0.008 -0.0455,0.0331 -0.27698,0.3514 -0.66146,0.3514 -0.7028,0.3514 -0.27285,0 -0.30592,-0.29766 -0.30592,-0.40928 0,-0.0413 0.004,-0.15296 0.0579,-0.3638 z m -0.16536,-0.0786 c 0.13642,-0.5333 0.50022,-0.58704 0.59118,-0.58704 0.16536,0 0.26044,0.10335 0.26044,0.22324 0,0.3638 -0.56224,0.3638 -0.70693,0.3638 z m -4.37493,5.89215 c 0.004,-0.0248 0.0124,-0.0413 0.0124,-0.0661 0,-0.0579 -0.0413,-0.0951 -0.10335,-0.0951 -0.0331,0 -0.12816,0.0248 -0.1447,0.15296 -0.062,-0.13229 -0.18603,-0.22324 -0.32659,-0.22324 -0.40101,0 -0.83509,0.49196 -0.83509,1.00045 0,0.34727 0.21497,0.55398 0.46715,0.55398 0.20671,0 0.37207,-0.16537 0.40928,-0.20258 l 0.004,0.004 c -0.0744,0.31006 -0.11576,0.45475 -0.11576,0.46302 -0.0165,0.0289 -0.13642,0.38034 -0.50849,0.38034 -0.0662,0 -0.18191,-0.004 -0.28112,-0.0372 0.10748,-0.0331 0.14469,-0.12402 0.14469,-0.1819 0,-0.0579 -0.0372,-0.12402 -0.13229,-0.12402 -0.0786,0 -0.19017,0.062 -0.19017,0.20257 0,0.14469 0.12816,0.21497 0.46715,0.21497 0.43822,0 0.6904,-0.27285 0.74414,-0.48369 z m -0.45475,0.8723 c -0.0207,0.0909 -0.10336,0.1819 -0.17777,0.24804 -0.0744,0.062 -0.18604,0.12403 -0.28525,0.12403 -0.17777,0 -0.23152,-0.1819 -0.23152,-0.32246 0,-0.1695 0.10336,-0.58291 0.19844,-0.76068 0.0951,-0.17363 0.24805,-0.31419 0.39274,-0.31419 0.23151,0 0.28112,0.28525 0.28112,0.30179 0,0.0165 -0.004,0.0372 -0.008,0.0537 z m 5.14904,-1.95131 c 0,0 0,-0.0372 -0.0455,-0.0372 -0.0827,0 -0.339,0.0289 -0.42995,0.0372 -0.0289,0 -0.0661,0.004 -0.0661,0.0703 0,0.0413 0.0331,0.0413 0.0827,0.0413 0.1695,0 0.17776,0.0248 0.17776,0.0579 l -0.0124,0.0703 -0.50849,2.02572 c -0.0124,0.0496 -0.0124,0.0537 -0.0124,0.0786 0,0.0786 0.0703,0.0951 0.0992,0.0951 0.0579,0 0.11575,-0.0413 0.13229,-0.0909 l 0.0661,-0.26458 0.0785,-0.31833 c 0.0207,-0.0786 0.0413,-0.15296 0.0579,-0.23564 0.008,-0.0207 0.0372,-0.13643 0.0413,-0.1571 0.008,-0.0331 0.11576,-0.22738 0.23564,-0.32246 0.0785,-0.0579 0.18604,-0.12402 0.339,-0.12402 0.14883,0 0.19017,0.11989 0.19017,0.24391 0,0.19017 -0.13229,0.57464 -0.21911,0.78961 -0.0289,0.0786 -0.0455,0.12403 -0.0455,0.19431 0,0.16536 0.12402,0.28525 0.28938,0.28525 0.33073,0 0.45889,-0.51263 0.45889,-0.54157 0,-0.0331 -0.033,-0.0331 -0.0413,-0.0331 -0.0372,0 -0.0372,0.008 -0.0537,0.062 -0.0537,0.18604 -0.16537,0.43822 -0.35967,0.43822 -0.0579,0 -0.0827,-0.0372 -0.0827,-0.11576 0,-0.0909 0.0331,-0.17363 0.062,-0.25218 0.0579,-0.14883 0.21497,-0.56637 0.21497,-0.77308 0,-0.22737 -0.14055,-0.3762 -0.40514,-0.3762 -0.21911,0 -0.38861,0.11162 -0.51677,0.27285 z m 0,0"
       style="fill:#000000;fill-opacity:1;fill-rule:nonzero;stroke:none;stroke-width:0.352777" />
    <path
       style="fill:#d32f2f;fill-opacity:0.5;stroke:#03a9f4;stroke-width:1.11125;stroke-linejoin:round;stroke-opacity:0.5"
       d="m 94.04904,142.32507 13.22917,14.55209"
       id="path1-6" />
    <path
       style="fill:#d32f2f;fill-opacity:0.5;stroke:#03a9f4;stroke-width:1.11125;stroke-linejoin:round;stroke-opacity:0.5"
       d="m 100.01353,142.6497 13.22917,14.55209"
       id="path1-7" />
  </g>
</svg>
